<svg xmlns="http://www.w3.org/2000/svg" width="40" height="40" viewBox="0 0 40 40" fill="none" class="svg replaced-svg">
<g clip-path="url(#clip0_857_12977)">
<g clip-path="url(#clip1_857_12977)">
<path d="M35.0912 10.6463L31.8158 6.75842C31.6695 6.58483 31.4554 6.48527 31.2284 6.48527C31.2284 6.48527 31.2284 6.48527 31.2283 6.48527C31.0012 6.48535 30.7873 6.5849 30.6411 6.75849L27.3656 10.6463C27.1709 10.8774 27.1292 11.1911 27.2567 11.4651C27.384 11.7391 27.6509 11.9092 27.9531 11.9092H28.8063V16.3586C27.995 15.8994 27.1338 15.5374 26.2395 15.2797V6.69741H27.0926C27.3948 6.69741 27.6617 6.52726 27.7891 6.25331C27.9165 5.97936 27.8748 5.66562 27.68 5.43454L24.4045 1.54673C24.2583 1.37307 24.0442 1.27344 23.8171 1.27344C23.59 1.27344 23.3759 1.37307 23.2298 1.54666L19.9542 5.43446C19.7596 5.66555 19.7179 5.97929 19.8453 6.25324C19.9727 6.52719 20.2396 6.69734 20.5417 6.69734H21.3949V14.9111C21.2171 14.934 21.0406 14.9606 20.8653 14.9912C20.1201 12.5441 18.27 10.5748 15.8983 9.66549L15.9757 9.35234C16.0808 8.92616 15.8757 8.50064 15.4768 8.31762C15.0778 8.13438 14.6216 8.25647 14.367 8.6141L13.9632 9.18153C13.629 9.1402 13.2886 9.11869 12.9434 9.11869C8.37787 9.11869 4.66357 12.8331 4.66357 17.3986C4.66357 20.9436 6.90381 23.9735 10.0422 25.1518L9.97065 25.4468C9.86729 25.8733 10.0742 26.298 10.4739 26.4793C10.597 26.5353 10.7254 26.5622 10.8517 26.5622C10.8914 26.5622 10.9307 26.5589 10.9697 26.5536C10.9684 26.6255 10.9661 26.6972 10.9661 26.7693C10.9661 33.3625 16.3299 38.7263 22.9231 38.7263C25.8429 38.7263 28.6543 37.6623 30.8395 35.7303C33.0053 33.8154 34.404 31.1898 34.7778 28.3371C34.8171 28.0367 34.6055 27.7612 34.3051 27.7218C34.0049 27.6828 33.7292 27.894 33.6898 28.1945C32.9849 33.5733 28.3563 37.6293 22.923 37.6293C16.935 37.6293 12.0633 32.7576 12.0633 26.7696C12.0633 26.3874 12.0837 26.0099 12.1225 25.6378C12.3926 25.6646 12.6664 25.6787 12.9434 25.6787C13.4061 25.6787 13.8623 25.6412 14.3093 25.5677C14.2546 25.9607 14.2257 26.3618 14.2257 26.7696C14.2257 27.0726 14.4712 27.3182 14.7743 27.3182C15.0774 27.3182 15.3229 27.0726 15.3229 26.7696C15.3229 26.2623 15.3742 25.7668 15.4695 25.2871C16.3901 24.9929 17.2565 24.5369 18.0387 23.9255C18.2774 23.7389 18.3196 23.3941 18.133 23.1554C17.9463 22.9168 17.6016 22.8746 17.3629 23.0611C16.0904 24.0558 14.5622 24.5815 12.9435 24.5815C12.8658 24.5815 12.7885 24.58 12.7114 24.5775L17.7443 17.4399C17.939 17.1638 17.9633 16.806 17.8079 16.506C17.6523 16.2061 17.3459 16.0199 17.008 16.0199H14.3295L15.6333 10.7394C18.265 11.8062 20.1261 14.389 20.1261 17.3988C20.1261 18.7912 19.727 20.1419 18.9718 21.3048C18.8068 21.559 18.879 21.8987 19.1331 22.0637C19.3872 22.2287 19.727 22.1565 19.8921 21.9024C20.3896 21.1362 20.7526 20.2993 20.9729 19.4233C21.5955 19.2578 22.2491 19.1692 22.9231 19.1692C24.8003 19.1692 26.5203 19.8536 27.8477 20.9855L24.171 24.6622C23.8053 24.4448 23.3786 24.3194 22.923 24.3194C21.572 24.3194 20.473 25.4185 20.473 26.7694C20.473 27.225 20.5984 27.6516 20.8159 28.0174L20.325 28.5082C20.1108 28.7225 20.1108 29.0699 20.325 29.2841C20.4322 29.3912 20.5727 29.4448 20.713 29.4448C20.8534 29.4448 20.9939 29.3912 21.101 29.2841L21.5728 28.8123C21.9603 29.0692 22.4244 29.2193 22.9231 29.2193C24.274 29.2193 25.3731 28.1203 25.3731 26.7693C25.3731 26.2706 25.223 25.8065 24.966 25.4191L28.6295 21.7556C29.8076 23.0948 30.5232 24.85 30.5232 26.7696C30.5232 27.0726 30.7688 27.3182 31.0718 27.3182C31.3749 27.3182 31.6205 27.0726 31.6205 26.7696C31.6205 24.5475 30.7824 22.5178 29.4064 20.9788L29.552 20.8333C29.7662 20.6189 29.7662 20.2716 29.552 20.0573C29.3376 19.8432 28.9903 19.8432 28.7761 20.0573L28.6255 20.2079C27.0976 18.8783 25.1027 18.0722 22.923 18.0722C22.3259 18.0722 21.7429 18.1331 21.1793 18.2484C21.208 17.9674 21.2233 17.684 21.2233 17.399C21.2233 16.9437 21.1858 16.497 21.1148 16.0615C21.703 15.9622 22.3069 15.9098 22.9229 15.9098C25.647 15.9098 28.2522 16.9229 30.2585 18.7623C32.2524 20.5902 33.4872 23.0741 33.7352 25.7563C33.7631 26.0581 34.0311 26.2804 34.332 26.252C34.6337 26.2242 34.8557 25.9569 34.8277 25.6553C34.6923 24.1906 34.2895 22.7799 33.6505 21.4842V16.6351C33.6505 16.332 33.4049 16.0864 33.1018 16.0864C32.7988 16.0864 32.5532 16.332 32.5532 16.6351V19.6824C32.0961 19.0623 31.5771 18.4826 30.9999 17.9533C30.6502 17.6327 30.2838 17.3351 29.9032 17.0609V11.5801C29.9032 11.1565 29.5587 10.812 29.1352 10.812H28.6605L31.2283 7.76416L33.7961 10.812H33.3214C32.8979 10.812 32.5533 11.1565 32.5533 11.5801V14.0748C32.5533 14.3779 32.7989 14.6234 33.102 14.6234C33.405 14.6234 33.6506 14.3779 33.6506 14.0748V11.9092H34.5038C34.8059 11.9092 35.0728 11.7391 35.2002 11.4651C35.3276 11.1911 35.286 10.8774 35.0912 10.6463ZM10.3025 24.078C7.64497 23.0235 5.76069 20.4273 5.76069 17.3988C5.76069 13.4382 8.98282 10.2162 12.9433 10.2162C13.0369 10.2162 13.13 10.2186 13.2228 10.2222L8.14664 17.3563C7.9503 17.6322 7.92485 17.9906 8.08007 18.2916C8.2353 18.5925 8.54202 18.7795 8.88071 18.7795H11.587L10.3025 24.078ZM13.2041 16.0002C13.1372 16.2708 13.1974 16.552 13.3694 16.7716C13.5413 16.9912 13.7998 17.1171 14.0786 17.1171H16.6292L11.28 24.7033L12.7122 18.7953C12.7777 18.5251 12.7167 18.2447 12.5447 18.0261C12.3728 17.8076 12.1147 17.6822 11.8366 17.6822H9.26138L14.6631 10.0907L13.2041 16.0002ZM22.923 28.1223C22.1771 28.1223 21.5703 27.5154 21.5703 26.7696C21.5703 26.0237 22.1771 25.4168 22.923 25.4168C23.6689 25.4168 24.2758 26.0237 24.2758 26.7696C24.2758 27.5154 23.6689 28.1223 22.923 28.1223ZM22.4921 14.8211V6.36823C22.4921 5.94469 22.1475 5.60015 21.724 5.60015H21.2494L23.8171 2.55248L26.3848 5.60015H25.9102C25.4867 5.60015 25.1422 5.94469 25.1422 6.36823V15.0189C24.4161 14.8824 23.6737 14.8124 22.9231 14.8124C22.7787 14.8125 22.6351 14.816 22.4921 14.8211Z" fill="#00A63F"></path>
<path d="M18.3716 32.852C18.1293 32.6702 17.7853 32.7192 17.6035 32.9615C17.4216 33.2038 17.4707 33.5478 17.713 33.7296C18.8156 34.5571 20.1163 35.1154 21.4742 35.3443C21.5051 35.3495 21.5358 35.352 21.566 35.352C21.829 35.352 22.0613 35.1624 22.1064 34.8945C22.1567 34.5957 21.9554 34.3127 21.6566 34.2623C20.4707 34.0625 19.3347 33.5748 18.3716 32.852Z" fill="#00A63F"></path>
<path d="M30.1876 28.9967C29.9725 29.6951 29.6592 30.3565 29.2563 30.9627C29.0886 31.215 29.1572 31.5556 29.4096 31.7233C29.5029 31.7854 29.6085 31.8151 29.7128 31.8151C29.8903 31.8151 30.0646 31.729 30.1702 31.57C30.6316 30.8761 30.9902 30.1189 31.2364 29.3197C31.3255 29.0301 31.1631 28.7231 30.8735 28.6338C30.5841 28.5446 30.2769 28.7071 30.1876 28.9967Z" fill="#00A63F"></path>
<path d="M27.5224 32.8155C26.5471 33.5594 25.3949 34.0599 24.1904 34.2629C23.8916 34.3132 23.6902 34.5963 23.7406 34.8952C23.7858 35.163 24.018 35.3526 24.281 35.3526C24.3113 35.3526 24.342 35.3502 24.3729 35.345C25.7523 35.1124 27.0716 34.5395 28.1879 33.6881C28.4288 33.5043 28.4752 33.16 28.2914 32.9191C28.1076 32.6782 27.7633 32.6318 27.5224 32.8155Z" fill="#00A63F"></path>
<path d="M14.9726 28.6337C14.6829 28.7227 14.5203 29.0297 14.6093 29.3193C14.8619 30.1412 15.2335 30.9181 15.7139 31.6284C15.8199 31.7853 15.9928 31.8698 16.1689 31.8698C16.2746 31.8698 16.3815 31.8393 16.4757 31.7756C16.7267 31.6059 16.7926 31.2649 16.6229 31.0138C16.2035 30.3936 15.8789 29.7149 15.6582 28.997C15.5692 28.7073 15.2617 28.5448 14.9726 28.6337Z" fill="#00A63F"></path>
</g>
</g>
<defs>
<clipPath id="clip0_857_12977">
<rect width="40" height="40" fill="white"></rect>
</clipPath>
<clipPath id="clip1_857_12977">
<rect width="40" height="40" fill="white" transform="translate(-0.03125)"></rect>
</clipPath>
</defs>
</svg>