<svg xmlns="http://www.w3.org/2000/svg" width="53" height="53" viewBox="0 0 53 53" fill="none" class="svg replaced-svg">
<path d="M27.0013 50.9991C15.3243 51.1131 5.85396 39.2657 6.00171 28.1245V13.406C6.00171 12.6673 6.43557 11.9974 7.10972 11.6951L26.1406 3.16404C26.6263 2.94626 27.1818 2.94532 27.6683 3.16123L46.8867 11.6923C47.5643 11.9931 48.001 12.6648 48.001 13.406V28.1245C48.001 32.2512 46.8271 36.4076 44.6063 40.1447C44.0773 41.0349 42.9269 41.3278 42.0366 40.7987C41.1464 40.2696 40.8536 39.1192 41.3826 38.2289C43.2592 35.0713 44.251 31.5772 44.251 28.1245V14.6251L26.9114 6.92804L9.75173 14.6203V28.1245C9.73608 41.8912 24.6985 52.755 36.0229 44.2332C36.8603 43.6239 38.0329 43.8086 38.6423 44.6459C39.2516 45.4832 39.0668 46.6559 38.2296 47.2652C34.8732 49.7079 30.9905 50.9991 27.0013 50.9991ZM34.8762 37.9668H19.1265C18.0909 37.9668 17.2515 37.1274 17.2515 36.0918V26.717C17.2515 24.3232 19.0552 22.3428 21.3748 22.0633V20.5296C21.657 13.2022 32.3451 13.2079 32.6246 20.5296V22.063C34.9459 22.341 36.7512 24.3221 36.7512 26.717V36.0918C36.7512 37.1274 35.9117 37.9668 34.8762 37.9668ZM21.0014 34.2169H33.0012V26.717C33.0012 26.2001 32.5807 25.7795 32.0637 25.7795H21.9389C21.422 25.7795 21.0014 26.2001 21.0014 26.717V34.2169ZM25.1249 22.0296H28.8748V20.5296C28.7817 18.1715 25.217 18.1732 25.1249 20.5296V22.0296Z" fill="#00A63F"></path>
</svg>