<svg width="50" height="50" viewBox="0 0 50 50" fill="none" xmlns="http://www.w3.org/2000/svg">
<g clip-path="url(#clip0_846_56)">
<path fill-rule="evenodd" clip-rule="evenodd" d="M3 15.5282V34.4725C3 35.0312 3.47257 35.5034 4.03237 35.5034H45.971C46.527 35.5034 46.9997 35.0312 46.9997 34.4725V15.5282C46.9997 14.9689 46.527 14.4968 45.971 14.4968H45.2574C45.2528 14.4968 45.2528 14.4968 45.2482 14.4968C45.2482 14.4968 45.2435 14.4968 45.2389 14.4968H4.03237C3.47257 14.4968 3 14.9689 3 15.5282ZM11.5438 29.2536H8.69551V20.7469H11.5437C13.1131 20.7469 14.391 22.0239 14.391 23.5942V26.4064C14.3911 27.9762 13.1132 29.2536 11.5438 29.2536ZM18.4687 45.9956C17.1555 44.0995 16.0333 41.5849 15.1834 38.6463H7.74796C10.5123 42.1242 14.2729 44.6797 18.4687 45.9956ZM25.0001 47.0002C22.58 47.0002 20.1043 43.7831 18.4668 38.6464H31.5343C29.8968 43.7831 27.421 47.0002 25.0001 47.0002ZM42.2535 38.6463H34.8176C33.9678 41.5849 32.8456 44.0995 31.5324 45.9956C35.7281 44.6797 39.4887 42.1242 42.2535 38.6463ZM31.5325 4.00452C32.8456 5.90056 33.9678 8.41518 34.8177 11.3538H42.2536C39.4887 7.87592 35.7281 5.32048 31.5325 4.00452ZM25.0001 3C27.4211 3 29.8968 6.2175 31.5343 11.3538H18.4668C20.1042 6.2175 22.58 3 25.0001 3ZM7.74796 11.3538H15.1834C16.0332 8.41518 17.1555 5.90056 18.4687 4.00452C14.2729 5.32048 10.5123 7.87592 7.74796 11.3538ZM7.12431 17.604H11.5438C14.8466 17.604 17.5341 20.2911 17.5341 23.5942V26.4064C17.5341 29.7091 14.8467 32.3966 11.5438 32.3966H7.12431C6.25695 32.3966 5.5526 31.6927 5.5526 30.8248V19.1752C5.5526 18.3074 6.25695 17.604 7.12431 17.604ZM19.0098 30.8248V19.1752C19.0098 18.5005 19.4412 17.901 20.0807 17.686C20.721 17.4706 21.4262 17.6878 21.834 18.2258L27.8483 26.1533V19.1752C27.8483 18.3073 28.5517 17.604 29.4196 17.604C30.287 17.604 30.9913 18.3073 30.9913 19.1752V30.8248C30.9913 31.4995 30.5599 32.099 29.921 32.314C29.7555 32.3696 29.5869 32.3965 29.4196 32.3965C28.9377 32.3965 28.4702 32.1741 28.1676 31.7746L22.1528 23.8466V30.8248C22.1528 31.6926 21.4499 32.3965 20.5815 32.3965C19.7141 32.3966 19.0098 31.6927 19.0098 30.8248ZM39.9641 29.2536C40.7036 29.2536 41.3055 28.6517 41.3055 27.9123C41.3055 27.1732 40.7036 26.5713 39.9641 26.5713H36.9518C34.4789 26.5713 32.4675 24.5603 32.4675 22.0878C32.4675 19.6153 34.479 17.604 36.9518 17.604H39.9641C41.6368 17.604 43.1589 18.5279 43.9369 20.0153C44.3401 20.784 44.0435 21.7339 43.2757 22.1366C42.507 22.5392 41.5571 22.2426 41.1544 21.474C40.9196 21.0255 40.4632 20.747 39.9641 20.747H36.9518C36.2124 20.747 35.6104 21.3484 35.6104 22.0879C35.6104 22.827 36.2124 23.4284 36.9518 23.4284H39.9641C42.4371 23.4284 44.4466 25.4398 44.4466 27.9123C44.4466 30.3848 42.4371 32.3966 39.9641 32.3966H36.9518C35.4965 32.3966 34.1254 31.6825 33.2835 30.4866C32.7835 29.7767 32.9545 28.7967 33.6634 28.2967C34.3738 27.7973 35.3537 27.9678 35.8537 28.6772C36.1072 29.0381 36.5177 29.2536 36.9518 29.2536H39.9641V29.2536Z" fill="#00A63F"/>
</g>
<defs>
<clipPath id="clip0_846_56">
<rect width="44" height="44" fill="white" transform="translate(3 3)"/>
</clipPath>
</defs>
</svg>
