<svg xmlns="http://www.w3.org/2000/svg" width="41" height="40" viewBox="0 0 41 40" fill="none" class="svg replaced-svg">
<path fill-rule="evenodd" clip-rule="evenodd" d="M14.5156 25.625H10.1406C6.34625 25.625 3.26562 22.5444 3.26562 18.75C3.26562 14.9556 6.34625 11.875 10.1406 11.875C10.3837 11.875 10.6231 11.8875 10.86 11.9119C10.7975 11.4919 10.7656 11.0625 10.7656 10.625C10.7656 5.79562 14.6862 1.875 19.5156 1.875C24.345 1.875 28.2656 5.79562 28.2656 10.625C28.2656 10.66 28.2656 10.6944 28.265 10.7288C28.6719 10.6606 29.0894 10.625 29.5156 10.625C33.655 10.625 37.0156 13.9856 37.0156 18.125C37.0156 18.6294 36.9656 19.1219 36.8706 19.5981C36.8031 19.9363 36.4737 20.1562 36.1356 20.0887C35.7969 20.0212 35.5775 19.6919 35.645 19.3531C35.7244 18.9563 35.7656 18.5456 35.7656 18.125C35.7656 14.6756 32.965 11.875 29.5156 11.875C28.9087 11.875 28.3213 11.9619 27.7663 12.1231C27.5656 12.1819 27.3494 12.1362 27.1894 12.0019C27.0294 11.8675 26.9475 11.6625 26.97 11.455C27 11.1825 27.0156 10.9056 27.0156 10.625C27.0156 6.48562 23.655 3.125 19.5156 3.125C15.3762 3.125 12.0156 6.48562 12.0156 10.625C12.0156 11.2819 12.1 11.9194 12.2594 12.5269C12.315 12.74 12.2544 12.9675 12.0987 13.1244C11.9437 13.2813 11.7175 13.345 11.5031 13.2913C11.0669 13.1825 10.6106 13.125 10.1406 13.125C7.03625 13.125 4.51562 15.6456 4.51562 18.75C4.51562 21.8544 7.03625 24.375 10.1406 24.375H29.5156C31.7387 24.375 33.6919 23.2119 34.8 21.4619C34.9844 21.1706 35.3712 21.0837 35.6625 21.2681C35.9537 21.4525 36.0406 21.8394 35.8563 22.1306C34.5263 24.23 32.1825 25.625 29.5156 25.625H25.7656V28.3637L29.17 30.0662C29.3819 30.1719 29.5156 30.3881 29.5156 30.625V33.2037C30.5938 33.4819 31.3906 34.4613 31.3906 35.625C31.3906 37.005 30.2706 38.125 28.8906 38.125C27.5112 38.125 26.3906 37.005 26.3906 35.625C26.3906 34.4613 27.1881 33.4819 28.2656 33.2037V31.0113L24.8613 29.3088C24.6494 29.2031 24.5156 28.9869 24.5156 28.75V25.625H20.7656V33.2037C21.8431 33.4819 22.6406 34.4613 22.6406 35.625C22.6406 37.005 21.5206 38.125 20.1406 38.125C18.7606 38.125 17.6406 37.005 17.6406 35.625C17.6406 34.4613 18.4381 33.4819 19.5156 33.2037V25.625H15.7656V28.75C15.7656 28.9869 15.6319 29.2031 15.42 29.3088L12.0156 31.0113V33.2037C13.0931 33.4819 13.8906 34.4613 13.8906 35.625C13.8906 37.005 12.7706 38.125 11.3906 38.125C10.0106 38.125 8.89062 37.005 8.89062 35.625C8.89062 34.4613 9.68813 33.4819 10.7656 33.2037V30.625C10.7656 30.3881 10.8994 30.1719 11.1112 30.0662L14.5156 28.3637V25.625ZM28.8906 34.375C28.2006 34.375 27.6406 34.935 27.6406 35.625C27.6406 36.315 28.2006 36.875 28.8906 36.875C29.5806 36.875 30.1406 36.315 30.1406 35.625C30.1406 34.935 29.5806 34.375 28.8906 34.375ZM20.1406 34.375C19.4506 34.375 18.8906 34.935 18.8906 35.625C18.8906 36.315 19.4506 36.875 20.1406 36.875C20.8306 36.875 21.3906 36.315 21.3906 35.625C21.3906 34.935 20.8306 34.375 20.1406 34.375ZM11.3906 34.375C10.7006 34.375 10.1406 34.935 10.1406 35.625C10.1406 36.315 10.7006 36.875 11.3906 36.875C12.0806 36.875 12.6406 36.315 12.6406 35.625C12.6406 34.935 12.0806 34.375 11.3906 34.375ZM13.2656 21.25V17.5C13.2656 17.365 13.3094 17.2331 13.3906 17.125L15.2656 14.625C15.3838 14.4675 15.5688 14.375 15.7656 14.375C15.9625 14.375 16.1475 14.4675 16.2656 14.625L18.1406 17.125C18.2219 17.2331 18.2656 17.365 18.2656 17.5V21.25C18.2656 21.595 17.9856 21.875 17.6406 21.875C17.2956 21.875 17.0156 21.595 17.0156 21.25V19.375H14.5156V21.25C14.5156 21.595 14.2356 21.875 13.8906 21.875C13.5456 21.875 13.2656 21.595 13.2656 21.25ZM17.0156 18.125V17.7081L15.7656 16.0419L14.5156 17.7081V18.125H17.0156ZM20.7656 17.5H23.2656V16.0825C23.2656 15.7375 23.5456 15.4575 23.8906 15.4575C24.2356 15.4575 24.5156 15.7375 24.5156 16.0825V18.125C24.5156 18.47 24.2356 18.75 23.8906 18.75H20.7656V21.25C20.7656 21.595 20.485 21.875 20.1406 21.875C19.7956 21.875 19.5156 21.595 19.5156 21.25V15C19.5156 14.655 19.7956 14.375 20.1406 14.375H22.0156C22.3606 14.375 22.6406 14.655 22.6406 15C22.6406 15.345 22.3606 15.625 22.0156 15.625H20.7656V17.5ZM25.7656 15C25.7656 14.655 26.0456 14.375 26.3906 14.375C26.7356 14.375 27.0156 14.655 27.0156 15V21.25C27.0156 21.595 26.7356 21.875 26.3906 21.875C26.0456 21.875 25.7656 21.595 25.7656 21.25V15Z" fill="#00A63F"></path>
</svg>