<svg width="51" height="50" viewBox="0 0 51 50" fill="none" xmlns="http://www.w3.org/2000/svg">
<g clip-path="url(#clip0_828_1241)">
<path fill-rule="evenodd" clip-rule="evenodd" d="M44.3457 36.5352C44.3457 32.2227 40.8436 28.7227 36.5332 28.7227C32.2207 28.7227 28.7207 32.2227 28.7207 36.5352C28.7207 40.8456 32.2207 44.3477 36.5332 44.3477C40.8436 44.3477 44.3457 40.8456 44.3457 36.5352ZM41.2207 36.5352C41.2207 39.1206 39.1186 41.2227 36.5332 41.2227C33.9457 41.2227 31.8457 39.1206 31.8457 36.5352C31.8457 33.9477 33.9457 31.8477 36.5332 31.8477C39.1186 31.8477 41.2207 33.9477 41.2207 36.5352Z" fill="#00A63F"/>
<path fill-rule="evenodd" clip-rule="evenodd" d="M27.231 38.0977H30.283C31.1435 38.0977 31.8455 37.3956 31.8455 36.5352C31.8455 35.6727 31.1435 34.9727 30.283 34.9727H27.231C26.3685 34.9727 25.6685 35.6727 25.6685 36.5352C25.6685 37.3956 26.3685 38.0977 27.231 38.0977Z" fill="#00A63F"/>
<path fill-rule="evenodd" clip-rule="evenodd" d="M31.0602 44.2151L33.2186 42.0568C33.8269 41.4464 33.8269 40.4568 33.2186 39.8484C32.6081 39.238 31.6186 39.238 31.0081 39.8484L28.8498 42.0047C28.2415 42.6151 28.2415 43.6047 28.8498 44.2151C29.4602 44.8234 30.4498 44.8234 31.0602 44.2151Z" fill="#00A63F"/>
<path fill-rule="evenodd" clip-rule="evenodd" d="M38.0957 45.8352V42.7852C38.0957 41.9227 37.3936 41.2227 36.5332 41.2227C35.6707 41.2227 34.9707 41.9227 34.9707 42.7852V45.8352C34.9707 46.6977 35.6707 47.3977 36.5332 47.3977C37.3936 47.3977 38.0957 46.6977 38.0957 45.8352Z" fill="#00A63F"/>
<path fill-rule="evenodd" clip-rule="evenodd" d="M44.2146 42.0047L42.0563 39.8484C41.4459 39.238 40.4563 39.238 39.8479 39.8484C39.2375 40.4568 39.2375 41.4464 39.8479 42.0568L42.0042 44.2151C42.6146 44.8234 43.6042 44.8234 44.2146 44.2151C44.8229 43.6047 44.8229 42.6151 44.2146 42.0047Z" fill="#00A63F"/>
<path fill-rule="evenodd" clip-rule="evenodd" d="M45.8332 34.9727H42.7832C41.9207 34.9727 41.2207 35.6727 41.2207 36.5352C41.2207 37.3956 41.9207 38.0977 42.7832 38.0977H45.8332C46.6957 38.0977 47.3957 37.3956 47.3957 36.5352C47.3957 35.6727 46.6957 34.9727 45.8332 34.9727Z" fill="#00A63F"/>
<path fill-rule="evenodd" clip-rule="evenodd" d="M42.0042 28.8508L39.8479 31.0091C39.2375 31.6195 39.2375 32.6091 39.8479 33.2195C40.4563 33.8279 41.4459 33.8279 42.0563 33.2195L44.2146 31.0612C44.8229 30.4508 44.8229 29.4612 44.2146 28.8508C43.6042 28.2424 42.6146 28.2424 42.0042 28.8508Z" fill="#00A63F"/>
<path fill-rule="evenodd" clip-rule="evenodd" d="M34.9707 27.2344V30.2865C34.9707 31.1469 35.6707 31.849 36.5332 31.849C37.3936 31.849 38.0957 31.1469 38.0957 30.2865V27.2344C38.0957 26.3719 37.3936 25.6719 36.5332 25.6719C35.6707 25.6719 34.9707 26.3719 34.9707 27.2344Z" fill="#00A63F"/>
<path fill-rule="evenodd" clip-rule="evenodd" d="M28.8498 31.0612L31.0081 33.2195C31.6186 33.8279 32.6081 33.8279 33.2186 33.2195C33.8269 32.6091 33.8269 31.6195 33.2186 31.0091L31.0602 28.8508C30.4498 28.2424 29.4602 28.2424 28.8498 28.8508C28.2415 29.4612 28.2415 30.4508 28.8498 31.0612Z" fill="#00A63F"/>
<path fill-rule="evenodd" clip-rule="evenodd" d="M2.604 16.1471V39.5846C2.604 43.8992 6.10192 47.3971 10.4165 47.3971H33.2373C33.0123 46.9242 32.8873 46.393 32.8873 45.8346V45.7346C32.7915 45.6971 32.6978 45.6576 32.604 45.618L32.5332 45.6888C31.1103 47.1117 28.7998 47.1117 27.3769 45.6888C25.954 44.2659 25.954 41.9555 27.3769 40.5326L27.4478 40.4617C27.4082 40.368 27.3686 40.2742 27.3311 40.1805H27.2311C25.2186 40.1805 23.5853 38.5451 23.5853 36.5346C23.5853 34.5221 25.2186 32.8888 27.2311 32.8888H27.3311C27.3686 32.793 27.4082 32.6992 27.4478 32.6055L27.3769 32.5346C25.954 31.1117 25.954 28.8013 27.3769 27.3784C28.7998 25.9555 31.1103 25.9555 32.5332 27.3784L32.604 27.4492C32.6978 27.4096 32.7915 27.3701 32.8873 27.3326V27.2326C32.8873 25.2201 34.5207 23.5867 36.5332 23.5867C38.5436 23.5867 40.179 25.2201 40.179 27.2326V27.3326C40.2728 27.3701 40.3665 27.4096 40.4603 27.4492L40.5311 27.3784C41.954 25.9555 44.2644 25.9555 45.6873 27.3784C47.1103 28.8013 47.1103 31.1117 45.6873 32.5346L45.6165 32.6055C45.6561 32.6992 45.6957 32.793 45.7332 32.8888H45.8332C46.3915 32.8888 46.9228 33.0138 47.3957 33.2388V16.1471H2.604ZM9.37484 34.8971H17.7082C18.5707 34.8971 19.2707 34.1971 19.2707 33.3346C19.2707 32.4721 18.5707 31.7721 17.7082 31.7721H9.37484C8.51234 31.7721 7.81234 32.4721 7.81234 33.3346C7.81234 34.1971 8.51234 34.8971 9.37484 34.8971ZM9.37484 28.6471H21.8748C22.7373 28.6471 23.4373 27.9471 23.4373 27.0846C23.4373 26.2221 22.7373 25.5221 21.8748 25.5221H9.37484C8.51234 25.5221 7.81234 26.2221 7.81234 27.0846C7.81234 27.9471 8.51234 28.6471 9.37484 28.6471ZM9.37484 22.3971H28.1248C28.9873 22.3971 29.6873 21.6971 29.6873 20.8346C29.6873 19.9721 28.9873 19.2721 28.1248 19.2721H9.37484C8.51234 19.2721 7.81234 19.9721 7.81234 20.8346C7.81234 21.6971 8.51234 22.3971 9.37484 22.3971ZM2.604 13.0221H47.3957V10.418C47.3957 6.10339 43.8978 2.60547 39.5832 2.60547H10.4165C6.10192 2.60547 2.604 6.10339 2.604 10.418V13.0221ZM26.5623 6.77214C27.4248 6.77214 28.1248 7.47214 28.1248 8.33464C28.1248 9.19714 27.4248 9.89714 26.5623 9.89714C25.6998 9.89714 24.9998 9.19714 24.9998 8.33464C24.9998 7.47214 25.6998 6.77214 26.5623 6.77214ZM32.2915 6.77214C33.154 6.77214 33.854 7.47214 33.854 8.33464C33.854 9.19714 33.154 9.89714 32.2915 9.89714C31.429 9.89714 30.729 9.19714 30.729 8.33464C30.729 7.47214 31.429 6.77214 32.2915 6.77214ZM38.0207 6.77214C38.8832 6.77214 39.5832 7.47214 39.5832 8.33464C39.5832 9.19714 38.8832 9.89714 38.0207 9.89714C37.1582 9.89714 36.4582 9.19714 36.4582 8.33464C36.4582 7.47214 37.1582 6.77214 38.0207 6.77214Z" fill="#00A63F"/>
</g>
<defs>
<clipPath id="clip0_828_1241">
<rect width="50" height="50" fill="white" transform="translate(0.5)"/>
</clipPath>
</defs>
</svg>
