<svg width="431" height="368" viewBox="0 0 431 368" fill="none" xmlns="http://www.w3.org/2000/svg">
<path d="M56.6297 364.001C60.4587 356.581 26.173 297.454 25.6221 282.519C23.9693 237.696 77.9964 237.338 82.7192 200.731C86.9505 167.925 31.9393 128.323 65.9627 97.2936C95.0914 70.7279 127.53 81.7908 161.535 72.6372C181.814 67.179 183.367 48.4321 199.392 37.7578C234.115 14.6241 309.919 38.4629 329.719 72.0362C348.707 104.237 307.319 132.601 317.93 163.445C326.459 188.248 353.615 200.476 355.163 228.996C356.396 251.694 333.44 267.161 336.546 289.735C340.75 320.295 395.603 328.054 352.679 363.705" fill="#E5F2FF"/>
<path d="M57.6862 168.066C58.0652 168.066 58.3731 168.373 58.3731 168.752V174.25C58.3731 174.629 58.0663 174.936 57.6862 174.936C57.3062 174.936 57.0005 174.629 57.0005 174.25V168.752C57.0005 168.374 57.3073 168.066 57.6862 168.066Z" fill="#E5F2FF"/>
<path d="M57.953 192.205C58.332 192.205 58.6387 191.899 58.6387 191.519V186.022C58.6387 185.644 58.332 185.336 57.953 185.336C57.574 185.336 57.2715 185.643 57.2715 186.022V191.519C57.2715 191.899 57.5783 192.205 57.953 192.205Z" fill="#E5F2FF"/>
<path d="M66.0897 171.459C66.3699 171.718 66.3837 172.151 66.1258 172.429L62.3966 176.465C62.1386 176.744 61.7055 176.761 61.4306 176.504C61.1503 176.247 61.1323 175.812 61.3903 175.534L65.1205 171.498C65.3774 171.219 65.8116 171.202 66.0918 171.459H66.0897Z" fill="#E5F2FF"/>
<path d="M49.5505 171.245C49.2702 171.503 49.2575 171.936 49.5144 172.214L53.2446 176.25C53.5015 176.529 53.9357 176.546 54.2149 176.289C54.4898 176.032 54.5089 175.597 54.251 175.319L50.5207 171.283C50.2638 171.005 49.8296 170.988 49.5494 171.245H49.5505Z" fill="#E5F2FF"/>
<path d="M66.3609 188.812C66.6359 188.555 66.655 188.121 66.397 187.843L62.6678 183.806C62.4099 183.528 61.9768 183.511 61.6965 183.768C61.4216 184.025 61.4035 184.459 61.6604 184.738L65.3907 188.774C65.6486 189.052 66.0817 189.069 66.362 188.812H66.3609Z" fill="#E5F2FF"/>
<path d="M49.2798 188.597C49.0038 188.34 48.9858 187.906 49.2437 187.628L52.974 183.591C53.2309 183.313 53.6651 183.296 53.9453 183.553C54.2202 183.81 54.2393 184.245 53.9814 184.523L50.2511 188.559C49.9942 188.837 49.5601 188.854 49.2809 188.597H49.2798Z" fill="#E5F2FF"/>
<path d="M69.9776 180.135C69.9776 180.514 69.6708 180.821 69.2908 180.821L63.8005 180.824C63.4215 180.824 63.1147 180.517 63.1147 180.138C63.1147 179.759 63.4173 179.452 63.7963 179.452L69.2918 179.449C69.6708 179.449 69.9787 179.756 69.9787 180.135H69.9776Z" fill="#E5F2FF"/>
<path d="M45.6616 179.92C45.6616 180.299 45.9684 180.606 46.3474 180.606L51.843 180.61C52.2177 180.61 52.5298 180.303 52.5298 179.924C52.5298 179.544 52.223 179.238 51.843 179.238L46.3474 179.234C45.9684 179.234 45.6616 179.541 45.6616 179.92Z" fill="#E5F2FF"/>
<path d="M310.49 16.4844C310.869 16.4844 311.177 16.7913 311.177 17.1704V22.6679C311.177 23.047 310.87 23.3539 310.49 23.3539C310.11 23.3539 309.803 23.047 309.803 22.6679V17.1704C309.803 16.7913 310.11 16.4844 310.49 16.4844Z" fill="#E5F2FF"/>
<path d="M310.761 40.6234C311.14 40.6234 311.446 40.3165 311.446 39.9374V34.4399C311.446 34.0608 311.14 33.7539 310.761 33.7539C310.382 33.7539 310.074 34.0608 310.074 34.4399V39.9374C310.074 40.3154 310.381 40.6234 310.761 40.6234Z" fill="#E5F2FF"/>
<path d="M318.893 19.8774C319.173 20.1355 319.191 20.5687 318.933 20.847L315.199 24.8833C314.946 25.1615 314.508 25.1785 314.233 24.9215C313.952 24.6645 313.939 24.2302 314.192 23.952L317.927 19.9157C318.184 19.6374 318.618 19.6205 318.893 19.8774Z" fill="#E5F2FF"/>
<path d="M302.353 19.6626C302.078 19.9206 302.06 20.3539 302.317 20.6321L306.046 24.6684C306.304 24.9466 306.737 24.9636 307.017 24.7066C307.292 24.4497 307.311 24.0153 307.053 23.7371L303.323 19.7008C303.065 19.4226 302.632 19.4056 302.352 19.6626H302.353Z" fill="#E5F2FF"/>
<path d="M319.163 37.2301C319.443 36.972 319.456 36.5388 319.203 36.2606L315.469 32.2243C315.212 31.946 314.778 31.929 314.503 32.186C314.223 32.443 314.205 32.8773 314.463 33.1555L318.197 37.1919C318.45 37.4701 318.888 37.4871 319.163 37.2301Z" fill="#E5F2FF"/>
<path d="M302.086 37.0152C301.806 36.7572 301.788 36.3239 302.046 36.0457L305.776 32.0094C306.033 31.7312 306.467 31.7142 306.746 31.9712C307.026 32.2282 307.04 32.6625 306.782 32.9407L303.053 36.977C302.795 37.2552 302.362 37.2722 302.087 37.0152H302.086Z" fill="#E5F2FF"/>
<path d="M322.784 28.5443C322.784 28.9223 322.477 29.2303 322.097 29.2303L316.602 29.2335C316.223 29.2335 315.915 28.9266 315.915 28.5475C315.915 28.1684 316.222 27.8615 316.602 27.8615L322.097 27.8594C322.472 27.8594 322.779 28.1663 322.784 28.5454V28.5443Z" fill="#E5F2FF"/>
<path d="M298.465 28.3344C298.465 28.7125 298.772 29.0204 299.152 29.0204L304.647 29.0225C305.026 29.0225 305.334 28.7157 305.334 28.3366C305.334 27.9575 305.027 27.6506 304.647 27.6506L299.152 27.6484C298.773 27.6484 298.465 27.9553 298.465 28.3344Z" fill="#E5F2FF"/>
<path d="M352.229 271.957C352.608 271.957 352.915 272.264 352.915 272.643V278.139C352.915 278.519 352.608 278.825 352.229 278.825C351.85 278.825 351.542 278.519 351.542 278.139V272.643C351.542 272.264 351.849 271.957 352.229 271.957Z" fill="#E5F2FF"/>
<path d="M352.501 296.099C352.876 296.099 353.182 295.792 353.182 295.413V289.916C353.182 289.537 352.876 289.23 352.501 289.23C352.126 289.23 351.814 289.537 351.814 289.916V295.413C351.814 295.792 352.121 296.099 352.501 296.099Z" fill="#E5F2FF"/>
<path d="M360.632 275.35C360.913 275.607 360.931 276.041 360.673 276.32L356.938 280.356C356.681 280.634 356.247 280.651 355.972 280.394C355.692 280.137 355.674 279.703 355.932 279.425L359.666 275.388C359.923 275.11 360.357 275.093 360.632 275.35Z" fill="#E5F2FF"/>
<path d="M344.093 275.139C343.818 275.396 343.8 275.83 344.056 276.109L347.786 280.145C348.043 280.423 348.477 280.44 348.757 280.183C349.032 279.925 349.05 279.492 348.793 279.214L345.063 275.177C344.806 274.899 344.372 274.882 344.091 275.139H344.093Z" fill="#E5F2FF"/>
<path d="M360.904 292.707C361.184 292.45 361.197 292.015 360.94 291.737L357.211 287.701C356.954 287.423 356.52 287.406 356.245 287.663C355.965 287.92 355.947 288.354 356.205 288.632L359.934 292.668C360.191 292.947 360.625 292.964 360.905 292.707H360.904Z" fill="#E5F2FF"/>
<path d="M343.822 292.492C343.547 292.235 343.529 291.8 343.786 291.522L347.516 287.486C347.773 287.208 348.207 287.191 348.487 287.448C348.762 287.705 348.782 288.139 348.524 288.417L344.794 292.454C344.536 292.732 344.103 292.749 343.823 292.492H343.822Z" fill="#E5F2FF"/>
<path d="M364.521 284.029C364.521 284.408 364.214 284.715 363.84 284.716L358.344 284.719C357.965 284.719 357.657 284.412 357.657 284.033C357.657 283.654 357.964 283.347 358.339 283.347L363.834 283.344C364.213 283.344 364.52 283.651 364.52 284.03L364.521 284.029Z" fill="#E5F2FF"/>
<path d="M340.205 283.81C340.205 284.189 340.512 284.496 340.892 284.497L346.387 284.5C346.766 284.5 347.074 284.193 347.074 283.814C347.074 283.435 346.768 283.128 346.387 283.128L340.892 283.125C340.513 283.125 340.205 283.432 340.205 283.811V283.81Z" fill="#E5F2FF"/>
<path d="M145.474 35.0703C145.853 35.0703 146.161 35.3772 146.161 35.7563V41.2538C146.161 41.6329 145.855 41.9398 145.474 41.9398C145.094 41.9398 144.793 41.6329 144.793 41.2538V35.7563C144.793 35.3783 145.1 35.0703 145.474 35.0703Z" fill="#E5F2FF"/>
<path d="M145.745 59.2054C146.124 59.2054 146.432 58.8985 146.432 58.5194V53.0219C146.432 52.6428 146.125 52.3359 145.745 52.3359C145.365 52.3359 145.059 52.6428 145.059 53.0219V58.5194C145.059 58.8975 145.365 59.2054 145.745 59.2054Z" fill="#E5F2FF"/>
<path d="M153.883 38.4556C154.159 38.7136 154.177 39.1469 153.919 39.4251L150.19 43.4614C149.932 43.7396 149.499 43.7566 149.218 43.4996C148.944 43.2426 148.925 42.8083 149.182 42.5301L152.913 38.4938C153.17 38.2156 153.604 38.1986 153.883 38.4556Z" fill="#E5F2FF"/>
<path d="M137.343 38.2446C137.062 38.5016 137.044 38.9359 137.302 39.2141L141.037 43.2505C141.295 43.5287 141.728 43.5457 142.003 43.2887C142.283 43.0317 142.301 42.5974 142.043 42.3192L138.309 38.2828C138.052 38.0046 137.618 37.9876 137.343 38.2446Z" fill="#E5F2FF"/>
<path d="M154.153 55.816C154.428 55.558 154.446 55.1247 154.19 54.8465L150.459 50.8102C150.201 50.532 149.768 50.515 149.488 50.772C149.213 51.0289 149.195 51.4633 149.452 51.7415L153.181 55.7778C153.439 56.056 153.872 56.073 154.152 55.816H154.153Z" fill="#E5F2FF"/>
<path d="M137.071 55.5973C136.791 55.3403 136.777 54.906 137.035 54.6278L140.765 50.5914C141.022 50.3132 141.456 50.2962 141.731 50.5532C142.011 50.8102 142.029 51.2445 141.771 51.5227L138.042 55.559C137.784 55.8373 137.351 55.8543 137.071 55.5973Z" fill="#E5F2FF"/>
<path d="M157.77 47.1352C157.77 47.5143 157.463 47.8212 157.083 47.8212L151.588 47.8233C151.209 47.8233 150.901 47.5164 150.901 47.1373C150.901 46.7582 151.208 46.4513 151.588 46.4513L157.083 46.4492C157.462 46.4492 157.77 46.7561 157.77 47.1352Z" fill="#E5F2FF"/>
<path d="M133.455 46.9214C133.455 47.3005 133.761 47.6074 134.136 47.6074L139.632 47.6095C140.011 47.6095 140.318 47.3027 140.318 46.9236C140.318 46.5445 140.012 46.2376 139.632 46.2376L134.141 46.2344C133.762 46.2344 133.455 46.5413 133.455 46.9204V46.9214Z" fill="#E5F2FF"/>
<path d="M31.9585 116.198C30.9022 115.133 29.1857 115.126 28.1199 116.182L15.0927 129.102C14.0269 130.159 14.0227 131.877 15.0789 132.942L27.9925 145.973C29.0488 147.038 30.7653 147.047 31.83 145.991L44.8572 133.071C45.923 132.015 45.9273 130.295 44.871 129.23L31.9574 116.199L31.9585 116.198ZM31.6697 118.378L42.6917 129.5C43.5951 130.409 43.5855 131.876 42.6779 132.778L31.5614 143.805C30.6538 144.706 29.1868 144.7 28.2834 143.791L17.2614 132.669C16.3581 131.76 16.3676 130.293 17.2752 129.391L28.3917 118.364C29.2993 117.463 30.7663 117.469 31.6697 118.378Z" fill="#E5F2FF"/>
<path d="M370.739 208.85C369.813 207.915 368.305 207.909 367.37 208.836L355.932 220.18C354.998 221.107 354.993 222.616 355.919 223.552L367.257 234.992C368.187 235.928 369.695 235.935 370.63 235.008L382.067 223.664C383.003 222.737 383.007 221.227 382.081 220.291L370.739 208.85ZM370.486 210.765L380.163 220.529C380.958 221.328 380.949 222.617 380.154 223.408L370.392 233.091C369.592 233.882 368.306 233.876 367.516 233.079L357.835 223.314C357.045 222.515 357.049 221.227 357.848 220.436L367.61 210.753C368.405 209.961 369.696 209.968 370.486 210.765Z" fill="#E5F2FF"/>
<path d="M342.504 44.2335C341.248 43.4116 339.569 43.762 338.747 45.0182L328.696 60.3702C327.874 61.6254 328.226 63.3074 329.481 64.1283L344.829 74.1803C346.085 75.0022 347.764 74.6529 348.586 73.3977L358.637 58.0457C359.459 56.7905 359.102 55.1074 357.852 54.2855L342.504 44.2335ZM342.676 46.4263L355.776 55.0055C356.846 55.7074 357.144 57.1441 356.444 58.2145L347.865 71.3174C347.165 72.3889 345.729 72.6883 344.659 71.9875L331.56 63.4083C330.49 62.7064 330.191 61.2696 330.891 60.1992L339.466 47.0964C340.166 46.0249 341.606 45.7254 342.676 46.4263Z" fill="#E5F2FF"/>
<path d="M180.483 10.0419C179.426 8.97681 177.706 8.96938 176.644 10.026L163.617 22.9462C162.551 24.0028 162.543 25.721 163.599 26.7861L176.518 39.8167C177.57 40.8818 179.29 40.8903 180.356 39.8348L193.383 26.9145C194.449 25.859 194.453 24.1387 193.397 23.0736L180.484 10.043L180.483 10.0419ZM180.194 12.222L191.216 23.3434C192.114 24.2523 192.11 25.7199 191.202 26.6215L180.086 37.6483C179.174 38.5499 177.706 38.5435 176.808 37.6345L165.781 26.5131C164.882 25.6042 164.887 24.1366 165.799 23.235L176.916 12.2082C177.823 11.3066 179.29 11.313 180.194 12.222Z" fill="#E5F2FF"/>
<path d="M45.662 213.215C40.8575 213.215 36.9648 217.109 36.9648 221.914C36.9648 226.719 40.8575 230.616 45.662 230.616C50.4666 230.616 54.3582 226.719 54.3582 221.914C54.3582 217.109 50.4655 213.215 45.662 213.215ZM45.662 217.226C48.249 217.226 50.3487 219.325 50.3487 221.914C50.3487 224.503 48.249 226.603 45.662 226.602C43.0751 226.602 40.9753 224.503 40.9753 221.914C40.9753 219.325 43.0751 217.226 45.662 217.226Z" fill="#E5F2FF"/>
<path d="M361.061 171.434C356.257 171.434 352.365 175.328 352.365 180.133C352.365 184.938 356.258 188.835 361.061 188.835C365.865 188.835 369.758 184.938 369.758 180.133C369.758 175.328 365.865 171.434 361.061 171.434ZM361.061 175.444C363.653 175.444 365.748 177.544 365.748 180.133C365.748 182.722 363.653 184.821 361.061 184.821C358.47 184.821 356.375 182.722 356.375 180.133C356.375 177.544 358.474 175.443 361.061 175.444Z" fill="#E5F2FF"/>
<path d="M352.365 97.9922C347.56 97.9922 343.664 101.886 343.664 106.691C343.664 111.496 347.56 115.394 352.365 115.394C357.17 115.394 361.061 111.496 361.061 106.691C361.061 101.886 357.168 97.9922 352.365 97.9922ZM352.365 102.003C354.952 102.003 357.052 104.102 357.052 106.691C357.052 109.28 354.952 111.381 352.365 111.381C349.778 111.381 347.678 109.281 347.678 106.691C347.678 104.101 349.778 102.003 352.365 102.003Z" fill="#E5F2FF"/>
<path d="M215.702 0.539062C210.898 0.539062 207.001 4.43414 207.001 9.23927C207.001 14.0444 210.898 17.9416 215.702 17.9416C220.507 17.9416 224.399 14.0444 224.399 9.23927C224.399 4.43414 220.503 0.539062 215.702 0.539062ZM215.702 4.54989C218.289 4.54989 220.389 6.64928 220.389 9.23821C220.389 11.8271 218.289 13.9265 215.702 13.9265C213.115 13.9265 211.016 11.8271 211.016 9.23821C211.016 6.64928 213.111 4.54989 215.702 4.54989Z" fill="#E5F2FF"/>
<path fill-rule="evenodd" clip-rule="evenodd" d="M215.663 360.395C334.184 360.395 430.409 362.01 430.409 364C430.409 365.99 334.184 367.605 215.663 367.605C97.1423 367.605 0.917969 365.99 0.917969 364C0.917969 362.01 97.1423 360.395 215.663 360.395Z" fill="#CAD7E4"/>
<path fill-rule="evenodd" clip-rule="evenodd" d="M229.167 221.191C229.167 220.874 229.424 220.618 229.74 220.618C230.055 220.618 230.312 220.875 230.312 221.191V221.769C230.312 222.086 230.055 222.342 229.74 222.342C229.424 222.342 229.167 222.086 229.167 221.769V221.191ZM229.167 217.72C229.167 217.404 229.424 217.148 229.74 217.148C230.055 217.148 230.312 217.405 230.312 217.72V218.877C230.312 219.193 230.055 219.449 229.74 219.449C229.424 219.449 229.167 219.192 229.167 218.877V217.72ZM229.167 214.25C229.167 213.934 229.424 213.678 229.74 213.678C230.055 213.678 230.312 213.935 230.312 214.25V215.406C230.312 215.723 230.055 215.979 229.74 215.979C229.424 215.979 229.167 215.722 229.167 215.406V214.25ZM229.167 210.781C229.167 210.464 229.424 210.208 229.74 210.208C230.055 210.208 230.312 210.465 230.312 210.781V211.937C230.312 212.254 230.055 212.51 229.74 212.51C229.424 212.51 229.167 212.253 229.167 211.937V210.781ZM229.167 207.31C229.167 206.994 229.424 206.738 229.74 206.738C230.055 206.738 230.312 206.995 230.312 207.31V208.467C230.312 208.783 230.055 209.039 229.74 209.039C229.424 209.039 229.167 208.782 229.167 208.467V207.31ZM229.167 203.84C229.167 203.524 229.424 203.268 229.74 203.268C230.055 203.268 230.312 203.525 230.312 203.84V204.997C230.312 205.313 230.055 205.569 229.74 205.569C229.424 205.569 229.167 205.312 229.167 204.997V203.84ZM229.167 200.37C229.167 200.053 229.424 199.798 229.74 199.798C230.055 199.798 230.312 200.054 230.312 200.37V201.526C230.312 201.843 230.055 202.099 229.74 202.099C229.424 202.099 229.167 201.842 229.167 201.526V200.37ZM229.167 196.9C229.167 196.583 229.424 196.327 229.74 196.327C230.055 196.327 230.312 196.584 230.312 196.9V198.056C230.312 198.372 230.055 198.628 229.74 198.628C229.424 198.628 229.167 198.371 229.167 198.056V196.9ZM229.167 193.429C229.167 193.113 229.424 192.857 229.74 192.857C230.055 192.857 230.312 193.114 230.312 193.429V194.586C230.312 194.902 230.055 195.158 229.74 195.158C229.424 195.158 229.167 194.901 229.167 194.586V193.429ZM229.167 189.96C229.167 189.644 229.424 189.388 229.74 189.388C230.055 189.388 230.312 189.645 230.312 189.96V191.116C230.312 191.433 230.055 191.689 229.74 191.689C229.424 191.689 229.167 191.432 229.167 191.116V189.96ZM229.167 186.49C229.167 186.173 229.424 185.917 229.74 185.917C230.055 185.917 230.312 186.174 230.312 186.49V187.646C230.312 187.963 230.055 188.218 229.74 188.218C229.424 188.218 229.167 187.961 229.167 187.646V186.49ZM229.167 183.019C229.167 182.703 229.424 182.447 229.74 182.447C230.055 182.447 230.312 182.704 230.312 183.019V184.176C230.312 184.492 230.055 184.748 229.74 184.748C229.424 184.748 229.167 184.491 229.167 184.176V183.019ZM229.167 179.549C229.167 179.233 229.424 178.977 229.74 178.977C230.055 178.977 230.312 179.234 230.312 179.549V180.705C230.312 181.022 230.055 181.278 229.74 181.278C229.424 181.278 229.167 181.021 229.167 180.705V179.549ZM230.313 176.079V177.235C230.313 177.552 230.056 177.809 229.741 177.809C229.425 177.809 229.169 177.552 229.169 177.236V176.08C229.169 175.763 229.425 175.507 229.741 175.507C230.056 175.507 230.313 175.764 230.313 176.08V176.079ZM229.167 172.608C229.167 172.292 229.424 172.036 229.74 172.036C230.055 172.036 230.312 172.293 230.312 172.608V173.765C230.312 174.081 230.055 174.337 229.74 174.337C229.424 174.337 229.167 174.08 229.167 173.765V172.608ZM229.167 169.138C229.167 168.822 229.424 168.566 229.74 168.566C230.055 168.566 230.312 168.823 230.312 169.138V170.295C230.312 170.611 230.055 170.867 229.74 170.867C229.424 170.867 229.167 170.61 229.167 170.295V169.138ZM229.167 165.668C229.167 165.351 229.424 165.095 229.74 165.095C230.055 165.095 230.312 165.352 230.312 165.668V166.824C230.312 167.141 230.055 167.397 229.74 167.397C229.424 167.397 229.167 167.14 229.167 166.824V165.668ZM229.167 162.197C229.167 161.881 229.424 161.625 229.74 161.625C230.055 161.625 230.312 161.882 230.312 162.197V163.354C230.312 163.67 230.055 163.926 229.74 163.926C229.424 163.926 229.167 163.669 229.167 163.354V162.197ZM229.167 158.728C229.167 158.412 229.424 158.156 229.74 158.156C230.055 158.156 230.312 158.413 230.312 158.728V159.885C230.312 160.201 230.055 160.457 229.74 160.457C229.424 160.457 229.167 160.2 229.167 159.885V158.728ZM229.167 155.258C229.167 154.941 229.424 154.686 229.74 154.686C230.055 154.686 230.312 154.943 230.312 155.258V156.414C230.312 156.731 230.055 156.987 229.74 156.987C229.424 156.987 229.167 156.73 229.167 156.414V155.258ZM229.167 151.788C229.167 151.471 229.424 151.215 229.74 151.215C230.055 151.215 230.312 151.472 230.312 151.788V152.944C230.312 153.26 230.055 153.516 229.74 153.516C229.424 153.516 229.167 153.259 229.167 152.944V151.788ZM230.313 148.317V149.474C230.313 149.79 230.056 150.047 229.741 150.047C229.425 150.047 229.169 149.79 229.169 149.475V148.318C229.169 148.002 229.425 147.746 229.741 147.746C230.056 147.746 230.313 148.003 230.313 148.318V148.317ZM229.167 144.848C229.167 144.532 229.424 144.276 229.74 144.276C230.055 144.276 230.312 144.533 230.312 144.848V146.004C230.312 146.321 230.055 146.577 229.74 146.577C229.424 146.577 229.167 146.32 229.167 146.004V144.848ZM229.167 141.378C229.167 141.061 229.424 140.805 229.74 140.805C230.055 140.805 230.312 141.062 230.312 141.378V142.534C230.312 142.851 230.055 143.107 229.74 143.107C229.424 143.107 229.167 142.85 229.167 142.534V141.378ZM229.167 137.908C229.167 137.592 229.424 137.336 229.74 137.336C230.055 137.336 230.312 137.593 230.312 137.908V139.065C230.312 139.381 230.055 139.637 229.74 139.637C229.424 139.637 229.167 139.38 229.167 139.065V137.908ZM229.167 134.438C229.167 134.122 229.424 133.866 229.74 133.866C230.055 133.866 230.312 134.123 230.312 134.438V135.595C230.312 135.911 230.055 136.167 229.74 136.167C229.424 136.167 229.167 135.91 229.167 135.595V134.438ZM229.167 130.969C229.167 130.652 229.424 130.397 229.74 130.397C230.055 130.397 230.312 130.654 230.312 130.969V132.125C230.312 132.442 230.055 132.698 229.74 132.698C229.424 132.698 229.167 132.441 229.167 132.125V130.969ZM229.167 127.499C229.167 127.182 229.424 126.926 229.74 126.926C230.055 126.926 230.312 127.183 230.312 127.499V128.655C230.312 128.971 230.055 129.227 229.74 129.227C229.424 129.227 229.167 128.97 229.167 128.655V127.499ZM229.167 124.028C229.167 123.712 229.424 123.456 229.74 123.456C230.055 123.456 230.312 123.713 230.312 124.028V125.185C230.312 125.501 230.055 125.757 229.74 125.757C229.424 125.757 229.167 125.5 229.167 125.185V124.028ZM229.167 120.558C229.167 120.242 229.424 119.986 229.74 119.986C230.055 119.986 230.312 120.243 230.312 120.558V121.714C230.312 122.031 230.055 122.287 229.74 122.287C229.424 122.287 229.167 122.03 229.167 121.714V120.558ZM229.167 117.088C229.167 116.771 229.424 116.515 229.74 116.515C230.055 116.515 230.312 116.772 230.312 117.088V118.244C230.312 118.561 230.055 118.816 229.74 118.816C229.424 118.816 229.167 118.559 229.167 118.244V117.088ZM229.167 113.617C229.167 113.301 229.424 113.045 229.74 113.045C230.055 113.045 230.312 113.302 230.312 113.617V114.774C230.312 115.09 230.055 115.346 229.74 115.346C229.424 115.346 229.167 115.089 229.167 114.774V113.617ZM229.167 110.147C229.167 109.831 229.424 109.575 229.74 109.575C230.055 109.575 230.312 109.832 230.312 110.147V111.303C230.312 111.62 230.055 111.876 229.74 111.876C229.424 111.876 229.167 111.619 229.167 111.303V110.147ZM229.167 106.678C229.167 106.361 229.424 106.105 229.74 106.105C230.055 106.105 230.312 106.362 230.312 106.678V107.834C230.312 108.151 230.055 108.407 229.74 108.407C229.424 108.407 229.167 108.15 229.167 107.834V106.678ZM230.313 104.364C230.313 104.68 230.056 104.936 229.741 104.936C229.425 104.936 229.169 104.679 229.169 104.364V103.785H230.314V104.364H230.313Z" fill="#516C8E"/>
<path fill-rule="evenodd" clip-rule="evenodd" d="M282.229 224.369C282.229 224.053 282.485 223.797 282.801 223.797C283.116 223.797 283.373 224.054 283.373 224.369V224.948C283.373 225.265 283.117 225.52 282.801 225.52C282.484 225.52 282.229 225.265 282.229 224.948V224.369ZM282.229 220.899C282.229 220.583 282.485 220.327 282.801 220.327C283.116 220.327 283.373 220.584 283.373 220.899V222.055C283.373 222.372 283.116 222.628 282.801 222.628C282.485 222.628 282.229 222.371 282.229 222.055V220.899ZM282.229 217.429C282.229 217.112 282.485 216.856 282.801 216.856C283.116 216.856 283.373 217.113 283.373 217.429V218.585C283.373 218.902 283.116 219.157 282.801 219.157C282.485 219.157 282.229 218.901 282.229 218.585V217.429ZM282.229 213.958C282.229 213.642 282.485 213.386 282.801 213.386C283.116 213.386 283.373 213.643 283.373 213.958V215.115C283.373 215.431 283.116 215.687 282.801 215.687C282.485 215.687 282.229 215.43 282.229 215.115V213.958ZM282.229 210.488C282.229 210.172 282.485 209.916 282.801 209.916C283.116 209.916 283.373 210.173 283.373 210.488V211.644C283.373 211.961 283.116 212.217 282.801 212.217C282.485 212.217 282.229 211.96 282.229 211.644V210.488ZM282.229 207.018C282.229 206.701 282.485 206.445 282.801 206.445C283.116 206.445 283.373 206.702 283.373 207.018V208.174C283.373 208.491 283.116 208.747 282.801 208.747C282.485 208.747 282.229 208.49 282.229 208.174V207.018ZM282.229 203.547C282.229 203.231 282.485 202.975 282.801 202.975C283.116 202.975 283.373 203.232 283.373 203.547V204.704C283.373 205.02 283.116 205.276 282.801 205.276C282.485 205.276 282.229 205.019 282.229 204.704V203.547ZM282.229 200.077C282.229 199.761 282.485 199.505 282.801 199.505C283.116 199.505 283.373 199.762 283.373 200.077V201.234C283.373 201.55 283.116 201.806 282.801 201.806C282.485 201.806 282.229 201.549 282.229 201.234V200.077ZM282.229 196.607C282.229 196.29 282.485 196.034 282.801 196.034C283.116 196.034 283.373 196.291 283.373 196.607V197.763C283.373 198.08 283.116 198.336 282.801 198.336C282.485 198.336 282.229 198.079 282.229 197.763V196.607ZM282.229 193.138C282.229 192.821 282.485 192.565 282.801 192.565C283.116 192.565 283.373 192.822 283.373 193.138V194.294C283.373 194.61 283.116 194.866 282.801 194.866C282.485 194.866 282.229 194.609 282.229 194.294V193.138ZM282.229 189.667C282.229 189.351 282.485 189.095 282.801 189.095C283.116 189.095 283.373 189.352 283.373 189.667V190.824C283.373 191.14 283.116 191.396 282.801 191.396C282.485 191.396 282.229 191.139 282.229 190.824V189.667ZM282.229 186.198C282.229 185.882 282.485 185.626 282.801 185.626C283.116 185.626 283.373 185.883 283.373 186.198V187.354C283.373 187.671 283.116 187.927 282.801 187.927C282.485 187.927 282.229 187.67 282.229 187.354V186.198ZM282.229 182.728C282.229 182.411 282.485 182.155 282.801 182.155C283.116 182.155 283.373 182.412 283.373 182.728V183.884C283.373 184.201 283.116 184.456 282.801 184.456C282.485 184.456 282.229 184.199 282.229 183.884V182.728ZM283.374 179.257V180.414C283.374 180.73 283.117 180.987 282.802 180.987C282.486 180.987 282.23 180.73 282.23 180.415V179.258C282.23 178.942 282.486 178.686 282.802 178.686C283.117 178.686 283.374 178.943 283.374 179.258V179.257ZM282.229 175.788C282.229 175.472 282.485 175.216 282.801 175.216C283.116 175.216 283.373 175.473 283.373 175.788V176.945C283.373 177.261 283.116 177.517 282.801 177.517C282.485 177.517 282.229 177.26 282.229 176.945V175.788ZM282.229 172.318C282.229 172.001 282.485 171.745 282.801 171.745C283.116 171.745 283.373 172.002 283.373 172.318V173.474C283.373 173.791 283.116 174.047 282.801 174.047C282.485 174.047 282.229 173.79 282.229 173.474V172.318ZM282.229 168.847C282.229 168.531 282.485 168.275 282.801 168.275C283.116 168.275 283.373 168.532 283.373 168.847V170.004C283.373 170.32 283.116 170.576 282.801 170.576C282.485 170.576 282.229 170.319 282.229 170.004V168.847ZM282.229 165.378C282.229 165.062 282.485 164.806 282.801 164.806C283.116 164.806 283.373 165.063 283.373 165.378V166.535C283.373 166.851 283.116 167.107 282.801 167.107C282.485 167.107 282.229 166.85 282.229 166.535V165.378ZM282.229 161.908C282.229 161.591 282.485 161.336 282.801 161.336C283.116 161.336 283.373 161.593 283.373 161.908V163.064C283.373 163.381 283.116 163.637 282.801 163.637C282.485 163.637 282.229 163.38 282.229 163.064V161.908ZM282.229 158.438C282.229 158.121 282.485 157.865 282.801 157.865C283.116 157.865 283.373 158.122 283.373 158.438V159.594C283.373 159.91 283.116 160.166 282.801 160.166C282.485 160.166 282.229 159.909 282.229 159.594V158.438ZM282.229 154.967C282.229 154.651 282.485 154.395 282.801 154.395C283.116 154.395 283.373 154.652 283.373 154.967V156.124C283.373 156.44 283.116 156.696 282.801 156.696C282.485 156.696 282.229 156.439 282.229 156.124V154.967ZM283.374 151.497V152.653C283.374 152.97 283.117 153.227 282.802 153.227C282.486 153.227 282.23 152.97 282.23 152.654V151.498C282.23 151.182 282.486 150.926 282.802 150.926C283.117 150.926 283.374 151.183 283.374 151.498V151.497ZM282.229 148.028C282.229 147.711 282.485 147.455 282.801 147.455C283.116 147.455 283.373 147.712 283.373 148.028V149.184C283.373 149.501 283.116 149.757 282.801 149.757C282.485 149.757 282.229 149.5 282.229 149.184V148.028ZM282.229 144.557C282.229 144.241 282.485 143.985 282.801 143.985C283.116 143.985 283.373 144.242 283.373 144.557V145.714C283.373 146.03 283.116 146.286 282.801 146.286C282.485 146.286 282.229 146.029 282.229 145.714V144.557ZM282.229 141.088C282.229 140.772 282.485 140.516 282.801 140.516C283.116 140.516 283.373 140.773 283.373 141.088V142.245C283.373 142.561 283.116 142.817 282.801 142.817C282.485 142.817 282.229 142.56 282.229 142.245V141.088ZM282.229 137.618C282.229 137.301 282.485 137.045 282.801 137.045C283.116 137.045 283.373 137.302 283.373 137.618V138.774C283.373 139.091 283.116 139.347 282.801 139.347C282.485 139.347 282.229 139.09 282.229 138.774V137.618ZM282.229 134.149C282.229 133.832 282.485 133.576 282.801 133.576C283.116 133.576 283.373 133.833 283.373 134.149V135.305C283.373 135.621 283.116 135.877 282.801 135.877C282.485 135.877 282.229 135.62 282.229 135.305V134.149ZM282.229 130.678C282.229 130.362 282.485 130.106 282.801 130.106C283.116 130.106 283.373 130.363 283.373 130.678V131.835C283.373 132.151 283.116 132.407 282.801 132.407C282.485 132.407 282.229 132.15 282.229 131.835V130.678ZM282.229 127.208C282.229 126.892 282.485 126.636 282.801 126.636C283.116 126.636 283.373 126.893 283.373 127.208V128.364C283.373 128.681 283.116 128.937 282.801 128.937C282.485 128.937 282.229 128.68 282.229 128.364V127.208ZM282.229 123.738C282.229 123.421 282.485 123.165 282.801 123.165C283.116 123.165 283.373 123.422 283.373 123.738V124.894C283.373 125.211 283.116 125.466 282.801 125.466C282.485 125.466 282.229 125.209 282.229 124.894V123.738ZM282.229 120.267C282.229 119.951 282.485 119.695 282.801 119.695C283.116 119.695 283.373 119.952 283.373 120.267V121.424C283.373 121.74 283.116 121.996 282.801 121.996C282.485 121.996 282.229 121.739 282.229 121.424V120.267ZM282.229 116.797C282.229 116.481 282.485 116.225 282.801 116.225C283.116 116.225 283.373 116.482 283.373 116.797V117.953C283.373 118.27 283.116 118.526 282.801 118.526C282.485 118.526 282.229 118.269 282.229 117.953V116.797ZM282.229 113.327C282.229 113.01 282.485 112.754 282.801 112.754C283.116 112.754 283.373 113.011 283.373 113.327V114.483C283.373 114.8 283.116 115.056 282.801 115.056C282.485 115.056 282.229 114.799 282.229 114.483V113.327ZM282.229 109.856C282.229 109.54 282.485 109.284 282.801 109.284C283.116 109.284 283.373 109.541 283.373 109.856V111.013C283.373 111.329 283.116 111.585 282.801 111.585C282.485 111.585 282.229 111.328 282.229 111.013V109.856ZM283.374 107.544C283.374 107.86 283.117 108.116 282.802 108.116C282.486 108.116 282.23 107.859 282.23 107.544V106.965H283.375V107.544H283.374Z" fill="#516C8E"/>
<path fill-rule="evenodd" clip-rule="evenodd" d="M265.192 156.447C265.192 156.084 265.048 155.735 264.792 155.48C264.535 155.223 264.187 155.078 263.825 155.078H222.411C222.048 155.078 221.7 155.223 221.443 155.48C221.186 155.737 221.043 156.085 221.043 156.447V362.633C221.043 362.996 221.187 363.345 221.443 363.601C221.7 363.858 222.048 364.002 222.411 364.002H263.825C264.188 364.002 264.536 363.858 264.792 363.601C265.048 363.344 265.192 362.996 265.192 362.633V156.447Z" fill="#516C8E"/>
<path fill-rule="evenodd" clip-rule="evenodd" d="M239.457 159.464C239.457 157.042 237.495 155.078 235.073 155.078H155.308C152.887 155.078 150.924 157.042 150.924 159.464V359.616C150.924 362.039 152.887 364.002 155.308 364.002H235.073C237.495 364.002 239.457 362.039 239.457 359.616V159.464Z" fill="#A2BCDD"/>
<path fill-rule="evenodd" clip-rule="evenodd" d="M235.472 163.775C235.472 163.193 235.241 162.635 234.83 162.224C234.419 161.814 233.861 161.582 233.28 161.582H157.099C156.517 161.582 155.96 161.814 155.549 162.224C155.138 162.635 154.907 163.193 154.907 163.775V191.684C154.907 192.266 155.137 192.823 155.549 193.234C155.96 193.645 156.517 193.877 157.099 193.877H233.28C233.862 193.877 234.419 193.645 234.83 193.234C235.241 192.823 235.472 192.265 235.472 191.684V163.775Z" fill="#33455B"/>
<path fill-rule="evenodd" clip-rule="evenodd" d="M199.458 167.762H195.19V172.031H199.458V167.762Z" fill="#FF1600"/>
<path fill-rule="evenodd" clip-rule="evenodd" d="M199.458 174.371H195.19V178.64H199.458V174.371Z" fill="#FF1600"/>
<path fill-rule="evenodd" clip-rule="evenodd" d="M199.458 180.98H195.19V185.249H199.458V180.98Z" fill="#FF1600"/>
<path fill-rule="evenodd" clip-rule="evenodd" d="M163.564 168.074H159.297V172.344H163.564V168.074Z" fill="#007CFF"/>
<path fill-rule="evenodd" clip-rule="evenodd" d="M163.564 175.594H159.297V179.863H163.564V175.594Z" fill="#007CFF"/>
<path fill-rule="evenodd" clip-rule="evenodd" d="M205.92 167.762H201.653V172.031H205.92V167.762Z" fill="#FF6500"/>
<path fill-rule="evenodd" clip-rule="evenodd" d="M205.92 174.371H201.653V178.64H205.92V174.371Z" fill="#FF6500"/>
<path fill-rule="evenodd" clip-rule="evenodd" d="M205.92 180.98H201.653V185.249H205.92V180.98Z" fill="#FF6500"/>
<path fill-rule="evenodd" clip-rule="evenodd" d="M182.255 170.209C182.255 169.03 181.3 168.074 180.121 168.074H167.893C166.715 168.074 165.76 169.03 165.76 170.209C165.76 171.387 166.715 172.343 167.893 172.343H180.121C181.3 172.343 182.255 171.387 182.255 170.209Z" fill="#FF878D"/>
<path fill-rule="evenodd" clip-rule="evenodd" d="M182.255 177.728C182.255 176.549 181.3 175.594 180.121 175.594H167.893C166.715 175.594 165.76 176.549 165.76 177.728C165.76 178.907 166.715 179.863 167.893 179.863H180.121C181.3 179.863 182.255 178.907 182.255 177.728Z" fill="#FF878D"/>
<path fill-rule="evenodd" clip-rule="evenodd" d="M212.384 167.762H208.116V172.031H212.384V167.762Z" fill="#FF9E00"/>
<path fill-rule="evenodd" clip-rule="evenodd" d="M212.384 174.371H208.116V178.64H212.384V174.371Z" fill="#FF9E00"/>
<path fill-rule="evenodd" clip-rule="evenodd" d="M212.384 180.98H208.116V185.249H212.384V180.98Z" fill="#FF9E00"/>
<path fill-rule="evenodd" clip-rule="evenodd" d="M225.31 167.762H221.042V172.031H225.31V167.762Z" fill="#FFF100"/>
<path fill-rule="evenodd" clip-rule="evenodd" d="M225.31 174.371H221.042V178.64H225.31V174.371Z" fill="#FFF100"/>
<path fill-rule="evenodd" clip-rule="evenodd" d="M225.31 180.98H221.042V185.249H225.31V180.98Z" fill="#FFF100"/>
<path fill-rule="evenodd" clip-rule="evenodd" d="M231.772 167.762H227.505V172.031H231.772V167.762Z" fill="#9EFF00"/>
<path fill-rule="evenodd" clip-rule="evenodd" d="M231.772 174.371H227.505V178.64H231.772V174.371Z" fill="#9EFF00"/>
<path fill-rule="evenodd" clip-rule="evenodd" d="M231.772 180.98H227.505V185.249H231.772V180.98Z" fill="#9EFF00"/>
<path fill-rule="evenodd" clip-rule="evenodd" d="M235.472 201.162C235.472 200.58 235.241 200.022 234.83 199.611C234.419 199.2 233.861 198.969 233.28 198.969H157.099C156.517 198.969 155.96 199.2 155.549 199.611C155.138 200.022 154.907 200.58 154.907 201.162V229.071C154.907 229.653 155.137 230.21 155.549 230.621C155.96 231.032 156.517 231.263 157.099 231.263H233.28C233.862 231.263 234.419 231.032 234.83 230.621C235.241 230.21 235.472 229.653 235.472 229.071V201.162Z" fill="#33455B"/>
<path fill-rule="evenodd" clip-rule="evenodd" d="M199.458 205.148H195.19V209.418H199.458V205.148Z" fill="#FF1600"/>
<path fill-rule="evenodd" clip-rule="evenodd" d="M199.458 211.758H195.19V216.027H199.458V211.758Z" fill="#FF1600"/>
<path fill-rule="evenodd" clip-rule="evenodd" d="M199.458 218.367H195.19V222.637H199.458V218.367Z" fill="#FF1600"/>
<path fill-rule="evenodd" clip-rule="evenodd" d="M163.564 205.461H159.297V209.73H163.564V205.461Z" fill="#007CFF"/>
<path fill-rule="evenodd" clip-rule="evenodd" d="M163.564 212.984H159.297V217.253H163.564V212.984Z" fill="#007CFF"/>
<path fill-rule="evenodd" clip-rule="evenodd" d="M205.92 205.148H201.653V209.418H205.92V205.148Z" fill="#FF6500"/>
<path fill-rule="evenodd" clip-rule="evenodd" d="M205.92 211.758H201.653V216.027H205.92V211.758Z" fill="#FF6500"/>
<path fill-rule="evenodd" clip-rule="evenodd" d="M205.92 218.367H201.653V222.637H205.92V218.367Z" fill="#FF6500"/>
<path fill-rule="evenodd" clip-rule="evenodd" d="M182.255 207.595C182.255 206.417 181.3 205.461 180.121 205.461H167.893C166.715 205.461 165.76 206.417 165.76 207.595C165.76 208.774 166.715 209.73 167.893 209.73H180.121C181.3 209.73 182.255 208.774 182.255 207.595Z" fill="#FF878D"/>
<path fill-rule="evenodd" clip-rule="evenodd" d="M182.255 215.119C182.255 213.94 181.3 212.984 180.121 212.984H167.893C166.715 212.984 165.76 213.94 165.76 215.119C165.76 216.298 166.715 217.253 167.893 217.253H180.121C181.3 217.253 182.255 216.298 182.255 215.119Z" fill="#FF878D"/>
<path fill-rule="evenodd" clip-rule="evenodd" d="M212.384 205.148H208.116V209.418H212.384V205.148Z" fill="#FF9E00"/>
<path fill-rule="evenodd" clip-rule="evenodd" d="M212.384 211.758H208.116V216.027H212.384V211.758Z" fill="#FF9E00"/>
<path fill-rule="evenodd" clip-rule="evenodd" d="M212.384 218.367H208.116V222.637H212.384V218.367Z" fill="#FF9E00"/>
<path fill-rule="evenodd" clip-rule="evenodd" d="M225.31 205.148H221.042V209.418H225.31V205.148Z" fill="#FFF100"/>
<path fill-rule="evenodd" clip-rule="evenodd" d="M225.31 211.758H221.042V216.027H225.31V211.758Z" fill="#FFF100"/>
<path fill-rule="evenodd" clip-rule="evenodd" d="M225.31 218.367H221.042V222.637H225.31V218.367Z" fill="#FFF100"/>
<path fill-rule="evenodd" clip-rule="evenodd" d="M231.772 205.148H227.505V209.418H231.772V205.148Z" fill="#9EFF00"/>
<path fill-rule="evenodd" clip-rule="evenodd" d="M231.772 211.758H227.505V216.027H231.772V211.758Z" fill="#9EFF00"/>
<path fill-rule="evenodd" clip-rule="evenodd" d="M231.772 218.367H227.505V222.637H231.772V218.367Z" fill="#9EFF00"/>
<path fill-rule="evenodd" clip-rule="evenodd" d="M235.472 238.552C235.472 237.97 235.241 237.413 234.83 237.002C234.419 236.591 233.861 236.359 233.28 236.359H157.099C156.517 236.359 155.96 236.591 155.549 237.002C155.138 237.413 154.907 237.97 154.907 238.552V266.461C154.907 267.043 155.137 267.601 155.549 268.012C155.96 268.423 156.517 268.654 157.099 268.654H233.28C233.862 268.654 234.419 268.424 234.83 268.012C235.241 267.601 235.472 267.042 235.472 266.461V238.552Z" fill="#33455B"/>
<path fill-rule="evenodd" clip-rule="evenodd" d="M199.458 242.527H195.19V246.797H199.458V242.527Z" fill="#FF1600"/>
<path fill-rule="evenodd" clip-rule="evenodd" d="M199.458 249.145H195.19V253.413H199.458V249.145Z" fill="#FF1600"/>
<path fill-rule="evenodd" clip-rule="evenodd" d="M199.458 255.754H195.19V260.024H199.458V255.754Z" fill="#FF1600"/>
<path fill-rule="evenodd" clip-rule="evenodd" d="M163.564 242.848H159.297V247.117H163.564V242.848Z" fill="#007CFF"/>
<path fill-rule="evenodd" clip-rule="evenodd" d="M163.564 250.367H159.297V254.636H163.564V250.367Z" fill="#007CFF"/>
<path fill-rule="evenodd" clip-rule="evenodd" d="M205.92 242.527H201.653V246.797H205.92V242.527Z" fill="#FF6500"/>
<path fill-rule="evenodd" clip-rule="evenodd" d="M205.92 249.145H201.653V253.413H205.92V249.145Z" fill="#FF6500"/>
<path fill-rule="evenodd" clip-rule="evenodd" d="M205.92 255.754H201.653V260.024H205.92V255.754Z" fill="#FF6500"/>
<path fill-rule="evenodd" clip-rule="evenodd" d="M182.255 244.982C182.255 243.803 181.3 242.848 180.121 242.848H167.893C166.715 242.848 165.76 243.803 165.76 244.982C165.76 246.161 166.715 247.117 167.893 247.117H180.121C181.3 247.117 182.255 246.161 182.255 244.982Z" fill="#FF878D"/>
<path fill-rule="evenodd" clip-rule="evenodd" d="M182.255 252.502C182.255 251.323 181.3 250.367 180.121 250.367H167.893C166.715 250.367 165.76 251.323 165.76 252.502C165.76 253.68 166.715 254.636 167.893 254.636H180.121C181.3 254.636 182.255 253.68 182.255 252.502Z" fill="#FF878D"/>
<path fill-rule="evenodd" clip-rule="evenodd" d="M212.384 242.527H208.116V246.797H212.384V242.527Z" fill="#FF9E00"/>
<path fill-rule="evenodd" clip-rule="evenodd" d="M212.384 249.145H208.116V253.413H212.384V249.145Z" fill="#FF9E00"/>
<path fill-rule="evenodd" clip-rule="evenodd" d="M212.384 255.754H208.116V260.024H212.384V255.754Z" fill="#FF9E00"/>
<path fill-rule="evenodd" clip-rule="evenodd" d="M225.31 242.527H221.042V246.797H225.31V242.527Z" fill="#FFF100"/>
<path fill-rule="evenodd" clip-rule="evenodd" d="M225.31 249.145H221.042V253.413H225.31V249.145Z" fill="#FFF100"/>
<path fill-rule="evenodd" clip-rule="evenodd" d="M225.31 255.754H221.042V260.024H225.31V255.754Z" fill="#FFF100"/>
<path fill-rule="evenodd" clip-rule="evenodd" d="M231.772 242.527H227.505V246.797H231.772V242.527Z" fill="#9EFF00"/>
<path fill-rule="evenodd" clip-rule="evenodd" d="M231.772 249.145H227.505V253.413H231.772V249.145Z" fill="#9EFF00"/>
<path fill-rule="evenodd" clip-rule="evenodd" d="M231.772 255.754H227.505V260.024H231.772V255.754Z" fill="#9EFF00"/>
<path fill-rule="evenodd" clip-rule="evenodd" d="M235.472 275.935C235.472 275.353 235.241 274.796 234.83 274.385C234.419 273.974 233.861 273.742 233.28 273.742H157.099C156.517 273.742 155.96 273.974 155.549 274.385C155.138 274.796 154.907 275.354 154.907 275.935V303.844C154.907 304.426 155.137 304.984 155.549 305.394C155.96 305.805 156.517 306.037 157.099 306.037H233.28C233.862 306.037 234.419 305.805 234.83 305.394C235.241 304.984 235.472 304.426 235.472 303.844V275.935Z" fill="#33455B"/>
<path fill-rule="evenodd" clip-rule="evenodd" d="M199.458 279.918H195.19V284.187H199.458V279.918Z" fill="#FF1600"/>
<path fill-rule="evenodd" clip-rule="evenodd" d="M199.458 286.527H195.19V290.796H199.458V286.527Z" fill="#FF1600"/>
<path fill-rule="evenodd" clip-rule="evenodd" d="M199.458 293.137H195.19V297.406H199.458V293.137Z" fill="#FF1600"/>
<path fill-rule="evenodd" clip-rule="evenodd" d="M163.564 280.23H159.297V284.499H163.564V280.23Z" fill="#007CFF"/>
<path fill-rule="evenodd" clip-rule="evenodd" d="M163.564 287.754H159.297V292.024H163.564V287.754Z" fill="#007CFF"/>
<path fill-rule="evenodd" clip-rule="evenodd" d="M205.92 279.918H201.653V284.187H205.92V279.918Z" fill="#FF6500"/>
<path fill-rule="evenodd" clip-rule="evenodd" d="M205.92 286.527H201.653V290.796H205.92V286.527Z" fill="#FF6500"/>
<path fill-rule="evenodd" clip-rule="evenodd" d="M205.92 293.137H201.653V297.406H205.92V293.137Z" fill="#FF6500"/>
<path fill-rule="evenodd" clip-rule="evenodd" d="M182.255 282.365C182.255 281.186 181.3 280.23 180.121 280.23H167.893C166.715 280.23 165.76 281.186 165.76 282.365C165.76 283.544 166.715 284.499 167.893 284.499H180.121C181.3 284.499 182.255 283.544 182.255 282.365Z" fill="#FF878D"/>
<path fill-rule="evenodd" clip-rule="evenodd" d="M182.255 289.888C182.255 288.71 181.3 287.754 180.121 287.754H167.893C166.715 287.754 165.76 288.71 165.76 289.888C165.76 291.067 166.715 292.023 167.893 292.023H180.121C181.3 292.023 182.255 291.067 182.255 289.888Z" fill="#FF878D"/>
<path fill-rule="evenodd" clip-rule="evenodd" d="M212.384 279.918H208.116V284.187H212.384V279.918Z" fill="#FF9E00"/>
<path fill-rule="evenodd" clip-rule="evenodd" d="M212.384 286.527H208.116V290.796H212.384V286.527Z" fill="#FF9E00"/>
<path fill-rule="evenodd" clip-rule="evenodd" d="M212.384 293.137H208.116V297.406H212.384V293.137Z" fill="#FF9E00"/>
<path fill-rule="evenodd" clip-rule="evenodd" d="M225.31 279.918H221.042V284.187H225.31V279.918Z" fill="#FFF100"/>
<path fill-rule="evenodd" clip-rule="evenodd" d="M225.31 286.527H221.042V290.796H225.31V286.527Z" fill="#FFF100"/>
<path fill-rule="evenodd" clip-rule="evenodd" d="M225.31 293.137H221.042V297.406H225.31V293.137Z" fill="#FFF100"/>
<path fill-rule="evenodd" clip-rule="evenodd" d="M231.772 279.918H227.505V284.187H231.772V279.918Z" fill="#9EFF00"/>
<path fill-rule="evenodd" clip-rule="evenodd" d="M231.772 286.527H227.505V290.796H231.772V286.527Z" fill="#9EFF00"/>
<path fill-rule="evenodd" clip-rule="evenodd" d="M231.772 293.137H227.505V297.406H231.772V293.137Z" fill="#9EFF00"/>
<path fill-rule="evenodd" clip-rule="evenodd" d="M235.473 318.31C235.473 317.354 235.094 316.438 234.418 315.763C233.743 315.087 232.826 314.707 231.871 314.707H158.508C157.553 314.707 156.637 315.086 155.961 315.763C155.286 316.438 154.906 317.354 154.906 318.31V347.225C154.906 348.18 155.285 349.097 155.961 349.772C156.637 350.448 157.553 350.828 158.508 350.828H231.871C232.826 350.828 233.743 350.449 234.418 349.772C235.093 349.097 235.473 348.18 235.473 347.225V318.31Z" fill="#5F7FA8"/>
<path fill-rule="evenodd" clip-rule="evenodd" d="M214.199 332.237C214.199 329.815 212.236 327.852 209.815 327.852H180.565C178.144 327.852 176.181 329.815 176.181 332.237V333.306C176.181 335.728 178.144 337.691 180.565 337.691H209.815C212.236 337.691 214.199 335.728 214.199 333.306V332.237Z" fill="#3D5F89"/>
<path fill-rule="evenodd" clip-rule="evenodd" d="M197.324 330.633H193.057V334.902H197.324V330.633Z" fill="#8BC1F9"/>
<path fill-rule="evenodd" clip-rule="evenodd" d="M379.461 156.447C379.461 156.084 379.317 155.735 379.06 155.48C378.803 155.223 378.455 155.078 378.093 155.078H336.679C336.316 155.078 335.968 155.223 335.712 155.48C335.455 155.737 335.311 156.085 335.311 156.447V362.633C335.311 362.996 335.455 363.345 335.712 363.601C335.969 363.858 336.317 364.002 336.679 364.002H378.093C378.456 364.002 378.804 363.858 379.06 363.601C379.317 363.344 379.461 362.996 379.461 362.633V156.447Z" fill="#516C8E"/>
<path fill-rule="evenodd" clip-rule="evenodd" d="M353.726 159.464C353.726 157.042 351.764 155.078 349.342 155.078H269.576C267.155 155.078 265.192 157.042 265.192 159.464V359.616C265.192 362.039 267.155 364.002 269.576 364.002H349.342C351.764 364.002 353.726 362.039 353.726 359.616V159.464Z" fill="#A2BCDD"/>
<path fill-rule="evenodd" clip-rule="evenodd" d="M349.742 163.775C349.742 163.193 349.511 162.635 349.1 162.224C348.689 161.814 348.132 161.582 347.55 161.582H271.369C270.787 161.582 270.23 161.814 269.819 162.224C269.408 162.635 269.177 163.193 269.177 163.775V191.684C269.177 192.266 269.408 192.823 269.819 193.234C270.23 193.645 270.787 193.877 271.369 193.877H347.55C348.132 193.877 348.689 193.645 349.1 193.234C349.511 192.823 349.742 192.265 349.742 191.684V163.775Z" fill="#33455B"/>
<path fill-rule="evenodd" clip-rule="evenodd" d="M313.727 167.762H309.459V172.031H313.727V167.762Z" fill="#FF1600"/>
<path fill-rule="evenodd" clip-rule="evenodd" d="M313.727 174.371H309.459V178.64H313.727V174.371Z" fill="#FF1600"/>
<path fill-rule="evenodd" clip-rule="evenodd" d="M313.727 180.98H309.459V185.249H313.727V180.98Z" fill="#FF1600"/>
<path fill-rule="evenodd" clip-rule="evenodd" d="M277.832 168.074H273.565V172.344H277.832V168.074Z" fill="#007CFF"/>
<path fill-rule="evenodd" clip-rule="evenodd" d="M277.832 175.594H273.565V179.863H277.832V175.594Z" fill="#007CFF"/>
<path fill-rule="evenodd" clip-rule="evenodd" d="M320.19 167.762H315.923V172.031H320.19V167.762Z" fill="#FF6500"/>
<path fill-rule="evenodd" clip-rule="evenodd" d="M320.19 174.371H315.923V178.64H320.19V174.371Z" fill="#FF6500"/>
<path fill-rule="evenodd" clip-rule="evenodd" d="M320.19 180.98H315.923V185.249H320.19V180.98Z" fill="#FF6500"/>
<path fill-rule="evenodd" clip-rule="evenodd" d="M296.523 170.209C296.523 169.03 295.568 168.074 294.389 168.074H282.162C280.983 168.074 280.028 169.03 280.028 170.209C280.028 171.387 280.983 172.343 282.162 172.343H294.389C295.568 172.343 296.523 171.387 296.523 170.209Z" fill="#FF878D"/>
<path fill-rule="evenodd" clip-rule="evenodd" d="M296.523 177.728C296.523 176.549 295.568 175.594 294.389 175.594H282.162C280.983 175.594 280.028 176.549 280.028 177.728C280.028 178.907 280.983 179.863 282.162 179.863H294.389C295.568 179.863 296.523 178.907 296.523 177.728Z" fill="#FF878D"/>
<path fill-rule="evenodd" clip-rule="evenodd" d="M326.652 167.762H322.385V172.031H326.652V167.762Z" fill="#FF9E00"/>
<path fill-rule="evenodd" clip-rule="evenodd" d="M326.652 174.371H322.385V178.64H326.652V174.371Z" fill="#FF9E00"/>
<path fill-rule="evenodd" clip-rule="evenodd" d="M326.652 180.98H322.385V185.249H326.652V180.98Z" fill="#FF9E00"/>
<path fill-rule="evenodd" clip-rule="evenodd" d="M339.578 167.762H335.311V172.031H339.578V167.762Z" fill="#FFF100"/>
<path fill-rule="evenodd" clip-rule="evenodd" d="M339.578 174.371H335.311V178.64H339.578V174.371Z" fill="#FFF100"/>
<path fill-rule="evenodd" clip-rule="evenodd" d="M339.578 180.98H335.311V185.249H339.578V180.98Z" fill="#FFF100"/>
<path fill-rule="evenodd" clip-rule="evenodd" d="M346.041 167.762H341.773V172.031H346.041V167.762Z" fill="#9EFF00"/>
<path fill-rule="evenodd" clip-rule="evenodd" d="M346.041 174.371H341.773V178.64H346.041V174.371Z" fill="#9EFF00"/>
<path fill-rule="evenodd" clip-rule="evenodd" d="M346.041 180.98H341.773V185.249H346.041V180.98Z" fill="#9EFF00"/>
<path fill-rule="evenodd" clip-rule="evenodd" d="M349.742 201.162C349.742 200.58 349.511 200.022 349.1 199.611C348.689 199.2 348.132 198.969 347.55 198.969H271.369C270.787 198.969 270.23 199.2 269.819 199.611C269.408 200.022 269.177 200.58 269.177 201.162V229.071C269.177 229.653 269.408 230.21 269.819 230.621C270.23 231.032 270.787 231.263 271.369 231.263H347.55C348.132 231.263 348.689 231.032 349.1 230.621C349.511 230.21 349.742 229.653 349.742 229.071V201.162Z" fill="#33455B"/>
<path fill-rule="evenodd" clip-rule="evenodd" d="M313.727 205.148H309.459V209.418H313.727V205.148Z" fill="#FF1600"/>
<path fill-rule="evenodd" clip-rule="evenodd" d="M313.727 211.758H309.459V216.027H313.727V211.758Z" fill="#FF1600"/>
<path fill-rule="evenodd" clip-rule="evenodd" d="M313.727 218.367H309.459V222.637H313.727V218.367Z" fill="#FF1600"/>
<path fill-rule="evenodd" clip-rule="evenodd" d="M277.832 205.461H273.565V209.73H277.832V205.461Z" fill="#007CFF"/>
<path fill-rule="evenodd" clip-rule="evenodd" d="M277.832 212.984H273.565V217.253H277.832V212.984Z" fill="#007CFF"/>
<path fill-rule="evenodd" clip-rule="evenodd" d="M320.19 205.148H315.923V209.418H320.19V205.148Z" fill="#FF6500"/>
<path fill-rule="evenodd" clip-rule="evenodd" d="M320.19 211.758H315.923V216.027H320.19V211.758Z" fill="#FF6500"/>
<path fill-rule="evenodd" clip-rule="evenodd" d="M320.19 218.367H315.923V222.637H320.19V218.367Z" fill="#FF6500"/>
<path fill-rule="evenodd" clip-rule="evenodd" d="M296.523 207.595C296.523 206.417 295.568 205.461 294.389 205.461H282.162C280.983 205.461 280.028 206.417 280.028 207.595C280.028 208.774 280.983 209.73 282.162 209.73H294.389C295.568 209.73 296.523 208.774 296.523 207.595Z" fill="#FF878D"/>
<path fill-rule="evenodd" clip-rule="evenodd" d="M296.523 215.119C296.523 213.94 295.568 212.984 294.389 212.984H282.162C280.983 212.984 280.028 213.94 280.028 215.119C280.028 216.298 280.983 217.253 282.162 217.253H294.389C295.568 217.253 296.523 216.298 296.523 215.119Z" fill="#FF878D"/>
<path fill-rule="evenodd" clip-rule="evenodd" d="M326.652 205.148H322.385V209.418H326.652V205.148Z" fill="#FF9E00"/>
<path fill-rule="evenodd" clip-rule="evenodd" d="M326.652 211.758H322.385V216.027H326.652V211.758Z" fill="#FF9E00"/>
<path fill-rule="evenodd" clip-rule="evenodd" d="M326.652 218.367H322.385V222.637H326.652V218.367Z" fill="#FF9E00"/>
<path fill-rule="evenodd" clip-rule="evenodd" d="M339.578 205.148H335.311V209.418H339.578V205.148Z" fill="#FFF100"/>
<path fill-rule="evenodd" clip-rule="evenodd" d="M339.578 211.758H335.311V216.027H339.578V211.758Z" fill="#FFF100"/>
<path fill-rule="evenodd" clip-rule="evenodd" d="M339.578 218.367H335.311V222.637H339.578V218.367Z" fill="#FFF100"/>
<path fill-rule="evenodd" clip-rule="evenodd" d="M346.041 205.148H341.773V209.418H346.041V205.148Z" fill="#9EFF00"/>
<path fill-rule="evenodd" clip-rule="evenodd" d="M346.041 211.758H341.773V216.027H346.041V211.758Z" fill="#9EFF00"/>
<path fill-rule="evenodd" clip-rule="evenodd" d="M346.041 218.367H341.773V222.637H346.041V218.367Z" fill="#9EFF00"/>
<path fill-rule="evenodd" clip-rule="evenodd" d="M349.742 238.552C349.742 237.97 349.511 237.413 349.1 237.002C348.689 236.591 348.132 236.359 347.55 236.359H271.369C270.787 236.359 270.23 236.591 269.819 237.002C269.408 237.413 269.177 237.97 269.177 238.552V266.461C269.177 267.043 269.408 267.601 269.819 268.012C270.23 268.423 270.787 268.654 271.369 268.654H347.55C348.132 268.654 348.689 268.424 349.1 268.012C349.511 267.6 349.742 267.042 349.742 266.461V238.552Z" fill="#33455B"/>
<path fill-rule="evenodd" clip-rule="evenodd" d="M313.727 242.527H309.459V246.797H313.727V242.527Z" fill="#FF1600"/>
<path fill-rule="evenodd" clip-rule="evenodd" d="M313.727 249.145H309.459V253.413H313.727V249.145Z" fill="#FF1600"/>
<path fill-rule="evenodd" clip-rule="evenodd" d="M313.727 255.754H309.459V260.024H313.727V255.754Z" fill="#FF1600"/>
<path fill-rule="evenodd" clip-rule="evenodd" d="M277.832 242.848H273.565V247.117H277.832V242.848Z" fill="#007CFF"/>
<path fill-rule="evenodd" clip-rule="evenodd" d="M277.832 250.367H273.565V254.636H277.832V250.367Z" fill="#007CFF"/>
<path fill-rule="evenodd" clip-rule="evenodd" d="M320.19 242.527H315.923V246.797H320.19V242.527Z" fill="#FF6500"/>
<path fill-rule="evenodd" clip-rule="evenodd" d="M320.19 249.145H315.923V253.413H320.19V249.145Z" fill="#FF6500"/>
<path fill-rule="evenodd" clip-rule="evenodd" d="M320.19 255.754H315.923V260.024H320.19V255.754Z" fill="#FF6500"/>
<path fill-rule="evenodd" clip-rule="evenodd" d="M296.523 244.982C296.523 243.803 295.568 242.848 294.389 242.848H282.162C280.983 242.848 280.028 243.803 280.028 244.982C280.028 246.161 280.983 247.117 282.162 247.117H294.389C295.568 247.117 296.523 246.161 296.523 244.982Z" fill="#FF878D"/>
<path fill-rule="evenodd" clip-rule="evenodd" d="M296.523 252.502C296.523 251.323 295.568 250.367 294.389 250.367H282.162C280.983 250.367 280.028 251.323 280.028 252.502C280.028 253.68 280.983 254.636 282.162 254.636H294.389C295.568 254.636 296.523 253.68 296.523 252.502Z" fill="#FF878D"/>
<path fill-rule="evenodd" clip-rule="evenodd" d="M326.652 242.527H322.385V246.797H326.652V242.527Z" fill="#FF9E00"/>
<path fill-rule="evenodd" clip-rule="evenodd" d="M326.652 249.145H322.385V253.413H326.652V249.145Z" fill="#FF9E00"/>
<path fill-rule="evenodd" clip-rule="evenodd" d="M326.652 255.754H322.385V260.024H326.652V255.754Z" fill="#FF9E00"/>
<path fill-rule="evenodd" clip-rule="evenodd" d="M339.578 242.527H335.311V246.797H339.578V242.527Z" fill="#FFF100"/>
<path fill-rule="evenodd" clip-rule="evenodd" d="M339.578 249.145H335.311V253.413H339.578V249.145Z" fill="#FFF100"/>
<path fill-rule="evenodd" clip-rule="evenodd" d="M339.578 255.754H335.311V260.024H339.578V255.754Z" fill="#FFF100"/>
<path fill-rule="evenodd" clip-rule="evenodd" d="M346.041 242.527H341.773V246.797H346.041V242.527Z" fill="#9EFF00"/>
<path fill-rule="evenodd" clip-rule="evenodd" d="M346.041 249.145H341.773V253.413H346.041V249.145Z" fill="#9EFF00"/>
<path fill-rule="evenodd" clip-rule="evenodd" d="M346.041 255.754H341.773V260.024H346.041V255.754Z" fill="#9EFF00"/>
<path fill-rule="evenodd" clip-rule="evenodd" d="M349.742 275.935C349.742 275.353 349.511 274.796 349.1 274.385C348.689 273.974 348.132 273.742 347.55 273.742H271.369C270.787 273.742 270.23 273.974 269.819 274.385C269.408 274.796 269.177 275.354 269.177 275.935V303.844C269.177 304.426 269.408 304.984 269.819 305.394C270.23 305.805 270.787 306.037 271.369 306.037H347.55C348.132 306.037 348.689 305.805 349.1 305.394C349.511 304.984 349.742 304.426 349.742 303.844V275.935Z" fill="#33455B"/>
<path fill-rule="evenodd" clip-rule="evenodd" d="M313.727 279.918H309.459V284.187H313.727V279.918Z" fill="#FF1600"/>
<path fill-rule="evenodd" clip-rule="evenodd" d="M313.727 286.527H309.459V290.796H313.727V286.527Z" fill="#FF1600"/>
<path fill-rule="evenodd" clip-rule="evenodd" d="M313.727 293.137H309.459V297.406H313.727V293.137Z" fill="#FF1600"/>
<path fill-rule="evenodd" clip-rule="evenodd" d="M277.832 280.23H273.565V284.499H277.832V280.23Z" fill="#007CFF"/>
<path fill-rule="evenodd" clip-rule="evenodd" d="M277.832 287.754H273.565V292.024H277.832V287.754Z" fill="#007CFF"/>
<path fill-rule="evenodd" clip-rule="evenodd" d="M320.19 279.918H315.923V284.187H320.19V279.918Z" fill="#FF6500"/>
<path fill-rule="evenodd" clip-rule="evenodd" d="M320.19 286.527H315.923V290.796H320.19V286.527Z" fill="#FF6500"/>
<path fill-rule="evenodd" clip-rule="evenodd" d="M320.19 293.137H315.923V297.406H320.19V293.137Z" fill="#FF6500"/>
<path fill-rule="evenodd" clip-rule="evenodd" d="M296.523 282.365C296.523 281.186 295.568 280.23 294.389 280.23H282.162C280.983 280.23 280.028 281.186 280.028 282.365C280.028 283.544 280.983 284.499 282.162 284.499H294.389C295.568 284.499 296.523 283.544 296.523 282.365Z" fill="#FF878D"/>
<path fill-rule="evenodd" clip-rule="evenodd" d="M296.523 289.888C296.523 288.71 295.568 287.754 294.389 287.754H282.162C280.983 287.754 280.028 288.71 280.028 289.888C280.028 291.067 280.983 292.023 282.162 292.023H294.389C295.568 292.023 296.523 291.067 296.523 289.888Z" fill="#FF878D"/>
<path fill-rule="evenodd" clip-rule="evenodd" d="M326.652 279.918H322.385V284.187H326.652V279.918Z" fill="#FF9E00"/>
<path fill-rule="evenodd" clip-rule="evenodd" d="M326.652 286.527H322.385V290.796H326.652V286.527Z" fill="#FF9E00"/>
<path fill-rule="evenodd" clip-rule="evenodd" d="M326.652 293.137H322.385V297.406H326.652V293.137Z" fill="#FF9E00"/>
<path fill-rule="evenodd" clip-rule="evenodd" d="M339.578 279.918H335.311V284.187H339.578V279.918Z" fill="#FFF100"/>
<path fill-rule="evenodd" clip-rule="evenodd" d="M339.578 286.527H335.311V290.796H339.578V286.527Z" fill="#FFF100"/>
<path fill-rule="evenodd" clip-rule="evenodd" d="M339.578 293.137H335.311V297.406H339.578V293.137Z" fill="#FFF100"/>
<path fill-rule="evenodd" clip-rule="evenodd" d="M346.041 279.918H341.773V284.187H346.041V279.918Z" fill="#9EFF00"/>
<path fill-rule="evenodd" clip-rule="evenodd" d="M346.041 286.527H341.773V290.796H346.041V286.527Z" fill="#9EFF00"/>
<path fill-rule="evenodd" clip-rule="evenodd" d="M346.041 293.137H341.773V297.406H346.041V293.137Z" fill="#9EFF00"/>
<path fill-rule="evenodd" clip-rule="evenodd" d="M349.742 318.31C349.742 317.354 349.363 316.438 348.687 315.763C348.012 315.087 347.096 314.707 346.141 314.707H272.778C271.822 314.707 270.906 315.086 270.231 315.763C269.556 316.438 269.176 317.354 269.176 318.31V347.225C269.176 348.18 269.555 349.097 270.231 349.772C270.906 350.448 271.822 350.828 272.778 350.828H346.141C347.096 350.828 348.012 350.449 348.687 349.772C349.362 349.097 349.742 348.18 349.742 347.225V318.31Z" fill="#5F7FA8"/>
<path fill-rule="evenodd" clip-rule="evenodd" d="M328.468 332.237C328.468 329.815 326.505 327.852 324.084 327.852H294.834C292.412 327.852 290.45 329.815 290.45 332.237V333.306C290.45 335.728 292.412 337.691 294.834 337.691H324.084C326.505 337.691 328.468 335.728 328.468 333.306V332.237Z" fill="#3D5F89"/>
<path fill-rule="evenodd" clip-rule="evenodd" d="M311.593 330.633H307.325V334.902H311.593V330.633Z" fill="#8BC1F9"/>
<path d="M141.259 271.734C141.259 269.703 139.613 268.055 137.581 268.055H112.656C110.624 268.055 108.978 269.703 108.978 271.734V319.184C108.978 321.216 110.624 322.864 112.656 322.864H137.581C139.613 322.864 141.259 321.216 141.259 319.184V271.734Z" fill="#25507A"/>
<path d="M134.962 271.734C134.962 269.703 133.315 268.055 131.283 268.055H106.357C104.326 268.055 102.679 269.703 102.679 271.734V319.184C102.679 321.216 104.326 322.864 106.357 322.864H131.283C133.314 322.864 134.962 321.216 134.962 319.184V271.734Z" fill="#4084C6"/>
<path d="M108.984 310.857C108.984 310.857 93.2094 309.676 87.2669 313.773C81.3244 317.87 81.7076 322.863 81.7076 322.863H108.012L108.984 310.857Z" fill="#4084C6"/>
<path d="M141.259 324.441C141.259 323.57 140.553 322.863 139.682 322.863H83.2795C82.409 322.863 81.7031 323.57 81.7031 324.441V324.494C81.7031 325.365 82.409 326.069 83.2795 326.069H139.682C140.553 326.069 141.259 325.365 141.259 324.494V324.441Z" fill="#14304B"/>
<path d="M117.28 324.465H112.543V359.428H117.28V324.465Z" fill="#14304B"/>
<path d="M103.815 307.304C103.815 307.304 80.5738 309.262 78.8679 316.294C76.6673 325.361 78.5813 357.566 78.5813 357.566H85.6352L89.8569 322.896C89.8569 322.896 107.587 322.382 117.944 317.641C128.303 312.901 128.899 306.516 128.899 306.516L103.815 307.303V307.304Z" fill="#041F40"/>
<path d="M89.069 313.945C89.3715 312.141 106.802 309.672 106.802 309.672L94.675 316.577L89.9723 322.983L85.6328 357.57H84.2549C84.2549 357.57 85.2644 345.504 86.5966 333.164C87.3578 326.116 88.225 318.976 89.0679 313.946L89.069 313.945Z" fill="#001023"/>
<path d="M108.998 306.889C108.998 306.889 91.1568 313.334 90.2757 316.894C89.0709 321.757 90.2757 357.159 90.2757 357.159L97.8116 357.566L100.352 323.139C100.352 323.139 119.402 323.499 125.971 318.185C132.54 312.874 129.985 306.516 129.985 306.516L108.998 306.889Z" fill="#041F40"/>
<path d="M77.8755 354.867L72.8332 359.818C72.8332 359.818 69.3004 358.523 68.758 360.569C68.2155 362.611 69.0064 362.343 69.0064 362.343L85.9241 362.483L85.8902 356.182C85.8902 356.182 83.0208 357.67 81.4561 357.269C79.8914 356.872 77.8745 354.867 77.8745 354.867H77.8755Z" fill="#303030"/>
<path d="M85.8783 362.241L85.8921 363.543L68.6188 363.78L68.6113 362.074L82.9177 362.281L85.8783 362.241Z" fill="black"/>
<path d="M103.603 267.665L112.133 263.796L113.913 261.651L122.547 260.066L125.21 262.775L135.274 268.396L127.867 292.208L130.656 307.584C130.656 307.584 122.546 308.588 116.136 308.764C109.727 308.938 103.973 307.667 103.973 307.667C103.973 307.667 104.805 298.223 104.359 291.074C103.913 283.922 102.187 279.065 102.187 279.065L103.605 267.666L103.603 267.665Z" fill="#F5891D"/>
<path d="M130.246 307.469C130.681 309.374 131.088 314.047 125.971 318.183C119.402 323.497 100.349 323.137 100.349 323.137L97.9078 356.267C97.6414 356.556 96.7178 357.564 96.7178 357.564H95.5278L97.8441 322.283L97.9864 320.085C97.9864 320.085 116.113 316.993 122.156 314.077C128.198 311.161 122.156 308.419 122.156 308.419L128.616 307.656L130.244 307.469H130.246Z" fill="#001023"/>
<path d="M130.341 268.869C130.341 268.869 128.144 269.62 125.835 273.457C123.525 277.29 122.21 282.71 122.21 282.71L108.038 286.27L106.803 292.287L126.424 295.123C126.424 295.123 128.389 302.648 127.433 306.004C126.926 307.786 122.21 308.42 122.21 308.42L130.473 307.763L126.992 281.025L135.273 268.395L130.34 268.868L130.341 268.869Z" fill="#C76E14"/>
<path d="M130.341 268.867C127.019 271.352 123.317 283.795 123.317 283.795L106.985 287.691L106.803 291.447C106.803 291.447 122.713 294.89 126.172 292.912C129.099 291.24 134.678 280.468 136.604 273.854C138.181 268.436 133.662 266.381 130.341 268.866V268.867Z" fill="#F5891D"/>
<path d="M102.41 268.206C99.087 270.691 95.3854 283.135 95.3854 283.135L79.0536 287.031L78.8721 290.787C78.8721 290.787 94.7824 294.23 98.2409 292.251C101.168 290.58 106.747 279.808 108.674 273.193C110.251 267.775 105.732 265.721 102.411 268.206H102.41Z" fill="#F5891D"/>
<path d="M122.546 260.066L116.673 265.871L118.676 265.684L120.381 267.666L124.846 262.405L122.546 260.066Z" fill="#DDDDDD"/>
<path d="M67.1167 276.285H85.4824L91.5778 294.019H73.2906L67.1167 276.285Z" fill="#5E5E5E"/>
<path d="M91.1772 292.845L103.565 292.836C103.889 292.836 104.152 293.099 104.152 293.426C104.152 293.753 103.889 294.014 103.565 294.014H91.5785L91.1772 292.847V292.845Z" fill="#303030"/>
<path d="M91.1777 292.852L91.6055 294.019H73.2908L73.1294 292.715L91.1777 292.852Z" fill="#3D3C3C"/>
<path d="M113.914 261.648L116.673 265.868L113.886 264.898L112.109 268.437L111.154 264.471L112.134 263.793L113.914 261.648Z" fill="#DDDDDD"/>
<path d="M105.461 291.892L104.152 292.632L100.697 292.862H100.009L92.9019 292.762L96.1183 290.05L96.9336 290.173L97.9293 289.586L98.4622 289.72L100.149 289.166L107.802 287.555L107.111 291.024L105.461 291.892Z" fill="#F1D2B2"/>
<path d="M107.803 287.495L106.802 291.444L111.188 292.285L111.191 286.684L107.803 287.495Z" fill="#DDDDDD"/>
<path d="M115.366 260.492L114.133 261.986L116.673 265.869L121.989 260.615L121.061 259.297C121.061 259.297 125.282 257.959 126.333 253.599C127.385 249.239 125.979 245.973 121.578 244.609C117.177 243.244 113.522 245.272 113.522 245.272L115.366 260.491V260.492Z" fill="#FFE1C2"/>
<path d="M115.312 260.489L114.991 261.647C114.991 261.647 117.019 261.153 118.187 259.999C119.355 258.845 120.245 256.927 120.245 256.927L119.216 255.699L115.311 260.489H115.312Z" fill="#ECC7A3"/>
<path d="M122.133 251.518C122.393 250.037 120.457 250.751 120.094 249.82C119.331 247.865 119.228 245.094 116.892 244.683C113.44 244.075 109.415 247.761 110.214 253.135C110.9 257.742 112.556 260.935 116.025 260.441C117.929 260.171 119.531 254.874 120.195 253.826C120.861 252.779 121.953 252.542 122.132 251.517L122.133 251.518Z" fill="#FFE1C2"/>
<path d="M117.929 249.46L118.83 252.966C118.83 252.966 120.095 251.452 120.095 250.832C120.095 250.212 122.442 250.388 121.816 251.919C121.577 252.503 120.662 252.644 120.132 253.427C119.273 254.702 119.282 255.856 119.282 255.856L121.324 259.672C121.324 259.672 130.673 255.116 126.242 245.521C126.133 245.285 126.064 245.034 125.916 244.837C123.203 241.241 120.564 242.005 115.389 242.005C109.332 242.005 108.317 241.258 108.317 241.258C108.317 241.258 106.855 247.469 110.819 248.433C114.457 249.321 117.929 249.461 117.929 249.461V249.46Z" fill="black"/>
<path d="M102.198 279.062C102.198 279.062 101.97 277.054 102.787 274.225C103.603 271.396 105.462 267.746 105.462 267.746C105.462 267.746 104.187 270.912 103.66 274.862C103.134 278.808 103.356 283.539 103.356 283.539L102.199 279.062H102.198Z" fill="#C76E14"/>
<path d="M118.632 252.196L116.621 258.884L112.281 258.968L112.999 262.747L117.691 260.245L119.46 252.129L118.632 252.196Z" fill="black"/>
<path d="M90.165 354.867L85.1227 359.818C85.1227 359.818 81.5909 358.523 81.0485 360.569C80.5061 362.611 81.2969 362.343 81.2969 362.343L98.2147 362.483L98.1818 356.182C98.1818 356.182 95.3124 357.67 93.7477 357.269C92.183 356.872 90.1661 354.867 90.1661 354.867H90.165Z" fill="#303030"/>
<path d="M98.1668 362.241L98.1806 363.543L80.9072 363.78L80.9009 362.074L95.2062 362.281L98.1668 362.241Z" fill="black"/>
<path d="M137.941 310.857C137.941 310.857 122.167 309.676 116.224 313.773C110.282 317.87 110.665 322.863 110.665 322.863H136.969L137.941 310.857Z" fill="#25507A"/>
<path d="M126.481 356.015C126.481 354.828 125.519 353.867 124.334 353.867H105.497C104.311 353.867 103.349 354.828 103.349 356.015V356.145C103.349 357.332 103.342 358.293 103.342 358.293H126.452C126.452 358.293 126.482 357.332 126.482 356.145V356.015H126.481Z" fill="#204263"/>
<path d="M125.712 357.246H104.111C103.686 357.246 103.155 357.593 102.926 358.02L100.238 363.007C100.008 363.431 100.167 363.778 100.591 363.778H129.24C129.666 363.778 129.823 363.431 129.593 363.007L126.899 358.02C126.668 357.593 126.136 357.246 125.712 357.246Z" fill="#25507A"/>
<path d="M184.623 293.789H5.74365V298.062H184.623V293.789Z" fill="#2773BC"/>
<path d="M177.936 298.066H12.6206V301.689H177.936V298.066Z" fill="#225E98"/>
<path d="M163.696 300.957H154.987L172.474 364H175.313L163.696 300.957Z" fill="#133B61"/>
<path d="M52.1542 300.957H43.4453L60.9321 364H63.7717L52.1542 300.957Z" fill="#133B61"/>
<path d="M135.779 300.957H144.488L127.001 364H124.162L135.779 300.957Z" fill="#133B61"/>
<path d="M24.2381 300.957H32.947L15.4602 364H12.6206L24.2381 300.957Z" fill="#133B61"/>
<path d="M47.5269 194.445C47.5269 192.085 49.4387 190.172 51.7985 190.172H139.038C141.397 190.172 143.31 192.084 143.31 194.445V219.37C143.31 221.73 141.398 223.643 139.038 223.643H51.7985C49.4397 223.643 47.5269 221.731 47.5269 219.37V194.445Z" fill="#8DB2D6"/>
<path d="M62.4375 206.922C58.7539 208.302 56.1309 211.857 56.1309 216.025C56.1309 216.099 56.1351 216.172 56.1362 216.246H75.5549C75.556 216.172 75.5592 216.099 75.5592 216.025C75.5592 211.857 72.9361 208.304 69.2515 206.923C68.3609 207.76 67.1645 208.276 65.8461 208.276C64.5276 208.276 63.3281 207.759 62.4364 206.922H62.4375Z" fill="white"/>
<path d="M65.847 197.574C63.0933 197.574 60.8599 199.806 60.8599 202.561C60.8599 203.997 61.4692 205.286 62.4384 206.197C63.3301 207.035 64.5275 207.551 65.848 207.551C67.1686 207.551 68.3628 207.035 69.2535 206.198C70.2248 205.289 70.8341 203.998 70.8341 202.561C70.8341 199.806 68.6027 197.574 65.8491 197.574H65.847Z" fill="white"/>
<path d="M83.6577 198.182C83.6577 197.848 83.9295 197.574 84.2649 197.574H134.763C135.097 197.574 135.371 197.847 135.371 198.182V203.982C135.371 204.317 135.098 204.589 134.763 204.589H84.2649C83.9295 204.589 83.6577 204.317 83.6577 203.982V198.182Z" fill="#638CB3"/>
<path d="M83.6577 209.842C83.6577 209.506 83.9295 209.234 84.2649 209.234H134.763C135.097 209.234 135.371 209.506 135.371 209.842V215.642C135.371 215.977 135.098 216.249 134.763 216.249H84.2649C83.9295 216.249 83.6577 215.977 83.6577 215.642V209.842Z" fill="#638CB3"/>
<path d="M85.6626 201.08C85.6626 199.592 86.8696 198.387 88.3568 198.387C89.844 198.387 91.0489 199.592 91.0489 201.08C91.0489 202.567 89.844 203.774 88.3568 203.774C86.8696 203.774 85.6626 202.566 85.6626 201.08Z" fill="white"/>
<path d="M85.6626 212.744C85.6626 211.256 86.8696 210.051 88.3568 210.051C89.844 210.051 91.0489 211.256 91.0489 212.744C91.0489 214.232 89.844 215.438 88.3568 215.438C86.8696 215.438 85.6626 214.23 85.6626 212.744Z" fill="white"/>
<path d="M113.737 201.08C113.737 199.592 114.944 198.387 116.431 198.387C117.918 198.387 119.123 199.592 119.123 201.08C119.123 202.567 117.918 203.774 116.431 203.774C114.944 203.774 113.737 202.566 113.737 201.08Z" fill="white"/>
<path d="M113.737 212.744C113.737 211.256 114.944 210.051 116.431 210.051C117.918 210.051 119.123 211.256 119.123 212.744C119.123 214.232 117.918 215.438 116.431 215.438C114.944 215.438 113.737 214.23 113.737 212.744Z" fill="white"/>
<path d="M99.9033 201.08C99.9033 199.592 101.109 198.387 102.596 198.387C104.084 198.387 105.291 199.592 105.291 201.08C105.291 202.567 104.084 203.774 102.596 203.774C101.109 203.774 99.9033 202.566 99.9033 201.08Z" fill="white"/>
<path d="M99.9033 212.744C99.9033 211.256 101.109 210.051 102.596 210.051C104.084 210.051 105.291 211.256 105.291 212.744C105.291 214.232 104.084 215.438 102.596 215.438C101.109 215.438 99.9033 214.23 99.9033 212.744Z" fill="white"/>
<path d="M127.976 201.08C127.976 199.592 129.183 198.387 130.669 198.387C132.155 198.387 133.362 199.592 133.362 201.08C133.362 202.567 132.155 203.774 130.669 203.774C129.183 203.774 127.976 202.566 127.976 201.08Z" fill="white"/>
<path d="M127.976 212.744C127.976 211.256 129.183 210.051 130.669 210.051C132.155 210.051 133.362 211.256 133.362 212.744C133.362 214.232 132.155 215.438 130.669 215.438C129.183 215.438 127.976 214.23 127.976 212.744Z" fill="white"/>
<path d="M92.7241 201.08C92.7241 199.592 93.93 198.387 95.4172 198.387C96.9045 198.387 98.1114 199.592 98.1114 201.08C98.1114 202.567 96.9045 203.774 95.4172 203.774C93.93 203.774 92.7241 202.566 92.7241 201.08Z" fill="white"/>
<path d="M92.7241 212.744C92.7241 211.256 93.93 210.051 95.4172 210.051C96.9045 210.051 98.1114 211.256 98.1114 212.744C98.1114 214.232 96.9045 215.438 95.4172 215.438C93.93 215.438 92.7241 214.23 92.7241 212.744Z" fill="white"/>
<path d="M120.797 201.08C120.797 199.592 122.004 198.387 123.49 198.387C124.977 198.387 126.185 199.592 126.185 201.08C126.185 202.567 124.978 203.774 123.49 203.774C122.003 203.774 120.797 202.566 120.797 201.08Z" fill="white"/>
<path d="M120.797 212.744C120.797 211.256 122.004 210.051 123.49 210.051C124.977 210.051 126.185 211.256 126.185 212.744C126.185 214.232 124.978 215.438 123.49 215.438C122.003 215.438 120.797 214.23 120.797 212.744Z" fill="white"/>
<path d="M106.966 201.08C106.966 199.592 108.171 198.387 109.658 198.387C111.145 198.387 112.351 199.592 112.351 201.08C112.351 202.567 111.144 203.774 109.658 203.774C108.172 203.774 106.966 202.566 106.966 201.08Z" fill="white"/>
<path d="M106.966 212.744C106.966 211.256 108.171 210.051 109.658 210.051C111.145 210.051 112.351 211.256 112.351 212.744C112.351 214.232 111.144 215.438 109.658 215.438C108.172 215.438 106.966 214.23 106.966 212.744Z" fill="white"/>
<path d="M320.055 297.919C318.18 306.848 311.029 313.551 302.396 313.912C304.783 336.395 318.188 355.174 336.543 363.623C336.811 363.749 337.077 363.879 337.349 363.998C338.471 363.468 339.573 362.894 340.656 362.285C340.847 362.18 341.039 362.074 341.23 361.965C341.681 361.705 342.13 361.437 342.574 361.165C342.818 361.014 343.061 360.858 343.305 360.703C344.313 360.062 345.304 359.395 346.269 358.69C346.714 358.367 347.149 358.03 347.581 357.693C347.758 357.556 347.938 357.421 348.113 357.282C348.532 356.947 348.947 356.606 349.36 356.26C349.576 356.079 349.789 355.894 349.999 355.71C350.906 354.924 351.792 354.114 352.651 353.273C353.008 352.923 353.358 352.562 353.705 352.201C353.941 351.958 354.174 351.715 354.406 351.469C354.706 351.148 355.002 350.822 355.298 350.495C355.595 350.163 355.884 349.826 356.173 349.487C356.427 349.191 356.685 348.897 356.934 348.596C357.021 348.488 357.107 348.375 357.194 348.266C357.581 347.79 357.964 347.315 358.334 346.827C358.597 346.484 358.848 346.134 359.104 345.786C359.333 345.469 359.562 345.155 359.783 344.834C360.039 344.471 360.293 344.105 360.539 343.734C360.799 343.347 361.051 342.956 361.302 342.563C361.5 342.25 361.704 341.941 361.897 341.625C361.962 341.522 362.018 341.414 362.083 341.309C362.413 340.759 362.74 340.206 363.056 339.646C363.265 339.275 363.465 338.898 363.667 338.521C363.878 338.128 364.088 337.733 364.291 337.334C364.476 336.971 364.661 336.604 364.841 336.236C365.072 335.758 365.294 335.273 365.514 334.788C365.648 334.492 365.79 334.2 365.919 333.902C365.957 333.817 365.989 333.729 366.024 333.644C366.314 332.975 366.594 332.301 366.864 331.619C366.991 331.291 367.113 330.959 367.237 330.627C367.424 330.125 367.607 329.619 367.782 329.109C367.899 328.775 368.014 328.44 368.123 328.104C368.35 327.41 368.568 326.711 368.771 326.003C368.814 325.858 368.864 325.711 368.904 325.564C368.908 325.552 368.908 325.543 368.913 325.535C369.146 324.707 369.36 323.872 369.561 323.032C369.64 322.707 369.71 322.379 369.781 322.053C369.912 321.481 370.033 320.904 370.144 320.325C370.211 319.989 370.279 319.652 370.339 319.313C370.47 318.595 370.587 317.87 370.694 317.141C370.718 316.968 370.75 316.798 370.775 316.625C370.783 316.56 370.788 316.494 370.797 316.431C370.909 315.607 371.003 314.779 371.087 313.944V313.938C370.952 313.936 370.821 313.916 370.69 313.911C362.054 313.55 354.904 306.846 353.03 297.918H320.053L320.055 297.919Z" fill="#6CA1D4"/>
<path d="M322.905 303.566C321.349 310.971 315.422 316.53 308.263 316.829C310.241 335.47 321.359 351.042 336.577 358.05C336.799 358.153 337.019 358.261 337.244 358.36C338.177 357.92 339.091 357.444 339.988 356.941C340.147 356.851 340.306 356.764 340.463 356.673C340.838 356.458 341.209 356.236 341.578 356.011C341.782 355.886 341.981 355.755 342.184 355.627C343.019 355.095 343.842 354.543 344.643 353.957C345.011 353.69 345.37 353.409 345.731 353.131C345.876 353.016 346.025 352.905 346.17 352.79C346.521 352.512 346.863 352.231 347.204 351.944C347.384 351.793 347.559 351.641 347.736 351.488C348.486 350.837 349.221 350.166 349.935 349.466C350.231 349.176 350.518 348.876 350.807 348.577C351.002 348.378 351.196 348.176 351.388 347.971C351.637 347.704 351.883 347.435 352.129 347.163C352.373 346.887 352.616 346.609 352.856 346.328C353.065 346.081 353.277 345.839 353.484 345.588C353.559 345.499 353.628 345.407 353.702 345.314C354.02 344.921 354.339 344.526 354.647 344.123C354.862 343.838 355.073 343.548 355.284 343.258C355.475 342.998 355.663 342.736 355.849 342.47C356.061 342.168 356.271 341.864 356.476 341.559C356.691 341.239 356.9 340.913 357.108 340.586C357.272 340.328 357.441 340.072 357.602 339.809C357.654 339.724 357.703 339.634 357.755 339.547C358.031 339.091 358.301 338.634 358.563 338.169C358.736 337.861 358.901 337.547 359.068 337.237C359.245 336.909 359.418 336.582 359.586 336.25C359.741 335.949 359.894 335.646 360.041 335.341C360.235 334.944 360.418 334.542 360.6 334.14C360.712 333.896 360.829 333.652 360.936 333.406C360.967 333.334 360.995 333.263 361.023 333.193C361.263 332.638 361.497 332.078 361.719 331.512C361.826 331.24 361.925 330.964 362.029 330.691C362.184 330.275 362.336 329.856 362.482 329.433C362.576 329.155 362.673 328.877 362.764 328.599C362.953 328.022 363.129 327.443 363.3 326.857C363.336 326.736 363.377 326.615 363.41 326.491C363.412 326.484 363.414 326.475 363.416 326.466C363.609 325.782 363.789 325.088 363.954 324.393C364.019 324.123 364.075 323.852 364.138 323.582C364.243 323.107 364.345 322.629 364.438 322.148C364.492 321.869 364.548 321.589 364.6 321.309C364.707 320.712 364.803 320.112 364.892 319.509C364.914 319.365 364.94 319.224 364.961 319.08C364.967 319.026 364.972 318.973 364.979 318.921C365.071 318.239 365.15 317.55 365.219 316.858V316.852C365.106 316.85 364.999 316.834 364.888 316.83C357.727 316.531 351.799 310.972 350.244 303.567H322.901L322.905 303.566Z" fill="#8CBFF2"/>
<path d="M335.658 360.94C335.658 360.067 336.365 359.359 337.238 359.359C338.11 359.359 338.817 360.067 338.817 360.94C338.817 361.812 338.11 362.52 337.238 362.52C336.365 362.52 335.658 361.812 335.658 360.94Z" fill="#4D7BA8"/>
<path d="M366.11 316.279C366.11 315.406 366.819 314.699 367.69 314.699C368.56 314.699 369.272 315.406 369.272 316.279C369.272 317.152 368.563 317.859 367.69 317.859C366.817 317.859 366.11 317.152 366.11 316.279Z" fill="#4D7BA8"/>
<path d="M349.702 301.326C349.702 300.453 350.409 299.746 351.282 299.746C352.154 299.746 352.861 300.453 352.861 301.326C352.861 302.199 352.154 302.906 351.282 302.906C350.409 302.906 349.702 302.199 349.702 301.326Z" fill="#4D7BA8"/>
<path d="M320.122 301.326C320.122 300.453 320.829 299.746 321.702 299.746C322.574 299.746 323.281 300.453 323.281 301.326C323.281 302.199 322.574 302.906 321.702 302.906C320.829 302.906 320.122 302.199 320.122 301.326Z" fill="#4D7BA8"/>
<path d="M304.317 316.279C304.317 315.406 305.026 314.699 305.897 314.699C306.767 314.699 307.479 315.406 307.479 316.279C307.479 317.152 306.77 317.859 305.897 317.859C305.024 317.859 304.317 317.152 304.317 316.279Z" fill="#4D7BA8"/>
<path d="M336.74 303.566C336.74 303.566 337.077 358.283 337.245 358.357C338.176 357.917 339.089 357.441 339.987 356.938C340.146 356.848 340.305 356.761 340.462 356.67C340.837 356.455 341.207 356.235 341.575 356.008C341.779 355.882 341.981 355.75 342.183 355.622C343.02 355.092 343.841 354.538 344.642 353.955C345.01 353.685 345.369 353.407 345.73 353.129C345.875 353.014 346.024 352.903 346.169 352.788C346.517 352.51 346.862 352.229 347.203 351.942C347.382 351.791 347.56 351.639 347.735 351.486C348.484 350.835 349.22 350.164 349.931 349.466C350.227 349.174 350.517 348.874 350.806 348.575C351.001 348.376 351.194 348.172 351.387 347.967C351.636 347.702 351.88 347.433 352.124 347.159C352.371 346.885 352.614 346.607 352.854 346.326C353.065 346.082 353.275 345.837 353.482 345.588C353.556 345.498 353.625 345.404 353.7 345.314C354.018 344.919 354.337 344.524 354.644 344.121C354.862 343.836 355.069 343.546 355.279 343.256C355.47 342.996 355.66 342.734 355.847 342.468C356.058 342.168 356.269 341.862 356.473 341.557C356.689 341.237 356.898 340.91 357.104 340.586C357.27 340.325 357.438 340.069 357.598 339.807C357.652 339.72 357.698 339.632 357.753 339.545C358.026 339.089 358.298 338.632 358.56 338.167C358.733 337.859 358.899 337.545 359.068 337.233C359.243 336.908 359.418 336.58 359.586 336.248C359.739 335.947 359.892 335.643 360.039 335.339C360.232 334.942 360.416 334.54 360.598 334.138C360.71 333.891 360.827 333.65 360.934 333.402C360.965 333.332 360.992 333.261 361.024 333.19C361.264 332.634 361.496 332.078 361.717 331.512C361.825 331.24 361.923 330.961 362.027 330.688C362.182 330.27 362.335 329.853 362.479 329.43C362.575 329.152 362.672 328.874 362.763 328.593C362.952 328.019 363.131 327.437 363.299 326.854C363.335 326.731 363.376 326.612 363.412 326.488C363.414 326.479 363.414 326.472 363.416 326.463C363.609 325.778 363.786 325.087 363.954 324.389C364.019 324.12 364.075 323.849 364.136 323.579C364.244 323.103 364.345 322.626 364.438 322.144C364.492 321.866 364.548 321.586 364.597 321.306C364.706 320.709 364.803 320.109 364.891 319.506C364.914 319.362 364.938 319.219 364.958 319.074C364.965 319.022 364.972 318.969 364.979 318.917C365.071 318.236 365.152 317.546 365.218 316.855V316.849C365.106 316.847 364.999 316.831 364.886 316.826C357.727 316.526 351.798 310.969 350.244 303.566H336.737H336.74Z" fill="#9ACDFF"/>
<path d="M318.332 328.197C318.332 318.025 326.574 309.781 336.741 309.781C346.907 309.781 355.15 318.025 355.15 328.197C355.15 338.369 346.909 346.612 336.741 346.612C326.572 346.612 318.332 338.367 318.332 328.197Z" fill="#81BA41"/>
<path d="M321.322 328.2C321.322 319.68 328.225 312.773 336.741 312.773C345.257 312.773 352.161 319.679 352.161 328.2C352.161 336.721 345.258 343.626 336.741 343.626C328.224 343.626 321.322 336.721 321.322 328.2Z" fill="white"/>
<path d="M322.832 328.204C322.832 320.519 329.058 314.289 336.74 314.289C344.423 314.289 350.651 320.519 350.651 328.204C350.651 335.889 344.423 342.117 336.74 342.117C329.058 342.117 322.832 335.889 322.832 328.204Z" fill="#81BA41"/>
<path d="M327.257 327.605C326.77 327.053 326.822 326.211 327.376 325.725C327.928 325.237 328.769 325.289 329.256 325.841L335.742 333.2C336.229 333.753 336.177 334.594 335.625 335.081C335.073 335.569 334.229 335.516 333.743 334.964L327.257 327.605Z" fill="white"/>
<path d="M346.226 323.203C346.711 322.651 346.659 321.81 346.107 321.322C345.555 320.835 344.715 320.887 344.227 321.439L333.859 333.2C333.372 333.752 333.424 334.593 333.976 335.08C334.528 335.568 335.372 335.516 335.858 334.964L346.226 323.203Z" fill="white"/>
<path d="M320.055 297.919C318.18 306.848 311.029 313.551 302.396 313.912C304.783 336.395 318.188 355.174 336.543 363.623C336.811 363.749 337.077 363.879 337.349 363.998C338.471 363.468 339.573 362.894 340.656 362.285C340.847 362.18 341.039 362.074 341.23 361.965C341.681 361.705 342.13 361.437 342.574 361.165C342.818 361.014 343.061 360.858 343.305 360.703C344.313 360.062 345.304 359.395 346.269 358.69C346.714 358.367 347.149 358.03 347.581 357.693C347.758 357.556 347.938 357.421 348.113 357.282C348.532 356.947 348.947 356.606 349.36 356.26C349.576 356.079 349.789 355.894 349.999 355.71C350.906 354.924 351.792 354.114 352.651 353.273C353.008 352.923 353.358 352.562 353.705 352.201C353.941 351.958 354.174 351.715 354.406 351.469C354.706 351.148 355.002 350.822 355.298 350.495C355.595 350.163 355.884 349.826 356.173 349.487C356.427 349.191 356.685 348.897 356.934 348.596C357.021 348.488 357.107 348.375 357.194 348.266C357.581 347.79 357.964 347.315 358.334 346.827C358.597 346.484 358.848 346.134 359.104 345.786C359.333 345.469 359.562 345.155 359.783 344.834C360.039 344.471 360.293 344.105 360.539 343.734C360.799 343.347 361.051 342.956 361.302 342.563C361.5 342.25 361.704 341.941 361.897 341.625C361.962 341.522 362.018 341.414 362.083 341.309C362.413 340.759 362.74 340.206 363.056 339.646C363.265 339.275 363.465 338.898 363.667 338.521C363.878 338.128 364.088 337.733 364.291 337.334C364.476 336.971 364.661 336.604 364.841 336.236C365.072 335.758 365.294 335.273 365.514 334.788C365.648 334.492 365.79 334.2 365.919 333.902C365.957 333.817 365.989 333.729 366.024 333.644C366.314 332.975 366.594 332.301 366.864 331.619C366.991 331.291 367.113 330.959 367.237 330.627C367.424 330.125 367.607 329.619 367.782 329.109C367.899 328.775 368.014 328.44 368.123 328.104C368.35 327.41 368.568 326.711 368.771 326.003C368.814 325.858 368.864 325.711 368.904 325.564C368.908 325.552 368.908 325.543 368.913 325.535C369.146 324.707 369.36 323.872 369.561 323.032C369.64 322.707 369.71 322.379 369.781 322.053C369.912 321.481 370.033 320.904 370.144 320.325C370.211 319.989 370.279 319.652 370.339 319.313C370.47 318.595 370.587 317.87 370.694 317.141C370.718 316.968 370.75 316.798 370.775 316.625C370.783 316.56 370.788 316.494 370.797 316.431C370.909 315.607 371.003 314.779 371.087 313.944V313.938C370.952 313.936 370.821 313.916 370.69 313.911C362.054 313.55 354.904 306.846 353.03 297.918H320.053L320.055 297.919Z" fill="#4A6991"/>
<path d="M322.905 303.566C321.349 310.971 315.422 316.53 308.263 316.829C310.241 335.47 321.359 351.042 336.577 358.05C336.799 358.153 337.019 358.261 337.244 358.36C338.177 357.92 339.091 357.444 339.988 356.941C340.147 356.851 340.306 356.764 340.463 356.673C340.838 356.458 341.209 356.236 341.578 356.011C341.782 355.886 341.981 355.755 342.184 355.627C343.019 355.095 343.842 354.543 344.643 353.957C345.011 353.69 345.37 353.409 345.731 353.131C345.876 353.016 346.025 352.905 346.17 352.79C346.521 352.512 346.863 352.231 347.204 351.944C347.384 351.793 347.559 351.641 347.736 351.488C348.486 350.837 349.221 350.166 349.935 349.466C350.231 349.176 350.518 348.876 350.807 348.577C351.002 348.378 351.196 348.176 351.388 347.971C351.637 347.704 351.883 347.435 352.129 347.163C352.373 346.887 352.616 346.609 352.856 346.328C353.065 346.081 353.277 345.839 353.484 345.588C353.559 345.499 353.628 345.407 353.702 345.314C354.02 344.921 354.339 344.526 354.647 344.123C354.862 343.838 355.073 343.548 355.284 343.258C355.475 342.998 355.663 342.736 355.849 342.47C356.061 342.168 356.271 341.864 356.476 341.559C356.691 341.239 356.9 340.913 357.108 340.586C357.272 340.328 357.441 340.072 357.602 339.809C357.654 339.724 357.703 339.634 357.755 339.547C358.031 339.091 358.301 338.634 358.563 338.169C358.736 337.861 358.901 337.547 359.068 337.237C359.245 336.909 359.418 336.582 359.586 336.25C359.741 335.949 359.894 335.646 360.041 335.341C360.235 334.944 360.418 334.542 360.6 334.14C360.712 333.896 360.829 333.652 360.936 333.406C360.967 333.334 360.995 333.263 361.023 333.193C361.263 332.638 361.497 332.078 361.719 331.512C361.826 331.24 361.925 330.964 362.029 330.691C362.184 330.275 362.336 329.856 362.482 329.433C362.576 329.155 362.673 328.877 362.764 328.599C362.953 328.022 363.129 327.443 363.3 326.857C363.336 326.736 363.377 326.615 363.41 326.491C363.412 326.484 363.414 326.475 363.416 326.466C363.609 325.782 363.789 325.088 363.954 324.393C364.019 324.123 364.075 323.852 364.138 323.582C364.243 323.107 364.345 322.629 364.438 322.148C364.492 321.869 364.548 321.589 364.6 321.309C364.707 320.712 364.803 320.112 364.892 319.509C364.914 319.365 364.94 319.224 364.961 319.08C364.967 319.026 364.972 318.973 364.979 318.921C365.071 318.239 365.15 317.55 365.219 316.858V316.852C365.106 316.85 364.999 316.834 364.888 316.83C357.727 316.531 351.799 310.972 350.244 303.567H322.901L322.905 303.566Z" fill="#A2BCDD"/>
<path d="M335.658 360.94C335.658 360.067 336.365 359.359 337.238 359.359C338.11 359.359 338.817 360.067 338.817 360.94C338.817 361.812 338.11 362.52 337.238 362.52C336.365 362.52 335.658 361.812 335.658 360.94Z" fill="#2D4C6A"/>
<path d="M366.11 316.279C366.11 315.406 366.819 314.699 367.69 314.699C368.56 314.699 369.272 315.406 369.272 316.279C369.272 317.152 368.563 317.859 367.69 317.859C366.817 317.859 366.11 317.152 366.11 316.279Z" fill="#2D4C6A"/>
<path d="M349.702 301.326C349.702 300.453 350.409 299.746 351.282 299.746C352.154 299.746 352.861 300.453 352.861 301.326C352.861 302.199 352.154 302.906 351.282 302.906C350.409 302.906 349.702 302.199 349.702 301.326Z" fill="#2D4C6A"/>
<path d="M320.122 301.326C320.122 300.453 320.829 299.746 321.702 299.746C322.574 299.746 323.281 300.453 323.281 301.326C323.281 302.199 322.574 302.906 321.702 302.906C320.829 302.906 320.122 302.199 320.122 301.326Z" fill="#2D4C6A"/>
<path d="M304.317 316.279C304.317 315.406 305.026 314.699 305.897 314.699C306.767 314.699 307.479 315.406 307.479 316.279C307.479 317.152 306.77 317.859 305.897 317.859C305.024 317.859 304.317 317.152 304.317 316.279Z" fill="#2D4C6A"/>
<path d="M336.74 303.566C336.74 303.566 337.077 358.283 337.245 358.357C338.176 357.917 339.089 357.441 339.987 356.938C340.146 356.848 340.305 356.761 340.462 356.67C340.837 356.455 341.207 356.235 341.575 356.008C341.779 355.882 341.981 355.75 342.183 355.622C343.02 355.092 343.841 354.538 344.642 353.955C345.01 353.685 345.369 353.407 345.73 353.129C345.875 353.014 346.024 352.903 346.169 352.788C346.517 352.51 346.862 352.229 347.203 351.942C347.382 351.791 347.56 351.639 347.735 351.486C348.484 350.835 349.22 350.164 349.931 349.466C350.227 349.174 350.517 348.874 350.806 348.575C351.001 348.376 351.194 348.172 351.387 347.967C351.636 347.702 351.88 347.433 352.124 347.159C352.371 346.885 352.614 346.607 352.854 346.326C353.065 346.082 353.275 345.837 353.482 345.588C353.556 345.498 353.625 345.404 353.7 345.314C354.018 344.919 354.337 344.524 354.644 344.121C354.862 343.836 355.069 343.546 355.279 343.256C355.47 342.996 355.66 342.734 355.847 342.468C356.058 342.168 356.269 341.862 356.473 341.557C356.689 341.237 356.898 340.91 357.104 340.586C357.27 340.325 357.438 340.069 357.598 339.807C357.652 339.72 357.698 339.632 357.753 339.545C358.026 339.089 358.298 338.632 358.56 338.167C358.733 337.859 358.899 337.545 359.068 337.233C359.243 336.908 359.418 336.58 359.586 336.248C359.739 335.947 359.892 335.643 360.039 335.339C360.232 334.942 360.416 334.54 360.598 334.138C360.71 333.891 360.827 333.65 360.934 333.402C360.965 333.332 360.992 333.261 361.024 333.19C361.264 332.634 361.496 332.078 361.717 331.512C361.825 331.24 361.923 330.961 362.027 330.688C362.182 330.27 362.335 329.853 362.479 329.43C362.575 329.152 362.672 328.874 362.763 328.593C362.952 328.019 363.131 327.437 363.299 326.854C363.335 326.731 363.376 326.612 363.412 326.488C363.414 326.479 363.414 326.472 363.416 326.463C363.609 325.778 363.786 325.087 363.954 324.389C364.019 324.12 364.075 323.849 364.136 323.579C364.244 323.103 364.345 322.626 364.438 322.144C364.492 321.866 364.548 321.586 364.597 321.306C364.706 320.709 364.803 320.109 364.891 319.506C364.914 319.362 364.938 319.219 364.958 319.074C364.965 319.022 364.972 318.969 364.979 318.917C365.071 318.236 365.152 317.546 365.218 316.855V316.849C365.106 316.847 364.999 316.831 364.886 316.826C357.727 316.526 351.798 310.969 350.244 303.566H336.737H336.74Z" fill="#8AA8CD"/>
<path d="M318.332 328.197C318.332 318.025 326.574 309.781 336.741 309.781C346.907 309.781 355.15 318.025 355.15 328.197C355.15 338.369 346.909 346.612 336.741 346.612C326.572 346.612 318.332 338.367 318.332 328.197Z" fill="#81BA41"/>
<path d="M321.322 328.2C321.322 319.68 328.225 312.773 336.741 312.773C345.257 312.773 352.161 319.679 352.161 328.2C352.161 336.721 345.258 343.626 336.741 343.626C328.224 343.626 321.322 336.721 321.322 328.2Z" fill="white"/>
<path d="M322.832 328.204C322.832 320.519 329.058 314.289 336.74 314.289C344.423 314.289 350.651 320.519 350.651 328.204C350.651 335.889 344.423 342.117 336.74 342.117C329.058 342.117 322.832 335.889 322.832 328.204Z" fill="#81BA41"/>
<path d="M327.257 327.605C326.77 327.053 326.822 326.211 327.376 325.725C327.928 325.237 328.769 325.289 329.256 325.841L335.742 333.2C336.229 333.753 336.177 334.594 335.625 335.081C335.073 335.569 334.229 335.516 333.743 334.964L327.257 327.605Z" fill="white"/>
<path d="M346.226 323.203C346.711 322.651 346.659 321.81 346.107 321.322C345.555 320.835 344.715 320.887 344.227 321.439L333.859 333.2C333.372 333.752 333.424 334.593 333.976 335.08C334.528 335.568 335.372 335.516 335.858 334.964L346.226 323.203Z" fill="white"/>
<path fill-rule="evenodd" clip-rule="evenodd" d="M228.966 105.667C212.168 105.667 198.531 91.7959 198.531 74.7109C198.531 57.6258 212.168 43.7552 228.966 43.7552C229.285 43.7552 229.601 43.7605 229.916 43.7701C233.29 27.7618 249.753 9.36428 249.753 9.36428C253.271 8.41281 267.991 9.36428 271.801 9.36428C295.443 9.36428 314.637 28.8864 314.637 52.9312V62.0901C316.835 62.0901 319.07 62.4363 321.272 63.1658C332.511 66.891 338.663 79.1953 335 90.6267C332.055 99.8176 323.657 105.663 314.637 105.665H228.966V105.667Z" fill="#B1CEF3"/>
<path fill-rule="evenodd" clip-rule="evenodd" d="M206.918 105.669C190.121 105.669 176.483 91.7988 176.483 74.7138C176.483 57.6287 190.121 43.7581 206.918 43.7581C207.237 43.7581 207.553 43.7634 207.868 43.773C212.011 24.1203 229.201 9.36719 249.753 9.36719C273.394 9.36719 292.588 28.8893 292.588 52.9341V62.093C294.786 62.093 297.021 62.4392 299.223 63.1687C310.463 66.8939 316.614 79.1982 312.951 90.6296C310.007 99.8204 301.608 105.666 292.588 105.668H206.917L206.918 105.669Z" fill="#BEDAFE"/>
</svg>
