<svg xmlns="http://www.w3.org/2000/svg" width="40" height="40" viewBox="0 0 40 40" fill="none" class="svg raid replaced-svg">
<path d="M14.6562 11.6875V19.4062H10.5C10.3425 19.4062 10.1915 19.4688 10.0802 19.5802C9.96881 19.6915 9.90625 19.8425 9.90625 20V28.3125C9.90625 28.47 9.96881 28.621 10.0802 28.7323C10.1915 28.8437 10.3425 28.9062 10.5 28.9062H29.5C29.6575 28.9062 29.8085 28.8437 29.9198 28.7323C30.0312 28.621 30.0938 28.47 30.0938 28.3125V20C30.0938 19.8425 30.0312 19.6915 29.9198 19.5802C29.8085 19.4688 29.6575 19.4062 29.5 19.4062H25.3438V11.6875C25.3438 11.53 25.2812 11.379 25.1698 11.2677C25.0585 11.1563 24.9075 11.0938 24.75 11.0938H15.25C15.0925 11.0938 14.9415 11.1563 14.8302 11.2677C14.7188 11.379 14.6562 11.53 14.6562 11.6875ZM14.6562 20.5938H15.8438V22.9688H14.6562V20.5938ZM11.0938 20.5938H13.4688V23.5625C13.4688 23.72 13.5313 23.871 13.6427 23.9823C13.754 24.0937 13.905 24.1562 14.0625 24.1562H16.4375C16.595 24.1562 16.746 24.0937 16.8573 23.9823C16.9687 23.871 17.0312 23.72 17.0312 23.5625V20.5938H19.4062V27.7188H11.0938V20.5938ZM28.9062 27.7188H20.5938V20.5938H22.9688V23.5625C22.9688 23.72 23.0313 23.871 23.1427 23.9823C23.254 24.0937 23.405 24.1562 23.5625 24.1562H25.9375C26.095 24.1562 26.246 24.0937 26.3573 23.9823C26.4687 23.871 26.5312 23.72 26.5312 23.5625V20.5938H28.9062V27.7188ZM24.1562 20.5938H25.3438V22.9688H24.1562V20.5938ZM19.4062 12.2812H20.5938V14.6562H19.4062V12.2812ZM18.2188 12.2812V15.25C18.2188 15.4075 18.2813 15.5585 18.3927 15.6698C18.504 15.7812 18.655 15.8438 18.8125 15.8438H21.1875C21.345 15.8438 21.496 15.7812 21.6073 15.6698C21.7187 15.5585 21.7812 15.4075 21.7812 15.25V12.2812H24.1562V19.4062H15.8438V12.2812H18.2188Z" fill="#00A63F"></path>
<path d="M2.1875 7.53125H7.53125V8.71875H2.1875V7.53125Z" fill="#00A63F"></path>
<path d="M32.4688 7.53125H37.8125V8.71875H32.4688V7.53125Z" fill="#00A63F"></path>
<path d="M8.71875 7.53125H9.90625V8.71875H8.71875V7.53125Z" fill="#00A63F"></path>
<path d="M11.0938 7.53125H12.2812V8.71875H11.0938V7.53125Z" fill="#00A63F"></path>
<path d="M13.4688 7.53125H14.6562V8.71875H13.4688V7.53125Z" fill="#00A63F"></path>
<path d="M15.8438 7.53125H17.0312V8.71875H15.8438V7.53125Z" fill="#00A63F"></path>
<path d="M18.2188 7.53125H19.4062V8.71875H18.2188V7.53125Z" fill="#00A63F"></path>
<path d="M20.5938 7.53125H21.7812V8.71875H20.5938V7.53125Z" fill="#00A63F"></path>
<path d="M22.9688 7.53125H24.1562V8.71875H22.9688V7.53125Z" fill="#00A63F"></path>
<path d="M25.3438 7.53125H26.5312V8.71875H25.3438V7.53125Z" fill="#00A63F"></path>
<path d="M27.7188 7.53125H28.9062V8.71875H27.7188V7.53125Z" fill="#00A63F"></path>
<path d="M30.0938 7.53125H31.2812V8.71875H30.0938V7.53125Z" fill="#00A63F"></path>
<path d="M2.1875 31.2812H7.53125V32.4688H2.1875V31.2812Z" fill="#00A63F"></path>
<path d="M32.4688 31.2812H37.8125V32.4688H32.4688V31.2812Z" fill="#00A63F"></path>
<path d="M8.71875 31.2812H9.90625V32.4688H8.71875V31.2812Z" fill="#00A63F"></path>
<path d="M11.0938 31.2812H12.2812V32.4688H11.0938V31.2812Z" fill="#00A63F"></path>
<path d="M13.4688 31.2812H14.6562V32.4688H13.4688V31.2812Z" fill="#00A63F"></path>
<path d="M15.8438 31.2812H17.0312V32.4688H15.8438V31.2812Z" fill="#00A63F"></path>
<path d="M18.2188 31.2812H19.4062V32.4688H18.2188V31.2812Z" fill="#00A63F"></path>
<path d="M20.5938 31.2812H21.7812V32.4688H20.5938V31.2812Z" fill="#00A63F"></path>
<path d="M22.9688 31.2812H24.1562V32.4688H22.9688V31.2812Z" fill="#00A63F"></path>
<path d="M25.3438 31.2812H26.5312V32.4688H25.3438V31.2812Z" fill="#00A63F"></path>
<path d="M27.7188 31.2812H28.9062V32.4688H27.7188V31.2812Z" fill="#00A63F"></path>
<path d="M30.0938 31.2812H31.2812V32.4688H30.0938V31.2812Z" fill="#00A63F"></path>
<path d="M31.2812 2.1875H32.4688V7.53125H31.2812V2.1875Z" fill="#00A63F"></path>
<path d="M31.2812 32.4688H32.4688V37.8125H31.2812V32.4688Z" fill="#00A63F"></path>
<path d="M31.2812 8.71875H32.4688V9.90625H31.2812V8.71875Z" fill="#00A63F"></path>
<path d="M31.2812 11.0938H32.4688V12.2812H31.2812V11.0938Z" fill="#00A63F"></path>
<path d="M31.2812 13.4688H32.4688V14.6562H31.2812V13.4688Z" fill="#00A63F"></path>
<path d="M31.2812 15.8438H32.4688V17.0312H31.2812V15.8438Z" fill="#00A63F"></path>
<path d="M31.2812 18.2188H32.4688V19.4062H31.2812V18.2188Z" fill="#00A63F"></path>
<path d="M31.2812 20.5938H32.4688V21.7812H31.2812V20.5938Z" fill="#00A63F"></path>
<path d="M31.2812 22.9688H32.4688V24.1562H31.2812V22.9688Z" fill="#00A63F"></path>
<path d="M31.2812 25.3438H32.4688V26.5312H31.2812V25.3438Z" fill="#00A63F"></path>
<path d="M31.2812 27.7188H32.4688V28.9062H31.2812V27.7188Z" fill="#00A63F"></path>
<path d="M31.2812 30.0938H32.4688V31.2812H31.2812V30.0938Z" fill="#00A63F"></path>
<path d="M7.53125 2.1875H8.71875V7.53125H7.53125V2.1875Z" fill="#00A63F"></path>
<path d="M7.53125 32.4688H8.71875V37.8125H7.53125V32.4688Z" fill="#00A63F"></path>
<path d="M7.53125 8.71875H8.71875V9.90625H7.53125V8.71875Z" fill="#00A63F"></path>
<path d="M7.53125 11.0938H8.71875V12.2812H7.53125V11.0938Z" fill="#00A63F"></path>
<path d="M7.53125 13.4688H8.71875V14.6562H7.53125V13.4688Z" fill="#00A63F"></path>
<path d="M7.53125 15.8438H8.71875V17.0312H7.53125V15.8438Z" fill="#00A63F"></path>
<path d="M7.53125 18.2188H8.71875V19.4062H7.53125V18.2188Z" fill="#00A63F"></path>
<path d="M7.53125 20.5938H8.71875V21.7812H7.53125V20.5938Z" fill="#00A63F"></path>
<path d="M7.53125 22.9688H8.71875V24.1562H7.53125V22.9688Z" fill="#00A63F"></path>
<path d="M7.53125 25.3438H8.71875V26.5312H7.53125V25.3438Z" fill="#00A63F"></path>
<path d="M7.53125 27.7188H8.71875V28.9062H7.53125V27.7188Z" fill="#00A63F"></path>
<path d="M7.53125 30.0938H8.71875V31.2812H7.53125V30.0938Z" fill="#00A63F"></path>
</svg>