<svg xmlns="http://www.w3.org/2000/svg" width="40" height="40" viewBox="0 0 40 40" fill="none" class="svg replaced-svg">
<g clip-path="url(#clip0_815_16304)">
<path d="M21.475 29.1693H18.5245C18.2115 29.1693 17.9598 28.9175 17.9598 28.6045V26.9881C17.4539 26.8398 16.9668 26.6398 16.5056 26.3857L15.3621 27.5293C15.1409 27.7504 14.7833 27.7504 14.5645 27.5293L12.4774 25.4422C12.3715 25.3363 12.3127 25.1928 12.3127 25.0422C12.3127 24.8916 12.3715 24.7481 12.4774 24.6422L13.6209 23.4987C13.3668 23.0375 13.1645 22.5504 13.0186 22.0445H11.4021C11.0892 22.0445 10.8374 21.7928 10.8374 21.4798V18.5269C10.8374 18.214 11.0892 17.9622 11.4021 17.9622H13.0186C13.1668 17.4563 13.3668 16.9693 13.6209 16.5081L12.4774 15.3645C12.2562 15.1434 12.2562 14.7857 12.4774 14.5669L14.5645 12.4798C14.7856 12.2587 15.1433 12.2587 15.3621 12.4798L16.5056 13.6234C16.9668 13.3693 17.4539 13.1669 17.9598 13.021V11.4045C17.9598 11.0916 18.2115 10.8398 18.5245 10.8398H21.4774C21.7903 10.8398 22.0421 11.0916 22.0421 11.4045V13.021C22.548 13.1693 23.035 13.3693 23.4962 13.6234L24.6398 12.4798C24.7456 12.374 24.8892 12.3151 25.0398 12.3151C25.1903 12.3151 25.3339 12.374 25.4398 12.4798L27.5268 14.5669C27.748 14.7881 27.748 15.1457 27.5268 15.3645L26.3833 16.5081C26.6374 16.9693 26.8398 17.4563 26.9856 17.9622H28.6021C28.915 17.9622 29.1668 18.214 29.1668 18.5269V21.4798C29.1668 21.7928 28.915 22.0445 28.6021 22.0445H26.9856C26.8374 22.5504 26.6374 23.0375 26.3833 23.4987L27.5268 24.6422C27.748 24.8634 27.748 25.221 27.5268 25.4398L25.4398 27.5269C25.2186 27.7481 24.8609 27.7481 24.6421 27.5269L23.4986 26.3834C23.0374 26.6375 22.5503 26.8398 22.0445 26.9857V28.6022C22.0398 28.9151 21.788 29.1693 21.475 29.1693ZM19.0892 28.0398H20.9127V26.5504C20.9127 26.2869 21.0962 26.0563 21.3527 25.9998C22.0374 25.8469 22.6868 25.5763 23.2845 25.1998C23.508 25.0587 23.7998 25.0916 23.9856 25.2775L25.0398 26.3316L26.3292 25.0422L25.275 23.9881C25.0892 23.8022 25.0562 23.5104 25.1974 23.2869C25.5739 22.6916 25.8445 22.0422 25.9974 21.3551C26.0562 21.0963 26.2845 20.9151 26.548 20.9151H28.0374V19.0916H26.548C26.2845 19.0916 26.0539 18.9081 25.9974 18.6516C25.8445 17.9669 25.5739 17.3175 25.1974 16.7222C25.0562 16.4987 25.0892 16.2069 25.275 16.021L26.3292 14.9669L25.0398 13.6775L23.9856 14.7316C23.7998 14.9175 23.508 14.9504 23.2845 14.8093C22.6892 14.4328 22.0398 14.1622 21.3527 14.0093C21.0939 13.9504 20.9127 13.7222 20.9127 13.4587V11.9693H19.0892V13.4587C19.0892 13.7222 18.9056 13.9528 18.6492 14.0093C17.9645 14.1622 17.315 14.4328 16.7198 14.8093C16.4962 14.9504 16.2045 14.9175 16.0186 14.7316L14.9645 13.6775L13.675 14.9669L14.7292 16.021C14.915 16.2069 14.948 16.4987 14.8068 16.7222C14.4303 17.3175 14.1598 17.9669 14.0068 18.6516C13.948 18.9104 13.7198 19.0916 13.4562 19.0916H11.9668V20.9151H13.4562C13.7198 20.9151 13.9503 21.0987 14.0068 21.3551C14.1598 22.0398 14.4303 22.6893 14.8068 23.2869C14.948 23.5104 14.915 23.8022 14.7292 23.9881L13.675 25.0422L14.9645 26.3316L16.0186 25.2775C16.2045 25.0916 16.4962 25.0587 16.7198 25.1998C17.315 25.5763 17.9645 25.8469 18.6492 25.9998C18.908 26.0587 19.0892 26.2869 19.0892 26.5504V28.0398Z" fill="#00A63F"></path>
<path d="M19.9998 23.7614C17.9269 23.7614 16.2422 22.0743 16.2422 20.0037C16.2422 17.9332 17.9269 16.2461 19.9998 16.2461C22.0728 16.2461 23.7575 17.9332 23.7575 20.0037C23.7575 22.0743 22.0728 23.7614 19.9998 23.7614ZM19.9998 17.3755C18.5504 17.3755 17.3716 18.5543 17.3716 20.0037C17.3716 21.4532 18.5504 22.632 19.9998 22.632C21.4492 22.632 22.6281 21.4532 22.6281 20.0037C22.6281 18.5543 21.4492 17.3755 19.9998 17.3755Z" fill="#00A63F"></path>
<path d="M19.9998 8.75771C19.6868 8.75771 19.4351 8.50595 19.4351 8.19301V4.7483C19.4351 4.43536 19.6868 4.18359 19.9998 4.18359C20.3127 4.18359 20.5645 4.43536 20.5645 4.7483V8.19301C20.5645 8.50359 20.3127 8.75771 19.9998 8.75771Z" fill="#00A63F"></path>
<path d="M19.9999 5.31322C19.0658 5.31322 18.3081 4.55322 18.3081 3.62145C18.3081 2.68969 19.0658 1.92969 19.9999 1.92969C20.934 1.92969 21.6916 2.68969 21.6916 3.62145C21.6916 4.55322 20.934 5.31322 19.9999 5.31322ZM19.9999 3.0591C19.6893 3.0591 19.4375 3.31086 19.4375 3.62145C19.4375 3.93204 19.6893 4.18381 19.9999 4.18381C20.3105 4.18381 20.5622 3.93204 20.5622 3.62145C20.5622 3.31086 20.3105 3.0591 19.9999 3.0591Z" fill="#00A63F"></path>
<path d="M11.6516 12.2143C11.508 12.2143 11.3622 12.1602 11.2516 12.0496L8.81627 9.61197C8.5951 9.39079 8.5951 9.03314 8.81627 8.81432C9.03745 8.59314 9.3951 8.59314 9.61392 8.81432L12.0492 11.2496C12.2704 11.4708 12.2704 11.8284 12.0492 12.0473C11.9386 12.1578 11.7951 12.2143 11.6516 12.2143Z" fill="#00A63F"></path>
<path d="M8.41882 10.1101C7.96705 10.1101 7.54117 9.93362 7.22352 9.61362C6.90587 9.29362 6.72705 8.87009 6.72705 8.41833C6.72705 7.96656 6.90352 7.54068 7.22352 7.22303C7.54352 6.90539 7.96705 6.72656 8.41882 6.72656C8.87058 6.72656 9.29646 6.90303 9.61411 7.22303C9.93176 7.54303 10.1106 7.96656 10.1106 8.41833C10.1106 8.87009 9.93411 9.29597 9.61411 9.61362C9.29411 9.93127 8.87058 10.1101 8.41882 10.1101ZM8.41882 7.85597C8.26823 7.85597 8.12705 7.9148 8.02117 8.02068C7.91529 8.12656 7.85646 8.26774 7.85646 8.41833C7.85646 8.56892 7.91529 8.71009 8.02117 8.81597C8.12705 8.92186 8.26823 8.98068 8.41882 8.98068C8.5694 8.98068 8.71058 8.92186 8.81646 8.81597C8.92235 8.71009 8.98117 8.56892 8.98117 8.41833C8.98117 8.26774 8.92235 8.12656 8.81646 8.02068C8.71058 7.9148 8.5694 7.85597 8.41882 7.85597Z" fill="#00A63F"></path>
<path d="M8.19252 20.5669H4.74781C4.43487 20.5669 4.18311 20.3151 4.18311 20.0022C4.18311 19.6893 4.43487 19.4375 4.74781 19.4375H8.19252C8.50546 19.4375 8.75722 19.6893 8.75722 20.0022C8.75722 20.3151 8.50311 20.5669 8.19252 20.5669Z" fill="#00A63F"></path>
<path d="M3.62096 21.6921C2.68685 21.6921 1.9292 20.9321 1.9292 20.0004C1.9292 19.0662 2.6892 18.3086 3.62096 18.3086C4.55273 18.3086 5.31273 19.0686 5.31273 20.0004C5.31273 20.9345 4.55508 21.6921 3.62096 21.6921ZM3.62096 19.438C3.31038 19.438 3.05861 19.6898 3.05861 20.0004C3.05861 20.3109 3.31038 20.5627 3.62096 20.5627C3.93155 20.5627 4.18332 20.3109 4.18332 20.0004C4.18332 19.6898 3.93155 19.438 3.62096 19.438Z" fill="#00A63F"></path>
<path d="M9.21627 31.3487C9.07274 31.3487 8.92686 31.2946 8.81627 31.184C8.5951 30.9628 8.5951 30.6052 8.81627 30.3863L11.2516 27.951C11.4727 27.7299 11.8304 27.7299 12.0492 27.951C12.2704 28.1722 12.2704 28.5299 12.0492 28.7487L9.61392 31.184C9.50568 31.2946 9.3598 31.3487 9.21627 31.3487Z" fill="#00A63F"></path>
<path d="M8.41882 33.2718C7.98587 33.2718 7.55293 33.1071 7.22352 32.7777C6.90352 32.4577 6.72705 32.0342 6.72705 31.5824C6.72705 31.1306 6.90352 30.7047 7.22352 30.3871C7.54352 30.0694 7.96705 29.8906 8.41882 29.8906C8.87058 29.8906 9.29646 30.0671 9.61411 30.3871C9.93176 30.7071 10.1106 31.1306 10.1106 31.5824C10.1106 32.0342 9.93411 32.46 9.61411 32.7777C9.2847 33.1071 8.85176 33.2718 8.41882 33.2718ZM8.41882 31.0177C8.26823 31.0177 8.12705 31.0765 8.02117 31.1824C7.91529 31.2883 7.85646 31.4294 7.85646 31.58C7.85646 31.7306 7.91529 31.8718 8.02117 31.9777C8.23999 32.1965 8.59764 32.1965 8.81646 31.9777C8.92235 31.8718 8.98117 31.7306 8.98117 31.58C8.98117 31.4294 8.92235 31.2883 8.81646 31.1824C8.71058 31.0765 8.5694 31.0177 8.41882 31.0177Z" fill="#00A63F"></path>
<path d="M19.9998 35.8163C19.6868 35.8163 19.4351 35.5645 19.4351 35.2516V31.8069C19.4351 31.494 19.6868 31.2422 19.9998 31.2422C20.3127 31.2422 20.5645 31.494 20.5645 31.8069V35.2516C20.5645 35.5622 20.3127 35.8163 19.9998 35.8163Z" fill="#00A63F"></path>
<path d="M19.9999 38.071C19.0658 38.071 18.3081 37.311 18.3081 36.3793C18.3081 35.4475 19.0681 34.6875 19.9999 34.6875C20.934 34.6875 21.6916 35.4475 21.6916 36.3793C21.6916 37.311 20.934 38.071 19.9999 38.071ZM19.9999 35.8169C19.6893 35.8169 19.4375 36.0687 19.4375 36.3793C19.4375 36.6899 19.6893 36.9416 19.9999 36.9416C20.3105 36.9416 20.5622 36.6899 20.5622 36.3793C20.5622 36.0687 20.3105 35.8169 19.9999 35.8169Z" fill="#00A63F"></path>
<path d="M30.7834 31.3487C30.6399 31.3487 30.494 31.2946 30.3834 31.184L27.9481 28.7487C27.7269 28.5275 27.7269 28.1699 27.9481 27.951C28.1693 27.7299 28.5269 27.7299 28.7458 27.951L31.181 30.3863C31.4022 30.6075 31.4022 30.9652 31.181 31.184C31.0728 31.2946 30.9293 31.3487 30.7834 31.3487Z" fill="#00A63F"></path>
<path d="M31.5809 33.2718C31.148 33.2718 30.715 33.1071 30.3856 32.7777C30.0656 32.4577 29.8892 32.0342 29.8892 31.5824C29.8892 31.1306 30.0656 30.7047 30.3856 30.3871C30.7056 30.0694 31.1292 29.8906 31.5809 29.8906C32.0327 29.8906 32.4586 30.0671 32.7762 30.3871C33.435 31.0459 33.435 32.1212 32.7762 32.78C32.4468 33.1071 32.0139 33.2718 31.5809 33.2718ZM31.1833 31.9777C31.4021 32.1965 31.7597 32.1965 31.9786 31.9777C32.1974 31.7589 32.1974 31.4012 31.9786 31.1824C31.8727 31.0765 31.7315 31.0177 31.5809 31.0177C31.4303 31.0177 31.2892 31.0765 31.1833 31.1824C31.0774 31.2883 31.0186 31.4294 31.0186 31.58C31.0186 31.7306 31.0774 31.8718 31.1833 31.9777Z" fill="#00A63F"></path>
<path d="M35.2516 20.5669H31.8069C31.494 20.5669 31.2422 20.3151 31.2422 20.0022C31.2422 19.6893 31.494 19.4375 31.8069 19.4375H35.2516C35.5645 19.4375 35.8163 19.6893 35.8163 20.0022C35.8163 20.3151 35.5622 20.5669 35.2516 20.5669Z" fill="#00A63F"></path>
<path d="M36.3788 21.6921C35.4447 21.6921 34.687 20.9321 34.687 20.0004C34.687 19.0662 35.447 18.3086 36.3788 18.3086C37.3105 18.3086 38.0705 19.0686 38.0705 20.0004C38.0705 20.9345 37.3105 21.6921 36.3788 21.6921ZM36.3788 19.438C36.0682 19.438 35.8164 19.6898 35.8164 20.0004C35.8164 20.3109 36.0682 20.5627 36.3788 20.5627C36.6894 20.5627 36.9411 20.3109 36.9411 20.0004C36.9411 19.6898 36.6894 19.438 36.3788 19.438Z" fill="#00A63F"></path>
<path d="M28.3481 12.2159C28.2046 12.2159 28.0587 12.1618 27.9481 12.0512C27.7269 11.83 27.7269 11.4723 27.9481 11.2535L30.3834 8.81823C30.6046 8.59705 30.9622 8.59705 31.181 8.81823C31.4022 9.0394 31.4022 9.39705 31.181 9.61587L28.7458 12.0512C28.6375 12.1594 28.494 12.2159 28.3481 12.2159Z" fill="#00A63F"></path>
<path d="M31.5809 10.1101C31.1292 10.1101 30.7033 9.93362 30.3856 9.61362C30.068 9.29362 29.8892 8.87009 29.8892 8.41833C29.8892 7.96656 30.0656 7.54068 30.3856 7.22303C30.7056 6.90539 31.1292 6.72656 31.5809 6.72656C32.0327 6.72656 32.4586 6.90303 32.7762 7.22303C33.435 7.88186 33.435 8.95715 32.7762 9.61597C32.4586 9.93362 32.0327 10.1101 31.5809 10.1101ZM31.5809 7.85597C31.4303 7.85597 31.2892 7.9148 31.1833 8.02068C31.0774 8.12656 31.0186 8.26774 31.0186 8.41833C31.0186 8.56892 31.0774 8.71009 31.1833 8.81597C31.2892 8.92186 31.4303 8.98068 31.5809 8.98068C31.7315 8.98068 31.8727 8.92186 31.9786 8.81597C32.1974 8.59715 32.1974 8.2395 31.9786 8.02068C31.8727 7.9148 31.7315 7.85597 31.5809 7.85597Z" fill="#00A63F"></path>
</g>
<defs>
<clipPath id="clip0_815_16304">
<rect width="40" height="40" fill="white"></rect>
</clipPath>
</defs>
</svg>