<svg xmlns="http://www.w3.org/2000/svg" width="41" height="40" viewBox="0 0 41 40" fill="none" class="svg replaced-svg">
<g clip-path="url(#clip0_832_1489)">
<path d="M35.0001 17C33.5517 17 32.3397 18.0326 32.0607 19.4H29.2905C28.9269 18.4724 28.2621 17.6792 27.3825 17.1806C27.2661 16.1852 26.8929 15.275 26.3391 14.51L28.9533 11.8952C29.4519 12.2246 30.0285 12.389 30.6057 12.389C31.3737 12.389 32.1429 12.0974 32.7303 11.5142C33.8973 10.3478 33.8979 8.444 32.7291 7.2686C31.5561 6.1016 29.6517 6.1034 28.4847 7.271C27.4641 8.2982 27.3381 9.8846 28.1049 11.0462L25.5381 13.6136C24.5553 12.7328 23.2671 12.1994 21.8631 12.1994C21.4305 12.1994 21.0099 12.2606 20.6007 12.3566V7.9388C21.9681 7.6598 23.0007 6.4484 23.0007 4.9994C23.0001 3.3458 21.6543 2 20.0001 2C18.3459 2 17.0001 3.3458 17.0001 5C17.0001 6.4484 18.0327 7.6604 19.4001 7.9394V12.794C18.3909 13.3004 17.5371 14.1032 16.9809 15.1352C16.7511 15.0734 16.5141 15.0422 16.2759 15.0422C16.1553 15.0422 16.0395 15.059 15.9225 15.0746L11.8953 11.0474C12.6621 9.8852 12.5355 8.2988 11.5155 7.2722C11.5155 7.2722 11.5155 7.271 11.5143 7.271C10.3473 6.1046 8.44411 6.104 7.26871 7.2722C6.10231 8.4452 6.10291 10.349 7.27111 11.5166C7.85791 12.0998 8.62591 12.3908 9.39391 12.3908C9.97111 12.3908 10.5483 12.2258 11.0469 11.8964L14.7033 15.5534C14.1147 15.9692 13.6857 16.6028 13.5501 17.3498C12.3777 17.6066 11.4183 18.3728 10.8771 19.4012H7.93891C7.65991 18.0338 6.44851 17.0012 4.99951 17.0012C3.34531 17.0012 1.99951 18.347 1.99951 20.0012C1.99951 21.6554 3.34531 23.0012 4.99951 23.0012C6.44791 23.0012 7.65991 21.9686 7.93891 20.6012H10.4631C10.4217 20.837 10.3995 21.0794 10.3995 21.3278C10.3995 23.363 11.8791 25.0496 13.8033 25.349L11.0469 28.1054C9.88471 27.338 8.29771 27.464 7.26991 28.4864C6.10291 29.6534 6.10231 31.5566 7.27111 32.732C7.85731 33.3152 8.62591 33.6062 9.39391 33.6062C10.1619 33.6062 10.9311 33.314 11.5155 32.7296C12.5361 31.7024 12.6627 30.116 11.8953 28.9538L15.4479 25.4012H19.3995V32.0618C18.0321 32.3408 16.9995 33.5522 16.9995 35.0012C16.9995 36.6554 18.3453 38.0012 19.9995 38.0012C21.6537 38.0012 22.9995 36.6554 22.9995 35.0012C22.9995 33.5528 21.9669 32.3408 20.5995 32.0618V25.4012H24.5511L28.1037 28.9538C27.3363 30.116 27.4635 31.703 28.4847 32.7308C29.0685 33.3146 29.8353 33.6062 30.6039 33.6062C31.3725 33.6062 32.1423 33.314 32.7303 32.7296C33.8967 31.5566 33.8961 29.6534 32.7291 28.4864C32.7291 28.4864 32.7291 28.4852 32.7279 28.4852C31.7001 27.464 30.1137 27.338 28.9515 28.1054L26.1549 25.3088C28.1181 24.8948 29.5983 23.126 29.5983 21.0116C29.5983 20.873 29.5833 20.7374 29.5707 20.6006H32.0589C32.3379 21.968 33.5493 23.0006 34.9983 23.0006C36.6525 23.0006 37.9983 21.6548 37.9983 20.0006C37.9983 18.3464 36.6525 17.0006 34.9983 17.0006L35.0001 17ZM18.2001 5C18.2001 4.0076 19.0077 3.2 20.0001 3.2C20.9925 3.2 21.8001 4.0076 21.8001 5C21.8001 5.9924 20.9925 6.8 20.0001 6.8C19.0077 6.8 18.2001 5.9924 18.2001 5ZM8.11831 10.6658C7.41811 9.9656 7.41871 8.8226 8.11711 8.1194C8.46991 7.769 8.93191 7.5938 9.39391 7.5938C9.85591 7.5938 10.3155 7.769 10.6653 8.1182C11.3649 8.8238 11.3655 9.9662 10.6653 10.6664C9.96451 11.3666 8.82211 11.366 8.11771 10.6664L8.11831 10.6658ZM5.00011 21.8C4.00771 21.8 3.20011 20.9924 3.20011 20C3.20011 19.0076 4.00771 18.2 5.00011 18.2C5.99251 18.2 6.80011 19.0076 6.80011 20C6.80011 20.9924 5.99251 21.8 5.00011 21.8ZM21.8001 35C21.8001 35.9924 20.9925 36.8 20.0001 36.8C19.0077 36.8 18.2001 35.9924 18.2001 35C18.2001 34.0076 19.0077 33.2 20.0001 33.2C20.9925 33.2 21.8001 34.0076 21.8001 35ZM29.3343 8.1182C30.0351 7.418 31.1787 7.4186 31.8807 8.117C32.5815 8.822 32.5821 9.9656 31.8831 10.6646C31.1775 11.3654 30.0339 11.366 29.3343 10.6658C28.6347 9.9656 28.6353 8.822 29.3343 8.1182ZM10.6659 31.8818C9.96511 32.5826 8.82271 32.5814 8.11951 31.883C7.41871 31.178 7.41811 30.0344 8.11711 29.3354C8.46991 28.985 8.93191 28.8098 9.39391 28.8098C9.85591 28.8098 10.3161 28.9844 10.6659 29.3342C11.3655 30.035 11.3649 31.178 10.6659 31.8818ZM30.6057 28.8098C31.0671 28.8098 31.5291 28.985 31.8819 29.3348C32.5815 30.035 32.5809 31.178 31.8819 31.8806C31.1763 32.582 30.0327 32.582 29.3343 31.883C28.6341 31.178 28.6335 30.0344 29.3331 29.3342C29.6829 28.9844 30.1443 28.8098 30.6057 28.8098ZM25.2753 24.2H14.4129C12.8613 24.2 11.5995 22.9112 11.5995 21.3266C11.5995 19.8296 12.6999 18.6002 14.1585 18.4658C14.4681 18.4376 14.7033 18.1628 14.7033 17.8526C14.7033 16.9646 15.4089 16.2422 16.2753 16.2422C16.5297 16.2422 16.7739 16.3034 17.0007 16.4246C17.1495 16.5038 17.3259 16.5164 17.4855 16.46C17.6457 16.403 17.7729 16.2812 17.8377 16.1246C18.5223 14.4692 20.1015 13.4 21.8619 13.4C24.1707 13.4 26.0823 15.2426 26.2143 17.5958C26.2269 17.8172 26.3601 18.0134 26.5611 18.107C27.6777 18.6236 28.3995 19.7636 28.3995 21.011C28.3995 22.7696 26.9979 24.2 25.2753 24.2ZM34.9995 21.8C34.0071 21.8 33.1995 20.9924 33.1995 20C33.1995 19.0076 34.0071 18.2 34.9995 18.2C35.9919 18.2 36.7995 19.0076 36.7995 20C36.7995 20.9924 35.9919 21.8 34.9995 21.8Z" fill="#00A63F"></path>
</g>
<defs>
<clipPath id="clip0_832_1489">
<rect width="36" height="36" fill="white" transform="translate(2 2)"></rect>
</clipPath>
</defs>
</svg>