<svg width="51" height="51" viewBox="0 0 51 51" fill="none" xmlns="http://www.w3.org/2000/svg">
<g clip-path="url(#clip0_189_211)">
<mask id="mask0_189_211" style="mask-type:luminance" maskUnits="userSpaceOnUse" x="0" y="0" width="51" height="51">
<path d="M51 0H0V51H51V0Z" fill="white"/>
</mask>
<g mask="url(#mask0_189_211)">
<path d="M44.9579 12.7595C44.3377 12.7589 43.7212 12.8538 43.13 13.0408C43.1861 12.5951 43.2145 12.1463 43.215 11.6973C43.1046 5.12764 37.6895 -0.108653 31.1197 0.00171307C26.3257 0.0822306 22.0485 3.0327 20.2707 7.4857C16.8324 5.35368 12.3169 6.41273 10.1849 9.85099C9.49089 10.9703 9.11145 12.256 9.08655 13.5727C8.16095 13.0383 7.11061 12.7577 6.04179 12.7595C2.7565 12.7595 0.0932617 15.4227 0.0932617 18.708C0.0932617 21.9933 2.7565 24.6565 6.04179 24.6565C6.51108 24.6565 6.89158 24.2761 6.89158 23.8067C6.89158 23.3374 6.51108 22.957 6.04179 22.957C3.69541 22.9188 1.82428 20.9859 1.86242 18.6395C1.90055 16.2931 3.83351 14.422 6.17988 14.4601C7.60816 14.4834 8.92913 15.2227 9.69591 16.4279C9.95295 16.8207 10.4796 16.9306 10.8723 16.6736C11.2117 16.4515 11.3468 16.0205 11.1949 15.6444C10.9273 14.999 10.7877 14.3078 10.7836 13.6092C10.8177 10.5295 13.3381 8.05867 16.4177 8.08555C17.79 8.09096 19.1137 8.59333 20.144 9.4996C20.4978 9.80807 21.0347 9.77135 21.343 9.41758C21.4266 9.32178 21.4875 9.20831 21.5215 9.08574C23.0764 3.67514 28.7231 0.549509 34.1336 2.10441C38.4295 3.33894 41.42 7.22821 41.5095 11.6972C41.5058 12.5879 41.3814 13.4742 41.1398 14.3315C41.0142 14.7837 41.2788 15.2521 41.7309 15.3778C41.9756 15.4458 42.2378 15.4008 42.4459 15.2552C43.181 14.7369 44.0585 14.4588 44.9579 14.4589C47.3045 14.4589 49.2068 16.3613 49.2068 18.7079C49.2068 21.0545 47.3045 22.9569 44.9579 22.9569C44.4886 22.9569 44.1081 23.3373 44.1081 23.8066C44.1081 24.2759 44.4886 24.6565 44.9579 24.6565C48.2432 24.6565 50.9065 21.9932 50.9065 18.7079C50.9065 15.4227 48.2432 12.7595 44.9579 12.7595Z" fill="#00A51A"/>
<path d="M39.9442 32.3046H11.0514C9.64333 32.3046 8.50195 33.446 8.50195 34.8539V38.2531C8.50195 39.6611 9.64333 40.8025 11.0514 40.8025H39.9442C41.3522 40.8025 42.4935 39.6611 42.4935 38.2531V34.8539C42.4935 33.446 41.3522 32.3046 39.9442 32.3046ZM40.794 38.2531C40.794 38.7224 40.4135 39.1029 39.9442 39.1029H11.0514C10.5821 39.1029 10.2015 38.7224 10.2015 38.2531V34.8539C10.2015 34.3846 10.5821 34.0042 11.0514 34.0042H39.9442C40.4135 34.0042 40.794 34.3846 40.794 34.8539V38.2531Z" fill="#00A51A"/>
<path d="M37.587 34.9069C36.6814 34.9126 35.9502 35.6481 35.9502 36.5537C35.9544 37.4655 36.6955 38.202 37.6074 38.2005C38.5169 38.1949 39.2496 37.453 39.244 36.5435C39.2383 35.634 38.4965 34.9013 37.587 34.9069ZM37.6074 36.6073C37.5819 36.6073 37.5649 36.5792 37.5649 36.5538L37.6074 36.5011V36.6073Z" fill="#00A51A"/>
<path d="M28.727 35.7037H12.581C12.1117 35.7037 11.7312 36.0842 11.7312 36.5535C11.7312 37.0229 12.1117 37.4033 12.581 37.4033H28.727C29.1963 37.4033 29.5768 37.0229 29.5768 36.5535C29.5768 36.0842 29.1964 35.7037 28.727 35.7037Z" fill="#00A51A"/>
<path d="M33.9745 35.7037H31.7141C31.2448 35.7037 30.8643 36.0842 30.8643 36.5535C30.8643 37.0229 31.2448 37.4033 31.7141 37.4033H33.9745C34.4438 37.4033 34.8243 37.0229 34.8243 36.5535C34.8243 36.0842 34.4439 35.7037 33.9745 35.7037Z" fill="#00A51A"/>
<path d="M39.9442 42.502H11.0514C9.64333 42.502 8.50195 43.6434 8.50195 45.0515V48.4506C8.50195 49.8586 9.64333 51 11.0514 51H39.9442C41.3522 51 42.4935 49.8586 42.4935 48.4506V45.0515C42.4935 43.6434 41.3522 42.502 39.9442 42.502ZM40.794 48.4506C40.794 48.9199 40.4135 49.3004 39.9442 49.3004H11.0514C10.5821 49.3004 10.2015 48.9199 10.2015 48.4506V45.0515C10.2015 44.5822 10.5821 44.2016 11.0514 44.2016H39.9442C40.4135 44.2016 40.794 44.5822 40.794 45.0515V48.4506Z" fill="#00A51A"/>
<path d="M37.587 45.104C36.6814 45.1096 35.9502 45.8453 35.9502 46.7508C35.9544 47.6626 36.6955 48.3991 37.6074 48.3976C38.5169 48.392 39.2496 47.6501 39.244 46.7406C39.2383 45.8311 38.4965 45.0984 37.587 45.104ZM37.6074 46.8044C37.5819 46.8044 37.5649 46.7763 37.5649 46.7508L37.6074 46.6981V46.8044Z" fill="#00A51A"/>
<path d="M28.727 45.9013H12.581C12.1117 45.9013 11.7312 46.2817 11.7312 46.751C11.7312 47.2203 12.1117 47.6009 12.581 47.6009H28.727C29.1963 47.6009 29.5768 47.2203 29.5768 46.751C29.5768 46.2817 29.1964 45.9013 28.727 45.9013Z" fill="#00A51A"/>
<path d="M33.9745 45.9013H31.7141C31.2448 45.9013 30.8643 46.2817 30.8643 46.751C30.8643 47.2203 31.2448 47.6009 31.7141 47.6009H33.9745C34.4438 47.6009 34.8243 47.2203 34.8243 46.751C34.8243 46.2817 34.4439 45.9013 33.9745 45.9013Z" fill="#00A51A"/>
<path d="M39.9442 22.1071H11.0514C9.64333 22.1071 8.50195 23.2484 8.50195 24.6565V28.0556C8.50195 29.4635 9.64333 30.6049 11.0514 30.6049H39.9442C41.3522 30.6049 42.4935 29.4635 42.4935 28.0556V24.6565C42.4935 23.2484 41.3522 22.1071 39.9442 22.1071ZM40.794 28.0556C40.794 28.5249 40.4135 28.9054 39.9442 28.9054H11.0514C10.5821 28.9054 10.2015 28.5249 10.2015 28.0556V24.6565C10.2015 24.1871 10.5821 23.8066 11.0514 23.8066H39.9442C40.4135 23.8066 40.794 24.1871 40.794 24.6565V28.0556Z" fill="#00A51A"/>
<path d="M38.977 26.1242C38.8132 25.2215 37.9487 24.6223 37.0459 24.7862C36.6181 24.8637 36.2378 25.1059 35.9866 25.4606C35.7343 25.8166 35.6357 26.259 35.7129 26.6885C35.856 27.4796 36.5441 28.055 37.348 28.0558C37.4408 28.0557 37.5334 28.048 37.625 28.0328C38.0614 27.9608 38.4503 27.7157 38.7034 27.353C38.9565 26.9969 39.0552 26.5539 38.977 26.1242ZM37.3046 26.4234L37.3429 26.3562L37.3471 26.4625C37.3089 26.4625 37.3063 26.4412 37.3046 26.4234Z" fill="#00A51A"/>
<path d="M28.557 25.5062H12.411C11.9417 25.5062 11.5613 25.8868 11.5613 26.356C11.5613 26.8253 11.9417 27.2058 12.411 27.2058H28.557C29.0263 27.2058 29.4069 26.8253 29.4069 26.356C29.4069 25.8868 29.0264 25.5062 28.557 25.5062Z" fill="#00A51A"/>
<path d="M33.4313 25.5062H31.1708C30.7015 25.5062 30.321 25.8868 30.321 26.356C30.321 26.8253 30.7015 27.2058 31.1708 27.2058H33.4313C33.9006 27.2058 34.281 26.8253 34.281 26.356C34.281 25.8868 33.9006 25.5062 33.4313 25.5062Z" fill="#00A51A"/>
<path d="M21.8497 13.8581L19.3002 11.3087C18.9684 10.977 18.4305 10.977 18.0986 11.3087L15.5493 13.8581C15.2233 14.1957 15.2327 14.7337 15.5702 15.0597C15.8995 15.3778 16.4216 15.3778 16.7508 15.0597L17.8496 13.961V19.5576C17.8496 20.0269 18.2302 20.4075 18.6995 20.4075C19.1688 20.4075 19.5492 20.0269 19.5492 19.5576V13.961L20.648 15.0597C20.9856 15.3858 21.5236 15.3764 21.8497 15.0388C22.1676 14.7095 22.1676 14.1874 21.8497 13.8581Z" fill="#00A51A"/>
<path d="M35.4253 16.4077C35.096 16.0897 34.5739 16.0897 34.2445 16.4077L33.1457 17.5064V11.9098C33.1457 11.4405 32.7652 11.06 32.296 11.06C31.8267 11.06 31.4461 11.4405 31.4461 11.9098V17.5064L30.3474 16.4077C30.0098 16.0816 29.4719 16.0909 29.1458 16.4286C28.8277 16.7578 28.8277 17.2799 29.1458 17.6093L31.6952 20.1587C32.027 20.4904 32.5649 20.4904 32.8967 20.1587L35.4462 17.6093C35.7722 17.2718 35.7629 16.7337 35.4253 16.4077Z" fill="#00A51A"/>
</g>
</g>
<defs>
<clipPath id="clip0_189_211">
<rect width="51" height="51" fill="white"/>
</clipPath>
</defs>
</svg>
