<?xml version="1.0" encoding="utf-8"?>
<!-- Generator: Adobe Illustrator 27.5.0, SVG Export Plug-In . SVG Version: 6.00 Build 0)  -->
<svg version="1.1" xmlns="http://www.w3.org/2000/svg" xmlns:xlink="http://www.w3.org/1999/xlink" x="0px" y="0px"
	 viewBox="0 0 500 500" style="enable-background:new 0 0 500 500;" xml:space="preserve">
<g id="Background_Complete">
	<g>
		<rect y="382.398" style="fill:#EBEBEB;" width="500" height="0.25"/>
		<rect x="416.779" y="398.494" style="fill:#EBEBEB;" width="33.122" height="0.25"/>
		<rect x="322.527" y="401.208" style="fill:#EBEBEB;" width="8.693" height="0.25"/>
		<rect x="396.586" y="389.208" style="fill:#EBEBEB;" width="19.192" height="0.25"/>
		<rect x="52.459" y="390.888" style="fill:#EBEBEB;" width="43.193" height="0.25"/>
		<rect x="104.556" y="390.888" style="fill:#EBEBEB;" width="6.333" height="0.25"/>
		<rect x="131.471" y="395.111" style="fill:#EBEBEB;" width="93.676" height="0.25"/>
		<path style="fill:#EBEBEB;" d="M237.014,337.8H43.915c-3.147,0-5.708-2.561-5.708-5.708V60.66c0-3.147,2.561-5.708,5.708-5.708
			h193.099c3.146,0,5.707,2.561,5.707,5.708v271.432C242.721,335.239,240.16,337.8,237.014,337.8z M43.915,55.203
			c-3.01,0-5.458,2.448-5.458,5.458v271.432c0,3.01,2.448,5.458,5.458,5.458h193.099c3.009,0,5.457-2.448,5.457-5.458V60.66
			c0-3.009-2.448-5.458-5.457-5.458H43.915z"/>
		<path style="fill:#EBEBEB;" d="M453.31,337.8H260.212c-3.147,0-5.707-2.561-5.707-5.708V60.66c0-3.147,2.561-5.708,5.707-5.708
			H453.31c3.148,0,5.708,2.561,5.708,5.708v271.432C459.019,335.239,456.458,337.8,453.31,337.8z M260.212,55.203
			c-3.009,0-5.457,2.448-5.457,5.458v271.432c0,3.01,2.448,5.458,5.457,5.458H453.31c3.01,0,5.458-2.448,5.458-5.458V60.66
			c0-3.009-2.448-5.458-5.458-5.458H260.212z"/>
	</g>
	<g>
		<g>
			<rect x="316.801" y="138.614" style="fill:#E0E0E0;" width="130.438" height="6.702"/>
			<rect x="322.805" y="113.91" style="fill:#EBEBEB;" width="5.746" height="24.704"/>
			<rect x="350.591" y="113.91" style="fill:#EBEBEB;" width="5.747" height="24.704"/>
			
				<rect x="384.276" y="113.602" transform="matrix(0.9855 -0.1698 0.1698 0.9855 -15.7674 67.5832)" style="fill:#EBEBEB;" width="5.747" height="24.704"/>
			<rect x="329.925" y="117.166" style="fill:#EBEBEB;" width="5.747" height="21.448"/>
			<rect x="343.134" y="117.166" style="fill:#EBEBEB;" width="5.747" height="21.448"/>
			<rect x="376.473" y="117.166" style="fill:#EBEBEB;" width="5.747" height="21.448"/>
			
				<rect x="360.534" y="116.798" transform="matrix(0.9762 -0.2169 0.2169 0.9762 -19.0079 81.8563)" style="fill:#EBEBEB;" width="5.747" height="21.448"/>
			<rect x="337.767" y="112.684" style="fill:#EBEBEB;" width="2.873" height="25.93"/>
			<rect x="371.948" y="112.684" style="fill:#EBEBEB;" width="2.873" height="25.93"/>
			<rect x="406.723" y="119.062" style="fill:#EBEBEB;" width="28" height="19.331"/>
		</g>
		<g>
			
				<rect x="316.801" y="188.646" transform="matrix(-1 -1.224647e-16 1.224647e-16 -1 764.0399 383.9934)" style="fill:#E0E0E0;" width="130.438" height="6.702"/>
			
				<rect x="435.489" y="163.942" transform="matrix(-1 -1.224647e-16 1.224647e-16 -1 876.7242 352.5877)" style="fill:#EBEBEB;" width="5.747" height="24.704"/>
			
				<rect x="407.702" y="163.942" transform="matrix(-1 -1.224647e-16 1.224647e-16 -1 821.1509 352.5877)" style="fill:#EBEBEB;" width="5.747" height="24.704"/>
			
				<rect x="374.018" y="163.633" transform="matrix(-0.9855 -0.1698 0.1698 -0.9855 718.4167 413.4259)" style="fill:#EBEBEB;" width="5.746" height="24.704"/>
			
				<rect x="428.368" y="167.197" transform="matrix(-1 -1.224647e-16 1.224647e-16 -1 862.4832 355.8432)" style="fill:#EBEBEB;" width="5.746" height="21.448"/>
			
				<rect x="415.16" y="167.197" transform="matrix(-1 -1.224647e-16 1.224647e-16 -1 836.0665 355.8432)" style="fill:#EBEBEB;" width="5.747" height="21.448"/>
			
				<rect x="381.82" y="167.197" transform="matrix(-1 -1.224647e-16 1.224647e-16 -1 769.3875 355.8432)" style="fill:#EBEBEB;" width="5.747" height="21.448"/>
			
				<rect x="397.76" y="166.829" transform="matrix(-0.9762 -0.2169 0.2169 -0.9762 753.2187 437.7754)" style="fill:#EBEBEB;" width="5.747" height="21.449"/>
			
				<rect x="423.399" y="162.715" transform="matrix(-1 -1.224647e-16 1.224647e-16 -1 849.6718 351.3612)" style="fill:#EBEBEB;" width="2.873" height="25.93"/>
			
				<rect x="389.219" y="162.715" transform="matrix(-1 -1.224647e-16 1.224647e-16 -1 781.311 351.3612)" style="fill:#EBEBEB;" width="2.873" height="25.93"/>
			
				<rect x="329.317" y="169.093" transform="matrix(-1 -1.224647e-16 1.224647e-16 -1 686.6338 357.5175)" style="fill:#EBEBEB;" width="28" height="19.331"/>
		</g>
		<g>
			<polygon style="fill:#E0E0E0;" points="53,266 53,383 59,383 59,278 165,278 165,383 172,383 172,266 			"/>
			<polygon style="fill:#F5F5F5;" points="119,266 119,383 125,383 125,278 231,278 231,383 238,383 238,266 			"/>
		</g>
		<g>
			<g>
				<path style="fill:#E0E0E0;" d="M156.879,222.404c-1.338-2.203-3.541-0.287-3.541-0.287c0.315-4.222-3.57-7.11-3.57-7.11
					s4.514,0,5.143-4.307c0.63-4.307-1.574-2.303-3.641-2.333c-2.067-0.029-4.228,6.01-1.502,9.407
					c2.726,3.397,1.996,9.194-4.3,14.771c-1.536,1.36-2.58,3.171-3.286,5.131c0.475-5.123,0.743-12.341-0.764-17.16
					c-2.56-8.184,2.319-10.387,3.735-14.479c1.417-4.092-3.735-7.555-3.735-7.555s4.837-2.203,2.476-4.722
					c-2.361-2.518-7.24-2.176-7.24,1.116c0,3.291,3.305,4.55,3.305,4.55s3.777,3.935,3.777,5.981c0,2.046-3.777,6.453-3.777,6.453
					s1.731-3.772-1.731-3.932c-3.463-0.16-4.564,4.404-3.148,6.45c1.416,2.046,3.777,0.315,3.777,0.315s0.275,4.407,1.082,7.082
					c0.355,1.177,0.188,5.793-0.11,10.596c-0.698-1.734-1.684-3.323-3.066-4.548c-6.296-5.576-7.026-11.374-4.3-14.77
					c2.726-3.397,0.565-9.436-1.502-9.407c-2.067,0.029-4.271-1.974-3.641,2.333c0.63,4.307,5.143,4.307,5.143,4.307
					s-3.884,2.888-3.569,7.11c0,0-2.204-1.916-3.541,0.287c-2.388,3.934,3.148,6.374,4.078,4.438c0,0,11.74,8.31,8.907,20.272
					l0.658,0.971c-0.084,0.965-0.138,1.547-0.138,1.547l0.918-0.395l1.045,1.542c-0.054,2.99,0.267,5.2,0.267,5.2l2.807-4.143
					c-2.833-11.961,8.906-20.272,8.906-20.272C153.732,228.778,159.268,226.338,156.879,222.404z"/>
			</g>
			<polygon style="fill:#EBEBEB;" points="149.769,266 145.983,244.311 147.053,238 135.123,238 136.193,244.311 132.408,266 			"/>
		</g>
	</g>
</g>
<g id="Backgorund_Simple" style="display:none;">
	<g style="display:inline;">
		<path style="fill:#407BFF;" d="M335.807,85.648c35.62,8.359,57.79,41.877,54.234,77.832
			c-5.129,51.861-51.665,78.539-73.767,121.624c-9.583,18.681-16.386,38.756-26.41,57.244
			c-24.513,45.209-86.91,51.675-106.279-0.435c-5.987-16.108-2.642-36.045-16.11-48.824c-12.482-11.842-30.41-11.998-45.31-18.923
			c-15.06-7-26.942-20.937-32.076-36.655c-8.613-26.365,2.906-56.339,21.76-75.448c21.774-22.064,51.313-18.035,79.444-20.961
			c27.771-2.889,48.451-16.351,70.26-32.455C283.649,92.329,307.453,78.995,335.807,85.648z"/>
		<path style="opacity:0.9;fill:#FFFFFF;enable-background:new    ;" d="M335.807,85.648c35.62,8.359,57.79,41.877,54.234,77.832
			c-5.129,51.861-51.665,78.539-73.767,121.624c-9.583,18.681-16.386,38.756-26.41,57.244
			c-24.513,45.209-86.91,51.675-106.279-0.435c-5.987-16.108-2.642-36.045-16.11-48.824c-12.482-11.842-30.41-11.998-45.31-18.923
			c-15.06-7-26.942-20.937-32.076-36.655c-8.613-26.365,2.906-56.339,21.76-75.448c21.774-22.064,51.313-18.035,79.444-20.961
			c27.771-2.889,48.451-16.351,70.26-32.455C283.649,92.329,307.453,78.995,335.807,85.648z"/>
	</g>
</g>
<g id="Shadow_1_">
	<ellipse id="_x3C_Path_x3E__359_" style="fill:#F5F5F5;" cx="250" cy="416.238" rx="193.889" ry="11.323"/>
</g>
<g id="Files">
	<g>
		<g>
			
				<rect x="256.952" y="96.239" transform="matrix(0.8799 0.4752 -0.4752 0.8799 89.5726 -116.1227)" style="fill:#407BFF;" width="35.008" height="45.717"/>
			
				<rect x="256.952" y="96.239" transform="matrix(0.8799 0.4752 -0.4752 0.8799 89.5726 -116.1227)" style="opacity:0.6;fill:#FFFFFF;enable-background:new    ;" width="35.008" height="45.717"/>
		</g>
		<g>
			
				<rect x="269.371" y="104.544" transform="matrix(0.8799 0.4752 -0.4752 0.8799 84.1085 -121.1417)" style="fill:#407BFF;" width="24.557" height="2.471"/>
			
				<rect x="267.315" y="108.349" transform="matrix(0.8799 0.4752 -0.4752 0.8799 85.6699 -119.7078)" style="fill:#407BFF;" width="24.557" height="2.471"/>
			
				<rect x="265.26" y="112.154" transform="matrix(0.8799 0.4752 -0.4752 0.8799 87.2312 -118.274)" style="fill:#407BFF;" width="24.557" height="2.471"/>
			
				<rect x="263.205" y="115.959" transform="matrix(0.8799 0.4752 -0.4752 0.8799 88.7926 -116.8402)" style="fill:#407BFF;" width="24.557" height="2.471"/>
			
				<rect x="261.15" y="119.764" transform="matrix(0.8799 0.4752 -0.4752 0.8799 90.354 -115.4063)" style="fill:#407BFF;" width="24.557" height="2.471"/>
			
				<rect x="259.095" y="123.569" transform="matrix(0.8799 0.4752 -0.4752 0.8799 91.9153 -113.9725)" style="fill:#407BFF;" width="24.557" height="2.471"/>
			
				<rect x="257.039" y="127.374" transform="matrix(0.8799 0.4752 -0.4752 0.8799 93.4767 -112.5386)" style="fill:#407BFF;" width="24.557" height="2.471"/>
			
				<rect x="255.504" y="129.122" transform="matrix(0.8799 0.4752 -0.4752 0.8799 93.6037 -109.5428)" style="fill:#407BFF;" width="15.903" height="2.471"/>
		</g>
	</g>
	<g>
		<path style="fill:#407BFF;" d="M218.888,107.585c-12.148-1.246-21.018-12.143-19.772-24.291
			c1.246-12.148,12.143-21.018,24.291-19.772c12.148,1.246,21.018,12.143,19.772,24.291
			C241.933,99.961,231.036,108.831,218.888,107.585z"/>
		
			<ellipse transform="matrix(0.9971 -0.0766 0.0766 0.9971 -5.907 17.2024)" style="opacity:0.3;fill:#FFFFFF;" cx="221.147" cy="85.554" rx="20.207" ry="20.207"/>
		<path style="fill:#FFFFFF;" d="M227.999,79.025c-2.331-1.659-5.582-7.3-5.579-7.326l-2.096,20.44
			c0.047-0.463-1.776-0.93-2.987-1.055c-2.931-0.301-5.395,1.074-5.599,3.06c-0.204,1.986,2.046,3.844,4.977,4.144
			c2.931,0.301,5.367-1.076,5.571-3.063c0.031-0.299-0.205-0.614-0.177-0.892l1.615-15.749c0,0,1.623,2.035,4.338,3.289
			c2.209,1.02,3.041,4.079,3.041,4.079S231.6,81.588,227.999,79.025z"/>
		
			<ellipse transform="matrix(0.8877 -0.4604 0.4604 0.8877 -12.678 109.8185)" style="opacity:0.5;fill:#FFFFFF;" cx="218.82" cy="80.903" rx="15.943" ry="13.206"/>
	</g>
	<g>
		
			<rect x="131.563" y="58.687" transform="matrix(0.9967 -0.081 0.081 0.9967 -5.6906 12.8415)" style="fill:#407BFF;" width="47.75" height="35.75"/>
		<g>
			
				<rect x="133.995" y="60.995" transform="matrix(0.9967 -0.081 0.081 0.9967 -5.685 12.8459)" style="fill:#407BFF;" width="43" height="31"/>
			
				<rect x="133.995" y="60.995" transform="matrix(0.9967 -0.081 0.081 0.9967 -5.685 12.8459)" style="opacity:0.5;fill:#FFFFFF;" width="43" height="31"/>
			<polygon style="fill:#407BFF;" points="177.838,85.999 178.18,90.203 135.321,93.686 134.1,78.665 142.313,70.206 
				156.483,81.945 163.016,76.313 			"/>
			<polygon style="opacity:0.3;fill:#FFFFFF;" points="177.838,85.999 178.18,90.203 135.321,93.686 134.1,78.665 142.313,70.206 
				156.483,81.945 163.016,76.313 			"/>
			<g>
				<path style="fill:#407BFF;" d="M169.195,68.019c0.155,1.906-1.264,3.576-3.17,3.731c-1.906,0.155-3.576-1.264-3.731-3.17
					c-0.155-1.906,1.264-3.576,3.17-3.731C167.369,64.693,169.04,66.113,169.195,68.019z"/>
				<path style="opacity:0.3;fill:#FFFFFF;" d="M169.195,68.019c0.155,1.906-1.264,3.576-3.17,3.731
					c-1.906,0.155-3.576-1.264-3.731-3.17c-0.155-1.906,1.264-3.576,3.17-3.731C167.369,64.693,169.04,66.113,169.195,68.019z"/>
			</g>
		</g>
	</g>
	<g>
		<path style="fill:#407BFF;" d="M86.388,98.871l-1.836-1.129c-0.672-0.413-1.498-0.484-2.202-0.19l-8.174,3.419
			c-0.704,0.295-1.193,0.916-1.302,1.656l-0.299,2.021c-0.109,0.74-0.598,1.361-1.302,1.655l-4.878,2.04
			c-1.163,0.486-1.653,1.808-1.095,2.953l12.997,26.639c0.558,1.144,1.954,1.678,3.117,1.191l38.661-16.17
			c1.163-0.486,1.653-1.809,1.095-2.953l-12.997-26.639c-0.558-1.144-1.954-1.678-3.117-1.191L88.59,99.061
			C87.886,99.355,87.06,99.284,86.388,98.871z"/>
		<path style="fill:#407BFF;" d="M110.008,93.159l-35.419,14.814c-1.477,0.618-2.284,2.351-1.803,3.871l7.758,24.53
			c0.481,1.52,2.068,2.252,3.544,1.634l35.419-14.814c1.477-0.618,2.284-2.351,1.804-3.871l-7.758-24.531
			C113.071,93.273,111.484,92.541,110.008,93.159z"/>
		<path style="opacity:0.5;fill:#FFFFFF;" d="M110.008,93.159l-35.419,14.814c-1.477,0.618-2.284,2.351-1.803,3.871l7.758,24.53
			c0.481,1.52,2.068,2.252,3.544,1.634l35.419-14.814c1.477-0.618,2.284-2.351,1.804-3.871l-7.758-24.531
			C113.071,93.273,111.484,92.541,110.008,93.159z"/>
	</g>
</g>
<g id="Cloud">
	<g>
		<path style="fill:#407BFF;" d="M238.475,152.033c0.435-2.026,0.669-4.127,0.669-6.283c0-16.47-13.352-29.822-29.822-29.822
			c-1.883,0-3.725,0.179-5.511,0.513c-0.764-0.142-1.535-0.01-2.318-0.093C195.951,104.202,183.721,96,169.5,96
			c-1.874,0-9.131,0-11,0c-19.424,0-35.17,15.496-35.17,34.921c0,0.26,0.014,0.391,0.02,0.649
			C109.498,134.111,99,145.951,99,160.536C99,176.966,112.32,190,128.75,190c2.346,0,6.181,0,11,0c25.33,0,77.972,0,86,0
			c5.311,0,9.236,0,11,0c10.631,0,19.25-8.395,19.25-19.027C256,160.924,248.297,152.907,238.475,152.033z"/>
		<path style="opacity:0.5;fill:#FFFFFF;enable-background:new    ;" d="M238.475,152.033c0.435-2.026,0.669-4.127,0.669-6.283
			c0-16.47-13.352-29.822-29.822-29.822c-1.883,0-3.725,0.179-5.511,0.513c-0.764-0.142-1.535-0.01-2.318-0.093
			C195.951,104.202,183.721,96,169.5,96c-1.874,0-9.131,0-11,0c-19.424,0-35.17,15.496-35.17,34.921c0,0.26,0.014,0.391,0.02,0.649
			C109.498,134.111,99,145.951,99,160.536C99,176.966,112.32,190,128.75,190c2.346,0,6.181,0,11,0c25.33,0,77.972,0,86,0
			c5.311,0,9.236,0,11,0c10.631,0,19.25-8.395,19.25-19.027C256,160.924,248.297,152.907,238.475,152.033z"/>
		<path style="opacity:0.4;fill:#FFFFFF;enable-background:new    ;" d="M238.475,152.033c0.435-2.026,0.669-4.127,0.669-6.283
			c0-16.47-13.352-29.822-29.822-29.822c-1.883,0-3.725,0.179-5.511,0.513c-0.764-0.142-1.535-0.01-2.318-0.093
			C195.951,104.202,183.721,96,169.5,96c-1.874,0,1.869,0,0,0c-19.424,0-35.17,15.496-35.17,34.921c0,0.26,0.014,0.391,0.02,0.649
			C120.498,134.111,110,145.951,110,160.536c0,16.43,13.32,29.464,29.75,29.464c2.346,0,6.181,0,11,0c25.33,0,66.972,0,75,0
			c5.311,0,9.236,0,11,0c10.631,0,19.25-8.395,19.25-19.027C256,160.924,248.297,152.907,238.475,152.033z"/>
	</g>
	<g>
		<g>
			<path style="fill:#407BFF;" d="M267.667,239H234c-27.57,0-50-22.43-50-50v-10h-10v10c0,33.084,26.916,60,60,60h33.667V239z"/>
		</g>
		<g>
			<polygon style="fill:#407BFF;" points="178.875,172.338 170.213,181 187.537,181 			"/>
		</g>
	</g>
</g>
<g id="Stuff">
	<g>
		<g>
			<g>
				<path style="fill:#407BFF;" d="M104.278,367.333L98.333,349c0,0,8.833-8.333,21.667-5.833l5,17.167L104.278,367.333z"/>
				<path style="opacity:0.7;fill:#FFFFFF;enable-background:new    ;" d="M104.278,367.333L98.333,349
					c0,0,8.833-8.333,21.667-5.833l5,17.167L104.278,367.333z"/>
			</g>
			<g style="opacity:0.2;enable-background:new    ;">
				<path d="M101.143,353.333c0,0,0.831-0.994,2.37-2.177c0.762-0.599,1.712-1.221,2.773-1.816c0.536-0.285,1.096-0.577,1.68-0.837
					c0.597-0.23,1.185-0.516,1.811-0.702c0.621-0.2,1.242-0.396,1.873-0.523c0.313-0.074,0.623-0.144,0.932-0.205
					c0.313-0.04,0.621-0.079,0.925-0.118c0.304-0.035,0.6-0.085,0.894-0.104c0.294-0.005,0.582-0.01,0.863-0.015
					c0.559-0.02,1.087-0.017,1.572,0.052c0.485,0.047,0.928,0.093,1.316,0.157c0.384,0.09,0.718,0.168,0.994,0.233
					c0.548,0.133,0.854,0.221,0.854,0.221s-0.325-0.002-0.883-0.029c-0.277-0.015-0.614-0.033-1-0.054
					c-0.385,0.014-0.82,0.029-1.293,0.046c-0.472-0.005-0.979,0.056-1.514,0.119c-0.536,0.045-1.096,0.125-1.671,0.245
					c-0.288,0.053-0.58,0.106-0.876,0.161c-0.291,0.076-0.586,0.152-0.884,0.23c-0.6,0.131-1.192,0.332-1.784,0.532
					c-0.603,0.166-1.172,0.432-1.751,0.642c-0.564,0.246-1.127,0.478-1.658,0.731c-0.522,0.271-1.047,0.499-1.518,0.767
					c-0.479,0.253-0.927,0.504-1.337,0.742c-0.818,0.48-1.503,0.89-1.961,1.209C101.408,353.154,101.143,353.333,101.143,353.333z"
					/>
				<path d="M101.667,355.016c0,0,0.233-0.2,0.67-0.51c0.439-0.305,1.064-0.751,1.854-1.22c0.789-0.47,1.728-0.992,2.772-1.475
					c1.036-0.502,2.183-0.945,3.342-1.359c0.59-0.176,1.173-0.375,1.76-0.527c0.589-0.147,1.164-0.304,1.736-0.398
					c0.57-0.099,1.116-0.217,1.647-0.255c0.529-0.05,1.024-0.116,1.488-0.119c0.926-0.027,1.694,0.014,2.228,0.08
					c0.534,0.055,0.835,0.1,0.835,0.1s-0.307,0.043-0.836,0.095c-0.264,0.03-0.585,0.04-0.949,0.099
					c-0.364,0.064-0.773,0.136-1.219,0.197c-0.445,0.065-0.92,0.194-1.426,0.284c-0.507,0.085-1.027,0.258-1.575,0.377
					c-0.549,0.114-1.096,0.325-1.667,0.468c-0.568,0.158-1.133,0.365-1.704,0.544c-2.275,0.764-4.502,1.686-6.174,2.396
					c-0.831,0.364-1.538,0.649-2.018,0.879C101.946,354.891,101.667,355.016,101.667,355.016z"/>
				<path d="M103.083,358.417c0,0,0.212-0.213,0.615-0.546c0.406-0.328,0.985-0.804,1.726-1.312
					c0.742-0.504,1.626-1.073,2.624-1.592c0.986-0.544,2.093-1.019,3.21-1.466c1.138-0.397,2.292-0.759,3.407-0.968
					c0.56-0.094,1.092-0.22,1.614-0.246c0.519-0.04,1.005-0.101,1.459-0.091c0.454,0.004,0.869,0.024,1.234,0.042
					c0.365,0.022,0.682,0.091,0.941,0.123c0.519,0.081,0.809,0.141,0.809,0.141s-0.302,0.028-0.819,0.054
					c-0.259,0.018-0.571,0.008-0.928,0.055c-0.357,0.053-0.756,0.111-1.191,0.158c-0.434,0.052-0.897,0.177-1.39,0.256
					c-0.494,0.073-0.998,0.254-1.53,0.366c-0.533,0.115-1.06,0.331-1.614,0.476c-0.548,0.168-1.092,0.382-1.643,0.571
					c-0.542,0.216-1.092,0.413-1.62,0.643c-0.524,0.237-1.058,0.434-1.552,0.675c-1.006,0.444-1.924,0.909-2.721,1.296
					c-0.786,0.404-1.457,0.725-1.909,0.981C103.346,358.276,103.083,358.417,103.083,358.417z"/>
				<path d="M103.917,360.75c0,0,0.809-0.853,2.253-1.86c0.719-0.505,1.599-1.04,2.584-1.535c0.492-0.249,1.014-0.481,1.547-0.709
					c0.548-0.193,1.091-0.425,1.659-0.59c0.57-0.156,1.134-0.335,1.709-0.437c0.569-0.13,1.135-0.219,1.689-0.266
					c0.551-0.073,1.086-0.106,1.596-0.09c0.508-0.002,0.987-0.01,1.428,0.06c0.441,0.046,0.842,0.103,1.194,0.155
					c0.348,0.087,0.651,0.162,0.9,0.224c0.496,0.128,0.772,0.214,0.772,0.214s-0.296,0-0.802-0.022
					c-0.251-0.013-0.556-0.028-0.906-0.046c-0.352,0.02-0.746,0.041-1.173,0.048c-0.427-0.007-0.887,0.068-1.372,0.111
					c-0.486,0.033-0.992,0.124-1.515,0.217c-0.526,0.069-1.057,0.212-1.599,0.336c-0.547,0.106-1.084,0.292-1.627,0.45
					c-1.087,0.321-2.147,0.732-3.133,1.142c-0.984,0.417-1.89,0.844-2.661,1.229c-0.767,0.391-1.415,0.715-1.85,0.974
					C104.169,360.606,103.917,360.75,103.917,360.75z"/>
				<path d="M105.083,363.867c0,0,0.2-0.212,0.585-0.545c0.387-0.329,0.941-0.802,1.651-1.312c0.713-0.503,1.563-1.071,2.527-1.59
					c0.477-0.269,0.982-0.526,1.504-0.768c0.518-0.252,1.069-0.456,1.607-0.688c0.555-0.192,1.111-0.382,1.664-0.55
					c0.561-0.145,1.11-0.297,1.655-0.39c0.547-0.085,1.068-0.197,1.577-0.218c0.507-0.028,0.982-0.073,1.424-0.056
					c0.442,0.02,0.845,0.054,1.2,0.084c0.355,0.03,0.66,0.119,0.91,0.16c0.5,0.103,0.779,0.175,0.779,0.175
					s-0.295,0.015-0.798,0.018c-0.252,0.008-0.554-0.02-0.902,0.019c-0.348,0.04-0.737,0.085-1.159,0.117
					c-0.422,0.045-0.873,0.154-1.352,0.222c-0.479,0.068-0.97,0.235-1.487,0.338c-0.516,0.113-1.03,0.317-1.566,0.455
					c-0.528,0.172-1.06,0.368-1.591,0.561c-0.524,0.214-1.06,0.399-1.568,0.634c-0.508,0.232-1.022,0.431-1.5,0.671
					c-0.972,0.443-1.857,0.908-2.626,1.294c-0.757,0.406-1.405,0.727-1.839,0.984C105.337,363.726,105.083,363.867,105.083,363.867z
					"/>
			</g>
			<path style="fill:#407BFF;" d="M101.681,367.464l12.34-9.348c0.305-0.231,0.693-0.322,1.068-0.25l14.073,2.676
				c1.248,0.237,1.508,1.91,0.391,2.515l-11.616,6.29c-0.187,0.101-0.396,0.157-0.608,0.163l-14.797,0.383
				C101.219,369.925,100.634,368.257,101.681,367.464z"/>
		</g>
		<g>
			<path style="fill:#407BFF;" d="M123.889,373c0,0,18.945-45.833,22.278-48.667c3.333-2.833,24.5,9.466,24.5,9.466l-18.833,48.367
				L123.889,373z"/>
			<path style="opacity:0.2;enable-background:new    ;" d="M129.333,372.667c0,0,18.133-43.775,20.833-45.667
				s18.167,6.167,18.167,6.167s-16.111-9.833-21.056-8.167c-4.944,1.667-21.778,46.667-21.778,46.667L129.333,372.667z"/>
		</g>
		<g>
			<rect x="87.056" y="368.5" style="fill:#263238;" width="80.444" height="47.5"/>
			<rect x="87.056" y="368.5" style="opacity:0.2;fill:#FFFFFF;enable-background:new    ;" width="80.444" height="47.5"/>
			<rect x="117.556" y="368.5" style="opacity:0.4;fill:#FFFFFF;enable-background:new    ;" width="49.944" height="47.5"/>
			<polygon style="fill:#263238;" points="117.556,369 136.5,353.75 178.75,356.625 167.5,369 			"/>
			<polygon style="fill:#263238;" points="117.556,369 103.25,352.5 73,355.75 87.056,368.5 			"/>
			<polygon style="opacity:0.1;fill:#FFFFFF;enable-background:new    ;" points="117.556,369 103.25,352.5 73,355.75 87.056,368.5 
							"/>
			<polygon style="opacity:0.4;fill:#FFFFFF;enable-background:new    ;" points="117.556,369 136.5,353.75 178.75,356.625 
				167.5,369 			"/>
		</g>
		<g>
			<path style="fill:#407BFF;" d="M152.274,390.364c-7.055,0-12.774,5.719-12.774,12.774c0,7.055,5.719,12.774,12.774,12.774
				c7.055,0,12.774-5.719,12.774-12.774C165.047,396.083,159.329,390.364,152.274,390.364z M152.274,408.231
				c-2.813,0-5.093-2.281-5.093-5.094c0-2.813,2.28-5.093,5.093-5.093c2.813,0,5.094,2.28,5.094,5.093
				C157.367,405.951,155.087,408.231,152.274,408.231z"/>
			<path style="opacity:0.7;fill:#FFFFFF;enable-background:new    ;" d="M163.79,397.59c-0.23-0.47-0.49-0.93-0.78-1.37
				c-0.37-0.59-0.8-1.15-1.28-1.67c-2.13-2.35-5.12-3.9-8.47-4.14c-0.33-0.04-0.66-0.05-0.99-0.05c-7.05,0-12.77,5.72-12.77,12.78
				c0,1.07,0.13,2.11,0.38,3.1c0.12,0.49,0.27,0.97,0.46,1.44c0.26,0.71,0.59,1.39,0.98,2.03c2.05,3.42,5.66,5.79,9.84,6.15
				c0.37,0.03,0.74,0.05,1.11,0.05c7.06,0,12.78-5.72,12.78-12.77C165.05,401.15,164.6,399.27,163.79,397.59z M152.27,408.23
				c-0.16,0-0.32-0.01-0.48-0.03c-1.92-0.17-3.53-1.42-4.23-3.13c-0.12-0.29-0.21-0.59-0.28-0.9c-0.03-0.19-0.06-0.38-0.07-0.58
				c-0.02-0.15-0.03-0.3-0.03-0.45c0-2.82,2.28-5.1,5.09-5.1c0.12,0,0.24,0,0.36,0.02c1.09,0.07,2.08,0.48,2.87,1.12
				c0.2,0.17,0.39,0.35,0.56,0.55c0.15,0.16,0.28,0.33,0.4,0.51c0.58,0.82,0.91,1.82,0.91,2.9
				C157.37,405.95,155.09,408.23,152.27,408.23z"/>
			<path style="opacity:0.2;fill:#FFFFFF;" d="M151.79,408.2l-0.63,7.66c-4.18-0.36-7.79-2.73-9.84-6.15l6.24-4.64
				C148.26,406.78,149.87,408.03,151.79,408.2z"/>
			<path style="opacity:0.2;fill:#FFFFFF;" d="M161.73,394.55l-6.23,4.63c-0.79-0.64-1.78-1.05-2.87-1.12l0.63-7.65
				C156.61,390.65,159.6,392.2,161.73,394.55z"/>
			<path style="opacity:0.2;fill:#FFFFFF;" d="M147.28,404.17l-6.94,3.51c-0.19-0.47-0.34-0.95-0.46-1.44l7.33-2.65
				C147.22,403.79,147.25,403.98,147.28,404.17z"/>
			<path style="opacity:0.2;fill:#FFFFFF;" d="M163.79,397.59l-7.33,2.65c-0.12-0.18-0.25-0.35-0.4-0.51l6.95-3.51
				C163.3,396.66,163.56,397.12,163.79,397.59z"/>
		</g>
		<g>
			<path style="fill:#407BFF;" d="M161.605,393.911c-7.055,0-10.833,4.925-8.439,11c2.394,6.075,10.053,11,17.108,11
				c7.055,0,10.833-4.925,8.439-11C176.319,398.836,168.66,393.911,161.605,393.911z M167.668,409.298
				c-2.813,0-5.867-1.964-6.822-4.386c-0.954-2.423,0.552-4.386,3.365-4.386c2.813,0,5.868,1.964,6.822,4.386
				C171.988,407.334,170.481,409.298,167.668,409.298z"/>
			<path style="opacity:0.1;fill:#FFFFFF;enable-background:new    ;" d="M175.573,400.134c-0.389-0.405-0.805-0.801-1.245-1.18
				c-0.57-0.508-1.19-0.99-1.847-1.438c-2.927-2.024-6.444-3.358-9.875-3.565c-0.344-0.034-0.677-0.043-1.007-0.043
				c-7.05,0-10.829,4.926-8.434,11.006c0.363,0.921,0.846,1.817,1.432,2.669c0.286,0.422,0.599,0.835,0.949,1.24
				c0.501,0.611,1.062,1.197,1.669,1.748c3.21,2.945,7.624,4.986,11.927,5.296c0.38,0.026,0.757,0.043,1.127,0.043
				c7.06,0,10.839-4.926,8.447-10.997C178.041,403.199,176.953,401.581,175.573,400.134z M167.663,409.297
				c-0.16,0-0.323-0.009-0.49-0.026c-1.978-0.146-4.012-1.223-5.292-2.695c-0.219-0.25-0.41-0.508-0.585-0.775
				c-0.094-0.164-0.189-0.327-0.267-0.5c-0.071-0.129-0.132-0.258-0.183-0.387c-0.957-2.428,0.55-4.392,3.36-4.392
				c0.12,0,0.24,0,0.367,0.017c1.114,0.06,2.243,0.413,3.25,0.965c0.258,0.146,0.509,0.301,0.747,0.474
				c0.204,0.138,0.392,0.284,0.573,0.439c0.858,0.706,1.528,1.567,1.894,2.497C171.99,407.333,170.484,409.297,167.663,409.297z"/>
			<path style="opacity:0.2;fill:#FFFFFF;" d="M167.173,409.271l1.969,6.596c-4.302-0.31-8.716-2.351-11.927-5.296l4.666-3.996
				C163.161,408.048,165.196,409.124,167.173,409.271z"/>
			<path style="opacity:0.2;fill:#FFFFFF;" d="M172.482,397.516l-4.659,3.987c-1.007-0.551-2.136-0.904-3.25-0.965l-1.966-6.588
				C166.038,394.157,169.554,395.492,172.482,397.516z"/>
			<path style="opacity:0.2;fill:#FFFFFF;" d="M161.296,405.8l-5.749,3.023c-0.35-0.405-0.662-0.818-0.949-1.24l6.431-2.282
				C161.107,405.473,161.201,405.637,161.296,405.8z"/>
			<path style="opacity:0.2;fill:#FFFFFF;" d="M175.573,400.134l-6.431,2.282c-0.181-0.155-0.369-0.301-0.573-0.439l5.759-3.023
				C174.768,399.333,175.184,399.729,175.573,400.134z"/>
		</g>
	</g>
</g>
<g id="Chair">
	<g>
		<polygon style="fill:#407BFF;" points="372.403,330 372.763,345.57 374.403,416 379.813,416 381.443,345.57 381.803,330 		"/>
		<polygon style="opacity:0.4;fill:#FFFFFF;enable-background:new    ;" points="372.403,330 372.763,345.57 374.403,416 
			379.813,416 381.443,345.57 381.803,330 		"/>
		<polygon style="opacity:0.2;enable-background:new    ;" points="372.403,330 372.763,346 381.443,346 381.803,330 		"/>
		<g>
			<g>
				<polygon style="fill:#407BFF;" points="343.025,415.75 348.022,331.1 356.192,331.1 349.195,415.75 				"/>
				<polygon style="opacity:0.5;fill:#FFFFFF;enable-background:new    ;" points="349.21,415.75 343.034,415.75 347.569,338.7 
					348.019,331 356.189,331 355.559,338.7 				"/>
				<polygon style="opacity:0.2;enable-background:new    ;" points="356.189,331 355.559,339 347.569,339 348.019,331 				"/>
			</g>
			<g>
				<polygon style="fill:#407BFF;" points="405.016,415.75 398.019,331.1 406.189,331.1 411.186,415.75 				"/>
				<polygon style="opacity:0.5;fill:#FFFFFF;enable-background:new    ;" points="405.001,415.75 398.652,338.7 398.022,331 
					406.192,331 406.642,338.7 411.177,415.75 				"/>
				<polygon style="opacity:0.2;enable-background:new    ;" points="398.022,331 398.652,339 406.642,339 406.192,331 				"/>
			</g>
		</g>
		<path style="fill:#407BFF;" d="M348.645,322.333h56.921c2.761,0,5,2.239,5,5v6.689h-66.921v-6.689
			C343.645,324.572,345.884,322.333,348.645,322.333z"/>
		<g>
			<path style="fill:#407BFF;" d="M342.45,328.178h69.311c1.111,0,2.011,0.9,2.011,2.011v1.822c0,1.111-0.9,2.011-2.011,2.011
				H342.45c-1.111,0-2.011-0.901-2.011-2.011v-1.822C340.439,329.078,341.339,328.178,342.45,328.178z"/>
			<path style="opacity:0.6;fill:#FFFFFF;enable-background:new    ;" d="M342.45,328.178h69.311c1.111,0,2.011,0.9,2.011,2.011
				v1.822c0,1.111-0.9,2.011-2.011,2.011H342.45c-1.111,0-2.011-0.901-2.011-2.011v-1.822
				C340.439,329.078,341.339,328.178,342.45,328.178z"/>
		</g>
	</g>
</g>
<g id="Character">
	<g id="_x3C_Group_x3E__12_">
		<path style="fill:#263238;" d="M353.09,227.5c0,0-0.28,0.76-0.79,2.01c-0.52,1.3-1.29,3.13-2.24,5.19
			c-2.3,5.01-5.64,11.36-9.13,14.79c-1.03,1.01-2.07,1.77-3.1,2.16c-3.72,1.43-13.05,1.69-21.38,1.61c-8.2-0.07-15.45-0.5-15.45-0.5
			v-6.31l27.39-7.3c0,0,14.44-26.06,22.98-29.92L353.09,227.5z"/>
		<path style="opacity:0.2;enable-background:new    ;" d="M352.3,229.51c-0.52,1.3-1.29,3.13-2.24,5.19
			c-2.3,5.01-5.64,11.36-9.13,14.79c-3.55-13.08,9.58-25.53,9.58-25.53L352.3,229.51z"/>
		<polygon style="fill:#EBB376;" points="348.759,408.779 340.794,407.686 339.69,388.75 347.644,389.852 		"/>
		<polygon style="opacity:0.2;enable-background:new    ;" points="347.644,389.852 339.688,388.76 340.322,399.584 
			348.267,400.281 		"/>
		<path style="fill:#407BFF;" d="M348.439,297.46l1.944-12.176l44.66-2.671c0,0,4.749,25.338,1.1,32.088
			c-6.514,12.05-41.618,5.969-51.89,7.154c6.14,25.11,5.54,74.18,5.54,74.18l-14.67,1.12c0,0-11.288-52.876-13.57-78
			C320.013,302.201,334.06,302.623,348.439,297.46z"/>
		<polygon style="fill:#407BFF;" points="351.513,396.725 333.884,397.885 332.374,390.335 351.743,389.435 		"/>
		<polygon style="fill:#EBB376;" points="330.383,401.708 322.364,402.298 317.34,384.007 325.349,383.428 		"/>
		<g>
			<path style="fill:#407BFF;" d="M321.279,402.571c0-0.008-0.134-0.014-0.135-0.023c0-0.001-0.144-0.007-0.144-0.008
				s0-0.001,0-0.002c0-0.001,0.142-0.001,0.142-0.002c-0.029-0.12-0.407-2.365-1.381-2.899c-0.261-0.135-0.533-0.148-0.805-0.035
				c-0.315,0.099-0.504,0.399-0.485,0.728c0.035,0.501,0.572,1.128,1.184,1.627c-0.84-0.178-1.793-0.278-2.248,0.061
				c-0.193,0.149-0.294,0.386-0.271,0.629c-0.03,0.385,0.167,0.753,0.503,0.945c0.504,0.187,1.061,0.178,1.56-0.025
				c0.683-0.208,1.34-0.491,1.962-0.842c0.023,0.003,0.048,0.003,0.068-0.009c0.016-0.016,0.012-0.042,0.022-0.062
				C321.268,402.631,321.276,402.603,321.279,402.571z M318.872,400.333c-0.014-0.109,0.018-0.254,0.268-0.356l0.087-0.031
				c0.145-0.042,0.301-0.022,0.43,0.057c0.583,0.312,0.987,1.524,1.175,2.262c-0.056-0.018-0.113-0.035-0.18-0.055
				C319.861,401.775,318.94,400.874,318.872,400.333z M317.82,403.267c-0.202-0.134-0.319-0.364-0.308-0.606
				c-0.014-0.119,0.037-0.236,0.133-0.309c0.451-0.339,1.919-0.05,2.977,0.27C319.313,403.281,318.285,403.521,317.82,403.267z"/>
		</g>
		<polygon style="opacity:0.2;enable-background:new    ;" points="325.349,383.428 317.34,384.017 320.214,394.471 328.13,393.499 
					"/>
		<path style="fill:#407BFF;" d="M314.623,393.181l14.12-4.15c0,0-8.43-47.58-16.98-64.08c0.64-0.21,1.49-0.48,2.54-0.79
			c1.89-0.57,4.4-1.28,7.35-2.1c20.52-5.69,62.11-16.36,62.11-16.36l-19-17.73c0,0-75.68,11.54-77.25,31.48
			C286.763,329.041,314.623,393.181,314.623,393.181z"/>
		<polygon style="fill:#407BFF;" points="330.565,389.344 313.564,394.151 310.514,387.081 329.272,382.166 		"/>
		<path style="opacity:0.2;enable-background:new    ;" d="M314.303,324.161c1.89-0.57,4.4-1.28,7.35-2.1
			c-0.59-4.84-0.6-10.39,1.73-13.22c4.63-5.64,16.54-8.95,23.32-10.15c5.67-1,24.72-2.99,24.72-2.99s-24.72-2.37-49.99,5
			C308.943,304.351,311.373,316.561,314.303,324.161z"/>
		<g>
			<path style="fill:#263238;" d="M397.522,295.338c2.976-2.284,0.118-23.586,1.648-44.542c2.329-31.895-0.002-42.144-2.354-43.137
				c-4.337-0.753-8.724-1.188-13.125-1.3c-6.441-0.233-12.889-0.093-19.314,0.417c-4.398,0.542-8.748,1.427-13.009,2.648
				c0,0-10.524,33.493-3.801,81.746L397.522,295.338z"/>
			<path style="opacity:0.8;fill:#FFFFFF;" d="M400.04,234.38c0,0-0.01,0,0,0.01c-0.13,4.69-0.41,10.13-0.87,16.41
				c-1.53,20.95,1.33,42.25-1.65,44.54l-49.95-4.17c-3.7-26.56-2.17-48.65-0.05-63.15c4.06-6.34,11.94-13.57,15.56-16.74
				c0.84,1.04,2.27,1.93,4.6,2.39c3.89,0.76,8.33-1.05,12.01-3.24c2.9,2.89,8.4,8.74,10.81,13.67c0.26,0.54,0.49,1.06,0.67,1.57
				c1.53,4.28,6.2-0.99,8.58-7.88C400.1,221.82,400.24,227.24,400.04,234.38z"/>
		</g>
		<path style="fill:#EBB376;" d="M381.316,184.708c-1.087,6.238-2.057,17.646,2.377,21.7c0,0-4.821,5.953-14.008,6.358
			c-7.964,0.351-5.306-5.941-5.306-5.941c6.897-1.804,6.606-6.946,5.297-11.747L381.316,184.708z"/>
		<path style="opacity:0.2;enable-background:new    ;" d="M376.572,188.937l-6.887,6.141c0.32,1.117,0.544,2.259,0.669,3.415
			c2.639-0.437,6.208-3.424,6.431-6.199C376.922,191.171,376.85,190.033,376.572,188.937z"/>
		<g>
			<path style="fill:#263238;" d="M366.195,168.558c3.448,2.339,1.878,6.305-5.923,12.509c-3.166-4.11-3.693-12.087-1.174-14.093
				C361.617,164.969,363.189,166.533,366.195,168.558z"/>
			<path style="fill:#EBB376;" d="M381.024,174.983c-0.374,8.428-0.171,13.372-4.341,17.768c-6.282,6.605-16.74,2.931-18.893-5.442
				c-1.924-7.52-0.995-20.043,7.185-23.527c5.833-2.52,12.604,0.167,15.124,6C380.806,171.421,381.123,173.201,381.024,174.983z"/>
			<path style="fill:#263238;" d="M368.493,177.504c0.011,0.685-0.345,1.247-0.792,1.252c-0.447,0.005-0.813-0.537-0.825-1.221
				c-0.011-0.685,0.336-1.245,0.781-1.259C368.102,176.261,368.435,176.831,368.493,177.504z"/>
			<path style="fill:#263238;" d="M360.705,177.648c0.011,0.685-0.345,1.247-0.792,1.252c-0.447,0.005-0.823-0.534-0.836-1.229
				c-0.013-0.694,0.345-1.247,0.792-1.252C360.316,176.414,360.694,176.963,360.705,177.648z"/>
			<path style="fill:#D58745;" d="M363.252,177.927c-0.782,2.109-1.85,4.099-3.176,5.916c1.257,1.11,3.289,0.554,3.289,0.554
				L363.252,177.927z"/>
			<path style="fill:#263238;" d="M370.579,175.012c0.089,0.009,0.179-0.012,0.255-0.06c0.176-0.136,0.21-0.388,0.077-0.566
				c-0.774-1.043-2.008-1.642-3.306-1.606c-0.214,0.01-0.379,0.192-0.369,0.406c0,0.01,0.001,0.019,0.002,0.028
				c0.026,0.217,0.216,0.377,0.435,0.366l0,0c1.023-0.012,1.99,0.469,2.595,1.294C370.348,174.964,370.461,175.013,370.579,175.012z
				"/>
			<path style="fill:#263238;" d="M357.114,175.082c0.155-0.004,0.295-0.095,0.363-0.235c0.404-0.942,1.235-1.633,2.234-1.859
				c0.22-0.034,0.371-0.238,0.341-0.459c-0.033-0.216-0.232-0.368-0.449-0.343c-1.271,0.268-2.333,1.133-2.853,2.323
				c-0.094,0.199-0.009,0.436,0.189,0.53c0.002,0.001,0.004,0.002,0.005,0.003C356.999,175.066,357.056,175.08,357.114,175.082z"/>
			<path style="fill:#263238;" d="M377.544,167.579c-3.912,1.416-3.358,5.65,2.685,13.569c4.08-3.209,6.548-10.823,4.585-13.371
				C382.851,165.228,380.962,166.349,377.544,167.579z"/>
			<path style="fill:#EBB376;" d="M385.148,181.648c-0.552,2.05-1.894,3.799-3.732,4.861c-2.446,1.381-4.337-0.647-4.223-3.304
				c0.105-2.396,1.511-6.004,4.233-6.294C384.149,176.622,385.813,179.131,385.148,181.648z"/>
			
				<path style="fill:none;stroke:#263238;stroke-width:0.5263;stroke-linecap:round;stroke-linejoin:round;stroke-miterlimit:10;" d="
				M369.685,185.794c0,0-1.462,2.763-5.541,2.631"/>
			<path style="fill:#263238;" d="M368.992,166.241c0,0,1.258,8.44,9.383,8.974c8.125,0.535,9.875-4.487,9.875-4.487
				s-1.25,0.186-2,0.167c0,0,2.375-4.097,0-8.058c-2.375-3.961-10.477-8.086-16.488-5.961c0,0-5.743-2.171-11.377,1.102
				c-5.634,3.273-4.634,10.398-4.634,10.398s-0.25-4.327,2.375-5.539c0,0-3.25,8.914,1.625,11.289
				C357.75,174.125,358.234,165.356,368.992,166.241z"/>
		</g>
		<path style="fill:#EBB376;" d="M355.167,246c0,0-29.015-0.661-30.639-0.822c-1.624-0.162-8.504-4.042-9.959-4.204
			c-1.455-0.162-5.38,5.982-5.865,7.437c-0.485,1.455,10.971,5.335,12.103,5.174c1.132-0.162,3.733-1.39,3.733-1.39L354.143,256
			L355.167,246z"/>
		<g>
			<path style="fill:#263238;" d="M271,252v2.646c0,0.793,1.365,1.354,2.148,1.354h61.794c0.793,0,2.058-0.561,2.058-1.354V252H271z
				"/>
			<path style="opacity:0.6;fill:#FFFFFF;enable-background:new    ;" d="M271,252v2.646c0,0.793,1.365,1.354,2.148,1.354h61.794
				c0.793,0,2.058-0.561,2.058-1.354V252H271z"/>
			<path style="opacity:0.2;enable-background:new    ;" d="M271,252v2.646c0,0.793,1.365,1.354,2.148,1.354h40.757
				c0.793,0,2.095-0.561,2.095-1.354V252H271z"/>
			<path style="fill:#263238;" d="M261.091,219.513l7.356,33.479c0.239,1.099,1.309,2.008,2.388,2.008h40.183
				c1.07,0,1.758-1.142,1.51-2.24l-7.347-33.12c-0.248-1.089-1.309-1.64-2.389-1.64H262.61
				C261.531,218,260.852,218.424,261.091,219.513z"/>
			<path style="opacity:0.6;fill:#FFFFFF;enable-background:new    ;" d="M261.091,219.513l7.356,33.479
				c0.239,1.099,1.309,2.008,2.388,2.008h40.183c1.07,0,1.758-1.142,1.51-2.24l-7.347-33.12c-0.248-1.089-1.309-1.64-2.389-1.64
				H262.61C261.531,218,260.852,218.424,261.091,219.513z"/>
			<path style="opacity:0.4;fill:#FFFFFF;enable-background:new    ;" d="M261.091,219.513l7.356,33.479
				c0.239,1.099,1.309,2.008,2.388,2.008h38.817c1.08,0,1.758-1.142,1.519-2.24l-7.357-33.12c-0.239-1.089-1.309-1.64-2.389-1.64
				H262.61C261.531,218,260.852,218.424,261.091,219.513z"/>
			<path style="opacity:0.2;enable-background:new    ;" d="M284.73,240.97c-1.87,0-3.79-2.01-4.28-4.48
				c-0.48-2.48,0.64-4.49,2.52-4.49c0.35,0,0.7,0.07,1.04,0.2c0.44,1.93,1.75,3.55,3.19,4.09c0.02,0.07,0.04,0.13,0.05,0.2
				C287.74,238.96,286.61,240.97,284.73,240.97z"/>
		</g>
		<path style="opacity:0.2;enable-background:new    ;" d="M400.04,234.38c0,0-0.01,0,0,0.01c-4.31,6.99-10.34,14.45-16.35,14.1
			c-6.29-0.37,0.05-13.21,6.81-24.39c0.26,0.54,0.49,1.06,0.67,1.57c1.53,4.28,6.2-0.99,8.58-7.88
			C400.1,221.82,400.24,227.24,400.04,234.38z"/>
		<path style="fill:#263238;" d="M396.817,207.659c14.829,5.345-11.201,45.505-19.285,49.644
			c-8.084,4.138-29.351-0.635-29.351-0.635l1.319-12.407c0,0,16.835,1.134,20.185,0.288c3.35-0.846,11.305-17.965,15.882-26.048
			C390.143,210.417,396.817,207.659,396.817,207.659z"/>
		<polygon style="opacity:0.2;fill:#FFFFFF;" points="351.513,396.725 333.884,397.885 332.374,390.335 351.743,389.435 		"/>
		<polygon style="opacity:0.2;fill:#FFFFFF;" points="330.565,389.344 313.564,394.151 310.514,387.081 329.272,382.166 		"/>
		<path style="fill:#263238;" d="M321.576,401.484l8.685-2.424c0.299-0.098,0.621,0.065,0.719,0.364
			c0.001,0.003,0.002,0.006,0.003,0.009l2.343,6.76c0.209,0.749-0.223,1.527-0.97,1.745c-3.044,0.796-4.538,1.025-8.368,2.061
			c-2.348,0.648-6.926,2.152-10.274,2.533c-3.349,0.381-3.635-2.939-2.252-3.395c3.279-1.098,7.203-4.515,8.906-6.836
			C320.67,401.903,321.094,401.615,321.576,401.484z"/>
		<g>
			<path style="fill:#407BFF;" d="M340,407.699c0,0,0-0.001,0-0.002c0-0.002,0-0.004,0-0.006c0-0.14-0.135-2.411-0.972-3.134
				c-0.228-0.186-0.604-0.263-0.893-0.21c-0.329,0.031-0.633,0.282-0.683,0.608c-0.071,0.498,0.296,1.221,0.791,1.836
				c-0.784-0.35-1.71-0.646-2.226-0.41c-0.22,0.105-0.375,0.316-0.403,0.558c-0.109,0.371,0.003,0.771,0.292,1.029
				c0.455,0.288,0.999,0.395,1.529,0.3c0.711-0.061,1.412-0.202,2.093-0.414c0.022,0.008,0.045,0.013,0.068,0.006
				c0.019-0.013,0.02-0.038,0.034-0.056c0.023-0.021,0.193-0.046,0.202-0.076c0.002-0.008,0.168-0.012,0.168-0.02
				C340,407.707,340,407.7,340,407.699z M337.787,405.037c0.009-0.11,0.071-0.245,0.336-0.293l0.091-0.012
				c0.151-0.011,0.299,0.042,0.409,0.145c0.505,0.426,0.648,1.696,0.678,2.457c-0.051-0.029-0.104-0.058-0.165-0.092
				C338.455,406.653,337.741,405.58,337.787,405.037z M336.147,407.688c-0.17-0.173-0.236-0.423-0.175-0.657
				c0.012-0.12,0.085-0.224,0.194-0.275c0.512-0.238,1.887,0.351,2.855,0.884C337.605,408.012,336.55,408.033,336.147,407.688z"/>
		</g>
		<path style="fill:#263238;" d="M340.193,406.726l9-0.561c0.313-0.034,0.594,0.193,0.628,0.506c0,0.003,0.001,0.006,0.001,0.009
			l0.883,7.1c0.048,0.776-0.536,1.447-1.312,1.505c-3.143,0.145-4.651,0.057-8.614,0.273c-2.431,0.145-7.222,0.662-10.576,0.337
			c-3.354-0.325-2.943-3.632-1.495-3.79c3.435-0.391,7.985-2.915,10.135-4.831C339.219,406.947,339.694,406.754,340.193,406.726z"/>
	</g>
</g>
<g id="Table">
	<g>
		<g>
			<polygon style="fill:#407BFF;" points="300.108,416 306.234,416 307.234,262.753 299.107,262.753 			"/>
			<polygon style="opacity:0.4;fill:#FFFFFF;enable-background:new    ;" points="299.103,263 299.263,287.725 300.103,416 
				306.233,416 307.073,287.725 307.233,263 			"/>
			<polygon style="opacity:0.2;enable-background:new    ;" points="299.103,263 299.263,288 307.073,288 307.233,263 			"/>
		</g>
		<g>
			<polygon style="fill:#407BFF;" points="235.067,416 241.193,416 252.2,262.753 244.073,262.753 			"/>
			<polygon style="opacity:0.5;fill:#FFFFFF;enable-background:new    ;" points="235.063,416 241.193,416 251.663,270.365 
				252.203,263 244.073,263 243.633,270.365 			"/>
			<polygon style="opacity:0.2;enable-background:new    ;" points="243.633,270 251.663,270 252.203,263 244.073,263 			"/>
		</g>
		<g>
			<polygon style="fill:#407BFF;" points="365.149,416 371.275,416 362.269,262.753 354.142,262.753 			"/>
			<polygon style="opacity:0.5;fill:#FFFFFF;enable-background:new    ;" points="354.143,263 354.683,270.365 365.153,416 
				371.273,416 362.713,270.365 362.273,263 			"/>
			<polygon style="opacity:0.2;enable-background:new    ;" points="362.273,263 354.143,263 354.683,270 362.713,270 			"/>
		</g>
		<g>
			<path style="fill:#407BFF;" d="M239.792,266.591h126.757c1.194,0,2.162-0.968,2.162-2.162v-5.514H237.63v5.513
				C237.63,265.623,238.598,266.591,239.792,266.591z"/>
			<path style="opacity:0.6;fill:#FFFFFF;enable-background:new    ;" d="M239.792,266.591h126.757c1.194,0,2.162-0.968,2.162-2.162
				v-5.514H237.63v5.513C237.63,265.623,238.598,266.591,239.792,266.591z"/>
		</g>
		
			<rect x="237.63" y="258.915" transform="matrix(-1 -1.224647e-16 1.224647e-16 -1 606.3417 521.6686)" style="opacity:0.2;enable-background:new    ;" width="131.081" height="3.838"/>
		<g>
			<path style="fill:#407BFF;" d="M233.833,259.916h138.676c1.194,0,2.162-0.968,2.162-2.162l0,0c0-1.194-0.968-2.162-2.162-2.162
				H233.833c-1.194,0-2.162,0.968-2.162,2.162l0,0C231.671,258.948,232.639,259.916,233.833,259.916z"/>
			<path style="opacity:0.6;fill:#FFFFFF;enable-background:new    ;" d="M233.833,259.916h138.676c1.194,0,2.162-0.968,2.162-2.162
				l0,0c0-1.194-0.968-2.162-2.162-2.162H233.833c-1.194,0-2.162,0.968-2.162,2.162l0,0
				C231.671,258.948,232.639,259.916,233.833,259.916z"/>
		</g>
	</g>
</g>
</svg>
