<?xml version="1.0" encoding="utf-8"?>
<!-- Generator: Adobe Illustrator 27.5.0, SVG Export Plug-In . SVG Version: 6.00 Build 0)  -->
<svg version="1.1" id="Capa_1" xmlns="http://www.w3.org/2000/svg" xmlns:xlink="http://www.w3.org/1999/xlink" x="0px" y="0px"
	 viewBox="0 0 425.197 418.215" style="enable-background:new 0 0 425.197 418.215;" xml:space="preserve">
<rect x="0" style="fill:#FFFFFF;" width="425.197" height="418.215"/>
<g>
	<g>
		<g>
			<g>
				<path style="fill:#005771;" d="M280.837,137.117c-64.616,0-117.19,52.572-117.19,117.188
					c0,64.621,52.574,117.192,117.19,117.192c64.623,0,117.194-52.571,117.194-117.192
					C398.031,189.689,345.461,137.117,280.837,137.117z"/>
				<g>
					<path style="fill:#8BD2CE;" d="M255.421,167.716l-0.487-1.382l0.263-0.603l0.067-0.52l0.113-0.703l0.701-0.584l0.976-0.584
						l0.758,0.092l0.638,0.135l-0.638-0.572l0.982-0.139l0.426-0.139l0.579-0.453l0.094-0.616l-1.23,0.083l-1.116-0.302
						l-0.136-0.448l0.654-0.043l0.385,0.01l0.771,0.033l1.11-0.033l-0.284-0.305l-0.306-0.021l-0.393-0.174l-0.439-0.058
						l-0.844-0.138l-0.714,0.251l-0.793-0.349l0.407-0.42l0.806-0.661l0.217-0.575l-0.44-0.48l-0.493-0.523l-0.836-0.482
						l-0.463-0.018l-0.491-0.012l-1.094-0.182l-1.301-0.112l-0.759-0.063h-0.714l-0.733,0.087l-0.596,0.088l-1.3,0.299l0.275-0.588
						c1.025-0.479,0.342-0.326,1.854-0.479c1.518-0.186,1.884-0.1,0.685-0.186c-1.213-0.066,0.164-0.39-0.627-0.254h-2.369
						c-0.45-0.197-1.698,0.034-0.406-0.411l1.814-0.347h0.615h0.656l0.783-0.037c0.732-0.252-0.075-0.39,1.138-0.621
						c1.158-0.207-0.478-0.474,1.199-0.619l1.517-0.033l1.434-0.072l1.027-0.04l1.071-0.159l0.903-0.074l0.738-0.077l0.768-0.121
						l1.083-0.076l1.035,0.026l0.914,0.014l0.76,0.036h1.042h1.659l0.755-0.036l1.469-0.165l2.237-0.262l0.846,0.137l0.922,0.125
						l0.7,0.055l0.787,0.036l0.542-0.036l1.065-0.138c1.555-0.333,2.754-0.421,2.296,0.054c-0.476,0.429-0.408,0.284,1.282-0.238
						h1.563l0.903,0.143l1.103,0.042l1.137,0.083l1.044,0.165l0.922,0.056l1.329-0.056l0.892,0.036l1.286,0.336l0.404-0.446
						l1.14,0.061l0.043,0.403l-0.794,0.558l1.272-0.297l-0.582,1.064l0.93-0.42l0.412-1.061l1.362-0.274l0.729,0.053l0.644,0.359
						l-0.378,0.709l-0.318,0.697l-0.598,0.075h-0.656l-0.342,0.5l0.732-0.021l0.744,0.072l-1.035,0.549l-0.682-0.021l-0.434-0.096
						l0.168,0.785l-0.427,0.775v0.535h-0.627l-0.148,0.102l-1.752,0.391h-0.745h-0.97l-1.474,0.051l-0.089,0.384l0.412,0.217
						l0.207,0.189l0.76,0.215l0.756-0.137l0.47,0.061l0.266,0.111l0.504,0.725l-0.691,0.621l-1.767-0.472l-1.701-0.444l-1.836-0.271
						l1.264,0.404l-0.914,0.507l-0.241,0.55l0.241,0.221l-0.241,0.166l1.32-0.518l2.165,0.352l0.52-0.025l0.242,0.074l-0.979,0.504
						l-1.174,0.412l-1.414,0.268l-1.359,0.425l-0.47,0.134l-1.247,0.133l-0.693,0.059l-0.601,0.193l-0.71,0.014l-0.892,0.037
						l-1.059-0.598l-0.177,0.276l-0.44,0.228l-0.691,0.506l-0.598,0.502l-0.793,0.213l-0.655,0.268l-1.275,0.441l-1.254,0.291
						l-0.181-0.308l-1.113,0.189l-0.828,0.274h-0.613l-0.789,0.713l-1.191,0.109l-0.081,0.717l-0.79,0.555l-0.828,0.678
						l-1.002,0.467l-0.753,0.855l-0.385,0.914l-0.733,0.62l-0.855,0.884l-0.539,0.484h-0.789l-0.591-0.387l-0.622-0.486
						l-0.397-0.421l-1.067,0.421l-0.887-0.223l-0.948-0.813l-0.596-0.873l-0.657-0.67l-0.418-1.016l0.538-0.555l0.758-0.473
						L255.421,167.716z"/>
					<polygon style="fill:#8BD2CE;" points="255.754,161.761 256.123,161.634 256.757,161.694 257.333,161.731 258.064,161.947 
						257.884,162.509 257.002,162.495 256.361,162.265 255.89,162.124 					"/>
					<polygon style="fill:#8BD2CE;" points="243.178,190.698 242.755,190.85 242.919,190.024 243.044,189.675 243.564,189.511 
						244.277,189.114 244.468,189.21 244.088,189.62 244.604,189.446 244.437,190.143 244.24,190.698 243.814,191.058 
						243.412,190.981 243.486,190.327 					"/>
					<polygon style="fill:#8BD2CE;" points="244.437,188.347 243.814,188.563 244.225,188.809 243.564,189.114 243.315,189.21 
						242.791,189.659 242.333,189.794 242.006,190.217 241.656,190.48 240.9,190.739 240.574,190.689 240.574,190.352 
						241.234,189.96 241.779,189.601 241.367,189.659 240.958,189.541 240.689,189.675 240.524,189.446 240.016,189.541 
						239.553,189.541 238.842,189.759 238.555,189.814 237.93,189.87 237.515,189.759 237.166,189.794 236.173,189.921 
						236.062,189.732 236.083,189.227 236.927,188.841 237.239,188.617 236.63,188.755 236.816,188.617 237.166,188.563 
						237.703,188.039 238.555,187.811 238.433,187.616 238.631,187.269 239.153,186.841 239.636,186.196 240.676,185.016 
						241.175,184.627 241.519,184.431 242.019,183.947 242.728,183.815 242.791,183.947 243.14,184.028 242.791,184.22 
						242.698,184.431 242.919,184.627 242.622,185.016 242.156,185.241 241.751,185.546 241.519,185.801 240.881,186.477 
						241.751,185.82 241.949,185.952 242.292,186.03 242.487,186.128 241.504,186.419 242.006,186.529 242.292,186.825 
						242.622,187.017 243.14,187.086 243.564,187.086 244.437,187.231 244.277,187.56 244.061,187.665 243.604,187.938 
						244.061,187.938 244.563,187.923 244.681,188.138 					"/>
					<path style="fill:#8BD2CE;" d="M244.486,165.14l-0.303,0.223l-0.5,0.251l-0.454,0.064l-0.311,0.165l-0.258,0.272l-0.116,0.017
						l-0.35,0.202l-0.116,0.643l-0.366-0.238l-0.243-0.26l-0.412-0.289l-0.1-0.711l-0.61,0.424h-0.198l-0.234-0.135l-0.763-0.189
						l-0.679-0.172l0.081,0.271l-0.483,0.226l-0.141,0.556l0.423,0.28l0.942,0.499l0.146,0.478l0.049,0.54v0.405l-0.887,0.023
						l-0.901-0.316l-1.844-0.053l0.957,0.631l0.887,0.486l0.27,0.331l0.037,0.49l-0.636-0.071l-0.617-0.021l-1.867-0.457
						l-0.693,0.06l-0.405,0.14l-1.448-0.121l-0.458-0.471l-0.866-0.162l-1.667-0.449l0.081-0.542l-0.99-0.374l0.415,0.607h-0.762
						l-0.573-0.053l-0.619,0.108l-0.289,0.269l-0.685,0.077l-0.619-0.27v-0.557l0.404-0.77l0.495-0.131l0.598-0.22l1.071-0.106
						h0.783l0.541-0.092l0.638-0.046l0.359-0.122l0.612-0.146l1.323,0.146l-1.036-0.748l1.104-0.487l1.348,0.291l0.242,0.442
						l-0.329,0.545l0.835-0.349l0.707-0.331l0.521-0.074l0.414-0.305l-0.676-0.581l-0.966,0.446l-1.491-0.189l0.939-0.604
						l1.234-0.322v-0.932l-0.682-0.354l-0.625-0.127h-0.304l-0.208,0.155l-0.429,0.192l0.252-0.541l-0.499-0.344l-0.216-0.141
						l-0.248-0.132l-0.391-0.218l-0.559-0.18l-0.422-0.129l-0.123,0.016l-1.037-0.342l-0.078,0.944l-0.651-0.092l-0.547-0.161
						l0.388,0.58l-0.981-0.48l-0.327,0.564l-0.401-0.141l-0.427-0.172h-0.313l-0.264-0.015l0.018-0.437l-0.662,0.353h-1.108
						l-0.949-0.052l-1.335,0.322c-1.108,0.297-2.501-0.889-1.194-1.025l0.352-0.745l1.376-0.87l0.989-0.426l2.275-0.297l0.2,0.559
						l-0.927,0.861l-0.193,1.019l1.527-0.926c-1.414-0.526,1.231-0.806,0.78-0.886l1.016-0.353l1.359-0.352l2.272-0.305l0.393,0.466
						l0.058,0.431l-0.201,0.65l0.948-0.326l0.366-0.082l0.499-0.197l0.552,0.148l0.143,0.279l0.823,0.449l-0.003-0.654l1.205-0.59
						l0.887,0.322l0.426,0.385l0.575,0.074l0.63,0.059l0.896,0.133l0.468,0.086l0.092,0.328l0.314,0.311l1.054-0.087l-0.906,0.637
						l0.192,0.036l1.404-0.264l0.463,0.65l-1.67,0.74l0.867-0.035h1.038l-0.902,0.448l0.498,0.044l0.622-0.044l0.322,0.116
						l0.157,0.16l0.169,0.118l0.376,0.118l0.322,0.098l0.23,0.128l0.388,0.228l0.765-0.183l0.844,0.425l-0.436,0.439l-0.534,0.099
						l-0.58,0.112l-0.5,0.164L244.486,165.14z"/>
					<path style="fill:#8BD2CE;" d="M224.729,165.302l-1.248,0.311l-0.736,0.064l-0.825,0.165l-0.572,0.135l-1.322-0.514
						l0.443,0.346v0.381l-0.585,0.074l-0.623-0.203h-1.192c-1.126,0.418,1.921,0.244-0.855,1.004
						c-1.663,0.422-1.126,0.576-2.279,0.449c-1.176-0.068-0.14-0.84-1.932-0.699c1.276,0.15,0.698,0.631,1.581,0.826l0.944,0.074
						l-0.083,0.334l-2.261,0.977l-0.557,0.055l-1.012-0.227l-0.887,0.5l-0.77-0.043c-0.406-0.074-1.051-0.162-2.421,0.043
						l0.684,0.291l1.659,0.118c0.183,0.282,0.199,0.614-1.17,0.49c-1.965-0.148,0.07,0.298-0.776,0.43
						c-1.543,0.291-1.136,0.652-1.735,0.698l-2.124,0.939c-0.139-0.008-0.201-0.008-0.224,0c3.235-3.076,6.63-5.977,10.21-8.652
						l0.954-0.445l-0.436,0.073c0.865-0.642,1.752-1.256,2.636-1.876l0.205,0.622l-0.479,0.081l-0.364-0.081l-0.412,0.886
						l0.425,0.838l1.545-0.502l0.805,0.674l-0.262,1.255c1.597-1.255,2.391-1.048,2.93-1.449l1.037-0.579l1.239-0.81l1.871,0.307
						l0.786,0.68l-0.892,0.328l-0.361,0.4C224.672,164.673,226.001,164.653,224.729,165.302z"/>
					<path style="fill:#8BD2CE;" d="M214.794,169.704l-1.003-0.059c0.121-0.154,0.35-0.371,1.826-0.657l1.049-1.147l1.35-0.775
						l0.455,0.173l0.004,0.403l0.863-0.154l0.913,0.516l0.492,0.535l0.415,0.488l0.191,0.347h-0.9l-0.671-0.224l-0.232-0.214
						l-0.354,0.011l-0.137-0.164l-0.53,0.047l-0.388,0.159l-1.081,0.444l-0.982,0.656l-1.199,0.199l0.106-0.374L214.794,169.704z"/>
					<polygon style="fill:#8BD2CE;" points="306.759,178.552 307.219,178.423 307.694,178.476 307.801,178.665 307.88,178.878 
						308.097,179.017 307.993,179.183 307.821,179.357 308.031,179.264 308.287,179.381 308.287,179.714 307.993,179.87 
						307.821,179.98 307.572,180.089 307.4,180.151 307.285,180.319 307.4,180.519 307.534,180.827 307.475,181.023 
						307.572,181.285 307.534,181.597 307.518,181.91 307.405,182.152 307.205,182.429 307.205,182.692 306.804,182.59 
						306.4,182.692 306.4,182.267 306.308,182.675 305.917,182.645 305.603,182.727 305.259,182.843 304.887,183.095 
						304.429,183.235 304.029,183.29 303.433,183.409 302.864,183.429 302.909,183.259 303.29,183.095 302.713,183.157 
						302.577,183.095 303.222,182.843 302.675,182.964 302.366,182.843 302.206,182.727 302.772,182.59 303.072,182.477 
						302.522,182.517 302.158,182.477 302.389,182.288 302.713,182.267 303.072,182.354 302.988,182.237 302.988,182.064 
						303.346,181.91 304.39,181.845 304.1,181.731 304.029,181.717 303.505,181.888 303.072,181.91 303.117,181.806 
						303.394,181.632 303.581,181.392 303.581,181.332 303.963,181.179 304.029,180.98 303.433,180.98 303.29,180.842 
						303.117,180.827 303.025,180.718 302.847,180.671 302.909,180.466 303.222,180.466 303.322,180.204 303.394,180.07 
						303.025,179.999 302.847,179.898 303.29,179.94 303.155,179.629 303.155,179.52 303.433,179.472 303.963,179.584 
						304.39,179.584 304.733,179.73 304.718,179.499 305.09,179.321 305.227,179.183 304.659,179.149 304.659,178.989 
						304.887,178.878 305.043,178.609 305.303,178.423 305.687,178.391 305.977,178.304 306.026,178.665 306.165,178.304 
						306.513,178.304 306.631,178.476 306.355,178.609 					"/>
					<polygon style="fill:#8BD2CE;" points="302.125,186.423 301.761,186.395 301.656,186.477 301.761,186.709 301.325,186.825 
						301.069,186.931 301.761,187.086 302.449,187.086 302.276,187.46 301.673,187.665 301.403,187.744 300.802,187.811 
						299.964,187.88 299.643,187.938 299.249,187.811 299.045,187.665 298.882,187.938 298.414,187.938 298.091,188.153 
						297.627,188.039 297.063,187.938 296.53,188.039 296.328,188.505 295.948,188.424 295.6,188.293 295.056,188.347 
						294.724,188.505 294.517,188.79 294.026,188.617 293.945,188.48 294.569,188.153 295.122,187.785 295.412,187.46 
						295.678,187.181 296.447,187.181 297.12,187.149 297.463,186.865 297.801,186.529 297.184,186.825 296.644,186.981 
						296.105,186.614 295.775,186.709 295.6,186.614 295.566,186.477 295.252,186.477 294.805,186.571 294.463,186.477 
						294.517,186.128 295.236,185.909 295.948,185.41 295.966,185.121 295.948,185.105 295.948,184.877 295.412,185.016 
						295.122,185.016 295.351,184.806 295.678,184.546 295.351,184.22 295.81,184.431 296.211,184.325 296.675,184.325 
						297.032,184.401 297.032,184.22 297.546,184.304 297.063,184.125 297.336,183.778 297.142,183.602 297.282,183.219 
						296.935,183.095 296.73,183.124 296.644,182.413 297.099,182.152 296.594,182.093 296.358,182.237 295.948,182.354 
						295.6,182.354 295.449,182.429 295.056,182.237 295.056,182.477 294.771,182.064 294.968,182.118 295.021,181.768 
						295.412,181.392 295.122,180.966 295.566,180.78 295.271,180.421 294.695,180.691 294.68,180.88 294.37,181.442 
						294.212,181.332 294.418,180.73 294.517,180.483 294.724,179.999 294.68,179.87 294.439,179.665 293.945,179.584 
						294.483,179.241 294.724,179.114 294.517,178.837 294.517,178.476 294.418,178.125 294.865,178.053 295.122,178.169 
						294.805,177.808 294.913,177.592 295.223,177.391 295.324,177.086 295.6,177.255 295.788,177.337 296.211,177.206 
						296.851,177.206 297.184,177.239 297.063,177.592 296.328,178.034 296.005,178.125 296.328,178.321 296.105,178.423 
						296.085,178.552 296.328,178.552 297.228,178.454 297.546,178.476 297.834,178.476 298.091,178.476 298.428,178.745 
						298.192,179.183 297.888,179.648 297.336,180.089 296.851,180.204 297.406,180.284 297.406,180.483 297.063,180.569 
						296.358,180.608 296.447,180.691 297.032,180.73 297.773,180.78 298.091,180.919 298.239,181.075 298.678,181.597 
						298.988,182.429 299.324,182.692 300.249,183.235 300.308,183.55 300.651,184.089 300.071,183.796 300.747,184.202 
						300.802,184.847 300.786,185.044 301.191,185.016 301.899,184.806 302.638,185.681 302.449,186.064 302.036,186.224 					"/>
					<polygon style="fill:#8BD2CE;" points="293.478,183.68 293.614,183.97 293.543,184.161 293.679,184.431 293.614,184.757 
						293.573,185.044 293.519,185.329 293.251,185.546 293.251,185.82 292.851,185.761 292.474,185.82 292.474,185.435 
						292.385,185.82 291.956,185.801 291.665,185.909 291.333,186.05 290.948,186.224 290.476,186.419 290.093,186.497 
						289.485,186.614 288.916,186.614 288.954,186.477 289.349,186.279 288.789,186.325 288.638,186.245 289.259,186.017 
						288.743,186.128 288.426,186.05 288.274,185.909 288.858,185.744 289.164,185.661 288.6,185.661 288.198,185.661 
						288.426,185.435 288.789,185.435 289.164,185.515 289.026,185.374 289.062,185.23 289.436,185.044 290.476,184.975 
						290.159,184.877 290.093,184.847 289.587,185.016 289.164,185.044 289.191,184.954 289.436,184.815 289.678,184.546 
						289.678,184.431 290.077,184.304 290.093,184.161 289.485,184.143 289.373,184.003 289.191,183.947 289.107,183.796 
						288.896,183.755 288.954,183.602 289.259,183.602 289.391,183.368 289.452,183.219 289.107,183.157 288.896,183.027 
						289.321,183.095 289.191,182.755 289.191,182.615 289.485,182.59 290.077,182.727 290.426,182.692 290.813,182.843 
						290.813,182.615 291.169,182.429 291.301,182.325 290.76,182.267 290.76,182.118 290.979,181.985 291.128,181.768 
						291.382,181.52 291.735,181.502 292.029,181.392 292.091,181.768 292.261,181.392 292.593,181.392 292.71,181.597 
						292.439,181.731 292.83,181.632 293.288,181.534 293.747,181.597 293.876,181.806 293.945,181.985 294.174,182.152 
						294.075,182.325 293.945,182.477 294.156,182.429 294.37,182.517 294.37,182.83 294.075,183.027 293.903,183.095 
						293.679,183.235 293.478,183.29 293.363,183.444 					"/>
					<polygon style="fill:#8BD2CE;" points="288.789,167.553 288.954,167.407 288.451,167.394 288.355,167.238 288.355,167.134 
						287.269,167.181 287.103,167.134 286.984,167.134 286.903,167.092 288.142,166.864 288.657,166.846 289.259,166.773 
						288.789,166.773 288.778,166.739 288.543,166.696 289.321,166.393 289.349,166.334 288.6,166.265 288.326,166.306 
						288.297,166.253 287.503,166.448 286.862,166.334 286.711,166.306 286.643,166.23 287.174,166.19 287.229,166.115 
						287.229,165.995 287.349,165.995 287.652,166.115 287.943,166.019 287.87,165.977 287.463,165.843 287.781,165.843 
						287.581,165.731 288.007,165.678 287.906,165.613 288.198,165.535 288.954,165.903 288.954,165.613 288.698,165.464 
						288.916,165.407 288.837,165.362 288.355,165.362 288.485,165.302 289.062,165.212 289.436,165.441 289.608,165.48 
						289.982,165.747 289.967,165.769 289.929,166.061 289.888,166.174 289.557,166.115 289.929,166.306 290.031,166.632 
						290.137,166.602 290.137,166.523 290.258,166.334 290.692,166.115 290.813,166.19 290.948,166.174 291.058,165.977 
						290.893,165.81 291.088,165.613 291.551,165.69 291.647,165.747 291.881,165.977 292.029,165.922 291.991,165.637 
						292.593,165.464 292.851,165.497 293,165.718 293.466,165.977 293.251,165.613 294.026,165.678 294.463,165.441 
						295.021,165.441 294.968,165.362 294.968,165.112 295.056,165.069 295.463,164.989 295.566,164.989 295.948,165.212 
						295.966,165.302 296.005,165.362 296.328,165.329 297.063,165.171 296.994,165.212 296.994,165.235 296.675,165.48 
						296.994,165.497 296.702,165.81 297.142,165.81 297.316,165.977 297.487,165.977 297.834,166.105 297.603,166.334 
						298.037,166.334 297.888,166.602 297.686,166.632 297.519,166.846 297.463,166.966 297.282,166.864 297.032,167.259 
						296.935,167.311 296.495,167.487 296.328,167.509 295.521,167.642 294.865,167.903 294.724,167.991 294.288,168.124 
						293.299,168.256 292.896,168.466 292.01,168.661 290.76,168.538 290.547,168.561 289.191,168.218 289.026,168.218 
						288.253,168.218 287.819,168.256 287.781,168.173 287.87,168.05 288.916,167.657 289.191,167.642 289.235,167.597 					"/>
					<path style="fill:#8BD2CE;" d="M231.244,153.414l0.581,0.069l1.101,0.191l-0.506,0.546l-0.924,0.189l-2.062,0.773l-1.643,0.081
						l-0.654,0.348l-0.672,0.106l-0.254,0.063c1.485-0.844,2.995-1.65,4.526-2.426L231.244,153.414z"/>
					<path style="fill:#8BD2CE;" d="M233.462,158.112l-1.194-0.234l-0.384,0.426l-0.545-0.052l-0.727-0.017l-1.755,0.058
						c-0.626-0.02-0.398,0.337-1.622,0.337l-0.216-0.209l0.116-0.186l-1.577,0.474l-0.949-0.253l-1.343,0.331
						c-1.347,0.157-1.238-0.552-0.733-0.71l0.018-0.167c0.463-0.28,0.92-0.548,1.389-0.822l-0.251,0.285l0.687,0.197l0.935,0.065
						l0.69-0.037l0.712-0.119l0.774-0.092l1.329-0.015l1.023,0.015l0.686-0.045l0.97-0.094l0.792-0.105l0.959-0.16l1.319,0.764
						L233.462,158.112z"/>
					<polygon style="fill:#8BD2CE;" points="235.264,158.913 234.063,159.132 232.806,159.46 232.419,158.944 232.823,158.456 
						234.297,158.421 					"/>
					<path style="fill:#8BD2CE;" d="M221.368,159.074l-1.55,0.815l-0.339-0.006c0.472-0.309,0.951-0.61,1.426-0.914L221.368,159.074
						z"/>
					<path style="fill:#8BD2CE;" d="M246.709,154.548l-1.24,0.159l-1.409,0.018l-1.17,0.187l-2.276,0.043l-0.579,0.036l-0.806,0.062
						l-0.387,0.132l-1.117,0.275l-0.022,0.476l-1.237,0.252l-1.383,0.527l-0.677-0.087l-0.66-0.06l-1.576-0.188l-1.299,0.422
						l-1.978-0.175h-0.905l-0.986,0.087l-0.195-0.434l1.653-0.288l0.613-0.412l1.798-0.073l1.548,0.19l-1.018-0.38l1.404-0.211
						l-0.752,0.103l-1.097,0.011l1.022-0.513c2.911-0.278,0.154-0.447,1.927-0.528l1.41-0.02l0.669,0.251l0.448-0.814l1.576-0.379
						l1.586-0.114l-0.314-0.102l-0.809,0.034l-1.176-0.034l-0.272,0.063h-0.324l-1.175,0.115l-1.054,0.074l-0.681,0.038l2.148-0.595
						l1.414-0.184l0.567,0.006l0.711,0.041l1.639-0.195h0.688l1.31-0.041l2.337-0.183l0.832,0.074l0.958,0.018l1.937-0.049
						c1.318,0.268,2.035-0.361,3.714-0.49l1.432,0.168l1.719,0.137c2.35-0.031,0.416,0.631-0.386,0.782l-2.856,0.745
						c-1.159,0.561-1.852,0.406-3.561,0.902L246.709,154.548z"/>
					<path style="fill:#8BD2CE;" d="M369.512,323.728c-1.176,1.055-3.863,0.235-3.659-1.688c0.273-1.911-1.016-1.784-0.291-3.825
						c0.8-2.08,1.348-1.214,1.721-2.413c0.313-1.228,0.765-0.883,0.548-2.083c-0.185-1.216,0.253-1.086,0.151-2.675
						c-0.151-1.563,0.595-1.396,0.839-2.599l0.563-0.684l0.525-0.273l1.347-0.46l0.94-0.214l0.852-1.26l0.135,0.055l0.577-0.35
						l0.729-1.156l0.142-1.084l0.429,0.073l0.259-0.122l0.973-1.53l0.282-0.806l0.812-0.065l0.184,0.302l0.708,5.586l-0.55-0.067
						l-0.419-0.053l0.021,1.991c-1.318,1.676-0.643,2.509-1.86,4.5c-1.266,2.16-1.616,3.307-1.826,4.369
						c-0.235,0.826-0.41,1.652-0.914,2.845c-0.8,1.096-1.614,2.181-2.458,3.264C369.919,323.505,369.643,323.616,369.512,323.728z"
						/>
					<path style="fill:#8BD2CE;" d="M391.886,231.45l-0.835-0.053l-1.117-0.152l-0.619-0.174l-1.178-1.149
						c-0.517-0.53,0.103-1.125-1.189-1.412l-1.262,0.218l-0.644,0.316l-0.657,0.087l-1.072-0.046l-0.658-0.075l-0.902-0.376
						l-1.051-0.97l-0.228-0.238l-0.348-0.306l-0.758-0.388l-0.599-0.675l-0.982-1.364l-1.132-0.99l-0.862-0.615l-0.605-0.066
						l-0.52-0.67l-0.282,0.625l-0.731-0.031l-0.439,0.031l0.528,0.727l-0.563,1.045c0.354-0.191,0.462-0.043,1.23,1.231
						c0.834,1.274,0.748,1.309,0.776,1.763l0.658,0.074l0.552,0.559l0.851,0.71l0.269,0.79l0.485,1.197l0.794,1.02l-0.293-1.371
						l0.266,0.141l0.559-0.507l0.679,1.123l0.059,1.171l0.061,0.236l0.092,0.215l0.709,0.881l1.321-0.053l0.493-0.041h0.331
						l0.386-0.049l0.228-0.07l0.232-0.056l0.221-0.076l0.384-0.536c1.569-1.099,0.82-1.409,1.579-1.845l0.789-0.685l0.299,0.907
						l0.432,1.292l1.211,1.158l1.882,1.109l0.685,0.296l0.343,0.211l0.336,0.288l0.162,0.385l0.643,0.872
						c0.049,0.31,0.08,0.64,0.129,0.965l-1.029,2.077c-0.291-0.326-1.005,1.082-0.585,2.321l-0.213,0.9l-1.325,1.253l-1.723,1.016
						l-0.289,1.013l-2.02,0.669l-1.037,0.521l-1.18,1.528l-1.603,0.816l-3.377,1.591l-2.617,1.197l-2.72,0.98l-0.695,0.326
						l-0.316,0.268h-2.339l-0.383-1.311l-0.525-2.154c0-0.365-0.287,0.187-0.679-2.678l-0.188-0.641l-0.638-1.314l-1.756-2.306
						c-1.086-1.081-0.216-1.65-2.789-3.489c-1.338-1.033-0.66-1.049-1.068-1.511l0.024-1.026l-1.43-3.479l-0.677-0.807l-1.507-0.949
						c-1.039-1.744,0.221-0.256-0.824-2.006c-1.471-2.397-2.175-2.803-1.926-3.119l-0.997-1.508l-0.698-0.91l-0.025-1.246
						l-0.202-0.819l-0.167,1.802l-0.051,1.445l-1.093-0.219l-1.341-1.815l-0.965-1.417l-0.937-1.686l0.509,1.823l0.566,1.576
						l1.196,1.658l0.628,0.984c0.992,0.977-0.378-0.014,0.266,1.224c1.221,2.214,1.845,2.131,2.13,3.169l1.617,1.909
						c0.794,0.791-1.035-0.188-0.068,1.125c0.94,1.248-0.02,0.261,0.674,1.132c1.07,1.304,1.515,0.809,1.407,1.51l0.844,2.195
						l0.092,2.406l0.7,1.173l0.467,0.229l0.285,0.195l0.677,0.693c1.044,1.882,1.369,1.731,1.806,3.656
						c0.455,1.958,0.74,1.912,0.863,1.672l0.995,0.783l1.032,0.504l1.967,2.079l0.86,1.065l0.285,0.179l1.152,1.939l-1.04,0.711
						l-0.305,0.331l0.886,0.016l-0.029,0.053l2.895,1.733l2.024-0.549l1.369-0.288l1.086-0.275l0.844-0.109l0.659-0.1l2.386-1.113
						l1.062,0.387c-0.282,1.211,0.674,1.674,0.237,1.547l-0.218,1.444l0.049,0.144l-0.158,0.891
						c-0.673,1.74-0.744,1.002-0.715,1.495c0.094,1.067-1.546,2.655-1.546,4.233c-0.073,2.1-1.884,2.559-2.086,3.521
						c-0.243,1.256-1.469,2.291-2.865,3.926c-1.375,1.685-2.252,1.473-3.143,3.005c-0.891,1.492-2.066,1.706-2.681,3.026
						c-0.596,1.297-0.665,1.297-0.987,1.617c-1.33,1.425-2.349,1.045-2.279,2.502c0,0.886-0.166,0.309-0.302,1.564l-0.657,1.502
						l-0.403,0.693c-0.693,0.869,0.035,0.869-1.01,2.412c-1.267,1.666,1.53,1.591,0.682,2.929l-0.42,1.311
						c-0.658,0.975,0.531,1.022,0.458,2.854l0.693,1.39l0.148,1.911l-0.321,1.924c0.29,1.057-0.604,1.385-0.094,3.047
						c0.501,1.654,0.415,1.313-0.426,2.852l-1.116,1.26l-2.6,1.977c-0.35-0.089,0,0.566-1.24,0.735
						c-1.408,0.255-2.876,2.774-3.873,3.22c-1.333,0.573-2.062,2.43-1.311,2.734l0.475,1.874l0.109,1.747l-0.666,1.963
						c0,0.301-0.5,1.854-2.782,2.732c-2.69,1.04-1.287,1.195-1.587,2.251c-0.938,3.107-0.846,3.509-1.917,3.632
						c-1.213,0.148-2.469,4.481-3.965,4.863l-2.069,2.381c-0.727,0.447-1.028,2.158-3.307,2.455l-1.665,0.736l-0.464,0.22
						l-0.711,0.11l-1.467-0.11l-0.453-0.089l-0.841,0.138l-1.019,0.473l-0.423,0.075l-0.924,0.219l-1.774-0.219l-0.786-0.4
						l0.07,0.655c-1.317-0.461-0.152-1-0.906-1.603l-0.448-1.274l0.525-1.041l-0.418-2.096c-1.541-1.1-1-4.388-1.392-4.664
						l-0.644-0.622l-0.766-2.386l-0.832-5.695l0.118-1.695c0.237-0.502-2.517-4.067-2.383-5.871
						c0.083-1.132-1.485-2.441-1.312-4.555c0.208-3.107-0.443-2.16,0.208-2.584c0.679-0.493-0.061-3.37,0.884-5.459
						c0.793-1.852,0.665-0.425,1.257-1.833c0.518-1.073,0.624,0.197,1.178-1.757c0.56-1.927-0.962-2.793-0.66-3.876
						c0.177-0.705-0.44,0.021,0.019-1.503l-0.612-3.141l-0.606-1.535l1.304-0.603l-0.442,0.082l-0.45,0.171l-0.707-0.253
						l-0.196-0.457v-0.74l-0.127-0.805l0.301-0.132l-0.301-0.1l-0.572-0.409c-0.736-1.537-1.29-1.289-1.081-1.477l-0.208-0.542
						l-0.913-1.102l-1.302-1.387l0.06-0.153l-0.375-0.888l-0.061-0.41l-0.704-1.744l0.781-0.509l0.252-1.232l0.857,0.52
						l-0.042-0.326l-0.672-0.672l0.996-0.949l-0.746-0.082l-0.49-0.209l0.577-1.139l0.377-0.741v-1.614l-0.185-1.038l-0.109-0.501
						l0.17-0.377l-0.037-0.046l-0.342-0.043v0.054l-0.509-0.011l-0.654-0.773l-0.226-0.053l-0.605-0.38l-0.661,0.322l-0.63-0.143
						l-0.364,0.509l-0.479,0.09l-0.246,0.022l-0.28-0.022l-1.223-0.631l-0.378-0.496l0.08-0.324l0.351-0.418l-0.521,0.293
						l-0.212-0.443l0.329-0.357l-0.393-0.123l-1.525-0.964l-0.705-0.291l-0.56,0.077l-0.649,0.094h-0.435l-0.063-0.039l-0.316,0.039
						l-0.525,0.24l-1.31,0.323l-0.751,0.609l-0.332-0.144l-0.29,0.535l-1.692,0.568l-1.204,0.303l-1.163-0.409l-1.045-0.202
						l-0.783-0.162l-0.453-0.055h-0.678l1.005,0.229h-0.327l-1.313,0.061c-1.805,0.235-2.35,0.94-2.737-0.073l-1.821,1.506
						l-0.686-0.359c-1.117,0.232-0.346-0.383-1.787-0.757l-0.501-0.378l-1.247-1.141l-0.856-1.023l-1.092-0.75l-0.47-0.635
						l-1.043-0.381l-0.381-0.371l0.341-0.246l-0.218-0.215h-0.067l-0.504-0.037l-0.21-0.488l-0.29-0.479l-0.253-0.527l0.15-0.217
						l-0.15-0.373l-0.07-0.394l0.127-0.536l-0.96-1.076l-0.697-0.945l-0.522-0.76l-0.686-1.005l-0.431-0.429l0.294-0.353l0.215-0.42
						l-0.738,0.42l-0.37-0.336l1.108-0.415l-1.239,0.195l0.13-0.309l-0.168,0.065l-0.426,0.034l0.213-0.441l-0.715-0.122
						l0.173-0.541l0.604-0.196l0.244-0.018l0.446-0.048l0.229-0.03l0.431,0.078l0.374-0.133l-0.456-0.057l-0.446-0.088l-0.304,0.027
						l-0.445,0.061h-0.235l-0.511,0.256l-0.122-0.771l0.191-0.275l0.402-0.027c0.574-0.242-0.402-0.314,1.205-0.626
						c-1.78,0.11-0.814,0.398-1.317,0.524l-0.54-0.605l-0.104-0.584l0.424-0.387l-0.55-0.047l-0.388-0.015l-0.254-0.407
						l-0.479-0.406l0.198-0.559l1.035-1.249l0.871-1.895c-0.402-1.146,0.536-1.102,0.421-2.341
						c-0.057-0.666,0.448-1.649-0.594-3.037l0.275-0.52l-0.202-0.486l0.309-0.918l-0.557-0.987L276,238.146l-0.201-0.132
						l-0.014-0.486c0.539-1.328,0.998-1.178,1.302-3.121c0.374-1.975,1.795-2.407,2.457-4.414c0.944-2.855,1.21-0.468,1.81-2.666
						l0.781-1.479c0.76-1.459,2.492-0.356,2.952-1.459c0.428-0.875,2.313-1.445,2.652-2.75c0.203-0.725-1.154-0.563-0.667-1.748
						c0.87-2.183,1.124-1.129,1.625-2.995c0.328-1.344,1.927-0.114,3.456-3.222c0.609-1.311,0.927-1.064,1.323-1.731l0.734-0.118
						l0.701,0.414l0.622,0.209l0.853,0.162l0.268,0.108l0.749-0.39l0.002,0.188l0.536,0.313l0.383,0.102l0.404-0.048l0.339-0.055
						l0.353-0.37l0.544-0.332l0.415-0.218l0.368-0.059l1.189-0.42l1.646-0.944c0.6-0.038,0.078-0.259,1.563-0.313l0.976,0.055
						l0.511-0.115l0.424-0.152l0.42-0.136l0.748-0.058l0.799,0.058l0.456,0.136l0.333,0.063l1.002-0.39l0.399-0.083l0.351,0.139
						l0.577-0.121l0.189,0.083l0.679,0.116l1.521-0.537l0.949,0.148l-0.082,0.545l0.463,0.163l0.826-0.042l-0.109,0.487
						l-0.264,0.835l0.773,1.232l-0.122,1.35l-1.449,0.943l1.062,0.837l0.294-0.064l0.023,0.387l0.643,0.537l1.375,0.55l1.012,0.025
						l1.012,0.138l0.867,0.213l0.909,0.271l0.705,0.264l0.488,0.682c0.171,1.184,0.695,1.141,1.163,1.096l0.607,0.045
						c0.554,0.305,1.188-0.045,2.546,0.828c1.405,0.889,0.818,0.956,1.815,0.86l0.841-2.047l0.312-1.262
						c0.641-0.381,0.731-0.873,2.01-0.737c1.23,0.135-0.192,0.176,0.678,0.289l0.126-0.064l1.281,0.201
						c1.48,0.463-0.259,0.779,1.035,0.678l0.601,0.209l0.537,0.155l0.617,0.352l1.244,0.319l2.29,0.306l1.227,0.436l0.712,0.226
						l0.909,0.32l1.083-0.613l1.249-0.412l0.544,0.064l0.613,0.083l1.928,0.42l0.653,0.121l1.746-0.645l0.374-1.385l0.278-1.193
						l0.407-1.309l0.572-0.977c-1.003-1.857,0.339-1.55-0.572-2.034l-0.137-0.671l0.165-0.973h-0.399l-0.288,0.165l-1.543-0.249
						l-0.758,0.926l-1.514,0.072l-1.724-0.998l-1.055,0.1l-1.159,0.76l-1.005-0.775l-0.739-0.32l-0.951,0.154l-0.863-0.038
						l0.93-0.502l-1.056,0.04l0.126-0.301l0.02-0.362l-0.724-0.319l-0.499-0.904l-0.813-0.181l-0.211-0.712l0.183-0.314l0.242,0.17
						l0.156-0.066l-0.116-0.594l-0.04-0.347l-0.099-0.642c-1.332,0-0.394,0.068-0.714-0.596l0.496-0.351l1.164-0.419l0.693-0.037
						l1.498-0.059l1.353-0.342l-1.659-0.643l1.407,0.036h1.645l2.196-0.857l1.47-0.2l1.108-0.134l0.682,0.152l0.744,0.266
						l1.305,0.542l0.91,0.468l0.427,0.119l1.783-0.014l0.956,0.066c0.639,0.199,1.376,0.406,2.435-0.89l-0.128-0.753l-0.61-0.991
						l-1.328-0.814c-1.517-1.1-1.361-0.428-1.998-0.969c-1.746-1.429-3.376-1.344-3.722-1.954l0.113-0.268l0.689-0.575l0.755-0.434
						l-0.281-0.566l-0.5-0.48l1.311-0.479c0.457-0.427,0.457-0.566-1.311-0.103l-0.43,0.139l-0.347,0.13l-0.442,0.218l-0.4,0.175
						l-0.488,0.201l-0.763,0.128l-0.685,0.153l-0.736,0.188l0.402-0.188h-0.495l-0.561,0.046l-0.071-0.046l0.304,0.267l0.45,0.175
						l0.773,0.737l0.62,0.059h0.664l1.024,0.105l-0.037,0.249l-0.221,0.17l-0.537-0.053l-0.757,0.053l-0.32,0.235l-0.437,0.039
						c-0.663,0.1-0.043,1.002-1.526,0.403l-0.176-0.73l-1.039-0.464l-0.025-0.382l0.948-0.597l-0.34-0.229l-0.447,0.09l-0.31-0.082
						l-0.66-0.127l-0.434-0.173l-0.133-0.027l0.159-0.376l-0.026-0.139l0.846,0.101l-0.737-0.217l-1.042,0.089l-1.062,0.529
						l-0.249-0.268l-0.176,0.139v0.342l-0.5,0.502l-0.171,0.398l-0.151,0.189l0.053,0.447l-0.277,0.121l-0.191,0.185l-0.188-0.268
						v0.268l-0.091,0.292l-0.133,0.549v0.493l0.133,0.488l-0.254,0.321l-0.218,0.089l-0.282,0.747l-0.068,0.205h-0.143l-0.232,0.365
						l0.159,0.195l0.338,0.431l0.069,0.226l0.084,0.178l1.242,0.95l0.552,0.293l-0.343,0.218l-0.325,0.032l-0.315-0.032
						l-0.364-0.114l-0.466,0.392l-0.316,0.459l-0.921,0.505h-0.444l0.682-0.505l-0.042-0.186l-0.775,0.379l-0.338-0.4l-0.409-0.252
						l-0.863,0.123l-0.52-0.081l-0.445-0.042l-0.542,0.191l-0.48,0.268l0.093,0.342l0.04,0.199l-0.302-0.02l0.018,0.181l-0.24-0.103
						l-0.185,0.094l-0.072-0.233l-0.526-0.118l-0.375-0.323v0.539l0.211,0.442l0.397,0.391l0.229,0.617l-0.135-0.08l-0.191-0.387
						l-0.212,0.249v0.325l0.193,0.1l0.209,0.331l0.057,0.416l0.62,0.23l0.461,0.274l0.598,0.461l0.117,0.564l-0.371-0.149
						l-0.448-0.038l-0.476,0.133l0.173,0.345l0.116,0.271l-0.392,0.206l-0.256-0.188l0.145,0.31l0.111,0.488l0.14,0.375l0.066,0.324
						l-0.428-0.225l-0.233,0.082l-0.293-0.318l-0.41-0.094l-0.76-0.67l-0.5-0.693l-0.254-0.414l0.052-0.249l0.53-0.306h0.253h0.449
						l0.38,0.1l0.262,0.082l0.491,0.205l-0.063-0.387h-0.538l-0.738-0.214l-0.403-0.077l-0.325-0.11l-0.297,0.11l-0.402-0.45
						l0.418-0.183l0.074-0.08l-0.207-0.148l-0.264,0.019l-0.177,0.171l-0.445-0.538l-0.328-0.389l-0.59-0.285v-0.155l-0.603-0.561
						l-0.539-0.38l-0.235-0.488l0.119-0.107h0.216l-0.408-0.441v-0.461l0.099-0.291l-0.202-0.493l-0.225-0.515l0.178-0.25
						l-0.394-0.125l-0.423-0.27l-0.593-0.42l0.234-0.141l-0.292-0.074l-0.436-0.023l-1.006-0.319l-0.104-0.242l-0.922-0.631
						l-0.2,0.06l-0.296-0.072l-0.849-0.584l-0.77-0.754l-0.198-0.252l-0.814-0.656l-0.378-0.804l-0.274,0.674h-0.418l-0.29-0.869
						v-0.271l-0.364-0.209l-0.523,0.402l-0.68,0.334v0.523l-0.065,0.337l0.259,0.808l0.965,0.441l0.699,0.879l0.767,1.303
						l0.855,0.727l0.802,0.265l0.957,0.114l0.203,0.352v0.42l1.348,0.537l0.659,0.6l0.848,0.393l0.297,0.527l-0.127,0.266
						l-0.574-0.555l-0.64-0.053h-0.397l-0.223,0.409l-0.073,0.293l0.194,0.298l0.424,0.486l0.271,0.399l-0.407,0.155l-0.064,0.554
						l-0.527,0.684l-0.78,0.707l-0.306-0.573l0.196-0.848l0.089-0.575l-0.595-1.145l-0.307-0.372l-0.62-0.181l-0.385-0.371
						l-0.605-0.327l-0.318-0.444l-0.827-0.445l-0.833-0.13l-0.922-0.709l-0.302-0.389l-0.512-0.396l-0.401-0.475l-0.533-0.254
						l-0.834-0.984l-0.376-0.557l-1.165-1.08l-1.834-0.018l-1.223,0.656v-0.221l-0.054,0.262l-0.523,0.09l-0.28,0.27l-0.321,0.408
						l-0.552,0.168l-0.575-0.168l-0.563-0.271l-0.34-0.251l-0.72,0.251h-0.479l-0.813,0.588l-0.41,0.399l-0.146,0.402l0.055,0.271
						l0.091,0.194l-0.069,0.648l-0.386,0.244l-0.771,0.342l-0.426,0.27l-1.604,0.691l-0.055,0.419l-0.246,0.082l-0.777,0.775
						l-0.504,0.463l-0.043,1.037l0.517,0.311l-0.239,0.322l-0.236,0.599l-0.111,0.375l-0.136,0.343l0.136,0.188l-0.504,0.146
						l-0.448,0.289l-0.649,0.477l-0.425,0.751l-0.532,0.115l-0.722,0.025l-0.901,0.278l-0.617,0.155l-1.219,0.274l-0.691,0.406
						h-0.348l-0.426-0.17l-0.1-0.436l-0.113-0.143l-0.067-0.295l-0.321-0.096l-0.692-0.325l-0.168-0.193l-0.851,0.058l-0.462-0.134
						l-0.467,0.27l-0.653,0.021l-0.399-0.099h-0.564l-0.188-0.191l0.343-0.465l0.218-0.486l-0.079-0.174l0.06-0.858l0.058-0.258
						l-0.599,0.064l0.032-0.41l-0.113-0.021l-0.132-0.391l0.056-0.8h0.076l0.326-0.408l0.099-0.553l0.347-0.919l0.19-1.088
						l0.024-0.619l0.062-0.388v-0.232l-0.13-0.355l0.245-0.182l-0.201-0.436l-0.128-0.289l-0.211-0.352v-0.217l0.54-0.311
						l0.493-0.137l0.164-0.114l0.035-0.199l0.442-0.104l0.191,0.059l0.751,0.245l1.288-0.044l0.321-0.031l0.325,0.075l1.483,0.114
						l0.639-0.074l0.518-0.04l0.446,0.251l0.464-0.193l0.692,0.155l0.617-0.043h0.48l0.19-0.015l0.403-0.261l0.423-1.326
						l0.259-1.276l0.567,0.298l-0.417-1.037l0.04-0.403v-0.458l-0.5-0.234l-0.762-0.357l-0.23-0.56l-0.028-0.236l-0.031-0.125
						l-0.27-0.252l-0.383-0.273l-0.31-0.206h-0.552l-0.59-0.346h-0.784l-0.31-0.368l0.275-0.187l-0.115-0.18l-0.408-0.139v-0.283
						l0.558-0.062l0.591-0.14l0.411-0.132l0.504,0.049l0.203,0.223l0.423-0.017l0.433,0.017l0.613,0.108v-0.297l0.08-0.427
						l-0.08-0.509l-0.13-0.456l0.297-0.03l0.383,0.148l0.261,0.4l0.272,0.293l0.348-0.136l0.696-0.257l0.236-0.055l0.052-0.246
						l0.428-0.213l0.59-0.162l0.811-0.361l0.162-0.306l0.132-0.351l0.302-0.329l0.655-0.058l0.661-0.215l0.833-0.484l0.378,0.128
						l0.448,0.041l0.35,0.051l-0.196-0.314l-0.246-0.105l0.343-0.141l-0.378-0.261l0.435-0.671l0.293-0.746l0.229,0.066l0.188,0.144
						l0.059,0.287l0.023,0.197l-0.114,0.27h0.309l0.255-0.27l0.152-0.246v-0.283l-0.217-0.375l0.307-0.215l0.494-0.035l0.66-0.02
						l-0.057,0.29l0.121-0.169l0.172-0.238l0.466-0.166l0.224-0.047h0.539l-0.02,0.191l0.18,0.098l0.035-0.213l0.307,0.056
						l0.136-0.325l0.29-0.346l0.505,0.132l0.479,0.23l-0.6-0.398l-0.285-0.099l0.019-0.271l-0.202-0.174l-0.286-0.111l0.186-0.16
						l-0.353-0.447l0.091-0.104l-0.091-0.391l-0.286-0.178l-0.126-0.248l-0.132-0.311l-0.207-0.21l0.089-0.357l-0.089-0.297
						l-0.121-0.51l0.43,0.159l0.264-0.013l0.081-0.327l0.207,0.14l0.136,0.219l0.207-0.46l0.256-0.045l0.371,0.286l0.171,0.449
						l0.097,0.146l0.76,0.205l-0.312,0.19l-0.345,0.292l-0.276,0.381l-0.191,0.311l-0.081,0.526l0.348,0.181l-0.076,0.093
						l0.151,0.34l0.447,0.173l0.336-0.014l0.394,0.075l0.051,0.474l0.509,0.022l0.596,0.064l0.498-0.023l0.646-0.04l0.633-0.319
						l0.199,0.075l-0.275,0.049l0.023,0.173l0.509-0.173l0.429,0.03l0.156-0.079l0.259-0.14l0.302,0.447l0.443,0.347l0.266,0.018
						l0.573-0.54l1.168-0.207h0.525l0.69-0.105l1.036-0.447l1.372,0.109l0.52,0.338l-0.041,0.105l-0.29-0.137l0.114,0.383
						l0.563,0.051l0.249-0.324l0.07,0.041l-0.245,0.369l0.175,0.018l0.209-0.325l0.387-0.103l-0.419-0.109l-0.155-0.102l0.209-0.13
						l0.454-0.043l0.618-0.34l0.109,0.168l0.337-0.085l-0.125-0.96l-0.062-1.038l0.152-0.945l0.791-0.58l0.5,0.037l0.559,0.406
						l0.487,0.557l0.653,0.2l0.577-0.405l-0.154-0.85l-0.348-0.404l-0.347-0.136l-0.482-0.484l0.334-0.091l-0.491-0.393l0.157-0.289
						l0.673-0.242l0.504-0.049l0.229-0.054l0.288-0.022h0.21l0.323,0.059l0.267,0.066l0.426,0.145l0.727,0.199l0.574,0.065
						l0.641-0.065l-0.092-0.446l0.229,0.141h0.229l0.291-0.141l0.421-0.136l1.002,0.041l0.37-0.439l-0.343-0.043l-0.49-0.013
						l-0.595-0.104l-0.503-0.138l-0.734-0.265l-0.386-0.061l-1.153-0.051l-0.4-0.021l-1.028,0.146l-0.502,0.078l-0.587,0.063
						l-0.337,0.057h-0.41l-0.648-0.057l-0.64,0.327l-0.484,0.125l-0.397,0.106l0.02-0.422l-0.299-0.527l-0.661,0.049l-0.183-0.219
						l-0.432-0.443l-0.07-0.518l-0.249-0.331l-0.207-0.34l-0.078-0.355l-0.049-0.197l0.198-0.316l0.147-0.137l0.21-0.141
						l0.259-0.031l0.235-0.178l0.303-0.195l0.235-0.166l0.272-0.133l0.369-0.125l0.377-0.158l0.593-0.302l0.531-0.349h0.481
						l-0.137-0.48l-1.445-0.597l-0.421-0.248l-0.321,0.15h-0.146l-0.404-0.011l-0.521-0.14l-0.329,0.018l-0.076,0.132l-0.17,0.052
						l-0.468,0.182l0.018,0.827l-0.632,0.696l-0.439,0.211l-0.426,0.141l-0.289,0.216l-0.287,0.142l-1.01,0.157l-0.302,0.134
						l-0.201,0.146l-0.307-0.012l-0.13,0.141l-0.077,1.115l0.366,1.361l0.454,0.171l0.181-0.13l0.75,0.447l0.385,0.481l-0.578,0.125
						l0.622,0.087l-0.622,0.611l-0.148,0.107l-0.591-0.213l-0.588,0.344h-0.569l0.626,0.408l-0.211,0.459v0.92l-0.127,1.18
						l-0.604,0.732l-1.048-0.114l-0.148,0.072l-0.257,0.253l-0.013,0.584h-0.517h-0.743l-1.062-0.663l-0.48-0.614l0.355-0.267
						l-0.452-0.405l-0.711-1.066l-0.09-0.055l-0.196-0.213l-0.213-0.135l-0.121-0.186l-0.362-0.537l-0.17-0.602l-0.412-0.096
						l-0.359-0.162l-0.157-0.945l-0.269,0.471l-0.059,0.863l-0.803-0.275l-0.431,0.932l-0.979,0.461l-1.083,0.098l-0.581-0.021
						l0.076-0.14l-0.494-0.397l-1.005-0.352l-0.541-0.77l0.517-0.058l0.347,0.099l0.21-1.002l-0.826,0.507l-0.248-0.025
						l-0.327,0.294l0.289-0.938l0.445-0.202l-0.211-0.011l-0.186-0.145l-0.107-0.115l-0.133-0.092l-0.097,0.029l-0.389-0.271
						l0.605-0.262l-0.491-0.193l0.085-0.313l0.528-0.015l0.566,0.015h0.369h0.531l0.547-0.206l-0.706,0.069l-0.453-0.023h-0.323
						h-0.579l-0.36,0.071l0.32-0.505l-0.367-0.518l0.599-0.197l1.111-0.486l0.775,0.021l0.16-0.504h0.749l0.949-0.213l0.784-0.215
						l0.407-0.088l0.48,0.056l0.624,0.114l0.228-0.382l-1.332,0.013l0.268-0.347l0.695-0.401l0.633-0.469l0.599-0.611l0.875-0.639
						l0.421-0.348l0.444-0.527l0.638-0.326l0.809-0.276l0.654-0.374l0.65-0.472l0.752-0.331l0.44-0.384l1.41-0.271l0.386-0.045
						l0.49-0.017l0.513-0.044l0.564-0.09l0.42-0.143l0.29-0.148l0.393-0.123l0.4-0.005l0.445,0.005h0.498l0.564-0.207l0.632,0.082
						l0.98,0.191l0.196-0.926l0.596-0.045l0.337,0.045v0.516l0.048,0.467l0.797-0.913l0.291,0.646l0.437-0.584l0.224,0.584
						l0.526-0.117l0.44,0.055l0.275,0.161l1.046,0.345l-1.204,0.097l1.047,0.342l0.717,0.102l0.308-0.058l1.104,0.111l-0.812,0.041
						l1.192,0.287l0.531,0.043l0.27-0.043l0.991-0.041l1.397,0.287l1.494,0.309l1.39,0.291l1.496,0.332l1.34,0.25l0.774,0.27
						l0.457,0.206l0.827,0.778l-0.081,0.246l-1.44,0.758c-0.205,0.06-0.424-0.252-3.163-0.41c-3.513-0.236-2.486-1.038-2.992-0.7
						l-0.692-0.146l-0.257-0.056l-0.28-0.023l-0.334-0.029l-0.537-0.083l-0.347-0.083l-0.151,0.096l1.289,0.393l0.326,0.168
						l0.447,0.408l0.673,0.074l0.609,0.152l0.485,0.164l0.161,0.136l-0.068,0.397l0.255,0.447l0.358,0.355
						c0.487,0.318-0.909,0.114,0.344,0.372l1.135,0.279l1.85,0.407l0.464-0.265l-0.852-0.405c-1.371-0.07-0.566-0.225-1.018-0.423
						l0.208-0.246h0.386l0.596,0.021l0.34,0.173l0.068,0.128l1.314,0.033l0.697,0.051h0.591h0.308l-1.771-1.043l0.579-0.342
						l1.081-0.35l1.097-0.043l0.251,0.102l0.952,0.291l0.091,0.06l0.537-0.038l0.091-0.779l-0.497-0.262l-0.478-0.9l-0.983-0.969
						c0.072-0.043,0.773,0.208,2.058,0.533l0.383,0.403l0.257,0.466l0.267,0.524l0.956,0.365h0.626l0.267,0.042h0.369h0.28
						l0.202-0.161l0.191-0.195l-0.252-0.401v-0.289l0.252,0.021l0.313-0.061C373.168,184.114,386.748,206.258,391.886,231.45z"/>
					<polygon style="fill:#8BD2CE;" points="313.009,203.403 313.427,203.423 313.779,203.145 314.159,203.155 314.397,203.627 
						314.556,204.196 314.52,204.716 314.52,205.23 314.52,205.638 314.461,206.311 313.929,206.086 313.914,206.589 
						313.479,206.589 313.084,206.104 313.15,205.122 313.125,204.716 313.057,204.064 312.78,203.709 312.857,203.403 					"/>
					<polygon style="fill:#8BD2CE;" points="312.895,201.148 312.931,200.877 313.239,200.685 313.779,200.366 313.971,200.572 
						314.108,201.148 314.108,202.122 313.914,202.89 313.515,202.575 313.225,202.349 313.125,202.122 312.99,201.613 					"/>
					<polygon style="fill:#8BD2CE;" points="319.221,208.329 319.814,208.032 320.682,208.047 321.224,208.244 321.92,208.14 
						322.687,207.97 323.25,207.894 323.592,207.894 323.212,208.682 323.072,209.168 323.072,209.824 322.781,210.253 
						322.027,210.086 321.224,209.689 320.397,209.23 319.678,208.862 					"/>
					<polygon style="fill:#8BD2CE;" points="310.982,179.714 311.213,179.472 311.564,179.357 311.958,179.381 312.589,178.989 
						313.057,178.854 313.057,179.168 312.931,179.629 312.78,179.847 312.291,179.472 311.927,179.584 311.427,179.584 
						311.193,179.999 					"/>
					<polygon style="fill:#8BD2CE;" points="313.878,181.985 313.929,182.371 313.165,182.325 312.78,182.176 312.72,181.985 
						313.125,181.948 313.591,181.948 					"/>
					<polygon style="fill:#8BD2CE;" points="315.397,181.111 315.323,181.039 315.761,180.842 315.86,181.179 315.745,181.62 
						315.788,182.118 315.628,182.59 314.92,182.477 315.092,182.267 314.375,182.249 314.159,181.62 314.747,181.392 
						314.882,181.204 315.168,181.204 315.397,181.364 315.628,181.332 					"/>
					<path style="fill:#8BD2CE;" d="M203.816,172.351c-0.01,0.068,0.062,0.24-0.566,0.547
						C203.441,172.716,203.63,172.537,203.816,172.351z"/>
					<path style="fill:#8BD2CE;" d="M200.123,176.027l0.176,0.175l0.937-0.33l0.465,0.671v0.964l-0.743,0.329l-0.639,0.333
						l0.427-0.135h0.389l2.384-0.227l2.216,0.857l0.269,0.309l0.492,0.141l1.173,0.616l1.111,0.181l1.178,0.068l0.612,0.091
						l0.061,0.334l-0.331,0.831l-0.343,0.207l-0.214,0.06l-1.034-0.06l1.199,0.676l-0.787,0.574
						c1.587,0.215,0.514,1.396,0.972,1.611l-0.696,0.671l0.904-0.429l0.331,0.408v0.48l0.332,0.039l0.209-0.118l1.029-0.509
						l0.768,0.954l0.309-0.571l-0.426-0.684c0.056-0.403,1.501,0,1.501-1.256l0.217-0.849c0.115-1.206-0.039-1.156-0.139-1.109
						l-0.132-0.153l-0.273-0.535c0.199-0.258,3.247-0.125,5.432-2.299c2.728-2.718-0.458-2.881,0.216-3.299
						c0.352-0.236-0.59-0.387,1.069-0.871l0.866-0.425l0.532-0.884c1.436-0.844-0.665-0.123,0.637-1.007l1.142-1.835l2.795,0.264
						l1.406-0.047l1.833,0.424l0.661,0.887l0.537,0.084l0.345-0.084v0.561l0.889-0.18l-0.56,0.523
						c-1.348,0.287,0.999,0.607-1.105,0.907l0.62,0.153l-1.388,1.293l1.272,0.252l-1.026,0.152l-0.709,0.586l0.593,0.453l2.119-0.83
						l0.183,0.252l0.221,0.125l1.531-1.234l0.304,0.17l0.105,0.293l0.822-0.816l0.619-0.996l1.202-0.814l0.591,0.662l0.194,0.591
						l0.292,0.753l0.29,1.14c0.984,0.364,0.483,1.058-0.852,1.196l1.335-0.139v0.987l0.404,1.134l0.266,0.152l0.327,0.216
						l0.39,0.089l0.213,0.139l0.32,0.199l0.37,0.193l0.582,0.33l-2.614,0.475c-1.452,0,0.257,0.09-1.286,0.66l2.765-0.508
						l1.518-0.188v0.496l0.722-0.138l0.301,0.755l0.097,0.556c-0.398,0.047,1.025,0.438-0.494,1.138l-0.912,0.26l-1.049,0.397
						l-0.923,0.539l-0.019,0.081l-0.633,0.279l-0.154,0.197c0,0-0.122-0.105-1.504,0.43c-1.259,0.479-1.391,0.399-1.608,0.303
						l-1.292,0.044h-0.908c-0.245-0.06-0.699-0.159-2.515,0c-2.666,0.244-3.35,0.376-3.321,0.794l-1.598,0.654l-1.24,0.517
						l-0.723,0.401l-3.421,2.123l-1.385,1.073l1.635-0.918c1.037-0.732,5.135-2.426,6.62-2.68c1.54-0.245,2.323,0.12,2.219,0.425
						l-0.297,0.057l0.176,0.351l-1.387,0.522l-0.712,0.2l-0.752,0.201l0.617,0.118h0.768l-0.848,0.887l0.908,1.551l1.421,0.624
						l0.988,0.19l0.463-0.033l0.291,0.057l0.426,0.127l-0.849,0.715l-1.8,0.699l-0.308,0.1l-0.558,0.118l-1.181,0.309l-0.519,0.559
						l-1.451,0.671l-0.343,0.351l-0.321-0.62l1.114-1.525l1.754-0.514l0.178-0.029l1.402-0.267h-1.402l-0.731,0.063l-0.523,0.086
						l0.579-1.056l-1.015,0.97l-1.2,0.246l-0.406,0.171l-1.744,1.023l-1.131,0.255l-0.276,0.096l-0.173-0.176l-0.691,0.656
						l-0.447,0.081l-1.67,0.819l-0.889,0.908l-0.326,1.162l0.431,0.17l-0.105,0.426l-1.288-0.041l-1.119,0.588
						c-0.633-0.246,0.03,0.098-1.156,0.143c-1.189,0.063-1.179,0.715-1.717,0.828l-0.386,0.309l-0.189,0.59l-0.815,0.648
						l-0.789-0.124l0.44,0.524l-0.405,0.122l-0.269,0.14l-0.836,0.699l-0.475,0.221l-0.575-0.89l0.233,0.622l0.284,0.595
						l-0.326,0.755l-0.057,0.307l-0.273,0.476l0.329-0.783l0.042-0.118l-1.176,1.604l0.062-0.484l-0.142-0.94l-0.058-0.718
						l0.266-0.618l-0.512,0.055l-0.545,0.775l-0.354,0.34l0.545,0.869l-0.213-0.031l-0.385-0.059l0.211,0.783l0.387,1.18
						l-0.191,1.25h-0.407l-0.601-0.146l0.297,0.381l0.357,0.1l0.084-0.051l0.075,0.475l-0.968,0.12l-0.169,0.375l0.099,0.184h0.133
						l-0.935,0.724l-1.316,0.736l-0.719,0.476l-0.828,0.51l-1.378,0.688l-0.834,0.808l-1.047,0.441l-0.094-0.072l-0.753,0.201
						l-0.08,0.034l-0.111,0.602l-0.689,0.614c-1.813,2.229-1.123,2.168-1.473,2.578l0.044,2.582l0.134,0.349l0.016,0.141
						l0.083,1.758l-0.14-0.523l-0.153-0.252l0.482,1.891l-0.496,2.166l-0.242,0.783l-0.519,0.15l-0.201,0.137l-0.34,0.043
						l-0.679-0.088l0.147-0.211l0.365-0.308l-0.512-0.558l-0.604-0.887l0.032-0.846l-0.26-0.168
						c-0.646-1.477,0.015-1.331-0.259-1.758l0.612-2.247l-0.722-0.899l-1.229-0.266l-0.922,0.266l-0.283,0.014l-0.369-0.129
						c0.369-0.15-0.13-0.234-1.595-0.621c-1.452-0.33,0.986-0.284,0.65-0.389l-1.364,0.119l-1.371-0.037l-0.621,0.38l-0.425-0.476
						l-0.108,0.476l-0.651,0.201h-0.444l-0.949-0.071l-0.543,0.046l0.825,0.792l0.314,0.459l0.126,0.512l-0.646-0.158l-0.233,0.073
						l-0.445-0.053l-1.391-0.353l-0.097-0.047l-0.248-0.146l-0.73,0.076l-0.926-0.209l-1.873,0.116l-1.137,0.615l0.366-0.823
						l-0.688,0.75l-0.471,0.558l-0.929,0.521C178.391,204.769,187.739,188.935,200.123,176.027z"/>
					<polygon style="fill:#8BD2CE;" points="234.297,192.07 234.297,192.474 233.612,192.685 232.946,192.84 232.464,192.799 
						232.668,192.097 233.792,191.274 233.906,191.45 233.746,191.971 					"/>
					<polygon style="fill:#8BD2CE;" points="231.098,192.28 230.72,192.241 230.613,192.149 230.259,192.097 230.008,192.16 
						229.577,192.028 229.434,191.888 229.217,191.784 229.145,191.624 228.949,191.543 229.217,191.121 229.864,191.543 
						230.16,191.605 230.957,191.661 231.517,191.702 231.071,191.971 					"/>
					<polygon style="fill:#8BD2CE;" points="211.87,240.204 212.234,239.993 213.413,240.092 213.818,240.092 214.105,240.092 
						214.105,240.435 213.758,240.759 213.183,240.759 212.442,240.819 211.905,240.819 211.985,240.385 					"/>
					<polygon style="fill:#8BD2CE;" points="204.708,240.495 204.293,240.34 203.173,240.401 202.31,240.241 201.744,240.427 
						201.491,240.427 200.958,240.155 200.898,239.804 201.477,239.605 202.092,239.673 202.669,239.605 203.302,239.476 
						203.949,239.456 203.485,239.127 203.242,238.698 203.25,238.302 203.242,238.015 202.821,237.744 202.636,237.348 
						203.25,237.271 203.714,237.271 204.273,237.427 204.617,237.354 205.081,237.354 205.314,237.271 205.792,237.189 
						206.24,237.144 206.919,237.348 207.256,237.61 207.881,237.62 207.978,238.015 208.779,238.067 208.574,238.278 
						207.897,238.392 208.366,238.495 209.464,238.8 210.301,239.418 209.958,240.023 209.669,240.155 209.316,240.34 
						208.646,239.804 208.018,239.993 207.47,239.993 206.966,240.23 206.686,240.092 206.27,240.241 206.078,240.618 
						205.636,240.96 205.191,241.073 204.708,241.073 204.77,240.703 					"/>
					<polygon style="fill:#8BD2CE;" points="197.457,237.477 196.693,237.61 196.426,237.348 196.965,237.023 197.457,236.747 
						197.471,236.515 197.309,236.2 196.858,236.159 196.426,236.084 195.873,235.89 195.639,235.527 195.582,234.886 
						195.369,234.638 195.191,234.571 194.623,234.551 193.689,234.13 193.046,233.837 192.84,233.476 192.413,233.476 
						191.226,233.523 190.488,233.268 190.176,233.136 190.734,233.034 191.248,232.924 191.154,232.71 189.357,232.61 
						189.019,232.884 188.555,233.204 187.901,233.308 187.558,233.523 187.35,233.793 186.938,233.96 186.745,233.848 
						186.284,234.056 185.919,233.886 186.527,233.635 186.954,233.439 186.693,233.099 187.038,232.532 187.35,232.326 
						188.555,231.921 189.234,231.666 190.021,231.666 190.241,231.575 191.534,231.611 192.351,231.819 192.739,231.863 
						193.451,232.049 193.857,232.326 194.466,232.688 195.118,233.034 195.846,233.577 196.372,233.754 196.574,233.635 
						196.965,233.98 196.898,234.148 197.235,234.13 198.333,234.733 199.033,235.036 199.456,235.036 200.085,235.118 
						199.975,235.527 199.685,235.831 199.955,235.948 200.319,236.005 200.711,236.005 201.204,236.2 201.491,236.351 
						202.011,236.645 201.94,236.888 201.204,237.023 200.489,237.271 200.085,237.354 199.233,237.271 198.915,237.348 
						198.312,237.409 					"/>
					<polygon style="fill:#8BD2CE;" points="198.062,240.868 197.66,241.054 196.898,241.073 196.658,241.073 196.405,241.196 
						196.256,241.269 196.191,241.399 195.656,241.054 195.248,240.638 194.825,240.287 194.555,239.979 195.248,239.821 
						195.386,239.821 196.002,239.821 196.851,240.07 197.52,240.495 					"/>
					<polygon style="fill:#8BD2CE;" points="188.596,234.362 188.532,234.253 188.827,234.056 189.155,234.13 189.224,234.148 
						189.224,234.282 189.357,234.407 189.319,234.517 189.284,234.694 188.754,234.836 188.445,234.571 188.407,234.571 
						188.407,234.551 188.445,234.571 188.611,234.622 188.687,234.502 					"/>
					<path style="fill:#8BD2CE;" d="M168.669,254.018c0-4.583,0.31-9.093,0.851-13.539l0.034,0.017l1.389,0.143l2.012-0.614
						l1.458-0.419h0.376l0.234,0.132l0.694-0.72l0.818-1.308l0.208-1.704l2.461-1.014l0.752-0.088l1.143-0.067l0.693-0.064
						l0.402,0.193l0.333,0.291l0.206,0.271l-0.749,1.249l-0.691,0.933v0.147l-0.036,0.535l-0.989,1.993l-0.39,1.081l-0.076-1.336
						l-0.441,0.629l-0.079,1.594l-0.753,1.653l-0.651,0.919l0.078,0.097l0.424,0.095h0.803l0.695-0.105l1.583-0.061l1.621-0.025
						h0.185h0.146h0.209l0.885,0.155l-0.113,0.308l-0.2,0.105l0.655,0.183l0.297-0.055l0.29-0.027l0.848,0.818l-0.237,0.653
						l-0.418,1.323l-0.107,1.031l-0.128,1.182l-0.305,0.465l0.134,0.236l-0.076,0.457v0.479l-0.129,0.768v1.438l0.183,0.491
						l0.975,1.677l0.519,0.434l0.017,0.234l0.035,0.426l0.208-0.339l0.563,0.505h1.567l1.234-0.426l0.124,0.342l-0.105,0.212
						l0.461-0.167l-0.063-0.328l0.42-0.68l0.858-0.02l0.31,0.096l0.723,0.379l0.405,0.492l0.731,0.621l1.125,1.123l-0.189-0.336
						l0.251-0.182l-0.35-0.475l0.827-0.811l0.79-0.523h0.126l0.203-0.884l0.215-1.224l1.233-0.992
						c1.307-0.459-0.122,0.35,0.693,0.381l0.908-0.985c0.594,0.021,0.553-0.142,1.997-0.857c1.529-0.718,0.156-0.988,0.893-0.988
						l0.923-0.157l0.121,0.958l-0.431,0.433l0.256,1.217l-0.1,0.402l-0.066,0.313l-1.059,1.234l0.752,0.957l1.197-0.036
						l-0.281-1.457l-0.212-0.483l0.329-0.855l1.359-0.82l0.622-0.424l0.288-0.163l-0.363-0.129l-0.395-0.427l0.872,0.154
						l0.819,0.602l0.57,0.108l0.26,0.067l0.496,0.805c-0.406,0.193,0.179,0.705,1.481,0.506c1.372-0.134,2.611-0.004,2.301,0.295
						c-0.202,0.344,0.311,0.642,1.887,0.455c1.541-0.174,0.402-0.635,1.541-0.75c-1.332-0.18-0.628-0.329,0.188-0.197l0.682-0.018
						l0.658-0.045l0.924,0.08l0.154,0.023l-1.428,0.245l-0.196,0.189l0.773,1.131l1.065,0.33l0.981,1.185l0.244,0.339l0.268,0.275
						l-0.765,0.48l0.946,0.131l0.801,0.501l1.916,0.882l0.517,1.86l0.946,0.181l0.813,0.877l-0.387,1.567l0.714-0.799h1.065
						l0.927,0.124l0.582-0.052l0.275,0.052l0.617-0.124l0.317-0.076l1.288,0.456l0.577,0.102l1.29,0.778l0.337,0.157l0.261,0.233
						l0.517,0.553l0.467,0.864l0.677,0.528l0.285,0.191l0.065,0.276l1.198,3.649l0.395,1.615l-1.057,1.364l-0.838,2.136
						l-0.765,1.048l0.834,1.325l-0.194-1.115l1.277-1.176l0.328-1.344l0.906-0.436l0.784,0.061l1.831,0.389l-0.639,1.273
						l-0.453,1.118l-0.584,0.145l-0.752,0.241l-0.537,0.117l-0.854,0.15l0.565,0.084l0.968-0.025c1.194-0.712-0.272,0.235,0.71,1.38
						c-0.327-1.38,0.429-1.807,0.828-1.726c0.407,0.02-0.087-1.223,1.392-1.608c1.42-0.363,1.42,0.472,3.409,1.472
						c2.039,0.928,1.582,1.096,1.127,1.303l0.281,1.227l1.616-0.14c1.313,0.771,3.08,1.194,3.399,1.017l2.911,0.891l3.056,2.083
						l1.37,0.253l1.658,0.693l0.909,3.191l-0.574,4.044c-0.873,0.946-0.89,1.712-2.124,2.784c-1.45,1.313-1.254,3.661-2.488,4.654
						l-0.673-0.095l-0.132,0.579c0.381,0.766-0.35,1.693,0.381,3.32c0.587,1.3-0.306,1.628-0.089,3.486
						c0.232,1.846-1.011,1.058-0.313,2.617c0.65,1.549-1.164,0.82-0.698,2.552c0.542,2.017-1.655,1.591-1.37,3.451
						c0.212,1.453-0.501,0.882-1.035,1.497l-1.329,0.692l-0.329-0.017l-1.096,0.033l-1.105,0.175
						c-0.482,0.694-1.142,0.678-2.973,2.481c-1.772,1.803-0.614,2.871-0.671,3.223c-0.208,1.33,0.92,2.223,0.169,2.857
						c-0.746,0.643,0.698,0.594-1.118,1.795c-1.782,1.176-0.447,1.642-1.095,2.604c-0.672,0.936,0.309,2.156-1.172,3.052
						c-1.507,0.907,0.652,0.974-1.852,2.632c-0.814,1.293-2.741,1.484-3.371,0.908l-0.887-0.193l-0.628-0.12
						c-0.442-0.478-2.113,0.225-2.404-2.139c-0.515,1.66,1,1.544,0.186,1.873c-0.792,0.266,3.075,0.834,3.01,2.239
						c-0.075,1.316,0.51,1.316,0.86,1.268l0.268,0.12c0.476,1.307,0.034,1.001-0.161,1.731c-0.568,1.897-1.367,1.348-2.359,1.897
						c-1.514,0.699-2.477,0.567-3.001,0.435l-0.404-0.089l-0.357-0.159l-0.283-0.113v0.692l0.464,0.618l-0.111,0.654l0.167,1.165
						l-2.049,0.818l-1.051-0.441l-0.436,0.441c1.647,0.975-0.179,1.956,1.385,1.87l0.551,0.139l0.192-0.426l0.564,0.716
						l-0.509,0.229l-1.135,0.042l1.08,0.32l-0.517,0.678l0.079,0.993l-0.043,0.281C192.674,334.164,168.669,296.852,168.669,254.018
						z"/>
				</g>
			</g>
		</g>
		<g>
			<g>
				<rect x="187.197" y="120.277" style="fill:#273B4E;" width="39.285" height="12.132"/>
				<rect x="172.791" y="111.106" style="fill:#405A73;" width="68.097" height="12.131"/>
				<path style="fill:#273B4E;" d="M309.59,104.334c0,1.62-1.315,2.935-2.936,2.935l0,0c-1.621,0-2.936-1.314-2.936-2.935V54.579
					c0-1.62,1.315-2.937,2.936-2.937l0,0c1.621,0,2.936,1.316,2.936,2.937V104.334z"/>
				<path style="fill:#89D4E5;" d="M259.943,105.168c-6.603-23.107-27.878-40.021-53.103-40.021
					c-25.227,0-46.501,16.913-53.105,40.021H259.943z"/>
				<path style="fill:#273B4E;" d="M309.314,109.017c0-2.126-1.929-3.849-4.307-3.849H108.672c-2.378,0-4.306,1.723-4.306,3.849l0,0
					c0,2.127,1.927,3.851,4.306,3.851h196.335C307.385,112.867,309.314,111.144,309.314,109.017L309.314,109.017z"/>
				<g>
					<g>
						<g>
							<rect x="308.643" y="50.743" style="fill:#808285;" width="64.929" height="4.392"/>
							<rect x="243.714" y="50.743" style="fill:#A7A9AC;" width="64.929" height="4.392"/>
						</g>
						<circle style="fill:#89D4E5;" cx="308.643" cy="52.938" r="6.22"/>
						<path style="fill:#89D4E5;" d="M328.822,112.867c-2.508-8.78-10.594-15.208-20.179-15.208c-9.586,0-17.671,6.428-20.18,15.208
							H328.822z"/>
					</g>
					<g>
						<g>
							<rect x="105.036" y="50.743" style="fill:#808285;" width="64.93" height="4.392"/>
							<rect x="40.107" y="50.743" style="fill:#A7A9AC;" width="64.929" height="4.392"/>
						</g>
						<path style="fill:#273B4E;" d="M107.973,104.334c0,1.62-1.315,2.935-2.937,2.935l0,0c-1.62,0-2.935-1.314-2.935-2.935V54.579
							c0-1.62,1.315-2.937,2.935-2.937l0,0c1.622,0,2.937,1.316,2.937,2.937V104.334z"/>
						<path style="fill:#89D4E5;" d="M126.557,112.867c-2.51-8.78-10.594-15.208-20.18-15.208c-9.586,0-17.67,6.428-20.181,15.208
							H126.557z"/>
						<path style="fill:#89D4E5;" d="M111.257,52.938c0,3.438-2.785,6.221-6.221,6.221c-3.436,0-6.22-2.782-6.22-6.221
							c0-3.436,2.784-6.221,6.22-6.221C108.472,46.718,111.257,49.503,111.257,52.938z"/>
					</g>
				</g>
				<g>
					<path style="fill:#132536;" d="M236.605,153.973c-1.302,0-2.358-1.058-2.358-2.361v-12.234c0-1.304,1.056-2.359,2.358-2.359
						h3.441c1.302,0,2.357,1.056,2.357,2.359v12.234c0,1.304-1.055,2.361-2.357,2.361H236.605z"/>
					<path style="fill:#405A73;" d="M238.335,170.849c0,3.008-2.439,5.445-5.447,5.445h-52.906c-3.009,0-5.447-2.438-5.447-5.445
						v-34.502c0-3.01,2.438-5.449,5.447-5.449h52.906c3.008,0,5.447,2.439,5.447,5.449V170.849z"/>
					<g>
						<path style="fill:#132536;" d="M226.492,153.595c0,11.078-8.98,20.059-20.059,20.059c-11.077,0-20.056-8.98-20.056-20.059
							c0-11.076,8.979-20.057,20.056-20.057C217.511,133.538,226.492,142.519,226.492,153.595z"/>
						<path style="fill:#E6E7E8;" d="M223.137,153.595c0,9.226-7.479,16.705-16.704,16.705c-9.224,0-16.702-7.48-16.702-16.705
							c0-9.225,7.478-16.7,16.702-16.7C215.658,136.895,223.137,144.37,223.137,153.595z"/>
						<path style="fill:#8AD4E1;" d="M221.508,153.595c0,8.326-6.749,15.074-15.075,15.074c-8.324,0-15.073-6.748-15.073-15.074
							c0-8.326,6.749-15.075,15.073-15.075C214.758,138.52,221.508,145.269,221.508,153.595z"/>
						<path style="fill:#5BC9E1;" d="M213.874,153.595c0,4.109-3.331,7.441-7.441,7.441c-4.11,0-7.44-3.332-7.44-7.441
							c0-4.11,3.33-7.442,7.44-7.442C210.543,146.152,213.874,149.484,213.874,153.595z"/>
						<path style="fill:#3D8B9D;" d="M210.488,153.595c0,2.241-1.816,4.055-4.055,4.055c-2.238,0-4.052-1.813-4.052-4.055
							c0-2.239,1.814-4.052,4.052-4.052C208.672,149.543,210.488,151.355,210.488,153.595z"/>
						<path style="fill:#ABDFEA;" d="M215.562,145.584c0,2.819-4.087,5.105-9.129,5.105c-5.041,0-9.128-2.285-9.128-5.105
							c0-2.821,4.087-5.107,9.128-5.107C211.475,140.477,215.562,142.763,215.562,145.584z"/>
						<path style="fill:#80D2E6;" d="M206.433,150.689c2.357,0,4.499-0.505,6.117-1.324c-1.342-1.938-3.58-3.212-6.117-3.212
							c-2.537,0-4.773,1.275-6.117,3.212C201.937,150.184,204.076,150.689,206.433,150.689z"/>
						<path style="fill:#49A2B5;" d="M203.845,150.477c0.819,0.138,1.687,0.212,2.588,0.212c0.901,0,1.77-0.074,2.589-0.212
							c-0.703-0.584-1.604-0.934-2.589-0.934C205.449,149.543,204.546,149.893,203.845,150.477z"/>
					</g>
				</g>
				<path style="fill:#B7E2E7;" d="M231.134,75.262c0,4.067-10.366,7.362-23.152,7.362c-12.787,0-23.152-3.295-23.152-7.362
					c0-4.065,10.365-7.362,23.152-7.362C220.768,67.899,231.134,71.196,231.134,75.262z"/>
				<path style="fill:#B7E2E7;" d="M319.408,103.298c0,1.98-4.819,3.589-10.765,3.589c-5.944,0-10.765-1.608-10.765-3.589
					c0-1.984,4.82-3.588,10.765-3.588C314.589,99.71,319.408,101.313,319.408,103.298z"/>
				<path style="fill:#B7E2E7;" d="M117.142,103.298c0,1.98-4.819,3.589-10.765,3.589c-5.944,0-10.765-1.608-10.765-3.589
					c0-1.984,4.821-3.588,10.765-3.588C112.322,99.71,117.142,101.313,117.142,103.298z"/>
				<path style="fill:#B7E2E7;" d="M109.002,49.548c0,0.907-1.775,1.642-3.966,1.642c-2.19,0-3.967-0.735-3.967-1.642
					c0-0.906,1.777-1.642,3.967-1.642C107.227,47.906,109.002,48.642,109.002,49.548z"/>
				<path style="fill:#B7E2E7;" d="M312.61,49.548c0,0.907-1.777,1.642-3.967,1.642c-2.19,0-3.966-0.735-3.966-1.642
					c0-0.906,1.776-1.642,3.966-1.642C310.833,47.906,312.61,48.642,312.61,49.548z"/>
				<g>
					<path style="fill:#FFFFFF;" d="M225.848,138.52c0,2.145,1.738,3.884,3.882,3.884c2.144,0,3.882-1.739,3.882-3.884
						c0-2.143-1.738-3.881-3.882-3.881C227.586,134.639,225.848,136.377,225.848,138.52z"/>
					<path style="fill:#EF3E31;" d="M226.781,138.52c0,1.629,1.32,2.948,2.949,2.948c1.629,0,2.948-1.319,2.948-2.948
						c0-1.628-1.319-2.948-2.948-2.948C228.102,135.571,226.781,136.892,226.781,138.52z"/>
					<path style="fill:#F37053;" d="M227.787,137.018c0,0.513,0.87,0.933,1.943,0.933s1.944-0.42,1.944-0.933
						c0-0.516-0.871-0.934-1.944-0.934S227.787,136.502,227.787,137.018z"/>
				</g>
			</g>
			<g>
				<g>
					<path style="fill:#6D6E71;" d="M275.94,212.308l-45.024-36.367h-48.801l-45.021,36.367c0,0,3.237,82.416,69.422,118.555
						C272.704,294.724,275.94,212.308,275.94,212.308z"/>
					<path style="fill:#414042;" d="M228.179,182.635h-43.325L144.86,214.94l0.046,1.17c0.028,0.731,0.794,18.204,8.585,39.747
						c7.212,19.951,22.072,47.153,51.909,63.442l1.116,0.609l1.118-0.609c29.837-16.289,44.697-43.491,51.909-63.442
						c7.79-21.543,8.558-39.016,8.585-39.747l0.046-1.17L228.179,182.635z"/>
					<path style="fill:#8DC63F;" d="M265.164,216.395l-38.032-30.721h-41.229l-38.031,30.721c0,0,2.732,69.623,58.644,100.15
						C262.43,286.019,265.164,216.395,265.164,216.395z"/>
					<g>
						<path style="fill:#414042;" d="M151.827,255.381c0,1.092-0.887,1.976-1.977,1.976c-1.093,0-1.977-0.884-1.977-1.976
							c0-1.094,0.884-1.982,1.977-1.982C150.94,253.399,151.827,254.287,151.827,255.381z"/>
						<path style="fill:#414042;" d="M265.164,255.381c0,1.092-0.886,1.976-1.979,1.976c-1.09,0-1.977-0.884-1.977-1.976
							c0-1.094,0.887-1.982,1.977-1.982C264.277,253.399,265.164,254.287,265.164,255.381z"/>
					</g>
					<g>
						<path style="fill:#414042;" d="M174.756,297.243c0,1.093-0.887,1.977-1.979,1.977s-1.98-0.884-1.98-1.977
							c0-1.094,0.888-1.979,1.98-1.979S174.756,296.149,174.756,297.243z"/>
						<path style="fill:#414042;" d="M242.235,297.243c0,1.093-0.887,1.977-1.979,1.977c-1.093,0-1.979-0.884-1.979-1.977
							c0-1.094,0.887-1.979,1.979-1.979C241.348,295.265,242.235,296.149,242.235,297.243z"/>
					</g>
					<g>
						<path style="fill:#414042;" d="M143.045,214.516c0,1.09-0.883,1.978-1.976,1.978c-1.093,0-1.978-0.888-1.978-1.978
							c0-1.093,0.885-1.979,1.978-1.979C142.163,212.536,143.045,213.423,143.045,214.516z"/>
						<path style="fill:#414042;" d="M273.942,214.516c0,1.09-0.885,1.978-1.976,1.978c-1.095,0-1.98-0.888-1.98-1.978
							c0-1.093,0.885-1.979,1.98-1.979C273.058,212.536,273.942,213.423,273.942,214.516z"/>
					</g>
					<path style="fill:#414042;" d="M208.494,325.462c0,1.088-0.884,1.974-1.978,1.974c-1.093,0-1.978-0.886-1.978-1.974
						c0-1.095,0.885-1.98,1.978-1.98C207.609,323.481,208.494,324.367,208.494,325.462z"/>
					<g>
						<path style="fill:#414042;" d="M185.395,179.399c0,1.088-0.886,1.978-1.977,1.978c-1.092,0-1.98-0.89-1.98-1.978
							c0-1.096,0.888-1.979,1.98-1.979C184.509,177.421,185.395,178.304,185.395,179.399z"/>
						<path style="fill:#414042;" d="M231.595,179.399c0,1.088-0.886,1.978-1.979,1.978c-1.091,0-1.978-0.89-1.978-1.978
							c0-1.096,0.887-1.979,1.978-1.979C230.708,177.421,231.595,178.304,231.595,179.399z"/>
					</g>
					<path style="fill:#BCBEC0;" d="M253.441,206.909c-1.328,14.215-9.798,72.862-60.202,100.932
						c4.057,3.139,8.469,6.065,13.283,8.693c55.912-30.529,58.646-100.15,58.646-100.15L253.441,206.909z"/>
				</g>
				<g>
					<polygon style="fill:#F0EFEE;" points="222.244,239.779 222.244,235.804 173.195,235.804 173.195,222.283 168.955,222.283 
						168.955,224.058 165.624,224.058 165.624,222.283 161.693,222.283 161.693,239.779 165.624,239.779 165.624,237.49 
						168.955,237.49 168.955,239.779 					"/>
					<rect x="173.888" y="217.616" style="fill:#F0EFEE;" width="53.288" height="17.495"/>
					<path style="fill:#F0EFEE;" d="M230.761,264.176c0,7.742,4.499,14.033,7.621,14.201v-28.403
						C235.26,250.138,230.761,256.431,230.761,264.176z M232.272,265.216c-0.573,0-1.039-0.466-1.039-1.039
						c0-0.572,0.466-1.039,1.039-1.039c0.574,0,1.037,0.467,1.037,1.039C233.309,264.75,232.846,265.216,232.272,265.216z"/>
					<path style="fill:#F0EFEE;" d="M230.347,261.439h-29.56c0.435,0.816,0.68,1.75,0.68,2.737c0,0.993-0.246,1.923-0.68,2.739
						h29.56c-0.12-0.883-0.188-1.803-0.188-2.739C230.159,263.239,230.227,262.322,230.347,261.439z"/>
					<path style="fill:#F0EFEE;" d="M195.599,258.882c-2.925,0-5.292,2.37-5.292,5.294c0,2.923,2.367,5.293,5.292,5.293
						c2.922,0,5.293-2.37,5.293-5.293C200.893,261.252,198.521,258.882,195.599,258.882z M195.599,261.752
						c-0.513,0-0.938-0.418-0.938-0.936c0-0.518,0.425-0.939,0.938-0.939c0.518,0,0.939,0.421,0.939,0.939
						C196.538,261.334,196.117,261.752,195.599,261.752z M199.187,265.112c-0.516,0-0.938-0.418-0.938-0.936
						c0-0.518,0.422-0.936,0.938-0.936c0.517,0,0.935,0.418,0.935,0.936C200.121,264.694,199.704,265.112,199.187,265.112z"/>
					<path style="fill:#F0EFEE;" d="M192.726,245.886h-0.126v13.252c0.878-0.525,1.902-0.828,2.999-0.828
						c0.888,0,1.727,0.201,2.479,0.555v-12.78c-0.753,0.355-1.591,0.558-2.479,0.558
						C194.554,246.642,193.576,246.364,192.726,245.886z"/>
					<path style="fill:#F0EFEE;" d="M195.599,246.168c3.2,0,5.8-2.563,5.868-5.747H189.73
						C189.799,243.605,192.398,246.168,195.599,246.168z M195.599,243.294c0.575,0,1.038,0.466,1.038,1.04
						c0,0.573-0.463,1.04-1.038,1.04c-0.574,0-1.038-0.467-1.038-1.04C194.562,243.76,195.025,243.294,195.599,243.294z"/>
				</g>
				<g style="opacity:0.2;">
					<path style="fill:#FFFFFF;" d="M148.17,216.032l104.55,48.715c2.571-5.722,4.605-11.328,6.218-16.572L163.46,203.68
						L148.17,216.032z"/>
					<path style="fill:#FFFFFF;" d="M247.647,274.855c1.464-2.621,2.81-5.248,4.038-7.858l-103.813-48.374
						c0.18,2.146,0.562,5.741,1.352,10.368L247.647,274.855z"/>
				</g>
			</g>
		</g>
	</g>
	<g>
		<polygon style="fill:#FAB58F;" points="76.937,304.925 133.523,304.925 133.523,371.497 95.249,371.497 52.935,365.457 
			52.935,318.622 		"/>
		<g>
			<g>
				<path style="fill:#FAB58F;" d="M153.887,314.056c0,3.702-3.001,6.705-6.705,6.705H96.51c-3.704,0-6.707-3.003-6.707-6.705
					v-2.422c0-3.708,3.003-6.709,6.707-6.709h50.672c3.704,0,6.705,3.001,6.705,6.709V314.056z"/>
			</g>
			<g>
				<path style="fill:#FAB58F;" d="M153.887,330.853c0,3.704-3.001,6.705-6.705,6.705H96.51c-3.704,0-6.707-3.001-6.707-6.705
					v-2.424c0-3.702,3.003-6.706,6.707-6.706h50.672c3.704,0,6.705,3.004,6.705,6.706V330.853z"/>
			</g>
			<g>
				<path style="fill:#FAB58F;" d="M153.887,347.844c0,3.704-3.001,6.706-6.705,6.706h-45.454c-3.706,0-6.71-3.002-6.71-6.706
					v-2.423c0-3.702,3.004-6.707,6.71-6.707h45.454c3.704,0,6.705,3.005,6.705,6.707V347.844z"/>
			</g>
			<g>
				<path style="fill:#FAB58F;" d="M153.887,364.793c0,3.704-3.001,6.704-6.705,6.704h-39.868c-3.702,0-6.705-3-6.705-6.704v-2.425
					c0-3.703,3.003-6.705,6.705-6.705h39.868c3.704,0,6.705,3.002,6.705,6.705V364.793z"/>
			</g>
		</g>
		<g>
			<path style="fill:#FAB58F;" d="M108.453,286.877c6.614-11.678-8.624-18.694-8.624-18.694s-4.773,7.668-7.328,11.677
				l-21.658,34.878c-2.56,4.008-1.384,9.334,2.625,11.888l0,0c4.009,2.564,9.554,1.176,12.11-2.832L108.453,286.877z"/>
		</g>
		<g>
			<rect x="0" y="312.843" style="fill:#2C4256;" width="56.88" height="56.703"/>
		</g>
	</g>
</g>
</svg>
