<svg version="1.2" xmlns="http://www.w3.org/2000/svg" viewBox="0 0 3150 1465" width="138" height="64">
	<title>cloudcam-logo-svg</title>
	<style>
		.s0 { fill: #ef8633 } 
	</style>
	<path id="Layer" fill-rule="evenodd" class="s0" d="m2417.3 17.4c70.4 21.1 161.1 54 224.3 82.4 25.6 11.9 83.3 37.5 128.2 57.7 45.8 19.2 107.1 47.6 137.3 62.2 139.2 65.1 177.6 82.5 187.7 82.5 6.4 0 9.2 6.4 5.5 13.7-3.7 10.1 1.8 13.7 22 13.7 21 0 27.4 4.6 27.4 17.4 0 10.1-2.7 19.2-7.3 21.1-3.6 0.9-22 24.7-41.2 50.3-42.1 57.7-83.3 88.9-108 82.4-14.7-3.6-19.3 1-23.8 22-2.8 13.8-19.3 40.3-36.7 58.6l-31.1 32.1h-128.2c-78.7 0-135.5-3.7-148.3-11-11-5.5-26.6-12.8-33.9-16.5-7.3-2.7-25.6-11.9-41.2-19.2-14.6-8.3-41.2-21.1-56.8-29.3-19.2-9.2-30.2-11-30.2-4.6 0 15.6-30.2 33.9-55.8 34.8-35.7 0-63.2-31.1-63.2-71.4 0-33-1.8-35.7-59.5-64.1-51.3-24.7-59.5-26.6-59.5-12.8 0 8.2-14.7 39.3-32.1 68.6-17.4 29.3-32 56.8-32 61.4 0 4.6-14.7 26.5-32.1 49.4-17.4 23.8-32 44.9-32 47.6 0 8.3-74.2 106.2-131.9 173.1-86 100.7-177.6 184.9-236.2 215.2-26.6 14.6-62.3 64.1-62.3 85.1 0 5.5-13.7 39.4-31.1 75.1-16.5 34.8-40.3 84.2-52.2 108.9-36.6 76-45.8 88.9-67.7 97.1-11.9 4.6-23.9 12.8-27.5 18.3-27.5 44.9-217.9 63.2-287.5 28.4-19.2-10.1-47.6-33-63.2-51.3-24.7-27.4-29.3-40.3-29.3-78.7 0-49.5 25.6-99.8 51.3-99.8 7.3 0 12.8-3.7 12.8-8.3 0-4.5 27.5-21.9 62.3-39.3 125.4-64.1 162-84.3 179.4-98 21.1-18.3 69.6-113.5 69.6-137.3 0-10.1 4.6-21.1 9.2-23.9 5.5-2.7 9.1-10 9.1-15.5 0-6.4-6.4-4.6-15.5 3.6-22.9 19.3-89.8 44-120 44-65.9 0-130-65.9-130-133.7v-39.4l-70.5 68.7c-39.4 37.6-85.2 76-103.5 84.3-38.4 18.3-129.1 21-135.5 3.6-1.8-5.5-9.1-11-15.6-11-25.6 0-52.1-62.2-56.7-136.4-8.3-114.5 13.7-202.4 82.4-339.7 27.5-53.1 51.3-99.8 78.7-152.9 38.5-74.2 24.7-100.7-26.5-54.9-27.5 23.8-128.2 149.2-128.2 159.3-0.9 3.6-12.8 21.9-27.5 39.3-15.5 17.4-27.5 34.8-27.5 38.5 0 3.7-14.6 27.5-32 52.2-17.4 23.8-32 47.6-32 51.3 0 3.6-14.7 29.3-32.1 55.8-17.4 26.6-32 50.4-32 53.1 0 2.8-14.7 34.8-32.1 70.5-24.7 50.4-32 77.9-32 114.5 0 44.8-1.9 50.3-27.5 63.2-14.7 7.3-44 13.7-65.9 13.7-83.3 0-144.7-58.6-144.7-138.3 0-51.2 54.9-209.6 106.2-305.8 127.3-239 148.3-288.4 122.7-288.4-11 0-103.5 90.6-140.1 137.3-41.2 53.1-98 144.7-98 158.4 0 7.4-8.2 22.9-17.3 35.7-10.1 12-28.4 44.9-41.3 72.4-12.8 27.5-31.1 64.1-42.1 81.5-40.3 68.6-65 137.3-62.2 174.9 1.8 30.2-2.8 41.2-19.3 54.9-43 34.8-132.7 12.8-170.3-40.3-23.8-33-18.3-149.2 10.1-223.4 12.8-33.9 29.3-78.7 36.6-98 7.4-20.1 28.4-67.7 46.7-105.3 68.7-145.6 76-163 98-220.6 12.8-36.7 20.1-70.5 17.4-87.9-3.7-22.9 0-31.2 18.3-43.1 66.8-43.9 175.8-17.4 202.4 49.5 16.4 39.3 28.3 39.3 65-0.9 25.6-28.4 118.1-73.3 150.1-73.3 84.3 0 147.4 69.6 147.4 161.2v40.2l25.7-29.3c128.2-149.2 220.6-195 304-152 121.7 62.3 113.5 238.1-23.8 507.3-56.8 111.7-87.9 193.2-76.9 200.5 13.7 8.3 64-24.7 77.8-51.2 8.2-14.7 17.4-26.6 21-26.6 4.6 0 25.7-25.6 47.7-57.7 21.9-31.1 43-57.7 47.6-59.5 3.6-1.8 7.3-8.2 7.3-13.7 0-6.4 14.6-31.2 32-55.9 17.4-24.7 32.1-48.5 32.1-53.1 0-3.7 12.8-33.9 27.5-65 15.5-32.1 27.4-61.4 27.4-64.1 0-3.7 14.7-35.7 33-72.3 26.5-53.1 32.9-77.9 33.9-120.9v-54l41.2-17.4c49.4-22 100.7-17.4 150.1 15.6 62.3 41.2 70.5 141 19.3 256.3-43.1 98-46.7 105.3-85.2 174-19.2 34.8-46.7 84.2-59.5 109.9-12.8 24.7-33.9 64.1-45.8 86-23.8 42.2-29.3 74.2-13.7 74.2 12.8 0 117.2-109 123.6-129.1 3.6-10.1 9.1-17.4 13.7-17.4 3.7 0 23.8-25.6 44.9-57.7 36.6-55.8 43-66.8 63.2-102.5 5.5-10.1 21-36.7 33.8-58.6 12.9-22 22.9-44.9 22.9-50.4 0-6.4 11.9-36.6 27.5-66.8 33-69.6 56.8-160.3 49.4-189.6-7.3-31.1 47.7-64.1 107.2-63.1 56.7 0.9 127.2 46.7 127.2 82.4 0 38.4 9.2 19.2 28.4-62.3 9.2-42.1 19.3-82.4 22-88.8 7.3-19.2 252.7-14.7 325 6.4zm-253.6 231.6l-111.7-54.9-5.5 42.1c-2.7 23.8-15.5 69.6-27.5 102.6-11.9 32.9-26.5 74.1-32.9 91.5-16.5 47.7-109.9 250.9-164.8 359-33.9 65.9-33 72.3 1.8 38.4 39.4-36.6 154.7-174.9 154.7-184.9 0-4.6 8.3-15.6 19.3-25.7 18.3-16.5 89.7-130.9 99.8-159.3 18.3-52.2 42.1-84.2 66.8-88.8 26.6-5.5 26.6-5.5-24.7-36.6-43-26.6-51.3-35.7-51.3-58.6 0-14.7 4.6-26.6 10.1-26.6 5.5 0 33.9 13.8 64.1 29.3 47.6 27.5 54 33 54 59.5 0 15.6-4.6 30.2-11 32.1-6.4 2.7-5.5 6.4 4.6 10.1 12.8 4.5 15.6 0 15.6-30.3 0-20.1 1.8-36.6 3.6-36.6 1.9 0 58.6 27.5 126.4 61.4 66.8 34.8 153.8 76.9 193.2 94.3 64.1 29.3 70.5 34.8 71.4 59.5 1.8 24.7 1.8 25.6 5.5 4.6 2.7-12.9 13.7-31.2 24.7-41.2 11-10.1 32.1-33 46.7-50.4l27.5-32-36.6 34.7c-43.1 38.5-55.9 41.2-103.5 15.6-18.3-9.1-81.5-40.3-139.2-67.7-57.7-28.4-119.9-58.6-137.3-68.7-17.4-9.2-82.4-42.1-143.8-72.3zm629.1 71.4c-10.1 7.3-6.5 8.2 13.7 3.6 15.6-3.6 29.3-7.3 31.1-9.1 9.2-8.3-32-2.8-44.8 5.5zm210.5-6.4c-32.9 0-46.6 1.8-30.2 3.6 17.4 2.8 31.2 10.1 33 19.2 3.7 14.7 4.6 14.7 5.5 0 0.9-9.1 11-16.4 26.5-19.2 13.8-1.8-1.8-3.6-34.8-3.6zm-237.1 83.3c-14.7 17.4-46.7 112.6-40.3 119 3.7 2.8 36.6 5.5 73.3 5.5h67.7l13.8-33.9c8.2-18.3 16.4-46.7 19.2-62.2 4.6-29.3 4.6-29.3-44-34.8-69.6-8.3-77.8-8.3-89.7 6.4zm-1385.3 806.6c-6.5-7.3-120 55-146.5 79.7-22 21.1-24.8 27.5-16.5 43 32 60.5 89.7 35.8 135.5-57.6 17.4-33.9 29.3-63.2 27.5-65.1z"/>
	<path id="Layer" fill-rule="evenodd" class="s0" d="m1963.1 1130.8c15.6 16.5 11 38.5-25.6 111.7-31.2 63.2-30.2 66.8 6.4 19.2 26.5-34.8 34.8-39.3 66.8-39.3 33 0 35.7 1.8 36.6 27.4 1 14.7 1.9 31.2 2.8 36.7 2.7 15.5 37.5-33 37.5-52.2 0-13.8 5.5-17.4 24.8-14.7 33.8 3.7 37.5 28.4 11.9 72.4-11 20.1-17.4 35.7-14.7 35.7 8.2 0 51.3-78.8 51.3-95.3 0-11.9 6.4-15.5 25.6-12.8 31.1 3.7 36.6 30.2 15.6 73.3l-14.7 30.2 18.3-22.9c10.1-12.8 19.3-27.5 19.3-33.9 0-25.6 40.3-49.4 76.9-46.7l36.6 2.8 13.7-47.6c14.7-50.4 31.2-65.1 53.1-46.8 19.3 15.6 7.4 74.2-30.2 142-36.6 65.9-41.2 85.1-8.2 36.6 26.5-37.5 41.2-43 41.2-14.6 0 10-18.3 37.5-41.2 61.3-33.9 35.7-43 41.2-56.8 33-11-6.5-22.9-7.4-41.2 0-21 8.2-28.4 6.4-46.7-11l-21.9-20.2-16.5 18.3c-20.2 22-34.8 22.9-50.4 4.6-11-12.8-13.7-12.8-28.4 0.9-26.5 23.8-54 9.2-54-29.3v-32.9l-23.8 28.3c-43 52.2-87 58.7-104.4 16.5q-8.2-20.6-8.2-5.5c-0.9 21.1-43.1 41.2-58.6 28.4-9.2-8.2-22.9-0.9-60.5 34.8-46.7 44-50.3 45.8-102.5 45.8-51.3 0-54.9-1.8-72.3-30.2-32.1-51.3-22-106.2 35.7-202.4 33.8-56.7 86-96.1 127.2-97 11.9 0 32.1 11 44.9 23.8 19.2 19.2 22.9 29.3 18.3 59.5-5.5 44.9-20.1 63.2-49.4 63.2-27.5 0-36.6-22.9-17.4-44.9 8.2-9.2 14.6-27.5 14.6-41.2v-25.6l-30.2 26.5c-32 27.5-77.8 115.4-86.1 163-5.5 33 9.2 68.7 29.3 68.7 21.1 0 87-37.6 87-49.5 0-6.4 8.3-19.2 18.3-28.4 21.1-19.2 100.8-182.2 100.8-206 0-8.2 2.7-18.3 6.4-21 10-10.1 28.4-7.3 43 7.3zm338.8 132.8c-7.3-7.4-15.6 2.7-29.3 33.8-10.1 23.9-16.5 46.7-13.8 51.3 6.5 10.1 30.3-11 30.3-26.5 0-7.4 5.5-21.1 11-31.2 8.2-12.8 8.2-21 1.8-27.4zm-309.5 20.1c-16.5 22.9-19.2 62.3-5.5 62.3 8.3 0 11.9-11 22.9-66.9 3.7-21-0.9-20.1-17.4 4.6z"/>
	<path id="Layer" fill-rule="evenodd" class="s0" d="m2618.7 1149.1c33 17.4 42.1 55.9 23.8 99.8-11 25.7-19.2 33-37.5 33-30.3 0-36.7-17.4-18.4-51.3 7.4-14.6 13.8-33.9 13.8-43 0-14.7-4.6-13.8-30.2 9.1-16.5 13.8-34.8 33.9-40.3 44-57.7 108-65 140.1-41.2 169.4 12.8 16.4 22.9 20.1 41.2 14.6 32.9-8.2 93.4-72.3 126.3-134.6 33.9-62.3 53.1-74.1 118.1-70.5 44 2.8 50.4 5.5 53.2 22.9 1.8 11-3.7 33.9-11.9 50.4l-14.7 30.2 18.3-22.9c10.1-12.8 20.2-35.7 23.8-51.3 4.6-29.3 5.5-29.3 59.5-29.3 30.3 0 57.7 3.7 60.5 8.2 2.7 5.5 10 5.5 17.4-0.9 7.3-5.5 21.9-9.1 33.8-7.3 18.4 2.8 21.1 7.3 20.2 39.4-0.9 20.1-3.7 46.7-7.3 59.5-4.6 14.7 0 11 12.8-11 17.4-32 45.8-47.6 45.8-25.6 0 18.3-25.7 59.5-53.1 85.1-39.4 37.6-66 28.4-66-22.9v-37.5l-18.3 23.8c-10.1 12.8-18.3 29.3-18.3 37.5 0 22-26.5 28.4-43 11.9-13.8-13.7-13.8-18.3 0-53.1 8.2-21.9 13.7-40.2 11.9-42.1-5.5-5.5-51.3 79.7-51.3 94.3 0 15.6-20.1 16.5-34.8 1.9-7.3-7.4-13.7-7.4-24.7 1.8-12.8 10.1-18.3 10.1-33.9 0.9-13.7-8.2-21.1-9.1-28.4-1.8-14.6 14.6-48.5 11.9-61.3-3.7-10.1-11.9-16.5-8.2-49.5 25.7-48.5 52.1-67.7 61.3-123.6 61.3-38.4 0-48.5-3.7-64.1-23.8-30.2-38.5-25.6-98 12.8-174.9 33-66.8 55.9-93.4 100.8-116.3 33.8-18.3 44.8-18.3 77.8-0.9zm130 112.6c-11-11-15.6-2.7-33.9 46.7-18.3 52.2-2.7 54.1 22 3.7 12.8-26.6 17.4-44.9 11.9-50.4z"/>
</svg>