<svg xmlns="http://www.w3.org/2000/svg" width="40" height="40" viewBox="0 0 40 40" fill="none" class="svg raid replaced-svg">
<g clip-path="url(#clip0_815_16411)">
<g clip-path="url(#clip1_815_16411)">
<path d="M37.1917 2.63281H3.5407C1.58836 2.63281 0 4.22109 0 6.17344V28.2377C0 30.1901 1.58836 31.7784 3.5407 31.7784H14.5122C14.6459 32.9739 14.5628 34.4042 14.2813 35.8014H9.87984C9.44836 35.8014 9.09859 36.1512 9.09859 36.5827C9.09859 37.0141 9.44836 37.3639 9.87984 37.3639H30.1206C30.5521 37.3639 30.9019 37.0141 30.9019 36.5827C30.9019 36.1512 30.5521 35.8014 30.1206 35.8014H25.6759C25.3692 34.3912 25.2704 32.9602 25.401 31.7784H36.4594C38.4117 31.7784 40.0001 30.19 40.0001 28.2377V5.44148C40 3.89273 38.7402 2.63281 37.1917 2.63281ZM3.5407 4.19531H37.1917C37.8786 4.19531 38.4375 4.75437 38.4375 5.44148V24.727H1.5625V6.17344C1.5625 5.08273 2.44992 4.19531 3.5407 4.19531ZM24.081 35.8014H15.8715C16.1235 34.4131 16.1994 33.0013 16.0834 31.7784H23.8301C23.7179 32.9912 23.8075 34.403 24.081 35.8014ZM36.4593 30.2159H3.5407C2.44992 30.2159 1.5625 29.3284 1.5625 28.2377V26.2895H38.4375V28.2377C38.4375 29.3284 37.5501 30.2159 36.4593 30.2159ZM30.1466 13.1782H32.1802C32.6117 13.1782 32.9615 13.528 32.9615 13.9595C32.9615 14.3909 32.6117 14.7407 32.1802 14.7407H30.1466C29.7152 14.7407 29.3654 14.3909 29.3654 13.9595C29.3654 13.528 29.7152 13.1782 30.1466 13.1782ZM28.1238 11.2678C27.908 10.8941 28.0361 10.4163 28.4098 10.2006L30.2676 9.12805C30.6412 8.91227 31.1191 9.04023 31.3348 9.41398C31.5505 9.78766 31.4225 10.2655 31.0488 10.4812L29.191 11.5538C29.068 11.6248 28.9337 11.6586 28.8011 11.6586C28.5312 11.6586 28.2685 11.5185 28.1238 11.2678ZM11.5002 17.7797C11.5002 17.7797 12.0222 21.772 12.0225 21.7746C12.1259 22.5649 12.9072 23.1163 13.6874 22.9474L14.6434 22.7403C15.3505 22.5872 15.8146 21.9305 15.723 21.2128L15.2628 17.6085C18.0865 18.0448 20.6123 19.0151 22.323 20.3316C22.5695 21.2768 23.4302 21.9765 24.4515 21.9765C25.6643 21.9765 26.6509 20.9898 26.6509 19.777V16.3455C27.786 16.1445 28.6511 15.1514 28.6511 13.9595C28.6511 12.7675 27.786 11.7745 26.6509 11.5734V8.14188C26.6509 6.92906 25.6643 5.94242 24.4515 5.94242C23.4302 5.94242 22.5695 6.64211 22.323 7.58727C20.5478 8.95336 17.8951 9.94672 14.9427 10.3574C14.8019 10.2203 14.6098 10.1355 14.3978 10.1355H11.6437C9.53523 10.1355 7.81977 11.8509 7.81977 13.9595C7.81977 16.0198 9.45797 17.7038 11.5002 17.7797ZM13.5466 21.3792L13.0765 17.7834H13.71L14.1523 21.248L13.5466 21.3792ZM15.1791 11.9024C17.9047 11.5235 20.3497 10.7002 22.252 9.52977V18.3891C20.3498 17.2187 17.9048 16.3953 15.1791 16.0164V11.9024ZM27.0886 13.9595C27.0886 14.2804 26.9119 14.5603 26.6509 14.7085V13.2104C26.9119 13.3586 27.0886 13.6385 27.0886 13.9595ZM23.8145 8.14188C23.8145 7.79063 24.1002 7.50492 24.4515 7.50492C24.8027 7.50492 25.0884 7.7907 25.0884 8.14188V19.777C25.0884 20.1283 24.8027 20.414 24.4515 20.414C24.1003 20.414 23.8145 20.1283 23.8145 19.777V8.14188ZM11.6437 11.698H13.6166V16.2209H11.6437C10.3968 16.2209 9.38227 15.2064 9.38227 13.9594C9.38227 12.7124 10.3967 11.698 11.6437 11.698ZM31.3348 18.505C31.1901 18.7556 30.9275 18.8958 30.6575 18.8958C30.5249 18.8958 30.3906 18.862 30.2676 18.7909L28.4098 17.7184C28.0361 17.5027 27.908 17.0248 28.1238 16.6512C28.3396 16.2775 28.8174 16.1496 29.191 16.3652L31.0488 17.4378C31.4225 17.6535 31.5505 18.1313 31.3348 18.505Z" fill="#00A63F"></path>
</g>
</g>
<defs>
<clipPath id="clip0_815_16411">
<rect width="40" height="40" fill="white"></rect>
</clipPath>
<clipPath id="clip1_815_16411">
<rect width="40" height="40" fill="white"></rect>
</clipPath>
</defs>
</svg>