<svg xmlns="http://www.w3.org/2000/svg" width="38" height="38" viewBox="0 0 38 38" fill="none" class="svg replaced-svg">
<path d="M15.4374 35.0312H11.8749C11.7175 35.0312 11.5664 34.9687 11.4551 34.8573C11.3437 34.746 11.2812 34.595 11.2812 34.4375H2.56494L2.7015 35.2212C2.74241 35.3385 2.81856 35.4402 2.91954 35.5125C3.02052 35.5848 3.14139 35.6241 3.26557 35.625H24.0468C24.171 35.6241 24.2919 35.5848 24.3928 35.5125C24.4938 35.4402 24.57 35.3385 24.6109 35.2212L24.7474 34.4375H16.0312C16.0312 34.595 15.9686 34.746 15.8573 34.8573C15.7459 34.9687 15.5949 35.0312 15.4374 35.0312Z" fill="#00A63F"></path>
<path d="M4.15625 21.375C4.04643 21.3745 3.93868 21.4049 3.84526 21.4626C3.75184 21.5203 3.6765 21.6031 3.62781 21.7016C3.58668 21.7848 3.56438 21.876 3.5625 21.9688V33.25H11.875C12.0325 33.25 12.1835 33.3126 12.2948 33.4239C12.4062 33.5353 12.4688 33.6863 12.4688 33.8438H14.8438C14.8438 33.6863 14.9063 33.5353 15.0177 33.4239C15.129 33.3126 15.28 33.25 15.4375 33.25H23.75V26.125H23.1562C23.0236 26.1249 22.8949 26.0804 22.7905 25.9986C22.6861 25.9169 22.6121 25.8025 22.5803 25.6738L22.4794 25.2759L22.1291 25.4897C22.0156 25.5576 21.8828 25.5857 21.7516 25.5696C21.6204 25.5535 21.4983 25.494 21.4047 25.4006L19.7244 23.7203C19.631 23.6267 19.5715 23.5046 19.5554 23.3734C19.5393 23.2422 19.5674 23.1094 19.6353 22.9959L19.8491 22.6456L19.4512 22.5447C19.3225 22.5129 19.2082 22.4389 19.1264 22.3345C19.0446 22.2301 19.0001 22.1014 19 21.9688V21.375H4.15625ZM11.875 27.9063H10.6875V26.7188H11.875V27.9063ZM14.25 27.9063H13.0625V26.7188H14.25V27.9063ZM16.625 27.9063H15.4375V26.7188H16.625V27.9063Z" fill="#00A63F"></path>
<path d="M24.3438 21.9688C24.9996 21.9688 25.5312 21.4371 25.5312 20.7812C25.5312 20.1254 24.9996 19.5938 24.3438 19.5938C23.6879 19.5938 23.1562 20.1254 23.1562 20.7812C23.1562 21.4371 23.6879 21.9688 24.3438 21.9688Z" fill="#00A63F"></path>
<path d="M4.75 13.0599H11.6019C11.9352 12.6872 12.3433 12.3888 12.7995 12.1842C13.2558 11.9796 13.75 11.8734 14.25 11.8724H14.8675C15.0183 10.2501 15.7689 8.74255 16.9724 7.64445C18.1759 6.54634 19.7458 5.93673 21.375 5.93485C21.5531 5.93485 21.7313 5.94673 21.9094 5.96454C21.8081 5.43738 21.5655 4.94761 21.2076 4.54755C20.8497 4.14748 20.3898 3.85212 19.8771 3.69301C19.3645 3.5339 18.8182 3.51701 18.2966 3.64414C17.7751 3.77128 17.2979 4.03766 16.9159 4.41485C16.8577 4.47281 16.788 4.51804 16.7114 4.54768C16.6347 4.57732 16.5527 4.59072 16.4706 4.58704C16.3871 4.5823 16.3055 4.56033 16.2309 4.52253C16.1563 4.48472 16.0904 4.43189 16.0372 4.36735C15.3438 3.50618 14.4003 2.8813 13.3368 2.57884C12.2734 2.27638 11.1423 2.31123 10.0995 2.6786C9.05663 3.04597 8.15343 3.72775 7.51436 4.62999C6.87528 5.53222 6.5318 6.61047 6.53125 7.7161C6.53125 7.87358 6.46869 8.0246 6.35734 8.13595C6.24599 8.2473 6.09497 8.30985 5.9375 8.30985H4.75C4.12011 8.30985 3.51602 8.56008 3.07062 9.00548C2.62522 9.45087 2.375 10.055 2.375 10.6849C2.375 11.3147 2.62522 11.9188 3.07062 12.3642C3.51602 12.8096 4.12011 13.0599 4.75 13.0599Z" fill="#00A63F"></path>
<path d="M33.25 13.0599H31.8547C31.7597 13.059 31.6663 13.0361 31.5817 12.9928C31.4972 12.9495 31.424 12.8871 31.3678 12.8105C31.3143 12.7324 31.2799 12.6427 31.2676 12.5488C31.2552 12.455 31.2651 12.3595 31.2966 12.2702C31.4078 11.9513 31.466 11.6163 31.4688 11.2786C31.4686 10.6933 31.2955 10.1211 30.9712 9.6339C30.6468 9.1467 30.1857 8.76625 29.6457 8.54037C29.1058 8.31449 28.5111 8.25325 27.9364 8.36437C27.3618 8.47548 26.8328 8.75397 26.4159 9.16485C26.3577 9.22281 26.288 9.26804 26.2113 9.29768C26.1347 9.32732 26.0527 9.34072 25.9706 9.33704C25.8871 9.3323 25.8055 9.31034 25.7309 9.27253C25.6563 9.23472 25.5904 9.18189 25.5372 9.11735C24.8438 8.25618 23.9003 7.6313 22.8368 7.32884C21.7734 7.02638 20.6423 7.06123 19.5995 7.4286C18.5566 7.79597 17.6534 8.47775 17.0144 9.37999C16.3753 10.2822 16.0318 11.3605 16.0312 12.4661C16.0312 12.6236 15.9687 12.7746 15.8573 12.8859C15.746 12.9973 15.595 13.0599 15.4375 13.0599H14.25C13.6201 13.0599 13.016 13.3101 12.5706 13.7555C12.1252 14.2009 11.875 14.805 11.875 15.4349C11.875 16.0647 12.1252 16.6688 12.5706 17.1142C13.016 17.5596 13.6201 17.8099 14.25 17.8099H19.7541L21.4047 16.1592C21.4983 16.0659 21.6204 16.0064 21.7516 15.9903C21.8828 15.9741 22.0156 16.0022 22.1291 16.0702L22.4794 16.2839L22.5803 15.8861C22.6121 15.7574 22.6861 15.643 22.7905 15.5612C22.8949 15.4794 23.0236 15.435 23.1562 15.4349H25.5312C25.6639 15.435 25.7926 15.4794 25.897 15.5612C26.0014 15.643 26.0754 15.7574 26.1072 15.8861L26.2081 16.2839L26.5584 16.0702C26.6719 16.0022 26.8047 15.9741 26.9359 15.9903C27.0671 16.0064 27.1892 16.0659 27.2828 16.1592L28.9334 17.8099H33.25C33.8799 17.8099 34.484 17.5596 34.9294 17.1142C35.3748 16.6688 35.625 16.0647 35.625 15.4349C35.625 14.805 35.3748 14.2009 34.9294 13.7555C34.484 13.3101 33.8799 13.0599 33.25 13.0599Z" fill="#00A63F"></path>
<path d="M26.7722 24.2309L27.7934 23.2097L27.4075 22.5684C27.3609 22.4881 27.3335 22.3981 27.3273 22.3054C27.3212 22.2127 27.3364 22.1199 27.3719 22.0341C27.4074 21.9483 27.4623 21.8721 27.5324 21.8113C27.6025 21.7505 27.6858 21.7068 27.7756 21.6838L28.5 21.5056V20.0569L27.7756 19.8787C27.6858 19.8557 27.6025 19.812 27.5324 19.7512C27.4623 19.6904 27.4074 19.6142 27.3719 19.5284C27.3364 19.4426 27.3212 19.3498 27.3273 19.2571C27.3335 19.1644 27.3609 19.0744 27.4075 18.9941L27.7934 18.3528L26.7722 17.3316L26.1309 17.7116C26.0516 17.7604 25.9617 17.7896 25.8688 17.7969C25.7758 17.8041 25.6825 17.7891 25.5966 17.7531C25.5108 17.7176 25.4346 17.6627 25.3738 17.5926C25.313 17.5225 25.2693 17.4392 25.2463 17.3494L25.0681 16.625H23.6194L23.4412 17.3494C23.4182 17.4392 23.3745 17.5225 23.3137 17.5926C23.2529 17.6627 23.1767 17.7176 23.0909 17.7531C23.005 17.7891 22.9117 17.8041 22.8187 17.7969C22.7258 17.7896 22.6359 17.7604 22.5566 17.7116L21.9153 17.3316L20.8941 18.3528L21.28 18.9941C21.3266 19.0744 21.354 19.1644 21.3602 19.2571C21.3663 19.3498 21.3511 19.4426 21.3156 19.5284C21.2801 19.6142 21.2252 19.6904 21.1551 19.7512C21.085 19.812 21.0017 19.8557 20.9119 19.8787L20.1875 20.0569V21.5056L20.9119 21.6838C21.0017 21.7068 21.085 21.7505 21.1551 21.8113C21.2252 21.8721 21.2801 21.9483 21.3156 22.0341C21.3511 22.1199 21.3663 22.2127 21.3602 22.3054C21.354 22.3981 21.3266 22.4881 21.28 22.5684L20.8941 23.2097L21.9153 24.2309L22.5566 23.845C22.6369 23.7984 22.7269 23.771 22.8196 23.7648C22.9123 23.7587 23.0051 23.7739 23.0909 23.8094C23.1767 23.8449 23.2529 23.8998 23.3137 23.9699C23.3745 24.04 23.4182 24.1233 23.4412 24.2131L23.6194 24.9375H25.0681L25.2463 24.2131C25.2693 24.1233 25.313 24.04 25.3738 23.9699C25.4346 23.8998 25.5108 23.8449 25.5966 23.8094C25.6824 23.7739 25.7752 23.7587 25.8679 23.7648C25.9606 23.771 26.0506 23.7984 26.1309 23.845L26.7722 24.2309ZM24.3438 23.1562C23.874 23.1562 23.4148 23.017 23.0243 22.756C22.6337 22.495 22.3293 22.1241 22.1495 21.6901C21.9698 21.2561 21.9227 20.7786 22.0144 20.3179C22.106 19.8572 22.3322 19.434 22.6644 19.1019C22.9965 18.7697 23.4197 18.5435 23.8804 18.4519C24.3411 18.3602 24.8186 18.4073 25.2526 18.587C25.6866 18.7668 26.0575 19.0712 26.3185 19.4618C26.5795 19.8523 26.7188 20.3115 26.7188 20.7812C26.7188 21.4111 26.4685 22.0152 26.0231 22.4606C25.5777 22.906 24.9736 23.1562 24.3438 23.1562Z" fill="#00A63F"></path>
<path d="M32.6562 27.3125C32.6562 27.7849 32.4686 28.238 32.1345 28.572C31.8005 28.9061 31.3474 29.0938 30.875 29.0938H26.125V30.2812H30.875C31.6621 30.2803 32.4166 29.9672 32.9732 29.4107C33.5297 28.8541 33.8428 28.0996 33.8438 27.3125V20.1875H32.6562V27.3125Z" fill="#00A63F"></path>
</svg>