<svg xmlns="http://www.w3.org/2000/svg" width="38" height="38" viewBox="0 0 38 38" fill="none" class="svg replaced-svg">
<g clip-path="url(#clip0_414_660)">
<path d="M38 6.70588V0H0V6.70588H2.23529V31.2941H0V38H38V31.2941H35.7647V6.70588H38ZM6.70588 31.2941H4.47059V6.70588H6.70588V31.2941ZM29.0588 31.2941H26.8235V24.918C26.2549 25.8966 25.4922 26.7488 24.5882 27.4216V31.2941H20.1176V29.0451C19.7148 29.0678 19.578 29.055 18.3542 29.0588C18.1958 29.0588 18.0385 29.0539 17.8824 29.0451V31.2941H13.4118V27.4215C12.5078 26.7487 11.7451 25.8965 11.1765 24.9179V31.2941H8.94118V6.70588H11.1765V8.94118H13.4118V6.70588H24.5882V8.94118H26.8235V6.70588H29.0588V31.2941ZM33.5294 31.2941H31.2941V6.70588H33.5294V31.2941Z" fill="#00A63F"></path>
<path d="M15.6471 14.5257C15.6471 12.6769 17.1513 11.1728 19.0001 11.1728C20.849 11.1728 22.353 12.677 22.353 14.5257H24.5883C24.5883 11.4444 22.0814 8.9375 19.0001 8.9375C15.9187 8.9375 13.4118 11.4444 13.4118 14.5257V16.761H12.2942V20.7597C12.2942 24.1067 15.0074 26.8199 18.3543 26.8199H19.6458C22.9928 26.8199 25.706 24.1067 25.706 20.7597V16.761H15.6471V14.5257Z" fill="#00A63F"></path>
</g>
<defs>
<clipPath id="clip0_414_660">
<rect width="38" height="38" fill="white"></rect>
</clipPath>
</defs>
</svg>