<svg width="51" height="50" viewBox="0 0 51 50" fill="none" xmlns="http://www.w3.org/2000/svg">
<g clip-path="url(#clip0_828_1301)">
<path d="M46.6523 4.78516H37.1289V10.1758H42.0703C42.8146 10.1758 43.418 10.7792 43.418 11.5234C43.418 12.2677 42.8146 12.8711 42.0703 12.8711H37.1289V15.5664H42.0703C42.8146 15.5664 43.418 16.1698 43.418 16.9141C43.418 17.6583 42.8146 18.2617 42.0703 18.2617H37.1289V20.957H42.0703C42.8146 20.957 43.418 21.5604 43.418 22.3047C43.418 23.049 42.8146 23.6523 42.0703 23.6523H37.1289V26.3477H42.0703C42.8146 26.3477 43.418 26.951 43.418 27.6953C43.418 28.4396 42.8146 29.043 42.0703 29.043H37.1289V34.4336H46.6523C47.3966 34.4336 48 33.8302 48 33.0859V6.13281C48 5.38855 47.3966 4.78516 46.6523 4.78516Z" fill="#00A63F"/>
<path d="M3.34766 34.4336H12.8711V29.043H7.92969C7.18542 29.043 6.58203 28.4396 6.58203 27.6953C6.58203 26.951 7.18542 26.3477 7.92969 26.3477H12.8711V23.6523H7.92969C7.18542 23.6523 6.58203 23.049 6.58203 22.3047C6.58203 21.5604 7.18542 20.957 7.92969 20.957H12.8711V18.2617H7.92969C7.18542 18.2617 6.58203 17.6583 6.58203 16.9141C6.58203 16.1698 7.18542 15.5664 7.92969 15.5664H12.8711V12.8711H7.92969C7.18542 12.8711 6.58203 12.2677 6.58203 11.5234C6.58203 10.7792 7.18542 10.1758 7.92969 10.1758H12.8711V4.78516H3.34766C2.60339 4.78516 2 5.38855 2 6.13281V33.0859C2 33.8302 2.60339 34.4336 3.34766 34.4336Z" fill="#00A63F"/>
<path d="M46.6523 42.6094H42.3953C41.9881 41.4018 41.0317 40.4455 39.8242 40.0383V37.1289H37.1289V40.0688C35.9636 40.4923 35.0448 41.4318 34.6477 42.6094H28.9187C28.5115 41.4018 27.5552 40.4455 26.3477 40.0383V37.0391H33.0859C33.8302 37.0391 34.4336 36.4357 34.4336 35.6914V3.34766C34.4336 2.60339 33.8302 2 33.0859 2H16.9141C16.1698 2 15.5664 2.60339 15.5664 3.34766V35.6914C15.5664 36.4357 16.1698 37.0391 16.9141 37.0391H23.6523V40.0688C22.4871 40.4923 21.5682 41.4318 21.1711 42.6094H15.3523C14.9552 41.4318 14.0364 40.4923 12.8711 40.0688V37.1289H10.1758V40.0383C8.96819 40.4455 8.01189 41.4018 7.60472 42.6094H3.34766C2.60339 42.6094 2 43.2128 2 43.957C2 44.7013 2.60339 45.3047 3.34766 45.3047H7.63518C8.20596 46.8752 9.71327 48 11.4785 48C13.2438 48 14.7511 46.8752 15.3219 45.3047H21.2016C21.7724 46.8752 23.2797 48 25.0449 48C26.8102 48 28.3175 46.8752 28.8883 45.3047H34.6781C35.2489 46.8752 36.7562 48 38.5215 48C40.2867 48 41.794 46.8752 42.3648 45.3047H46.6523C47.3966 45.3047 48 44.7013 48 43.957C48 43.2128 47.3966 42.6094 46.6523 42.6094ZM25 31.7383C24.2557 31.7383 23.6523 31.1349 23.6523 30.3906C23.6523 29.6464 24.2557 29.043 25 29.043C25.7443 29.043 26.3477 29.6464 26.3477 30.3906C26.3477 31.1349 25.7443 31.7383 25 31.7383ZM20.5078 7.48047H29.582C30.3263 7.48047 30.9297 8.08386 30.9297 8.82812C30.9297 9.57239 30.3263 10.1758 29.582 10.1758H20.5078C19.7635 10.1758 19.1602 9.57239 19.1602 8.82812C19.1602 8.08386 19.7635 7.48047 20.5078 7.48047ZM20.5078 12.8711H29.582C30.3263 12.8711 30.9297 13.4745 30.9297 14.2188C30.9297 14.963 30.3263 15.5664 29.582 15.5664H20.5078C19.7635 15.5664 19.1602 14.963 19.1602 14.2188C19.1602 13.4745 19.7635 12.8711 20.5078 12.8711ZM20.5078 18.2617H29.4922C30.2365 18.2617 30.8398 18.8651 30.8398 19.6094C30.8398 20.3536 30.2365 20.957 29.4922 20.957H20.5078C19.7635 20.957 19.1602 20.3536 19.1602 19.6094C19.1602 18.8651 19.7635 18.2617 20.5078 18.2617ZM19.1602 25C19.1602 24.2557 19.7635 23.6523 20.5078 23.6523H29.4922C30.2365 23.6523 30.8398 24.2557 30.8398 25C30.8398 25.7443 30.2365 26.3477 29.4922 26.3477H20.5078C19.7635 26.3477 19.1602 25.7443 19.1602 25Z" fill="#00A63F"/>
</g>
<defs>
<clipPath id="clip0_828_1301">
<rect width="46" height="46" fill="white" transform="translate(2 2)"/>
</clipPath>
</defs>
</svg>
