<svg xmlns="http://www.w3.org/2000/svg" width="38" height="38" viewBox="0 0 38 38" fill="none" class="svg replaced-svg">
<g clip-path="url(#clip0_414_472)">
<path d="M36.8867 2.29688H29.0195V6.75H33.1016C33.7164 6.75 34.2148 7.24845 34.2148 7.86328C34.2148 8.47811 33.7164 8.97656 33.1016 8.97656H29.0195V11.2031H33.1016C33.7164 11.2031 34.2148 11.7016 34.2148 12.3164C34.2148 12.9312 33.7164 13.4297 33.1016 13.4297H29.0195V15.6562H33.1016C33.7164 15.6562 34.2148 16.1547 34.2148 16.7695C34.2148 17.3844 33.7164 17.8828 33.1016 17.8828H29.0195V20.1094H33.1016C33.7164 20.1094 34.2148 20.6078 34.2148 21.2227C34.2148 21.8375 33.7164 22.3359 33.1016 22.3359H29.0195V26.7891H36.8867C37.5015 26.7891 38 26.2906 38 25.6758V3.41016C38 2.79533 37.5015 2.29688 36.8867 2.29688Z" fill="#00A63F"></path>
<path d="M1.11328 26.7891H8.98047V22.3359H4.89844C4.28361 22.3359 3.78516 21.8375 3.78516 21.2227C3.78516 20.6078 4.28361 20.1094 4.89844 20.1094H8.98047V17.8828H4.89844C4.28361 17.8828 3.78516 17.3844 3.78516 16.7695C3.78516 16.1547 4.28361 15.6562 4.89844 15.6562H8.98047V13.4297H4.89844C4.28361 13.4297 3.78516 12.9312 3.78516 12.3164C3.78516 11.7016 4.28361 11.2031 4.89844 11.2031H8.98047V8.97656H4.89844C4.28361 8.97656 3.78516 8.47811 3.78516 7.86328C3.78516 7.24845 4.28361 6.75 4.89844 6.75H8.98047V2.29688H1.11328C0.498453 2.29688 0 2.79533 0 3.41016V25.6758C0 26.2906 0.498453 26.7891 1.11328 26.7891Z" fill="#00A63F"></path>
<path d="M36.8867 33.5469H33.37C33.0337 32.5493 32.2436 31.7593 31.2461 31.423V29.0195H29.0195V31.4481C28.0569 31.798 27.2979 32.5741 26.9698 33.5469H22.2372C21.9008 32.5493 21.1108 31.7593 20.1133 31.423V28.9453H25.6797C26.2945 28.9453 26.793 28.4469 26.793 27.832V1.11328C26.793 0.498453 26.2945 0 25.6797 0H12.3203C11.7055 0 11.207 0.498453 11.207 1.11328V27.832C11.207 28.4469 11.7055 28.9453 12.3203 28.9453H17.8867V31.4481C16.9241 31.798 16.1651 32.5741 15.837 33.5469H11.0302C10.7021 32.5741 9.94309 31.798 8.98047 31.4481V29.0195H6.75391V31.423C5.75633 31.7593 4.96635 32.5493 4.62999 33.5469H1.11328C0.498453 33.5469 0 34.0453 0 34.6602C0 35.275 0.498453 35.7734 1.11328 35.7734H4.65515C5.12666 37.0708 6.37183 38 7.83008 38C9.28833 38 10.5335 37.0708 11.005 35.7734H15.8622C16.3337 37.0708 17.5789 38 19.0371 38C20.4954 38 21.7405 37.0708 22.212 35.7734H26.995C27.4665 37.0708 28.7117 38 30.1699 38C31.6282 38 32.8733 37.0708 33.3449 35.7734H36.8867C37.5015 35.7734 38 35.275 38 34.6602C38 34.0453 37.5015 33.5469 36.8867 33.5469ZM19 24.5664C18.3852 24.5664 17.8867 24.068 17.8867 23.4531C17.8867 22.8383 18.3852 22.3398 19 22.3398C19.6148 22.3398 20.1133 22.8383 20.1133 23.4531C20.1133 24.068 19.6148 24.5664 19 24.5664ZM15.2891 4.52734H22.7852C23.4 4.52734 23.8984 5.0258 23.8984 5.64062C23.8984 6.25545 23.4 6.75391 22.7852 6.75391H15.2891C14.6742 6.75391 14.1758 6.25545 14.1758 5.64062C14.1758 5.0258 14.6742 4.52734 15.2891 4.52734ZM15.2891 8.98047H22.7852C23.4 8.98047 23.8984 9.47892 23.8984 10.0938C23.8984 10.7086 23.4 11.207 22.7852 11.207H15.2891C14.6742 11.207 14.1758 10.7086 14.1758 10.0938C14.1758 9.47892 14.6742 8.98047 15.2891 8.98047ZM15.2891 13.4336H22.7109C23.3258 13.4336 23.8242 13.932 23.8242 14.5469C23.8242 15.1617 23.3258 15.6602 22.7109 15.6602H15.2891C14.6742 15.6602 14.1758 15.1617 14.1758 14.5469C14.1758 13.932 14.6742 13.4336 15.2891 13.4336ZM14.1758 19C14.1758 18.3852 14.6742 17.8867 15.2891 17.8867H22.7109C23.3258 17.8867 23.8242 18.3852 23.8242 19C23.8242 19.6148 23.3258 20.1133 22.7109 20.1133H15.2891C14.6742 20.1133 14.1758 19.6148 14.1758 19Z" fill="#00A63F"></path>
</g>
<defs>
<clipPath id="clip0_414_472">
<rect width="38" height="38" fill="white"></rect>
</clipPath>
</defs>
</svg>