<svg xmlns="http://www.w3.org/2000/svg" width="38" height="38" viewBox="0 0 38 38" fill="none" class="svg replaced-svg">
<path d="M12.219 8.86483H25.7812L19.0001 1.5625L12.219 8.86483Z" fill="#00A63F"></path>
<path d="M29.6862 1.49742C29.6201 1.42472 29.5397 1.36657 29.4499 1.32666C29.3602 1.28675 29.2631 1.26596 29.1649 1.26562H20.4521L27.5094 8.86563H36.4432L29.6862 1.49742Z" fill="#00A63F"></path>
<path d="M18.9999 21.5312C17.4968 21.5312 16.0274 21.977 14.7776 22.8121C13.5278 23.6472 12.5536 24.8341 11.9784 26.2229C11.4032 27.6116 11.2527 29.1397 11.5459 30.6139C11.8392 32.0882 12.563 33.4424 13.6259 34.5053C14.6888 35.5681 16.043 36.292 17.5172 36.5852C18.9915 36.8785 20.5196 36.728 21.9083 36.1527C23.297 35.5775 24.484 34.6034 25.3191 33.3536C26.1542 32.1038 26.5999 30.6344 26.5999 29.1313C26.5977 27.1163 25.7963 25.1845 24.3715 23.7596C22.9467 22.3348 21.0149 21.5334 18.9999 21.5312ZM22.6663 26.3534L17.7408 32.6868C17.6857 32.7576 17.6162 32.816 17.5368 32.8579C17.4574 32.8998 17.37 32.9244 17.2804 32.93H17.2411C17.0732 32.9299 16.9121 32.8632 16.7934 32.7444L15.3855 31.3365C15.2701 31.2171 15.2063 31.0571 15.2077 30.891C15.2092 30.725 15.2758 30.5661 15.3932 30.4487C15.5106 30.3313 15.6695 30.2647 15.8355 30.2632C16.0016 30.2618 16.1616 30.3256 16.281 30.441L17.1816 31.3416L21.6669 25.5744C21.7714 25.4461 21.922 25.3637 22.0865 25.345C22.251 25.3263 22.4163 25.3728 22.547 25.4745C22.6776 25.5762 22.7633 25.725 22.7856 25.889C22.8079 26.0531 22.7651 26.2193 22.6663 26.3522V26.3534Z" fill="#00A63F"></path>
<path d="M27.669 10.1328L23.3547 21.4182C24.1451 21.8676 24.8621 22.4353 25.4808 23.1016L36.4033 10.1328H27.669Z" fill="#00A63F"></path>
<path d="M10.4904 8.86563L17.5477 1.26562H8.83491C8.73714 1.26587 8.64049 1.28643 8.55109 1.32601C8.46168 1.36559 8.38149 1.42331 8.31557 1.49552L1.55664 8.86563H10.4904Z" fill="#00A63F"></path>
<path d="M14.6452 21.4182L10.331 10.1328H1.59668L12.5191 23.1016C13.1379 22.4353 13.8549 21.8676 14.6452 21.4182Z" fill="#00A63F"></path>
<path d="M19.0001 20.2661C20.0976 20.2676 21.1851 20.4742 22.2067 20.8754L26.3132 10.1328H11.687L15.7935 20.8754C16.8151 20.4742 17.9026 20.2676 19.0001 20.2661Z" fill="#00A63F"></path>
</svg>