<svg xmlns="http://www.w3.org/2000/svg" width="38" height="38" viewBox="0 0 38 38" fill="none" class="svg replaced-svg">
<path d="M24.3438 4.15625H13.6562V7.71875H24.3438V4.15625ZM20.7812 6.53125H19.5938V5.34375H20.7812V6.53125ZM23.1562 6.53125H21.9688V5.34375H23.1562V6.53125Z" fill="#00A63F"></path>
<path d="M13.6562 22.5904C13.8522 22.5732 14.0499 22.5625 14.25 22.5625C15.0605 22.5625 15.8608 22.7127 16.609 23.0019C18.0648 21.2224 20.2213 20.1875 22.5625 20.1875C23.1764 20.1875 23.7708 20.2677 24.3438 20.4036V18.4062H13.6562V22.5904ZM17.2188 19.5938H18.4062V20.7812H17.2188V19.5938ZM14.8438 19.5938H16.0312V20.7812H14.8438V19.5938Z" fill="#00A63F"></path>
<path d="M24.3438 8.90625H13.6562V12.4688H24.3438V8.90625ZM16.0312 11.2812H14.8438V10.0938H16.0312V11.2812ZM18.4062 11.2812H17.2188V10.0938H18.4062V11.2812Z" fill="#00A63F"></path>
<path d="M24.3438 13.6562H13.6562V17.2188H24.3438V13.6562ZM20.7812 16.0312H19.5938V14.8438H20.7812V16.0312ZM23.1562 16.0312H21.9688V14.8438H23.1562V16.0312Z" fill="#00A63F"></path>
<path d="M10.0938 7.71875V6.53125H3.5625C2.58044 6.53125 1.78125 7.33044 1.78125 8.3125V24.9375C1.78125 25.7106 2.27941 26.3637 2.96875 26.6095V8.90625C2.96875 8.25134 3.50134 7.71875 4.15625 7.71875H10.0938Z" fill="#00A63F"></path>
<path d="M4.15625 21.9688H10.0938V18.4062H4.15625V21.9688ZM7.71875 19.5938H8.90625V20.7812H7.71875V19.5938ZM5.34375 19.5938H6.53125V20.7812H5.34375V19.5938Z" fill="#00A63F"></path>
<path d="M10.0938 8.90625H4.15625V12.4688H10.0938V8.90625ZM6.53125 11.2812H5.34375V10.0938H6.53125V11.2812ZM8.90625 11.2812H7.71875V10.0938H8.90625V11.2812Z" fill="#00A63F"></path>
<path d="M4.15625 13.6562H10.0938V17.2188H4.15625V13.6562Z" fill="#00A63F"></path>
<path d="M12.4688 4.15625C12.4688 3.50134 13.0013 2.96875 13.6562 2.96875H24.3438C24.9987 2.96875 25.5312 3.50134 25.5312 4.15625V20.7848C25.9463 20.9588 26.3441 21.1654 26.7188 21.4059V3.5625C26.7188 2.58044 25.9196 1.78125 24.9375 1.78125H13.0625C12.0804 1.78125 11.2812 2.58044 11.2812 3.5625V23.2774C11.6577 23.085 12.0549 22.9288 12.4688 22.8125V4.15625Z" fill="#00A63F"></path>
<path d="M27.9062 12.4688H33.8438V8.90625H27.9062V12.4688ZM31.4688 10.0938H32.6562V11.2812H31.4688V10.0938ZM29.0938 10.0938H30.2812V11.2812H29.0938V10.0938Z" fill="#00A63F"></path>
<path d="M10.0938 24.057V23.1562H4.15625V26.7188H8.16703C8.57613 25.6678 9.24528 24.757 10.0938 24.057Z" fill="#00A63F"></path>
<path d="M27.9062 21.9688H33.8438V18.4062H27.9062V21.9688ZM31.4688 19.5938H32.6562V20.7812H31.4688V19.5938ZM29.0938 19.5938H30.2812V20.7812H29.0938V19.5938Z" fill="#00A63F"></path>
<path d="M34.4375 6.53125H27.9062V7.71875H33.8438C34.4987 7.71875 35.0312 8.25134 35.0312 8.90625V26.6095C35.7206 26.3637 36.2188 25.7106 36.2188 24.9375V8.3125C36.2188 7.33044 35.4196 6.53125 34.4375 6.53125Z" fill="#00A63F"></path>
<path d="M27.9062 13.6562H33.8438V17.2188H27.9062V13.6562Z" fill="#00A63F"></path>
<path d="M30.1885 26.7188H33.8437V23.1562H28.6323C29.4291 24.1722 29.9819 25.3876 30.1885 26.7188Z" fill="#00A63F"></path>
<path d="M29.0938 28.5C29.0842 28.5 29.0753 28.5012 29.0658 28.5012L29.067 28.5C29.0848 28.3047 29.0938 28.1063 29.0938 27.9062C29.0938 24.2992 26.1695 21.375 22.5625 21.375C20.194 21.375 18.1266 22.6397 16.9813 24.5266L16.9878 24.5041C16.1874 24.0249 15.2505 23.75 14.25 23.75C11.4992 23.75 9.234 25.8281 8.93891 28.5L8.94069 28.5018C8.92881 28.5018 8.91753 28.5 8.90625 28.5C6.61081 28.5 4.75 30.3608 4.75 32.6562C4.75 34.9517 6.61081 36.8125 8.90625 36.8125H29.0938C31.3892 36.8125 33.25 34.9517 33.25 32.6562C33.25 30.3608 31.3892 28.5 29.0938 28.5ZM10.0938 35.0312H8.90625V33.8438H10.0938V35.0312ZM12.4688 35.0312H11.2812V33.8438H12.4688V35.0312ZM14.8438 35.0312H13.6562V33.8438H14.8438V35.0312ZM26.0882 27.3968C25.84 25.6559 24.3242 24.3438 22.5625 24.3438C22.2163 24.3438 21.8737 24.3936 21.5442 24.4916L21.2058 23.3528C21.6452 23.2222 22.1017 23.1562 22.5625 23.1562C24.9108 23.1562 26.9319 24.9066 27.2644 27.2282L26.0882 27.3968Z" fill="#00A63F"></path>
</svg>