<svg xmlns="http://www.w3.org/2000/svg" width="38" height="38" viewBox="0 0 38 38" fill="none" class="svg replaced-svg">
<g clip-path="url(#clip0_414_645)">
<path d="M36.8868 16.6953H33.1511C32.5363 16.6953 32.0378 17.1938 32.0378 17.8086V30.9255C32.0378 31.5403 32.5363 32.0388 33.1511 32.0388H36.8868C37.5016 32.0388 38.0001 31.5403 38.0001 30.9255V17.8086C38.0001 17.1937 37.5016 16.6953 36.8868 16.6953Z" fill="#00A63F"></path>
<path d="M14.7744 29.6351C14.7741 29.6349 14.7739 29.6347 14.7737 29.6344C13.7364 28.5973 12.053 28.5907 11.0075 29.6146C10.2558 30.4096 10.7173 31.2247 10.9882 31.4961L16.6042 37.1106C17.7804 38.2879 19.7053 38.3018 20.8967 37.1104C21.2747 36.7323 21.2709 36.1267 20.8967 35.7522L14.7744 29.6351Z" fill="#00A63F"></path>
<path d="M23.3999 23.0888C20.5122 25.9149 15.8998 25.8573 13.0794 23.0353C12.6433 22.5986 12.6472 21.8927 13.0797 21.4603L17.3398 17.2003C16.5278 16.6832 15.5842 16.4062 14.5983 16.4062H14.5946C13.2282 16.4072 11.945 16.9397 10.9811 17.9058C10.9811 17.9058 9.20069 19.6884 9.19453 19.6947L8.18872 19.6946V27.734H9.77285C11.8754 26.0088 14.7188 26.4309 16.348 28.0602L22.4709 34.1779C22.7023 34.4093 22.8952 34.6751 23.0445 34.9629L28.3715 29.6346C28.8062 29.1999 28.8061 28.495 28.3714 28.0603L23.3999 23.0888Z" fill="#00A63F"></path>
<path d="M27.0123 17.8998C25.0232 15.9096 21.779 15.9072 19.7876 17.8998L15.5286 22.1589C18.3423 23.9377 20.9655 22.3746 21.8792 21.4605L22.6156 20.7232C23.0507 20.2915 23.7535 20.2924 24.1871 20.7262L29.8113 26.3504V19.6934H28.8055L27.0123 17.8998Z" fill="#00A63F"></path>
<path d="M4.84893 16.6953H1.11328C0.498453 16.6953 0 17.1938 0 17.8086V30.9255C0 31.5403 0.498453 32.0388 1.11328 32.0388H4.84893C5.46376 32.0388 5.96221 31.5403 5.96221 30.9255V17.8086C5.96221 17.1937 5.46376 16.6953 4.84893 16.6953Z" fill="#00A63F"></path>
<path d="M7.03594 0.149124C6.69149 -0.049708 6.26711 -0.049708 5.92266 0.149124L1.11328 2.92565L6.4793 6.02361L11.8452 2.92565L7.03594 0.149124Z" fill="#00A63F"></path>
<path d="M0.556566 11.369L5.36602 14.1461V7.94953L0 4.85156V10.4049C0 10.8026 0.212191 11.1701 0.556566 11.369Z" fill="#00A63F"></path>
<path d="M12.9585 10.4049V4.85156L7.59253 7.94953V14.1461L12.402 11.369C12.7464 11.1701 12.9585 10.8026 12.9585 10.4049Z" fill="#00A63F"></path>
<path d="M15.1851 5.375H22.8147V7.60156H15.1851V5.375Z" fill="#00A63F"></path>
<path d="M32.0774 0.149124C31.733 -0.049708 31.3086 -0.049708 30.9642 0.149124L26.1548 2.92565L31.5208 6.02361L36.8868 2.92565L32.0774 0.149124Z" fill="#00A63F"></path>
<path d="M32.634 7.9496V14.1462L37.4435 11.3691C37.7879 11.1702 38 10.8027 38 10.405V4.85156L32.634 7.9496Z" fill="#00A63F"></path>
<path d="M25.0415 10.4049C25.0415 10.8026 25.2537 11.1701 25.5981 11.369L30.4075 14.1461V7.94953L25.0415 4.85156V10.4049Z" fill="#00A63F"></path>
</g>
<defs>
<clipPath id="clip0_414_645">
<rect width="38" height="38" fill="white"></rect>
</clipPath>
</defs>
</svg>