<svg xmlns="http://www.w3.org/2000/svg" width="38" height="38" viewBox="0 0 38 38" fill="none" class="svg replaced-svg">
<path d="M6.28882 29.0721L6.51145 29.1507V28.5584L6.28882 28.4844V29.0721Z" fill="#00A63F"></path>
<path d="M6.64868 29.1967L6.87696 29.2773V28.6774L6.64868 28.6016V29.1967Z" fill="#00A63F"></path>
<path d="M6.87696 8.69531L6.64868 8.7761V9.3713L6.87696 9.29521V8.69531Z" fill="#00A63F"></path>
<path d="M4.31226 19.2595L5.23942 19.2686V18.7031L4.31226 18.7131V19.2595Z" fill="#00A63F"></path>
<path d="M5.23942 11.1562L4.31226 11.4208V11.9671L5.23942 11.7216V11.1562Z" fill="#00A63F"></path>
<path d="M5.93799 23.1423L6.15513 23.1743V22.59L5.93799 22.5625V23.1423Z" fill="#00A63F"></path>
<path d="M6.28882 20.6484V21.2362L6.51145 21.2537V20.6613L6.28908 20.6484L6.28882 20.6484Z" fill="#00A63F"></path>
<path d="M5.93799 20.6328V21.2134L6.15513 21.2304V20.6454L5.93814 20.6328H5.93799Z" fill="#00A63F"></path>
<path d="M5.93799 19.2775L6.15513 19.2796V18.6953L5.93799 18.6977V19.2775Z" fill="#00A63F"></path>
<path d="M6.15513 12.8438L5.93799 12.8908V13.4713L6.15513 13.4287V12.8438Z" fill="#00A63F"></path>
<path d="M6.15513 10.8984L5.93799 10.9604V11.5401L6.15513 11.4827V10.8984Z" fill="#00A63F"></path>
<path d="M6.51145 26.5821L6.28882 26.5234V27.1104L6.51145 27.1737V26.5821Z" fill="#00A63F"></path>
<path d="M6.28882 23.1964L6.51145 23.2292V22.6375L6.28882 22.6094V23.1964Z" fill="#00A63F"></path>
<path d="M6.28882 19.277L6.51145 19.2791V18.6875L6.28882 18.6899V19.277Z" fill="#00A63F"></path>
<path d="M6.28882 17.3242L6.51145 17.3111V16.7188L6.28882 16.7364V17.3242Z" fill="#00A63F"></path>
<path d="M6.51145 12.7656L6.28882 12.8139V13.4016L6.51145 13.3579V12.7656Z" fill="#00A63F"></path>
<path d="M6.51145 10.7969L6.28882 10.8604V11.4474L6.51145 11.3884V10.7969Z" fill="#00A63F"></path>
<path d="M6.51145 8.82031L6.28882 8.89911V9.48689L6.51145 9.41269V8.82031Z" fill="#00A63F"></path>
<path d="M6.87696 26.6774L6.64868 26.6172V27.2116L6.87696 27.2765V26.6774Z" fill="#00A63F"></path>
<path d="M6.64868 20.6719V21.2671L6.87696 21.285V20.6851L6.64893 20.6719H6.64868Z" fill="#00A63F"></path>
<path d="M6.64868 19.2844L6.87696 19.2867V18.6875L6.64868 18.69V19.2844Z" fill="#00A63F"></path>
<path d="M6.64868 17.3008L6.87696 17.2874V16.6875L6.64868 16.7056V17.3008Z" fill="#00A63F"></path>
<path d="M5.23942 13.0469L4.31226 13.2478V13.7948L5.23942 13.613V13.0469Z" fill="#00A63F"></path>
<path d="M5.23942 9.27345L4.31226 9.60157V10.1487L5.23942 9.83961V9.27345Z" fill="#00A63F"></path>
<path d="M3.63257 29.905L7.70578 31.6217V6.375L3.63257 8.09169V29.905ZM4.13571 9.24764L5.21614 8.84828L7.05888 8.1672V9.71871L4.13573 10.6444L4.13571 9.24764ZM4.13571 11.0584L7.05888 10.1787V11.7301L4.86073 12.2753L4.13571 12.4551V11.0584ZM4.13571 12.8685L4.81492 12.7106L7.05887 12.1893V13.7407L4.66016 14.1711L4.13571 14.2652V12.8685ZM4.13571 16.4892L7.05888 16.2112V17.7627L4.13571 17.8859V16.4892ZM4.13571 18.3L7.05888 18.2226V19.7741L4.13571 19.6967V18.3ZM4.13571 20.11L7.05888 20.2332V21.7847L4.13571 21.5068V20.11ZM4.13571 21.9208L7.05888 22.2446V23.7961L4.13571 23.3175V21.9208ZM4.13571 25.5416L7.05888 26.2666V27.8181L5.26011 27.2767L4.13571 26.9383V25.5416ZM4.13571 27.3517L7.05888 28.2772V29.8287L4.13571 28.7483V27.3517Z" fill="#00A63F"></path>
<path d="M4.31226 28.3751L5.23939 28.7024L5.23942 28.1363L4.31226 27.8281V28.3751Z" fill="#00A63F"></path>
<path d="M6.15513 26.487L5.93799 26.4297V27.0094L6.15513 27.0712V26.487Z" fill="#00A63F"></path>
<path d="M4.31226 26.5463L5.23942 26.8099V26.2445L4.31226 26V26.5463Z" fill="#00A63F"></path>
<path d="M4.31226 22.9058L5.23942 23.0421V22.4766L4.31226 22.3594V22.9058Z" fill="#00A63F"></path>
<path d="M4.31226 21.0861L5.23942 21.1589V20.5927L4.31226 20.5391V21.0861Z" fill="#00A63F"></path>
<path d="M4.31226 17.441L5.23942 17.3865V16.8203L4.31226 16.8939V17.441Z" fill="#00A63F"></path>
<path d="M5.93799 28.9477L6.15513 29.0243V28.4394L5.93799 28.3672V28.9477Z" fill="#00A63F"></path>
<path d="M5.93799 17.34L6.15513 17.3272V16.7422L5.93799 16.7594V17.34Z" fill="#00A63F"></path>
<path d="M6.15513 9.53035V8.94531L5.93799 9.02216V9.60272L6.15513 9.53035Z" fill="#00A63F"></path>
<path d="M6.64868 23.2507L6.87696 23.2843V22.6851L6.64868 22.6562V23.2507Z" fill="#00A63F"></path>
<path d="M6.87696 13.2873V12.6875L6.64868 12.737V13.3321L6.87696 13.2873Z" fill="#00A63F"></path>
<path d="M6.87696 10.6953L6.64868 10.7604V11.3548L6.87696 11.2944V10.6953Z" fill="#00A63F"></path>
<path d="M11.7188 30.9886L12.0346 31.1001V30.394L11.7188 30.2891V30.9886Z" fill="#00A63F"></path>
<path d="M12.2295 31.171L12.555 31.2859V30.5691L12.2295 30.4609V31.171Z" fill="#00A63F"></path>
<path d="M12.2295 28.8029L12.555 28.8955V28.1796L12.2295 28.0938V28.8029Z" fill="#00A63F"></path>
<path d="M12.0346 6.86719L11.7188 6.97897V7.6786L12.0346 7.57333V6.86719Z" fill="#00A63F"></path>
<path d="M12.555 6.6875L12.2295 6.8027V7.51286L12.555 7.40436V6.6875Z" fill="#00A63F"></path>
<path d="M8.95483 30.0098L10.2423 30.4642V29.7951L8.95483 29.3672V30.0098Z" fill="#00A63F"></path>
<path d="M8.95484 27.8684L10.2423 28.2344V27.5661L8.95484 27.2266V27.8684Z" fill="#00A63F"></path>
<path d="M8.95483 25.7286L10.2423 26.0063V25.3371L8.95483 25.0859V25.7286Z" fill="#00A63F"></path>
<path d="M10.2423 16.4219L8.95483 16.5241V17.1668L10.2423 17.0911V16.4219Z" fill="#00A63F"></path>
<path d="M10.2423 14.1875L8.95483 14.3781V15.0199L10.2423 14.8558V14.1875Z" fill="#00A63F"></path>
<path d="M11.2227 30.8143L11.5294 30.9226V30.2269L11.2227 30.125V30.8143Z" fill="#00A63F"></path>
<path d="M11.5294 25.5911L11.2227 25.5312V26.2207L11.5294 26.2868V25.5911Z" fill="#00A63F"></path>
<path d="M11.2227 18.6361V19.3247L11.5294 19.3277V18.6328L11.2227 18.6361Z" fill="#00A63F"></path>
<path d="M11.5294 14L11.2227 14.0454V14.7339L11.5294 14.6948V14Z" fill="#00A63F"></path>
<path d="M11.5294 11.6797L11.2227 11.7461V12.4355L11.5294 12.3753V11.6797Z" fill="#00A63F"></path>
<path d="M11.7188 28.6596L12.0346 28.7494V28.0442L11.7188 27.9609V28.6596Z" fill="#00A63F"></path>
<path d="M11.7188 20.9609V21.6606L12.0346 21.6854V20.9792L11.7191 20.9609L11.7188 20.9609Z" fill="#00A63F"></path>
<path d="M11.7188 18.6362V19.335L12.0346 19.3381V18.6328L11.7188 18.6362Z" fill="#00A63F"></path>
<path d="M12.0346 16.2812L11.7188 16.3063V17.006L12.0346 16.9874V16.2812Z" fill="#00A63F"></path>
<path d="M12.0346 11.5703L11.7188 11.6387V12.3383L12.0346 12.2764V11.5703Z" fill="#00A63F"></path>
<path d="M12.555 25.7901L12.2295 25.7266V26.4367L12.555 26.5069V25.7901Z" fill="#00A63F"></path>
<path d="M12.2295 20.9922V21.7024L12.555 21.7279V21.011L12.2297 20.9922L12.2295 20.9922Z" fill="#00A63F"></path>
<path d="M12.2295 18.6285V19.3378L12.555 19.341V18.625L12.2295 18.6285Z" fill="#00A63F"></path>
<path d="M12.555 16.2344L12.2295 16.2602V16.9704L12.555 16.9512V16.2344Z" fill="#00A63F"></path>
<path d="M12.555 11.4609L12.2295 11.5315V12.2415L12.555 12.1777V11.4609Z" fill="#00A63F"></path>
<path d="M11.2227 28.5166L11.5294 28.6038V27.909L11.2227 27.8281V28.5166Z" fill="#00A63F"></path>
<path d="M11.5294 16.3203L11.2227 16.3447V17.0341L11.5294 17.016V16.3203Z" fill="#00A63F"></path>
<path d="M8.02075 6.4062V31.5876V31.753L13.7453 34.1657V3.82812L8.02075 6.24077V6.4062ZM8.71132 7.55498L11.7078 6.44746L12.8153 6.03812V7.8944L8.71134 9.19398L8.71132 7.55498ZM8.71132 11.8038L12.8153 10.8503V12.7064L8.71138 13.4428L8.71132 11.8038ZM8.71132 13.9286L12.8153 13.2567V15.1129L8.71137 15.5675L8.71132 13.9286ZM8.71132 16.0526L12.8153 15.6623V17.5185L8.71144 17.6915H8.71132V16.0526ZM8.71132 18.1774L12.8153 18.0688V19.925L8.71132 19.8164V18.1774ZM8.71132 20.3014L12.8153 20.4743V22.3306L8.71132 21.9404V20.3014ZM8.71132 24.5501L12.8153 25.2863V27.1426L10.3531 26.5706L8.71132 26.1891V24.5501ZM8.71132 26.675L12.8153 27.6929V29.5491L8.71132 28.3139V26.675ZM8.71132 28.799L12.8153 30.0985V31.9546L8.71132 30.4379V28.799Z" fill="#00A63F"></path>
<path d="M8.95483 21.4474L10.2423 21.5484V20.8792L8.95483 20.8047V21.4474Z" fill="#00A63F"></path>
<path d="M8.95483 18.6623V19.3042L10.2423 19.3168V18.6484L8.95483 18.6623Z" fill="#00A63F"></path>
<path d="M10.2423 11.9609L8.95483 12.2399V12.8825L10.2423 12.6301V11.9609Z" fill="#00A63F"></path>
<path d="M10.2423 7.50001L8.95483 7.95567V8.59837L10.2423 8.16924V7.50001Z" fill="#00A63F"></path>
<path d="M11.5294 20.9552L11.2229 20.9375L11.2227 20.9375V21.6269L11.5294 21.651V20.9552Z" fill="#00A63F"></path>
<path d="M11.5294 7.04688L11.2227 7.15541V7.84484L11.5294 7.74263V7.04688Z" fill="#00A63F"></path>
<path d="M12.0346 25.6866L11.7188 25.625V26.3246L12.0346 26.3928V25.6866Z" fill="#00A63F"></path>
<path d="M12.0346 13.9219L11.7188 13.9686V14.6673L12.0346 14.627V13.9219Z" fill="#00A63F"></path>
<path d="M12.555 13.8516L12.2295 13.8998V14.6089L12.555 14.5674V13.8516Z" fill="#00A63F"></path>
<path d="M17.4716 32.1964L17.2965 32.1382L15.5642 31.5625V32.3412L17.4716 33.0144V32.1964Z" fill="#00A63F"></path>
<path d="M19.4129 32.8424L18.9468 32.6875V33.5359L19.4129 33.7004V32.8424Z" fill="#00A63F"></path>
<path d="M20.1842 33.0982L19.7007 32.9375V33.8015L20.1842 33.9721V33.0982Z" fill="#00A63F"></path>
<path d="M20.9844 27.4338L20.4827 27.3359V28.2161L20.9844 28.3243V27.4338Z" fill="#00A63F"></path>
<path d="M19.4129 4.25781L18.9468 4.42277V5.2713L19.4129 5.11596V4.25781Z" fill="#00A63F"></path>
<path d="M20.1842 3.98438L19.7007 4.15548V5.01955L20.1842 4.8584V3.98438Z" fill="#00A63F"></path>
<path d="M20.9844 3.70312L20.4827 3.8807V4.76084L20.9844 4.59364V3.70312Z" fill="#00A63F"></path>
<path d="M17.4716 4.94531L15.5642 5.62034L16.4444 5.30883L17.4716 4.94531Z" fill="#00A63F"></path>
<path d="M19.4129 7.11719L18.9468 7.25015V8.09749L19.4129 7.97414V7.11719Z" fill="#00A63F"></path>
<path d="M20.1842 6.89844L19.7007 7.03637V7.89923L20.1842 7.77126V6.89844Z" fill="#00A63F"></path>
<path d="M20.9844 6.66406L20.4827 6.8072V7.68613L20.9844 7.55334V6.66406Z" fill="#00A63F"></path>
<path d="M17.4716 7.67188L15.5642 8.21599V8.99376L17.4716 8.48889L17.4716 7.67188Z" fill="#00A63F"></path>
<path d="M20.9844 9.63281L20.4827 9.74152V10.6216L20.9844 10.5232V9.63281Z" fill="#00A63F"></path>
<path d="M19.4129 21.4098L18.9471 21.3828L18.9468 21.3828V22.2314L19.4129 22.2679V21.4098Z" fill="#00A63F"></path>
<path d="M17.4716 21.2978L15.5642 21.1875V21.9664L17.4716 22.116V21.2978Z" fill="#00A63F"></path>
<path d="M17.4716 18.5703L15.5642 18.5909V19.3687L17.4716 19.3874V18.5703Z" fill="#00A63F"></path>
<path d="M17.4716 13.1172L15.5642 13.3995V14.1773L17.4716 13.9342V13.1172Z" fill="#00A63F"></path>
<path d="M17.4716 4.94531L15.5643 5.62033L15.5642 6.3992L17.4716 5.76348V4.94531Z" fill="#00A63F"></path>
<path d="M20.9844 18.5312L20.4827 18.5367V19.4157L20.9844 19.4206V18.5312Z" fill="#00A63F"></path>
<path d="M19.4129 18.5547L18.9468 18.5597V19.4072L19.4129 19.4118V18.5547Z" fill="#00A63F"></path>
<path d="M19.4129 12.8359L18.9468 12.9049V13.7523L19.4129 13.6929V12.8359Z" fill="#00A63F"></path>
<path d="M20.1842 9.80469L19.7007 9.90943V10.7734L20.1842 10.6786V9.80469Z" fill="#00A63F"></path>
<path d="M20.9844 24.4697L20.4827 24.4062V25.2853L20.9844 25.3591V24.4697Z" fill="#00A63F"></path>
<path d="M20.9844 33.3699L20.4827 33.2031V34.0832L20.9844 34.2603V33.3699Z" fill="#00A63F"></path>
<path d="M17.3445 32.1094L17.3446 32.1093L17.4129 32.2805L17.4128 32.2806L17.3445 32.1094Z" fill="#00A63F"></path>
<path d="M17.4716 26.7471L15.5642 26.375V27.1539L17.4716 27.5652V26.7471Z" fill="#00A63F"></path>
<path d="M17.4716 24.0225L15.5642 23.7812V24.5591L17.4716 24.8396V24.0225Z" fill="#00A63F"></path>
<path d="M17.4716 10.3984L15.5643 10.8117L15.5642 11.5904L17.4716 11.2165V10.3984Z" fill="#00A63F"></path>
<path d="M19.4129 27.13L18.9468 27.0391V27.8876L19.4129 27.9881V27.13Z" fill="#00A63F"></path>
<path d="M19.4129 24.2699L18.9468 24.2109V25.0584L19.4129 25.127V24.2699Z" fill="#00A63F"></path>
<path d="M19.4129 9.97656L18.9468 10.0776V10.926L19.4129 10.8346V9.97656Z" fill="#00A63F"></path>
<path d="M20.1842 27.274L19.7007 27.1797V28.0437L20.1842 28.148V27.274Z" fill="#00A63F"></path>
<path d="M20.1842 24.3658L19.7007 24.3047V25.1677L20.1842 25.2388V24.3658Z" fill="#00A63F"></path>
<path d="M20.1842 21.4577L19.701 21.4297H19.7007V22.2938L20.1842 22.3317V21.4577Z" fill="#00A63F"></path>
<path d="M20.1842 18.5391L19.7007 18.5443V19.4072L20.1842 19.412V18.5391Z" fill="#00A63F"></path>
<path d="M20.1842 12.7188L19.7007 12.7903V13.6532L20.1842 13.5916V12.7188Z" fill="#00A63F"></path>
<path d="M20.9844 21.4978L20.483 21.4688H20.4827V22.3489L20.9844 22.3883V21.4978Z" fill="#00A63F"></path>
<path d="M20.9844 12.6016L20.4827 12.6758V13.5548L20.9844 13.4908V12.6016Z" fill="#00A63F"></path>
<path d="M22.8357 0L14.2012 3.63911V3.89101V34.109V34.3609L22.8357 38L34.3674 35.9442V2.05583L22.8357 0ZM21.3867 35.1255L17.4746 33.6797L15.2072 32.8417V30.8589L21.3867 32.8156V35.1255ZM21.3867 29.1371L15.2072 27.7014V25.7185L21.3867 26.827V29.1371ZM21.3867 26.1434L17.8436 25.5634L15.2072 25.1317V23.1488L21.3867 23.8334V26.1434ZM21.3867 23.1487L19.6795 22.9864L15.2072 22.5611V20.5782L21.3867 20.8386V23.1487ZM21.3867 20.155L15.2072 19.9914V18.0085L21.3867 17.8449V20.155ZM21.3867 14.1665L15.2072 14.851L15.2072 12.8682L21.3867 11.8565V14.1665ZM21.3867 11.1717L15.2072 12.2804L15.2072 10.2976L21.3867 8.86175V11.1717ZM21.3867 8.17806L15.2072 9.71073L15.2072 7.72795L16.6593 7.2909L18.0663 6.86744L21.3867 5.86812V8.17806ZM21.3867 5.18329L15.2072 7.1401L15.2072 5.15719L21.3867 2.87321L21.3867 5.18329Z" fill="#00A63F"></path>
</svg>