<svg xmlns="http://www.w3.org/2000/svg" width="38" height="38" viewBox="0 0 38 38" fill="none" class="svg replaced-svg">
<g clip-path="url(#clip0_414_627)">
<path d="M19.1086 15.4472C18.4015 14.0524 17.6154 12.5935 16.5936 11.1762C16.776 11.0032 16.9625 10.8335 17.1571 10.6664C19.9358 8.28235 23.6464 7.12463 28.4999 7.12463V0L37.9996 9.49876L28.5003 18.9993V11.8738C23.4911 11.8738 20.9039 13.2785 19.1086 15.4472ZM28.5003 26.124C20.4686 26.124 18.6616 22.5117 16.3751 17.9373C15.1013 15.3921 13.7855 12.7597 11.3432 10.6664C8.5632 8.28235 4.85391 7.12463 0 7.12463V11.8742C8.0322 11.8742 9.83876 15.4869 12.1253 20.0622C13.399 22.6084 14.7148 25.2399 17.1571 27.3336C19.9358 29.7172 23.6464 30.8749 28.4999 30.8749V38.0005L37.9996 28.5003L28.5003 18.9993V26.124ZM0 26.124V30.874C4.85346 30.874 8.5632 29.7172 11.3428 27.3331C11.5374 27.1665 11.7243 26.9968 11.9063 26.8229C10.8845 25.4051 10.0984 23.9467 9.39084 22.5515C7.59693 24.7206 5.00878 26.124 0 26.124Z" fill="#00A63F"></path>
</g>
<defs>
<clipPath id="clip0_414_627">
<rect width="38" height="38" fill="white"></rect>
</clipPath>
</defs>
</svg>