<svg xmlns="http://www.w3.org/2000/svg" width="38" height="38" viewBox="0 0 38 38" fill="none" class="svg replaced-svg">
<path fill-rule="evenodd" clip-rule="evenodd" d="M34.3412 15.075H33.6645C33.6257 15.075 33.5941 15.1066 33.594 15.1454C33.5926 16.0466 33.4639 16.2182 32.8497 16.5887C32.8279 16.6018 32.8156 16.6236 32.8156 16.649V17.9379C32.8156 17.96 32.8064 17.9791 32.7892 17.9929L31.2783 19.2018C31.2545 19.2208 31.2458 19.2513 31.2559 19.2801C31.266 19.3088 31.2919 19.3272 31.3224 19.3272H32.8893C33.2071 19.3272 33.4958 19.4569 33.7048 19.6659C33.9138 19.8749 34.0436 20.1636 34.0436 20.4815V21.8785C34.0436 22.1963 33.9139 22.485 33.7049 22.694C33.4958 22.903 33.2072 23.0329 32.8893 23.0329H31.6225C31.5837 23.0329 31.552 23.0645 31.552 23.1033V26.8233C31.552 26.8621 31.5837 26.8937 31.6225 26.8937H34.853C34.8919 26.8937 34.9235 26.9253 34.9235 26.9642V32.441C34.9235 32.7134 35.1443 32.9341 35.4166 32.9341C35.689 32.9341 35.9098 32.7134 35.9098 32.441V26.8937V16.6435C35.9097 15.7808 35.2039 15.075 34.3412 15.075ZM6.11772 18.3329C6.19942 18.766 6.21683 19.1071 6.28872 19.2833C6.29974 19.3104 6.32475 19.3272 6.35393 19.3272H9.69444C9.70667 19.3272 9.71708 19.3298 9.7278 19.3356L9.92008 19.4391C9.96051 19.4609 10 19.4843 10.0392 19.508L10.1273 19.5612C10.1324 19.5643 10.1365 19.5674 10.1407 19.5717L11.3296 20.7617L12.7709 22.2403C12.9171 22.3866 13.0341 22.5556 13.0927 22.7415C13.1475 22.9152 13.1511 23.1001 13.0815 23.2912L11.7692 26.8912C11.7689 26.8921 11.7686 26.8929 11.7683 26.8938C11.673 27.1575 11.6938 27.4363 11.8043 27.6736C11.9149 27.9111 12.115 28.1065 12.378 28.2028C12.3791 28.2032 12.38 28.2035 12.381 28.2039C12.4206 28.2164 12.4619 28.2341 12.5016 28.2479C12.766 28.3443 13.0458 28.3238 13.2839 28.2129C13.5218 28.1021 13.7175 27.9014 13.8137 27.6376L14.0848 26.8938L15.7247 22.3949C16.0384 21.5343 14.8354 20.439 13.644 19.3542C12.5321 18.3418 11.4294 17.338 11.4294 16.3852V14.2284V12.8317H11.4298C11.4298 12.7856 11.4447 12.7393 11.4756 12.7004C11.5482 12.6092 11.6808 12.5941 11.772 12.6666L13.4542 14.0019C13.4672 14.0122 13.4814 14.0171 13.4979 14.0171H17.4261C17.6804 14.0171 17.9116 13.9129 18.0794 13.7451C18.2472 13.5773 18.3514 13.3461 18.3514 13.0918C18.3514 12.8834 18.2814 12.6902 18.1636 12.535C18.1377 12.5009 18.1097 12.4687 18.0794 12.4385C17.9116 12.2707 17.6804 12.1665 17.4261 12.1665H14.0986V12.1658C14.0835 12.1658 14.0686 12.1641 14.054 12.161C14.0001 12.1493 13.9507 12.1165 13.9194 12.0658L11.7526 8.56687C11.6352 8.3774 11.4522 8.26264 11.2402 8.19454C11.0098 8.12052 10.7411 8.09985 10.4786 8.09985H7.86671C7.33479 8.09985 6.85173 8.3169 6.50168 8.66696C6.15162 9.01702 5.93456 9.50007 5.93456 10.032V14.2285V16.4503H5.93373C5.93396 16.804 5.98161 17.6115 6.11772 18.3329ZM31.969 17.5309C31.969 17.553 31.9598 17.5721 31.9425 17.5859L25.8255 22.4801C25.5437 22.7056 25.4737 23.0994 25.6606 23.4081L27.5188 26.4785C27.8887 27.0898 27.6913 27.8925 27.08 28.2625C26.4688 28.6324 25.666 28.4349 25.2961 27.8237L22.9589 23.9619C22.4327 23.0924 22.6294 21.9835 23.4223 21.348C23.4232 21.3473 23.4238 21.3468 23.4246 21.3461L27.8639 17.4694C27.8742 17.4603 27.8853 17.4551 27.8988 17.4529L31.887 16.7974C31.9082 16.7939 31.9278 16.7993 31.944 16.8132C31.9604 16.827 31.9689 16.8455 31.9689 16.8669V17.5309H31.969ZM25.2016 17.2714L22.5062 19.3437C22.5048 19.3447 22.5038 19.3456 22.5025 19.3467C22.4959 19.3525 22.4889 19.358 22.4817 19.363C22.4801 19.364 22.4789 19.3649 22.4775 19.3661C21.892 19.8352 22.0757 20.3586 22.4328 20.8442C22.4458 20.8619 22.4643 20.8718 22.4863 20.8729C22.5083 20.8739 22.5276 20.8657 22.5422 20.8493C22.6493 20.7288 22.8089 20.575 22.9161 20.4878C22.9165 20.4874 22.917 20.487 22.9175 20.4866L26.0363 17.8143C26.0584 17.7954 26.0665 17.7667 26.0575 17.7391C26.0485 17.7114 26.0251 17.6929 25.9961 17.6907C25.6482 17.6628 25.4344 17.4862 25.3032 17.2884C25.292 17.2715 25.276 17.2612 25.256 17.2578C25.2361 17.2544 25.2176 17.259 25.2016 17.2714ZM32.748 14.3946C32.748 14.3979 32.7483 14.4007 32.7487 14.404C32.8133 14.8693 32.6115 15.7186 31.9846 15.9679C31.9798 15.9698 31.9755 15.9709 31.9704 15.9719L28.8165 16.5102L27.6744 16.7024H27.6745L26.6895 16.8438C26.0706 16.9326 25.4917 16.4989 25.4029 15.8801C25.314 15.2613 25.7477 14.6824 26.3666 14.5935L28.5956 14.2736C28.6284 14.2689 28.6529 14.2429 28.6558 14.2099L28.8098 12.4081C28.8116 12.3878 28.8053 12.3696 28.7915 12.3545C28.7777 12.3394 28.76 12.3317 28.7396 12.3317H26.9762C26.9563 12.3317 26.9392 12.339 26.9255 12.3533C26.9117 12.3676 26.905 12.3849 26.9058 12.4047L26.9708 14.1552C26.9716 14.1751 26.9649 14.1924 26.9511 14.2067C26.9374 14.221 26.9203 14.2283 26.9005 14.2283H21.0898C20.4646 14.2283 19.9531 13.7168 19.9531 13.0916C19.9531 12.4664 20.4646 11.9549 21.0898 11.9549H24.5058C24.5315 11.9549 24.5535 11.9423 24.5665 11.9202L26.26 9.03837C26.6272 8.41342 27.322 7.88826 28.0644 7.88826H31.7063C32.3273 7.88826 32.7185 8.44048 32.7214 9.03123L32.748 14.3946ZM29.2796 7.09688C30.4454 7.09688 31.3905 6.15182 31.3905 4.98598C31.3905 3.82014 30.4454 2.87508 29.2796 2.87508C28.1137 2.87508 27.1687 3.82014 27.1687 4.98598C27.1687 6.15174 28.1137 7.09688 29.2796 7.09688ZM29.582 23.0329H30.4979C30.5368 23.0329 30.5684 23.0645 30.5684 23.1033V26.8937V31.2615C30.5684 31.2843 30.5781 31.3039 30.5963 31.3176L34.4499 34.233C34.667 34.3968 34.7101 34.7056 34.5462 34.9227C34.3824 35.1397 34.0736 35.1828 33.8565 35.019L30.1176 32.1904C30.0921 32.1711 30.0581 32.1711 30.0326 32.1904L26.2937 35.019C26.0767 35.1828 25.7679 35.1397 25.604 34.9227C25.4402 34.7056 25.4834 34.3968 25.7003 34.233L29.5539 31.3176C29.5721 31.3039 29.5819 31.2843 29.5819 31.2615V26.9642C29.5819 26.9253 29.5503 26.8937 29.5114 26.8937H28.5972C28.562 26.8937 28.5326 26.8683 28.5275 26.8335C28.4869 26.5555 28.3917 26.2857 28.2431 26.0403L26.4448 23.069L26.4706 23.0484C26.4836 23.038 26.498 23.0329 26.5146 23.0329H27.2611H28.9382H29.582V23.0329ZM9.04296 2.875C10.2088 2.875 11.1539 3.82006 11.1539 4.9859C11.1539 6.15174 10.2088 7.0968 9.04296 7.0968C7.87712 7.0968 6.93206 6.15174 6.93206 4.9859C6.93199 3.82014 7.87712 2.875 9.04296 2.875ZM7.43169 23.1032C7.43169 23.0644 7.4633 23.0328 7.50214 23.0328H10.1753C10.4816 23.0328 10.7745 22.9104 10.9908 22.6941C11.1338 22.5512 11.2357 22.3749 11.2884 22.1834C11.2953 22.1584 11.3136 22.1403 11.3388 22.1339C11.3639 22.1274 11.3886 22.1343 11.4068 22.1529L12.115 22.8796L12.1229 22.8875C12.1407 22.9054 12.1698 22.937 12.1918 22.9678C12.2058 22.9873 12.2089 23.0104 12.2007 23.0329L10.9087 26.5775C10.9079 26.5799 10.907 26.5821 10.9062 26.5844C10.8761 26.6676 10.852 26.7523 10.8338 26.8379C10.8268 26.8708 10.7986 26.8937 10.7649 26.8937H8.48839C8.44956 26.8937 8.41794 26.9253 8.41794 26.9641V31.2614C8.41794 31.2842 8.42767 31.3038 8.44591 31.3175L12.2995 34.2329C12.5165 34.3968 12.5596 34.7055 12.3958 34.9226C12.2319 35.1397 11.9231 35.1827 11.7061 35.0189L7.96718 32.1903C7.94165 32.171 7.90768 32.171 7.88222 32.1903L4.14355 35.019C3.92649 35.1828 3.6177 35.1397 3.45385 34.9227C3.28999 34.7056 3.33316 34.3968 3.55014 34.233L7.40372 31.3176C7.42188 31.3039 7.43169 31.2843 7.43169 31.2615V26.8937V23.1032ZM14.5603 11.1484L16.3993 7.47042C16.4115 7.44594 16.435 7.4315 16.4623 7.4315H20.6013C20.6265 7.4315 20.6481 7.44351 20.6612 7.46494C20.6745 7.4863 20.6755 7.511 20.6644 7.5335L18.6342 11.5938C18.6245 11.6131 18.6084 11.6259 18.5873 11.6308C18.5663 11.6357 18.5462 11.6316 18.5289 11.6186C18.2126 11.3812 17.827 11.2504 17.4263 11.2504H14.6851L14.6233 11.2504C14.5982 11.2503 14.5766 11.2383 14.5634 11.2169C14.5502 11.1955 14.5492 11.1708 14.5603 11.1484ZM15.1605 26.8937C15.1368 26.8937 15.1164 26.883 15.1028 26.8636C15.0892 26.8443 15.0863 26.8214 15.0944 26.7991L16.5854 22.7084C17.1552 21.1452 15.2748 19.6 14.2608 18.6768C13.8317 18.2862 12.3455 16.9965 12.3455 16.3851V15.1454C12.3455 15.1066 12.3772 15.075 12.416 15.075H21.0897H24.5566C24.5795 15.075 24.5993 15.0849 24.613 15.1032C24.6268 15.1215 24.6307 15.1432 24.6243 15.1652C24.5454 15.435 24.5245 15.7199 24.5648 16.0004C24.5898 16.1739 24.6373 16.343 24.7066 16.5034C24.7196 16.5333 24.7109 16.5671 24.6851 16.5871L21.985 18.6765C21.9836 18.6775 21.9824 18.6784 21.981 18.6794L21.9791 18.6806L21.9513 18.7028C21.5842 18.9957 21.3473 19.4191 21.2879 19.8849C21.2289 20.3482 21.3534 20.8228 21.6337 21.1965L21.6533 21.2225C21.6545 21.2241 21.6555 21.2255 21.6569 21.227L21.6578 21.2281L21.9187 21.5651C21.9346 21.5857 21.938 21.6113 21.9279 21.6353C21.5789 22.4724 21.6509 23.4362 22.1234 24.2169L23.6788 26.787C23.6923 26.8093 23.6927 26.8353 23.6799 26.858C23.667 26.8807 23.6446 26.8939 23.6185 26.8939H15.1605V26.8937ZM4.94824 15.075C4.98707 15.075 5.01869 15.1066 5.01869 15.1454V16.3808H5.01747L5.01785 16.4505C5.01816 17.1117 5.09499 17.8526 5.21766 18.5027C5.26075 18.7312 5.28461 18.9936 5.3334 19.2432C5.33758 19.2646 5.33249 19.2847 5.31866 19.3015C5.30483 19.3183 5.28606 19.3272 5.26424 19.3272H5.11072C4.80437 19.3272 4.51146 19.4495 4.29509 19.6658C4.07864 19.8822 3.95636 20.1751 3.95636 20.4815V21.8785C3.95636 22.1848 4.07864 22.4777 4.29502 22.6941C4.51139 22.9105 4.80429 23.0328 5.11072 23.0328H6.37757C6.4164 23.0328 6.44802 23.0644 6.44802 23.1032V26.8232C6.44802 26.862 6.4164 26.8937 6.37757 26.8937H3.14711C3.10828 26.8937 3.07666 26.9253 3.07666 26.9641V32.4409C3.07666 32.7133 2.85588 32.9341 2.5835 32.9341C2.31111 32.9341 2.09033 32.7133 2.09033 32.4409V26.8937V16.6435C2.09033 15.7808 2.79614 15.075 3.65882 15.075H4.94824Z" fill="#00A63F"></path>
</svg>