<?xml version="1.0" encoding="utf-8"?>
<!-- Generator: Adobe Illustrator 27.5.0, SVG Export Plug-In . SVG Version: 6.00 Build 0)  -->
<svg version="1.1" xmlns="http://www.w3.org/2000/svg" xmlns:xlink="http://www.w3.org/1999/xlink" x="0px" y="0px"
	 viewBox="0 0 1122 1122" style="enable-background:new 0 0 1122 1122;" xml:space="preserve">

<g id="shadow">
	<path style="opacity:0.1;fill:#606060;" d="M995.14,932.506H268.376c-22.988,0-41.796,12.032-41.796,26.737l0,0
		c0,10.183,9.022,19.08,22.201,23.591h-63.998c-22.988,0-41.796,12.032-41.796,26.737l0,0c0,14.705,18.808,26.737,41.796,26.737
		h22.3c-6.228,4.672-10.007,10.716-10.007,17.3v10.695c0,14.705,18.808,26.737,41.796,26.737h715.946
		c22.988,0,41.796-12.032,41.796-26.737v-10.695c0-14.705-18.808-26.737-41.796-26.737l-48.68,0.594
		c3.708,0,9.729-1.871,13.768-5.633c7.082-6.596,7.397-16.636,3.934-24.947c-2.245-5.388-5.841-9.66-14.752-11.266l86.051,0.361
		c22.988,0,41.796-12.032,41.796-26.737l0,0C1036.937,944.537,1018.128,932.506,995.14,932.506z"/>
</g>
<g id="object">
	<g>
		<path style="fill:#998675;" d="M279.249,989.467v62.005c0,2.006,1.626,3.632,3.632,3.632h6.148c1.728,0,3.217-1.21,3.558-2.905
			c2.067-10.269,10.112-45.051,26.79-60.081c2.448-2.206,0.817-6.282-2.478-6.282H282.88
			C280.874,985.835,279.249,987.461,279.249,989.467z"/>
		<path style="fill:#998675;" d="M879.338,991.474v57.992c0,3.114-2.524,5.638-5.638,5.638h-2.507c-2.665,0-4.964-1.858-5.515-4.466
			c-2.331-11.052-9.49-39.9-23.347-55.376c-3.266-3.647-0.728-9.426,4.168-9.426H873.7
			C876.814,985.835,879.338,988.36,879.338,991.474z"/>
		<path style="fill:#BDD1D0;" d="M884.675,929.162H260.851c-9.099,0-16.476-7.376-16.476-16.476V734.771
			c0-9.099,7.376-16.476,16.476-16.476h623.824c9.099,0,16.476,7.376,16.476,16.476v177.915
			C901.151,921.785,893.774,929.162,884.675,929.162z"/>
		<rect x="244.376" y="856.469" style="fill:#AEC1BF;" width="656.775" height="49.618"/>
		<path style="fill:#BDD1D0;" d="M902.914,999.092H246.1c-4.162,0-7.536-3.374-7.536-7.536v-11.44c0-4.162,3.374-7.536,7.536-7.536
			h656.814c4.162,0,7.536,3.374,7.536,7.536v11.44C910.45,995.718,907.076,999.092,902.914,999.092z"/>
		<path style="fill:#CAD8D7;" d="M899.046,974.489H249.968c-6.298,0-11.404-5.106-11.404-11.404v-56.364
			c0-6.298,5.106-11.404,11.404-11.404h649.078c6.298,0,11.404,5.106,11.404,11.404v56.364
			C910.45,969.383,905.344,974.489,899.046,974.489z"/>
		<path style="fill:#BDD1D0;" d="M915.613,909.451h-10.326c-6.6,0-12-5.4-12-12V786.446c0-6.6,5.4-12,12-12h10.326
			c6.6,0,12,5.4,12,12v111.006C927.613,904.052,922.213,909.451,915.613,909.451z"/>
		<path style="fill:#BDD1D0;" d="M232.376,927.337H222.05c-6.6,0-12-5.4-12-12V804.331c0-6.6,5.4-12,12-12h10.326
			c6.6,0,12,5.4,12,12v111.006C244.376,921.937,238.976,927.337,232.376,927.337z"/>
		<path style="fill:#83A296;" d="M549.985,848.23c-0.884-9.396-3.642-20.508-3.947-24.152c-1.269-15.125-3.201-30.034-3.85-45.26
			c-0.931-21.836,0.532-44.344,2.459-66.089c1.123-12.678,4.122-19.772-11.784-21.879c-12.453-1.65-24.952,1.135-37.362,1.669
			c-19.798,0.851-39.561,2.344-59.368,3.001c-28.234,0.936-56.46-0.533-84.657-1.787c-14.408-0.641-28.821-1.247-43.246-1.434
			c-9.621-0.125-19.379-2.266-29.006-1.049c-16.008,2.024-9.569,14.635-7.956,26.671c4.021,30,6.829,60.152,8.415,90.363
			c0.45,8.569,0.811,17.177,0.322,25.752c-0.369,6.465-5.234,18.662-2.107,24.542c4.512,8.484,24.771,6.18,33.071,6.51
			c21.326,0.847,42.675,1.276,64.016,1.572c32.345,0.448,64.706-0.165,97.008-1.837c24.373-1.262,49.21-3.06,73.458-1.991
			C550.129,863.037,550.741,856.26,549.985,848.23z"/>
		<path style="fill:#83A296;" d="M841.931,848.23c-0.84-9.396-3.461-20.508-3.752-24.152c-1.206-15.125-3.042-30.034-3.659-45.26
			c-0.885-21.836,0.506-44.344,2.337-66.089c1.068-12.678,3.918-19.772-11.201-21.879c-11.836-1.65-23.716,1.135-35.512,1.669
			c-18.817,0.851-37.602,2.344-56.428,3.001c-26.836,0.936-53.664-0.533-80.464-1.787c-13.695-0.641-27.393-1.247-41.104-1.434
			c-9.145-0.125-18.419-2.266-27.569-1.049c-15.215,2.024-9.095,14.635-7.562,26.671c3.822,30,6.491,60.152,7.998,90.363
			c0.428,8.569,0.771,17.177,0.306,25.752c-0.351,6.465-4.974,18.662-2.002,24.542c4.288,8.484,23.544,6.18,31.433,6.51
			c20.27,0.847,40.561,1.276,60.845,1.572c30.743,0.448,61.501-0.165,92.203-1.837c23.165-1.262,46.773-3.06,69.819-1.991
			C842.068,863.037,842.649,856.26,841.931,848.23z"/>
	</g>
	<g>
		<g>
			<path style="fill:#76A8CE;" d="M768.454,286.911c-11.382,33.332,4.954,65.261,36.487,71.316
				c7.897,1.516,15.999,1.265,23.886-0.486c-4.962,29.494,8.319,55.958,33.978,63.128c20.247,5.657,43.123-2.119,60.505-18.41
				c5.754,12.337,15.917,21.654,29.604,25.479c30.601,8.551,67.214-13.579,81.776-49.427c1.035-2.549,1.927-5.098,2.687-7.639
				c21.321-2.881,40.399-21.631,43.305-43.143c2.878-21.308-11.15-37.641-31.763-37.911c20.731-36.01,20.052-76.65-3.404-95.832
				c-18.453-15.09-46.13-12.914-71.246,2.915c-1.815-24.26-15.634-44.115-38.153-50.407c-33.527-9.368-73.641,14.877-89.595,54.154
				c-5.002,12.314-7.034,24.642-6.436,36.055C810.279,234.338,779.11,255.708,768.454,286.911z"/>
		</g>
		<g>
			
				<ellipse transform="matrix(0.9951 -0.0984 0.0984 0.9951 -42.0277 87.7097)" style="fill:#76A8CE;" cx="868.372" cy="470.021" rx="27.049" ry="24.506"/>
			
				<ellipse transform="matrix(0.9951 -0.0984 0.0984 0.9951 -47.1738 85.1057)" style="fill:#76A8CE;" cx="839.436" cy="520.923" rx="15.157" ry="13.733"/>
			
				<ellipse transform="matrix(0.9951 -0.0984 0.0984 0.9951 -50.0654 82.4284)" style="fill:#76A8CE;" cx="810.801" cy="548.883" rx="12.005" ry="10.876"/>
		</g>
	</g>
	<g>
		<g>
			<path style="fill:#76A8CE;" d="M375.698,335.003c7.547-0.911,14.963,4.246,16.563,11.52c1.6,7.274-3.22,13.909-10.768,14.821
				c-7.547,0.911-14.963-4.246-16.563-11.52C363.33,342.55,368.151,335.915,375.698,335.003z"/>
			<path style="fill:#76A8CE;" d="M380.147,371.542c4.229-0.511,8.385,2.379,9.282,6.456c0.897,4.076-1.805,7.794-6.034,8.305
				c-4.229,0.511-8.385-2.379-9.282-6.455C373.216,375.771,375.918,372.053,380.147,371.542z"/>
			<path style="fill:#76A8CE;" d="M388.388,392.673c3.349-0.405,6.641,1.885,7.351,5.113c0.71,3.228-1.429,6.173-4.779,6.578
				c-3.35,0.405-6.641-1.885-7.351-5.113C382.898,396.023,385.038,393.078,388.388,392.673z"/>
		</g>
		<g>
			<path style="fill:#76A8CE;" d="M496.951,157.799c5.365-10.957,8.415-23.521,8.415-36.88c0-42.609-31.018-77.151-69.281-77.151
				c-25.699,0-48.129,15.582-60.089,38.724c-19.151-22.259-46.612-31.915-71.807-22.236c-32.027,12.303-49.642,51.714-43.387,92.441
				c-21.239-5.348-42.416,6.746-48.338,28.29c-5.978,21.75,5.769,45.211,26.422,53.822c-0.279,2.682-0.426,5.409-0.426,8.174
				c0,38.891,28.311,70.418,63.235,70.418c15.621,0,29.916-6.311,40.95-16.764c11.033,20.604,31.241,34.408,54.348,34.408
				c29.283,0,53.913-22.168,61.107-52.254c7.355,3.853,15.554,6.303,24.279,6.976c34.84,2.686,64.876-23.975,67.088-59.549
				C551.534,192.915,528.485,163.61,496.951,157.799z"/>
		</g>
	</g>
	<g>
		<g>
			<path style="fill:#76A8CE;" d="M574.598,453.15c7.043-0.851,13.964,3.963,15.458,10.751c1.494,6.788-3.005,12.981-10.049,13.831
				s-13.964-3.963-15.458-10.751C563.056,460.193,567.555,454.001,574.598,453.15z"/>
			<path style="fill:#76A8CE;" d="M578.75,487.25c3.947-0.477,7.825,2.221,8.662,6.025c0.837,3.804-1.684,7.274-5.631,7.751
				c-3.947,0.477-7.825-2.221-8.662-6.025C572.282,491.197,574.803,487.727,578.75,487.25z"/>
			<path style="fill:#76A8CE;" d="M586.44,506.971c3.126-0.378,6.198,1.759,6.86,4.771c0.663,3.013-1.334,5.761-4.46,6.139
				c-3.126,0.378-6.197-1.759-6.86-4.771C581.318,510.096,583.315,507.348,586.44,506.971z"/>
		</g>
		<g>
			<path style="fill:#76A8CE;" d="M706.999,331.665c3.708-7.573,5.815-16.256,5.815-25.488c0-29.448-21.437-53.321-47.882-53.321
				c-17.761,0-33.263,10.769-41.529,26.763c-13.236-15.384-32.215-22.057-49.627-15.368c-22.134,8.503-34.308,35.741-29.985,63.888
				c-14.679-3.696-29.315,4.662-33.407,19.551c-4.132,15.032,3.987,31.246,18.261,37.197c-0.193,1.854-0.295,3.738-0.295,5.649
				c0,26.878,19.566,48.667,43.703,48.667c10.796,0,20.676-4.362,28.301-11.586c7.625,14.24,21.591,23.78,37.561,23.78
				c20.238,0,37.26-15.32,42.232-36.114c5.083,2.663,10.749,4.356,16.78,4.821c24.079,1.856,44.837-16.57,46.365-41.155
				C744.723,355.935,728.793,335.681,706.999,331.665z"/>
		</g>
	</g>
	<g>
		<g>
			
				<ellipse transform="matrix(0.9841 -0.1774 0.1774 0.9841 -95.1203 50.1367)" style="fill:#76A8CE;" cx="232.851" cy="557.069" rx="13.34" ry="11.875"/>
			<path style="fill:#76A8CE;" d="M244.15,575.033c3.277-2.349,7.952-1.947,10.44,0.899s1.849,7.057-1.428,9.407
				c-3.277,2.349-7.952,1.947-10.44-0.899C240.233,581.594,240.872,577.382,244.15,575.033z"/>
			<path style="fill:#76A8CE;" d="M260.02,588.138c2.596-1.861,6.298-1.542,8.269,0.712c1.971,2.254,1.464,5.589-1.131,7.45
				c-2.596,1.861-6.298,1.542-8.269-0.712C256.918,593.335,257.424,589.999,260.02,588.138z"/>
		</g>
		<g>
			<path style="fill:#76A8CE;" d="M293.457,399.452c4.723-8.751,7.408-18.786,7.408-29.455c0-34.032-27.308-61.62-60.994-61.62
				c-22.625,0-42.372,12.445-52.902,30.928c-16.861-17.778-41.037-25.49-63.218-17.76c-28.196,9.827-43.704,41.304-38.197,73.832
				c-18.699-4.271-37.343,5.388-42.556,22.594c-5.263,17.371,5.079,36.11,23.261,42.987c-0.245,2.142-0.375,4.32-0.375,6.528
				c0,31.061,24.925,56.242,55.671,56.242c13.753,0,26.338-5.041,36.052-13.389c9.713,16.457,27.504,27.482,47.847,27.482
				c25.781,0,47.465-17.705,53.797-41.735c6.475,3.077,13.693,5.034,21.375,5.571c30.673,2.145,57.116-19.149,59.063-47.561
				C341.512,427.499,321.22,404.093,293.457,399.452z"/>
		</g>
	</g>
	<g>
		<path style="fill:#F1CD41;" d="M941.765,369.177c4.619,0.069,9.706-1.526,13.065-5.38c2.58-2.961,4.189-8.984,0.699-11.976
			c-2.102-1.803-5.099-1.68-7.456-0.368c-1.064,0.593-2.046,1.406-3.174,1.807c-1.906,0.677-3.973,0.095-5.83-0.747
			c-1.856-0.841-3.648-1.947-5.609-2.361c-1.961-0.414-4.212,0.018-5.489,1.793c-1.996,2.774-1.52,7.614,0.235,10.303
			c1.973,3.023,5.258,5.037,8.349,6.064C938.23,368.869,939.996,369.151,941.765,369.177z"/>
		<g>
			<path style="fill:#FFFFF0;" d="M910.622,381.273c-6.308,0-12.861-0.91-18.773-2.677c-11.868-3.549-22.555-11.624-30.09-22.737
				c-6.672-9.84-10.199-21.441-10.199-33.548V215.053c0-2.349,1.905-4.254,4.254-4.254c2.349,0,4.254,1.904,4.254,4.254v107.258
				c0,10.398,3.02,20.348,8.733,28.773c6.532,9.634,15.345,16.329,25.486,19.362c8.163,2.441,17.695,3.004,25.495,1.505
				c6.355-1.221,14.7-4.423,18.368-12.746c0.947-2.149,3.457-3.124,5.608-2.177c2.149,0.947,3.124,3.458,2.177,5.608
				c-4.081,9.258-12.569,15.368-24.549,17.669C918.009,380.954,914.358,381.273,910.622,381.273z"/>
		</g>
		<path style="fill:#6596C1;" d="M1011.298,271.336c-4.164-1.595-8.451-2.905-12.842-3.702c-18.414-3.345-37.741-2.638-56.381-2.176
			c-10.105,0.25-20.569,0.165-30.592,1.417c-5.729,0.546-11.39,1.792-16.825,3.686c-0.711,0.248-1.418,0.506-2.121,0.775
			c-9.406,3.603-15.1,13.198-13.769,23.182c0.865,6.485,1.635,12.988,2.796,19.429c0.915,5.075,2.89,10.134,6.951,13.57
			c4.764,4.031,11.231,6.627,17.031,8.748c0.62,0.227,1.242,0.447,1.866,0.661c3.686,1.264,7.64,1.697,11.471,0.749
			c5.947-1.471,10.317-6.154,13.83-10.908c4.241-5.74,8.338-11.587,12.626-17.3c1.545-2.059,3.399-5.885,6.294-5.684
			c0.479,0.033,0.948,0.152,1.41,0.28c2.646,0.732,3.876,3.225,5.446,5.32c2.169,2.894,4.337,5.787,6.505,8.681
			c2.685,3.583,5.477,7.114,8.039,10.784c3.449,4.94,8.417,8.654,14.536,9.28c5.046,0.516,10.032-1.525,14.608-3.418
			c2.655-1.099,5.248-2.346,7.764-3.734c2.456-1.355,5.002-2.696,6.908-4.766c3.023-3.281,4.988-7.472,5.578-11.894
			c0.84-6.298,1.945-12.566,2.456-18.904c0.491-6.095-0.083-11.475-3.792-16.572
			C1018.633,275.458,1015.203,272.833,1011.298,271.336z"/>
		<path style="fill:#F1CD41;" d="M860.618,229.257h-8.051c-1.355,0-2.021-0.666-2.021-1.488v-12.094
			c0-0.822,0.666-1.488,1.488-1.488h8.051c0.822,0,1.488,0.666,1.488,1.488v12.094C861.572,228.591,860.905,229.257,860.618,229.257
			z"/>
		<path style="fill:#F1CD41;" d="M860.385,234.838h-9.143c-0.351,0-0.635-0.271-0.635-0.605V231.4c0-0.334,0.284-0.605,0.635-0.605
			h9.143c0.351,0,0.635,0.271,0.635,0.605v2.832C861.02,234.567,860.736,234.838,860.385,234.838z"/>
		<path style="fill:#B22759;" d="M939.251,371.099c-0.096-2.109-1.713-3.857-3.505-4.973c-0.56-0.349-1.204-0.667-1.854-0.552
			c-0.421,0.074-0.787,0.322-1.139,0.563c-0.582,0.399-1.165,0.799-1.747,1.198c2.352-0.229,4.789,1.468,5.234,3.789
			c0.196,1.023,0.035,2.082,0.135,3.119c0.799-0.7,1.598-1.401,2.397-2.102c0.156-0.137,0.317-0.279,0.402-0.469
			C939.254,371.496,939.26,371.294,939.251,371.099z"/>
		<g>
			<path style="fill:#FFFFF0;" d="M897.553,212.283c1.682,0.993,3.294,1.947,4.178,3.96c0.675,1.537,1.256,3.276,2.683,4.161
				c0.82,0.509,1.821,0.655,2.785,0.609c2.93-0.139,5.611-1.983,7.232-4.427c1.621-2.444,2.283-5.421,2.396-8.352
				c0.047-1.214,0.011-2.465,0.455-3.596c1.68-4.272,8.557-2.123,7.32,2.392c-0.254,0.927-0.521,1.881-1.109,2.642
				c-0.46,0.595-1.087,1.033-1.705,1.462c-1.527,1.061-3.155,2.862-3.834,4.621c-0.952,2.465-0.036,5.213-0.002,7.856
				c0.07,5.421-4.153,10.583-9.48,11.589c-5.093,0.962-9.068-1.759-12.179-5.441c-2.948-3.49-3.388-7.881-5.94-11.608
				c-0.843-1.23-1.955-2.366-3.384-2.791c-1.43-0.424-3.205,0.07-3.871,1.405c-0.558,1.119-0.135,2.629,0.923,3.295
				c1.058,0.667,2.602,0.396,3.371-0.591c1.843,1.071,2.03,3.985,0.567,5.535c-1.463,1.55-4.04,1.699-5.9,0.656
				c-1.859-1.042-3.032-3.053-3.477-5.137c-0.35-1.641-0.298-3.366,0.151-4.983c0.779-2.805,2.681-5.15,3.855-7.814
				c1.174-2.663,1.436-6.165-0.697-8.145c-0.563-0.523-1.252-0.895-1.966-1.18c-3.471-1.387-7.695-0.652-10.493,1.825
				c-1.346,1.191-2.365,2.729-3.784,3.831c-1.42,1.102-3.506,1.682-4.993,0.674c1.356-1.314,2.711-2.629,4.067-3.944
				c3.505-3.399,7.626-7.04,12.5-6.747c4.676,0.281,8.299,4.124,10.983,7.963c2.083,2.979,3.99,6.257,6.825,8.604
				C895.833,211.269,896.702,211.781,897.553,212.283z"/>
			<path style="fill:#FFFFF0;" d="M928.507,193.061c-0.864-0.151-1.796-0.071-2.717,0.125c-1.98,0.42-3.909,1.464-4.357,3.64
				c-1.155,5.603,8.55,6.855,10.208,1.876c0.435-1.304,0.287-2.823-0.505-3.963C930.438,193.734,929.519,193.238,928.507,193.061z"
				/>
			<path style="fill:#FFFFF0;" d="M890.419,230.729c0.251-0.518,0.327-1.118,0.163-1.669c-0.573-1.924-3.127-1.922-3.851-0.125
				c-0.754,1.873,1.104,4.063,2.938,2.708C889.988,231.406,890.245,231.087,890.419,230.729z"/>
			<path style="fill:#FFFFF0;" d="M889.872,234.7c0.827-0.484-0.002-2.145-0.969-1.368c-0.288,0.232-0.39,0.666-0.234,1.002
				c0.155,0.335,0.552,0.539,0.915,0.47C889.696,234.782,889.792,234.747,889.872,234.7z"/>
		</g>
		<path style="opacity:0.18;fill:#FFFFFF;" d="M1024.059,290.852c-6.012,5.698-11.632,11.714-17.969,17.073
			c-9.801,8.287-19.242,16.82-28.16,25.954c2.918,2.539,6.43,4.281,10.44,4.691c5.046,0.516,10.032-1.525,14.608-3.418
			c2.655-1.099,5.248-2.346,7.764-3.734c2.456-1.355,5.002-2.696,6.908-4.766c3.023-3.281,4.988-7.472,5.578-11.894
			c0.84-6.298,1.945-12.566,2.456-18.904c0.181-2.249,0.215-4.4,0.002-6.476C1025.139,289.865,1024.591,290.348,1024.059,290.852z"
			/>
		<g>
			<path style="opacity:0.18;fill:#FFFFFF;" d="M881.865,312.542c0.166-0.172,0.341-0.34,0.504-0.513
				c6.176-6.503,12.243-13.109,18.375-19.654c6.025-6.43,12.16-12.74,18.394-18.966c2.45-2.447,4.803-5.019,7.158-7.592
				c-4.802,0.172-9.591,0.459-14.282,1.046c-5.729,0.546-11.39,1.792-16.825,3.686c-0.711,0.248-1.418,0.506-2.121,0.775
				c-9.406,3.603-15.1,13.198-13.769,23.182C880.103,300.525,880.837,306.556,881.865,312.542z"/>
			<path style="opacity:0.18;fill:#FFFFFF;" d="M971.702,326.143c8.725-8.882,17.941-17.205,27.503-25.29
				c6.336-5.358,11.958-11.375,17.969-17.072c1.597-1.514,3.264-2.94,4.962-4.328c-0.083-0.119-0.159-0.239-0.246-0.357
				c-2.461-3.382-5.89-6.008-9.795-7.504c-2.824-1.082-5.709-2.016-8.64-2.764c-9.025,7.902-17.956,15.869-26.663,24.161
				c-5.823,5.545-11.86,10.87-17.675,16.413c0.057,0.079,0.113,0.159,0.171,0.237c2.168,2.894,4.337,5.787,6.505,8.681
				C967.751,320.93,969.763,323.514,971.702,326.143z"/>
			<path style="fill:#F1CD41;" d="M1023.624,277c-2.832-3.893-6.707-6.862-11.207-8.586c-4.76-1.823-9.144-3.085-13.402-3.859
				c-9.854-1.79-20.951-2.624-34.922-2.624c-6.407,0-12.858,0.164-19.097,0.323l-2.998,0.076c-2.042,0.05-4.098,0.087-6.163,0.124
				c-8.138,0.145-16.552,0.296-24.695,1.31c-5.942,0.57-11.833,1.863-17.512,3.842c-0.735,0.256-1.479,0.528-2.21,0.808
				c-10.804,4.138-17.281,15.043-15.751,26.518c0.168,1.26,0.332,2.52,0.497,3.78c0.675,5.176,1.373,10.528,2.322,15.791
				c1.218,6.755,3.913,11.937,8.01,15.404c4.984,4.218,11.586,6.961,17.978,9.298c0.639,0.234,1.281,0.46,1.925,0.682
				c4.557,1.563,9.107,1.849,13.238,0.827c7.229-1.788,12.132-7.398,15.595-12.086c0.757-1.024,1.512-2.057,2.264-3.09
				c0.268-0.048,0.528-0.1,0.767-0.148c1.419-0.286,3.057-0.672,4.289-1.47c2.536-1.643,4.445-4.243,5.253-7.154
				c0.302-1.086,0.46-2.223,0.948-3.239c0.488-1.016,1.412-1.925,2.538-1.982c1.482-0.076,2.625,1.287,3.28,2.619
				c1.21,2.46,1.664,5.266,3.094,7.604c1.48,2.42,4.014,4.133,6.774,4.731c0.894,0.194,2.155,0.438,3.126,0.164
				c0.991,1.329,1.971,2.669,2.905,4.007c4.307,6.17,10.268,9.853,16.783,10.519c0.632,0.065,1.283,0.042,1.935,0.042
				c0.001,0,0.001,0,0.001,0c5.157,0,9.955-1.93,14.187-3.682c2.753-1.139,5.471-2.446,8.078-3.885l0.405-0.196
				c2.412-1.327,5.146-2.818,7.293-5.148c3.442-3.735,5.707-8.559,6.378-13.594c0.257-1.923,0.544-3.883,0.823-5.781
				c0.634-4.325,1.29-8.796,1.651-13.28C1028.458,290.033,1028.292,283.416,1023.624,277z M1021.765,295.162
				c-0.345,4.281-0.985,8.651-1.605,12.877c-0.281,1.918-0.572,3.903-0.834,5.867c-0.503,3.771-2.199,7.392-4.777,10.19
				c-1.455,1.579-3.52,2.723-5.707,3.926l-0.411,0.24c-2.405,1.327-4.911,2.455-7.449,3.506c-3.694,1.529-7.88,3.212-11.793,3.212
				c0,0,0,0-0.001,0c-0.441,0-0.878,0.028-1.299-0.015c-5.993-0.613-9.99-4.668-12.288-7.96c-1.82-2.608-3.765-5.135-5.646-7.604
				c-0.822-1.079-1.643-2.144-2.455-3.227l-6.505-8.674c-0.263-0.351-0.524-0.724-0.8-1.122c-1.372-1.978-3.079-4.438-6.316-5.333
				c-0.573-0.159-1.25-0.332-2.029-0.386c-0.146-0.01-0.291-0.015-0.434-0.015c-3.902,0-6.223,3.464-7.758,5.757
				c-0.297,0.444-0.578,0.863-0.821,1.187c-2.441,3.251-4.851,6.589-7.182,9.817c-1.782,2.467-3.624,5.019-5.458,7.501
				c-2.84,3.843-6.777,8.422-12.064,9.73c-2.964,0.733-6.289,0.5-9.703-0.671c-0.605-0.207-1.207-0.421-1.807-0.64
				c-5.849-2.138-11.846-4.612-16.084-8.197c-2.957-2.502-4.94-6.451-5.893-11.736c-0.922-5.112-1.61-10.388-2.275-15.49
				c-0.165-1.266-0.33-2.532-0.499-3.797c-1.145-8.588,3.702-16.749,11.785-19.846c0.672-0.257,1.356-0.507,2.032-0.743
				c5.219-1.819,10.633-3.005,16.091-3.526l0.091-0.01c7.825-0.978,16.086-1.126,24.075-1.269c2.079-0.037,4.15-0.074,6.206-0.125
				l3.002-0.076c6.2-0.158,12.61-0.321,18.938-0.321c13.773,0,24.198,0.778,33.804,2.523c3.872,0.703,7.889,1.863,12.282,3.546
				c3.318,1.271,6.296,3.552,8.384,6.423C1021.356,284.523,1022.284,288.718,1021.765,295.162z"/>
		</g>
	</g>
	<path style="fill:#FFFFF1;" d="M675.175,683.991c-0.363,8.885,0.79,17.732,1.939,26.506c3.277,25.02,8.361,49.776,13.494,74.469
		c2.613,12.574,5.281,25.137,7.831,37.724c1.182,5.834,1.381,13.483,3.827,18.896c0.326,0.723,7.94,8.146,4.735,8.917
		c-25.241,6.077-51.556-12.248-76.853-6.409c-12.823,2.96-25.817,11.973-37.961,6.901c-1.489-0.622-2.971-1.524-3.696-2.966
		c-1.029-2.046-0.258-4.498,0.525-6.651c3.921-10.776,8.74-20.893,9.09-32.363c0.358-11.737,1.271-23.604,3.146-35.199
		c3.313-20.491,10.247-39.892,17.134-59.109c12.725-35.511,25.451-71.022,38.176-106.533c0.681-1.899,1.398-3.861,2.681-5.252
		c1.536-1.665,3.655-2.271,5.682-2.764c9.795-2.379,20.862-4.474,30.756-2.995c2.615,10.919-6.233,30.3-9.47,40.626
		C681.501,652.814,675.839,667.758,675.175,683.991z"/>
	<g>
		<g>
			<polygon style="fill:#52665B;" points="432.189,1045.125 431.644,1054.419 448.712,1077.503 459.58,1078.331 464.97,1067.851 
				454.005,1047.998 437.579,1034.644 			"/>
			<path style="fill:#EACDB0;" d="M445.829,1065.709c0.153,0.201,0.319,0.412,0.567,0.503c0.379,0.139,0.798-0.048,1.155-0.231
				c2.898-1.484,5.795-2.969,8.692-4.454c0.697-0.357,1.453-0.78,1.682-1.482c0.242-0.742-0.195-1.513-0.618-2.183
				c-3.237-5.12-6.571-10.189-10-15.203c-5.145,1.066-10.792,1.691-15.664,3.437C433.89,1052.809,441.361,1059.84,445.829,1065.709z
				"/>
		</g>
		<g>
			<polygon style="fill:#52665B;" points="505.614,1038.013 505.069,1047.307 522.137,1070.391 533.005,1071.22 538.395,1060.739 
				527.43,1040.886 511.004,1027.533 			"/>
			<path style="fill:#EACDB0;" d="M519.255,1058.598c0.153,0.201,0.319,0.412,0.567,0.503c0.379,0.139,0.798-0.048,1.155-0.231
				c2.898-1.484,5.795-2.969,8.692-4.454c0.697-0.357,1.453-0.78,1.682-1.482c0.242-0.742-0.195-1.513-0.618-2.183
				c-3.237-5.12-6.571-10.189-10-15.203c-5.145,1.066-10.792,1.691-15.664,3.437
				C507.315,1045.697,514.787,1052.728,519.255,1058.598z"/>
		</g>
		<g>
			<path style="fill:#514943;" d="M368.103,824.745c0,0-7.968,42.666,16.35,61.863c24.318,19.197,46.263,24.864,46.263,24.864
				l1.407,133.872l19.961-0.265l35.535-146.914l-46.142-89.587L368.103,824.745z"/>
			<polygon style="fill:#514943;" points="497.419,804.407 540.62,893.189 524.174,1039.996 505.702,1039.657 483.254,893.189 
				430.876,811.423 			"/>
		</g>
		<g>
			<g>
				<g>
					<path style="fill:#EACDB0;" d="M443.413,609.735c7.764,0.755,15.527,1.509,23.291,2.263c1.193-6.846,1.897-13.801,2.105-20.777
						c6.765-1.173,14.722-3.392,17.046-10.621c0.732-2.277,0.762-4.755,0.783-7.179c0.089-10.02,0.177-20.041,0.266-30.061
						c0.031-3.466,0.044-7.037-1.113-10.255c-2.03-5.647-7.207-9.02-12.286-11.145c-12.961-5.424-28.078-5.235-40.062,2.427
						c-3.189,2.039-6.2,4.664-8.041,8.231c-2.839,5.499-2.494,12.296-2.065,18.649c0.396,5.864,0.792,11.727,1.187,17.591
						c0.455,6.744,1.434,14.508,6.557,18.078c2.72,1.896,6.238,2.249,8.581,4.7C443.795,595.958,441.892,603.633,443.413,609.735z"
						/>
				</g>
				<path style="fill:#534741;" d="M475.218,532.581c0.328,0.545,0.605,1.111,0.821,1.701c1.133,3.092,0.468,6.618,1.576,9.719
					c1.757,4.917,7.582,7.787,8.544,12.919c0.786,4.197-2.019,8.25-2.186,12.517c-0.182,4.661,2.878,9.016,2.498,13.621
					c-0.331,4-2.764,9.657-5.09,12.899c0.721-1.005,7.411-0.771,9.126-1.86c2.628-1.67,2.912-2.698,3.654-5.48
					c0.736-2.763,0.079-5.461,1.252-8.299c1.439-3.481,4.477-6.072,5.491-9.775c1.384-5.054-1.386-10.309-1.27-15.548
					c0.175-7.929,6.889-15.515,4.27-23c-1.536-4.391-5.876-7.138-8.36-11.073c-1.885-2.987-2.625-6.535-3.954-9.808
					c-1.329-3.273-3.572-6.532-6.978-7.471c-1.892-0.522-3.913-0.258-5.848-0.583c-3.346-0.561-6.158-2.813-9.391-3.843
					c-4.624-1.473-12.65,3.319-15.264,7.263c-2.594,3.914-1.192,7.178,1.592,10.548C460.337,522.642,471.36,526.173,475.218,532.581
					z"/>
			</g>
			<path style="fill:#534741;" d="M409.25,510.915c-2.719,2.071-6.094,3.59-8.567,5.997c-4.822,4.692-5.623,12.072-5.681,18.8
				c-0.051,5.99-2.576,11.358-1.816,17.586c0.51,4.183,2.367,8.39,5.822,10.804c4.302,3.006,10.979,3.393,12.961,8.252
				c2.153,5.279-3.234,12.071,0.191,16.629c1.89,2.515,5.51,2.824,8.179,4.488c2.977,1.857,4.55,5.241,6.402,8.222
				c1.851,2.981,4.604,5.951,8.114,5.964c0.047-5.338,0.13-9.568-2.237-14.407c-1.378-2.818-5.38-7.993-2.433-11.124
				c1.848-2.592,6.303-3.504,6.362-6.687c0.028-1.495-1.038-2.748-1.882-3.981c-3.269-4.774-3.708-11.204-1.645-16.61
				c2.063-5.406,6.433-9.772,11.595-12.387c6.049-3.064,5.04-4.537,6.709-10.41c1.536-5.405,4.565-6.721,9.37-8.766
				c4.314-1.837,5.691-2.958,7.222-7.053c1.12-2.997,2.502-6.587,0.741-9.878c-1.4-2.616-3.868-4.46-6.259-6.216
				c-4.994-3.669-10.601-7.52-16.772-6.965c-3.428,0.308-6.628,1.979-10.06,2.235c-2.289,0.171-4.577-0.296-6.872-0.332
				c-3.913-0.061-8.017,1.201-11.141,3.586c-3.152,2.406-3.018,4.862-4.733,8.227C411.976,508.537,410.707,509.805,409.25,510.915z"
				/>
			<path style="fill:#534741;" d="M422.696,488.733c0.535-3.728,0.063-8.565-3.51-9.757c-1.957-0.653-4.124,0.139-6.153-0.236
				c-4.324-0.8-5.884-5.991-8.21-9.722c-0.348-0.559-0.761-1.123-1.367-1.381c-0.867-0.368-1.847-0.01-2.779,0.121
				c-4.278,0.599-7.612-3.574-11.677-5.036c-5.032-1.81-11.264,1.427-12.678,6.584c-0.581,2.119-0.433,4.382-0.976,6.511
				c-2.2,8.625-14.705,12.501-14.864,21.401c-0.108,6.014,5.877,11.668,3.689,17.271c-1.399,3.583-5.932,6.09-5.341,9.891
				c0.38,2.445,3.021,4.068,5.494,3.989c2.473-0.079,4.722-1.477,6.557-3.137c2.912-2.636,5.082-5.99,7.851-8.776
				c2.769-2.786,6.488-5.071,10.393-4.654c3.783,0.404,7.251,3.282,10.991,2.586c2.992-0.557,5.171-3.273,8.105-4.08
				c2.745-0.755,5.631,0.277,8.476,0.398c2.845,0.121,6.308-1.42,6.333-4.267c0.006-0.69-0.199-1.399,0.005-2.057
				c0.574-1.845,3.709-1.796,4.271-3.645c-1.524-2.26-3.601-1.404-4.717-4.371C421.726,494.069,422.36,491.074,422.696,488.733z"/>
		</g>
		<path style="fill:#426362;" d="M459.235,603.622c9.279-1.237,18.699-2.919,26.474,0.469c6.584,2.87,6.47,11.183,7.942,17.467
			c11.87,50.299,16.147,101.279,20.383,152.533c0.957,11.577,1.913,23.153,2.87,34.73c0.644,7.788,1.287,15.578,1.653,23.384
			c-1.743,1.481-3.799-1.293-5.021-3.227c-1.79-2.832-4.844-4.588-7.858-6.054c-16.109-7.836-34.34-10.506-52.253-10.283
			c-17.912,0.223-35.661,3.223-53.32,6.232c-6.365,1.085-13.023,2.297-18.094,6.296c-3.138,2.474-5.424,5.837-7.935,8.944
			c-1.448,1.792-3.183,3.625-5.463,3.957c-2.954,0.43-5.734-1.96-6.772-4.76c-1.038-2.799-0.75-5.893-0.42-8.861
			c3.818-34.37,10.992-68.639,23.13-100.91c6.313-16.785,10.033-34.959,15.635-52.051c5.51-16.808,11.336-33.51,17.208-50.195
			c0.022-0.063,0.044-0.126,0.067-0.19c2.146-6.099,3.026-12.131,7.752-17.082c6.469-6.768,9.584-1.386,16.928-0.008
			C447.472,605.017,453.325,604.41,459.235,603.622z"/>
		<g>
			<path style="fill:#EACDB0;" d="M504.073,760.323c-0.102,0.203-0.211,0.399-0.33,0.585c-4,6.282-9.43,11.635-15.818,15.473
				c-0.313,0.188-0.64,0.377-1.003,0.42c-0.4,0.048-0.798-0.087-1.178-0.219c-3.547-1.233-7.223-2.544-9.883-5.196
				c-0.787-0.784-1.511-1.896-1.132-2.94c0.259-0.713,0.957-1.155,1.609-1.544c1.02-0.607,4.029-1.731,4.415-2.898
				c0.413-1.25-1.113-1.951-1.948-2.512c0.659-1.586,1.322-3.182,1.982-4.771c0.38-0.915,1.023-3.89,1.854-4.463
				c0.006-0.004,12.834-8.846,12.834-8.846l10.223,5.633C505.305,752.385,505.599,757.269,504.073,760.323z"/>
			<path style="fill:#426362;" d="M515.964,619.785c1.232,1.819,2.331,3.805,3.28,5.946c3.324,7.5,5.036,15.581,8.136,23.165
				c3.334,8.157,5.864,16.846,8.645,25.25c3.054,9.227,6.561,18.789,5.303,28.672c-0.31,2.145-2.13,4.051-3.333,5.902
				c-2.682,4.126-5.364,8.251-8.045,12.377c-6.544,10.067-13.088,20.134-19.632,30.202c-2.361,3.632-4.722,7.264-7.082,10.895
				c0,0-22.242-6.127-22.242-6.127c7.25-16.74,14.499-33.48,21.749-50.221c1.325-3.06,2.883-6.109,4.005-9.249
				c1.825-5.106-4.072-12.847-6.3-17.689c-7.667-16.665-15.009-33.479-22.02-50.431c-1.332-3.219-2.655-6.456-3.524-9.83
				c-0.474-1.841-0.801-3.836-0.105-5.605c0.968-2.46,3.61-3.788,6.109-4.648C495.155,603.49,508.207,608.336,515.964,619.785z"/>
		</g>
		<g>
			<path style="fill:#EACDB0;" d="M315.967,595.256c-0.105-0.202-0.199-0.405-0.28-0.611c-2.74-6.926-3.888-14.463-3.248-21.888
				c0.031-0.364,0.071-0.74,0.248-1.059c0.196-0.352,0.538-0.595,0.869-0.826c3.08-2.149,6.299-4.356,10.006-4.954
				c1.097-0.177,2.422-0.111,3.044,0.809c0.426,0.628,0.374,1.453,0.306,2.209c-0.107,1.182-0.962,4.278-0.244,5.275
				c0.77,1.068,2.233,0.243,3.178-0.103c0.897,1.464,1.801,2.937,2.7,4.404c0.518,0.844,2.55,3.111,2.526,4.12
				c0,0.008-0.368,15.583-0.368,15.583l-10.559,4.973C321.672,600.911,317.545,598.284,315.967,595.256z"/>
			<path style="fill:#426362;" d="M415.233,671.176c-6.111,2.861-12.873,4.752-19.43,6.063c-12.794,2.559-25.86,3.755-38.906,3.56
				c-2.395-0.036-4.891-0.145-6.991-1.298c-6.522-3.582-9.468-19.771-12.057-26.497c-1.767-4.592-3.534-9.185-5.301-13.777
				c-4.312-11.206-8.624-22.413-12.936-33.619c-1.556-4.043-3.111-8.085-4.667-12.128c0,0,18.01-14.413,18.013-14.415
				c-0.748,0.587,23.065,38.892,25.203,42.524c7.168,12.172,10.46,23.141,27.75,16.869c7.285-2.643,13.331-7.808,19.201-12.868
				c7.257-6.256,14.513-12.511,21.77-18.767c0.998-0.86,2.111-1.767,3.428-1.797c1.6-0.036,2.919,1.233,3.837,2.544
				c3.812,5.447,3.953,12.566,3.954,19.214c0.001,9.66-0.103,19.766-4.637,28.296C429.531,662.481,422.893,667.59,415.233,671.176z"
				/>
		</g>
	</g>
	<g>
		<g>
			<polygon style="fill:none;" points="99.747,486.765 99.747,485.336 98.83,485.318 98.195,485.305 98.195,488.91 108.547,485.506 
				103.853,485.415 			"/>
			<polygon style="fill:none;" points="228.053,359.63 227.312,359.955 229.047,359.988 			"/>
			<polygon style="fill:none;" points="183.564,486.961 183.397,486.958 176.677,486.828 179.764,488.122 			"/>
			<polygon style="fill:#F4EBE1;" points="184.348,380.446 189.261,378.296 187.221,377.494 184.381,378.737 177.882,375.587 
				177.288,377.024 			"/>
			<polygon style="fill:#F4EBE1;" points="198.832,480.673 200.614,481.752 207.078,479.777 207.519,478.019 			"/>
			<polygon style="fill:#F4EBE1;" points="225.792,472.437 215.755,475.503 215.341,477.253 225.793,474.06 237.18,477.524 
				237.467,475.989 			"/>
			<path style="fill:#F4EBE1;" d="M144.814,361.287l0.36,0.174l27.314,13.237l0.508-1.479l-14.395-6.976l-15.317-6.022
				l-14.178,5.573c-0.174,0.627-0.36,1.254-0.542,1.881L144.814,361.287z"/>
			<path style="fill:#F4EBE1;" d="M117.045,370.535l-1.608,0.632l1.2,0.545C116.769,371.318,116.909,370.927,117.045,370.535z"/>
			<polygon style="fill:#F4EBE1;" points="266.914,439.898 268.465,440.601 268.534,414.712 266.982,414.376 			"/>
			<polygon style="fill:#F4EBE1;" points="210.118,369.171 210.463,367.326 191.874,375.458 193.938,376.25 			"/>
			<polygon style="fill:#F4EBE1;" points="266.837,468.887 268.388,469.548 268.449,446.457 266.898,445.75 			"/>
			<polygon style="fill:#F4EBE1;" points="267.086,375.333 267.065,383.223 268.616,383.766 268.642,374.243 264.76,372.845 
				264.472,374.392 			"/>
			<polygon style="fill:#F4EBE1;" points="266.994,409.881 268.546,410.228 268.604,388.273 267.053,387.746 			"/>
			<polygon style="fill:#F4EBE1;" points="266.794,484.912 245.085,478.307 244.798,479.842 268.341,487.005 268.37,476.078 
				266.82,475.324 			"/>
			<path style="fill:#F4EBE1;" d="M99.747,442.926c-0.511,1.146-1.034,2.288-1.552,3.431v30.949l1.552-3.769V442.926z"/>
			<polygon style="fill:#F4EBE1;" points="103.853,485.415 108.547,485.506 125.214,480.027 126.102,478.1 			"/>
			<polygon style="fill:#F4EBE1;" points="98.195,485.305 98.195,485.305 98.83,485.318 			"/>
			<path style="fill:#F4EBE1;" d="M109.204,373.834c-0.226,0.573-0.453,1.146-0.68,1.718l2.388-0.939L109.204,373.834z"/>
			<path style="fill:#F4EBE1;" d="M99.747,395.108c-0.478,0.614-0.99,1.195-1.552,1.724v16.113c0.521-0.855,1.038-1.713,1.552-2.572
				V395.108z"/>
			<polygon style="fill:#F4EBE1;" points="181.674,485.915 179.846,486.473 145.041,471.873 134.081,475.477 133.215,477.396 
				144.975,473.53 176.677,486.828 183.397,486.958 			"/>
			<polygon style="fill:#A6CAA2;" points="223.017,363.528 223.187,361.759 214.846,365.409 214.501,367.253 			"/>
			<polygon style="fill:#A6CAA2;" points="256.927,371.676 257.216,370.129 246.04,366.106 245.584,367.592 			"/>
			<path style="fill:#A3CEDF;" d="M99.747,436.309l-1.552-0.94v10.988c0.518-1.143,1.04-2.285,1.552-3.431V436.309z"/>
			<path style="fill:#A3CEDF;" d="M99.747,410.372c-0.514,0.86-1.031,1.717-1.552,2.572v6.794l1.552,0.94V410.372z"/>
			<path style="fill:#A3CEDF;" d="M117.406,372.061l11.157-4.386c0.181-0.627,0.368-1.254,0.542-1.881l-12.06,4.741
				c-0.136,0.392-0.276,0.783-0.407,1.177L117.406,372.061z"/>
			<polygon style="fill:#FFFFFF;" points="237.467,475.989 237.18,477.524 244.798,479.842 245.085,478.307 			"/>
			<polygon style="fill:#FFFFFF;" points="264.472,374.392 264.76,372.845 259.684,371.018 259.398,372.565 			"/>
			<polygon style="fill:#FFFFFF;" points="259.398,372.565 259.684,371.018 257.216,370.129 256.927,371.676 			"/>
			<polygon style="fill:#FFFFFF;" points="210.778,368.882 211.122,367.038 210.463,367.326 210.118,369.171 			"/>
			<polygon style="fill:#FFFFFF;" points="214.501,367.253 214.846,365.409 211.122,367.038 210.778,368.882 			"/>
			<path style="fill:#FFFFFF;" d="M110.913,374.613l5.482-2.155c0.081-0.249,0.16-0.499,0.243-0.747l-1.2-0.545l-6.132,2.41
				c-0.034,0.086-0.067,0.171-0.102,0.257L110.913,374.613z"/>
			<polygon style="fill:#FFFFFF;" points="266.898,445.75 268.449,446.457 268.465,440.601 266.914,439.898 			"/>
			<path style="fill:#FFFFFF;" d="M116.637,371.712c-0.083,0.248-0.162,0.498-0.243,0.747l1.012-0.398L116.637,371.712z"/>
			<path style="fill:#A6CAA2;" d="M99.747,379.003l8.778-3.451c0.227-0.573,0.453-1.145,0.68-1.718l-0.256-0.116l-10.754,4.227
				v18.887c0.562-0.529,1.074-1.109,1.552-1.724V379.003z"/>
			<path style="fill:#A6CAA2;" d="M109.305,373.577l-0.357,0.141l0.256,0.116C109.238,373.749,109.272,373.663,109.305,373.577z"/>
			<polygon style="fill:#FFFFFF;" points="193.938,376.25 191.874,375.458 187.221,377.494 189.261,378.296 			"/>
			<polygon style="fill:#FFFFFF;" points="145.85,360.063 144.878,359.593 143.283,360.221 158.6,366.242 			"/>
			<polygon style="fill:#FFFFFF;" points="177.288,377.024 177.882,375.587 172.995,373.219 172.487,374.698 			"/>
			<polygon style="fill:#FFFFFF;" points="266.82,475.324 268.37,476.078 268.388,469.548 266.837,468.887 			"/>
			<polygon style="fill:#FFFFFF;" points="267.053,387.746 268.604,388.273 268.616,383.766 267.065,383.223 			"/>
			<polygon style="fill:#FFFFFF;" points="266.982,414.376 268.534,414.712 268.546,410.228 266.994,409.881 			"/>
			<polygon style="fill:#FFFFFF;" points="126.102,478.1 125.214,480.027 133.215,477.396 134.081,475.477 			"/>
			<polygon style="fill:#FFFFFF;" points="99.747,485.336 99.747,473.537 98.195,477.306 98.195,485.305 98.83,485.318 			"/>
			<polygon style="fill:#FFFFFF;" points="207.519,478.019 207.078,479.777 215.341,477.253 215.755,475.503 			"/>
			<polygon style="fill:#F4EBE1;" points="228.107,361.301 228.449,361.424 245.584,367.592 246.04,366.106 229.047,359.988 
				227.312,359.955 223.187,361.759 223.017,363.528 			"/>
			<polygon style="fill:#F2D263;" points="193.009,482.452 192.688,484.174 200.614,481.752 198.832,480.673 			"/>
			<polygon style="fill:#F2D263;" points="181.674,485.915 183.397,486.958 183.564,486.961 188.419,485.478 188.741,483.756 			"/>
			<polygon style="fill:#F2D263;" points="99.747,420.678 98.195,419.738 98.195,435.369 99.747,436.309 			"/>
			<polygon style="fill:#F2D263;" points="188.741,483.756 188.419,485.478 192.688,484.174 193.009,482.452 			"/>
			<polygon style="fill:none;" points="99.747,485.336 99.747,486.765 103.853,485.415 99.922,485.339 			"/>
			<polygon style="fill:#F4EBE1;" points="121.518,433.861 141.051,445.688 147.333,432.067 126.558,421.849 			"/>
			<polygon style="fill:#F4EBE1;" points="267.065,383.223 267.086,375.333 264.472,374.392 263.084,381.829 			"/>
			<polygon style="fill:#F4EBE1;" points="155.712,427.537 194.993,450.244 201.404,415.881 167.872,400.589 			"/>
			<polygon style="fill:#F4EBE1;" points="202.386,410.619 207.107,385.312 189.261,378.296 184.348,380.446 177.288,377.024 
				169.556,395.723 			"/>
			<polygon style="fill:#F4EBE1;" points="247.625,464.689 245.085,478.307 266.794,484.912 266.82,475.324 247.403,465.882 			"/>
			<polygon style="fill:#F4EBE1;" points="210.118,369.171 193.938,376.25 207.806,381.567 			"/>
			<polygon style="fill:#F4EBE1;" points="253.395,433.764 266.914,439.898 266.982,414.376 257.4,412.299 			"/>
			<polygon style="fill:#F4EBE1;" points="116.289,446.325 98.83,485.318 98.195,488.91 126.102,478.1 135.416,457.906 			"/>
			<polygon style="fill:#F4EBE1;" points="258.216,407.922 266.994,409.881 267.053,387.746 262.282,386.127 			"/>
			<path style="fill:#F4EBE1;" d="M124.047,414.526l26.699,10.14l12.151-26.346l3.743,1.707l-42.309-19.295
				c-2.947,8.34-6.214,16.57-9.165,24.489c-2.505,6.723-5.126,13.402-7.853,20.038l9.857,5.968L124.047,414.526z"/>
			<polygon style="fill:#F4EBE1;" points="152.518,434.617 146.134,448.765 190.282,475.496 194.093,455.066 			"/>
			<path style="fill:#F4EBE1;" d="M115.113,376.529l-4.201-1.915l-2.388,0.939c-1.42,3.591-2.84,7.183-4.261,10.774
				c-1.204,3.046-2.535,6.233-4.517,8.781v15.264c5.119-8.564,9.859-17.372,13.12-26.785
				C113.674,381.256,114.389,378.891,115.113,376.529z"/>
			<path style="fill:#F4EBE1;" d="M102.046,437.701c-0.76,1.745-1.524,3.487-2.299,5.225v30.611l12.271-29.798L102.046,437.701z"/>
			<polygon style="fill:#F4EBE1;" points="248.315,460.994 266.837,468.887 266.898,445.75 252.393,439.134 			"/>
			<polygon style="fill:#F4EBE1;" points="134.081,475.477 145.041,471.873 179.846,486.473 181.674,485.915 140.594,461.042 			"/>
			<polygon style="fill:#F4EBE1;" points="227.075,427.589 215.755,475.503 225.792,472.437 237.467,475.989 244.974,435.751 			"/>
			<path style="fill:#F4EBE1;" d="M165.849,394.041l6.638-19.343l-27.314-13.237l-0.36-0.174l-16.251,6.388
				c-0.8,2.762-1.664,5.523-2.584,8.276L165.849,394.041z"/>
			<polygon style="fill:#F4EBE1;" points="205.113,417.573 193.899,477.686 198.832,480.673 207.519,478.019 220.874,424.76 			"/>
			<polygon style="fill:#A6CAA2;" points="245.972,430.396 256.927,371.676 245.584,367.592 238.451,390.842 221.337,380.959 
				223.017,363.528 214.501,367.253 206.097,412.303 			"/>
			<path style="fill:#A3CEDF;" d="M99.747,436.309v6.617c0.775-1.738,1.539-3.481,2.299-5.225L99.747,436.309z"/>
			<path style="fill:#A3CEDF;" d="M115.165,405.221c2.951-7.919,6.219-16.149,9.165-24.489l-9.217-4.203
				c-0.724,2.362-1.439,4.727-2.247,7.058c-3.261,9.413-8,18.221-13.12,26.785v10.306l7.565,4.581
				C110.039,418.623,112.66,411.944,115.165,405.221z"/>
			<path style="fill:#A3CEDF;" d="M128.563,367.675l-11.157,4.386l8.573,3.89C126.9,373.198,127.763,370.437,128.563,367.675z"/>
			<polygon style="fill:#FFFFFF;" points="248.315,460.994 248.315,460.994 252.393,439.134 244.974,435.751 237.467,475.989 
				245.085,478.307 247.625,464.689 			"/>
			<polygon style="fill:#FFFFFF;" points="253.395,433.764 257.4,412.299 254.599,411.692 257.595,407.783 258.216,407.922 
				262.282,386.127 261.205,385.761 263.084,381.829 263.084,381.829 264.472,374.392 259.398,372.565 248.501,431.543 			"/>
			<polygon style="fill:#FFFFFF;" points="248.501,431.543 259.398,372.565 256.927,371.676 245.972,430.396 			"/>
			<polygon style="fill:#FFFFFF;" points="207.672,385.534 207.107,385.312 202.386,410.619 202.944,410.872 			"/>
			<polygon style="fill:#FFFFFF;" points="208.371,381.784 210.778,368.882 210.118,369.171 207.806,381.567 			"/>
			<polygon style="fill:#FFFFFF;" points="205.113,417.573 201.404,415.881 194.993,450.244 197.546,451.72 195.793,455.902 
				194.093,455.066 190.282,475.496 193.899,477.686 			"/>
			<polygon style="fill:#FFFFFF;" points="208.66,381.895 208.577,385.89 207.672,385.534 202.944,410.872 206.097,412.303 
				214.501,367.253 210.778,368.882 208.371,381.784 			"/>
			<polygon style="fill:#FFFFFF;" points="252.393,439.134 266.898,445.75 266.914,439.898 253.395,433.764 			"/>
			<polygon style="fill:#FFFFFF;" points="205.765,414.082 205.113,417.573 220.874,424.76 221.109,423.82 227.932,423.963 
				227.075,427.589 244.974,435.751 245.696,431.88 			"/>
			<path style="fill:#FFFFFF;" d="M116.394,372.459l-5.482,2.155l4.201,1.915C115.53,375.168,115.953,373.81,116.394,372.459z"/>
			<path style="fill:#FFFFFF;" d="M167.872,400.589L167.872,400.589l33.532,15.292l0.982-5.262l-32.83-14.896l0,0l-3.707-1.682l0,0
				l-39.869-18.09c-0.534,1.598-1.087,3.191-1.649,4.782l42.309,19.295L167.872,400.589z"/>
			<polygon style="fill:#FFFFFF;" points="245.696,431.88 245.972,430.396 206.097,412.303 205.765,414.082 			"/>
			<path style="fill:#FFFFFF;" d="M124.33,380.732c0.562-1.591,1.116-3.184,1.649-4.782l-8.573-3.89l-1.012,0.398
				c-0.441,1.351-0.864,2.71-1.281,4.07L124.33,380.732z"/>
			<polygon style="fill:#FFFFFF;" points="245.696,431.88 244.974,435.751 252.393,439.134 253.395,433.764 248.501,431.543 
				248.23,433.01 			"/>
			<polygon style="fill:#FFFFFF;" points="248.23,433.01 248.501,431.543 245.972,430.396 245.696,431.88 			"/>
			<polygon style="fill:#FFFFFF;" points="205.113,417.573 205.765,414.082 202.608,412.675 202.944,410.872 202.386,410.619 
				201.404,415.881 			"/>
			<polygon style="fill:#FFFFFF;" points="205.765,414.082 206.097,412.303 202.944,410.872 202.608,412.675 			"/>
			<path style="fill:#A6CAA2;" d="M108.524,375.552l-8.778,3.451v16.105c1.983-2.549,3.313-5.736,4.517-8.781
				C105.684,382.735,107.104,379.144,108.524,375.552z"/>
			<polygon style="fill:#FFFFFF;" points="207.806,381.567 193.938,376.25 189.261,378.296 207.107,385.312 			"/>
			<polygon style="fill:#FFFFFF;" points="208.371,381.784 207.806,381.567 207.107,385.312 207.672,385.534 			"/>
			<polygon style="fill:#FFFFFF;" points="208.577,385.89 208.66,381.895 208.371,381.784 207.672,385.534 			"/>
			<polygon style="fill:#FFFFFF;" points="169.556,395.723 177.288,377.024 172.487,374.698 165.849,394.041 			"/>
			<rect x="167.702" y="392.846" style="fill:#FFFFFF;" width="0" height="4.071"/>
			<polygon style="fill:#FFFFFF;" points="247.625,464.689 247.403,465.882 266.82,475.324 266.837,468.887 248.315,460.994 			"/>
			<polygon style="fill:#FFFFFF;" points="247.625,464.689 248.315,460.994 248.315,460.994 			"/>
			<polygon style="fill:#FFFFFF;" points="262.282,386.127 267.053,387.746 267.065,383.223 263.084,381.829 			"/>
			<polygon style="fill:#FFFFFF;" points="263.084,381.829 261.205,385.761 262.282,386.127 263.084,381.829 			"/>
			<polygon style="fill:#FFFFFF;" points="257.4,412.299 266.982,414.376 266.994,409.881 258.216,407.922 			"/>
			<polygon style="fill:#FFFFFF;" points="257.595,407.783 254.599,411.692 257.4,412.299 258.216,407.922 			"/>
			<polygon style="fill:#FFFFFF;" points="147.333,432.067 141.051,445.688 146.134,448.765 152.518,434.617 			"/>
			<polygon style="fill:#FFFFFF;" points="135.416,457.906 126.102,478.1 134.081,475.477 140.594,461.042 			"/>
			<polygon style="fill:#FFFFFF;" points="155.712,427.537 167.872,400.589 166.64,400.027 162.897,398.32 150.746,424.666 
				150.746,424.666 			"/>
			<polygon style="fill:#FFFFFF;" points="167.872,400.589 166.64,400.027 167.872,400.589 			"/>
			<polygon style="fill:#FFFFFF;" points="116.289,446.325 112.017,443.739 98.971,474.02 98.971,485.004 98.971,486.05 			"/>
			<polygon style="fill:#FFFFFF;" points="124.047,414.526 117.169,431.227 121.518,433.861 126.558,421.849 147.333,432.067 
				150.746,424.666 			"/>
			<polygon style="fill:#FFFFFF;" points="152.518,434.617 194.093,455.066 194.993,450.244 155.712,427.537 			"/>
			<polygon style="fill:#FFFFFF;" points="195.793,455.902 197.546,451.72 194.993,450.244 194.093,455.066 			"/>
			<polygon style="fill:#FFFFFF;" points="150.746,424.666 150.746,424.666 147.333,432.067 152.518,434.617 155.712,427.537 			"/>
			<polygon style="fill:#FFFFFF;" points="220.874,424.76 207.519,478.019 215.755,475.503 227.075,427.589 			"/>
			<polygon style="fill:#FFFFFF;" points="221.109,423.82 220.874,424.76 227.075,427.589 227.932,423.963 			"/>
			<polygon style="fill:#F4EBE1;" points="238.451,390.842 245.584,367.592 228.449,361.424 228.107,361.301 223.017,363.528 
				221.337,380.959 			"/>
			<polygon style="fill:#F2D263;" points="190.282,475.496 146.134,448.765 140.594,461.042 181.674,485.915 188.741,483.756 			"/>
			<polygon style="fill:#F2D263;" points="193.009,482.452 198.832,480.673 193.899,477.686 			"/>
			<path style="fill:#F2D263;" d="M107.312,425.259c-1.712,4.166-3.467,8.313-5.266,12.443l9.971,6.037l5.152-12.511
				L107.312,425.259z"/>
			<polygon style="fill:#F2D263;" points="121.518,433.861 116.289,446.325 135.416,457.906 141.051,445.688 			"/>
			<path style="fill:#F2D263;" d="M107.312,425.259l-7.565-4.581v15.631l2.299,1.392C103.845,433.572,105.6,429.424,107.312,425.259
				z"/>
			<polygon style="fill:#F2D263;" points="190.282,475.496 188.741,483.756 193.009,482.452 193.899,477.686 			"/>
			<polygon style="fill:#F2D263;" points="135.416,457.906 140.594,461.042 146.134,448.765 141.051,445.688 			"/>
			<polygon style="fill:#F2D263;" points="117.169,431.227 112.017,443.739 116.289,446.325 121.518,433.861 			"/>
		</g>
		<g>
			<polygon style="opacity:0.1;" points="226.594,472.792 266.688,485.246 266.975,375.279 228.943,361.301 			"/>
			<polygon style="opacity:0.1;" points="145.524,472.197 180.339,487.108 184.772,380.871 145.219,361.301 			"/>
		</g>
		<path style="fill:#FFFFFF;" d="M268.408,374.214c-1.284-0.461-2.568-0.922-3.852-1.382c-11.672-4.189-23.345-8.378-35.017-12.566
			c-2.457-0.882-4.294,0.521-6.63,1.539c-2.739,1.194-5.477,2.389-8.216,3.583c-5.427,2.367-10.854,4.733-16.28,7.1
			c-2.385,1.04-4.771,2.081-7.156,3.121c-1.467,0.64-2.934,1.28-4.402,1.92c-0.611,0.267-1.38,0.468-1.927,0.84
			c-0.077,0.052-0.222,0.12-0.375,0.184c-0.119-0.039-0.268-0.105-0.45-0.232c-2.535-1.757-5.996-2.897-8.797-4.25
			c-2.448-1.183-4.896-2.365-7.344-3.548c-5.799-2.801-11.598-5.603-17.396-8.404c-1.24-0.599-2.478-1.202-3.719-1.797
			c-1.434-0.687-1.711-0.633-3.249-0.03c-2.967,1.163-5.935,2.326-8.902,3.488c-11.991,4.699-23.982,9.397-35.973,14.096
			c-0.401,0.157-0.706,0.472-0.706,0.927c0,13.951,0,27.901,0,41.851c0,15.081,0,30.162,0,45.242c0,7.563,0,15.126,0,22.689
			c0,0.6,0.618,1.123,1.217,0.927c11.311-3.707,22.622-7.413,33.933-11.12c2.719-0.891,5.438-1.782,8.156-2.673
			c1.214-0.398,2.691-1.192,3.988-1.345c0.021,0.006,0.043,0.011,0.071,0.018c0.378,0.086,0.769,0.321,1.124,0.47
			c6.902,2.886,13.804,5.772,20.707,8.658c2.842,1.188,5.683,2.377,8.525,3.565c1.652,0.691,3.284,1.821,5.059,1.465
			c5.627-1.127,11.25-3.426,16.746-5.1c5.596-1.704,11.192-3.409,16.789-5.113c2.708-0.825,5.416-1.649,8.124-2.474
			c0.799-0.243,1.636-0.446,2.42-0.737c0.283-0.105,1.031-0.191,0.841-0.253c1.335,0.185,2.865,0.922,4.1,1.296
			c12.594,3.819,25.188,7.639,37.782,11.458c0.602,0.183,1.215-0.316,1.217-0.927c0.039-14.44,0.078-28.881,0.116-43.321
			c0.039-14.712,0.079-29.425,0.118-44.137c0.022-8.034,0.043-16.069,0.065-24.103C269.115,374.692,268.81,374.358,268.408,374.214z
			 M184.658,378.582C184.889,378.558,184.863,378.626,184.658,378.582L184.658,378.582z M229.742,474.139
			c-1.193-0.362-2.616-1.094-3.863-1.171c-0.94-0.058-1.968,0.444-2.853,0.713c-1.979,0.603-3.957,1.205-5.935,1.808
			c-5.374,1.636-10.748,3.273-16.121,4.91c-5.422,1.651-10.844,3.302-16.266,4.954c-1.23,0.375-2.471,0.725-3.693,1.125
			c-1.091,0.357-0.942,0.285-1.295,0.204c-0.854-0.196-1.772-0.741-2.585-1.08c-1.789-0.748-3.577-1.496-5.366-2.244
			c-7.346-3.072-14.691-6.143-22.037-9.215c-1.33-0.556-3.137-1.762-4.614-1.685c-1.185,0.061-2.598,0.852-3.723,1.22
			c-2.066,0.677-4.131,1.354-6.196,2.031c-11.751,3.851-23.503,7.702-35.254,11.553c0-13.652,0-27.304,0-40.956
			c0-14.736,0-29.471,0-44.206c0-7.548,0-15.096,0-22.644c10.152-3.978,20.304-7.956,30.456-11.934
			c3.484-1.365,6.967-2.73,10.451-4.095c1.041-0.408,2.081-0.816,3.122-1.224c1.441-0.565,1.133-0.592,2.471,0.054
			c5.466,2.639,10.931,5.281,16.396,7.921c5.365,2.592,10.73,5.184,16.095,7.775c1.514,0.731,3.307,1.989,4.949,2.391
			c1.222,0.299,2.098-0.349,3.279-0.864c2.116-0.923,4.232-1.845,6.348-2.768c5.905-2.575,11.809-5.15,17.714-7.725
			c2.533-1.105,5.066-2.209,7.599-3.314c2.575-1.123,5.816-3.156,8.571-3.737c1.852-0.391,5.702,1.644,7.845,2.414
			c3.409,1.224,6.819,2.447,10.228,3.67c6.193,2.223,12.387,4.445,18.58,6.668c1.048,0.376,2.096,0.752,3.145,1.129
			c-0.036,13.49-0.072,26.98-0.109,40.47c-0.043,16.016-0.086,32.033-0.128,48.049c-0.019,7.024-0.038,14.049-0.056,21.074
			c-10.494-3.182-20.987-6.365-31.481-9.547C233.524,475.286,231.633,474.712,229.742,474.139z"/>
	</g>
	<g>
		<g>
			<g>
				<polygon style="fill:#363636;" points="614.305,1058.303 607.216,1085.779 614.964,1096.918 627.48,1089.492 634.633,1065.729 
					629.268,1047.906 				"/>
				<polygon style="fill:#363636;" points="670.443,1053.104 663.354,1080.58 671.102,1091.719 683.618,1084.293 690.77,1060.531 
					685.406,1042.708 				"/>
				<path style="fill:#2E4661;" d="M659.287,875.464c-2.207-7.029-5.478-17.63-12.298-20.441
					c-14.338-5.911-29.903-10.992-44.652-6.581c-10.025,2.998-18.967,10.445-24.509,20.411c-4.157,7.475-6.369,16.309-6.407,25.146
					c-0.036,8.453,4.068,15.537,6.024,23.587c11.882,48.886,23.764,97.772,35.645,146.658l20.236-2.97l1.305-150.004
					C642.944,902.865,663.667,889.413,659.287,875.464z"/>
				<path style="fill:#2E4661;" d="M720.922,898.309c0.697-5.297,1.181-10.63,1.314-15.801c0.107-4.14-0.077-8.39-1.465-12.22
					c-1.532-4.228-4.421-7.635-7.515-10.555c-10.932-10.316-25.206-15.422-39.337-11.78c-6.253,1.611-12.145,4.822-17.583,8.627
					c-6.302,4.41-12.225,9.662-16.902,16.184c-0.45,0.627-0.914,1.39-0.75,2.177c0.12,0.578,0.549,0.994,0.951,1.374
					c7.807,7.399,13.911,17.074,17.687,27.798c4.594,13.046,4.498,25.725,5.01,39.513c0.599,16.127,1.198,32.254,1.797,48.381
					c0.83,22.346,1.66,44.691,2.49,67.037l22.847,2.97c4.008-20.566,8.016-41.132,12.024-61.698
					c5.635-28.915,11.27-57.83,16.905-86.745C719.354,908.642,720.24,903.492,720.922,898.309z"/>
			</g>
			<path style="fill:#2E4661;" d="M752.692,851.2c0.387-5.344-1.164-10.867-2.874-16.043c-2.894-8.759-6.391-17.594-12.657-24.363
				c-13.202-14.26-29.082-10.322-46.106-10.545c-12.563-0.164-25.141,0.713-37.556,2.644c-10.323,1.606-25.265,2.518-33.665,9.038
				c-10.52,8.167-20.188,17.429-28.798,27.59c-10.392,12.264-22.521,33.979-1.996,43.296c3.948,1.792,8.464,1.778,12.785,1.419
				c13.464-1.118,26.505-5.237,39.904-6.963c13.399-1.726,27.979-0.731,38.864,7.27c7.524,5.53,14.75,14.664,23.846,12.557
				c6.452-1.495,9.061-7.823,13.723-11.663c6.764-5.572,15.074-9.521,21.969-15.117c4.92-3.993,9.817-8.567,11.717-14.613
				C752.315,854.227,752.582,852.721,752.692,851.2z"/>
		</g>
		<path style="fill:#A16652;" d="M763.479,837.956c-0.285,7.66-1.017,15.379-2.321,23.226c-0.507,3.049-1.206,6.323-3.513,8.381
			c-3.647,3.254-9.642,1.839-13.347-1.347c-3.705-3.187-5.969-7.699-9.089-11.462c-10.909-13.158-29.986-15.192-47.045-16.249
			c-12.476-0.773-24.952-1.547-37.428-2.32c-11.382-0.706-22.964-1.395-34.054,1.26c-21.287,5.097-40.55,22.287-62.093,18.415
			c-0.834-0.15,11.151-13.149,12.351-14.138c6.753-5.563,6.049-6.354,6.048-15.656c-0.002-17.986,0.85-35.978,2.5-53.887
			c3.006-32.638,16.088-60.798,25.896-91.782c4.869-15.382,9.289-31.022,15.98-45.666c5.239-11.466,14.624-28.269,26.129-33.591
			c3.894-1.801,8.213-2.081,12.429-2.337c12.791-0.774,25.583-1.548,38.374-2.322c4.663-0.282,9.514-0.532,13.794,1.402
			c6.414,2.899,10.113,9.967,13.351,16.568c14.522,29.598,23.958,61.694,29.448,94.919c3.839,23.235,4.968,46.976,8.397,69.907
			C762.16,800.5,764.182,819.047,763.479,837.956z"/>
		<g>
			<path style="fill:#534741;" d="M646.831,520.539c-3.303,6.549-4.675,13.968-4.62,21.302c0.015,1.95-0.003,4.204-1.517,5.434
				c-1.621,1.316-0.001,3.938-1.367,2.359c-1.366-1.579-6.01-7.069-6.313-9.135c-0.709-4.84-0.954-9.748-0.733-14.634
				c0.193-4.25,0.829-8.713,3.43-12.079c1.542-1.996,3.663-3.452,5.752-4.866c3.029-2.05,6.154-4.122,9.711-4.976
				c6.131-1.472,10.042,0.553,4.802,5.151C652.222,512.389,649.094,516.052,646.831,520.539z"/>
			<g>
				<path style="fill:#EACDB0;" d="M689.574,601.608c-8.475,1.235-16.95,2.469-25.425,3.704c-1.674-7.289-2.819-14.723-3.42-22.206
					c-7.482-0.89-16.329-2.839-19.265-10.478c-0.925-2.406-1.09-5.066-1.243-7.669c-0.633-10.76-1.266-21.52-1.9-32.279
					c-0.219-3.721-0.425-7.557,0.672-11.078c1.925-6.177,7.423-10.083,12.88-12.644c13.925-6.535,30.517-7.157,44.07,0.419
					c3.607,2.016,7.05,4.671,9.26,8.402c3.408,5.753,3.393,13.073,3.263,19.921c-0.12,6.321-0.241,12.641-0.361,18.962
					c-0.139,7.27-0.797,15.664-6.225,19.779c-2.882,2.185-6.722,2.756-9.161,5.518C688.419,586.829,690.916,594.969,689.574,601.608
					z"/>
			</g>
			<path style="fill:#534741;" d="M638.612,571.324c1.674,6.632,5.244,12.863,10.891,16.345c6.401,3.947,14.173,3.852,21.52,3.647
				c4.019-0.112,8.037-0.224,12.056-0.336c10.166-0.283,20.202-2.116,24.878-13.079c2.156-5.055,2.626-10.828,1.984-16.37
				c-0.176-1.522-0.451-3.083-1.242-4.364c-0.791-1.28-2.214-2.219-3.611-1.95c-1.787,0.345-2.768,2.339-3.85,3.904
				c-2.359,3.416-6.733,5.48-10.431,3.909c-1.096-0.465-2.062-1.204-3.023-1.95c-0.394-0.306-0.786-0.612-1.187-0.903
				c-3.976-2.877-8.722-4.046-13.425-4.415c-4.081-0.32-10.125-1.506-12.955,2.101c-1.647,2.098-3.293,4.197-4.94,6.295
				c-0.678,0.864-1.374,1.745-2.277,2.323c-0.931,0.595-2.027,0.831-3.11,0.906c-2.725,0.189-5.85-0.912-6.918-3.63
				c-0.465-1.184-0.475-2.504-0.589-3.782c-0.114-1.277-0.378-2.626-1.212-3.547c-3.191-3.522-3.762,2.372-3.779,4.374
				C637.358,564.341,637.748,567.9,638.612,571.324z M666.371,571.752c3.329,1.997,6.699,1.852,10.213,0.594
				c1.805-0.646,2.74,2.386,0.938,3.032c-4.24,1.518-8.506,1.598-12.505-0.801C663.352,573.577,664.696,570.747,666.371,571.752z"/>
			<path style="fill:#534741;" d="M632.853,502.555c-0.843-2.572-1.504-5.204-1.976-7.869c2.528,0.743,5.245,0.836,7.818,0.266
				c-0.074-1.548-0.147-3.096-0.221-4.644c-0.055-1.288,17.313-3.086,18.723-3.275c13.191-1.769,25.253-3.427,37.598,3.066
				c10.545,5.546,17.573,14.277,19.751,26.001c2.081,11.2-0.852,26.119-6.891,35.815c-0.117-3.004,1.246-10.175,0.391-12.993
				c-0.581-2.837-1.711-5.543-3.205-8.018c-2.983-4.942-7.42-9.003-12.447-11.804c-8.015-4.466-17.175-6.574-26.256-7.366
				c-8.32-0.725-18.442-1.269-26.49,1.34c-3.868,1.254-4.469,2.272-7.048-1.566c-0.455-0.676-4.196-8.657-3.871-8.679
				C630.103,502.739,631.478,502.647,632.853,502.555z"/>
		</g>
		<g>
			<path style="fill:#A16652;" d="M598.246,714.054c7.779-14.79,12.07-30.738,19.22-46.142c4.443-9.573,9.355-18.922,14.477-28.148
				c1.434-2.584,13.644-26.928,15.318-26.602c-6.282-1.222-13.019,0.612-18.904,3.793c-5.885,3.181-11.066,7.641-16.192,12.061
				c-3.525,3.04-7.05,6.08-10.574,9.121c-1.621,1.398-3.256,2.811-4.575,4.513c-1.656,2.137-2.752,4.647-3.828,7.124
				c-5.625,12.941-11.707,25.685-16.977,38.779c-4.3,10.683-12.054,25.379-7.801,37.152c2.149,5.949,5.174,9.605,12.2,7.994
				c5.459-1.252,9.275-6.07,12.376-10.734C594.92,720.052,596.656,717.077,598.246,714.054z"/>
		</g>
		<g>
			<path style="fill:#A16652;" d="M606.045,728.548c0.446,0.004,0.919-0.006,1.297-0.242c0.526-0.329,0.718-0.996,0.809-1.61
				c0.676-4.546-1.834-8.928-4.565-12.625c-2.764-3.742-5.988-7.338-10.206-9.302c-5.988-2.788-13.494-1.712-18.664,2.399
				c-3.054,2.429-5.813,6.264-6.601,10.151c-1.224,6.036,0.375,5.709,5.787,6.536C584.493,725.474,595.297,728.458,606.045,728.548z
				"/>
			<g>
				<g>
					<g>
						<path style="fill:#EACDB0;" d="M600.612,713.807c0.303,0.38,0.579,0.785,0.824,1.218c0.763,1.351,1.623,3.549,1.484,5.194
							c0-0.002-1.183,5.214-1.839,3.485l-1.36-3.584l-4.756,10.835l-8.341,4.632l-10.806-5.287c0,0-5.046-11.52-5.046-11.521
							c3.953-6.039,6.898-13.384,15.143-12.371c2.446,0.3,4.702,1.307,6.921,2.302C595.693,709.993,598.693,711.401,600.612,713.807
							z"/>
					</g>
				</g>
			</g>
		</g>
		<g>
			<path style="fill:#EACDB0;" d="M794.555,596.076c0.639-1.906,1.729-3.071,3.633-2.18c2.544,1.19,1.064,4.304,2.612,5.427
				c1.731,1.256,4.981-1.161,6.492-1.879c5.569-2.647,11.215-5.134,16.926-7.457c3.137-1.276,6.183,2.148,6.912,5.063
				c0.469,1.872,0.191,3.852-0.278,5.724c-0.384,1.537-0.9,3.053-1.69,4.427c-1.872,3.257-5.124,5.466-8.417,7.275
				c-4.676,2.569-9.446,4.353-11.927,9.297c-1.96,3.907-3.921,7.813-5.881,11.72c-2.755-1.194-10.066-2.842-11.855-5.183
				c-1.582-2.071,0.191-7.047,0.715-9.521c0.923-4.358,1.172-8.943,1.679-13.363C793.66,603.847,793.556,599.056,794.555,596.076z"
				/>
			<path style="fill:#A16652;" d="M721.442,616.45l31.31,56.979l37.237-60.649l21.899,10.282l-43.409,106.892l-20.892,5.633
				l-56.816-72.096C690.77,663.491,693.079,640.584,721.442,616.45z"/>
		</g>
	</g>
	<g>
		<polygon style="fill:#E6E6E6;" points="467.522,852.302 579.934,812.255 720.898,814.199 642.624,852.302 		"/>
		<polygon style="fill:#C6CCCC;" points="467.522,842.45 459.118,732.14 633.158,729.954 642.624,847.9 		"/>
		<path style="fill:#B9C1C1;" d="M718.466,814.136c-25.195,11.207-50.391,22.414-75.586,33.621
			c-0.094,0.042-0.169,0.099-0.256,0.147v-5.454H467.522v9.852h173.389c0.417,1.645,1.77,2.872,3.66,2.031
			c25.195-11.207,50.391-22.414,75.586-33.621C723.883,819.054,722.249,812.453,718.466,814.136z"/>
	</g>
	<g>
		<circle style="fill:#FFFFFF;" cx="369.937" cy="156.946" r="36.788"/>
		<path style="fill:#B22B48;" d="M301.642,161.853c0,37.719,66.427,127.327,68.296,127.327c2.511,0,68.296-89.608,68.296-127.327
			c0-37.718-30.577-68.296-68.296-68.296C332.219,93.557,301.642,124.134,301.642,161.853z M337.756,156.946
			c0-17.773,14.408-32.181,32.181-32.181c17.773,0,32.181,14.408,32.181,32.181c0,17.773-14.408,32.181-32.181,32.181
			C352.164,189.127,337.756,174.719,337.756,156.946z"/>
	</g>
	<g>
		<g>
			<g>
				<circle style="fill:#2E4661;" cx="635.619" cy="358.156" r="73.557"/>
			</g>
			<g>
				
					<ellipse transform="matrix(0.9441 -0.3298 0.3298 0.9441 -82.5539 229.6449)" style="fill:#FFFFFF;" cx="635.619" cy="358.156" rx="63.75" ry="63.749"/>
			</g>
			<g style="opacity:0.07;">
				<g>
					<path style="fill:#2E4661;" d="M679.369,312.202c9.414,11.11,15.095,25.484,15.095,41.187
						c0,35.208-28.542,63.749-63.749,63.749c-16.939,0-32.333-6.609-43.75-17.386c11.694,13.8,29.149,22.563,48.654,22.563
						c35.208,0,63.749-28.542,63.749-63.749C699.368,340.296,691.682,323.825,679.369,312.202z"/>
				</g>
			</g>
		</g>
		<g>
			<polygon style="fill:#B22B48;" points="622.942,353.455 643.746,367.504 605.191,402.171 			"/>
			<polygon style="fill:#6596C1;" points="623.846,352.117 644.65,366.165 662.401,317.45 			"/>
		</g>
		<g>
			<g>
				<path style="fill:#2E4661;" d="M696.758,358.489c0,1.438-1.166,2.604-2.604,2.604s-2.604-1.166-2.604-2.604
					c0-1.438,1.166-2.605,2.604-2.605S696.758,357.051,696.758,358.489z"/>
				<path style="fill:#2E4661;" d="M581.099,358.489c0,1.438-1.166,2.604-2.604,2.604c-1.438,0-2.604-1.166-2.604-2.604
					c0-1.438,1.166-2.605,2.604-2.605C579.933,355.885,581.099,357.051,581.099,358.489z"/>
			</g>
			<g>
				<path style="fill:#2E4661;" d="M636.294,298.055c1.438-0.001,2.605,1.165,2.606,2.603c0.001,1.438-1.165,2.605-2.603,2.606
					c-1.438,0.001-2.605-1.165-2.606-2.603C633.69,299.223,634.856,298.056,636.294,298.055z"/>
				<path style="fill:#2E4661;" d="M636.351,413.715c1.438-0.001,2.605,1.165,2.606,2.603c0.001,1.438-1.165,2.605-2.603,2.606
					c-1.438,0.001-2.605-1.165-2.606-2.603C633.747,414.882,634.913,413.715,636.351,413.715z"/>
			</g>
		</g>
		<g>
			<path style="fill:#2E4661;" d="M650.108,288.42h-23.54v-3.388c0-6.5,5.27-11.77,11.77-11.77h0c6.5,0,11.77,5.27,11.77,11.77
				V288.42z"/>
			<path style="fill:#2E4661;" d="M658.922,260.606c-2.656-5.724-8.451-9.209-14.687-9.334c-3.562-0.072-7.133,0-10.696,0
				c-5.142,0-10.005,1.644-13.415,5.669c-3.432,4.051-3.909,8.698-3.909,13.757c0,4.384-0.671,9.516,3.713,12.188
				c2.572,1.568,5.798,1.174,8.683,1.174c7.901,0,15.802,0,23.702,0c0.1,0.005,0.202,0.006,0.309,0c0.157,0,0.304-0.015,0.446-0.039
				c2.973-0.304,5.545-1.912,6.748-4.752c0.739-1.744,0.647-3.539,0.647-5.386C660.463,269.39,660.867,264.798,658.922,260.606z
				 M652.622,279.214c-5.639,0-11.279,0-16.918,0c-3.25,0-6.5,0-9.751,0c-2.327,0-4.646-0.115-4.893-3.122
				c-0.23-2.805-0.056-5.757,0-8.573c0.104-5.254,3.581-9.871,8.762-11.103c2.917-0.694,6.26-0.299,9.234-0.299
				c3.398,0,7.054-0.396,10.195,1.151c4.792,2.361,6.366,6.956,6.366,11.949C655.617,272.088,656.949,278.964,652.622,279.214z"/>
		</g>
	</g>
</g>
</svg>
