<svg width="80" height="80" viewBox="0 0 80 80" fill="none" xmlns="http://www.w3.org/2000/svg">
<path fill-rule="evenodd" clip-rule="evenodd" d="M46.6714 59.8393C46.0813 59.8393 45.6028 59.361 45.6028 58.7706C45.6028 58.1804 46.0812 57.7021 46.6714 57.7021C48.0175 57.7021 49.1127 56.6068 49.1127 55.2606C49.1127 53.9145 48.0175 52.8195 46.6714 52.8195L37.7915 52.835C37.792 52.835 37.7909 52.835 37.7915 52.835C37.6197 52.835 37.4488 52.7937 37.2966 52.7145L29.5471 48.6843L21.2419 48.6841C20.6517 48.6841 20.1733 48.2058 20.1733 47.6156C20.1733 47.0254 20.6517 46.5469 21.2419 46.5469L29.8085 46.547C29.9802 46.547 30.1492 46.5884 30.3015 46.6675L38.0501 50.6972L46.6696 50.6822C49.1961 50.6822 51.2499 52.7359 51.2499 55.2605C51.2498 57.7854 49.196 59.8393 46.6714 59.8393Z" fill="#03A84E"/>
<path fill-rule="evenodd" clip-rule="evenodd" d="M43.671 69.9983H38.644C38.5125 69.9983 38.3821 69.9741 38.2593 69.9267L24.9153 64.7781H21.344C20.7537 64.7781 20.2754 64.2998 20.2754 63.7096C20.2754 63.1192 20.7537 62.6409 21.344 62.6409H25.1143C25.2457 62.6409 25.3762 62.6651 25.499 62.7125L38.843 67.8611H43.4411C44.4588 67.4152 46.5606 66.6526 49.1701 65.706C55.3587 63.4603 64.7109 60.0671 67.9821 57.8416C68.9412 57.1894 69.2691 55.859 68.7132 54.8761C68.1019 53.7947 66.317 53.1607 63.1433 54.624C63.1142 54.6375 63.0846 54.6496 63.0542 54.6604L48.6714 59.7797C48.5564 59.8206 48.4352 59.8416 48.3132 59.8416H34.6134C34.0232 59.8416 33.5447 59.3633 33.5447 58.7729C33.5447 58.1827 34.0232 57.7043 34.6134 57.7043H48.1285L62.2929 52.6627C66.7583 50.6206 69.4973 51.9208 70.5737 53.824C71.6822 55.7841 71.0718 58.3252 69.1842 59.609C65.6916 61.9846 56.5638 65.2966 49.8989 67.715C47.2406 68.6796 44.9448 69.5126 44.1248 69.8972C43.9827 69.9638 43.8278 69.9983 43.671 69.9983Z" fill="#03A84E"/>
<path fill-rule="evenodd" clip-rule="evenodd" d="M21.242 68.4252H9.94307C9.35286 68.4252 8.87451 67.9468 8.87451 67.3566V44.0335C8.87451 43.4433 9.35286 42.9648 9.94307 42.9648H21.242C21.8324 42.9648 22.3107 43.4432 22.3107 44.0335V67.3568C22.3107 67.9468 21.8324 68.4252 21.242 68.4252ZM11.0118 66.2881H20.1733V45.1019H11.0118V66.2881Z" fill="#03A84E"/>
<path fill-rule="evenodd" clip-rule="evenodd" d="M45.6992 43.1205C36.5679 43.1205 29.1392 35.6917 29.1392 26.5603C29.1392 17.4289 36.5681 10 45.6992 10C54.8306 10 62.2595 17.4289 62.2595 26.5603C62.2595 35.6917 54.8306 43.1205 45.6992 43.1205ZM45.6992 12.1373C37.7465 12.1373 31.2764 18.6074 31.2764 26.5603C31.2764 34.5131 37.7465 40.9832 45.6992 40.9832C53.652 40.9832 60.1222 34.5131 60.1222 26.5603C60.1222 18.6074 53.652 12.1373 45.6992 12.1373Z" fill="#03A84E"/>
<path fill-rule="evenodd" clip-rule="evenodd" d="M38.0247 35.2993C37.7511 35.2993 37.4778 35.1949 37.269 34.9861C36.8517 34.5688 36.8517 33.8923 37.269 33.4749L52.6186 18.1255C53.036 17.708 53.7126 17.7083 54.1299 18.1255C54.5472 18.5429 54.5472 19.2195 54.1299 19.6368L38.7805 34.9861C38.5717 35.1949 38.2983 35.2993 38.0247 35.2993Z" fill="#03A84E"/>
<path fill-rule="evenodd" clip-rule="evenodd" d="M40.7966 25.4049C39.8373 25.4049 38.8781 25.0397 38.1477 24.3093C36.6871 22.8486 36.6871 20.4721 38.1477 19.0115C38.8552 18.3039 39.796 17.9141 40.7966 17.9141C41.7973 17.9141 42.738 18.3039 43.4455 19.0115C44.9061 20.4721 44.9061 22.8486 43.4455 24.3093C42.7153 25.0397 41.7562 25.4049 40.7966 25.4049ZM40.7966 20.0513C40.3668 20.0513 39.9629 20.2188 39.659 20.5226C39.0316 21.1499 39.0316 22.1706 39.659 22.798C40.2863 23.4253 41.3071 23.4254 41.9344 22.798C42.5617 22.1708 42.5617 21.15 41.9344 20.5226C41.6304 20.2188 41.2264 20.0513 40.7966 20.0513Z" fill="#03A84E"/>
<path fill-rule="evenodd" clip-rule="evenodd" d="M50.6012 35.2094C49.6419 35.2094 48.6826 34.8443 47.9523 34.114C47.2447 33.4065 46.855 32.4657 46.855 31.465C46.855 30.4642 47.2447 29.5234 47.9523 28.8159C48.6598 28.1085 49.6007 27.7188 50.6013 27.7188C51.6018 27.7188 52.5426 28.1085 53.2503 28.816C54.7109 30.2766 54.7109 32.6533 53.2503 34.114C52.5199 34.8443 51.5605 35.2094 50.6012 35.2094ZM50.6013 29.856C50.1715 29.856 49.7674 30.0234 49.4636 30.3273C49.1595 30.6312 48.9922 31.0351 48.9922 31.465C48.9922 31.8948 49.1595 32.2987 49.4636 32.6026C50.0908 33.2299 51.1117 33.2301 51.739 32.6026C52.3662 31.9753 52.3664 30.9546 51.739 30.3272C51.4351 30.0234 51.031 29.856 50.6013 29.856Z" fill="#03A84E"/>
</svg>
