<svg xmlns="http://www.w3.org/2000/svg" width="40" height="40" viewBox="0 0 40 40" fill="none" class="svg replaced-svg">
<g clip-path="url(#clip0_857_13054)">
<g clip-path="url(#clip1_857_13054)">
<path d="M28.4504 13.6962L29.3471 12.7996C29.567 12.5802 29.567 12.2241 29.3471 12.0042L24.6446 7.29606C24.4252 7.07613 24.0691 7.07556 23.8492 7.2955L21.7983 9.34188C21.3916 9.14388 20.9686 8.96725 20.5344 8.81369V5.92188C20.5344 5.61138 20.2824 5.35938 19.9719 5.35938H13.3119C13.0014 5.35938 12.7494 5.61138 12.7494 5.92188V8.81369C12.3208 8.96613 11.8983 9.14275 11.4866 9.34244L9.44019 7.29606C9.22025 7.07613 8.86475 7.07613 8.64481 7.29606L3.93669 12.0042C3.83094 12.1099 3.77188 12.2528 3.77188 12.4019C3.77188 12.5509 3.83094 12.6944 3.93669 12.7996L5.98644 14.8493C5.79012 15.2487 5.61575 15.6678 5.45881 16.1144H2.5625C2.41344 16.1144 2.27 16.1734 2.16425 16.2792C2.05906 16.3849 2 16.5278 2 16.6774L2.00562 23.3318C2.00562 23.6423 2.25763 23.8937 2.56812 23.8937H5.45938C5.61294 24.3286 5.78956 24.7499 5.987 25.1526L3.93669 27.2029C3.83094 27.3081 3.77188 27.4516 3.77188 27.6006C3.77188 27.7497 3.83094 27.8931 3.93669 27.9983L8.64481 32.7064C8.75 32.8116 8.89344 32.8712 9.0425 32.8712C9.19213 32.8712 9.335 32.8116 9.44075 32.7059L11.4899 30.6516C11.8983 30.8451 12.3365 31.0291 12.7494 31.1793V34.0801C12.7494 34.3906 13.0014 34.6426 13.3119 34.6426H19.9719C20.2824 34.6426 20.5344 34.3906 20.5344 34.0801V31.9712C22.3901 33.6256 24.8279 34.6409 27.5038 34.6409C33.2913 34.6409 38 29.9322 38 24.1446C38 18.6766 33.7953 14.1771 28.4504 13.6962ZM13.8744 33.5181V30.7787C13.8744 30.5352 13.7174 30.3192 13.4857 30.2438C12.9029 30.0548 12.2111 29.7646 11.6339 29.4687C11.4157 29.3568 11.1513 29.3984 10.9786 29.5722L9.04194 31.5134L5.12975 27.6006L7.07206 25.6583C7.24756 25.4828 7.2875 25.2128 7.16994 24.9946C6.8645 24.4259 6.60575 23.8094 6.401 23.1614C6.32675 22.9279 6.10962 22.7687 5.86437 22.7687H3.13006L3.12556 17.2394H5.86437C6.10962 17.2394 6.32675 17.0802 6.40044 16.8468C6.61475 16.1706 6.86619 15.5699 7.16881 15.0096C7.28694 14.7908 7.24813 14.5203 7.07206 14.3442L5.12975 12.4019L9.0425 8.48913L10.9792 10.4258C11.1541 10.6002 11.4219 10.6407 11.639 10.5259C12.2392 10.2092 12.8422 9.95725 13.4812 9.75419C13.7152 9.6805 13.8738 9.46338 13.8738 9.21813V6.48438H19.4088V9.21813C19.4088 9.46338 19.568 9.6805 19.8014 9.75419C20.4449 9.95838 21.0642 10.2171 21.6419 10.5248C21.8607 10.6413 22.1285 10.6007 22.3034 10.4264L24.2452 8.48913L28.1534 12.4019L26.8749 13.6804C25.2459 13.7778 23.7153 14.2401 22.3687 14.9995C20.9186 13.3345 18.8626 12.3799 16.6407 12.3799C12.4383 12.3799 9.01887 15.7994 9.01887 20.0018C9.01887 24.2043 12.4383 27.6237 16.6407 27.6237C16.9597 27.6237 17.2724 27.5961 17.5863 27.5556C18.0003 28.7549 18.6162 29.8613 19.4082 30.8204V33.5181H13.8744ZM17.0075 24.1446C17.0075 24.9428 17.1048 25.7174 17.2747 26.4649C17.0649 26.4863 16.8551 26.4976 16.6419 26.4976C13.0593 26.4976 10.145 23.5833 10.145 20.0007C10.145 16.4181 13.0593 13.5038 16.6419 13.5038C18.4796 13.5038 20.1856 14.2683 21.4147 15.6109C18.7518 17.5173 17.0075 20.6279 17.0075 24.1446ZM27.5038 33.5159C22.3361 33.5159 18.1325 29.3117 18.1325 24.1446C18.1325 18.9775 22.3366 14.7734 27.5038 14.7734C32.6709 14.7734 36.875 18.9775 36.875 24.1446C36.875 29.3117 32.6709 33.5159 27.5038 33.5159Z" fill="#00A63F"></path>
<path d="M27.5036 21.1496C28.1736 21.1496 28.7192 21.6947 28.7192 22.3652C28.7192 22.6757 28.9712 22.9277 29.2817 22.9277C29.5922 22.9277 29.8442 22.6757 29.8442 22.3652C29.8442 21.2694 29.0848 20.3543 28.0661 20.1011V18.6797C28.0661 18.3692 27.8141 18.1172 27.5036 18.1172C27.1931 18.1172 26.9411 18.3692 26.9411 18.6797V20.1011C25.923 20.3548 25.1631 21.27 25.1631 22.3652C25.1631 23.6556 26.2127 24.7058 27.5036 24.7058C28.1736 24.7058 28.7192 25.2508 28.7192 25.9213C28.7192 26.5918 28.1741 27.1369 27.5036 27.1369C26.8331 27.1369 26.2881 26.5918 26.2881 25.9213C26.2881 25.6108 26.0361 25.3588 25.7256 25.3588C25.4151 25.3588 25.1631 25.6108 25.1631 25.9213C25.1631 27.0171 25.9225 27.9323 26.9411 28.1854V29.6068C26.9411 29.9173 27.1931 30.1693 27.5036 30.1693C27.8141 30.1693 28.0661 29.9173 28.0661 29.6068V28.1854C29.0843 27.9317 29.8442 27.0165 29.8442 25.9213C29.8442 24.6309 28.7946 23.5808 27.5036 23.5808C26.8337 23.5808 26.2881 23.0357 26.2881 22.3652C26.2881 21.6947 26.8331 21.1496 27.5036 21.1496Z" fill="#00A63F"></path>
</g>
</g>
<defs>
<clipPath id="clip0_857_13054">
<rect width="40" height="40" fill="white"></rect>
</clipPath>
<clipPath id="clip1_857_13054">
<rect width="40" height="40" fill="white" transform="translate(-0.03125)"></rect>
</clipPath>
</defs>
</svg>