<svg xmlns="http://www.w3.org/2000/svg" width="41" height="40" viewBox="0 0 41 40" fill="none" class="svg replaced-svg">
<g clip-path="url(#clip0_830_1407)">
<path d="M39.8333 9.99869H1.16667C0.798666 9.99869 0.5 9.70002 0.5 9.33202V5.33203C0.5 4.22936 1.39733 3.33203 2.5 3.33203H38.4999C39.6026 3.33203 40.4999 4.22936 40.4999 5.33203V9.33202C40.4999 9.70002 40.2013 9.99869 39.8333 9.99869ZM1.83333 8.66536H39.1666V5.33203C39.1666 4.96536 38.8666 4.66536 38.4999 4.66536H2.5C2.13333 4.66536 1.83333 4.96536 1.83333 5.33203V8.66536Z" fill="#00A63F"></path>
<path d="M7.83316 18.0013H3.83317C3.46517 18.0013 3.1665 17.7026 3.1665 17.3346C3.1665 16.9666 3.46517 16.668 3.83317 16.668H7.83316C8.20116 16.668 8.49983 16.9666 8.49983 17.3346C8.49983 17.7026 8.20116 18.0013 7.83316 18.0013Z" fill="#00A63F"></path>
<path d="M11.8332 15.3333H3.83317C3.46517 15.3333 3.1665 15.0347 3.1665 14.6667C3.1665 14.2987 3.46517 14 3.83317 14H11.8332C12.2012 14 12.4998 14.2987 12.4998 14.6667C12.4998 15.0347 12.2012 15.3333 11.8332 15.3333Z" fill="#00A63F"></path>
<path d="M9.16667 7.33333C9.53485 7.33333 9.83333 7.03485 9.83333 6.66667C9.83333 6.29848 9.53485 6 9.16667 6C8.79848 6 8.5 6.29848 8.5 6.66667C8.5 7.03485 8.79848 7.33333 9.16667 7.33333Z" fill="#00A63F"></path>
<path d="M6.50016 7.33333C6.86835 7.33333 7.16683 7.03485 7.16683 6.66667C7.16683 6.29848 6.86835 6 6.50016 6C6.13197 6 5.8335 6.29848 5.8335 6.66667C5.8335 7.03485 6.13197 7.33333 6.50016 7.33333Z" fill="#00A63F"></path>
<path d="M3.83317 7.33333C4.20136 7.33333 4.49984 7.03485 4.49984 6.66667C4.49984 6.29848 4.20136 6 3.83317 6C3.46498 6 3.1665 6.29848 3.1665 6.66667C3.1665 7.03485 3.46498 7.33333 3.83317 7.33333Z" fill="#00A63F"></path>
<path d="M38.4999 36.6653H34.4999C34.1319 36.6653 33.8333 36.3666 33.8333 35.9986C33.8333 35.6306 34.1319 35.332 34.4999 35.332H38.4999C38.8666 35.332 39.1666 35.0333 39.1666 34.6653V5.33203C39.1666 4.96403 38.8666 4.66536 38.4999 4.66536H2.5C2.13333 4.66536 1.83333 4.96403 1.83333 5.33203V34.6653C1.83333 35.0333 2.13333 35.332 2.5 35.332H17.1666C17.5346 35.332 17.8333 35.6306 17.8333 35.9986C17.8333 36.3666 17.5346 36.6653 17.1666 36.6653H2.5C1.39733 36.6653 0.5 35.768 0.5 34.6653V5.33203C0.5 4.22936 1.39733 3.33203 2.5 3.33203H38.4999C39.6026 3.33203 40.4999 4.22936 40.4999 5.33203V34.6653C40.4999 35.768 39.6026 36.6653 38.4999 36.6653Z" fill="#00A63F"></path>
<path d="M31.1945 36.6676C31.0145 36.6676 30.8358 36.5956 30.7051 36.4529L29.0651 34.6742C28.8811 34.4756 28.8358 34.1849 28.9505 33.9409C29.2785 33.2369 29.5171 32.5089 29.6585 31.7769C29.7105 31.5102 29.9171 31.3022 30.1838 31.2489L32.4998 30.7849V29.2116L30.1838 28.7476C29.9185 28.6942 29.7118 28.4862 29.6585 28.2196C29.5185 27.4876 29.2785 26.7596 28.9505 26.0542C28.8358 25.8089 28.8811 25.5196 29.0651 25.3209L30.6705 23.5796L29.7465 22.3063L27.5931 23.2969C27.3465 23.4089 27.0571 23.3649 26.8598 23.1796C26.2905 22.6489 25.6718 22.1956 25.0198 21.8343C24.7838 21.7036 24.6505 21.4423 24.6811 21.1743L24.9571 18.8289L23.4598 18.3423L22.3011 20.4063C22.1678 20.6423 21.8998 20.7703 21.6385 20.7409C20.8905 20.6489 20.1105 20.6489 19.3625 20.7409C19.0972 20.7756 18.8332 20.6423 18.6985 20.4063L17.5412 18.3423L16.0438 18.8289L16.3198 21.1743C16.3505 21.4423 16.2172 21.7036 15.9812 21.8343C15.3292 22.1956 14.7105 22.6489 14.1412 23.1796C13.9452 23.3649 13.6545 23.4089 13.4078 23.2969L11.2545 22.3063L10.3305 23.5809L11.9358 25.3222C12.1198 25.5209 12.1652 25.8116 12.0505 26.0556C11.7225 26.7596 11.4838 27.4876 11.3425 28.2196C11.2905 28.4862 11.0838 28.6942 10.8172 28.7476L8.49984 29.2116V30.7849L10.8158 31.2489C11.0812 31.3022 11.2878 31.5102 11.3412 31.7769C11.4225 32.1942 11.5358 32.6209 11.6838 33.0422C11.8038 33.3902 11.6198 33.7689 11.2718 33.8902C10.9238 34.0116 10.5452 33.8276 10.4225 33.4796C10.3065 33.1462 10.2078 32.8076 10.1265 32.4716L7.7025 31.9849C7.3905 31.9222 7.1665 31.6489 7.1665 31.3316V28.6649C7.1665 28.3476 7.3905 28.0742 7.7025 28.0116L10.1265 27.5262C10.2585 26.9796 10.4345 26.4369 10.6572 25.9049L8.97717 24.0836C8.76117 23.8502 8.73983 23.4969 8.92783 23.2396L10.4958 21.0809C10.6838 20.8249 11.0238 20.7329 11.3132 20.8676L13.5652 21.9036C14.0012 21.5276 14.4625 21.1903 14.9412 20.8956L14.6518 18.4409C14.6158 18.1263 14.8065 17.8276 15.1092 17.7289L17.6452 16.9036C17.9438 16.8063 18.2772 16.9329 18.4332 17.2116L19.6425 19.3689C20.2078 19.3196 20.7851 19.3196 21.3505 19.3689L22.5611 17.2116C22.7158 16.9343 23.0505 16.8063 23.3478 16.9036L25.8838 17.7276C26.1865 17.8263 26.3771 18.1236 26.3411 18.4396L26.0518 20.8956C26.5305 21.1903 26.9918 21.5276 27.4278 21.9036L29.6798 20.8676C29.9691 20.7329 30.3118 20.8249 30.4971 21.0809L32.0651 23.2383C32.2531 23.4956 32.2318 23.8489 32.0158 24.0822L30.3358 25.9036C30.5585 26.4342 30.7358 26.9782 30.8665 27.5249L33.2905 28.0102C33.6091 28.0742 33.8331 28.3476 33.8331 28.6649V31.3316C33.8331 31.6489 33.6091 31.9222 33.2971 31.9849L30.8731 32.4702C30.7411 33.0169 30.5651 33.5596 30.3425 34.0916L31.6865 35.5489C31.9371 35.8196 31.9198 36.2409 31.6491 36.4916C31.5198 36.6089 31.3571 36.6676 31.1945 36.6676ZM20.4998 36.6649C20.1318 36.6649 19.8331 36.3662 19.8331 35.9982C19.8331 35.6302 20.1318 35.3316 20.4998 35.3316C23.4411 35.3316 25.8331 32.9396 25.8331 29.9982C25.8331 27.0569 23.4411 24.6649 20.4998 24.6649C17.5585 24.6649 15.1665 27.0569 15.1665 29.9982C15.1665 31.0729 15.4838 32.1089 16.0852 32.9929C16.2918 33.2969 16.2145 33.7116 15.9092 33.9196C15.6078 34.1262 15.1932 34.0502 14.9838 33.7436C14.2318 32.6369 13.8332 31.3422 13.8332 29.9982C13.8332 26.3222 16.8238 23.3316 20.4998 23.3316C24.1758 23.3316 27.1665 26.3222 27.1665 29.9982C27.1665 33.6742 24.1758 36.6649 20.4998 36.6649Z" fill="#00A63F"></path>
</g>
<defs>
<clipPath id="clip0_830_1407">
<rect width="40" height="40" fill="white" transform="translate(0.5)"></rect>
</clipPath>
</defs>
</svg>