<svg xmlns="http://www.w3.org/2000/svg" width="40" height="40" viewBox="0 0 40 40" fill="none" class="svg replaced-svg">
<g clip-path="url(#clip0_857_13016)">
<g clip-path="url(#clip1_857_13016)">
<g clip-path="url(#clip2_857_13016)">
<path d="M20 13.5078C21.9963 13.5078 23.7844 14.4139 24.9763 15.8357L25.8489 15.2182C24.4632 13.5257 22.3579 12.4453 20 12.4453C15.8273 12.4453 12.4443 15.8278 12.4443 20.0006C12.4443 24.1734 15.8273 27.5562 20 27.5562C23.5807 27.5562 26.5776 25.0646 27.3565 21.7209C26.8458 22.0828 26.3472 22.436 25.8697 22.774C24.8277 24.9707 22.5888 26.4937 20 26.4937C16.4196 26.4937 13.5068 23.5809 13.5068 20.0006C13.5068 16.4205 16.4196 13.5078 20 13.5078Z" fill="#00A63F"></path>
<path d="M35.3209 17.1664H33.785C33.315 17.4995 32.8112 17.8563 32.2854 18.2289H32.9152H35.3209C35.655 18.2289 35.9375 18.6081 35.9375 19.0567V20.9443C35.9375 21.3925 35.655 21.7711 35.3209 21.7711H32.9152H32.0595L31.8771 22.6072C31.5718 24.0077 31.0208 25.3358 30.2398 26.5546L29.7786 27.2746L30.3832 27.8793L32.0865 29.5825C32.2138 29.7094 32.2322 29.8786 32.225 29.9979C32.2125 30.2115 32.1072 30.4319 31.9371 30.6024L30.6032 31.9369C30.4188 32.1208 30.1827 32.2263 29.9555 32.2263C29.8491 32.2263 29.6982 32.202 29.5819 32.0854L27.8787 30.3829L27.2741 29.7785L26.5542 30.2398C25.3364 31.0203 24.0085 31.5712 22.6072 31.877L21.7712 32.0595V32.9151V35.3213C21.7712 35.6553 21.3925 35.9375 20.9439 35.9375H19.0562C18.6078 35.9375 18.2291 35.6553 18.2291 35.3213V32.9151V32.0595L17.393 31.877C15.9915 31.5712 14.6635 31.0203 13.4459 30.2398L12.7259 29.7783L12.1213 30.383L10.4175 32.0865C10.3021 32.202 10.1511 32.2263 10.0448 32.2263C9.81753 32.2263 9.58136 32.1208 9.39781 31.9377L8.06334 30.6027C7.89265 30.4319 7.7876 30.2115 7.77503 29.9982C7.76802 29.8787 7.7863 29.7097 7.91459 29.5818L9.61714 27.8793L10.2217 27.2746L9.76047 26.5546C8.97954 25.3361 8.42871 24.008 8.12313 22.6071L7.94078 21.7711H7.08502H4.67923C4.34499 21.7711 4.0625 21.3925 4.0625 20.9443V19.0567C4.0625 18.6081 4.34499 18.2289 4.67923 18.2289H7.08502H7.94078L8.12313 17.3929C8.42871 15.9919 8.97954 14.6639 9.76034 13.446L10.2218 12.726L9.61714 12.1214L7.91366 10.4177C7.79812 10.3025 7.77386 10.1518 7.77373 10.0455C7.7736 9.8183 7.87905 9.58264 8.06294 9.39861L9.39744 8.06361C9.58187 7.87943 9.81793 7.77373 10.0451 7.77373C10.1514 7.77373 10.3022 7.79798 10.4184 7.91446L12.1213 9.61701L12.7259 10.2217L13.4459 9.76021C14.6632 8.9798 15.9912 8.42935 17.3926 8.12404L18.2291 7.94195V7.08592V4.6787C18.2291 4.34473 18.6078 4.0625 19.0562 4.0625H20.9439C21.3925 4.0625 21.7712 4.34473 21.7712 4.6787V7.08592V7.94195L22.6075 8.12404C24.0088 8.42935 25.3366 8.9798 26.5542 9.76021L27.2741 10.2215L27.8787 9.61714L29.583 7.91353C29.6982 7.79798 29.8489 7.77373 29.955 7.77373C30.1822 7.77373 30.4183 7.87943 30.6022 8.06308L31.9373 9.39885C32.1075 9.56917 32.2125 9.78914 32.225 10.0024C32.2322 10.1218 32.2138 10.2909 32.0859 10.4186L30.7682 11.7364L33.2859 9.95462C33.2626 9.49342 33.0615 9.02039 32.6885 8.64751L31.3537 7.312C30.9557 6.91433 30.4445 6.71123 29.955 6.71123C29.536 6.71123 29.1329 6.86012 28.8307 7.16311L27.1275 8.86566C25.8326 8.03559 24.3849 7.4238 22.8337 7.08592V4.6787C22.8337 3.75148 21.9878 3 20.9439 3H19.0562C18.0122 3 17.1666 3.75148 17.1666 4.6787V7.08592C15.6152 7.4238 14.1674 8.03559 12.8725 8.86566L11.1696 7.16311C10.8673 6.86012 10.4642 6.71123 10.0451 6.71123C9.55568 6.71123 9.04453 6.9142 8.64647 7.312L7.31146 8.64751C6.57374 9.38525 6.50643 10.5147 7.16322 11.1699L8.8658 12.8726C8.03572 14.1675 7.4234 15.6152 7.08502 17.1664H4.67923C3.75148 17.1664 3 18.0122 3 19.0567V20.9443C3 21.9878 3.75148 22.8336 4.67923 22.8336H7.08502C7.4234 24.3848 8.03572 25.8325 8.8658 27.1279L7.16322 28.8305C6.50643 29.4858 6.57374 30.6147 7.31146 31.3535L8.64647 32.6889C9.0444 33.086 9.55554 33.2888 10.0448 33.2888C10.464 33.2888 10.8672 33.14 11.1696 32.8369L12.8725 31.1343C14.1674 31.9644 15.6152 32.5766 17.1666 32.9151V35.3213C17.1666 36.2485 18.0122 37 19.0562 37H20.9439C21.9878 37 22.8337 36.2485 22.8337 35.3213V32.9151C24.3849 32.5766 25.8326 31.9644 27.1275 31.1343L28.8307 32.8369C29.1329 33.1399 29.5363 33.2888 29.9555 33.2888C30.4447 33.2888 30.9557 33.086 31.3537 32.6889L32.6885 31.3535C33.4263 30.6147 33.4937 29.4858 32.8371 28.8305L31.1345 27.1279C31.9645 25.8325 32.577 24.3848 32.9152 22.8336H35.3209C36.2485 22.8336 37 21.9878 37 20.9443V19.0567C37 18.0122 36.2485 17.1664 35.3209 17.1664Z" fill="#00A63F"></path>
<path d="M21.4252 19.6371C21.4034 19.6061 21.3821 19.5742 21.3629 19.5441L19.2825 16.7272C19.0129 16.3458 18.5746 16.1181 18.1103 16.1181C17.806 16.1181 17.5146 16.2135 17.2674 16.3942L16.3459 17.068C15.7063 17.5352 15.5595 18.4433 16.0242 19.1003C16.0502 19.1357 18.6337 22.6499 19.762 24.2516C19.9957 24.5832 20.3777 24.7812 20.7842 24.7812H20.7844C21.0511 24.7812 21.3144 24.695 21.5458 24.5316C24.4438 22.4844 36.398 14.0129 36.4044 14.0083C37.0436 13.541 37.1904 12.6328 36.7316 11.9835L36.0683 11.0466C35.7987 10.6652 35.3606 10.4375 34.8963 10.4375C34.592 10.4375 34.3007 10.5328 34.0595 10.7088L21.7538 19.4175C21.6503 19.4969 21.5263 19.5787 21.4252 19.6371ZM34.6794 11.5717C34.8442 11.4514 35.0831 11.4934 35.2006 11.6602L35.8641 12.5971C35.9899 12.7753 35.951 13.0236 35.7837 13.146C35.7837 13.146 23.8306 21.6167 20.9328 23.6638C20.8809 23.7002 20.8311 23.7188 20.7844 23.7188C20.7121 23.7188 20.6563 23.6761 20.6306 23.6396C19.4961 22.0293 16.9063 18.5063 16.8859 18.4789C16.7601 18.3009 16.7989 18.0528 16.9728 17.9258L17.8945 17.2519C17.9583 17.2052 18.0329 17.1806 18.1103 17.1806C18.2321 17.1806 18.3431 17.239 18.4216 17.3496L20.476 20.1293C20.5686 20.274 20.7388 20.5176 20.9084 20.6458C21.0208 20.7301 21.1585 20.7746 21.3071 20.7746C21.6584 20.7746 22.096 20.4948 22.3842 20.2726L34.6794 11.5717Z" fill="#00A63F"></path>
</g>
</g>
</g>
<defs>
<clipPath id="clip0_857_13016">
<rect width="40" height="40" fill="white"></rect>
</clipPath>
<clipPath id="clip1_857_13016">
<rect width="40" height="40" fill="white" transform="translate(-0.03125)"></rect>
</clipPath>
<clipPath id="clip2_857_13016">
<rect width="34" height="34" fill="white" transform="translate(3 3)"></rect>
</clipPath>
</defs>
</svg>