<svg xmlns="http://www.w3.org/2000/svg" width="53" height="53" viewBox="0 0 53 53" fill="none" class="svg replaced-svg">
<path d="M45.8438 3H8.15625C5.31309 3 3 5.31309 3 8.15625V34.4062C3 37.2494 5.31309 39.5625 8.15625 39.5625H19.5249L18.3897 43.6493C16.6006 44.1381 15.2812 45.7768 15.2812 47.7188V49.5938C15.2812 50.3704 15.9109 51 16.6875 51H37.3125C38.0891 51 38.7188 50.3704 38.7188 49.5938V47.7188C38.7188 45.7768 37.3994 44.1381 35.6104 43.6493L34.4751 39.5625H45.8438C48.6869 39.5625 51 37.2494 51 34.4062V8.15625C51 5.31309 48.6869 3 45.8438 3ZM34.5 46.3125C35.2754 46.3125 35.9062 46.9433 35.9062 47.7188V48.1875H18.0938V47.7188C18.0938 46.9433 18.7246 46.3125 19.5 46.3125H34.5ZM21.3501 43.5L22.4438 39.5625H31.5562L32.6499 43.5H21.3501ZM48.1875 34.4062C48.1875 35.6986 47.1361 36.75 45.8438 36.75H8.15625C6.86391 36.75 5.8125 35.6986 5.8125 34.4062V33.9375H48.1875V34.4062ZM48.1875 31.125H5.8125V8.15625C5.8125 6.86391 6.86391 5.8125 8.15625 5.8125H45.8438C47.1361 5.8125 48.1875 6.86391 48.1875 8.15625V31.125Z" fill="#00A63F"></path>
<path d="M35.4375 19.875C36.2142 19.875 36.8438 19.2454 36.8438 18.4688C36.8438 17.6921 36.2142 17.0625 35.4375 17.0625C34.6608 17.0625 34.0312 17.6921 34.0312 18.4688C34.0312 19.2454 34.6608 19.875 35.4375 19.875Z" fill="#00A63F"></path>
<path d="M43.875 17.0625H42.3273C42.1446 16.1661 41.79 15.3319 41.3009 14.5941L42.3982 13.4968C42.9473 12.9477 42.9473 12.0573 42.3982 11.5081C41.849 10.9589 40.9586 10.9589 40.4094 11.5081L39.3122 12.6053C38.5745 12.1162 37.7402 11.7616 36.8438 11.579V10.0312C36.8438 9.25462 36.2142 8.625 35.4376 8.625C34.661 8.625 34.0313 9.25462 34.0313 10.0312V11.579C33.135 11.7616 32.3007 12.1163 31.563 12.6053L30.4657 11.5081C29.9167 10.959 29.0262 10.959 28.477 11.5081C27.9279 12.0572 27.9279 12.9476 28.477 13.4968L29.5743 14.5941C29.0851 15.3318 28.7305 16.1661 28.5479 17.0625H27C26.2234 17.0625 25.5938 17.6921 25.5938 18.4688C25.5938 19.2454 26.2234 19.875 27 19.875H28.5477C28.7304 20.7714 29.085 21.6056 29.5741 22.3434L28.4768 23.4407C27.9277 23.9898 27.9277 24.8802 28.4768 25.4294C28.7515 25.7041 29.1113 25.8413 29.4712 25.8413C29.8311 25.8413 30.1911 25.704 30.4656 25.4294L31.5628 24.3322C32.3005 24.8213 33.1348 25.1759 34.0312 25.3585V26.9062C34.0312 27.6829 34.6608 28.3125 35.4374 28.3125C36.214 28.3125 36.8437 27.6829 36.8437 26.9062V25.3585C37.74 25.1759 38.5743 24.8212 39.312 24.3322L40.4093 25.4294C40.6838 25.704 41.0438 25.8413 41.4036 25.8413C41.7634 25.8413 42.1234 25.704 42.398 25.4294C42.9471 24.8803 42.9471 23.9899 42.398 23.4407L41.3007 22.3434C41.7899 21.6057 42.1445 20.7714 42.3271 19.875H43.875C44.6516 19.875 45.2812 19.2454 45.2812 18.4688C45.2812 17.6921 44.6516 17.0625 43.875 17.0625ZM35.4375 22.6875C33.1113 22.6875 31.2188 20.795 31.2188 18.4688C31.2188 16.1425 33.1113 14.25 35.4375 14.25C37.7637 14.25 39.6562 16.1425 39.6562 18.4688C39.6562 20.795 37.7637 22.6875 35.4375 22.6875Z" fill="#00A63F"></path>
<path d="M21.375 24.0938H14.3438C14.3438 23.3171 13.7141 22.6875 12.9375 22.6875C12.1609 22.6875 11.5312 23.3171 11.5312 24.0938H10.125C9.34837 24.0938 8.71875 24.7234 8.71875 25.5C8.71875 26.2766 9.34837 26.9062 10.125 26.9062H11.5312C11.5312 27.6829 12.1609 28.3125 12.9375 28.3125C13.7141 28.3125 14.3438 27.6829 14.3438 26.9062H21.375C22.1516 26.9062 22.7812 26.2766 22.7812 25.5C22.7812 24.7234 22.1516 24.0938 21.375 24.0938Z" fill="#00A63F"></path>
<path d="M21.375 17.0625H19.9688C19.9688 16.2859 19.3391 15.6562 18.5625 15.6562C17.7859 15.6562 17.1562 16.2859 17.1562 17.0625H10.125C9.34837 17.0625 8.71875 17.6921 8.71875 18.4688C8.71875 19.2454 9.34837 19.875 10.125 19.875H17.1562C17.1562 20.6516 17.7859 21.2812 18.5625 21.2812C19.3391 21.2812 19.9688 20.6516 19.9688 19.875H21.375C22.1516 19.875 22.7812 19.2454 22.7812 18.4688C22.7812 17.6921 22.1516 17.0625 21.375 17.0625Z" fill="#00A63F"></path>
<path d="M21.375 10.0312H14.3438C14.3438 9.25462 13.7141 8.625 12.9375 8.625C12.1609 8.625 11.5312 9.25462 11.5312 10.0312H10.125C9.34837 10.0312 8.71875 10.6609 8.71875 11.4375C8.71875 12.2141 9.34837 12.8438 10.125 12.8438H11.5312C11.5312 13.6204 12.1609 14.25 12.9375 14.25C13.7141 14.25 14.3438 13.6204 14.3438 12.8438H21.375C22.1516 12.8438 22.7812 12.2141 22.7812 11.4375C22.7812 10.6609 22.1516 10.0312 21.375 10.0312Z" fill="#00A63F"></path>
</svg>