<svg xmlns="http://www.w3.org/2000/svg" width="41" height="40" viewBox="0 0 41 40" fill="none" class="svg replaced-svg">
<g clip-path="url(#clip0_832_1499)">
<path d="M37.1565 23.24L35.55 22.58C35.3303 21.774 35.0169 20.9982 34.6167 20.2694L35.2951 18.6344C35.3903 18.4145 35.4232 18.1715 35.3902 17.9333C35.3572 17.695 35.2595 17.4712 35.1084 17.2874C34.6604 16.7388 34.167 16.2311 33.6338 15.77C33.4554 15.6144 33.2381 15.5138 33.0066 15.4796C32.7751 15.4454 32.539 15.4791 32.3253 15.5768L30.7352 16.2752C30.0265 15.8641 29.2725 15.5418 28.4893 15.3152L27.8477 13.664C27.77 13.4741 27.6501 13.3056 27.4977 13.172V6.8C27.4977 3.68 21.1866 2 15.2477 2C9.30875 2 3 3.68 3 6.8V28.4C3 31.52 9.31108 33.2 15.25 33.2C15.5708 33.2 15.8806 33.1886 16.1933 33.1802C16.2406 33.3015 16.3064 33.4143 16.3881 33.5144C16.8365 34.0627 17.3298 34.5704 17.8628 35.0318C18.0412 35.1872 18.2585 35.2877 18.49 35.3219C18.7214 35.3561 18.9575 35.3225 19.1712 35.225L20.7613 34.5266C21.47 34.9377 22.224 35.26 23.0072 35.4866L23.6488 37.1378C23.735 37.359 23.8784 37.5518 24.0635 37.6952C24.2486 37.8386 24.4683 37.9272 24.6988 37.9514C25.0623 37.985 25.4263 38.0012 25.7803 38.0012C26.1344 38.0012 26.4803 37.985 26.8023 37.9514C27.033 37.927 27.2527 37.8382 27.4378 37.6946C27.6228 37.5509 27.7662 37.358 27.8523 37.1366L28.494 35.4866C29.2772 35.26 30.0312 34.9377 30.7398 34.5266L32.3288 35.2244C32.5428 35.3218 32.779 35.3554 33.0106 35.3212C33.2422 35.2871 33.4598 35.1866 33.6384 35.0312C34.1715 34.5702 34.6649 34.0627 35.1131 33.5144C35.2641 33.3309 35.3617 33.1074 35.3948 32.8695C35.428 32.6316 35.3952 32.3889 35.3003 32.1692L34.6213 30.5324C35.0201 29.8028 35.3319 29.0264 35.55 28.22L37.1571 27.56C37.3709 27.4714 37.5572 27.3247 37.696 27.1355C37.8348 26.9463 37.921 26.7217 37.9452 26.486C38.0149 25.7646 38.0149 25.0378 37.9452 24.3164C37.9211 24.0802 37.835 23.8552 37.6961 23.6656C37.5571 23.476 37.3706 23.3288 37.1565 23.24ZM15.25 3.2C21.7833 3.2 26.3333 5.0972 26.3333 6.8C26.3333 8.5028 21.7833 10.4 15.25 10.4C8.71667 10.4 4.16667 8.5028 4.16667 6.8C4.16667 5.0972 8.71667 3.2 15.25 3.2ZM4.16667 8.9366C6.26142 10.6784 10.8563 11.6 15.25 11.6C19.6437 11.6 24.2386 10.6784 26.3333 8.9366V12.8282C25.7891 12.7939 25.2432 12.8012 24.7 12.8498C24.4694 12.8742 24.2496 12.963 24.0646 13.1066C23.8795 13.2503 23.7361 13.4432 23.65 13.6646L23.0083 15.3146C22.2251 15.5412 21.4711 15.8635 20.7625 16.2746L19.1735 15.5768C18.9596 15.4786 18.7231 15.4446 18.4913 15.4788C18.2595 15.513 18.0418 15.6139 17.8633 15.77C17.3307 16.2313 16.8376 16.7388 16.3893 17.2868C16.3167 17.3745 16.2564 17.4723 16.2102 17.5772C15.8917 17.5868 15.5738 17.6 15.25 17.6C8.71667 17.6 4.16667 15.7028 4.16667 14V8.9366ZM4.16667 16.1366C6.26142 17.8784 10.8563 18.8 15.25 18.8C15.5907 18.8 15.9255 18.7862 16.2603 18.7748L16.8798 20.2676C16.4806 20.9972 16.1684 21.7736 15.95 22.58L14.3429 23.24C14.1291 23.3286 13.9428 23.4753 13.804 23.6645C13.6652 23.8537 13.579 24.0783 13.5548 24.314C13.5408 24.458 13.542 24.6032 13.5338 24.7478C7.90817 24.44 4.16667 22.7054 4.16667 21.2V16.1366ZM16.2796 31.9766C15.9395 31.9886 15.6 32 15.25 32C8.71667 32 4.16667 30.1028 4.16667 28.4V23.2964C5.69033 24.6098 8.75108 25.706 13.5263 25.946C13.535 26.126 13.535 26.306 13.5525 26.486C13.5759 26.7231 13.662 26.9492 13.8015 27.1395C13.9409 27.3299 14.1284 27.4774 14.3435 27.566L15.9477 28.226C16.1674 29.032 16.4807 29.8078 16.881 30.5366L16.2796 31.9766ZM36.7861 26.3726C36.782 26.389 36.7743 26.4042 36.7634 26.4169C36.7526 26.4296 36.7389 26.4395 36.7237 26.4458L34.8465 27.2168C34.7604 27.2522 34.6838 27.3081 34.6229 27.38C34.5621 27.4519 34.5187 27.5376 34.4965 27.6302C34.28 28.5278 33.9335 29.3868 33.4687 30.1784C33.421 30.2598 33.3928 30.3517 33.3864 30.4465C33.38 30.5414 33.3956 30.6364 33.4319 30.7238L34.2264 32.6396C34.2346 32.6553 34.2383 32.673 34.2371 32.6907C34.2359 32.7085 34.2297 32.7255 34.2194 32.7398C33.8116 33.2386 33.3627 33.7003 32.8778 34.1198C32.8637 34.1281 32.8478 34.1325 32.8317 34.1325C32.8155 34.1325 32.7996 34.1281 32.7856 34.1198L30.9259 33.3032C30.841 33.266 30.7487 33.25 30.6567 33.2565C30.5646 33.2631 30.4753 33.292 30.3963 33.341C29.6271 33.8197 28.7924 34.1767 27.92 34.4C27.83 34.4229 27.7466 34.4674 27.6767 34.53C27.6068 34.5926 27.5525 34.6715 27.5181 34.76L26.7691 36.689C26.7631 36.7062 26.7527 36.7216 26.7391 36.7334C26.7255 36.7452 26.709 36.753 26.6915 36.7562C26.063 36.8156 25.4306 36.8156 24.8021 36.7562C24.786 36.7521 24.7711 36.7441 24.7588 36.7326C24.7465 36.7212 24.7371 36.7069 24.7315 36.6908L23.9819 34.76C23.9475 34.6715 23.8932 34.5926 23.8233 34.53C23.7534 34.4674 23.67 34.4229 23.58 34.4C22.7073 34.1774 21.8722 33.821 21.1026 33.3428C21.0235 33.2938 20.9343 33.2649 20.8422 33.2583C20.7501 33.2518 20.6578 33.2678 20.5729 33.305L18.7121 34.1222C18.6966 34.1309 18.679 34.1346 18.6615 34.133C18.6439 34.1314 18.6272 34.1245 18.6135 34.1132C18.1295 33.6936 17.6816 33.2319 17.2748 32.7332C17.2667 32.7189 17.2625 32.7026 17.2625 32.6861C17.2625 32.6696 17.2667 32.6533 17.2748 32.639L18.0687 30.725C18.105 30.6376 18.1206 30.5426 18.1142 30.4477C18.1078 30.3529 18.0796 30.261 18.0319 30.1796C17.5671 29.388 17.2206 28.529 17.0041 27.6314C16.9819 27.5389 16.9385 27.4531 16.8777 27.3812C16.8168 27.3093 16.7402 27.2534 16.6541 27.218L14.7798 26.4482C14.764 26.4421 14.7497 26.4321 14.7384 26.4192C14.727 26.4062 14.7188 26.3907 14.7145 26.3738V26.3672C14.6518 25.721 14.6518 25.07 14.7145 24.4238C14.7186 24.4074 14.7263 24.3922 14.7372 24.3795C14.748 24.3668 14.7616 24.3569 14.7769 24.3506L16.6541 23.5796C16.7402 23.5442 16.8168 23.4883 16.8777 23.4164C16.9385 23.3445 16.9819 23.2588 17.0041 23.1662C17.2206 22.2686 17.5671 21.4096 18.0319 20.618C18.0796 20.5366 18.1078 20.4447 18.1142 20.3499C18.1206 20.255 18.105 20.16 18.0687 20.0726L17.2736 18.158C17.2654 18.1423 17.2617 18.1246 17.2629 18.1069C17.2641 18.0891 17.2703 18.0721 17.2806 18.0578C17.6887 17.5593 18.1376 17.0976 18.6223 16.6778C18.6363 16.6696 18.6522 16.6653 18.6683 16.6653C18.6845 16.6653 18.7004 16.6696 18.7144 16.6778L20.5741 17.4944C20.6589 17.532 20.7512 17.5482 20.8434 17.5417C20.9355 17.5351 21.0248 17.5059 21.1038 17.4566C21.873 16.9787 22.7078 16.6225 23.58 16.4C23.67 16.3772 23.7534 16.3326 23.8233 16.27C23.8932 16.2074 23.9475 16.1285 23.9819 16.04L24.7309 14.111C24.7369 14.0938 24.7473 14.0784 24.7609 14.0666C24.7745 14.0548 24.791 14.047 24.8085 14.0438C25.437 13.9838 26.0695 13.9838 26.6979 14.0438C26.714 14.0479 26.7289 14.056 26.7412 14.0674C26.7535 14.0788 26.7629 14.0931 26.7685 14.1092L27.5181 16.04C27.5525 16.1285 27.6068 16.2074 27.6767 16.27C27.7466 16.3326 27.83 16.3772 27.92 16.4C28.7927 16.6226 29.6278 16.979 30.3974 17.4572C30.4764 17.5065 30.5656 17.5357 30.6578 17.5423C30.7499 17.5488 30.8423 17.5326 30.9271 17.495L32.7879 16.6778C32.8034 16.6692 32.821 16.6655 32.8385 16.6671C32.856 16.6687 32.8727 16.6755 32.8865 16.6868C33.3716 17.1061 33.8205 17.5678 34.2282 18.0668C34.2362 18.0811 34.2404 18.0974 34.2404 18.1139C34.2404 18.1304 34.2362 18.1467 34.2282 18.161L33.4343 20.075C33.3979 20.1624 33.3823 20.2574 33.3887 20.3523C33.3951 20.4471 33.4233 20.539 33.471 20.6204C33.9359 21.412 34.2823 22.271 34.4988 23.1686C34.5211 23.2612 34.5644 23.3469 34.6253 23.4188C34.6861 23.4907 34.7628 23.5466 34.8488 23.582L36.7231 24.3518C36.7399 24.3584 36.7547 24.3693 36.7663 24.3835C36.7778 24.3977 36.7856 24.4146 36.789 24.4328C36.8507 25.0787 36.8497 25.7293 36.7861 26.375V26.3726Z" fill="#00A63F"></path>
<path d="M25.7498 17.6016C24.25 17.6016 22.7838 18.059 21.5368 18.9161C20.2897 19.7732 19.3177 20.9914 18.7438 22.4166C18.1698 23.8419 18.0196 25.4102 18.3122 26.9233C18.6048 28.4363 19.3271 29.8261 20.3876 30.917C21.4482 32.0078 22.7994 32.7507 24.2704 33.0517C25.7414 33.3527 27.2662 33.1982 28.6519 32.6078C30.0375 32.0175 31.2219 31.0177 32.0552 29.735C32.8884 28.4523 33.3332 26.9443 33.3332 25.4016C33.3309 23.3336 32.5312 21.351 31.1095 19.8888C29.6879 18.4265 27.7604 17.6039 25.7498 17.6016ZM25.7498 32.0016C24.4807 32.0016 23.2401 31.6145 22.1849 30.8893C21.1297 30.164 20.3073 29.1333 19.8216 27.9273C19.336 26.7213 19.2089 25.3942 19.4565 24.114C19.7041 22.8337 20.3152 21.6577 21.2126 20.7347C22.11 19.8116 23.2533 19.183 24.498 18.9284C25.7427 18.6737 27.0329 18.8044 28.2054 19.304C29.3779 19.8035 30.38 20.6494 31.0851 21.7348C31.7902 22.8202 32.1665 24.0962 32.1665 25.4016C32.1645 27.1514 31.4878 28.8289 30.2849 30.0662C29.082 31.3035 27.451 31.9995 25.7498 32.0016Z" fill="#00A63F"></path>
<path d="M25.7502 20.6016C24.8272 20.6016 23.9249 20.8831 23.1575 21.4105C22.3901 21.9379 21.7919 22.6876 21.4387 23.5647C21.0855 24.4418 20.9931 25.4069 21.1732 26.338C21.3532 27.2691 21.7977 28.1244 22.4503 28.7957C23.103 29.467 23.9345 29.9241 24.8397 30.1093C25.745 30.2945 26.6833 30.1995 27.536 29.8362C28.3887 29.4729 29.1176 28.8577 29.6304 28.0683C30.1431 27.2789 30.4168 26.3509 30.4168 25.4016C30.4154 24.129 29.9233 22.9089 29.0485 22.009C28.1736 21.1092 26.9874 20.603 25.7502 20.6016ZM25.7502 29.0016C25.0579 29.0016 24.3812 28.7904 23.8057 28.3949C23.2301 27.9993 22.7815 27.437 22.5166 26.7792C22.2517 26.1214 22.1824 25.3976 22.3174 24.6992C22.4525 24.0009 22.7858 23.3594 23.2753 22.856C23.7648 22.3525 24.3884 22.0096 25.0673 21.8707C25.7463 21.7318 26.45 21.8031 27.0896 22.0756C27.7291 22.3481 28.2757 22.8095 28.6603 23.4015C29.0449 23.9935 29.2502 24.6896 29.2502 25.4016C29.2492 26.3561 28.8802 27.2712 28.224 27.9461C27.5678 28.621 26.6781 29.0006 25.7502 29.0016Z" fill="#00A63F"></path>
<path d="M5.66919 13.4641C5.8646 13.5583 6.0711 13.6489 6.28577 13.7365C6.42888 13.7912 6.58712 13.7859 6.72654 13.722C6.86595 13.658 6.97543 13.5403 7.03146 13.3943C7.0875 13.2482 7.08564 13.0854 7.02628 12.9407C6.96691 12.796 6.85478 12.6811 6.71394 12.6205C6.52183 12.5425 6.33846 12.4613 6.16385 12.3769C6.02369 12.3094 5.8632 12.302 5.71771 12.3562C5.57221 12.4105 5.45362 12.5219 5.38802 12.6661C5.32242 12.8103 5.31519 12.9753 5.36792 13.125C5.42065 13.2746 5.52902 13.3966 5.66919 13.4641Z" fill="#00A63F"></path>
<path d="M8.70096 14.4926C8.89735 14.5402 9.09763 14.585 9.30179 14.627C9.34019 14.635 9.37929 14.6388 9.41846 14.6384C9.56312 14.6385 9.70268 14.5834 9.81003 14.4836C9.91739 14.3839 9.98489 14.2467 9.99943 14.0987C10.014 13.9506 9.97451 13.8023 9.88871 13.6825C9.80291 13.5627 9.6769 13.48 9.53513 13.4504C9.34263 13.4108 9.15421 13.3682 8.96929 13.3244C8.89389 13.304 8.81527 13.2994 8.7381 13.3108C8.66093 13.3222 8.58676 13.3494 8.51999 13.3908C8.45322 13.4322 8.39519 13.487 8.34934 13.5518C8.30348 13.6167 8.27074 13.6903 8.25303 13.7684C8.23533 13.8465 8.23302 13.9275 8.24626 14.0065C8.25949 14.0856 8.28799 14.1611 8.33007 14.2286C8.37216 14.2961 8.42697 14.3542 8.49128 14.3996C8.55558 14.4449 8.62807 14.4765 8.70446 14.4926H8.70096Z" fill="#00A63F"></path>
</g>
<defs>
<clipPath id="clip0_832_1499">
<rect width="35" height="36" fill="white" transform="translate(3 2)"></rect>
</clipPath>
</defs>
</svg>