<svg width="51" height="50" viewBox="0 0 51 50" fill="none" xmlns="http://www.w3.org/2000/svg">
<g clip-path="url(#clip0_810_12251)">
<g clip-path="url(#clip1_810_12251)">
<path d="M41.4209 12.2021H36.6416V9.79785C36.6416 8.88086 35.9004 8.13574 34.9863 8.125V2.11621C34.9863 0.949219 34.0361 0 32.8672 0H17.1328C15.9648 0 15.0137 0.949219 15.0137 2.11621V4.49414C14.0996 4.50391 13.3584 5.25098 13.3584 6.16895V12.2021H8.58203C6.45605 12.2021 4.72754 13.9316 4.72754 16.0566V39.1904C4.72754 41.3154 6.45703 43.0449 8.58203 43.0449H19.4678L18.665 48.4346H16.4687C16.0371 48.4346 15.6865 48.7842 15.6865 49.2168C15.6865 49.6494 16.0361 49.999 16.4687 49.999H33.5352C33.9668 49.999 34.3174 49.6494 34.3174 49.2168C34.3174 48.7842 33.9678 48.4346 33.5352 48.4346H31.3359L30.5332 43.0449H41.4219C43.5459 43.0449 45.2734 41.3154 45.2734 39.1904V16.0576C45.2734 13.9316 43.5449 12.2021 41.4209 12.2021ZM17.1328 1.56445H32.8672C33.1729 1.56445 33.4219 1.8125 33.4219 2.11719V8.125H26.0938C26.0518 8.125 26.043 8.11816 26.0166 8.09277L22.7744 4.96094C22.4531 4.65527 22.0527 4.49316 21.6152 4.49316H16.5781V2.11621C16.5781 1.8125 16.8271 1.56445 17.1328 1.56445ZM14.9219 6.16895C14.9219 6.10937 14.9727 6.05664 15.0312 6.05664H21.6143C21.6436 6.05664 21.6582 6.05762 21.6914 6.08887L24.9248 9.21191C25.2412 9.52344 25.6455 9.68848 26.0938 9.68848H34.9687C35.0283 9.68848 35.0781 9.73828 35.0781 9.79785V21.6455C35.0781 21.7051 35.0283 21.7549 34.9687 21.7549H28.1348V18.5918C28.1348 17.9395 27.6035 17.4082 26.9512 17.4082H23.0479C22.3955 17.4082 21.8643 17.9395 21.8643 18.5918V21.7549H15.0312C14.9727 21.7549 14.9219 21.7041 14.9219 21.6455V6.16895ZM25.001 30.5762L21.4893 27.0645H22.2451C22.8975 27.0645 23.4287 26.5332 23.4287 25.8809V18.9727H26.5703V25.8809C26.5703 26.5332 27.1016 27.0645 27.7539 27.0645H28.5127L25.001 30.5762ZM8.58203 13.7666H13.3584V21.6465C13.3584 22.5693 14.1094 23.3203 15.0322 23.3203H21.8652V25.502H20.5684C20.0898 25.502 19.6602 25.7871 19.4756 26.2285C19.2881 26.6777 19.3916 27.1875 19.7324 27.5205L24.1592 31.9473C24.3809 32.1729 24.6777 32.2979 24.9941 32.2998H25C25.3164 32.2998 25.6133 32.1768 25.8379 31.9521L30.2695 27.5205C30.6104 27.1797 30.71 26.6729 30.5234 26.2285C30.3389 25.7871 29.9102 25.502 29.4307 25.502H28.1348V23.3203H34.9678C35.8906 23.3203 36.6416 22.5693 36.6416 21.6465V13.7666H41.4209C42.6826 13.7666 43.709 14.7939 43.709 16.0576V35.9014H6.29102V16.0576C6.29102 14.7939 7.31836 13.7666 8.58203 13.7666ZM29.7539 48.4355H20.2461L21.0488 43.0459H28.9521L29.7539 48.4355ZM41.4209 41.4814H8.58203C7.31934 41.4814 6.29102 40.4541 6.29102 39.1904V37.4648H43.709V39.1904C43.709 40.4541 42.6826 41.4814 41.4209 41.4814Z" fill="#00A63F"/>
</g>
</g>
<defs>
<clipPath id="clip0_810_12251">
<rect width="50" height="50" fill="white" transform="translate(0.5)"/>
</clipPath>
<clipPath id="clip1_810_12251">
<rect width="50" height="50" fill="white"/>
</clipPath>
</defs>
</svg>
