<svg xmlns="http://www.w3.org/2000/svg" width="53" height="53" viewBox="0 0 53 53" fill="none" class="svg replaced-svg">
<g clip-path="url(#clip0_154_100663)">
<path d="M50.9996 50.8855C50.9993 49.1914 49.9918 47.668 48.4329 47.0048L36.4753 41.9174V38.936C37.7413 37.3467 38.5419 35.4537 38.8099 33.4213H41.2544C43.5806 33.4213 45.4731 31.5287 45.4731 29.2025V23.1545C45.4731 21.0276 43.8904 19.2643 41.8411 18.9775C41.5371 9.82776 36.4215 5 27 5C17.5785 5 12.4629 9.82776 12.1589 18.9775C10.1096 19.2643 8.52686 21.0276 8.52686 23.1545V29.2025C8.52686 31.5287 10.4194 33.4213 12.7456 33.4213H15.1901C15.4581 35.4541 16.2587 37.347 17.5247 38.936V41.9174L5.5675 47.0048C4.00818 47.668 3.00073 49.1914 3 50.8859V51.593C3 51.9662 3.14795 52.324 3.41199 52.5876C3.67566 52.8513 4.03345 52.9996 4.40625 52.9996H49.5938C49.9669 52.9996 50.3247 52.8513 50.5884 52.5876C50.8521 52.3236 51 51.9658 51 51.593L50.9996 50.8855ZM33.6643 42.9039C33.6654 42.9376 33.7441 46.3507 31.7281 48.4502C30.6211 49.6027 29.0303 50.1868 27 50.1868C24.9771 50.1868 23.3903 49.6067 22.2839 48.4626C20.2438 46.3522 20.335 42.9336 20.3357 42.9039C20.3368 42.8849 20.3372 42.8662 20.3372 42.8472V41.4548C22.2627 42.6732 24.5596 43.3276 27 43.3276C29.4404 43.3276 31.7373 42.6732 33.6628 41.4548V42.8472C33.6628 42.8662 33.6632 42.8849 33.6643 42.9039ZM36.0981 31.2625L33.423 33.0463C32.5734 33.6128 31.5842 33.9124 30.5625 33.9124H28.184C27.4076 33.9124 26.7777 34.5419 26.7777 35.3186C26.7777 36.0953 27.4076 36.7249 28.184 36.7249H30.5625C32.1412 36.7249 33.6702 36.262 34.9834 35.386L35.5217 35.0271C34.2528 38.3014 31.0074 40.5151 27 40.5151C21.8134 40.5151 17.9019 36.8073 17.9019 31.8901V20.4896C18.4563 17.9122 19.2594 16.2742 20.2277 15.749C21.1919 15.2253 22.593 15.7699 23.948 16.2961C25.0038 16.7059 26.001 17.0934 27 17.0934C28.0082 17.0934 28.9933 16.7019 30.0366 16.2877C31.3931 15.7487 32.6744 15.2396 33.6237 15.7347C34.3154 16.0955 35.3016 17.2186 36.0981 20.5076V31.2625ZM42.6606 23.1545V29.2025C42.6606 29.9778 42.0297 30.6088 41.2544 30.6088H38.9106V21.7483H41.2544C42.0297 21.7483 42.6606 22.3793 42.6606 23.1545ZM17.4785 11.2574C19.426 8.97156 22.6293 7.8125 27 7.8125C31.3707 7.8125 34.574 8.97156 36.5215 11.2574C38.0548 13.0574 38.8949 15.6381 39.0249 18.9358H38.5935C37.7443 15.9197 36.5658 14.097 34.9241 13.2408C32.8326 12.1503 30.7064 12.9948 28.998 13.6737C28.2466 13.9722 27.4695 14.2809 26.9996 14.2809C26.5276 14.2809 25.7336 13.9725 24.9661 13.6744C23.1973 12.9871 20.9956 12.132 18.8859 13.2767C17.295 14.1403 16.1433 15.9973 15.3805 18.9358H14.9751C15.1047 15.6381 15.9452 13.0574 17.4785 11.2574ZM11.3394 29.2025V23.1545C11.3394 22.3793 11.9703 21.7483 12.7456 21.7483H15.0894V30.6088H12.7456C11.9703 30.6088 11.3394 29.9778 11.3394 29.2025ZM6.66833 49.5928L17.6858 44.9053C17.9326 46.4313 18.5457 48.5077 20.0486 50.1871H5.99854C6.14758 49.9268 6.37976 49.7155 6.66833 49.5928ZM33.9514 50.1871C35.4543 48.5077 36.0674 46.4313 36.3142 44.9053L47.3317 49.5928C47.6202 49.7155 47.8521 49.9268 48.0015 50.1871H33.9514Z" fill="#00A63F"></path>
</g>
<defs>
<clipPath id="clip0_154_100663">
<rect width="48" height="48" fill="white" transform="translate(3 5)"></rect>
</clipPath>
</defs>
</svg>