<svg width="80" height="80" viewBox="0 0 80 80" fill="none" xmlns="http://www.w3.org/2000/svg">
<path d="M61.496 46.2696C61.137 46.27 60.7945 46.0646 60.6357 45.7171C59.5917 43.4329 57.2951 41.9569 54.7852 41.9569H33.3178C30.8088 41.9569 28.5122 43.4329 27.4682 45.7166C27.2512 46.1911 26.6918 46.4011 26.2155 46.1837C25.7411 45.9663 25.5324 45.4056 25.7494 44.9311C27.0998 41.9758 30.0704 40.0664 33.3178 40.0664H54.7852C58.0326 40.0664 61.004 41.9758 62.3545 44.9316C62.5714 45.4065 62.3628 45.9673 61.8884 46.1842C61.761 46.2423 61.6271 46.2696 61.496 46.2696Z" fill="#03A84E"/>
<path d="M67.5829 70.087H20.5237C20.0234 70.087 19.6099 69.6975 19.5803 69.1981L18.3646 48.8218C18.2945 47.6721 18.708 46.5293 19.4991 45.6884C20.2911 44.8461 21.408 44.3633 22.5619 44.3633H65.5438C66.6976 44.3633 67.8136 44.8461 68.6056 45.6879C69.3977 46.5284 69.8112 47.6707 69.742 48.8218L68.5263 69.1981C68.4967 69.6975 68.0832 70.087 67.5829 70.087ZM21.4145 68.1966H66.6921L67.8552 48.7092C67.894 48.0667 67.6715 47.4533 67.2293 46.9835C66.7862 46.5127 66.1881 46.2538 65.5438 46.2538H22.5619C21.9176 46.2538 21.3185 46.5132 20.8763 46.9835C20.4342 47.4533 20.2126 48.0658 20.2514 48.7078L21.4145 68.1966Z" fill="#03A84E"/>
<path d="M69.1269 70.0936H10.8735C10.351 70.0936 9.92822 69.6704 9.92822 69.1484C9.92822 68.6264 10.351 68.2031 10.8735 68.2031H69.1269C69.6494 68.2031 70.0722 68.6264 70.0722 69.1484C70.0722 69.6704 69.6494 70.0936 69.1269 70.0936Z" fill="#03A84E"/>
<path d="M44.0525 62.4453C41.2241 62.4453 38.9229 60.1445 38.9229 57.3167C38.9229 54.4883 41.2241 52.1875 44.0525 52.1875C46.8808 52.1875 49.1812 54.4883 49.1812 57.3167C49.1812 60.1445 46.8808 62.4453 44.0525 62.4453ZM44.0525 54.078C42.2663 54.078 40.8133 55.5309 40.8133 57.3167C40.8133 59.1024 42.2663 60.5549 44.0525 60.5549C45.8377 60.5549 47.2907 59.1024 47.2907 57.3167C47.2907 55.5309 45.8377 54.078 44.0525 54.078Z" fill="#03A84E"/>
<path d="M44.0576 41.9619C38.6409 41.9619 34.403 36.637 32.7562 31.6902C32.1627 29.9174 31.8608 28.1686 31.8608 26.4937C31.8608 26.015 31.8821 25.5992 31.9264 25.1847C32.5541 18.6792 37.7695 13.7656 44.0576 13.7656C50.3411 13.7656 55.5529 18.6792 56.1815 25.1953C56.2249 25.6029 56.2461 26.0303 56.2461 26.4937C56.2461 28.1654 55.9443 29.9146 55.3498 31.6916C53.703 36.6375 49.4669 41.9619 44.0576 41.9619ZM44.0576 15.6561C38.748 15.6561 34.3412 19.8354 33.8067 25.3772C33.7689 25.733 33.7513 26.0843 33.7513 26.4937C33.7513 27.9641 34.0199 29.5108 34.5498 31.0911C35.9889 35.4172 39.5779 40.0714 44.0576 40.0714C48.53 40.0714 52.1171 35.4172 53.5562 31.093C54.087 29.5085 54.3556 27.9614 54.3556 26.4937C54.3556 26.0972 54.3381 25.7349 54.3012 25.3855C53.7658 19.8354 49.3626 15.6561 44.0576 15.6561Z" fill="#03A84E"/>
<path d="M59.4244 26.2203C58.9259 26.2203 58.5096 25.8307 58.4819 25.3272C58.061 17.738 51.724 11.7928 44.054 11.7928C36.3841 11.7928 30.0471 17.738 29.6261 25.3272C29.5975 25.8483 29.1692 26.2397 28.6301 26.2189C28.1095 26.1898 27.7098 25.744 27.7393 25.2229C28.2147 16.6317 35.3816 9.90234 44.054 9.90234C52.7265 9.90234 59.8933 16.6317 60.3687 25.2229C60.3983 25.744 59.9986 26.1898 59.478 26.2189C59.4595 26.2198 59.442 26.2203 59.4244 26.2203Z" fill="#03A84E"/>
<path d="M33.6539 32.3317H29.1825C27.7258 32.3317 26.5415 31.1474 26.5415 29.6912V26.9764C26.5415 25.5203 27.7258 24.3359 29.1825 24.3359H32.8665C33.1351 24.3359 33.3908 24.4499 33.5699 24.6498C33.749 24.8492 33.8348 25.1155 33.8062 25.3827C33.7693 25.728 33.7518 26.0792 33.7518 26.4886C33.7518 27.9591 34.0204 29.5057 34.5502 31.086C34.6472 31.3745 34.5992 31.6916 34.421 31.9385C34.2438 32.1854 33.9576 32.3317 33.6539 32.3317ZM29.1825 26.2264C28.7689 26.2264 28.432 26.5629 28.432 26.9764V29.6912C28.432 30.1117 28.7615 30.4413 29.1825 30.4413H32.3874C32.0376 29.0949 31.8613 27.7698 31.8613 26.4886C31.8613 26.399 31.8622 26.3118 31.8631 26.2264H29.1825Z" fill="#03A84E"/>
<path d="M58.9246 32.3317H54.4541C54.1504 32.3317 53.8642 32.1854 53.687 31.9385C53.5098 31.692 53.4608 31.375 53.5578 31.0865C54.0876 29.5034 54.3562 27.9563 54.3562 26.4886C54.3562 26.0921 54.3387 25.7298 54.3018 25.3804C54.2732 25.1141 54.3599 24.8478 54.539 24.6489C54.7181 24.4495 54.9738 24.3359 55.2415 24.3359H58.9246C60.3812 24.3359 61.5656 25.5203 61.5656 26.9764V29.6912C61.5656 31.1474 60.3812 32.3317 58.9246 32.3317ZM55.7206 30.4413H58.9246C59.3455 30.4413 59.6751 30.1117 59.6751 29.6912V26.9764C59.6751 26.5629 59.3382 26.2264 58.9246 26.2264H56.244C56.2458 26.3127 56.2467 26.4 56.2467 26.4886C56.2467 27.7684 56.0704 29.0931 55.7206 30.4413Z" fill="#03A84E"/>
<path d="M41.4418 35.901C41.428 35.901 41.4151 35.9006 41.4012 35.9001C36.4276 35.6929 34.0313 34.2007 33.9316 34.137C33.4913 33.8568 33.3611 33.2725 33.6417 32.8322C33.9223 32.3937 34.502 32.2627 34.9423 32.54C34.9913 32.5696 37.0996 33.8291 41.4806 34.0114C42.0021 34.0331 42.4074 34.4735 42.3852 34.995C42.364 35.5032 41.9458 35.901 41.4418 35.901Z" fill="#03A84E"/>
<path d="M43.8327 38.1492C41.9939 38.1492 40.4976 36.7207 40.4976 34.965C40.4976 33.2093 41.9939 31.7812 43.8327 31.7812C45.6724 31.7812 47.1687 33.2093 47.1687 34.965C47.1687 36.7207 45.6724 38.1492 43.8327 38.1492ZM43.8327 33.6717C43.0361 33.6717 42.388 34.2519 42.388 34.965C42.388 35.6785 43.0361 36.2587 43.8327 36.2587C44.6293 36.2587 45.2782 35.6785 45.2782 34.965C45.2782 34.2519 44.6293 33.6717 43.8327 33.6717Z" fill="#03A84E"/>
<path d="M43.7986 24.1453C42.9512 24.1453 42.1103 23.9971 41.3045 23.6473C37.1349 21.8403 34.0277 23.2065 33.8957 23.2656C33.424 23.4821 32.8619 23.273 32.6449 22.7999C32.428 22.3273 32.6311 21.7688 33.1028 21.5496C33.2625 21.4753 37.0749 19.7523 42.0559 21.9128C45.4122 23.3667 50.3978 19.7505 52.0391 18.2348C52.4222 17.8817 53.0194 17.9043 53.3748 18.2883C53.7293 18.6714 53.7053 19.2695 53.3222 19.624C53.0877 19.8405 48.3643 24.1448 43.7986 24.1453Z" fill="#03A84E"/>
</svg>
