<svg width="51" height="50" viewBox="0 0 51 50" fill="none" xmlns="http://www.w3.org/2000/svg">
<g clip-path="url(#clip0_809_12123)">
<path fill-rule="evenodd" clip-rule="evenodd" d="M12.3598 44.3151L12.9321 45.3264C12.9325 45.3271 12.9329 45.3277 12.9333 45.3284C13.4405 46.2307 13.1188 47.3822 12.2216 47.889L10.1336 49.0724C10.1328 49.0729 10.132 49.0733 10.1312 49.0738C9.22888 49.5811 8.07741 49.2594 7.57035 48.3617L1.43025 37.5122C0.91829 36.609 1.24005 35.4564 2.13849 34.949L4.22888 33.7655L4.22956 33.7651C5.12751 33.258 6.27937 33.5767 6.79074 34.4747L6.79172 34.4764L7.25221 35.2901L12.6814 32.1467C14.3366 31.1895 16.0285 30.5678 17.8464 31.1581C19.603 31.7277 22.4706 32.9558 25.3974 33.4847C25.432 33.4909 25.4661 33.4995 25.4996 33.5103C27.0003 33.9962 27.9117 35.5141 27.5019 37.038C27.4483 37.2378 27.3799 37.4256 27.2972 37.6004C27.5798 37.5123 27.8568 37.39 28.1297 37.231L35.5749 32.895C38.2871 31.3149 40.096 31.4928 41.1196 32.1795C42.0057 32.7741 42.4172 33.7888 42.3907 34.7852C42.364 35.7924 41.8828 36.7539 41.0929 37.2403L27.5833 45.5581C26.1513 46.4418 24.5829 46.6495 22.958 46.2159L22.9571 46.2157L13.4711 43.6734L12.3598 44.3151ZM11.566 46.0974L5.42751 35.2506C5.34211 35.1011 5.15064 35.0465 5.00104 35.1309L2.91123 36.3141L2.91055 36.3145C2.76192 36.3984 2.71025 36.5894 2.79486 36.7387L2.79515 36.7391L8.93554 47.5891L8.93584 47.5897C9.02025 47.739 9.21202 47.7907 9.36202 47.7066L11.4481 46.5243L11.4492 46.5237C11.5985 46.4394 11.6503 46.2475 11.566 46.0974ZM11.5872 42.9499L12.9681 42.1525C13.1483 42.0485 13.3624 42.0202 13.5633 42.0742L23.3625 44.7003C24.5556 45.0186 25.7081 44.8721 26.7594 44.2232L26.7602 44.2228L40.2703 35.9047C40.6361 35.6795 40.8103 35.21 40.8226 34.7436C40.8373 34.1913 40.6069 33.6062 40.0229 33.3633C39.2549 33.0437 38.0763 33.2531 36.3645 34.2503L28.9195 38.5863C27.7163 39.2875 26.4554 39.4816 25.0812 39.2629C25.0803 39.2627 25.0795 39.2626 25.0786 39.2625L24.1556 39.1123C24.1553 39.1122 20.8816 38.2532 19.1516 37.7883C18.7336 37.6759 18.4853 37.2453 18.5977 36.8273C18.7101 36.4093 19.1406 36.161 19.5587 36.2734C21.2461 36.7268 22.7672 37.2242 24.4053 37.5629C25.2104 37.6513 25.8018 37.321 25.987 36.631L25.9871 36.6306C26.1746 35.9339 25.7372 35.2595 25.0608 35.0178C22.0758 34.4694 19.1543 33.2312 17.3623 32.6501L17.362 32.6501C15.9834 32.2024 14.722 32.7787 13.4668 33.5046L8.02486 36.6553L11.5872 42.9499ZM4.6826 36.3698C5.15643 36.2992 5.59653 36.6264 5.66702 37.1003C5.73476 37.5743 5.40751 38.0171 4.93358 38.0848C4.45976 38.1553 4.01966 37.8252 3.94917 37.3514C3.88143 36.8775 4.20868 36.4374 4.6826 36.3698ZM9.39319 10.8496C13.9264 10.8496 17.6003 14.5236 17.6003 19.0568C17.6003 23.59 13.9264 27.264 9.39319 27.264C4.86005 27.264 1.18604 23.59 1.18604 19.0568C1.18604 14.5236 4.86005 10.8496 9.39319 10.8496ZM14.9275 22.7248C15.6253 21.6739 16.0317 20.4129 16.0317 19.0568C16.0317 15.39 13.06 12.4182 9.39319 12.4182C5.72643 12.4182 2.75466 15.39 2.75466 19.0568C2.75466 20.4129 3.16113 21.6739 3.85888 22.7248C4.43505 21.2976 5.54672 20.1441 6.94456 19.5136C6.3527 18.9001 5.98751 18.0668 5.98751 17.1519C5.98751 15.2782 7.51947 13.7462 9.39319 13.7462C11.267 13.7462 12.799 15.2782 12.799 17.1519C12.799 18.0668 12.4338 18.9001 11.8418 19.5136C13.2398 20.1441 14.3514 21.2976 14.9275 22.7248ZM5.07858 24.1024C6.23888 25.0955 7.74594 25.6953 9.39319 25.6953C11.0405 25.6953 12.5475 25.0955 13.7079 24.1024C13.3104 22.0819 11.5292 20.5577 9.39319 20.5577C7.25731 20.5577 5.47604 22.0819 5.07858 24.1024ZM9.39319 18.9891C10.404 18.9891 11.2303 18.1627 11.2303 17.1519C11.2303 16.1412 10.404 15.3149 9.39319 15.3149C8.38251 15.3149 7.55613 16.1412 7.55613 17.1519C7.55613 18.1627 8.38251 18.9891 9.39319 18.9891ZM27.5672 2.05015C28.021 2.18691 28.4599 2.36868 28.8778 2.59328L29.719 2.21926C30.0155 2.0874 30.3627 2.15181 30.5922 2.38132L32.0118 3.80093C32.241 4.03015 32.3056 4.37672 32.1744 4.67319C32.1744 4.67319 31.8016 5.51466 31.8015 5.51466C32.0265 5.93328 32.2086 6.37289 32.3454 6.82828L33.203 7.15838C33.5058 7.27495 33.7056 7.56593 33.7056 7.89034V9.89838C33.7056 10.2229 33.5058 10.5139 33.203 10.6304L32.345 10.9606C32.2078 11.4145 32.0253 11.8533 31.8012 12.2713L32.1744 13.1136C32.3056 13.41 32.241 13.7566 32.0118 13.9858L30.5922 15.4054C30.363 15.6347 30.0164 15.6993 29.72 15.568C29.72 15.568 28.8789 15.1954 28.8789 15.1953C28.4611 15.42 28.0214 15.602 27.5669 15.7388L27.2368 16.5966C27.1202 16.8995 26.8293 17.0993 26.5048 17.0993H24.4967C24.1723 17.0993 23.8813 16.8995 23.7648 16.5966L23.4347 15.7389C22.9795 15.6017 22.5402 15.4191 22.1218 15.1949L21.2796 15.568C20.9831 15.6993 20.6365 15.6347 20.4073 15.4054L18.9877 13.9858C18.7582 13.7563 18.6938 13.4092 18.8256 13.1126L19.1995 12.2719C18.975 11.8545 18.793 11.415 18.6553 10.9609L17.7965 10.6304C17.4937 10.5139 17.2939 10.2229 17.2939 9.89838V7.89034C17.2939 7.56593 17.4937 7.27495 17.7965 7.15838C17.7965 7.15838 18.6552 6.82789 18.6551 6.82799C18.7928 6.37289 18.9749 5.93358 19.1996 5.51534L18.8256 4.67417C18.6938 4.3776 18.7582 4.03044 18.9877 3.80093L20.4073 2.38132C20.6368 2.15181 20.984 2.0874 21.2805 2.21926C21.2805 2.21926 22.1217 2.59328 22.1216 2.59328C22.5399 2.36858 22.9789 2.18672 23.433 2.04995L23.7651 1.18946C23.8817 0.88701 24.1725 0.6875 24.4967 0.6875H26.5048C26.8295 0.6875 27.1205 0.8875 27.2369 1.19054L27.5672 2.05015ZM26.2458 2.98466L25.9659 2.25613H25.0348L24.7532 2.98574C24.6602 3.22681 24.4543 3.40662 24.2029 3.46642C23.629 3.60279 23.0816 3.82956 22.5786 4.13956C22.3582 4.27534 22.0851 4.29368 21.8485 4.18848L21.1355 3.87142L20.4778 4.52917L20.7949 5.24211C20.9001 5.47868 20.8817 5.75181 20.7459 5.97221C20.4355 6.47583 20.2087 7.02387 20.0703 7.60015C20.0102 7.85113 19.8303 8.05642 19.5895 8.14917L18.8625 8.42887V9.35985L19.5895 9.63966C19.8302 9.7323 20.0099 9.9373 20.0703 10.1881C20.2085 10.7623 20.4351 11.3119 20.7453 11.8135C20.8816 12.0341 20.9002 12.3077 20.7949 12.5447L20.4778 13.2576L21.1361 13.9158L21.8495 13.5999C22.0852 13.4954 22.3571 13.5136 22.5769 13.6482C23.0804 13.9567 23.6281 14.1857 24.2044 14.3222C24.4562 14.3819 24.6625 14.5621 24.7555 14.8037L25.0353 15.5306H25.9662L26.246 14.8037C26.339 14.5623 26.545 14.3822 26.7966 14.3224C27.3702 14.1861 27.919 13.9597 28.4199 13.65C28.6401 13.5138 28.9133 13.495 29.1501 13.5999L29.8634 13.9158L30.5222 13.257L30.2062 12.5437C30.1018 12.308 30.12 12.036 30.2546 11.8162C30.5632 11.3127 30.7922 10.7649 30.9288 10.1902C30.9886 9.93858 31.1687 9.7326 31.4101 9.63966L32.137 9.35985V8.42887L31.4101 8.14917C31.1685 8.05613 30.9883 7.84985 30.9286 7.59799C30.7923 7.0224 30.5655 6.47515 30.2556 5.97221C30.1201 5.75211 30.1016 5.47946 30.2062 5.24309L30.5222 4.52976L29.864 3.87142L29.151 4.18848C28.9145 4.29368 28.6413 4.27534 28.4209 4.13956C27.9179 3.82956 27.3705 3.60279 26.7966 3.46642C26.5449 3.40652 26.3387 3.22632 26.2458 2.98466ZM25.4998 4.60662C27.8683 4.60662 29.7886 6.52485 29.7886 8.89338C29.7886 11.2618 27.8682 13.1822 25.4998 13.1822C23.1312 13.1822 21.213 11.2619 21.213 8.89338C21.213 6.52475 23.1311 4.60662 25.4998 4.60662ZM25.4998 6.17525C23.9979 6.17525 22.7816 7.39152 22.7816 8.89338C22.7816 10.3954 23.9977 11.6136 25.4998 11.6136C27.0019 11.6136 28.22 10.3955 28.22 8.89338C28.22 7.39132 27.0018 6.17525 25.4998 6.17525ZM41.6076 27.264C37.0881 27.264 33.4017 23.5776 33.4017 19.0581C33.4017 14.5386 37.0881 10.8522 41.6076 10.8522C46.1271 10.8522 49.8135 14.5386 49.8135 19.0581C49.8135 23.5776 46.1271 27.264 41.6076 27.264ZM41.6076 25.6953C45.2632 25.6953 48.2449 22.7137 48.2449 19.0581C48.2449 15.4025 45.2632 12.4208 41.6076 12.4208C37.952 12.4208 34.9704 15.4025 34.9704 19.0581C34.9704 22.7137 37.952 25.6953 41.6076 25.6953ZM40.8233 14.724V14.3632C40.8233 13.9303 41.1748 13.5789 41.6076 13.5789C42.0404 13.5789 42.3919 13.9303 42.3919 14.3632V14.715C43.2788 14.9196 44.0944 15.4939 44.5171 16.5013C44.6847 16.9005 44.4965 17.3605 44.0974 17.5281C43.6983 17.6955 43.2382 17.5075 43.0707 17.1083C42.695 16.2129 41.69 16.035 40.9696 16.3184C40.5652 16.4775 40.2356 16.7995 40.2592 17.2741L40.2593 17.276C40.2765 17.6419 40.5184 17.8475 40.8011 17.9855C41.0904 18.1268 41.4253 18.2052 41.7411 18.2567L41.7425 18.2569C43.09 18.4788 44.5608 19.1 44.7535 20.7017C44.9416 22.2552 43.706 23.1645 42.3919 23.4168V23.7554C42.3919 24.1883 42.0404 24.5398 41.6076 24.5398C41.1748 24.5398 40.8233 24.1883 40.8233 23.7554V23.4052C39.7136 23.1672 38.7616 22.4296 38.4668 21.2454C38.3623 20.8253 38.6185 20.3995 39.0385 20.295C39.4586 20.1903 39.8845 20.4465 39.9891 20.8665C40.177 21.6219 40.9462 21.9387 41.6849 21.9203H41.6866C42.0884 21.9112 42.5361 21.8131 42.8656 21.5859C43.0849 21.4348 43.2349 21.2088 43.1962 20.8901L43.1961 20.8893C43.1455 20.468 42.8549 20.2399 42.5214 20.0885C42.1983 19.9416 41.8311 19.8612 41.489 19.805C40.1677 19.5898 38.7664 18.9168 38.6924 17.3501C38.6335 16.1477 39.3703 15.2618 40.3953 14.8587C40.5335 14.8043 40.6766 14.7593 40.8233 14.724ZM26.2841 25.2237C26.2841 25.6565 25.9326 26.008 25.4998 26.008C25.0669 26.008 24.7154 25.6565 24.7154 25.2237V19.8888C24.7154 19.4559 25.0669 19.1045 25.4998 19.1045C25.9326 19.1045 26.2841 19.4559 26.2841 19.8888V25.2237ZM28.3502 28.1425C28.0107 28.4111 27.517 28.3536 27.2485 28.0141C26.9799 27.6746 27.0374 27.1809 27.3769 26.9123L31.9612 23.2852C32.3006 23.0166 32.7944 23.0742 33.0629 23.4137C33.3315 23.7531 33.274 24.2468 32.9345 24.5153L28.3502 28.1425ZM23.6226 26.9123C23.9621 27.1809 24.0197 27.6746 23.751 28.0141C23.4825 28.3536 22.9888 28.4111 22.6494 28.1425L18.0651 24.5153C17.7255 24.2468 17.668 23.7531 17.9366 23.4137C18.2052 23.0742 18.6989 23.0166 19.0383 23.2852L23.6226 26.9123Z" fill="#00A63F"/>
</g>
<defs>
<clipPath id="clip0_809_12123">
<rect width="50" height="50" fill="white" transform="translate(0.5)"/>
</clipPath>
</defs>
</svg>
