<svg xmlns="http://www.w3.org/2000/svg" width="41" height="40" viewBox="0 0 41 40" fill="none" class="svg replaced-svg">
<g clip-path="url(#clip0_815_16267)">
<path d="M36.1445 1.17188H4.85469C3.10859 1.17188 1.6875 2.59297 1.6875 4.33984V26.1016V29.207C1.6875 30.2133 2.50625 31.0328 3.51328 31.0328H12.1164L11.1969 35.568H9.49531C8.59609 35.568 7.86484 36.2992 7.86484 37.1984C7.86484 38.0977 8.59609 38.8281 9.49531 38.8281H31.5047C32.4039 38.8281 33.1352 38.0969 33.1352 37.1977C33.1352 36.2984 32.4039 35.5672 31.5047 35.5672H29.775L28.5016 31.032H37.4867C38.493 31.032 39.3125 30.2133 39.3125 29.2062V26.1008V4.33984C39.3125 2.59297 37.8914 1.17188 36.1445 1.17188ZM4.85469 2.10938H36.1445C37.375 2.10938 38.375 3.11016 38.375 4.33984V25.6328H2.625V4.33984C2.625 3.11016 3.625 2.10938 4.85469 2.10938ZM32.1977 37.1977C32.1977 37.5797 31.8867 37.8906 31.5047 37.8906H9.49531C9.11328 37.8906 8.80234 37.5797 8.80234 37.1977C8.80234 36.8156 9.11328 36.5047 9.49531 36.5047H31.5047C31.8867 36.5047 32.1977 36.8156 32.1977 37.1977ZM28.8016 35.5672H12.1531L13.0727 31.032H27.5281L28.8016 35.5672ZM38.375 29.2062C38.375 29.6961 37.9766 30.0945 37.4867 30.0945H3.51328C3.02344 30.0945 2.625 29.6961 2.625 29.2062V26.5695H38.375V29.2062ZM5.32734 12.1828C5.06875 12.1828 4.85859 12.393 4.85859 12.6516V18.6867C4.85859 18.9453 5.06875 19.1555 5.32734 19.1555H7.78984C8.04844 19.1555 8.25859 18.9453 8.25859 18.6867V12.6516C8.25859 12.393 8.04844 12.1828 7.78984 12.1828H5.32734ZM7.32109 18.218H5.79609V13.1203H7.32109V18.218ZM9.73047 10.2008C9.47188 10.2008 9.26172 10.4109 9.26172 10.6695V18.6867C9.26172 18.9453 9.47188 19.1555 9.73047 19.1555H12.193C12.4516 19.1555 12.6617 18.9453 12.6617 18.6867V10.6695C12.6617 10.4109 12.4516 10.2008 12.193 10.2008H9.73047ZM11.7242 18.218H10.1992V11.1383H11.7242V18.218ZM14.0516 13.8711C13.793 13.8711 13.5828 14.0813 13.5828 14.3398V18.6859C13.5828 18.9445 13.793 19.1547 14.0516 19.1547H16.5141C16.7727 19.1547 16.9828 18.9445 16.9828 18.6859V14.3398C16.9828 14.0813 16.7727 13.8711 16.5141 13.8711H14.0516ZM16.0453 18.218H14.5203V14.8094H16.0453V18.218ZM20.6703 10.6664H18.2078C17.9492 10.6664 17.7391 10.8766 17.7391 11.1352V18.6859C17.7391 18.9445 17.9492 19.1547 18.2078 19.1547H20.6703C20.9289 19.1547 21.1391 18.9445 21.1391 18.6859V11.1352C21.1391 10.8766 20.9289 10.6664 20.6703 10.6664ZM20.2016 18.218H18.6766V11.6047H20.2016V18.218ZM4.63281 10.9289C4.47891 10.7211 4.52266 10.4273 4.73047 10.2734L10.6477 5.89297C10.8313 5.75703 11.0867 5.77344 11.2516 5.93203L15.4086 9.93828L20.6164 6.15625L19.5742 6.02266C19.3172 5.98984 19.1359 5.75469 19.1688 5.49766C19.2016 5.24063 19.4367 5.06016 19.6938 5.09219L21.9313 5.37969C22.1883 5.4125 22.3695 5.64766 22.3367 5.90469L22.0492 8.14219C22.0187 8.37891 21.8172 8.55156 21.5852 8.55156C21.5656 8.55156 21.5453 8.55 21.525 8.54766C21.268 8.51484 21.0867 8.27969 21.1195 8.02266L21.2719 6.83828L15.6414 10.9266C15.4578 11.0602 15.2047 11.0422 15.0406 10.8844L10.8867 6.88047L5.28828 11.025C5.20469 11.0867 5.10703 11.1172 5.01016 11.1172C4.86641 11.1188 4.72422 11.0531 4.63281 10.9289ZM4.2 21.1523C4.2 20.8938 4.41016 20.6836 4.66875 20.6836H21.3289C21.5875 20.6836 21.7977 20.8938 21.7977 21.1523C21.7977 21.4109 21.5875 21.6211 21.3289 21.6211H4.66875C4.41016 21.6211 4.2 21.4109 4.2 21.1523ZM30.1898 15.857C28.9281 15.857 27.9016 16.8836 27.9016 18.1453C27.9016 19.407 28.9281 20.4336 30.1898 20.4336C31.4516 20.4336 32.4781 19.407 32.4781 18.1453C32.4781 16.8836 31.4516 15.857 30.1898 15.857ZM30.1898 19.4961C29.4445 19.4961 28.8391 18.8898 28.8391 18.1453C28.8391 17.4 29.4453 16.7945 30.1898 16.7945C30.9352 16.7945 31.5406 17.4008 31.5406 18.1453C31.5406 18.8906 30.9344 19.4961 30.1898 19.4961ZM35.1383 16.7031H34.3336C34.2781 16.5438 34.2133 16.3875 34.1398 16.2352L34.7094 15.6656C35.0336 15.3414 35.0336 14.8141 34.7094 14.4898L33.8461 13.6266C33.6891 13.4695 33.4805 13.3836 33.2578 13.3836C33.0352 13.3836 32.8266 13.4703 32.6695 13.6266L32.1 14.1961C31.9484 14.1227 31.7914 14.0578 31.632 14.0023V13.1977C31.632 12.7391 31.2594 12.3664 30.8008 12.3664H29.5797C29.1211 12.3664 28.7484 12.7391 28.7484 13.1977V14.0023C28.5891 14.0578 28.4328 14.1227 28.2805 14.1961L27.7109 13.6266C27.5539 13.4695 27.3453 13.3836 27.1227 13.3836C26.9 13.3836 26.6914 13.4703 26.5344 13.6266L25.6711 14.4898C25.3469 14.8141 25.3469 15.3414 25.6711 15.6656L26.2406 16.2352C26.1672 16.3867 26.1023 16.5438 26.0469 16.7031H25.2422C24.7836 16.7031 24.4102 17.0766 24.4102 17.5352V18.7563C24.4102 19.2148 24.7836 19.5875 25.2422 19.5875H26.0469C26.1023 19.7469 26.1672 19.9031 26.2406 20.0555L25.6711 20.625C25.3469 20.9492 25.3469 21.4766 25.6711 21.8008L26.5344 22.6641C26.6914 22.8211 26.9 22.9078 27.1227 22.9078C27.3453 22.9078 27.5539 22.8211 27.7109 22.6641L28.2805 22.0945C28.4328 22.168 28.5891 22.2336 28.7484 22.2883V23.093C28.7484 23.5516 29.1211 23.9242 29.5797 23.9242H30.8008C31.2594 23.9242 31.632 23.5508 31.632 23.093V22.2883C31.7914 22.2328 31.9477 22.168 32.1 22.0945L32.6695 22.6641C32.8266 22.8211 33.0352 22.9078 33.2578 22.9078C33.4805 22.9078 33.6891 22.8211 33.8461 22.6641L34.7094 21.8008C35.0336 21.4766 35.0336 20.9492 34.7094 20.625L34.1398 20.0555C34.2133 19.9031 34.2781 19.7469 34.3336 19.5875H35.1383C35.5969 19.5875 35.9695 19.2148 35.9695 18.7563V17.5352C35.9695 17.0766 35.5969 16.7031 35.1383 16.7031ZM35.032 18.65H34.257C33.8969 18.65 33.5797 18.8797 33.4672 19.2219C33.4133 19.3852 33.3469 19.5461 33.2688 19.7C33.1055 20.0219 33.168 20.4094 33.4227 20.6641L33.9711 21.2125L33.257 21.9266L32.7086 21.3781C32.4539 21.1234 32.0664 21.0617 31.7445 21.2242C31.5906 21.3023 31.4297 21.3687 31.2664 21.4227C30.9242 21.5352 30.6945 21.8523 30.6945 22.2125V22.9875H29.6852V22.2125C29.6852 21.8523 29.4555 21.5352 29.1133 21.4227C28.95 21.3687 28.7891 21.3023 28.6352 21.2242C28.3133 21.0609 27.9266 21.1234 27.6711 21.3781L27.1227 21.9266L26.4086 21.2125L26.957 20.6641C27.2117 20.4094 27.2734 20.0219 27.1109 19.7C27.0328 19.5461 26.9664 19.3852 26.9125 19.2219C26.8 18.8797 26.4828 18.65 26.1227 18.65H25.3477V17.6406H26.1227C26.4828 17.6406 26.8 17.4109 26.9125 17.0687C26.9664 16.9047 27.0328 16.7438 27.1109 16.5898C27.2734 16.268 27.2117 15.8812 26.957 15.6258L26.4086 15.0773L27.1227 14.3633L27.6711 14.9117C27.9258 15.1664 28.3133 15.2281 28.6352 15.0656C28.7891 14.9875 28.95 14.9211 29.1141 14.8672C29.4563 14.7547 29.6859 14.4375 29.6859 14.0773V13.3023H30.6953V14.0773C30.6953 14.4375 30.925 14.7547 31.2672 14.8672C31.4305 14.9211 31.5914 14.9875 31.7453 15.0656C32.0672 15.2289 32.4547 15.1672 32.7094 14.9117L33.2578 14.3633L33.9719 15.0773L33.4234 15.6258C33.1688 15.8805 33.1063 16.268 33.2695 16.5898C33.3477 16.7438 33.4141 16.9047 33.468 17.0687C33.5805 17.4109 33.8977 17.6406 34.2578 17.6406H35.0328V18.65H35.032ZM26.6375 11.9914C28.3242 11.9914 29.6961 10.6195 29.6961 8.93281C29.6961 7.24609 28.3242 5.87422 26.6375 5.87422C24.9508 5.87422 23.5789 7.24609 23.5789 8.93281C23.5789 10.6187 24.9508 11.9914 26.6375 11.9914ZM26.6375 6.81094C27.807 6.81094 28.7586 7.7625 28.7586 8.93203C28.7586 10.1016 27.807 11.0531 26.6375 11.0531C25.468 11.0531 24.5164 10.1016 24.5164 8.93203C24.5164 7.7625 25.468 6.81094 26.6375 6.81094ZM33.7414 11.9914C35.4281 11.9914 36.8 10.6195 36.8 8.93281C36.8 7.24609 35.4281 5.87422 33.7414 5.87422C32.0547 5.87422 30.6828 7.24609 30.6828 8.93281C30.6828 10.6187 32.0547 11.9914 33.7414 11.9914ZM33.7414 6.81094C34.9109 6.81094 35.8625 7.7625 35.8625 8.93203C35.8625 10.1016 34.9109 11.0531 33.7414 11.0531C32.5719 11.0531 31.6203 10.1016 31.6203 8.93203C31.6203 7.7625 32.5719 6.81094 33.7414 6.81094ZM32.3469 9.16875C32.1641 8.98594 32.1641 8.68906 32.3469 8.50547C32.5297 8.32266 32.8266 8.32266 33.0102 8.50547L33.4508 8.94609L34.4734 7.92344C34.6563 7.74062 34.9531 7.74062 35.1367 7.92344C35.3195 8.10625 35.3195 8.40313 35.1367 8.58672L33.782 9.94141C33.6938 10.0289 33.575 10.0789 33.4508 10.0789C33.3266 10.0789 33.207 10.0297 33.1195 9.94141L32.3469 9.16875ZM25.507 9.40078L25.975 8.93281L25.507 8.46484C25.3242 8.28203 25.3242 7.98516 25.507 7.80156C25.6898 7.61875 25.9867 7.61875 26.1703 7.80156L26.6383 8.26953L27.1063 7.80156C27.2891 7.61875 27.5859 7.61875 27.7695 7.80156C27.9523 7.98438 27.9523 8.28125 27.7695 8.46484L27.3016 8.93281L27.7695 9.40078C27.9523 9.58359 27.9523 9.88047 27.7695 10.0641C27.6781 10.1555 27.5578 10.2016 27.4383 10.2016C27.318 10.2016 27.1984 10.1555 27.107 10.0641L26.6391 9.59609L26.1711 10.0641C26.0797 10.1555 25.9594 10.2016 25.8398 10.2016C25.7203 10.2016 25.6 10.1555 25.5086 10.0641C25.3234 9.88047 25.3234 9.58359 25.507 9.40078Z" fill="#00A63F"></path>
</g>
<defs>
<clipPath id="clip0_815_16267">
<rect width="40" height="40" fill="white" transform="translate(0.5)"></rect>
</clipPath>
</defs>
</svg>