<svg xmlns="http://www.w3.org/2000/svg" width="40" height="40" viewBox="0 0 40 40" fill="none" class="svg replaced-svg">
<g clip-path="url(#clip0_842_5684)">
<path d="M15.0649 34.1208C14.7782 34.0005 14.4448 34.1362 14.3261 34.4235L13.0413 35.7083C12.96 35.794 12.8666 35.8347 12.7364 35.7006C12.4815 35.4457 12.1464 35.3051 11.7932 35.3051C11.0456 35.3051 10.4375 35.911 10.4375 36.6553C10.4375 36.7784 10.3414 36.8745 10.2183 36.8745H8.40668C8.28363 36.8745 8.1875 36.7784 8.1875 36.6553C8.1875 35.911 7.57941 35.3051 6.83179 35.3051C6.47858 35.3051 6.14349 35.4457 5.88477 35.7039C5.77545 35.816 5.69196 35.8176 5.57605 35.7006L4.2912 34.4158C4.24286 34.3696 4.23297 34.3081 4.23297 34.2647C4.23297 34.2312 4.24066 34.1675 4.29889 34.1109C4.55377 33.856 4.6944 33.5209 4.6944 33.1677C4.6944 32.4201 4.0885 31.812 3.34418 31.812C3.22113 31.812 3.125 31.7159 3.125 31.5928V29.7812C3.125 29.6581 3.22113 29.562 3.34418 29.562C4.0885 29.562 4.6944 28.9539 4.6944 28.2063C4.6944 27.8531 4.55377 27.518 4.29559 27.2593C4.24011 27.2049 4.23187 27.1406 4.23187 27.1071C4.23187 27.0731 4.24011 27.0088 4.29889 26.9506L5.18768 26.0618C5.40741 25.842 5.40741 25.4861 5.18768 25.2664C4.96796 25.0466 4.612 25.0466 4.39227 25.2664L3.50677 26.1513C3.24915 26.4051 3.10687 26.7446 3.10687 27.1071C3.10687 27.4691 3.24915 27.8086 3.50348 28.0585C3.55786 28.1129 3.5694 28.1689 3.5694 28.2063C3.5694 28.2953 3.50842 28.437 3.34418 28.437C2.60315 28.437 2 29.0402 2 29.7812V31.5928C2 32.3339 2.60315 32.937 3.34418 32.937C3.50842 32.937 3.5694 33.0787 3.5694 33.1677C3.5694 33.2051 3.55786 33.2611 3.51062 33.3083C3.25079 33.5588 3.10797 33.8989 3.10797 34.2647C3.10797 34.6349 3.25134 34.9766 3.50348 35.2189L4.77679 36.4927C5.28381 37.0074 6.18359 37.0052 6.68402 36.496C6.7384 36.4417 6.79443 36.4301 6.83179 36.4301C6.92078 36.4301 7.0625 36.4911 7.0625 36.6553C7.0625 37.3964 7.66565 37.9995 8.40668 37.9995H10.2183C10.9594 37.9995 11.5625 37.3964 11.5625 36.6553C11.5625 36.4911 11.7042 36.4301 11.7932 36.4301C11.8306 36.4301 11.8866 36.4417 11.9338 36.4889C12.4376 37.0118 13.3632 36.997 13.8444 36.496L15.1215 35.2189C15.1957 35.1447 15.3022 35.0272 15.3726 34.8569C15.4918 34.5701 15.3517 34.2394 15.0649 34.1208Z" fill="#00A63F"></path>
<path d="M7.15149 28.7976C6.88068 28.6427 6.539 28.7356 6.38354 29.0053C6.09186 29.5128 5.9375 30.094 5.9375 30.6862C5.9375 32.5473 7.45142 34.0612 9.3125 34.0612C10.0283 34.0612 10.716 33.8376 11.3016 33.4146C11.5532 33.2328 11.6097 32.8812 11.4279 32.6291C11.2455 32.377 10.8951 32.3204 10.6424 32.5028C10.2502 32.7862 9.78986 32.9362 9.3125 32.9362C8.07159 32.9362 7.0625 31.9271 7.0625 30.6862C7.0625 30.2907 7.16522 29.9034 7.35913 29.5656C7.51404 29.2964 7.4212 28.9525 7.15149 28.7976Z" fill="#00A63F"></path>
<path d="M36.3125 2H21.6875C20.757 2 20 2.75696 20 3.6875V13.8125C20 14.0201 20.1143 14.2108 20.2972 14.3085C20.3801 14.353 20.4713 14.375 20.5625 14.375C20.6718 14.375 20.7806 14.3431 20.8745 14.2805L24.1078 12.125H36.3125C37.243 12.125 38 11.368 38 10.4375V3.6875C38 2.75696 37.243 2 36.3125 2ZM36.875 10.4375C36.875 10.7479 36.6229 11 36.3125 11H23.9375C23.8265 11 23.7178 11.033 23.6255 11.0945L21.125 12.7617V3.6875C21.125 3.37714 21.3771 3.125 21.6875 3.125H36.3125C36.6229 3.125 36.875 3.37714 36.875 3.6875V10.4375Z" fill="#00A63F"></path>
<path d="M24.5 4.8125H23.375C23.0641 4.8125 22.8125 5.06409 22.8125 5.375V8.75C22.8125 9.06091 23.0641 9.3125 23.375 9.3125H24.5C25.7409 9.3125 26.75 8.30341 26.75 7.0625C26.75 5.82159 25.7409 4.8125 24.5 4.8125ZM24.5 8.1875H23.9375V5.9375H24.5C25.1202 5.9375 25.625 6.44232 25.625 7.0625C25.625 7.68268 25.1202 8.1875 24.5 8.1875Z" fill="#00A63F"></path>
<path d="M30.6875 4.81283C30.3766 4.81283 30.125 5.06441 30.125 5.37533V6.89254L28.9055 5.06331C28.7682 4.85677 28.5106 4.76449 28.2744 4.837C28.037 4.90896 27.875 5.12758 27.875 5.37533V8.75033C27.875 9.06124 28.1266 9.31283 28.4375 9.31283C28.7484 9.31283 29 9.06124 29 8.75033V7.23311L30.2195 9.06234C30.3255 9.22164 30.5029 9.31283 30.6875 9.31283C30.7419 9.31283 30.7968 9.30514 30.8506 9.28866C31.088 9.2167 31.25 8.99807 31.25 8.75033V5.37533C31.25 5.06441 30.9984 4.81283 30.6875 4.81283Z" fill="#00A63F"></path>
<path d="M33.7812 5.9375H34.625C34.9359 5.9375 35.1875 5.68591 35.1875 5.375C35.1875 5.06409 34.9359 4.8125 34.625 4.8125H33.7812C33.0056 4.8125 32.375 5.44312 32.375 6.21875C32.375 6.99438 33.0056 7.625 33.7812 7.625C33.9362 7.625 34.0625 7.75134 34.0625 7.90625C34.0625 8.06116 33.9362 8.1875 33.7812 8.1875H32.9375C32.6266 8.1875 32.375 8.43909 32.375 8.75C32.375 9.06091 32.6266 9.3125 32.9375 9.3125H33.7812C34.5569 9.3125 35.1875 8.68188 35.1875 7.90625C35.1875 7.13062 34.5569 6.5 33.7812 6.5C33.6263 6.5 33.5 6.37366 33.5 6.21875C33.5 6.06384 33.6263 5.9375 33.7812 5.9375Z" fill="#00A63F"></path>
<path d="M31.0435 12.9666C30.8875 12.6985 30.543 12.6078 30.2744 12.7644C30.0058 12.921 29.9157 13.2654 30.0723 13.5334C30.4386 14.1613 30.743 14.8211 30.9961 15.5H25.6185C25.408 14.6912 25.1417 13.9002 24.8153 13.1313C24.6934 12.8446 24.3605 12.7133 24.0776 12.8331C23.7914 12.955 23.6579 13.2852 23.7793 13.5708C24.0459 14.1984 24.2664 14.8432 24.4503 15.5H13.3086C14.2733 12.0554 16.3271 9.02129 19.2029 6.95703C19.4012 6.81476 19.4853 6.56042 19.4106 6.32751C19.3359 6.09515 19.1194 5.9375 18.875 5.9375C11.1208 5.9375 4.8125 12.2458 4.8125 20C4.8125 27.7536 11.1203 34.062 18.8739 34.0625H18.8761C26.6297 34.062 32.9375 27.7536 32.9375 20C32.9375 17.4386 32.2034 14.9532 31.0435 12.9666ZM31.3636 16.625C31.6597 17.7186 31.8125 18.8537 31.8125 20C31.8125 21.168 31.6506 22.2979 31.3591 23.375H25.8618C26.0733 22.2752 26.1875 21.1463 26.1875 20C26.1875 18.849 26.0792 17.7223 25.8706 16.625H31.3636ZM24.7257 16.625C24.9487 17.7192 25.0625 18.8466 25.0625 20C25.0625 21.1486 24.9394 22.2779 24.7135 23.375H13.0365C12.8106 22.2779 12.6875 21.1486 12.6875 20C12.6875 18.8513 12.8112 17.7221 13.0371 16.625H24.7257ZM5.9375 20C5.9375 18.832 6.09938 17.7021 6.39089 16.625H11.8882C11.6767 17.7248 11.5625 18.8537 11.5625 20C11.5625 21.1463 11.6767 22.2752 11.8882 23.375H6.39089C6.09938 22.2979 5.9375 21.168 5.9375 20ZM17.1397 7.17841C14.7105 9.37409 12.9792 12.278 12.1386 15.5H6.75104C8.38931 11.1008 12.3507 7.82317 17.1397 7.17841ZM6.75104 24.5H12.1386C12.9792 27.722 14.7105 30.6259 17.1397 32.8216C12.3508 32.1768 8.38934 28.8992 6.75104 24.5ZM18.875 32.8007C16.1702 30.7447 14.2338 27.8125 13.3063 24.5H24.4437C23.5162 27.8125 21.5798 30.7447 18.875 32.8007ZM20.6103 32.8216C23.0395 30.6259 24.7708 27.722 25.6114 24.5H30.999C29.3607 28.8992 25.3992 32.1768 20.6103 32.8216Z" fill="#00A63F"></path>
</g>
<defs>
<clipPath id="clip0_842_5684">
<rect width="36" height="36" fill="white" transform="translate(2 2)"></rect>
</clipPath>
</defs>
</svg>