<svg width="599" height="386" viewBox="0 0 599 386" fill="none" xmlns="http://www.w3.org/2000/svg">
<path d="M57.8398 210.02C55.8495 207.602 54.8769 204.433 54.9655 201.318C55.0294 199.081 55.8078 193.94 58.8192 193.814C59.5243 193.785 60.209 194.034 60.8631 194.302C64.5259 195.796 67.8856 197.94 70.9915 200.374C72.5339 201.582 74.0183 202.864 75.4652 204.185C76.8295 205.43 78.1853 207.224 79.7378 208.185C81.763 204.547 84.6339 201.172 87.05 197.752C89.6423 194.084 92.2185 190.403 94.7768 186.709C94.9829 186.411 95.2001 186.104 95.5152 185.925C96.1701 185.554 96.9877 185.857 97.6707 186.174C99.6286 187.08 101.547 188.07 103.421 189.141C101.204 193.659 98.6313 198.004 95.7349 202.12C94.3348 204.11 92.7184 205.956 91.4938 208.056C90.1303 210.394 88.7643 212.729 87.4034 215.068C86.2647 217.02 84.9609 219.114 82.8335 219.88C81.1285 220.493 79.2405 220.113 77.487 219.657C73.7398 218.683 70.0786 217.384 66.5298 215.835C63.3039 214.427 60.0753 212.737 57.8398 210.02Z" fill="#FFCC99"/>
<path d="M77.0303 219.436C76.6266 219.58 76.2272 219.087 76.2928 218.663C76.3575 218.238 76.7032 217.92 77.0388 217.652C79.9693 215.321 83.8195 214.18 87.5471 214.537C86.8462 216.744 85.1651 218.619 83.0479 219.557C80.9307 220.494 78.4125 220.477 76.3072 219.513" fill="#C29E7A"/>
<path d="M80.3484 212.429C80.4114 212.561 80.4838 212.694 80.5979 212.786C80.712 212.878 80.8764 212.921 81.0084 212.857C81.2051 212.762 81.2358 212.495 81.2196 212.276C81.1625 211.473 80.8602 210.718 80.5723 209.975C80.4276 209.601 80.2811 209.226 80.1687 208.839C80.0861 208.556 80.075 208.211 79.9583 207.949C79.7548 208.438 79.8306 209.207 79.834 209.727C79.8391 210.648 79.9481 211.587 80.3484 212.429Z" fill="#C29E7A"/>
<path d="M80.3058 370.516C80.5757 369.33 80.8636 368.107 81.5875 367.129C83.0497 365.156 85.9623 364.75 88.2881 365.537C90.6148 366.324 92.4875 368.045 94.2606 369.744C96.0346 371.443 97.8477 373.208 100.128 374.119C101.743 374.765 103.52 374.949 105.104 375.664C106.689 376.379 108.136 377.896 107.946 379.625C107.899 380.061 101.086 380.557 100.374 380.621C97.7685 380.855 95.154 380.977 92.5386 380.988C89.9573 380.999 87.376 380.903 84.8032 380.699C83.5343 380.598 82.2671 380.471 81.0024 380.317C79.9864 380.194 78.4126 380.402 78.3019 379.3C78.1792 378.077 79.0062 376.217 79.2821 375.007C79.6236 373.51 79.9643 372.013 80.3058 370.516Z" fill="#13DCF2"/>
<path d="M78.7954 376.984C83.7945 377.978 88.9554 377.321 94.0499 377.489C98.5014 377.635 102.984 378.412 107.381 377.707" stroke="#351B6B" stroke-width="0.425817" stroke-miterlimit="10" stroke-linecap="round" stroke-linejoin="round"/>
<path d="M91.2222 369.352C90.8432 369.415 90.4685 369.633 90.3178 369.986C90.167 370.34 90.3178 370.822 90.6806 370.948C91.0033 371.06 91.35 370.877 91.6301 370.682C92.6376 369.98 93.4901 369.015 94.6407 368.588C95.0179 368.447 95.4437 368.372 95.821 368.512C96.1991 368.652 96.4964 369.062 96.3967 369.452C96.3124 369.783 95.9769 370.001 95.6396 370.052C95.3024 370.103 94.9609 370.021 94.6296 369.94C93.4841 369.66 92.4026 369.352 91.2222 369.352Z" stroke="#351B6B" stroke-width="0.425817" stroke-miterlimit="10" stroke-linecap="round" stroke-linejoin="round"/>
<path d="M93.1113 371.447C94.4143 370.843 95.9183 370.685 97.3175 371.007" stroke="#351B6B" stroke-width="0.425817" stroke-miterlimit="10" stroke-linecap="round" stroke-linejoin="round"/>
<path d="M94.1245 372.628C95.5834 372.1 97.1819 371.962 98.7097 372.234" stroke="#351B6B" stroke-width="0.425817" stroke-miterlimit="10" stroke-linecap="round" stroke-linejoin="round"/>
<path d="M95.4907 373.649C96.5995 373.052 97.894 372.805 99.1451 372.951" stroke="#351B6B" stroke-width="0.425817" stroke-miterlimit="10" stroke-linecap="round" stroke-linejoin="round"/>
<path d="M72.1853 251.844C81.7304 289.903 90.0347 329.049 92.6356 368.122C90.0671 367.894 87.2286 368.475 84.7265 368.041C81.9544 367.561 81.4698 365.316 80.3167 362.915C77.101 356.222 74.0538 349.419 71.8779 342.307C69.2148 333.604 67.882 324.359 69.2404 315.36C69.65 312.65 70.2768 309.755 69.128 307.266C68.2806 305.43 66.6029 304.143 65.0444 302.857C57.6318 296.735 51.6857 288.891 47.6412 280.178C45.5888 275.757 44.0227 271.108 43.0024 266.339C42.4897 263.943 42.2308 261.539 41.8876 259.118C41.5708 256.881 40.5335 255.347 39.8633 253.215C40.0072 253.673 40.1511 254.131 40.2951 254.589" fill="#281450"/>
<path d="M51.5459 255.402C55.3731 270.368 59.5538 286.001 70.04 297.344C71.6087 299.041 73.3426 300.678 74.2564 302.801C75.3661 305.378 75.1166 308.306 74.9565 311.108C74.3842 321.079 75.2009 331.128 77.3606 340.879C78.3536 345.364 80.211 349.434 81.3088 353.803C82.4985 358.535 83.5988 363.292 84.6634 368.055" stroke="#46248F" stroke-width="0.851633" stroke-miterlimit="10"/>
<path d="M30.3548 370.525C30.6588 369.347 30.9807 368.133 31.7327 367.177C33.2503 365.246 36.1731 364.925 38.4768 365.777C40.7796 366.631 42.6021 368.405 44.3267 370.154C46.0512 371.903 47.8132 373.719 50.0667 374.695C51.6618 375.386 53.4323 375.621 54.9959 376.382C56.5595 377.142 57.963 378.701 57.7228 380.423C57.6624 380.857 50.8391 381.158 50.1254 381.201C47.5152 381.36 44.8972 381.407 42.2827 381.344C39.7023 381.281 37.1252 381.11 34.5593 380.833C33.2937 380.695 32.0308 380.532 30.7712 380.342C29.7595 380.19 28.1805 380.351 28.1013 379.249C28.0136 378.023 28.8933 376.186 29.2033 374.985C29.5866 373.499 29.9707 372.012 30.3548 370.525Z" fill="#13DCF2"/>
<path d="M40.9417 370.714C40.6487 370.911 40.3788 371.216 40.4018 371.569C40.4307 372.021 40.9468 372.311 41.3982 372.27C41.8495 372.229 42.2421 371.958 42.6169 371.703C43.6703 370.985 44.7758 370.316 45.991 369.932C46.4364 369.792 46.9074 369.689 47.3681 369.763C47.8289 369.836 48.2802 370.114 48.4514 370.548C48.5553 370.81 48.5349 371.143 48.3262 371.333C48.0716 371.565 47.6747 371.495 47.3409 371.411C46.1162 371.103 44.8933 370.788 43.6678 370.486C42.8706 370.288 41.606 370.05 40.9417 370.714Z" stroke="#351B6B" stroke-width="0.425817" stroke-miterlimit="10" stroke-linecap="round" stroke-linejoin="round"/>
<path d="M44.1431 373.011C44.746 372.693 45.4393 372.573 46.1214 372.567C46.8036 372.561 47.4815 372.663 48.1568 372.765" stroke="#351B6B" stroke-width="0.425817" stroke-miterlimit="10" stroke-linecap="round" stroke-linejoin="round"/>
<path d="M45.8867 373.841C46.9632 373.65 48.0575 373.559 49.151 373.567" stroke="#351B6B" stroke-width="0.425817" stroke-miterlimit="10" stroke-linecap="round" stroke-linejoin="round"/>
<path d="M47.4678 374.967C48.3594 374.681 49.292 374.523 50.2279 374.5" stroke="#351B6B" stroke-width="0.425817" stroke-miterlimit="10" stroke-linecap="round" stroke-linejoin="round"/>
<path d="M28.5435 377.234C37.8927 378.77 47.3935 379.374 56.862 379.034" stroke="#351B6B" stroke-width="0.425817" stroke-miterlimit="10" stroke-linecap="round" stroke-linejoin="round"/>
<path d="M55.9989 251.958C55.6293 263.938 54.9795 275.911 54.0503 287.86C52.881 302.896 51.9238 306.167 49.6797 329.437C49.6516 329.731 48.9175 336.456 47.4493 349.903C47.1989 352.199 46.7816 355.98 46.0032 360.962C45.4429 364.547 44.8885 367.526 44.472 369.638C42.5848 369.052 40.1312 368.481 37.2306 368.275C35.4541 368.148 33.778 368.424 32.0186 368.209C30.8271 358.43 29.634 348.601 29.9985 338.756C30.363 328.911 32.3575 318.964 37.1812 310.375C37.986 308.94 38.8938 307.459 38.9074 305.814C38.9219 304.077 37.9366 302.513 37.0449 301.022C32.3039 293.097 29.3581 284.127 28.3378 274.955C27.8277 270.368 27.7987 265.727 28.2671 261.136C28.6989 256.912 29.8648 253.868 31.4539 250.051" fill="#351B6B"/>
<path d="M38.1499 254.934C36.9755 266.474 37.7445 278.21 40.4152 289.5C41.3878 293.61 42.615 297.692 42.896 301.906C43.3014 307.984 41.7216 313.994 40.4229 319.946C36.9763 335.743 36.1979 351.586 35.4868 367.642" stroke="#46248F" stroke-width="0.851633" stroke-miterlimit="10"/>
<path d="M48.2953 260.431C44.4638 260.425 40.6263 260.094 36.8646 259.353C35.491 259.082 34.1309 258.68 32.7794 258.316C31.3605 257.934 28.7094 257.841 28.333 256.116C28.0298 254.726 28.7511 253.607 29.1974 252.385C29.6649 251.103 29.8489 249.691 30.2875 248.387C31.1595 245.793 32.322 243.309 33.5007 240.845C35.8018 236.034 38.3005 231.14 38.86 225.757C39.3531 221.011 38.292 216.26 37.9079 211.504C37.5238 206.749 37.9454 201.595 40.9184 197.864C43.0756 195.157 46.4574 193.302 49.617 192.007C52.8881 190.666 56.9777 191.961 60.0955 193.292C69.5248 197.319 71.9059 207.548 70.5961 216.855C70.0077 221.035 68.9934 225.16 68.7098 229.372C68.0779 238.747 71.0782 247.944 74.0401 256.862C74.0401 256.862 70.115 257.573 69.7956 257.647C67.8334 258.104 65.8619 258.522 63.881 258.888C59.8392 259.635 55.7522 260.166 51.6447 260.356C50.5282 260.407 49.4118 260.433 48.2953 260.431Z" fill="#13DCF2"/>
<path d="M39.6453 217.79C41.7633 222.369 44.681 226.524 47.6157 230.628C49.1768 232.811 50.8792 235.093 53.3694 236.094C56.1414 237.208 59.2729 236.496 62.171 235.77C64.404 235.211 66.6642 234.642 68.6851 233.54C69.22 233.249 69.7914 232.833 69.8382 232.226C69.8876 231.589 69.3392 231.083 68.8401 230.684C61.5025 224.817 54.1656 218.949 46.828 213.082C43.6224 210.519 40.2363 207.729 38.6702 203.814C38.0297 202.213 37.6133 202.176 37.0435 203.925C36.4159 205.851 36.6859 207.869 37.0452 209.821C37.5511 212.577 38.47 215.25 39.6453 217.79Z" fill="#0EA5B5"/>
<path d="M60.9476 196.252C60.9212 196.905 60.8999 197.357 60.8965 197.357C57.22 196.947 53.6082 195.952 50.2409 194.421C49.7299 194.188 49.1865 193.906 48.9549 193.395C48.7863 193.022 48.8161 192.593 48.8501 192.185C49.161 188.407 49.4795 184.631 49.7835 180.853C49.838 180.179 49.7248 179.621 49.6967 178.966C49.6583 178.087 49.8372 177.151 49.9019 176.273C50.0365 174.449 50.1548 172.624 50.3039 170.802C50.4546 168.952 52.3572 167.148 54.3193 167.507C55.9834 167.811 56.9815 169.501 57.6288 171.065C59.447 175.459 60.0389 179.923 60.5345 184.642C60.7739 186.921 60.9595 189.206 61.0915 191.494C61.1128 191.881 61.0123 194.664 60.9476 196.252Z" fill="#FFCC99"/>
<path d="M61.1598 192.8C58.8382 192.394 56.9195 191.16 55.384 189.373C53.8485 187.584 52.9569 185.255 52.9058 182.898C52.9313 182.932 52.9569 182.965 52.9833 182.997C53.8511 184.09 55.0485 184.904 56.3634 185.36C57.0217 185.588 57.7107 185.728 58.4065 185.768C58.7539 185.787 59.1023 185.783 59.4489 185.752C59.6822 185.732 60.1404 185.527 60.3209 185.7C60.418 185.794 60.4581 185.93 60.493 186.061C60.791 187.177 60.9861 188.322 61.0772 189.474C61.1632 190.584 61.0908 191.692 61.1598 192.8Z" fill="#C29E7A"/>
<path d="M72.4268 178.837C72.7461 180.903 72.6448 183.158 71.4755 184.959C70.5098 186.448 68.941 187.376 67.254 187.832C63.2973 188.903 57.9695 188.02 54.8763 185.312C54.5536 185.03 54.2427 184.733 53.9463 184.423C50.8225 181.16 49.3586 176.52 49.4514 172.003C49.5195 168.707 50.3967 165.374 52.3146 162.693C54.2325 160.012 57.2532 158.049 60.538 157.776C63.2104 157.555 66.0123 158.551 67.8586 160.515C69.4435 162.201 70.2159 164.869 70.8325 167.058C71.909 170.882 72.3323 174.875 72.4268 178.837Z" fill="#FFCC99"/>
<path d="M31.0066 148.646C28.6331 150.24 27.2313 152.982 26.6403 155.779C26.0493 158.576 26.1736 161.467 26.2664 164.324C26.3592 167.181 26.412 170.084 25.6856 172.848C25.1814 174.768 24.2991 176.579 23.1452 178.19C22.5865 178.971 21.952 179.856 21.1992 180.462C20.5571 180.978 19.8885 181.244 19.3384 181.909C22.0636 183.174 24.4473 184.416 26.4683 186.738C27.4119 187.823 28.2192 189.028 28.8579 190.318C29.1764 190.962 29.4524 191.626 29.6823 192.307C29.7598 192.538 30.3713 194.136 30.2069 194.286C34.586 190.109 37.1903 184.129 37.267 178.078C37.3462 171.794 34.8338 165.602 35.539 159.357C35.7025 157.91 36.0704 156.418 37.0362 155.329C37.8359 154.426 39.1491 153.871 40.3507 154.167C41.4681 154.442 42.2916 155.748 43.4566 155.718C44.3934 155.695 45.0305 154.623 44.9095 153.694C44.7886 152.765 44.1354 151.998 43.4456 151.365C40.6624 148.813 37.7907 146.642 33.7599 147.498C32.7797 147.705 31.8378 148.089 31.0066 148.646Z" fill="#351B6B"/>
<path d="M44.0679 159.931C43.4573 158.502 42.69 156.935 41.8682 155.618C41.8665 155.656 41.8656 155.694 41.8639 155.733C41.7183 154.838 42.0002 153.884 42.6074 153.211C43.2154 152.538 44.1361 152.162 45.0405 152.216C46.1629 153.304 47.276 154.508 48.3985 155.595" fill="#13DCF2"/>
<path d="M57.8459 166.529C57.874 166.133 57.8859 165.736 57.897 165.345C57.9097 164.895 57.8459 164.459 57.7445 164.013C57.6849 163.749 57.5503 162.793 57.3153 162.647C59.4214 163.952 61.7932 164.821 64.2391 165.21C65.4782 165.407 66.7369 165.481 67.9905 165.426C69.0559 165.379 70.3938 165.249 71.3238 164.685C72.9343 163.708 72.3339 160.851 71.7735 159.468C71.0436 157.668 69.7176 156.12 68.1268 155.02C65.6272 153.291 62.569 152.56 59.55 152.209C57.0394 151.917 54.4751 151.867 52.0028 152.395C49.5314 152.924 47.1459 154.064 45.4026 155.894C43.5222 157.87 42.4926 160.532 42.0429 163.222C41.6376 165.651 41.6699 168.125 41.7466 170.579C41.8156 172.776 42.0966 174.899 43.1228 176.892C44.2955 179.168 46.445 181.049 48.9821 181.392C49.6787 181.486 50.4443 181.447 51.0013 181.017C51.6928 180.483 51.8631 179.517 51.8853 178.644C51.9176 177.378 51.7499 176.105 51.9057 174.848C52.0616 173.591 52.616 172.294 53.7137 171.663C54.3508 171.297 55.1079 171.189 55.7517 170.835C56.6604 170.335 57.2523 169.383 57.5427 168.387C57.7198 167.785 57.8024 167.159 57.8459 166.529Z" fill="#351B6B"/>
<path d="M61.7234 173.3C61.6961 173.514 61.6407 173.729 61.519 173.907C61.3972 174.085 61.2022 174.22 60.9867 174.23C60.7295 174.241 60.4953 174.075 60.3309 173.877C59.9545 173.423 59.8481 172.806 59.8148 172.217C59.8012 171.973 59.7978 171.722 59.8727 171.489C59.9468 171.256 60.1121 171.039 60.3437 170.96C61.3946 170.597 61.8017 172.683 61.7234 173.3Z" fill="#351B6B"/>
<path d="M61.9575 168.454C61.2924 168.01 60.3965 167.933 59.6658 168.258C58.9351 168.585 58.3934 169.302 58.2793 170.094" stroke="#351B6B" stroke-width="0.425817" stroke-miterlimit="10" stroke-linecap="round" stroke-linejoin="round"/>
<path d="M69.8503 171.871C69.823 172.084 69.7677 172.299 69.6459 172.477C69.5241 172.655 69.3291 172.79 69.1136 172.801C68.8564 172.812 68.6222 172.646 68.4579 172.447C68.0815 171.993 67.975 171.376 67.9418 170.787C67.9282 170.543 67.9248 170.293 67.9997 170.059C68.0746 169.826 68.239 169.61 68.4707 169.53C69.5224 169.168 69.9287 171.253 69.8503 171.871Z" fill="#351B6B"/>
<path d="M66.2871 167.71C66.6882 167.171 67.3184 166.808 67.9861 166.734C68.6538 166.659 69.3496 166.871 69.8597 167.308" stroke="#351B6B" stroke-width="0.425817" stroke-miterlimit="10" stroke-linecap="round" stroke-linejoin="round"/>
<path d="M67.7453 181.784C66.5257 182.18 65.1776 182.169 63.964 181.755C62.7504 181.341 61.6774 180.524 60.9552 179.465C60.7644 179.184 60.5907 178.845 60.6844 178.519C62.638 179.393 65.0132 179.257 66.8536 178.164C66.8544 179.435 67.1517 180.661 67.7453 181.784Z" fill="white"/>
<path d="M67.1652 173.551C67.6157 173.892 68.1079 174.188 68.4903 174.604C68.8727 175.021 69.1376 175.599 69.0073 176.148C68.9119 176.549 68.6138 176.885 68.2493 177.077C67.4232 177.512 66.3467 177.201 65.6927 176.534C65.0386 175.867 64.744 174.924 64.629 173.996C64.5421 173.295 64.5447 172.587 64.5473 171.881C64.5481 171.661 64.5498 171.435 64.6282 171.229C64.732 170.958 65.0787 170.668 65.3759 170.866C65.5965 171.014 65.5675 171.402 65.645 171.633C65.9073 172.417 66.5205 173.062 67.1652 173.551Z" fill="#F2862C"/>
<path d="M52.1718 170.596C51.4088 169.453 49.9252 168.688 48.6299 169.147C47.4487 169.564 46.7793 170.823 46.4829 172.04C46.201 173.198 46.1576 174.433 46.5119 175.57C46.8661 176.707 47.6462 177.735 48.7202 178.251C49.7941 178.766 51.1592 178.706 52.1045 177.982C54.002 176.529 53.3207 172.316 52.1718 170.596Z" fill="#FFCC99"/>
<path d="M50.5401 171.748C50.4533 171.61 50.3417 171.469 50.1833 171.431C49.9644 171.38 49.7558 171.546 49.6178 171.723C49.2175 172.233 49.0779 172.916 49.1426 173.561C49.2073 174.207 49.4611 174.82 49.7805 175.385C49.9167 175.626 50.0726 175.869 50.3093 176.013C50.5452 176.157 50.8816 176.172 51.0784 175.979C51.3177 175.744 51.2436 175.33 51.0511 175.056C50.8578 174.782 50.5725 174.584 50.3732 174.314C50.1876 174.063 50.0854 173.758 50.0402 173.449C49.9976 173.158 50.0045 172.861 50.0411 172.57C50.0538 172.472 50.0777 172.361 50.162 172.311C50.2702 172.247 50.4166 172.325 50.472 172.437C50.5282 172.549 50.5197 172.681 50.5146 172.807C50.5069 172.99 50.5299 173.337 50.7811 173.361C50.9625 173.378 50.9898 173.247 51.0009 173.089C51.0341 172.637 50.7735 172.118 50.5401 171.748Z" fill="#573C20"/>
<path d="M135.867 213.224H91.0602C90.3933 213.224 89.8525 212.683 89.8525 212.016C89.8525 211.349 90.3933 210.809 91.0602 210.809H135.867C136.534 210.809 137.075 211.349 137.075 212.016C137.075 212.683 136.534 213.224 135.867 213.224Z" fill="#351B6B"/>
<path d="M122.245 184.078H91.0611C90.3943 184.078 89.8535 184.619 89.8535 185.286V209.601C89.8535 210.268 90.3943 210.808 91.0611 210.808H122.245C122.911 210.808 123.452 210.268 123.452 209.601V185.286C123.452 184.619 122.911 184.078 122.245 184.078Z" fill="#46248F"/>
<path d="M93.8384 208.233V186.654C93.8384 186.163 94.2361 185.766 94.7266 185.766H121.021C121.511 185.766 121.909 186.163 121.909 186.654V208.232C121.909 208.722 121.511 209.12 121.021 209.12H94.7266C94.2361 209.121 93.8384 208.723 93.8384 208.233Z" fill="white"/>
<path d="M119.021 189.773H97.5982C96.962 189.773 96.4468 189.257 96.4468 188.621V188.542C96.4468 187.906 96.962 187.391 97.5982 187.391H119.021C119.657 187.391 120.172 187.906 120.172 188.542V188.621C120.172 189.257 119.657 189.773 119.021 189.773Z" fill="#46248F"/>
<path d="M118.462 206.74H114.665C114 206.74 113.46 206.2 113.46 205.535V193.74C113.46 193.074 114 192.535 114.665 192.535H118.462C119.128 192.535 119.668 193.074 119.668 193.74V205.535C119.668 206.2 119.128 206.74 118.462 206.74Z" fill="#13DCF2"/>
<path d="M117.854 195.964H115.643C115.251 195.964 114.934 195.646 114.934 195.255C114.934 194.864 115.252 194.547 115.643 194.547H117.854C118.246 194.547 118.563 194.865 118.563 195.255C118.563 195.647 118.246 195.964 117.854 195.964Z" fill="white"/>
<path d="M117.854 198.804H115.643C115.251 198.804 114.934 198.486 114.934 198.095C114.934 197.704 115.252 197.387 115.643 197.387H117.854C118.246 197.387 118.563 197.704 118.563 198.095C118.563 198.486 118.246 198.804 117.854 198.804Z" fill="white"/>
<path d="M117.854 201.636H115.643C115.251 201.636 114.934 201.318 114.934 200.927C114.934 200.536 115.252 200.219 115.643 200.219H117.854C118.246 200.219 118.563 200.536 118.563 200.927C118.563 201.318 118.246 201.636 117.854 201.636Z" fill="white"/>
<path d="M117.854 204.472H115.643C115.251 204.472 114.934 204.154 114.934 203.763C114.934 203.371 115.252 203.055 115.643 203.055H117.854C118.246 203.055 118.563 203.372 118.563 203.763C118.563 204.155 118.246 204.472 117.854 204.472Z" fill="white"/>
<path d="M109.956 206.74H106.158C105.492 206.74 104.953 206.2 104.953 205.535V193.74C104.953 193.074 105.492 192.535 106.158 192.535H109.956C110.622 192.535 111.162 193.074 111.162 193.74V205.535C111.162 206.2 110.622 206.74 109.956 206.74Z" fill="#F2D06B"/>
<path d="M109.348 195.964H107.137C106.745 195.964 106.428 195.646 106.428 195.255C106.428 194.864 106.746 194.547 107.137 194.547H109.348C109.74 194.547 110.057 194.865 110.057 195.255C110.057 195.647 109.739 195.964 109.348 195.964Z" fill="white"/>
<path d="M109.348 198.804H107.137C106.745 198.804 106.428 198.486 106.428 198.095C106.428 197.704 106.746 197.387 107.137 197.387H109.348C109.74 197.387 110.057 197.704 110.057 198.095C110.057 198.486 109.739 198.804 109.348 198.804Z" fill="white"/>
<path d="M109.348 201.636H107.137C106.745 201.636 106.428 201.318 106.428 200.927C106.428 200.536 106.746 200.219 107.137 200.219H109.348C109.74 200.219 110.057 200.536 110.057 200.927C110.057 201.318 109.739 201.636 109.348 201.636Z" fill="white"/>
<path d="M109.348 204.472H107.137C106.745 204.472 106.428 204.154 106.428 203.763C106.428 203.371 106.746 203.055 107.137 203.055H109.348C109.74 203.055 110.057 203.372 110.057 203.763C110.057 204.155 109.739 204.472 109.348 204.472Z" fill="white"/>
<path d="M101.45 206.74H97.6518C96.9867 206.74 96.4468 206.2 96.4468 205.535V193.74C96.4468 193.074 96.9859 192.535 97.6518 192.535H101.45C102.115 192.535 102.655 193.074 102.655 193.74V205.535C102.654 206.2 102.115 206.74 101.45 206.74Z" fill="#9A8DF2"/>
<path d="M100.842 195.964H98.6304C98.2387 195.964 97.9219 195.646 97.9219 195.255C97.9219 194.864 98.2395 194.547 98.6304 194.547H100.842C101.234 194.547 101.551 194.865 101.551 195.255C101.551 195.647 101.233 195.964 100.842 195.964Z" fill="white"/>
<path d="M100.842 198.804H98.6304C98.2387 198.804 97.9219 198.486 97.9219 198.095C97.9219 197.704 98.2395 197.387 98.6304 197.387H100.842C101.234 197.387 101.551 197.704 101.551 198.095C101.551 198.486 101.233 198.804 100.842 198.804Z" fill="white"/>
<path d="M100.842 201.636H98.6304C98.2387 201.636 97.9219 201.318 97.9219 200.927C97.9219 200.536 98.2395 200.219 98.6304 200.219H100.842C101.234 200.219 101.551 200.536 101.551 200.927C101.551 201.318 101.233 201.636 100.842 201.636Z" fill="white"/>
<path d="M100.842 204.472H98.6304C98.2387 204.472 97.9219 204.154 97.9219 203.763C97.9219 203.371 98.2395 203.055 98.6304 203.055H100.842C101.234 203.055 101.551 203.372 101.551 203.763C101.551 204.155 101.233 204.472 100.842 204.472Z" fill="white"/>
<path d="M37.3926 207.934C38.4835 211.773 41.1977 214.916 43.9604 217.797C47.6062 221.597 51.476 225.184 55.5426 228.532C60.6822 232.763 63.6016 234.429 66.7373 234.778C68.886 235.018 71.7602 234.782 82.0718 228.778C85.8607 226.571 90.8232 223.487 96.4474 219.421C95.8785 217.542 95.3105 215.663 94.7416 213.785C86.123 216.588 77.5045 219.392 68.886 222.195C65.2529 217.804 61.5892 213.43 58.0149 208.995C54.9413 205.182 51.3806 201.512 47.1778 198.948C44.9278 197.576 41.1065 196.324 39.0796 198.633C36.9156 201.099 36.5213 204.869 37.3926 207.934Z" fill="#FFCC99"/>
<path d="M67.7608 227.615C67.7821 227.91 67.8732 228.273 68.1619 228.336C68.3323 228.372 68.5111 228.277 68.6167 228.138C68.7223 227.999 68.7683 227.825 68.7998 227.654C69.1354 225.852 68.1935 223.913 68.8535 222.203C68.5554 222.976 68.1722 223.696 67.9831 224.554C67.7634 225.557 67.6867 226.591 67.7608 227.615Z" fill="#C29E7A"/>
<path d="M68.1296 230.618C68.6082 230.724 69.0672 230.964 69.3772 231.343C69.6881 231.722 69.8328 232.248 69.7 232.72C69.2861 231.945 68.5026 231.379 67.6373 231.228C66.7389 231.071 65.9068 231.376 65.2008 231.914C65.1821 230.782 67.381 230.453 68.1296 230.618Z" fill="#C29E7A"/>
<path d="M97.6134 213.237C98.8253 213.277 100.024 213.547 101.228 213.741C103.479 214.103 105.764 214.193 108.015 213.832C109.028 213.669 110.039 213.414 111.059 213.452C112.079 213.489 113.137 213.856 113.864 214.764C114.123 215.088 114.345 215.555 114.226 215.99C114.127 216.349 113.82 216.559 113.522 216.601C113.224 216.644 112.925 216.554 112.628 216.499C111.185 216.227 109.722 216.735 108.358 217.392C106.995 218.049 105.667 218.864 104.24 219.246C102.761 219.643 101.419 219.713 99.8975 219.71C99.0629 219.708 98.2283 219.706 97.3937 219.705C97.1348 219.704 95.3276 219.487 95.2238 219.7C95.4588 219.225 95.2459 218.582 94.9299 218.19C94.6131 217.799 94.2018 217.538 93.9122 217.115C93.1373 215.983 93.6031 214.526 94.5058 213.892C95.4665 213.218 96.5378 213.202 97.6134 213.237Z" fill="#FFCC99"/>
<path d="M109.367 215.916C108.32 216.028 107.395 216.622 106.515 217.2C106.429 217.256 106.339 217.316 106.285 217.404C106.232 217.492 106.227 217.619 106.301 217.69C106.412 217.798 106.596 217.716 106.729 217.635C107.61 217.09 108.591 216.712 109.606 216.511C110.119 216.408 110.641 216.352 111.163 216.342C111.56 216.334 112.031 216.447 112.414 216.36C111.438 216.13 110.38 215.808 109.367 215.916Z" fill="#C29E7A"/>
<path d="M104.486 184.898C104.936 185.354 105.57 185.624 106.211 185.631C106.852 185.639 107.492 185.383 107.953 184.938C108.264 185.267 108.716 185.459 109.17 185.455C109.624 185.45 110.071 185.249 110.376 184.912C110.899 185.172 111.444 185.436 112.029 185.452C112.613 185.468 113.25 185.162 113.424 184.604C113.553 184.189 113.404 183.736 113.187 183.36C112.756 182.613 112.044 182.033 111.226 181.762C110.408 181.49 109.491 181.53 108.7 181.871C107.79 181.091 106.295 181.114 105.411 181.923C105.031 181.565 104.486 181.391 103.969 181.461C103.452 181.53 102.972 181.844 102.701 182.289C102.147 181.718 101.175 181.69 100.499 182.11C99.8664 182.503 99.3494 183.339 99.335 184.091C99.7948 184.13 100.326 184.027 100.778 184.135C101.258 184.249 101.472 184.742 101.829 185.032C102.213 185.344 102.717 185.485 103.208 185.456C103.338 185.447 104.613 185.027 104.486 184.898Z" fill="#FFCC99"/>
<path d="M103.894 183.398C104.226 183.827 104.466 184.345 104.474 184.887C104.664 184.303 104.566 183.632 104.216 183.127C103.984 182.793 103.645 182.536 103.265 182.394C103.169 182.358 103.071 182.329 102.97 182.308C102.893 182.292 102.788 182.247 102.826 182.357C102.853 182.435 103.007 182.518 103.069 182.57C103.163 182.65 103.255 182.73 103.345 182.812C103.543 182.994 103.729 183.186 103.894 183.398Z" fill="#C29E7A"/>
<path d="M107.154 183.105C107.594 183.641 107.872 184.308 107.942 184.998C108.155 184.275 107.886 183.464 107.369 182.915C106.903 182.421 106.141 182.006 105.453 181.953C105.716 182.112 106.032 182.187 106.299 182.355C106.622 182.558 106.912 182.812 107.154 183.105Z" fill="#C29E7A"/>
<path d="M109.953 183.222C110.299 183.728 110.518 184.341 110.459 184.95C110.692 184.319 110.621 183.583 110.271 183.009C109.965 182.509 109.313 181.976 108.697 181.969C109.169 182.324 109.617 182.729 109.953 183.222Z" fill="#C29E7A"/>
<path d="M291.777 194.814V149.762" stroke="#13DCF2" stroke-width="1.70327" stroke-miterlimit="10"/>
<path d="M284.384 159.23L291.777 149.762L298.262 159.23" stroke="#13DCF2" stroke-width="1.70327" stroke-miterlimit="10"/>
<path d="M310.194 151.051V194.816" stroke="#13DCF2" stroke-width="1.70327" stroke-miterlimit="10"/>
<path d="M317.587 185.348L310.194 194.816L303.709 185.348" stroke="#13DCF2" stroke-width="1.70327" stroke-miterlimit="10"/>
<path d="M428.475 91.5156H485.377C489.791 91.5156 493.368 95.0933 493.368 99.5065V171.462" stroke="#13DCF2" stroke-width="1.70327" stroke-miterlimit="10"/>
<path d="M435.909 85.5391L428.475 91.5184L435.909 97.7157" stroke="#13DCF2" stroke-width="1.70327" stroke-miterlimit="10"/>
<path d="M508.814 182.286V87.0065C508.814 82.5933 505.236 79.0156 500.823 79.0156H430.856" stroke="#13DCF2" stroke-width="1.70327" stroke-miterlimit="10"/>
<path d="M514.794 174.852L508.815 182.285L502.617 174.852" stroke="#13DCF2" stroke-width="1.70327" stroke-miterlimit="10"/>
<path d="M169.279 101.992H120.893C116.48 101.992 112.902 105.57 112.902 109.983V152.131" stroke="#13DCF2" stroke-width="1.70327" stroke-miterlimit="10"/>
<path d="M161.846 96.0156L169.279 101.995L161.846 108.192" stroke="#13DCF2" stroke-width="1.70327" stroke-miterlimit="10"/>
<path d="M97.4561 162.959V97.487C97.4561 93.0738 101.034 89.4961 105.447 89.4961H169.279" stroke="#13DCF2" stroke-width="1.70327" stroke-miterlimit="10"/>
<path d="M91.4761 155.523L97.4562 162.957L103.653 155.523" stroke="#13DCF2" stroke-width="1.70327" stroke-miterlimit="10"/>
<path d="M233.503 383.535C229.619 372.938 221.174 364.101 210.764 359.741C200.353 355.38 188.132 355.559 177.854 360.224C175.485 352.435 166.543 347.883 158.459 348.842C150.375 349.8 143.373 355.255 138.665 361.895C133.957 368.536 131.201 376.328 128.501 384.008" fill="#F2D06B"/>
<path d="M467.443 382.132C466.046 373.067 463.158 363.912 457.047 357.073C450.935 350.233 441.063 346.208 432.315 348.963C430.2 337.854 419.86 329.499 408.741 327.438C397.622 325.377 386.067 328.723 376.214 334.273C366.687 339.64 357.815 348.009 356.236 358.829C347.399 355.498 337.208 355.943 328.695 360.031C320.182 364.118 313.463 371.792 310.535 380.77" fill="#F2D06B"/>
<path d="M349.346 290.043H334.004V298.339H349.346V290.043Z" fill="#9A8DF2"/>
<path d="M349.346 344.648H334.004V352.944H349.346V344.648Z" fill="#9A8DF2"/>
<path d="M270.042 320.082H254.7V328.378H270.042V320.082Z" fill="#9A8DF2"/>
<path d="M329.145 211.438H274.381C270.037 211.438 266.515 214.959 266.515 219.304V365.053C266.515 369.398 270.037 372.919 274.381 372.919H329.145C333.49 372.919 337.012 369.398 337.012 365.053V219.304C337.012 214.96 333.491 211.438 329.145 211.438Z" fill="#5D30BF"/>
<path d="M282.866 372.918H274.381V380.379H282.866V372.918Z" fill="#5D30BF"/>
<path d="M329.333 372.918H320.849V380.379H329.333V372.918Z" fill="#5D30BF"/>
<path d="M324.71 244.135H277.26C274.875 244.135 272.941 242.202 272.941 239.817V229.775C272.941 227.39 274.874 225.457 277.26 225.457H324.71C327.095 225.457 329.029 227.39 329.029 229.775V239.817C329.029 242.202 327.095 244.135 324.71 244.135Z" fill="white"/>
<path d="M325.092 234.795C325.092 236.835 323.438 238.489 321.398 238.489C319.358 238.489 317.705 236.835 317.705 234.795C317.705 232.755 319.358 231.102 321.398 231.102C323.438 231.102 325.092 232.755 325.092 234.795Z" fill="#F2D06B"/>
<path d="M314.17 231.102H278.436V233.059H314.17V231.102Z" fill="#F2D06B"/>
<path d="M314.17 235.469H278.436V237.426H314.17V235.469Z" fill="#F2D06B"/>
<path d="M324.71 273.976H277.26C274.875 273.976 272.941 272.043 272.941 269.657V259.615C272.941 257.23 274.874 255.297 277.26 255.297H324.71C327.095 255.297 329.029 257.23 329.029 259.615V269.657C329.029 272.042 327.095 273.976 324.71 273.976Z" fill="white"/>
<path d="M325.092 264.635C325.092 266.675 323.438 268.328 321.398 268.328C319.358 268.328 317.705 266.675 317.705 264.635C317.705 262.595 319.358 260.941 321.398 260.941C323.438 260.941 325.092 262.595 325.092 264.635Z" fill="#13DCF2"/>
<path d="M314.17 260.941H278.436V262.898H314.17V260.941Z" fill="#13DCF2"/>
<path d="M314.17 265.309H278.436V267.266H314.17V265.309Z" fill="#13DCF2"/>
<path d="M324.71 303.813H277.26C274.875 303.813 272.941 301.879 272.941 299.494V289.451C272.941 287.067 274.874 285.133 277.26 285.133H324.71C327.095 285.133 329.029 287.066 329.029 289.451V299.494C329.029 301.879 327.095 303.813 324.71 303.813Z" fill="white"/>
<path d="M325.092 295.291C325.092 297.331 323.438 298.985 321.398 298.985C319.358 298.985 317.705 297.331 317.705 295.291C317.705 293.252 319.358 291.598 321.398 291.598C323.438 291.598 325.092 293.251 325.092 295.291Z" fill="#9A8DF2"/>
<path d="M314.17 291.598H278.436V293.555H314.17V291.598Z" fill="#9A8DF2"/>
<path d="M314.17 295.965H278.436V297.922H314.17V295.965Z" fill="#9A8DF2"/>
<path d="M324.71 333.655H277.26C274.875 333.655 272.941 331.722 272.941 329.338V319.295C272.941 316.911 274.874 314.977 277.26 314.977H324.71C327.095 314.977 329.029 316.91 329.029 319.295V329.338C329.029 331.722 327.095 333.655 324.71 333.655Z" fill="white"/>
<path d="M325.092 324.315C325.092 326.354 323.438 328.008 321.398 328.008C319.358 328.008 317.705 326.354 317.705 324.315C317.705 322.275 319.358 320.621 321.398 320.621C323.438 320.621 325.092 322.274 325.092 324.315Z" fill="#F2D06B"/>
<path d="M314.17 320.621H278.436V322.578H314.17V320.621Z" fill="#F2D06B"/>
<path d="M314.17 324.988H278.436V326.945H314.17V324.988Z" fill="#F2D06B"/>
<path d="M324.71 360.132H277.26C274.875 360.132 272.941 358.199 272.941 355.814V345.772C272.941 343.387 274.874 341.453 277.26 341.453H324.71C327.095 341.453 329.029 343.386 329.029 345.772V355.814C329.029 358.199 327.095 360.132 324.71 360.132Z" fill="white"/>
<path d="M325.092 350.537C325.092 352.577 323.438 354.231 321.398 354.231C319.358 354.231 317.705 352.577 317.705 350.537C317.705 348.498 319.358 346.844 321.398 346.844C323.438 346.844 325.092 348.498 325.092 350.537Z" fill="#9A8DF2"/>
<path d="M314.17 346.844H278.436V348.801H314.17V346.844Z" fill="#9A8DF2"/>
<path d="M314.17 351.211H278.436V353.168H314.17V351.211Z" fill="#9A8DF2"/>
<path d="M251.138 282.676H196.374C192.03 282.676 188.507 286.197 188.507 290.542V365.053C188.507 369.398 192.03 372.92 196.374 372.92H251.138C255.483 372.92 259.005 369.398 259.005 365.053V290.542C259.005 286.197 255.482 282.676 251.138 282.676Z" fill="#46248F"/>
<path d="M204.764 372.918H196.279V380.379H204.764V372.918Z" fill="#46248F"/>
<path d="M251.232 372.918H242.747V380.379H251.232V372.918Z" fill="#46248F"/>
<path d="M245.841 363.338H200.314C198.764 363.338 197.508 362.082 197.508 360.532V292.853C197.508 291.303 198.764 290.047 200.314 290.047H245.841C247.391 290.047 248.647 291.303 248.647 292.853V360.532C248.647 362.082 247.391 363.338 245.841 363.338Z" fill="white"/>
<path d="M250.541 298.344H196.279V300.079H250.541V298.344Z" fill="#46248F"/>
<path d="M231.593 302.606H215.918C213.9 302.606 212.265 300.971 212.265 298.953C212.265 296.936 213.9 295.301 215.918 295.301H231.593C233.61 295.301 235.246 296.936 235.246 298.953C235.246 300.97 233.61 302.606 231.593 302.606Z" fill="#46248F"/>
<path d="M250.541 326.082H196.279V327.817H250.541V326.082Z" fill="#46248F"/>
<path d="M231.593 330.602H215.918C213.9 330.602 212.265 328.967 212.265 326.95C212.265 324.932 213.9 323.297 215.918 323.297H231.593C233.61 323.297 235.246 324.932 235.246 326.95C235.246 328.967 233.61 330.602 231.593 330.602Z" fill="#46248F"/>
<path d="M250.541 351.32H196.279V353.055H250.541V351.32Z" fill="#46248F"/>
<path d="M231.593 355.84H215.918C213.9 355.84 212.265 354.205 212.265 352.188C212.265 350.17 213.9 348.535 215.918 348.535H231.593C233.61 348.535 235.246 350.17 235.246 352.188C235.246 354.205 233.61 355.84 231.593 355.84Z" fill="#46248F"/>
<path d="M210.713 313.082C210.713 314.599 209.483 315.829 207.966 315.829C206.449 315.829 205.22 314.599 205.22 313.082C205.22 311.566 206.449 310.336 207.966 310.336C209.483 310.336 210.713 311.566 210.713 313.082Z" fill="#F2D06B"/>
<path d="M218.415 313.082C218.415 314.599 217.185 315.829 215.668 315.829C214.152 315.829 212.922 314.599 212.922 313.082C212.922 311.566 214.152 310.336 215.668 310.336C217.185 310.336 218.415 311.566 218.415 313.082Z" fill="#F2D06B"/>
<path d="M233.503 313.082C233.503 314.599 232.274 315.829 230.757 315.829C229.24 315.829 228.01 314.599 228.01 313.082C228.01 311.566 229.24 310.336 230.757 310.336C232.274 310.336 233.503 311.566 233.503 313.082Z" fill="#F2D06B"/>
<path d="M241.6 313.082C241.6 314.599 240.371 315.829 238.854 315.829C237.337 315.829 236.107 314.599 236.107 313.082C236.107 311.566 237.337 310.336 238.854 310.336C240.371 310.336 241.6 311.566 241.6 313.082Z" fill="#13DCF2"/>
<path d="M226.117 313.082C226.117 314.599 224.887 315.829 223.371 315.829C221.854 315.829 220.624 314.599 220.624 313.082C220.624 311.566 221.854 310.336 223.371 310.336C224.887 310.336 226.117 311.566 226.117 313.082Z" fill="#9A8DF2"/>
<path d="M210.713 339.977C210.713 341.494 209.483 342.723 207.966 342.723C206.449 342.723 205.22 341.494 205.22 339.977C205.22 338.46 206.449 337.23 207.966 337.23C209.483 337.231 210.713 338.46 210.713 339.977Z" fill="#9A8DF2"/>
<path d="M218.415 339.977C218.415 341.494 217.185 342.723 215.668 342.723C214.152 342.723 212.922 341.494 212.922 339.977C212.922 338.46 214.152 337.23 215.668 337.23C217.185 337.23 218.415 338.46 218.415 339.977Z" fill="#13DCF2"/>
<path d="M233.503 339.977C233.503 341.494 232.274 342.723 230.757 342.723C229.24 342.723 228.01 341.494 228.01 339.977C228.01 338.46 229.24 337.23 230.757 337.23C232.274 337.231 233.503 338.46 233.503 339.977Z" fill="#F2D06B"/>
<path d="M241.6 339.977C241.6 341.494 240.371 342.723 238.854 342.723C237.337 342.723 236.107 341.494 236.107 339.977C236.107 338.46 237.337 337.23 238.854 337.23C240.371 337.231 241.6 338.46 241.6 339.977Z" fill="#13DCF2"/>
<path d="M226.117 339.977C226.117 341.494 224.887 342.723 223.371 342.723C221.854 342.723 220.624 341.494 220.624 339.977C220.624 338.46 221.854 337.23 223.371 337.23C224.887 337.23 226.117 338.46 226.117 339.977Z" fill="#F2D06B"/>
<path d="M408.028 249.254H353.264C348.92 249.254 345.397 252.775 345.397 257.12V365.055C345.397 369.4 348.92 372.921 353.264 372.921H408.028C412.373 372.921 415.895 369.4 415.895 365.055V257.12C415.895 252.775 412.373 249.254 408.028 249.254Z" fill="#46248F"/>
<path d="M361.654 372.922H353.169V380.383H361.654V372.922Z" fill="#46248F"/>
<path d="M408.123 372.922H399.638V380.383H408.123V372.922Z" fill="#46248F"/>
<path d="M365.528 363.846H359.047C356.861 363.846 355.09 362.075 355.09 359.889V264.898C355.09 262.713 356.861 260.941 359.047 260.941H365.528C367.714 260.941 369.485 262.713 369.485 264.898V359.89C369.484 362.075 367.714 363.846 365.528 363.846Z" fill="white"/>
<path d="M365.213 268.286C365.213 269.93 363.881 271.263 362.236 271.263C360.592 271.263 359.259 269.93 359.259 268.286C359.259 266.641 360.592 265.309 362.236 265.309C363.881 265.309 365.213 266.641 365.213 268.286Z" fill="#13DCF2"/>
<path d="M384.846 363.846H378.364C376.179 363.846 374.408 362.075 374.408 359.889V264.898C374.408 262.713 376.179 260.941 378.364 260.941H384.846C387.031 260.941 388.803 262.713 388.803 264.898V359.89C388.803 362.075 387.031 363.846 384.846 363.846Z" fill="white"/>
<path d="M384.583 268.286C384.583 269.93 383.25 271.263 381.606 271.263C379.961 271.263 378.628 269.93 378.628 268.286C378.628 266.641 379.961 265.309 381.606 265.309C383.25 265.308 384.583 266.641 384.583 268.286Z" fill="#F2D06B"/>
<path d="M404.166 363.846H397.684C395.498 363.846 393.727 362.075 393.727 359.889V264.898C393.727 262.713 395.498 260.941 397.684 260.941H404.166C406.351 260.941 408.122 262.713 408.122 264.898V359.89C408.122 362.075 406.351 363.846 404.166 363.846Z" fill="white"/>
<path d="M404.533 268.286C404.533 269.93 403.2 271.263 401.556 271.263C399.911 271.263 398.579 269.93 398.579 268.286C398.579 266.641 399.911 265.309 401.556 265.309C403.2 265.308 404.533 266.641 404.533 268.286Z" fill="#9A8DF2"/>
<path d="M596.109 385.163H2.71939C1.3985 385.163 0.327148 384.093 0.327148 382.771C0.327148 381.45 1.39765 380.379 2.71939 380.379H596.109C597.429 380.379 598.5 381.449 598.5 382.771C598.5 384.093 597.429 385.163 596.109 385.163Z" fill="#9A8DF2"/>
<path d="M259.588 65.3738H155.475C153.805 65.3738 152.451 64.0197 152.451 62.3497V3.53587C152.451 1.86582 153.805 0.511719 155.475 0.511719H259.588C261.258 0.511719 262.612 1.86582 262.612 3.53587V62.3488C262.613 64.0197 261.259 65.3738 259.588 65.3738Z" fill="#46248F"/>
<path d="M256.457 60.7411H157.835C157.278 60.7411 156.826 60.2898 156.826 59.7328V12.6094H257.465V59.7328C257.465 60.2898 257.014 60.7411 256.457 60.7411Z" fill="white"/>
<path d="M229.217 8.61796H158.821C157.719 8.61796 156.826 7.72459 156.826 6.62343C156.826 5.52142 157.72 4.62891 158.821 4.62891H229.217C230.319 4.62891 231.211 5.52227 231.211 6.62343C231.212 7.72544 230.319 8.61796 229.217 8.61796Z" fill="white"/>
<path d="M244.659 6.62734C244.659 7.72935 243.766 8.62187 242.665 8.62187C241.563 8.62187 240.67 7.7285 240.67 6.62734C240.67 5.52532 241.564 4.63281 242.665 4.63281C243.766 4.63281 244.659 5.52532 244.659 6.62734Z" fill="#13DCF2"/>
<path d="M251.335 6.62734C251.335 7.72935 250.442 8.62187 249.341 8.62187C248.239 8.62187 247.346 7.7285 247.346 6.62734C247.346 5.52532 248.24 4.63281 249.341 4.63281C250.442 4.63281 251.335 5.52532 251.335 6.62734Z" fill="#F2D06B"/>
<path d="M257.465 6.62734C257.465 7.72935 256.571 8.62187 255.47 8.62187C254.369 8.62187 253.476 7.7285 253.476 6.62734C253.476 5.52532 254.369 4.63281 255.47 4.63281C256.571 4.63281 257.465 5.52532 257.465 6.62734Z" fill="#9A8DF2"/>
<path d="M231.353 17.0312H251.459C252.572 17.0312 253.475 17.934 253.475 19.0479V54.2996C253.475 55.4135 252.572 56.3162 251.459 56.3162H235.28C234.253 56.3162 233.39 55.5438 233.276 54.5236L229.349 19.2719C229.216 18.0762 230.151 17.0312 231.353 17.0312Z" fill="#9A8DF2"/>
<path d="M232.922 22.4068L233.898 30.2078C234.024 31.217 234.882 31.9741 235.899 31.9741H248.189C249.302 31.9741 250.205 31.0713 250.205 29.9574V22.1564C250.205 21.0434 249.302 20.1406 248.189 20.1406H234.923C233.71 20.1406 232.771 21.2035 232.922 22.4068Z" fill="white"/>
<path d="M234.722 36.6344L236.193 51.6487C236.294 52.6809 237.162 53.4687 238.199 53.4687H248.704C249.817 53.4687 250.72 52.5659 250.72 51.4528V36.4385C250.72 35.3255 249.817 34.4219 248.704 34.4219H236.728C235.537 34.4219 234.605 35.4489 234.722 36.6344Z" fill="white"/>
<path d="M187.464 33.6953H163.867C162.666 33.6953 161.694 34.6687 161.694 35.8687V54.0289C161.694 55.2297 162.667 56.2023 163.867 56.2023H187.464C188.665 56.2023 189.638 55.2289 189.638 54.0289V35.8695C189.638 34.6687 188.665 33.6953 187.464 33.6953Z" fill="#F2D06B"/>
<path d="M174.42 52.892H165.979C165.379 52.892 164.893 52.4057 164.893 51.8053V37.864C164.893 37.2636 165.379 36.7773 165.979 36.7773H174.42C175.02 36.7773 175.506 37.2636 175.506 37.864V51.8053C175.506 52.4057 175.019 52.892 174.42 52.892Z" fill="white"/>
<path d="M185.513 43.8902H178.425C177.825 43.8902 177.338 43.4039 177.338 42.8035V37.864C177.338 37.2636 177.825 36.7773 178.425 36.7773H185.513C186.114 36.7773 186.6 37.2636 186.6 37.864V42.8035C186.6 43.4039 186.114 43.8902 185.513 43.8902Z" fill="white"/>
<path d="M185.353 52.8941H178.265C177.665 52.8941 177.178 52.4078 177.178 51.8074V46.8679C177.178 46.2675 177.665 45.7812 178.265 45.7812H185.353C185.953 45.7812 186.44 46.2675 186.44 46.8679V51.8074C186.441 52.4078 185.953 52.8941 185.353 52.8941Z" fill="white"/>
<path d="M187.464 16.0039H163.867C162.666 16.0039 161.694 16.9773 161.694 18.1781V29.1855C161.694 30.3863 162.667 31.3597 163.867 31.3597H187.464C188.665 31.3597 189.638 30.3863 189.638 29.1855V18.1781C189.638 16.9773 188.665 16.0039 187.464 16.0039Z" fill="#9A8DF2"/>
<path d="M184.198 27.2186H167.135C166.022 27.2186 165.119 26.3158 165.119 25.2019V22.1564C165.119 21.0434 166.022 20.1406 167.135 20.1406H184.198C185.311 20.1406 186.214 21.0434 186.214 22.1564V25.2019C186.214 26.3158 185.311 27.2186 184.198 27.2186Z" fill="white"/>
<path d="M194.807 18.8542L193.346 54.1059C193.298 55.2513 194.214 56.2052 195.36 56.2052H225.833C227.041 56.2052 227.978 55.1509 227.835 53.9518L223.651 18.7001C223.531 17.6858 222.671 16.9219 221.649 16.9219H196.822C195.742 16.921 194.853 17.7735 194.807 18.8542Z" fill="#13DCF2"/>
<path d="M199.057 22.1016L198.21 50.8212C198.177 51.9573 199.089 52.8967 200.226 52.8967H205.786C206.899 52.8967 207.801 51.9939 207.801 50.8808V22.1603C207.801 21.0473 206.899 20.1445 205.786 20.1445H201.073C199.982 20.1445 199.089 21.0115 199.057 22.1016Z" fill="white"/>
<path d="M211.177 22.1612V50.8808C211.177 51.9948 212.079 52.8967 213.193 52.8967H221.873C223.082 52.8967 224.019 51.8406 223.875 50.6407L220.433 21.921C220.311 20.9076 219.452 20.1445 218.431 20.1445H213.192C212.079 20.1454 211.177 21.0481 211.177 22.1612Z" fill="white"/>
<path d="M193.333 133.613C183.416 118.424 184.26 98.5535 195.354 84.4436C206.803 69.8824 226.751 64.5324 244.16 71.446C248.544 48.8607 270.467 31.0147 293.472 31.3043C316.477 31.5938 337.944 49.9848 341.759 72.6732C352.103 61.7467 368.613 57.096 383.139 61.0177C404.585 66.8071 411.677 87.8723 413.032 91.9142C420.194 113.278 410.065 131.473 408.381 134.384" fill="#F2D06B"/>
<path d="M255.644 105.914C255.644 105.027 255.882 104.356 256.357 103.902C256.833 103.447 257.525 103.22 258.433 103.22C259.31 103.22 259.986 103.453 260.461 103.917C260.947 104.382 261.19 105.048 261.19 105.914C261.19 106.748 260.947 107.409 260.461 107.894C259.975 108.37 259.299 108.608 258.433 108.608C257.546 108.608 256.859 108.375 256.373 107.91C255.887 107.435 255.644 106.769 255.644 105.914ZM275.799 88.7697C273.951 88.7697 272.519 89.4668 271.505 90.8612C270.491 92.245 269.984 94.1781 269.984 96.6604C269.984 101.826 271.922 104.409 275.799 104.409C277.426 104.409 279.396 104.002 281.709 103.189V107.308C279.808 108.1 277.685 108.497 275.34 108.497C271.97 108.497 269.392 107.477 267.607 105.439C265.822 103.389 264.93 100.453 264.93 96.6287C264.93 94.2203 265.368 92.1129 266.245 90.3066C267.121 88.4897 268.378 87.1007 270.016 86.1394C271.664 85.1676 273.591 84.6817 275.799 84.6817C278.049 84.6817 280.31 85.2257 282.581 86.3137L280.996 90.3066C280.13 89.8947 279.259 89.5355 278.382 89.2292C277.505 88.9228 276.644 88.7697 275.799 88.7697ZM307.679 96.5654C307.679 100.4 306.728 103.347 304.827 105.407C302.926 107.467 300.2 108.497 296.651 108.497C293.102 108.497 290.376 107.467 288.475 105.407C286.574 103.347 285.623 100.389 285.623 96.5337C285.623 92.6781 286.574 89.7362 288.475 87.7081C290.387 85.6693 293.123 84.65 296.683 84.65C300.243 84.65 302.963 85.6746 304.843 87.7239C306.734 89.7732 307.679 92.7203 307.679 96.5654ZM290.773 96.5654C290.773 99.1534 291.264 101.102 292.246 102.412C293.229 103.722 294.697 104.377 296.651 104.377C300.57 104.377 302.529 101.773 302.529 96.5654C302.529 91.3471 300.581 88.738 296.683 88.738C294.729 88.738 293.255 89.3982 292.262 90.7186C291.269 92.0284 290.773 93.9774 290.773 96.5654ZM322.288 108.18L316.711 90.0056H316.568C316.769 93.7027 316.869 96.1692 316.869 97.4051V108.18H312.48V85.0144H319.167L324.649 102.729H324.744L330.559 85.0144H337.246V108.18H332.667V97.215C332.667 96.6974 332.672 96.1006 332.682 95.4245C332.703 94.7485 332.777 92.9527 332.904 90.0373H332.762L326.788 108.18H322.288Z" fill="white"/>
<path d="M445.254 185.35H341.141C339.471 185.35 338.117 183.995 338.117 182.325V123.512C338.117 121.842 339.471 120.488 341.141 120.488H445.254C446.924 120.488 448.278 121.842 448.278 123.512V182.325C448.279 183.995 446.925 185.35 445.254 185.35Z" fill="#46248F"/>
<path d="M442.123 180.718H343.5C342.943 180.718 342.492 180.266 342.492 179.709V132.586H443.13V179.709C443.131 180.266 442.68 180.718 442.123 180.718Z" fill="white"/>
<path d="M414.883 128.595H344.487C343.385 128.595 342.493 127.701 342.493 126.6C342.493 125.498 343.386 124.605 344.487 124.605H414.883C415.985 124.605 416.878 125.499 416.878 126.6C416.878 127.701 415.984 128.595 414.883 128.595Z" fill="white"/>
<path d="M430.857 126.604C430.857 127.706 429.964 128.598 428.863 128.598C427.761 128.598 426.868 127.705 426.868 126.604C426.868 125.502 427.762 124.609 428.863 124.609C429.964 124.609 430.857 125.503 430.857 126.604Z" fill="#13DCF2"/>
<path d="M436.986 126.604C436.986 127.706 436.092 128.598 434.991 128.598C433.889 128.598 432.997 127.705 432.997 126.604C432.997 125.502 433.89 124.609 434.991 124.609C436.093 124.609 436.986 125.503 436.986 126.604Z" fill="#F2D06B"/>
<path d="M443.115 126.604C443.115 127.706 442.222 128.598 441.12 128.598C440.018 128.598 439.126 127.705 439.126 126.604C439.126 125.502 440.019 124.609 441.12 124.609C442.222 124.609 443.115 125.503 443.115 126.604Z" fill="#9A8DF2"/>
<path d="M390.401 151.874L389.267 170.732C389.218 171.558 389.874 172.255 390.701 172.255H427.426C428.293 172.255 428.962 171.492 428.85 170.633L426.404 151.775C426.311 151.059 425.701 150.523 424.979 150.523H391.835C391.074 150.524 390.446 151.116 390.401 151.874Z" fill="#13DCF2"/>
<path d="M404.921 157.628V163.381C404.921 164.08 405.671 164.523 406.284 164.186L412.727 160.643C413.427 160.258 413.337 159.225 412.583 158.966L406.139 156.757C405.542 156.553 404.921 156.997 404.921 157.628Z" fill="white"/>
<path d="M397.961 144.969L401.952 147.59L406.888 146.324L402.897 143.703L397.961 144.969Z" fill="#13DCF2"/>
<path d="M402.896 143.703L406.888 146.324L411.823 145.059L407.833 142.438L402.896 143.703Z" fill="white"/>
<path d="M390.809 146.802C389.618 147.108 389.096 148.507 389.796 149.517C390.216 150.124 390.971 150.405 391.686 150.222L397.017 148.855L393.026 146.234L390.809 146.802Z" fill="#13DCF2"/>
<path d="M393.025 146.234L397.016 148.856L401.952 147.59L397.961 144.969L393.025 146.234Z" fill="white"/>
<path d="M423.434 138.437L417.885 139.86L421.876 142.481L424.31 141.857C424.83 141.724 425.261 141.361 425.481 140.871C426.089 139.522 424.867 138.07 423.434 138.437Z" fill="#13DCF2"/>
<path d="M412.745 141.177L416.736 143.798L421.876 142.48L417.885 139.859L412.745 141.177Z" fill="white"/>
<path d="M407.833 142.435L411.824 145.057L416.736 143.797L412.745 141.176L407.833 142.435Z" fill="#13DCF2"/>
<path d="M370.962 142.813H350.661C348.919 142.813 347.508 141.401 347.508 139.661C347.508 137.919 348.92 136.508 350.661 136.508H370.962C372.704 136.508 374.115 137.92 374.115 139.661C374.116 141.401 372.704 142.813 370.962 142.813Z" fill="#F2D06B"/>
<path d="M372.298 139.662C372.298 140.373 371.722 140.949 371.011 140.949C370.3 140.949 369.724 140.372 369.724 139.662C369.724 138.951 370.301 138.375 371.011 138.375C371.721 138.375 372.298 138.951 372.298 139.662Z" fill="white"/>
<path d="M370.962 152.919H350.661C348.919 152.919 347.508 151.507 347.508 149.766C347.508 148.024 348.92 146.613 350.661 146.613H370.962C372.704 146.613 374.115 148.025 374.115 149.766C374.116 151.508 372.704 152.919 370.962 152.919Z" fill="#F2D06B"/>
<path d="M352.174 149.767C352.174 150.478 351.598 151.054 350.887 151.054C350.176 151.054 349.6 150.478 349.6 149.767C349.6 149.057 350.177 148.48 350.887 148.48C351.597 148.48 352.174 149.056 352.174 149.767Z" fill="white"/>
<path d="M357.096 149.767C357.096 150.478 356.52 151.054 355.809 151.054C355.099 151.054 354.522 150.478 354.522 149.767C354.522 149.057 355.099 148.48 355.809 148.48C356.52 148.48 357.096 149.056 357.096 149.767Z" fill="white"/>
<path d="M370.962 163.024H350.661C348.919 163.024 347.508 161.612 347.508 159.871C347.508 158.13 348.92 156.719 350.661 156.719H370.962C372.704 156.719 374.115 158.131 374.115 159.871C374.116 161.612 372.704 163.024 370.962 163.024Z" fill="#9A8DF2"/>
<path d="M350.887 161.16C351.598 161.16 352.174 160.583 352.174 159.873C352.174 159.162 351.598 158.586 350.887 158.586C350.176 158.586 349.6 159.162 349.6 159.873C349.6 160.583 350.176 161.16 350.887 161.16Z" fill="white"/>
<path d="M372.571 159.873C372.571 160.584 371.995 161.16 371.284 161.16C370.573 161.16 369.998 160.584 369.998 159.873C369.998 159.162 370.573 158.586 371.284 158.586C371.995 158.586 372.571 159.162 372.571 159.873Z" fill="white"/>
<path d="M370.962 173.122H350.661C348.919 173.122 347.508 171.71 347.508 169.969C347.508 168.228 348.92 166.816 350.661 166.816H370.962C372.704 166.816 374.115 168.228 374.115 169.969C374.116 171.711 372.704 173.122 370.962 173.122Z" fill="#13DCF2"/>
<path d="M372.298 169.97C372.298 170.681 371.722 171.257 371.011 171.257C370.3 171.257 369.724 170.681 369.724 169.97C369.724 169.259 370.301 168.684 371.011 168.684C371.721 168.684 372.298 169.259 372.298 169.97Z" fill="white"/>
<path d="M362.373 169.97C362.373 170.681 361.796 171.257 361.086 171.257C360.375 171.257 359.799 170.681 359.799 169.97C359.799 169.259 360.375 168.684 361.086 168.684C361.796 168.684 362.373 169.259 362.373 169.97Z" fill="white"/>
<path d="M429.69 50.4361H366.231C364.561 50.4361 363.207 49.082 363.207 47.412V12.5359C363.207 10.8658 364.561 9.51172 366.231 9.51172H429.69C431.36 9.51172 432.714 10.8658 432.714 12.5359V47.412C432.715 49.082 431.361 50.4361 429.69 50.4361Z" fill="#46248F"/>
<path d="M425.523 45.7047H370.099C368.985 45.7047 368.083 44.802 368.083 43.688V20.2852H427.54V43.6889C427.539 44.802 426.637 45.7047 425.523 45.7047Z" fill="white"/>
<path d="M408.399 17.0019H369.222C368.318 17.0019 367.584 16.2687 367.584 15.3643C367.584 14.4598 368.318 13.7266 369.222 13.7266H408.399C409.303 13.7266 410.037 14.4598 410.037 15.3643C410.037 16.2678 409.303 17.0019 408.399 17.0019Z" fill="white"/>
<path d="M417.296 15.3385C417.296 16.2591 416.55 17.0052 415.63 17.0052C414.709 17.0052 413.963 16.2591 413.963 15.3385C413.963 14.4179 414.709 13.6719 415.63 13.6719C416.549 13.6719 417.296 14.4179 417.296 15.3385Z" fill="#13DCF2"/>
<path d="M422.873 15.3385C422.873 16.2591 422.127 17.0052 421.207 17.0052C420.286 17.0052 419.54 16.2591 419.54 15.3385C419.54 14.4179 420.286 13.6719 421.207 13.6719C422.127 13.6719 422.873 14.4179 422.873 15.3385Z" fill="#F2D06B"/>
<path d="M427.994 15.3385C427.994 16.2591 427.248 17.0052 426.328 17.0052C425.407 17.0052 424.661 16.2591 424.661 15.3385C424.661 14.4179 425.407 13.6719 426.328 13.6719C427.248 13.6719 427.994 14.4179 427.994 15.3385Z" fill="#9A8DF2"/>
<path d="M380.486 33.238L383.022 24.9031C382.217 24.6672 381.367 24.5352 380.486 24.5352C375.501 24.5352 371.461 28.5753 371.461 33.5599C371.461 38.5445 375.501 42.5847 380.486 42.5847C385.469 42.5847 389.51 38.5445 389.51 33.5599C389.51 33.4518 389.498 33.3462 389.494 33.238H380.486Z" fill="#9A8DF2"/>
<path d="M400.98 32.9974L409.315 35.5336C409.551 34.7279 409.683 33.8789 409.683 32.9974C409.683 28.0128 405.643 23.9727 400.659 23.9727C395.674 23.9727 391.634 28.0128 391.634 32.9974C391.634 37.982 395.674 42.0222 400.659 42.0222C400.768 42.0222 400.872 42.0094 400.98 42.006V32.9974Z" fill="#13DCF2"/>
<path d="M422.102 27.0039H415.394C414.754 27.0039 414.235 26.4853 414.235 25.8457C414.235 25.2061 414.754 24.6875 415.394 24.6875H422.102C422.741 24.6875 423.26 25.2061 423.26 25.8457C423.26 26.4853 422.741 27.0039 422.102 27.0039Z" fill="#F2D06B"/>
<path d="M422.102 31.1875H415.394C414.754 31.1875 414.235 30.6689 414.235 30.0293C414.235 29.3897 414.754 28.8711 415.394 28.8711H422.102C422.741 28.8711 423.26 29.3897 423.26 30.0293C423.26 30.6689 422.741 31.1875 422.102 31.1875Z" fill="#13DCF2"/>
<path d="M422.102 35.7071H415.394C414.754 35.7071 414.235 35.1884 414.235 34.5488C414.235 33.9093 414.754 33.3906 415.394 33.3906H422.102C422.741 33.3906 423.26 33.9093 423.26 34.5488C423.26 35.1884 422.741 35.7071 422.102 35.7071Z" fill="#F2D06B"/>
<path d="M422.102 40.2266H415.394C414.754 40.2266 414.235 39.7079 414.235 39.0684C414.235 38.4288 414.754 37.9102 415.394 37.9102H422.102C422.741 37.9102 423.26 38.4288 423.26 39.0684C423.26 39.7079 422.741 40.2266 422.102 40.2266Z" fill="#9A8DF2"/>
<path d="M254.25 194.823H179.088C177.109 194.823 175.506 193.22 175.506 191.241V149.934C175.506 147.955 177.109 146.352 179.088 146.352H254.25C256.228 146.352 257.832 147.955 257.832 149.934V191.241C257.832 193.22 256.228 194.823 254.25 194.823Z" fill="#46248F"/>
<path d="M250.794 190.978H182.19C180.784 190.978 179.644 189.838 179.644 188.432V158.27H253.34V188.432C253.34 189.839 252.2 190.978 250.794 190.978Z" fill="white"/>
<path d="M229.578 154.052H181.095C179.953 154.052 179.026 153.126 179.026 151.983V151.905C179.026 150.763 179.952 149.836 181.095 149.836H229.578C230.72 149.836 231.646 150.762 231.646 151.905V151.983C231.646 153.126 230.72 154.052 229.578 154.052Z" fill="white"/>
<path d="M240.643 151.902C240.643 153.087 239.718 154.047 238.577 154.047C237.436 154.047 236.511 153.087 236.511 151.902C236.511 150.718 237.436 149.758 238.577 149.758C239.718 149.758 240.643 150.718 240.643 151.902Z" fill="#13DCF2"/>
<path d="M247.556 151.902C247.556 153.087 246.632 154.047 245.49 154.047C244.349 154.047 243.424 153.087 243.424 151.902C243.424 150.718 244.349 149.758 245.49 149.758C246.632 149.758 247.556 150.718 247.556 151.902Z" fill="#F2D06B"/>
<path d="M253.904 151.902C253.904 153.087 252.979 154.047 251.838 154.047C250.696 154.047 249.771 153.087 249.771 151.902C249.771 150.718 250.696 149.758 251.838 149.758C252.979 149.758 253.904 150.718 253.904 151.902Z" fill="#9A8DF2"/>
<path d="M223.235 165.775V182.013C223.235 182.918 222.523 183.664 221.619 183.705L209.832 184.238C208.878 184.282 208.076 183.527 208.064 182.571L207.827 165.799C207.813 164.854 208.575 164.082 209.52 164.082H221.543C222.477 164.083 223.235 164.841 223.235 165.775Z" fill="#F2D06B"/>
<path d="M215.953 171.254C215.963 171.432 217.556 171.688 217.745 171.717C218.358 171.81 219.033 171.885 219.65 171.804C219.468 170.892 219.386 169.94 219.357 169C218.892 169.065 213.751 169.478 213.751 169.288C214.029 171.062 214.346 172.829 214.704 174.588C214.238 174.317 213.715 174.122 213.176 174.119C212.637 174.117 212.082 174.328 211.747 174.75C211.279 175.341 211.338 176.224 211.705 176.883C212.244 177.851 213.41 178.428 214.507 178.271C215.603 178.113 216.56 177.231 216.804 176.15C216.989 175.334 216.796 174.483 216.548 173.684C216.3 172.885 215.996 172.09 215.953 171.254Z" fill="white"/>
<path d="M246.405 182.426V166.188C246.405 165.283 245.693 164.538 244.789 164.497L233.002 163.963C232.048 163.919 231.246 164.675 231.233 165.63L230.996 182.402C230.982 183.347 231.744 184.119 232.688 184.119H244.711C245.647 184.119 246.405 183.361 246.405 182.426Z" fill="#9A8DF2"/>
<path d="M243.362 174.295C240.595 175.896 237.931 177.675 235.392 179.616C235.592 176.61 235.743 173.601 235.845 170.59C238.453 171.898 240.625 173.284 243.362 174.295Z" fill="white"/>
<path d="M186.13 165.47V181.907C186.13 182.758 186.8 183.458 187.649 183.496L199.638 184.04C200.535 184.081 201.288 183.371 201.301 182.473L201.541 165.492C201.553 164.605 200.837 163.879 199.95 163.879H187.72C186.842 163.879 186.13 164.591 186.13 165.47Z" fill="#13DCF2"/>
<path d="M193.769 176.782C194.741 176.39 195.62 175.712 196.13 174.796C196.64 173.879 196.746 172.717 196.289 171.773C195.831 170.83 194.776 170.174 193.736 170.301C193.844 169.567 193.953 168.832 194.061 168.098C193.107 168.879 192.059 169.546 190.946 170.078C191.334 171.21 191.921 172.275 192.672 173.207C192.875 172.757 193.077 172.307 193.28 171.858C194.068 172.054 194.615 172.888 194.563 173.699C194.511 174.509 193.919 175.236 193.163 175.534C192.408 175.832 191.526 175.727 190.812 175.341C190.796 175.806 190.779 176.272 190.764 176.737C190.748 177.267 190.768 177.298 191.305 177.274C192.145 177.238 192.986 177.098 193.769 176.782Z" fill="white"/>
<path d="M533.648 198.024C526.825 204.007 520.983 211.009 515.172 217.979C513.259 215.024 511.347 212.069 509.434 209.113C509.16 208.689 508.88 208.269 508.598 207.849C507.649 206.434 506.672 205.037 505.76 203.597C505.038 202.457 504.15 201.272 503.655 200.014C502.774 197.777 502.91 195.015 501.202 193.156C500.619 192.522 499.773 192.05 498.921 192.177C497.809 192.343 497.103 193.408 496.391 194.278C495.568 195.285 494.505 196.28 494.47 197.58C494.445 198.45 494.901 199.252 495.324 200.013C495.619 200.543 495.904 201.077 496.18 201.616C497.678 204.538 498.647 207.608 499.886 210.621C500.747 212.716 501.643 214.797 502.557 216.87C504.482 221.242 506.604 225.526 508.913 229.707C509.635 231.013 510.512 232.421 511.945 232.834C513.498 233.281 515.09 232.395 516.463 231.544C523.887 226.941 531.311 222.338 538.734 217.734" fill="#AD7840"/>
<path d="M514.429 221.438C514.111 222.577 513.866 223.782 514.136 224.932C514.187 225.15 514.296 225.399 514.516 225.438C514.773 225.483 514.966 225.214 515.072 224.976C515.575 223.856 515.722 222.601 515.674 221.374C515.637 220.397 515.603 219.105 515.225 218.199C515.064 218.521 515.071 218.963 514.998 219.322C514.854 220.038 514.624 220.735 514.429 221.438Z" fill="#573C20"/>
<path d="M514.029 229.126C514.637 229.363 515.052 230.019 515.007 230.67C514.709 230.181 514.166 229.863 513.598 229.792C513.016 229.719 512.469 229.896 511.97 230.181C512.147 229.881 512.267 229.524 512.561 229.318C512.98 229.025 513.55 228.939 514.029 229.126Z" fill="#573C20"/>
<path d="M521.438 209.101C521.133 209.47 520.828 209.838 520.523 210.207C520.277 210.503 520.03 210.805 519.881 211.159C519.741 211.495 519.787 211.754 519.806 212.096C519.825 212.426 519.768 212.742 519.742 213.085C519.688 213.77 519.741 214.461 519.814 215.143C520.257 219.273 521.477 223.317 523.393 227.002C523.502 227.209 523.633 227.434 523.856 227.504C524.102 227.58 524.358 227.438 524.577 227.302C527.15 225.696 529.724 224.09 532.296 222.483C532.767 222.19 533.257 221.875 533.523 221.389C533.876 220.742 533.753 219.951 533.632 219.223C533.517 218.529 533.413 217.833 533.322 217.136C532.865 213.655 532.674 210.117 532.823 206.607C532.85 205.953 533.039 205.376 533.031 204.715C533.021 203.833 533.03 202.949 533.062 202.067C533.126 200.303 533.278 198.542 533.516 196.793C531.533 198.375 529.544 199.963 527.755 201.761C526.319 203.204 525.019 204.774 523.722 206.342C522.96 207.261 522.199 208.181 521.438 209.101Z" fill="#F2D06B"/>
<path d="M528.107 225.01C526.99 225.891 525.77 226.643 524.479 227.24C525.16 219.818 527.115 212.515 530.235 205.746C529.51 212.423 528.785 219.1 528.061 225.777" fill="#B59C50"/>
<path d="M486.515 185.682L493.86 184.906C494.438 184.845 494.996 185.14 495.271 185.652L503.014 200.069C503.246 200.501 503.241 201.02 503.001 201.447L502.49 202.356C502.307 202.683 502.002 202.924 501.643 203.029L493.383 205.436C492.68 205.641 491.934 205.281 491.658 204.602L485.015 188.307C484.86 187.928 484.875 187.501 485.057 187.133L485.383 186.472C485.6 186.031 486.027 185.733 486.515 185.682Z" fill="#9A8DF2"/>
<path d="M486.609 185.185L494.631 183.699C495.239 183.586 495.845 183.899 496.106 184.46L503.273 199.879C503.623 200.631 503.22 201.518 502.424 201.751L494.15 204.162C493.49 204.354 492.791 204.022 492.523 203.389L485.609 187.045C485.27 186.247 485.757 185.342 486.609 185.185Z" fill="#351B6B"/>
<path d="M498.475 201.671C498.475 202.005 498.204 202.276 497.87 202.276C497.536 202.276 497.266 202.005 497.266 201.671C497.266 201.337 497.536 201.066 497.87 201.066C498.204 201.066 498.475 201.336 498.475 201.671Z" fill="white"/>
<path d="M487.136 185.879L494.749 184.468C495.053 184.412 495.357 184.569 495.487 184.849L501.853 198.544C502.027 198.921 501.826 199.363 501.428 199.48L493.61 201.758C493.28 201.854 492.93 201.688 492.797 201.372L486.635 186.809C486.467 186.41 486.711 185.958 487.136 185.879Z" fill="white"/>
<path d="M487.838 187.484L487.87 187.561C487.998 187.874 488.336 188.048 488.666 187.972L494.704 186.584C495.134 186.485 495.364 186.014 495.177 185.615C495.04 185.322 494.719 185.162 494.403 185.23L488.332 186.542C487.911 186.634 487.674 187.084 487.838 187.484Z" fill="#13DCF2"/>
<path d="M492.642 196.579L493.683 199.447C493.826 199.841 494.249 200.059 494.653 199.947L499.489 198.601C499.977 198.465 500.218 197.916 499.989 197.464L498.679 194.878C498.512 194.547 498.14 194.374 497.78 194.459L493.214 195.523C492.746 195.632 492.478 196.127 492.642 196.579Z" fill="#F2D06B"/>
<path d="M496.432 189.973L493.665 190.753L494.969 188.729C494.573 188.558 494.132 188.449 493.662 188.424C491.84 188.327 490.296 189.497 490.214 191.036C490.132 192.576 491.543 193.904 493.366 194C495.188 194.097 496.732 192.927 496.814 191.387C496.841 190.879 496.693 190.399 496.432 189.973Z" fill="#9A8DF2"/>
<path d="M503.197 193.056C503.883 194.151 504.249 195.419 504.37 196.699C504.432 197.347 504.434 198.003 504.38 198.652C504.354 198.959 504.225 199.252 504.14 199.551C504.049 199.875 503.847 200.274 503.83 200.608C503.841 200.404 503.478 199.945 503.378 199.757C503.203 199.427 503.026 199.096 502.851 198.765C502.542 198.183 502.17 197.613 501.974 196.984C501.69 196.075 501.554 195.107 501.09 194.276C500.535 193.285 499.505 192.839 498.803 191.985C498.267 191.334 498.005 190.524 497.904 189.696C497.805 188.887 497.67 188.003 498.056 187.249C498.176 187.013 498.393 186.772 498.654 186.813C498.89 186.851 499.024 187.095 499.129 187.311C499.652 188.386 500.309 189.397 501.078 190.313C501.808 191.182 502.594 192.091 503.197 193.056Z" fill="#AD7840"/>
<path d="M487.175 191.73C487.378 191.4 487.598 191.09 487.811 190.808C488.095 190.433 488.481 190.046 488.95 190.085C489.426 190.124 489.763 190.619 489.78 191.096C489.797 191.573 489.572 192.025 489.321 192.431C489.719 192.342 490.143 192.588 490.338 192.945C490.532 193.302 490.558 193.67 490.449 194.05C490.386 194.27 490.306 194.484 490.212 194.692C490.161 194.802 490.044 195.156 489.934 195.21C490.144 195.107 490.359 195.003 490.589 194.959C490.819 194.913 491.072 194.934 491.266 195.065C491.53 195.243 491.635 195.585 491.641 195.904C491.652 196.526 491.363 197.111 491.082 197.666C491.344 197.496 491.625 197.324 491.936 197.309C492.249 197.295 492.594 197.501 492.617 197.812C492.635 198.051 492.469 198.259 492.311 198.437C491.84 198.969 491.34 199.485 490.99 200.103C490.641 200.722 490.455 201.472 490.668 202.149C490.119 201.997 489.566 201.691 489.181 201.264C489.02 201.085 489.006 200.953 488.973 200.723C488.963 200.655 488.889 199.803 488.979 199.821C488.483 199.721 488.042 199.373 487.829 198.913C487.616 198.453 487.636 197.892 487.882 197.448C487.835 197.531 487.361 197.256 487.309 197.218C487.135 197.088 486.992 196.903 486.895 196.708C486.694 196.301 486.914 195.659 487.137 195.298C487.03 195.472 486.666 195.106 486.615 195.038C486.461 194.829 486.4 194.565 486.378 194.306C486.304 193.426 486.687 192.523 487.175 191.73Z" fill="#AD7840"/>
<path d="M491.109 197.638C490.539 197.495 489.914 197.747 489.523 198.185C489.332 198.4 489.191 198.654 489.094 198.924C489.013 199.15 488.898 199.491 488.944 199.732C489.214 199.281 489.449 198.853 489.834 198.481C490.021 198.3 490.224 198.136 490.442 197.993C490.558 197.916 490.97 197.603 491.109 197.638Z" fill="#573C20"/>
<path d="M487.984 197.233C488.438 196.35 489.156 195.607 490.022 195.125C489.467 195.197 488.958 195.512 488.595 195.939C488.232 196.366 488.006 196.898 487.883 197.446" fill="#573C20"/>
<path d="M489.255 192.355C488.566 192.424 487.959 192.892 487.6 193.484C487.242 194.076 487.105 194.778 487.073 195.47C487.073 195.415 487.222 195.26 487.25 195.187C487.292 195.07 487.323 194.949 487.365 194.832C487.452 194.594 487.558 194.363 487.678 194.14C487.921 193.69 488.231 193.275 488.593 192.914C488.798 192.711 489.019 192.523 489.255 192.355Z" fill="#573C20"/>
<path d="M518.506 363.266C515.839 366.46 512.222 368.851 508.239 370.054C506.585 370.553 504.816 370.878 503.437 371.92C501.489 373.391 500.758 375.935 500.145 378.299C499.985 378.917 499.866 379.683 500.349 380.102C500.659 380.37 501.108 380.384 501.517 380.385C509.517 380.398 517.517 380.411 525.516 380.423C525.923 380.424 526.36 380.416 526.691 380.177C527.124 379.865 527.225 379.271 527.288 378.741C527.878 373.738 528.235 368.708 528.357 363.673" fill="#F2D06B"/>
<path d="M526.497 254.594C521.362 286.729 517.868 332.672 516.031 365.164C520.462 364.646 524.46 365.28 528.796 365.9C529.829 363.772 529.389 361.651 529.675 359.409C530.051 356.464 531.431 353.486 532.35 350.673C534.366 344.506 536.382 338.339 538.398 332.172C539.09 330.054 539.785 327.759 539.086 325.644C538.465 323.766 536.827 322.334 536.317 320.424C535.857 318.705 536.384 316.893 536.907 315.193C540.077 304.879 543.248 294.566 546.419 284.253C549.319 274.817 551.165 265.362 553.63 255.798" fill="#281450"/>
<path d="M524.425 364.27C527.25 353.313 528.322 342.041 532.3 331.307C534.524 325.05 531.444 324.598 528.574 320.395C532.643 303.674 541.289 287.574 546.942 271.105" stroke="#46248F" stroke-width="0.851633" stroke-miterlimit="10"/>
<path d="M500.236 378.992C509.183 379.112 518.133 378.857 527.058 378.227" stroke="#351B6B" stroke-width="0.425817" stroke-miterlimit="10" stroke-linecap="round" stroke-linejoin="round"/>
<path d="M512.218 365.07C511.967 365.069 511.7 365.09 511.495 365.236C511.166 365.473 511.125 365.986 511.339 366.33C511.552 366.675 511.958 366.862 512.361 366.913C512.763 366.964 513.17 366.898 513.571 366.839C514.953 366.635 516.387 366.516 517.73 366.905C519.072 367.293 520.316 368.287 520.646 369.645C520.745 370.052 520.706 370.579 520.329 370.761C519.922 370.957 519.474 370.609 519.158 370.288C518.008 369.12 516.857 367.952 515.707 366.785C515.283 366.355 514.862 365.77 514.32 365.488C513.713 365.172 512.892 365.074 512.218 365.07Z" stroke="#351B6B" stroke-width="0.425817" stroke-miterlimit="10" stroke-linecap="round" stroke-linejoin="round"/>
<path d="M511.973 367.895C513.392 368.253 514.739 368.899 515.908 369.78" stroke="#351B6B" stroke-width="0.425817" stroke-miterlimit="10" stroke-linecap="round" stroke-linejoin="round"/>
<path d="M509.727 368.918C511.107 369.451 512.43 370.133 513.665 370.948" stroke="#351B6B" stroke-width="0.425817" stroke-miterlimit="10" stroke-linecap="round" stroke-linejoin="round"/>
<path d="M507.494 369.34C508.798 370.093 510.039 370.955 511.2 371.913" stroke="#351B6B" stroke-width="0.425817" stroke-miterlimit="10" stroke-linecap="round" stroke-linejoin="round"/>
<path d="M567.012 365.079C566.71 366.037 566.084 366.87 565.333 367.536C564.581 368.202 563.705 368.713 562.809 369.166C561.288 369.935 559.692 370.556 558.051 371.017C557.347 371.215 556.668 371.458 555.957 371.608C555.316 371.743 554.6 371.881 554.078 372.306C552.184 373.845 551.545 376.415 551.017 378.798C550.879 379.422 550.787 380.191 551.284 380.592C551.604 380.849 552.053 380.847 552.462 380.834C559.211 380.6 565.961 380.371 572.71 380.141C573.789 380.104 574.977 379.917 576.05 380.03C576.812 380.11 577.668 380.313 578.286 379.678C578.755 379.198 578.759 378.444 578.721 377.774C578.452 373.01 577.565 368.305 576.681 363.617" fill="#F2D06B"/>
<path d="M540.644 256.859C547.093 289.434 556.819 334.467 563.875 366.917C568.233 365.596 573.353 364.675 577.869 365.26C577.045 356.88 576.533 348.473 576.082 340.067C575.786 334.541 577.111 326.361 573.434 321.727C572.466 320.508 571.122 319.621 570.198 318.369C568.69 316.324 568.506 313.622 568.394 311.084C567.934 300.699 567.742 290.302 567.844 279.908C567.938 270.169 569.147 260.402 568.194 250.715" fill="#351B6B"/>
<path d="M562.986 263.508C563.897 271.523 563.74 279.891 564.314 288.003C564.932 296.728 565.656 305.446 566.485 314.154C566.744 316.869 567.052 319.701 568.533 321.993C569.435 323.39 570.731 324.51 571.552 325.957C572.634 327.862 572.789 330.136 572.92 332.322C573.568 343.161 574.215 354 574.864 364.839" stroke="#46248F" stroke-width="0.851633" stroke-miterlimit="10"/>
<path d="M551.324 378.884C554.382 379.345 557.494 379.182 560.581 379.016C566.494 378.701 572.406 378.385 578.318 378.07" stroke="#351B6B" stroke-width="0.425817" stroke-miterlimit="10" stroke-linecap="round" stroke-linejoin="round"/>
<path d="M561.919 366.964C561.636 366.9 561.294 366.863 561.096 367.075C560.834 367.354 561.045 367.828 561.352 368.055C562.113 368.614 563.166 368.364 564.096 368.199C565.272 367.989 566.48 367.958 567.664 368.106C568.411 368.199 569.181 368.378 569.749 368.871C570.019 369.106 570.239 369.421 570.279 369.777C570.319 370.133 570.142 370.524 569.812 370.662C569.53 370.778 569.209 370.697 568.919 370.602C567.669 370.187 566.543 369.519 565.586 368.622C564.636 367.728 563.17 367.246 561.919 366.964Z" stroke="#351B6B" stroke-width="0.425817" stroke-miterlimit="10" stroke-linecap="round" stroke-linejoin="round"/>
<path d="M560.497 369.168C561.855 369.495 563.172 369.998 564.403 370.66" stroke="#351B6B" stroke-width="0.425817" stroke-miterlimit="10" stroke-linecap="round" stroke-linejoin="round"/>
<path d="M556.918 370.66C558.42 370.84 559.859 371.498 560.977 372.516" stroke="#351B6B" stroke-width="0.425817" stroke-miterlimit="10" stroke-linecap="round" stroke-linejoin="round"/>
<path d="M559.271 370.016C560.493 370.51 561.656 371.147 562.729 371.911" stroke="#351B6B" stroke-width="0.425817" stroke-miterlimit="10" stroke-linecap="round" stroke-linejoin="round"/>
<path d="M569.286 230.21C569.404 233.051 569.508 235.892 569.598 238.734C569.741 243.245 569.849 247.757 569.92 252.27C569.956 254.526 569.982 256.783 570 259.04C570.004 259.479 570.058 264.931 569.968 264.936C569.25 264.984 568.531 265.03 567.813 265.074C558.834 265.613 549.83 265.761 540.838 265.518C536.341 265.397 531.848 265.178 527.361 264.862C525.539 264.733 524.325 264.744 524.432 262.634C524.546 260.389 524.709 258.144 524.865 255.901C525.487 246.973 526.3 238.059 527.299 229.166C527.936 223.506 528.649 217.856 529.439 212.219C530.036 207.949 529.729 201.795 532.276 198.215C532.945 197.276 533.958 196.696 534.956 196.188C542.936 192.128 553.204 190.567 561.36 194.845C563.248 195.837 565.089 196.584 566.313 198.547C567.5 200.452 567.706 202.843 567.869 205.123C568.464 213.476 568.937 221.84 569.286 230.21Z" fill="#F2D06B"/>
<path d="M569.167 228.542C569.052 225.273 568.935 222.003 568.819 218.734C568.81 218.476 568.793 218.197 568.632 217.995C568.397 217.702 567.965 217.692 567.59 217.673C565.467 217.569 563.658 216.403 562.436 214.715C562.461 217.134 563.476 219.495 564.517 221.642C565.73 224.147 567.299 226.479 569.167 228.542Z" fill="#B59C50"/>
<path d="M550.76 232.132C549.4 230.092 547.964 228.029 546.797 225.871C548.259 224.907 549.721 223.943 551.183 222.98C547.155 221.818 543.184 220.869 539.157 219.707C538.304 223.292 537.451 226.879 536.599 230.464C538.484 229.662 540.266 228.614 541.885 227.357C543.17 230.201 544.541 232.898 546.484 235.34C547.71 234.393 549.396 232.865 550.76 232.132Z" fill="white"/>
<path d="M541.582 196.477C541.508 197.096 541.46 197.801 541.878 198.263C542.258 198.683 542.885 198.745 543.452 198.758C546.34 198.821 549.238 198.303 551.926 197.246C552.775 196.912 553.663 196.471 554.085 195.662C554.354 195.148 554.398 194.552 554.437 193.974C554.839 188.067 555.241 182.147 555.029 176.229C554.979 174.823 554.88 173.367 554.218 172.124C553.556 170.882 552.178 169.912 550.793 170.165C549.268 170.444 548.354 171.993 547.761 173.425C546.433 176.634 545.681 180.082 545.555 183.553C545.509 184.828 545.249 185.749 543.869 185.875C542.543 185.996 542.753 186.599 542.598 187.908C542.26 190.765 541.921 193.62 541.582 196.477Z" fill="#AD7840"/>
<path d="M541.944 193.949C544.072 193.577 546.059 192.446 547.466 190.807C548.872 189.169 549.69 187.035 549.737 184.875C548.238 186.835 545.601 187.855 543.173 187.413C542.964 187.849 542.69 188.259 542.599 188.734C542.489 189.311 542.392 189.891 542.307 190.473C542.139 191.626 542.018 192.786 541.944 193.949Z" fill="#573C20"/>
<path d="M532.896 180.55C531.814 192.356 544.038 189.868 550.347 186.998C555.045 180.685 561.251 165.689 552.503 160.334C539.588 153.031 534.476 163.307 532.896 180.55Z" fill="#AD7840"/>
<path d="M567.368 166.438C568.921 165.119 569.551 162.816 568.884 160.891C568.217 158.966 566.297 157.545 564.261 157.47C564.873 155.589 564.201 153.452 562.837 152.031C561.108 150.227 558.173 149.717 555.936 150.831C556.309 148.319 554.156 145.902 551.664 145.414C549.172 144.925 546.58 146.018 544.674 147.696C543.05 145.911 540.303 145.251 538.045 146.103C535.788 146.956 534.163 149.268 534.124 151.68C531.903 151.416 529.595 152.863 528.864 154.978C528.133 157.092 529.055 159.655 530.965 160.82C529.535 162.148 529.32 164.584 530.496 166.141C531.27 167.167 532.574 167.716 533.845 167.686C534.445 167.672 535.117 167.539 535.633 167.214C535.932 167.026 536.854 166.002 536.488 165.577C537.419 166.656 538.785 167.456 540.207 167.358C541.629 167.259 542.993 166.049 542.941 164.624C543.179 165.968 544.365 167.294 545.769 167.347C547.108 167.397 548.377 166.498 548.969 165.297C548.763 166.192 549.146 167.195 549.896 167.724C550.646 168.254 551.718 168.28 552.492 167.786C551.298 168.981 550.417 170.409 550.163 172.115C549.975 173.383 550.22 174.75 551.011 175.758C551.672 176.6 552.939 177.311 554.045 177.079C554.897 176.9 555.75 175.664 556.057 174.916C556.182 175.544 556.094 176.173 555.987 176.795C555.889 177.363 556.013 177.811 556.016 178.384C556.018 178.928 555.925 179.472 555.745 179.985C555.623 180.33 555.023 181.014 555.014 181.32C554.96 183.325 554.906 185.331 554.852 187.337C556.216 186.524 557.104 184.968 557.11 183.381C558.396 184.133 560.09 184.062 561.371 183.302C562.652 182.541 563.509 181.15 563.731 179.677C563.955 178.204 563.572 176.668 562.787 175.402C564.067 175.894 565.585 175.57 566.657 174.714C567.728 173.858 568.368 172.53 568.536 171.169C568.722 169.681 568.501 167.516 567.368 166.438Z" fill="#351B6B"/>
<path d="M556.797 173.246C557.282 173.212 557.762 173.399 558.165 173.674C559.136 174.336 559.698 175.498 559.798 176.669C559.897 177.84 559.575 179.017 559.059 180.072C558.651 180.907 558.108 181.694 557.365 182.251C556.623 182.808 555.659 183.113 554.748 182.932C554.409 182.865 554.061 182.715 553.875 182.423C553.732 182.199 553.703 181.925 553.683 181.661C553.513 179.343 553.703 176.449 555.04 174.434C555.433 173.84 556.057 173.298 556.797 173.246Z" fill="#AD7840"/>
<path d="M555.247 178.545C555.238 179.259 555.476 180.045 556.093 180.404C556.406 180.586 556.883 180.593 557.053 180.273C557.147 180.095 557.112 179.874 557.025 179.692C556.938 179.509 556.807 179.353 556.703 179.181C556.441 178.749 556.386 178.211 556.509 177.725C556.572 177.474 556.681 177.233 556.837 177.025C557.006 176.799 557.283 176.687 557.45 176.476C557.738 176.112 557.249 175.892 556.903 175.907C556.416 175.927 555.998 176.426 555.755 176.806C555.425 177.32 555.255 177.936 555.247 178.545Z" fill="#573C20"/>
<path d="M542.915 175.641C542.94 175.836 542.991 176.033 543.102 176.196C543.214 176.359 543.393 176.484 543.59 176.492C543.826 176.502 544.041 176.35 544.191 176.168C544.536 175.751 544.634 175.186 544.665 174.647C544.678 174.423 544.68 174.193 544.612 173.98C544.544 173.766 544.393 173.568 544.181 173.495C543.215 173.164 542.843 175.074 542.915 175.641Z" fill="#351B6B"/>
<path d="M542.7 171.203C543.31 170.795 544.13 170.725 544.8 171.024C545.47 171.322 545.966 171.979 546.071 172.705" stroke="#351B6B" stroke-width="0.425817" stroke-miterlimit="10" stroke-linecap="round" stroke-linejoin="round"/>
<path d="M535.468 174.333C535.492 174.529 535.543 174.725 535.655 174.888C535.766 175.051 535.945 175.175 536.143 175.184C536.379 175.195 536.593 175.042 536.744 174.86C537.089 174.443 537.187 173.878 537.218 173.339C537.23 173.115 537.233 172.885 537.165 172.671C537.097 172.457 536.946 172.259 536.733 172.187C535.769 171.856 535.396 173.766 535.468 174.333Z" fill="#351B6B"/>
<path d="M538.733 170.518C538.366 170.024 537.787 169.692 537.176 169.623C536.564 169.554 535.927 169.75 535.459 170.15" stroke="#351B6B" stroke-width="0.425817" stroke-miterlimit="10" stroke-linecap="round" stroke-linejoin="round"/>
<path d="M537.396 183.416C538.515 183.778 539.75 183.769 540.862 183.388C541.974 183.009 542.957 182.26 543.619 181.289C543.795 181.033 543.953 180.722 543.867 180.423C542.077 181.224 539.901 181.099 538.214 180.098C538.213 181.263 537.941 182.386 537.396 183.416Z" fill="white"/>
<path d="M537.928 175.871C537.515 176.184 537.064 176.455 536.713 176.836C536.362 177.217 536.119 177.747 536.24 178.251C536.326 178.618 536.601 178.927 536.935 179.102C537.692 179.501 538.678 179.216 539.277 178.605C539.875 177.994 540.145 177.129 540.251 176.28C540.331 175.638 540.328 174.989 540.326 174.341C540.325 174.14 540.323 173.933 540.251 173.744C540.155 173.496 539.839 173.23 539.565 173.411C539.363 173.546 539.389 173.902 539.319 174.114C539.081 174.832 538.519 175.422 537.928 175.871Z" fill="#AD5418"/>
<path d="M590.967 217.618C592.314 218.734 593.727 219.944 594.248 221.613C594.88 223.637 594.041 225.821 592.974 227.652C588.375 235.548 579.786 240.159 573.639 246.92C573.997 246.526 570.225 242.386 569.763 242.05C569.424 241.807 574.418 233.441 574.894 232.645C576.562 229.86 578.83 227.216 580.249 224.344C577.317 222.873 574.386 221.403 571.454 219.932C569.988 219.197 568.522 218.461 567.056 217.727C565.885 217.139 564.742 216.715 563.942 215.638C563.357 214.851 563.11 213.87 562.882 212.917C561.752 208.198 560.473 203.216 563.295 198.827C563.583 198.379 563.943 197.923 564.458 197.79C565.067 197.632 565.683 197.971 566.214 198.309C567.904 199.386 569.516 200.58 571.126 201.773C574.483 204.26 577.819 206.729 581.029 209.386C584.342 212.13 587.654 214.874 590.967 217.618Z" fill="#AD7840"/>
<path d="M583.221 223.655C583.881 223.715 584.562 223.939 584.986 224.446C585.072 224.548 585.147 224.666 585.167 224.798C585.186 224.93 585.137 225.079 585.021 225.146C584.859 225.24 584.657 225.144 584.493 225.055C583.123 224.321 581.754 224.283 580.26 224.385C581.129 223.824 582.192 223.562 583.221 223.655Z" fill="#573C20"/>
<path d="M590.355 223.795C590.573 224.546 591.174 225.175 591.914 225.427C591.383 224.941 591.094 224.226 591.033 223.508C590.971 222.772 591.162 222.105 591.354 221.406C591.005 221.62 590.582 221.839 590.429 222.225C590.233 222.718 590.207 223.287 590.355 223.795Z" fill="#573C20"/>
<path d="M581.569 209.189C581.746 209.337 581.927 209.493 582.024 209.704C582.255 210.213 581.901 210.782 581.575 211.237C578.98 214.858 577.175 219.042 576.323 223.414C572.814 222.588 569.427 221.247 566.303 219.45C565.37 218.912 564.45 218.327 563.696 217.558C561.592 215.412 561.082 212.198 560.861 209.2C560.693 206.912 560.633 204.584 561.172 202.353C561.538 200.842 562.197 199.377 563.197 198.178C563.53 197.778 564.33 196.736 564.896 196.708C565.522 196.677 566.712 197.854 567.223 198.21C570.392 200.417 573.497 202.716 576.533 205.101C578.233 206.436 579.912 207.799 581.569 209.189Z" fill="#F2D06B"/>
<path d="M567.299 252.698C567.248 253.451 567.227 254.245 567.576 254.914C567.889 255.517 568.46 255.936 569.013 256.332C570.21 257.193 571.509 258.089 572.983 258.106C574.45 258.124 575.766 257.268 576.979 256.446C577.403 256.159 577.884 255.724 577.737 255.234C577.601 254.78 577.012 254.648 576.541 254.715C576.072 254.782 575.593 254.966 575.138 254.833C575.267 254.478 575.378 254.077 575.229 253.731C575.079 253.383 574.549 253.204 574.316 253.502C574.515 253.16 574.483 252.699 574.238 252.389C573.993 252.079 573.551 251.94 573.173 252.053C573.497 250.493 573.752 248.906 573.699 247.314C573.645 245.721 573.268 244.112 572.409 242.77C572.032 242.181 571.362 241.329 570.567 241.377C569.856 241.419 569.49 242.2 569.262 242.774C568.48 244.736 568.058 246.925 567.722 249.002C567.523 250.226 567.382 251.46 567.299 252.698Z" fill="#AD7840"/>
<path d="M572.391 254.939C572.988 255.229 573.667 255.527 574.296 255.308C574.662 255.18 575.003 254.881 575.383 254.96C574.819 254.752 574.196 254.71 573.609 254.839C573.47 254.87 573.326 254.911 573.185 254.883C573.045 254.854 572.911 254.728 572.933 254.586C572.96 254.412 573.173 254.351 573.343 254.301C573.752 254.18 574.113 253.905 574.34 253.543C573.878 253.504 573.402 253.653 573.046 253.95C573.363 253.357 573.394 252.645 573.155 252.02C573.138 253.064 572.992 254.052 572.391 254.939Z" fill="#573C20"/>
</svg>
