<svg width="50" height="50" viewBox="0 0 50 50" fill="none" xmlns="http://www.w3.org/2000/svg">
<g clip-path="url(#clip0_846_50)">
<path d="M28.285 5.93231C25.9823 5.93231 25.9823 4.61719 23.6794 4.61719C21.3782 4.61719 21.3782 5.93231 19.0769 5.93231C17.0709 5.93231 16.8151 4.93112 15.2554 4.67584C14.8511 4.60964 14.4785 4.91529 14.4785 5.32495V8.56264C14.4785 12.1943 17.4226 15.1384 21.0542 15.1384L23.6846 16.4535L26.3149 15.1384C29.9466 15.1384 32.8906 12.1943 32.8906 8.56264V5.32479C32.8906 4.91521 32.5181 4.6098 32.1139 4.67568C30.5506 4.93055 30.2948 5.93231 28.285 5.93231Z" fill="#00A63F"/>
<path d="M28.0242 17.7682L24.3423 16.4531L19.0817 17.7682C11.8183 17.7682 5.93018 23.6564 5.93018 30.9197V37.4955C5.93018 40.4008 8.28546 42.756 11.1908 42.756H18.465C19.0407 42.756 19.3888 42.2205 19.2353 41.768C19.0818 41.3154 19.0148 41.018 19.1059 40.4119C19.2883 39.1987 20.2402 38.3159 21.3857 38.1735L29.9566 37.1021C30.3661 37.0509 30.7277 36.8106 30.9335 36.4528L32.5834 33.5846C33.1422 32.6134 34.2549 32.1027 35.3556 32.3125L37.4307 32.708C37.694 32.7582 37.9663 32.7267 38.2112 32.6179L41.0363 31.3621C41.28 31.2538 41.4407 31.0075 41.432 30.7409C41.1987 23.5368 35.2851 17.7682 28.0242 17.7682Z" fill="#00A63F"/>
<path d="M19.0102 40.7846H18.4309C15.5256 40.7846 13.1703 38.4294 13.1703 35.524V30.921C13.1703 23.6577 19.0585 17.7695 26.3218 17.7695H19.0817C11.8183 17.7695 5.93018 23.6577 5.93018 30.921V37.4967C5.93018 40.402 8.28546 42.7573 11.1908 42.7573H18.465C19.0407 42.7573 19.3888 42.2218 19.2352 41.7692C19.2353 41.7693 19.0505 41.0014 19.0102 40.7846Z" fill="#00A63F"/>
<path d="M28.9452 15.1367H18.424C17.6977 15.1367 17.1089 15.7255 17.1089 16.4518C17.1089 17.1781 17.6977 17.767 18.424 17.767H28.9452C29.6715 17.767 30.2603 17.1781 30.2603 16.4518C30.2603 15.7255 29.6715 15.1367 28.9452 15.1367Z" fill="white"/>
<path d="M37.7469 35.4459L35.3228 34.9842C35.0477 34.9318 34.7695 35.0594 34.6298 35.3022L32.5596 38.9004C32.3539 39.2581 31.9922 39.4983 31.5828 39.5495L22.6904 40.6611C22.2248 40.7192 21.9682 41.2324 22.201 41.6398L23.9633 44.7237C24.1974 45.1335 24.6333 45.3864 25.1052 45.3864H38.8086C41.7139 45.3864 44.0692 43.0311 44.0692 40.1258V33.9044C44.0692 33.4285 43.5794 33.1102 43.1445 33.3035L38.527 35.3558C38.2823 35.4646 38.01 35.4961 37.7469 35.4459Z" fill="#00A63F"/>
<path d="M18.5551 5.90551C17.0148 5.74776 16.6671 4.90809 15.2554 4.67701C14.8512 4.61081 14.4785 4.91646 14.4785 5.32612V8.56373C14.4785 11.6604 16.6218 14.2501 19.5039 14.948C18.1749 12.2592 18.378 7.8745 18.5551 5.90551Z" fill="#00A63F"/>
<path d="M21.0543 16.4518C21.0543 15.7255 21.6432 15.1367 22.3695 15.1367H18.424C17.6977 15.1367 17.1089 15.7255 17.1089 16.4518C17.1089 17.1781 17.6977 17.767 18.424 17.767H22.3695C21.6432 17.7671 21.0543 17.1781 21.0543 16.4518Z" fill="#00A63F"/>
<path d="M42.9117 43.4141H23.2148L23.9635 44.7241C24.1977 45.1339 24.6334 45.3868 25.1054 45.3868H38.8088C40.4693 45.3868 41.9477 44.6156 42.9117 43.4141Z" fill="#00A63F"/>
<path d="M21.3639 29.8766C21.4569 30.1229 21.6909 30.2748 21.9396 30.2748C22.0118 30.2748 22.0853 30.262 22.1567 30.235C22.4746 30.115 22.6351 29.7601 22.5151 29.4421L20.5568 24.2531C20.5547 24.2474 20.5524 24.2417 20.5501 24.236C20.4363 23.9597 20.1697 23.7812 19.8709 23.7812C19.8706 23.7812 19.8702 23.7812 19.8699 23.7812C19.5707 23.7816 19.3042 23.9608 19.191 24.2378C19.1891 24.2423 19.1873 24.2469 19.1856 24.2516L17.2094 29.4404C17.0885 29.7579 17.2478 30.1133 17.5653 30.2343C17.8831 30.3554 18.2383 30.1958 18.3592 29.8783L18.7005 28.9823H21.0263L21.3639 29.8766ZM19.1691 27.7517L19.8688 25.9147L20.562 27.7517H19.1691Z" fill="white"/>
<path d="M15.2779 29.0397C14.855 29.0421 14.401 29.0438 14.0537 29.0441V24.3965C14.0537 24.0566 13.7782 23.7812 13.4385 23.7812C13.0987 23.7812 12.8232 24.0566 12.8232 24.3965V29.655C12.8232 29.9545 13.039 30.2105 13.3341 30.2614C13.3779 30.2689 13.4134 30.275 13.999 30.275C14.2802 30.275 14.6883 30.2736 15.2848 30.2702C15.6246 30.2684 15.8985 29.9913 15.8966 29.6516C15.8947 29.3117 15.6143 29.0381 15.2779 29.0397Z" fill="white"/>
<path d="M30.6416 30.2745C30.9814 30.2745 31.2568 29.9991 31.2568 29.6593V28.1962L33.2323 30.1021C33.3517 30.2173 33.5056 30.2746 33.6594 30.2746C33.8206 30.2746 33.9816 30.2116 34.1023 30.0865C34.3382 29.842 34.3312 29.4525 34.0867 29.2166L31.7073 26.9212L33.889 24.9158C34.1391 24.6859 34.1555 24.2967 33.9256 24.0465C33.6957 23.7963 33.3065 23.78 33.0563 24.01L31.2568 25.664V24.3965C31.2568 24.0566 30.9814 23.7812 30.6416 23.7812C30.3018 23.7812 30.0264 24.0566 30.0264 24.3965V29.6594C30.0264 29.9991 30.3018 30.2745 30.6416 30.2745Z" fill="white"/>
<path d="M26.4904 30.2748C27.2047 30.2748 27.8456 30.0402 28.3435 29.5966C28.4412 29.5097 28.534 29.414 28.6195 29.312C28.8379 29.0518 28.8039 28.6637 28.5436 28.4453C28.2832 28.2269 27.8952 28.2608 27.6769 28.5213C27.6296 28.5776 27.5788 28.6301 27.5254 28.6775C27.2522 28.9209 26.904 29.0443 26.4904 29.0443C25.3786 29.0443 24.4741 28.1398 24.4741 27.028C24.4741 25.9163 25.3786 25.0118 26.4904 25.0118C26.8944 25.0118 27.2841 25.1307 27.6173 25.3558C27.8989 25.5462 28.2813 25.4718 28.4715 25.1902C28.6617 24.9086 28.5876 24.5263 28.306 24.3361C27.7686 23.9731 27.1407 23.7812 26.4904 23.7812C24.7001 23.7812 23.2437 25.2377 23.2437 27.028C23.2437 28.8182 24.7001 30.2748 26.4904 30.2748Z" fill="white"/>
<path d="M44.4047 32.3767C44.2301 32.2632 44.0099 32.2458 43.8196 32.3304L38.0773 34.8825L34.9786 34.2923C34.721 34.2428 34.4609 34.3627 34.3302 34.5899L31.8527 38.8958L30.8417 39.0222C30.5045 39.0643 30.2653 39.3719 30.3075 39.709C30.3497 40.0461 30.6574 40.2852 30.9943 40.2432L32.3094 40.0788C32.5009 40.0549 32.6701 39.9424 32.7664 39.7751L35.1783 35.583L38.0361 36.1273C38.1592 36.1507 38.2867 36.1361 38.4011 36.0851L43.4541 33.8393V40.126C43.4541 42.6875 41.3702 44.7713 38.8088 44.7713H24.6993L22.7039 41.2796L28.3639 40.5721C28.7011 40.53 28.9403 40.2224 28.8981 39.8853C28.8559 39.5482 28.5483 39.3092 28.2113 39.3511L21.6356 40.1731C21.4315 40.1987 21.2536 40.3245 21.1617 40.5084C21.0696 40.6924 21.0757 40.9102 21.1777 41.0888L23.808 45.6918C23.9175 45.8835 24.1213 46.0018 24.3422 46.0018H38.8088C42.0487 46.0018 44.6846 43.3659 44.6846 40.126V32.8926C44.6847 32.6843 44.5794 32.4902 44.4047 32.3767Z" fill="#00A63F"/>
<path d="M19.9623 41.7813C19.6273 41.1952 19.6077 40.4845 19.9097 39.8804C20.2117 39.2763 20.7919 38.8658 21.462 38.7825L30.6831 37.6298C30.8746 37.6058 31.0438 37.4934 31.1401 37.326L33.1166 33.8901C33.5447 33.1464 34.3979 32.7547 35.2401 32.9153L37.7198 33.3879C37.8428 33.4113 37.9704 33.3966 38.0849 33.3457L41.689 31.7437C41.9111 31.6449 42.0544 31.4246 42.0544 31.1815V30.9181C42.0544 24.1325 37.1195 18.4786 30.6504 17.3549C30.7939 17.0851 30.8755 16.7777 30.8755 16.4514C30.8755 15.7405 30.4889 15.1184 29.915 14.7835C32.0602 13.5376 33.5059 11.2149 33.5059 8.56061V4.61523C33.5059 4.27538 33.2304 4 32.8906 4C31.576 4 30.8889 4.39236 30.2828 4.73853C29.7411 5.04795 29.2732 5.31512 28.2851 5.31512C27.297 5.31512 26.8291 5.04795 26.2874 4.73853C25.6813 4.39236 24.9942 4 23.6795 4C22.3655 4 21.6789 4.39244 21.0731 4.73869C20.5317 5.04803 20.0643 5.31512 19.0771 5.31512C18.091 5.31512 17.6241 5.04803 17.0833 4.73877C16.4779 4.39244 15.7918 4 14.4787 4C14.1389 4 13.8634 4.27538 13.8634 4.61523V8.56069C13.8634 11.215 15.3091 13.5378 17.4543 14.7836C16.8804 15.1185 16.4938 15.7406 16.4938 16.4515C16.4938 16.7778 16.5755 17.0853 16.7189 17.355C10.2499 18.4787 5.31494 24.1326 5.31494 30.9181V37.4939C5.31494 40.7338 7.95085 43.3697 11.1908 43.3697H19.8097C20.029 43.3697 20.2317 43.2529 20.3418 43.0633C20.4519 42.8736 20.4527 42.6397 20.3439 42.4493L19.9623 41.7813ZM15.0939 8.56069V5.27157C15.6875 5.35795 16.0584 5.57008 16.4724 5.80682C17.0778 6.15316 17.764 6.54559 19.0771 6.54559C20.3911 6.54559 21.0777 6.15316 21.6835 5.8069C22.2249 5.49764 22.6924 5.23047 23.6795 5.23047C24.6676 5.23047 25.1355 5.49764 25.6772 5.80707C26.2834 6.15324 26.9705 6.54559 28.2852 6.54559C29.5999 6.54559 30.2869 6.15324 30.8931 5.80698C31.3082 5.56991 31.6799 5.35762 32.2755 5.2714V8.56069C32.2755 11.8132 29.6564 14.4639 26.4167 14.5186C26.5767 14.2601 26.7242 13.9637 26.8566 13.63C27.3282 12.4418 27.5878 10.875 27.5878 9.21834C27.5878 8.87848 27.3124 8.6031 26.9726 8.6031C26.6328 8.6031 26.3574 8.87848 26.3574 9.21834C26.3574 10.7233 26.1285 12.1288 25.7129 13.1762C25.319 14.169 24.8802 14.5212 24.6242 14.5212H22.7454C22.4894 14.5212 22.0506 14.1689 21.6567 13.1762C21.2411 12.1288 21.0123 10.7233 21.0123 9.21834C21.0123 8.87848 20.7368 8.6031 20.397 8.6031C20.0573 8.6031 19.7818 8.87848 19.7818 9.21834C19.7818 10.875 20.0415 12.4418 20.513 13.63C20.6454 13.9637 20.7929 14.2601 20.953 14.5186C17.713 14.4639 15.0939 11.8132 15.0939 8.56069ZM18.8092 39.3301C18.3653 40.2179 18.3528 41.2484 18.7638 42.1392H11.1908C8.62933 42.1392 6.54541 40.0554 6.54541 37.4939V30.9181C6.54541 24.0056 12.1691 18.3819 19.0817 18.3819H24.9998C25.3396 18.3819 25.6151 18.1065 25.6151 17.7666C25.6151 17.4268 25.3396 17.1514 24.9998 17.1514H18.4241C18.0382 17.1514 17.7242 16.8375 17.7242 16.4515C17.7242 16.0656 18.0382 15.7516 18.4241 15.7516H28.9453C29.3312 15.7516 29.6452 16.0656 29.6452 16.4515C29.6452 16.8375 29.3311 17.1514 28.9453 17.1514H27.6301C27.2904 17.1514 27.0149 17.4268 27.0149 17.7666C27.0149 18.1065 27.2904 18.3819 27.6301 18.3819H28.2877C35.1546 18.3819 40.7497 23.9322 40.8232 30.7821L37.7611 32.1432L35.4707 31.7067C34.1147 31.4484 32.7398 32.0785 32.0502 33.2765L30.2264 36.4469L21.3098 37.5615C20.2305 37.6958 19.2957 38.3569 18.8092 39.3301Z" fill="#00A63F"/>
</g>
<defs>
<clipPath id="clip0_846_50">
<rect width="42" height="42" fill="white" transform="translate(4 4)"/>
</clipPath>
</defs>
</svg>
