<svg xmlns="http://www.w3.org/2000/svg" width="40" height="40" viewBox="0 0 40 40" fill="none" class="svg replaced-svg">
<path d="M34.4264 8.08418C29.4789 8.08418 22.9693 6.41469 20.649 3.32162C20.3403 2.94575 19.7854 2.89154 19.4096 3.20022C19.3652 3.23654 19.3245 3.27726 19.2882 3.32162C16.9676 6.41443 10.458 8.08418 5.51072 8.08418C5.04095 8.08418 4.66016 8.46498 4.66016 8.93475V19.9906C4.66016 29.3424 12.7812 34.9802 19.7351 36.9667C19.8876 37.011 20.0495 37.011 20.202 36.9667C27.156 34.9802 35.277 29.3424 35.277 19.9906V8.93475C35.277 8.46498 34.8962 8.08418 34.4264 8.08418ZM33.5759 19.9906C33.5759 28.2926 26.3005 33.382 19.9686 35.2642C13.6366 33.382 6.36103 28.2926 6.36103 19.9906V9.77027C11.2769 9.604 17.09 8.01933 19.9686 5.12418C22.8474 8.01933 28.6602 9.604 33.5761 9.77001V19.9906H33.5759Z" fill="#00A63F"></path>
<path d="M14.9832 17.9529C14.7111 17.8614 14.4182 18.0093 14.3278 18.2805L13.6479 20.3203L12.6733 18.6958C12.4861 18.3837 11.9721 18.3837 11.785 18.6958L10.8103 20.3203L10.1304 18.2805C10.04 18.0093 9.74766 17.8614 9.47496 17.9529C9.20353 18.0435 9.0568 18.3369 9.14738 18.6083L10.1835 21.7166C10.2475 21.9083 10.4174 22.0457 10.6186 22.0676C10.8169 22.0886 11.0149 21.9925 11.1192 21.8192L12.2291 19.9694L13.339 21.8193C13.4334 21.9763 13.6026 22.0707 13.7832 22.0707C13.8019 22.0707 13.8209 22.0697 13.8396 22.0677C14.0407 22.0457 14.2107 21.9083 14.2747 21.7166L15.3108 18.6084C15.4013 18.3369 15.2546 18.0435 14.9832 17.9529Z" fill="#00A63F"></path>
<path d="M22.7537 17.9529C22.4808 17.8614 22.1887 18.0093 22.0983 18.2805L21.4184 20.3203L20.4438 18.6958C20.2566 18.3837 19.7426 18.3837 19.5555 18.6958L18.5808 20.3203L17.9009 18.2805C17.8103 18.0093 17.5176 17.8614 17.2455 17.9529C16.974 18.0435 16.8273 18.3369 16.9179 18.6083L17.954 21.7166C18.018 21.9083 18.188 22.0457 18.3891 22.0676C18.5877 22.0886 18.7854 21.9925 18.8897 21.8192L19.9996 19.9694L21.1095 21.8193C21.2039 21.9763 21.3731 22.0707 21.5537 22.0707C21.5724 22.0707 21.5914 22.0697 21.6101 22.0677C21.8112 22.0457 21.9812 21.9083 22.0452 21.7166L23.0813 18.6084C23.1718 18.3369 23.0251 18.0435 22.7537 17.9529Z" fill="#00A63F"></path>
<path d="M30.5247 17.9529C30.2526 17.8614 29.9597 18.0093 29.8693 18.2805L29.1894 20.3203L28.2148 18.6958C28.0276 18.3837 27.5136 18.3837 27.3265 18.6958L26.3518 20.3203L25.6719 18.2805C25.5815 18.0093 25.2892 17.8614 25.0165 17.9529C24.745 18.0435 24.5983 18.3369 24.6889 18.6083L25.725 21.7166C25.789 21.9083 25.959 22.0457 26.1601 22.0676C26.3589 22.0886 26.5564 21.9925 26.6607 21.8192L27.7706 19.9694L28.8805 21.8193C28.9749 21.9763 29.1441 22.0707 29.3247 22.0707C29.3434 22.0707 29.3624 22.0697 29.3811 22.0677C29.5822 22.0457 29.7522 21.9083 29.8162 21.7166L30.8523 18.6084C30.9428 18.3369 30.7961 18.0435 30.5247 17.9529Z" fill="#00A63F"></path>
</svg>