<svg xmlns="http://www.w3.org/2000/svg" width="41" height="40" viewBox="0 0 41 40" fill="none" class="svg replaced-svg">
<g clip-path="url(#clip0_842_5662)">
<path d="M37.3646 14.6666H37.2088C36.5453 12.5237 35.5043 10.5686 34.162 8.87086C34.1591 8.86789 34.1576 8.86391 34.1547 8.86102C30.8112 4.63844 25.649 2 20.0312 2C14.4135 2 9.25125 4.63844 5.90789 8.86102C5.905 8.86391 5.90344 8.86789 5.90055 8.87086C4.5582 10.5686 3.51727 12.5237 2.85383 14.6666H2.69797C1.22758 14.6666 0.03125 15.863 0.03125 17.3334V22.6667C0.03125 24.1371 1.22758 25.3334 2.69789 25.3334H2.85375C3.51719 27.4762 4.5582 29.4314 5.90047 31.1291C5.90336 31.1321 5.90492 31.1361 5.90781 31.139C9.25125 35.3616 14.4135 38 20.0312 38C25.649 38 30.8112 35.3616 34.1546 31.139C34.1575 31.1361 34.1591 31.1321 34.162 31.1291C35.5043 29.4314 36.5452 27.4762 37.2087 25.3334H37.3645C38.8349 25.3334 40.0312 24.1371 40.0312 22.6667V17.3334C40.0312 15.863 38.835 14.6666 37.3646 14.6666ZM33.3438 10C34.3948 11.3934 35.2332 12.9611 35.8084 14.6666H28.3058C28.0611 12.9776 27.712 11.4105 27.2684 10H33.3438ZM32.233 8.66664H26.8089C26.0135 6.59016 25.0002 4.93523 23.846 3.78711C27.0837 4.55352 29.9992 6.26984 32.233 8.66664ZM20.6979 3.41367C22.4712 3.80773 24.1305 5.74695 25.3483 8.66672H20.6979V3.41367ZM20.6979 10H25.8466C26.3213 11.3998 26.7004 12.9698 26.9582 14.6666H20.6979V10ZM19.3646 3.41367V8.66672H14.7142C15.932 5.74695 17.5913 3.80773 19.3646 3.41367ZM19.3646 10V14.6666H13.1043C13.3622 12.9698 13.7412 11.3998 14.2159 10H19.3646ZM16.2165 3.78719C15.0623 4.93531 14.049 6.59023 13.2536 8.66672H7.82953C10.0633 6.26984 12.9788 4.55352 16.2165 3.78719ZM6.71867 10H12.7941C12.3505 11.4106 12.0014 12.9776 11.7567 14.6666H4.25406C4.8293 12.9611 5.66781 11.3934 6.71867 10ZM6.71867 30C5.66773 28.6066 4.8293 27.0389 4.25406 25.3334H11.7567C12.0014 27.0224 12.3505 28.5895 12.7941 30H6.71867ZM7.82953 31.3334H13.2536C14.049 33.4098 15.0623 35.0648 16.2165 36.2129C12.9788 35.4465 10.0633 33.7302 7.82953 31.3334ZM19.3646 36.5863C17.5913 36.1923 15.932 34.253 14.7142 31.3333H19.3646V36.5863ZM19.3646 30H14.2159C13.7412 28.6002 13.3621 27.0302 13.1043 25.3334H19.3646V30ZM20.6979 36.5863V31.3333H25.3483C24.1305 34.253 22.4712 36.1923 20.6979 36.5863ZM20.6979 30V25.3334H26.9582C26.7004 27.0302 26.3213 28.6002 25.8466 30H20.6979ZM23.846 36.2128C25.0002 35.0647 26.0135 33.4098 26.8089 31.3333H32.233C29.9992 33.7302 27.0837 35.4465 23.846 36.2128ZM33.3438 30H27.2684C27.712 28.5894 28.0611 27.0224 28.3058 25.3334H35.8084C35.2332 27.0389 34.3947 28.6066 33.3438 30ZM38.6979 22.6666C38.6979 23.402 38.0999 24 37.3645 24H2.69789C1.9625 24 1.36453 23.402 1.36453 22.6666V17.3333C1.36453 16.5979 1.9625 15.9999 2.69789 15.9999H36.7223C36.723 15.9999 36.7236 16.0002 36.7243 16.0002C36.7251 16.0002 36.7259 15.9999 36.7266 15.9999H37.3646C38.1 15.9999 38.698 16.5979 38.698 17.3333L38.6979 22.6666Z" fill="#00A63F"></path>
<path d="M13.5754 17.3669C13.2251 17.2491 12.8482 17.4395 12.7319 17.7885L11.8569 20.4135L10.6027 18.323C10.3619 17.9213 9.70037 17.9213 9.45951 18.323L8.20521 20.4135L7.33021 17.7885C7.21396 17.4395 6.83771 17.2491 6.48677 17.3669C6.13748 17.4835 5.94865 17.8611 6.06521 18.2104L7.39857 22.2104C7.48092 22.4571 7.69967 22.6339 7.95849 22.6622C8.21373 22.6892 8.46857 22.5654 8.60271 22.3425L10.0311 19.962L11.4594 22.3426C11.5808 22.5447 11.7987 22.6662 12.0311 22.6662C12.0551 22.6662 12.0796 22.6648 12.1037 22.6622C12.3624 22.6339 12.5812 22.4572 12.6636 22.2104L13.9969 18.2104C14.1134 17.8611 13.9246 17.4835 13.5754 17.3669Z" fill="#00A63F"></path>
<path d="M23.5754 17.3669C23.2241 17.2491 22.8482 17.4395 22.7319 17.7885L21.8569 20.4135L20.6027 18.323C20.3619 17.9213 19.7004 17.9213 19.4595 18.323L18.2052 20.4135L17.3302 17.7885C17.2136 17.4395 16.837 17.2491 16.4868 17.3669C16.1375 17.4835 15.9486 17.8611 16.0652 18.2104L17.3986 22.2104C17.4809 22.4571 17.6997 22.6339 17.9585 22.6622C18.214 22.6892 18.4686 22.5654 18.6027 22.3425L20.0311 19.962L21.4594 22.3426C21.5808 22.5447 21.7987 22.6662 22.0311 22.6662C22.0551 22.6662 22.0796 22.6648 22.1036 22.6622C22.3624 22.6339 22.5812 22.4572 22.6636 22.2104L23.9969 18.2104C24.1134 17.8611 23.9246 17.4835 23.5754 17.3669Z" fill="#00A63F"></path>
<path d="M33.5754 17.3669C33.2251 17.2491 32.8482 17.4395 32.7319 17.7885L31.8569 20.4135L30.6027 18.323C30.3619 17.9213 29.7004 17.9213 29.4595 18.323L28.2052 20.4135L27.3302 17.7885C27.214 17.4395 26.8377 17.2491 26.4868 17.3669C26.1375 17.4835 25.9486 17.8611 26.0652 18.2104L27.3986 22.2104C27.4809 22.4571 27.6997 22.6339 27.9585 22.6622C28.2144 22.6892 28.4686 22.5654 28.6027 22.3425L30.0311 19.962L31.4594 22.3426C31.5808 22.5447 31.7987 22.6662 32.0311 22.6662C32.0551 22.6662 32.0796 22.6648 32.1036 22.6622C32.3624 22.6339 32.5812 22.4572 32.6636 22.2104L33.9969 18.2104C34.1134 17.8611 33.9246 17.4835 33.5754 17.3669Z" fill="#00A63F"></path>
</g>
<defs>
<clipPath id="clip0_842_5662">
<rect width="40" height="40" fill="white" transform="translate(0.03125)"></rect>
</clipPath>
</defs>
</svg>