<svg xmlns="http://www.w3.org/2000/svg" width="40" height="40" viewBox="0 0 40 40" fill="none" class="svg replaced-svg">
<g clip-path="url(#clip0_857_13105)">
<g clip-path="url(#clip1_857_13105)">
<path d="M3.91873 16.1683C4.04617 16.2202 4.18103 16.246 4.31589 16.246C4.45541 16.246 4.59494 16.2182 4.72595 16.1628L7.88068 14.8315C8.41709 14.6049 8.66868 13.9864 8.44208 13.4497C8.21576 12.913 7.59696 12.6617 7.06027 12.888L6.28876 13.2138C8.68296 7.76343 14.1003 4.17969 20.128 4.17969C27.0197 4.17969 33.038 8.83982 34.7634 15.5121C34.8865 15.9875 35.3144 16.3031 35.7838 16.3031C35.8711 16.3031 35.9601 16.2921 36.0486 16.2693C36.6124 16.1235 36.9514 15.5481 36.8055 14.9842C34.8395 7.38056 27.9813 2.07031 20.128 2.07031C13.2206 2.07031 7.01715 6.20063 4.31232 12.4703L3.95636 11.6265C3.72977 11.0901 3.11123 10.8385 2.57455 11.0648C2.03787 11.2914 1.78656 11.9102 2.01288 12.4466L3.34414 15.6014C3.45291 15.859 3.65945 16.0631 3.91873 16.1683Z" fill="#00A63F"></path>
<path d="M37.8465 27.4788L36.5152 24.3244C36.4065 24.0665 36.1997 23.8627 35.9407 23.7572C35.6814 23.652 35.3911 23.6539 35.1334 23.7627L31.9787 25.0942C31.4423 25.3206 31.1907 25.9394 31.4173 26.476C31.6436 27.0127 32.2624 27.264 32.7991 27.0374L33.6821 26.6647C31.3478 32.2612 25.8546 35.9597 19.7317 35.9597C12.8397 35.9597 6.82136 31.2996 5.09596 24.6273C4.95011 24.0632 4.3747 23.7248 3.81083 23.8701C3.24695 24.0159 2.90803 24.5913 3.05387 25.1552C5.01988 32.7589 11.8781 38.0691 19.7317 38.0691C26.6778 38.0691 32.9123 33.8921 35.5924 27.5629L35.903 28.299C36.073 28.7019 36.4639 28.9439 36.8753 28.9439C37.0118 28.9439 37.1511 28.9172 37.2848 28.8606C37.8215 28.634 38.0728 28.0155 37.8465 27.4788Z" fill="#00A63F"></path>
<path d="M17.8147 31.6795C17.9315 31.7218 18.0523 31.7419 18.1718 31.7419C18.4802 31.7419 18.7804 31.6065 18.9848 31.3593L27.82 20.672C28.0804 20.357 28.1353 19.9203 27.9614 19.5506C27.7873 19.1812 27.4157 18.9453 27.0073 18.9453H23.164V9.38301C23.164 8.93807 22.8849 8.54119 22.4664 8.3904C22.048 8.23989 21.58 8.36815 21.2963 8.71093L12.4611 19.3982C12.2007 19.7129 12.1458 20.1499 12.3196 20.5193C12.4938 20.889 12.8657 21.1249 13.2741 21.1249H17.1174V30.6872C17.1171 31.1321 17.3962 31.529 17.8147 31.6795ZM15.5142 19.0156L21.0546 12.3139V19.9999C21.0546 20.5825 21.5267 21.0546 22.1093 21.0546H24.7666L19.2265 27.7563V20.0703C19.2265 19.4877 18.7541 19.0156 18.1718 19.0156H15.5142Z" fill="#00A63F"></path>
</g>
</g>
<defs>
<clipPath id="clip0_857_13105">
<rect width="40" height="40" fill="white"></rect>
</clipPath>
<clipPath id="clip1_857_13105">
<rect width="36" height="36" fill="white" transform="translate(2 2)"></rect>
</clipPath>
</defs>
</svg>