<svg width="50" height="50" viewBox="0 0 50 50" fill="none" xmlns="http://www.w3.org/2000/svg">
<g clip-path="url(#clip0_809_12150)">
<path d="M36.8358 16.8033H36.693V11.693C36.693 5.24551 31.4475 0 25 0C18.5524 0 13.307 5.24551 13.307 11.693V16.8033H13.1641C8.16699 16.8033 4.10156 20.8688 4.10156 25.8659V40.9374C4.10156 45.9346 8.16699 50 13.1641 50H36.8358C41.833 50 45.8984 45.9346 45.8984 40.9374V25.8659C45.8984 20.8688 41.833 16.8033 36.8358 16.8033ZM16.2367 11.693C16.2367 6.86094 20.1679 2.92969 25 2.92969C29.832 2.92969 33.7633 6.86094 33.7633 11.693V16.8033H16.2367V11.693ZM42.9688 40.9374C42.9688 44.3191 40.2176 47.0703 36.8358 47.0703H13.1641C9.78242 47.0703 7.03125 44.3191 7.03125 40.9374V25.8659C7.03125 22.4842 9.78242 19.733 13.1641 19.733H13.3069H36.693H36.8358C40.2176 19.733 42.9688 22.4842 42.9688 25.8659V40.9374Z" fill="#00A63F"/>
<path d="M26.4648 22.6562H23.5352V27.3438H18.9453V39.4531H23.5352V44.1406H26.4648V39.4531H31.0547V27.3438H26.4648V22.6562ZM28.125 36.5234H21.875V30.2734H28.125V36.5234Z" fill="#00A63F"/>
</g>
<defs>
<clipPath id="clip0_809_12150">
<rect width="50" height="50" fill="white"/>
</clipPath>
</defs>
</svg>
