<svg xmlns="http://www.w3.org/2000/svg" width="41" height="40" viewBox="0 0 41 40" fill="none" class="svg replaced-svg">
<g clip-path="url(#clip0_857_12964)">
<path d="M32.7673 10.4944H27.4673C27.4306 10.44 27.3889 10.3884 27.3409 10.3411L26.2406 9.24087C25.9271 8.92308 25.4483 8.84681 25.0507 9.0502L24.0133 9.57773C23.4236 9.24016 22.7958 8.97958 22.1475 8.80091V7.25152H23.7231C24.0486 7.25152 24.3403 7.05661 24.4674 6.74801C24.5867 6.44858 24.5175 6.10819 24.2901 5.88151L20.5671 2.15774C20.4152 2.00521 20.2133 1.92188 19.9993 1.92188H19.9951C19.7804 1.92329 19.5791 2.00803 19.4329 2.15774L15.7078 5.88151C15.4782 6.11102 15.4104 6.4514 15.534 6.75154C15.6562 7.0552 15.9472 7.25152 16.2769 7.25152H17.8503V8.80091C17.2021 8.97958 16.5764 9.23946 15.9846 9.57773L14.95 9.0509C14.5531 8.84823 14.0743 8.92308 13.7594 9.23875L12.6563 10.3418C12.609 10.3891 12.5673 10.4407 12.5313 10.4951H7.2306C5.85846 10.4951 4.74268 11.6116 4.74268 12.983V31.462C4.74268 32.8348 5.85917 33.952 7.2306 33.952H16.7084L15.635 36.9505H13.5645C13.2523 36.9505 13.0002 37.2033 13.0002 37.5148C13.0002 37.8262 13.253 38.079 13.5645 38.079H26.4334C26.7456 38.079 26.9977 37.8262 26.9977 37.5148C26.9977 37.2033 26.7449 36.9505 26.4334 36.9505H24.3629L23.2895 33.952H32.7673C34.1401 33.952 35.2573 32.8348 35.2573 31.462V12.9823C35.258 11.6102 34.1408 10.4944 32.7673 10.4944ZM12.2086 14.4667L11.1012 14.8262C10.6789 14.9653 10.3951 15.3572 10.3951 15.8007V17.36C10.3951 17.807 10.6811 18.1982 11.1034 18.3331L12.2079 18.6919C12.3879 19.3571 12.6528 19.9962 12.9967 20.5958L12.4684 21.6289C12.2672 22.023 12.3413 22.5004 12.6563 22.8196L13.7622 23.9255C14.0786 24.2376 14.5559 24.3118 14.95 24.1105L15.9825 23.583C16.5841 23.9276 17.2261 24.1931 17.8871 24.3711L18.2451 25.4749C18.3821 25.8993 18.7733 26.1839 19.2189 26.1839H20.7782C21.2238 26.1839 21.6151 25.8986 21.7514 25.4763L22.1122 24.3711C22.7739 24.1917 23.4123 23.9276 24.0154 23.583L25.05 24.1105C25.4462 24.3132 25.9236 24.2376 26.2385 23.9226L27.3416 22.8196C27.6566 22.5046 27.7321 22.0258 27.5294 21.6296L27.0019 20.5936C27.3458 19.9941 27.6114 19.3536 27.7893 18.6919L28.8917 18.3331C29.3168 18.1968 29.6028 17.8056 29.6028 17.3593V15.8C29.6028 15.3565 29.3189 14.9646 28.8945 14.8247L27.7893 14.4653C27.7498 14.3191 27.7053 14.1743 27.6573 14.0303H31.5505V30.4112H8.44737V14.031H12.3406C12.2926 14.1758 12.2481 14.3205 12.2086 14.4667ZM22.1482 14.0289C22.8883 14.6538 23.3354 15.5825 23.3354 16.5796C23.3354 17.6015 22.8735 18.5167 22.1482 19.1297V14.0289ZM17.0629 6.12232L20 3.18737L22.9349 6.12232H21.8213C21.3785 6.12232 21.0183 6.48177 21.0183 6.92314V19.7568C20.697 19.8599 20.3545 19.9164 19.9993 19.9164C19.6434 19.9164 19.3002 19.8599 18.9781 19.7561V6.92314C18.9781 6.48177 18.618 6.12232 18.1752 6.12232H17.0629ZM16.6632 16.5796C16.6632 15.5825 17.1103 14.6538 17.8503 14.0289V19.129C17.1251 18.516 16.6632 17.6008 16.6632 16.5796ZM14.5037 10.0904L15.5199 10.6081C15.8349 10.7698 16.2042 10.7592 16.5022 10.5819C16.9295 10.3334 17.3807 10.1321 17.8496 9.97955V12.6659C16.4316 13.4463 15.5333 14.9441 15.5333 16.5796C15.5333 18.3748 16.5983 19.9249 18.1293 20.6339C18.1639 20.6537 18.1999 20.6706 18.2388 20.6833C18.7797 20.9164 19.3743 21.0456 20 21.0456C20.6271 21.0456 21.2231 20.915 21.7655 20.6805C21.8001 20.6685 21.8333 20.6537 21.8651 20.6353C23.3975 19.927 24.4646 18.3762 24.4646 16.5789C24.4646 14.9434 23.5663 13.4456 22.1482 12.6652V9.97884C22.6157 10.1307 23.067 10.3319 23.4914 10.5791C23.7944 10.7592 24.163 10.7698 24.4759 10.6088L25.4949 10.0911L26.4892 11.0847L25.9723 12.1017C25.8106 12.4166 25.8212 12.786 25.9984 13.084C26.3141 13.627 26.5549 14.2075 26.7138 14.8127C26.807 15.1595 27.0556 15.4194 27.3882 15.5232L28.4736 15.8763V17.2837L27.3882 17.6368C27.0528 17.7456 26.807 18.004 26.7124 18.3508C26.5535 18.9546 26.3134 19.5351 25.9984 20.0746C25.8176 20.3832 25.8077 20.7419 25.9702 21.0583L26.4885 22.0767L25.4942 23.071L24.4716 22.5491C24.1524 22.3895 23.7951 22.4015 23.495 22.5802C22.9519 22.8958 22.3714 23.1359 21.7662 23.2955C21.4251 23.3874 21.1596 23.6402 21.0558 23.9678L20.7005 25.0561H19.2952L18.9414 23.9671C18.832 23.6338 18.5735 23.3895 18.2282 23.2955C17.6251 23.1367 17.0439 22.8965 16.505 22.5837C16.2007 22.4029 15.8426 22.3909 15.5192 22.5526L14.5016 23.0724L13.5065 22.0774L14.0284 21.0555C14.1873 20.7384 14.1753 20.3811 13.9973 20.076C13.6824 19.5358 13.4416 18.9553 13.282 18.3458C13.1888 18.0054 12.9444 17.7477 12.6097 17.6375L11.5228 17.2844V15.8763L12.6054 15.5246C12.9381 15.4194 13.1909 15.1538 13.2834 14.8099C13.4423 14.2075 13.6824 13.627 13.9952 13.0889C14.176 12.7846 14.1887 12.4265 14.027 12.1038L13.5073 11.0854L14.5037 10.0904ZM23.1637 36.9498H16.8341L17.9075 33.9513H22.091L23.1637 36.9498ZM34.1288 31.4613C34.1288 32.212 33.518 32.8228 32.7673 32.8228H7.2306C6.48133 32.8228 5.87117 32.212 5.87117 31.4613V12.9823C5.87117 12.233 6.48062 11.6229 7.2306 11.6229H12.5165L12.9967 12.5635C12.9331 12.6751 12.8731 12.7881 12.8145 12.9018H7.88312C7.57098 12.9018 7.31887 13.1546 7.31887 13.466V30.9761C7.31887 31.2875 7.57169 31.5404 7.88312 31.5404H32.1148C32.4269 31.5404 32.679 31.2875 32.679 30.9761V13.4667C32.679 13.1546 32.4262 12.9025 32.1148 12.9025H27.1827C27.1248 12.7895 27.0655 12.6772 27.0019 12.5663L27.4814 11.6236H32.7673C33.518 11.6236 34.1288 12.233 34.1288 12.983V31.4613Z" fill="#00A63F"></path>
</g>
<defs>
<clipPath id="clip0_857_12964">
<rect width="40" height="40" fill="white" transform="translate(0.03125)"></rect>
</clipPath>
</defs>
</svg>