<svg width="50" height="50" viewBox="0 0 50 50" fill="none" xmlns="http://www.w3.org/2000/svg">
<g clip-path="url(#clip0_847_97)">
<g clip-path="url(#clip1_847_97)">
<path d="M40.689 28.4725C39.2775 27.212 37.4865 26.1865 36.092 25.488C34.8225 24.8555 33.8821 24.4925 33.8646 24.4855C31.6976 23.7235 30.924 22.946 30.6565 22.4285L30.548 22.1165C30.517 22.0065 30.4905 21.9035 30.465 21.804L30.2015 20.324L30.1945 20.2525C30.912 19.337 31.4951 18.2855 31.8841 17.2095L31.9375 17.1265C32.5545 16.5095 32.8885 14.9475 32.8905 14.9325C33.3435 13.6615 33.1745 13.1085 33.034 12.8865L32.9766 12.795L33.0096 12.694C33.0556 12.5565 34.1196 9.2985 32.6511 6.816L32.6241 6.7505C32.6201 6.7285 32.071 4.434 29.3785 3.418C28.365 2.8035 26.6691 2.5 25.1346 2.5C25.0891 2.5 25.045 2.5005 25 2.5015C24.9555 2.5005 24.9116 2.5 24.8661 2.5C23.3316 2.5 21.6351 2.8035 20.6206 3.4185C17.9286 4.435 17.3795 6.7285 17.3745 6.751L17.3491 6.8165C15.8806 9.299 16.944 12.5565 16.99 12.6945L17.0231 12.7955L16.966 12.887C16.826 13.109 16.6561 13.662 17.1096 14.933C17.1111 14.948 17.4455 16.51 18.063 17.127L18.1171 17.21C18.5061 18.2865 19.0895 19.3375 19.806 20.253L19.799 20.3245L19.5356 21.8045C19.5096 21.904 19.4836 22.007 19.4526 22.117L19.344 22.429C19.077 22.9465 18.3036 23.724 16.1371 24.486C16.1186 24.4935 15.1786 24.8565 13.9081 25.488C12.5136 26.187 10.7236 27.212 9.31155 28.4725C9.28155 28.495 6.60855 30.5175 6.83655 35.8965C6.85155 36.287 6.88105 36.69 6.93105 37.1145C6.93105 37.543 7.06805 37.888 7.89555 38.146C7.95105 38.167 12.7706 39.8705 19.7336 40.489L19.6656 40.463C18.7826 40.128 18.1485 39.586 17.7815 38.8525C17.503 38.2945 17.2651 37.3825 17.7146 36.196L17.7246 36.1705L17.7346 36.1455C18.9781 33.0655 21.6256 31.3695 25.1886 31.3695C29.5151 31.3695 32.5365 33.972 32.5365 37.6985C32.5365 38.7375 32.3241 39.593 31.9986 40.3095C38.0166 39.593 42.0525 38.165 42.1045 38.146C42.9315 37.889 43.0695 37.544 43.0695 37.1145C43.1195 36.69 43.1486 36.2875 43.1636 35.8965C43.3921 30.517 40.7185 28.495 40.689 28.4725Z" fill="#00A63F"/>
<path d="M25.0238 44.0273H24.1333C23.0418 44.0273 22.6963 44.3718 22.6963 45.4453V46.0813C22.6963 47.1543 23.0418 47.4998 24.1333 47.4998H25.0238C26.1158 47.4998 26.4608 47.1553 26.4608 46.0813V45.4453C26.4608 44.3718 26.1143 44.0273 25.0238 44.0273Z" fill="#00A63F"/>
<path d="M25.1877 33.9141C22.3687 33.9141 20.8592 35.2056 20.0952 37.0966C19.8952 37.6241 20.0407 37.8786 20.5682 38.0791L22.3137 38.7336C22.3867 38.7581 22.4522 38.7766 22.5137 38.7896C22.5357 38.7941 22.5547 38.7961 22.5757 38.8001C22.6132 38.8061 22.6502 38.8106 22.6837 38.8121C22.6907 38.8121 22.6997 38.8146 22.7067 38.8146C22.7162 38.8146 22.7237 38.8101 22.7327 38.8096C22.7777 38.8076 22.8197 38.7991 22.8582 38.7861C22.8702 38.7821 22.8837 38.7791 22.8957 38.7741C22.9422 38.7526 22.9857 38.7226 23.0262 38.6831C23.0347 38.6746 23.0422 38.6641 23.0502 38.6551C23.0832 38.6181 23.1162 38.5741 23.1482 38.5231C23.1587 38.5066 23.1702 38.4881 23.1802 38.4696C23.2187 38.4031 23.2567 38.3306 23.2962 38.2421C23.7687 37.1876 24.2047 36.6961 25.1692 36.6961C26.0242 36.6961 26.4427 37.1326 26.4427 37.7326C26.4427 38.9326 25.4427 39.1876 24.5142 39.7511C23.7322 40.2231 23.0052 40.9506 23.0052 42.6791C23.0052 43.2426 23.1867 43.4056 23.7322 43.4056H25.3682C25.9147 43.4056 26.0957 43.2426 26.0957 42.6791C26.0957 42.2426 26.3867 41.9506 26.7877 41.6781C27.8787 40.9326 29.9872 40.3511 29.9872 37.6956C29.9887 35.4786 28.2247 33.9141 25.1877 33.9141Z" fill="#00A63F"/>
</g>
</g>
<defs>
<clipPath id="clip0_847_97">
<rect width="50" height="50" fill="white"/>
</clipPath>
<clipPath id="clip1_847_97">
<rect width="50" height="50" fill="white"/>
</clipPath>
</defs>
</svg>
