<svg width="51" height="50" viewBox="0 0 51 50" fill="none" xmlns="http://www.w3.org/2000/svg">
<g clip-path="url(#clip0_828_1278)">
<path d="M7.19741 6.60562H37.2634V11.0396H41.037V5.8698C41.037 4.19052 39.6691 2.83203 37.9993 2.83203H6.46154C4.78232 2.83203 3.42383 4.19052 3.42383 5.8698V28.8698C3.42383 30.549 4.78232 31.917 6.46154 31.917H24.1031V26.7472H7.19741V6.60562ZM22.2257 28.3887H22.2352C22.754 28.3887 23.1785 28.8038 23.1785 29.3321C23.1785 29.8509 22.754 30.2755 22.2352 30.2755C21.7162 30.2755 21.2823 29.8509 21.2823 29.3321C21.2823 28.8038 21.7069 28.3887 22.2257 28.3887Z" fill="#00A63F"/>
<path d="M15.1689 38.1443H13.7915C13.2727 38.1443 12.8481 38.5688 12.8481 39.0877C12.8481 39.6066 13.2727 40.0311 13.7915 40.0311H24.1029V33.8047H18.1029C18.5368 34.9745 18.0274 36.0028 15.1689 38.1443Z" fill="#00A63F"/>
<path d="M43.9898 12.9258H29.7633C27.6784 12.9258 25.9897 14.6144 25.9897 16.6994V43.3975C25.9897 45.4824 27.6784 47.1711 29.7633 47.1711H43.9898C46.0746 47.1711 47.7633 45.4824 47.7633 43.3975V16.6994C47.7633 14.6144 46.0746 12.9258 43.9898 12.9258ZM37.5275 43.8597H36.2256C35.6973 43.8597 35.2822 43.4352 35.2822 42.9163C35.2822 42.388 35.6973 41.9729 36.2256 41.9729H37.5275C38.0558 41.9729 38.4709 42.388 38.4709 42.9163C38.4709 43.4352 38.0558 43.8597 37.5275 43.8597ZM45.4049 39.5956H28.3577V16.8031C28.3577 16.1522 28.886 15.6145 29.5369 15.6145H44.2162C44.8671 15.6145 45.4049 16.1522 45.4049 16.8031V39.5956Z" fill="#00A63F"/>
<path d="M22.7824 12.4652L17.4144 8.46522C17.0748 8.21993 16.6126 8.21993 16.2824 8.46522L10.9239 12.4652C10.6786 12.6445 10.5371 12.9275 10.5371 13.2199C10.5371 13.5218 10.6786 13.7954 10.9239 13.9746L16.2824 17.9747C16.4522 18.0973 16.6503 18.1633 16.8484 18.1633C17.0466 18.1633 17.2446 18.0973 17.4144 17.9747L22.7824 13.9746C23.0277 13.8048 23.1692 13.5218 23.1692 13.2199C23.1692 12.9275 23.0277 12.6445 22.7824 12.4652Z" fill="#00A63F"/>
<path d="M21.3673 17.3789L18.5465 19.4827C18.0182 19.86 17.4428 20.0487 16.8484 20.0487C16.2541 20.0487 15.6692 19.86 15.1786 19.5015L12.3296 17.3789L10.9145 18.4261C10.6786 18.6053 10.5371 18.8883 10.5371 19.1808C10.5371 19.4827 10.6786 19.7657 10.9145 19.9449L16.2824 23.9449C16.4522 24.0676 16.6503 24.1242 16.8484 24.1242C17.0466 24.1242 17.2446 24.0676 17.4144 23.9449L22.7918 19.9449C23.0277 19.7657 23.1692 19.4827 23.1692 19.1902C23.1692 18.8883 23.0277 18.6053 22.7824 18.4261L21.3673 17.3789Z" fill="#00A63F"/>
<path d="M36.4066 28.0611C36.6823 28.2667 37.0603 28.2668 37.3363 28.0615L41.5297 24.9409C41.9478 24.6298 41.9478 24.0036 41.5297 23.6924L37.3363 20.5719C37.0603 20.3665 36.6823 20.3667 36.4066 20.5723L32.2221 23.693C31.8049 24.0041 31.8049 24.6293 32.2221 24.9404L36.4066 28.0611Z" fill="#00A63F"/>
<path d="M40.2447 28.2578L38.4616 29.5786C37.9994 29.9182 37.4522 30.1069 36.8767 30.1069C36.2918 30.1069 35.7447 29.9182 35.2824 29.5786L33.5088 28.2578L31.8956 29.4559C31.6409 29.6446 31.6409 30.022 31.8956 30.2201L36.5843 33.7107C36.7541 33.8333 36.9899 33.8333 37.1598 33.7107L41.8579 30.2201C42.1126 30.022 42.1126 29.6446 41.8579 29.4559L40.2447 28.2578Z" fill="#00A63F"/>
</g>
<defs>
<clipPath id="clip0_828_1278">
<rect width="50" height="50" fill="white" transform="translate(0.59375)"/>
</clipPath>
</defs>
</svg>
