<svg width="50" height="50" viewBox="0 0 50 50" fill="none" xmlns="http://www.w3.org/2000/svg">
<g clip-path="url(#clip0_809_12124)">
<path d="M36.4583 37.5C37.0333 37.5 37.5 37.0333 37.5 36.4583C37.5 35.8833 37.0333 35.4167 36.4583 35.4167H3.125C2.55 35.4167 2.08333 34.95 2.08333 34.375V9.375C2.08333 8.8 2.55 8.33333 3.125 8.33333H36.4583C37.0333 8.33333 37.5 7.86667 37.5 7.29167C37.5 6.71667 37.0333 6.25 36.4583 6.25H3.125C1.40208 6.25 0 7.65208 0 9.375V34.375C0 36.0979 1.40208 37.5 3.125 37.5H18.75V39.7437L7.12083 41.6812C6.55417 41.775 6.17083 42.3125 6.26458 42.8792C6.35 43.3896 6.79167 43.75 7.29167 43.75C7.34792 43.75 7.40417 43.7458 7.4625 43.7354L19.875 41.6667H23.8729L36.2854 43.7354C36.3437 43.7458 36.4021 43.75 36.4583 43.75C36.9604 43.75 37.4021 43.3896 37.4833 42.8792C37.5792 42.3125 37.1937 41.775 36.6271 41.6812L25 39.7437V37.5H36.4583ZM22.9167 39.5833H20.8333V37.5H22.9167V39.5833ZM49.6437 8.58958C49.4187 8.39167 49.1187 8.30208 48.8187 8.34167L25.9021 11.4667C25.3854 11.5396 25 11.9792 25 12.5V31.25C25 31.7708 25.3854 32.2104 25.9021 32.2833L48.8187 35.4083C48.8646 35.4146 48.9125 35.4167 48.9583 35.4167C49.2083 35.4167 49.4521 35.3271 49.6437 35.1562C49.8687 34.9604 50 34.675 50 34.3729V9.37292C50 9.07292 49.8708 8.7875 49.6437 8.58958ZM35.4167 31.4771L27.0833 30.3396V22.9167H35.4167V31.4771ZM35.4167 20.8333H27.0833V13.4104L35.4167 12.2729V20.8333ZM47.9167 33.1812L37.5 31.7604V22.9167H47.9167V33.1812ZM47.9167 20.8333H37.5V11.9896L47.9167 10.5687V20.8333Z" fill="#00A63F"/>
</g>
<defs>
<clipPath id="clip0_809_12124">
<rect width="50" height="50" fill="white"/>
</clipPath>
</defs>
</svg>
