<svg width="50" height="50" viewBox="0 0 50 50" fill="none" xmlns="http://www.w3.org/2000/svg">
<path fill-rule="evenodd" clip-rule="evenodd" d="M14.8237 11.3456C16.6185 8.29523 18.9964 5.62571 21.8024 3.49228C17.247 4.16368 13.1513 6.24734 9.97515 9.28486C11.4403 10.1209 13.0767 10.8078 14.8237 11.3456ZM14.7529 36.8475L12.9104 43.7234L9.6624 42.8531L11.5048 35.9772L8.26228 35.1083C8.13641 35.0746 8.08699 34.9238 8.16839 34.8221L16.0068 25.0356C16.1041 24.9137 16.3017 24.9666 16.325 25.1208L18.22 37.5154C18.2397 37.6442 18.1216 37.7501 17.9957 37.7164L14.7529 36.8475ZM12.5794 20.8497V27.0154L14.8847 24.1371C15.7624 23.0413 17.5337 23.5159 17.7459 24.9037L18.3952 29.1508H37.421V20.8497H12.5794ZM28.1976 3.49219C31.0037 5.62571 33.3817 8.29523 35.1764 11.3456C36.9234 10.8077 38.5599 10.1209 40.0252 9.28477C36.8489 6.24725 32.7531 4.1635 28.1976 3.49219ZM35.8843 12.6271C37.7529 12.0312 39.5009 11.2702 41.0601 10.3439C44.4392 14.0445 46.556 18.9175 46.7302 24.2816H40.1831V20.31C40.1831 19.0978 39.1994 18.1043 37.9909 18.0878C37.4857 16.1774 36.7752 14.3486 35.8843 12.6271ZM37.9811 31.9126C39.1941 31.9014 40.1831 30.9059 40.1831 29.6903V25.719H46.7302C46.5559 31.0829 44.4391 35.9559 41.06 39.6565C39.5007 38.7301 37.7526 37.969 35.8838 37.3732C36.7755 35.6419 37.4798 33.8121 37.9811 31.9126ZM35.1787 38.6554C33.4122 41.6699 31.0557 44.3428 28.2018 46.5076C32.7556 45.8355 36.8498 43.7522 40.0251 40.7155C38.5605 39.8798 36.9248 39.1932 35.1787 38.6554ZM25.7188 46.4971V37.2064C28.4695 37.2582 31.2024 37.6075 33.747 38.2539C31.7663 41.5223 29.0452 44.3512 25.7188 46.4971ZM34.4791 36.9623C35.3252 35.3624 36.0011 33.6706 36.4925 31.9128H25.7188V35.7688C28.7197 35.8236 31.7074 36.2215 34.4791 36.9623ZM36.5018 18.0875C36.0062 16.3202 35.3245 14.6294 34.479 13.0382C31.7073 13.7789 28.7196 14.1769 25.7189 14.2317V18.0876H36.5018V18.0875ZM33.7441 11.7471C31.2003 12.3932 28.4685 12.7421 25.7188 12.7939V3.50351C28.9754 5.60684 31.7268 8.4309 33.7441 11.7471ZM24.2813 3.50342V12.7939C21.5317 12.7421 18.7999 12.3931 16.256 11.7471C18.2735 8.43081 21.0248 5.60675 24.2813 3.50342ZM15.5212 13.0381C14.6758 14.6294 13.994 16.3201 13.4985 18.0874H24.2814V14.2315C21.2805 14.1768 18.293 13.7788 15.5212 13.0381ZM19.4665 36.1573C21.0464 35.9279 22.662 35.7984 24.2814 35.7688V31.9128H18.8176L19.4665 36.1573ZM16.6161 38.8349C18.5612 41.8578 21.1538 44.4793 24.2813 46.4971V37.2064C22.7247 37.2357 21.1738 37.3603 19.6595 37.5802C19.6389 38.5995 18.655 39.3813 17.6235 39.1049L16.6161 38.8349ZM21.7982 46.5076C19.2822 44.5991 17.1529 42.2956 15.4736 39.7113L14.3373 43.952C16.6033 45.2295 19.1212 46.1124 21.7982 46.5076ZM9.91522 30.3417C9.85152 30.1355 9.8172 29.9168 9.8172 29.6904V25.7191H3.27002C3.44423 31.083 5.56113 35.956 8.94024 39.6566C8.97591 39.6354 9.01175 39.6143 9.04769 39.5933L9.74425 36.9938L7.89014 36.4969C6.76521 36.1955 6.31842 34.8326 7.04642 33.9236L9.91522 30.3417ZM12.0092 18.0878C10.8007 18.1043 9.81711 19.0978 9.81711 20.31V24.2815H3.27002C3.44423 18.9175 5.56104 14.0445 8.94015 10.3439C10.4993 11.2702 12.2472 12.0313 14.1159 12.6271C13.225 14.3486 12.5145 16.1773 12.0092 18.0878Z" fill="#00A63F"/>
</svg>
