<svg width="386" height="385" viewBox="0 0 386 385" fill="none" xmlns="http://www.w3.org/2000/svg">
<g clip-path="url(#clip0_6341_5300)">
<path d="M347.628 85.4274C347.628 85.4274 275.883 19.3338 206.586 14.433C137.289 9.54058 64.7279 28.3018 35.3838 68.2914C6.03124 108.273 28.8638 185.793 21.5278 224.966C14.1917 264.13 -0.480333 336.758 50.8803 366.138C102.241 395.517 168.24 379.375 207.68 340.547C247.119 301.72 310.948 322.073 346.004 286.984C381.061 251.895 404.701 135.21 347.636 85.4274H347.628Z" fill="#92E3A9"/>
<path opacity="0.7" d="M347.628 85.4274C347.628 85.4274 275.883 19.3338 206.586 14.433C137.289 9.54058 64.7279 28.3018 35.3838 68.2914C6.03124 108.273 28.8638 185.793 21.5278 224.966C14.1917 264.13 -0.480333 336.758 50.8803 366.138C102.241 395.517 168.24 379.375 207.68 340.547C247.119 301.72 310.948 322.073 346.004 286.984C381.061 251.895 404.701 135.21 347.636 85.4274H347.628Z" fill="white"/>
<g opacity="0.1">
<path d="M96.2337 4.85871V19.4348H25.3047V31.8216H66.9569V30.188H26.9284V21.06H97.8658V4.85871C98.8417 4.52188 99.5484 3.59561 99.5484 2.50093C99.5484 1.11994 98.4295 0 97.0498 0C95.6701 0 94.5511 1.11994 94.5511 2.50093C94.5511 3.59561 95.2578 4.51346 96.2337 4.85871Z" fill="black"/>
<path d="M10.9894 71.1796C10.9894 69.7987 9.87053 68.6787 8.49081 68.6787C7.1111 68.6787 5.99219 69.7987 5.99219 71.1796C5.99219 72.2406 6.64839 73.1417 7.57381 73.5037V105.073L33.3425 127.025H68.5756V125.392H34.4614V85.3684C35.2774 84.9558 35.8495 84.1137 35.8495 83.137C35.8495 81.756 34.7306 80.636 33.3509 80.636C31.9712 80.636 30.8523 81.756 30.8523 83.137C30.8523 84.3411 31.702 85.3516 32.8377 85.5874V124.44L21.5729 114.841V79.6171C22.5487 79.2803 23.2554 78.354 23.2554 77.2593C23.2554 75.8784 22.1365 74.7584 20.7568 74.7584C19.3771 74.7584 18.2582 75.8784 18.2582 77.2593C18.2582 78.354 18.9649 79.2719 19.9408 79.6171V113.451L9.21432 104.315V73.5627C10.2491 73.2511 10.9979 72.308 10.9979 71.1712L10.9894 71.1796Z" fill="black"/>
<path d="M8.58861 139.404H66.9572V137.77H8.58861C8.25209 136.793 7.32668 136.086 6.233 136.086C4.85329 136.086 3.73438 137.206 3.73438 138.587C3.73438 139.968 4.85329 141.088 6.233 141.088C7.32668 141.088 8.24368 140.38 8.58861 139.404Z" fill="black"/>
<path d="M10.2696 281.704V193.776L50.113 151.243H69.1093V149.609H49.4147L8.63749 193.127V281.536C7.5354 281.797 6.71094 282.782 6.71094 283.969C6.71094 285.35 7.82985 286.47 9.20956 286.47C10.5893 286.47 11.7082 285.35 11.7082 283.969C11.7082 282.967 11.1109 282.108 10.2612 281.704H10.2696Z" fill="black"/>
<path d="M19.4078 282.176V198.062L50.1233 164.143H69.1112V162.51H49.4082L17.7841 197.439V282.184C16.8082 282.521 16.1016 283.447 16.1016 284.542C16.1016 285.636 16.8082 286.554 17.7841 286.9V287.043H18.6002H19.4162V286.9C20.3921 286.563 21.0988 285.636 21.0988 284.542C21.0988 283.447 20.3921 282.529 19.4162 282.184L19.4078 282.176Z" fill="black"/>
<path d="M70.4423 331.142V274.749H61.1545C60.8937 273.645 59.9094 272.82 58.7231 272.82C57.5369 272.82 56.561 273.645 56.2918 274.749H41.9058V206.205H81.8502V204.571H40.2821V276.382H56.4685C56.8639 277.241 57.7304 277.831 58.7316 277.831C59.7327 277.831 60.5992 277.233 60.9946 276.382H68.8186V309.021H28.0498V350.728C27.0739 351.065 26.3672 351.991 26.3672 353.086C26.3672 354.467 27.4861 355.587 28.8658 355.587C30.2455 355.587 31.3644 354.467 31.3644 353.086C31.3644 351.991 30.6578 351.073 29.6819 350.728V310.654H68.8102V331.15C67.8343 331.487 67.1276 332.413 67.1276 333.508C67.1276 334.889 68.2465 336.009 69.6262 336.009C71.006 336.009 72.1249 334.889 72.1249 333.508C72.1249 332.413 71.4182 331.495 70.4423 331.15V331.142Z" fill="black"/>
<path d="M209.033 280.542V240.468H207.401V280.542C206.425 280.879 205.719 281.805 205.719 282.9C205.719 284.281 206.838 285.401 208.217 285.401C209.597 285.401 210.716 284.281 210.716 282.9C210.716 281.805 210.009 280.887 209.033 280.542Z" fill="black"/>
<path d="M223.711 280.432V240.468H222.079V280.761C221.355 281.199 220.867 281.99 220.867 282.9C220.867 284.281 221.986 285.401 223.366 285.401C224.746 285.401 225.864 284.281 225.864 282.9C225.864 281.637 224.922 280.601 223.711 280.432Z" fill="black"/>
<path d="M381.053 66.262C381.297 67.3904 382.298 68.2408 383.501 68.2408C384.881 68.2408 386 67.1209 386 65.7399C386 64.3589 384.881 63.239 383.501 63.239C382.517 63.239 381.676 63.8116 381.272 64.6368H355.049L336.709 82.9938H336.221V83.4822L318.773 100.947H293.828V17.7002H352.525V34.0194H381.104C381.398 35.0804 382.357 35.8635 383.501 35.8635C384.881 35.8635 386 34.7435 386 33.3626C386 31.9816 384.881 30.8616 383.501 30.8616C382.467 30.8616 381.575 31.4932 381.196 32.3942H354.157V16.0666H292.196V25.043H266.924V6.34073C267.908 6.00391 268.615 5.07764 268.615 3.98295C268.615 2.60197 267.496 1.48203 266.116 1.48203C264.737 1.48203 263.618 2.60197 263.618 3.98295C263.618 5.07764 264.324 5.99549 265.292 6.34073V26.6766H292.196V102.563H317.141L297.564 122.158H180.01L156.379 98.5046H50.0398V36.6466H13.4943V13.0015H68.8931C69.2885 13.8604 70.1551 14.4498 71.1562 14.4498C72.5359 14.4498 73.6548 13.3299 73.6548 11.9489C73.6548 10.5679 72.5359 9.44795 71.1562 9.44795C69.9784 9.44795 68.9941 10.2732 68.7249 11.3763H11.8706V38.2886H48.4077V66.7757H38.8171L23.7748 51.7111H4.92995C4.66915 50.5996 3.68484 49.7744 2.49863 49.7744C1.11891 49.7744 0 50.8943 0 52.2753C0 53.6563 1.11891 54.7762 2.49863 54.7762C3.49976 54.7762 4.34946 54.1868 4.75328 53.3363H23.0934L38.1356 68.4008H48.4077V100.138H155.706L179.337 123.792H363.933V158.055H328.582C328.145 157.314 327.354 156.818 326.437 156.818C325.057 156.818 323.938 157.937 323.938 159.318C323.938 160.699 325.057 161.819 326.437 161.819C327.69 161.819 328.725 160.893 328.902 159.681H363.941V180.084H328.792C328.456 179.107 327.53 178.4 326.437 178.4C325.057 178.4 323.938 179.52 323.938 180.901C323.938 182.282 325.057 183.402 326.437 183.402C327.53 183.402 328.447 182.694 328.792 181.717H363.941V210.095C362.881 210.179 362.015 210.92 361.737 211.914H328.885V252.712H330.517V213.547H361.83C362.208 214.448 363.1 215.088 364.135 215.088C365.515 215.088 366.634 213.968 366.634 212.587C366.634 211.737 366.213 210.988 365.565 210.541V122.175H299.869L319.446 102.58H381.146C381.482 103.557 382.408 104.264 383.501 104.264C384.881 104.264 386 103.144 386 101.763C386 100.382 384.881 99.2625 383.501 99.2625C382.408 99.2625 381.491 99.9698 381.146 100.947H321.069L337.374 84.6274H381.188C381.566 85.5284 382.458 86.16 383.493 86.16C384.873 86.16 385.992 85.04 385.992 83.659C385.992 82.278 384.873 81.1581 383.493 81.1581C382.34 81.1581 381.381 81.9412 381.087 83.0022H338.997L355.705 66.2788H381.045L381.053 66.262Z" fill="black"/>
<path d="M118.544 276.374H99.792V301.762C98.8161 302.099 98.1094 303.025 98.1094 304.12C98.1094 305.501 99.2283 306.621 100.608 306.621C101.988 306.621 103.107 305.501 103.107 304.12C103.107 303.025 102.4 302.107 101.424 301.762V278.007H120.176V238.843H118.544V276.382V276.374Z" fill="black"/>
<path d="M376.165 121.333C373.018 121.333 370.461 123.893 370.461 127.042C370.461 130.192 373.018 132.751 376.165 132.751C379.311 132.751 381.869 130.192 381.869 127.042C381.869 123.893 379.311 121.333 376.165 121.333ZM376.165 131.126C373.919 131.126 372.085 129.299 372.085 127.042C372.085 124.785 373.91 122.958 376.165 122.958C378.42 122.958 380.245 124.785 380.245 127.042C380.245 129.299 378.42 131.126 376.165 131.126Z" fill="black"/>
<path d="M41.9062 187.427C41.9062 190.576 44.4638 193.136 47.6102 193.136C50.7566 193.136 53.3141 190.576 53.3141 187.427C53.3141 184.277 50.7566 181.717 47.6102 181.717C44.4638 181.717 41.9062 184.277 41.9062 187.427ZM51.6904 187.427C51.6904 189.675 49.8648 191.511 47.6102 191.511C45.3555 191.511 43.5299 189.683 43.5299 187.427C43.5299 185.17 45.3555 183.343 47.6102 183.343C49.8648 183.343 51.6904 185.17 51.6904 187.427Z" fill="black"/>
<path d="M127.516 14.433C130.663 14.433 133.22 11.8731 133.22 8.72378C133.22 5.57446 130.663 3.01459 127.516 3.01459C124.37 3.01459 121.812 5.57446 121.812 8.72378C121.812 11.8731 124.37 14.433 127.516 14.433ZM127.516 4.63977C129.763 4.63977 131.597 6.46705 131.597 8.72378C131.597 10.9805 129.771 12.8078 127.516 12.8078C125.262 12.8078 123.436 10.9805 123.436 8.72378C123.436 6.46705 125.262 4.63977 127.516 4.63977Z" fill="black"/>
<path d="M160.126 14.433C163.272 14.433 165.83 11.8731 165.83 8.72378C165.83 5.57446 163.272 3.01459 160.126 3.01459C156.979 3.01459 154.422 5.57446 154.422 8.72378C154.422 11.8731 156.979 14.433 160.126 14.433ZM160.126 4.63977C162.372 4.63977 164.206 6.46705 164.206 8.72378C164.206 10.9805 162.38 12.8078 160.126 12.8078C157.871 12.8078 156.046 10.9805 156.046 8.72378C156.046 6.46705 157.871 4.63977 160.126 4.63977Z" fill="black"/>
<path d="M49.2508 343.284C46.1044 343.284 43.5469 345.844 43.5469 348.993C43.5469 352.143 46.1044 354.703 49.2508 354.703C52.3972 354.703 54.9547 352.143 54.9547 348.993C54.9547 345.844 52.3972 343.284 49.2508 343.284ZM49.2508 353.077C47.0046 353.077 45.1706 351.25 45.1706 348.993C45.1706 346.737 46.9962 344.909 49.2508 344.909C51.5055 344.909 53.3311 346.737 53.3311 348.993C53.3311 351.25 51.5055 353.077 49.2508 353.077Z" fill="black"/>
<path d="M85.9305 273.923C82.7841 273.923 80.2266 276.483 80.2266 279.633C80.2266 282.782 82.7841 285.342 85.9305 285.342C89.0769 285.342 91.6344 282.782 91.6344 279.633C91.6344 276.483 89.0769 273.923 85.9305 273.923ZM85.9305 283.717C83.6843 283.717 81.8502 281.889 81.8502 279.633C81.8502 277.376 83.6758 275.549 85.9305 275.549C88.1852 275.549 90.0107 277.376 90.0107 279.633C90.0107 281.889 88.1852 283.717 85.9305 283.717Z" fill="black"/>
<path d="M376.165 193.144C373.018 193.144 370.461 195.704 370.461 198.853C370.461 202.003 373.018 204.563 376.165 204.563C379.311 204.563 381.869 202.003 381.869 198.853C381.869 195.704 379.311 193.144 376.165 193.144ZM376.165 202.937C373.919 202.937 372.085 201.11 372.085 198.853C372.085 196.597 373.91 194.769 376.165 194.769C378.42 194.769 380.245 196.597 380.245 198.853C380.245 201.11 378.42 202.937 376.165 202.937Z" fill="black"/>
</g>
<path d="M85.164 313.652C85.2061 313.677 86.0895 310.258 86.1231 310.039C86.4765 307.471 85.6604 302.293 83.044 301.021C81.1595 300.112 79.0563 301.206 78.3664 303.092C77.6682 305.021 78.5515 307.387 79.6031 309.012C80.8398 310.924 85.1556 313.644 85.1556 313.644L85.164 313.652Z" fill="#92E3A9"/>
<path d="M33.5914 312.532C35.6778 313.441 40.776 313.332 40.776 313.332C40.8264 313.332 39.6823 309.989 39.5813 309.787C38.4624 307.446 34.929 303.581 32.0434 303.968C29.9738 304.246 28.8128 306.326 29.284 308.28C29.7635 310.275 31.8078 311.757 33.583 312.532H33.5914Z" fill="#92E3A9"/>
<path d="M35.3518 327.31C37.5139 327.622 42.0653 326.308 42.427 326.199C43.1421 328.75 44.0928 331.302 45.1865 333.845C45.809 335.293 46.4905 336.733 47.1803 338.173C46.7681 337.567 46.3895 337.019 46.3306 336.952C44.6312 334.99 40.1976 332.194 37.5307 333.331C35.6042 334.148 35.0405 336.455 36.008 338.215C36.9923 340.017 39.3563 340.901 41.2745 341.179C43.2179 341.465 47.1214 340.413 48.1478 340.126C48.417 340.674 48.6862 341.23 48.9639 341.768C50.2847 344.396 51.6055 347.006 52.8338 349.616C53.2628 350.534 53.6582 351.452 54.0536 352.37C53.6835 351.831 53.3722 351.376 53.3133 351.317C51.6139 349.355 47.1803 346.56 44.5134 347.697C42.5869 348.513 42.0232 350.821 42.9907 352.581C43.975 354.383 46.339 355.267 48.2572 355.545C50.1164 355.814 53.7255 354.879 54.9454 354.543C55.324 355.494 55.7026 356.446 56.0223 357.389C56.2242 358.037 56.4681 358.643 56.6364 359.309C56.8215 359.957 56.9982 360.605 57.1748 361.245C57.4693 362.492 57.789 363.772 58.0498 364.984C58.2349 365.835 58.4031 366.643 58.563 367.46C58.1423 366.542 57.2842 364.757 57.2001 364.622C55.8204 362.424 51.8663 358.989 49.048 359.704C47.0205 360.218 46.1119 362.416 46.8017 364.302C47.5084 366.23 49.7126 367.468 51.5634 368.032C53.5994 368.656 58.1171 368.083 58.6807 368.007C58.9499 369.354 59.2023 370.676 59.4211 371.923C59.9847 375.131 60.3885 377.96 60.683 380.242H62.6096C62.2646 377.901 61.7851 374.963 61.1121 371.611C60.8428 370.239 60.5316 368.773 60.1866 367.283C60.5232 367.148 62.4497 366.365 64.1575 365.414C65.6466 367.022 69.4492 368.908 69.9456 369.152C69.424 370.432 68.9108 371.662 68.406 372.824C67.1525 375.72 65.9663 378.221 64.9736 380.251H67.0684C67.9433 378.339 68.9445 376.066 69.9961 373.497C70.5261 372.201 71.0729 370.811 71.6113 369.38C72.1582 369.498 76.6254 370.407 78.7118 369.935C80.6047 369.506 82.893 368.437 83.7343 366.567C84.5588 364.74 83.8184 362.483 81.8414 361.81C79.0904 360.883 74.884 364.016 73.3444 366.104C73.2519 366.23 72.419 367.67 71.9058 368.597C72.1245 368.007 72.3433 367.443 72.562 366.837C72.9995 365.641 73.4033 364.428 73.8408 363.132C74.0342 362.5 74.2193 361.852 74.4128 361.203C74.6147 360.563 74.7578 359.864 74.9344 359.191C75.3046 357.616 75.6075 356.008 75.8767 354.374C76.9283 354.753 80.672 356.058 82.6154 355.924C84.5504 355.789 86.9733 355.073 88.0922 353.355C89.1859 351.671 88.7989 349.33 86.9396 348.37C84.3569 347.04 79.7298 349.49 77.8958 351.326C77.778 351.444 76.6086 352.901 75.9776 353.717C76.1291 352.732 76.2889 351.755 76.4151 350.753C76.7769 347.873 77.0461 344.943 77.3321 342.021C77.4162 341.128 77.5172 340.236 77.6097 339.343C77.9799 339.486 82.4051 341.128 84.5756 340.977C86.5106 340.842 88.9335 340.126 90.0524 338.409C91.1461 336.724 90.7591 334.384 88.8998 333.424C86.3171 332.093 81.69 334.544 79.856 336.379C79.7214 336.514 78.0388 338.628 77.635 339.183C77.8453 337.221 78.064 335.268 78.3669 333.348C78.7791 330.704 79.326 328.127 80.041 325.668C80.2177 325.736 84.8196 327.47 87.049 327.319C88.9839 327.184 91.4069 326.468 92.5258 324.75C93.6194 323.066 93.2325 320.725 91.3732 319.765C88.7904 318.435 84.1634 320.885 82.3294 322.721C82.2116 322.839 80.9244 324.447 80.3355 325.222C80.2514 325.18 80.2682 325.188 80.1841 325.146C80.9833 322.527 82.0854 320.085 83.2295 317.854C83.8941 316.557 84.5924 315.361 85.3075 314.208C86.132 314.62 89.9178 316.464 91.9453 316.54C93.8802 316.616 96.3705 316.178 97.666 314.595C98.9364 313.046 98.8102 310.671 97.0687 309.509C94.6458 307.901 89.7832 309.837 87.7557 311.454C87.6463 311.538 86.6199 312.557 85.888 313.315C86.2161 312.801 86.5442 312.263 86.8723 311.774C88.0838 309.947 89.312 308.339 90.4057 306.932C91.0367 306.132 91.6172 305.425 92.1724 304.768C93.1904 304.751 97.3043 304.625 99.0962 303.783C100.846 302.958 102.857 301.425 103.277 299.413C103.69 297.442 102.487 295.404 100.4 295.177C97.5146 294.865 94.0822 298.823 93.0221 301.198C92.9296 301.4 91.8696 304.768 91.9285 304.768C91.9285 304.768 91.9789 304.768 91.9873 304.768C91.4405 305.391 90.86 306.065 90.2459 306.806C89.1185 308.195 87.8566 309.778 86.5947 311.589C85.3328 313.399 84.0119 315.395 82.8089 317.626C81.5974 319.858 80.4449 322.275 79.5699 324.919C79.5615 324.952 79.5531 324.978 79.5447 325.011C79.5615 324.161 79.5194 321.778 79.4942 321.593C79.1577 319.016 77.004 314.241 74.152 313.711C72.0909 313.332 70.3494 314.94 70.1896 316.944C70.0213 318.991 71.502 321.037 72.949 322.325C74.5811 323.782 79.0988 325.197 79.4606 325.306C78.6529 327.832 78.0304 330.485 77.5508 333.205C77.2732 334.762 77.0461 336.337 76.8273 337.92C76.8189 337.188 76.8021 336.522 76.7853 336.43C76.4487 333.853 74.295 329.079 71.4431 328.548C69.3819 328.169 67.6405 329.777 67.4806 331.782C67.3124 333.828 68.793 335.874 70.24 337.162C71.7039 338.476 75.5402 339.756 76.5581 340.076C76.4824 340.682 76.3983 341.288 76.331 341.895C75.986 344.808 75.6495 347.722 75.2289 350.576C75.0859 351.578 74.9008 352.564 74.7241 353.549C74.7157 352.892 74.6989 352.345 74.6905 352.261C74.3539 349.684 72.2002 344.909 69.3483 344.379C67.2871 344 65.5457 345.608 65.3858 347.612C65.2175 349.659 66.6982 351.705 68.1452 352.993C69.5418 354.248 73.0668 355.46 74.2782 355.848C74.0679 356.85 73.8576 357.852 73.6052 358.812C73.4201 359.469 73.2855 360.109 73.0668 360.749C72.8564 361.389 72.6545 362.028 72.4526 362.66C72.0152 363.864 71.5777 365.102 71.115 366.264C70.8037 367.072 70.4924 367.839 70.1811 368.613C70.341 367.62 70.6018 365.658 70.6102 365.489C70.6523 363.763 70.0381 360.959 68.8183 358.989C68.8183 358.736 68.8183 358.483 68.7678 358.231C68.4481 356.244 66.5888 354.77 64.5613 355.309C61.7514 356.058 59.9763 360.984 59.8417 363.578C59.8417 363.729 59.9343 365.397 60.0184 366.449C59.8754 365.835 59.7492 365.245 59.5977 364.614C59.3033 363.367 58.9752 362.138 58.6218 360.816C58.4283 360.184 58.2348 359.544 58.0414 358.896C57.8647 358.248 57.5871 357.591 57.3599 356.934C56.8047 355.418 56.1653 353.903 55.4922 352.395C56.5775 352.134 60.4222 351.157 61.9702 349.97C63.5097 348.791 65.1334 346.855 65.125 344.808C65.1082 342.796 63.4929 341.061 61.4149 341.288C58.5293 341.6 56.0223 346.206 55.5007 348.749C55.467 348.909 55.2988 350.779 55.223 351.806C54.8108 350.905 54.407 349.995 53.9527 349.094C52.6655 346.492 51.2774 343.899 49.9061 341.305C49.4854 340.514 49.0732 339.714 48.661 338.922C49.048 338.83 53.6414 337.769 55.3745 336.438C56.914 335.259 58.5377 333.323 58.5293 331.276C58.5125 329.264 56.8972 327.529 54.8192 327.757C51.9336 328.068 49.4266 332.674 48.905 335.217C48.8629 335.411 48.6273 338.097 48.5937 338.779C47.6851 337.028 46.7933 335.276 45.9857 333.508C44.8668 331.074 43.9077 328.624 43.1505 326.182C43.3272 326.14 48.131 325.045 49.9061 323.689C51.4457 322.51 53.0693 320.582 53.0609 318.527C53.0441 316.515 51.4288 314.78 49.3508 315.008C46.4652 315.319 43.9582 319.925 43.4366 322.468C43.4029 322.637 43.2179 324.683 43.1505 325.66C43.058 325.668 43.0748 325.66 42.9823 325.677C42.1999 323.049 41.7792 320.405 41.5016 317.913C41.3418 316.473 41.2661 315.083 41.224 313.728C42.141 313.618 46.3138 313.062 48.0468 312.01C49.7042 311.008 51.5382 309.265 51.7485 307.227C51.9504 305.231 50.5371 303.32 48.4423 303.32C45.5398 303.32 42.5448 307.614 41.7456 310.082C41.7035 310.216 41.4091 311.631 41.2156 312.667C41.2072 312.052 41.1819 311.429 41.1903 310.839C41.1903 308.642 41.3334 306.629 41.468 304.844C41.5521 303.833 41.6531 302.916 41.754 302.065C42.5953 301.484 45.952 299.11 46.9868 297.417C47.9964 295.758 48.8208 293.375 48.0637 291.464C47.3233 289.594 45.1949 288.558 43.3356 289.518C40.7529 290.857 40.0798 296.053 40.5005 298.613C40.5341 298.832 41.51 302.225 41.5521 302.2C41.5521 302.2 41.5942 302.175 41.6026 302.166C41.4932 302.983 41.3754 303.867 41.2745 304.827C41.0978 306.612 40.9127 308.625 40.8622 310.831C40.8034 313.037 40.8034 315.437 41.0305 317.963C41.2576 320.498 41.6194 323.15 42.3513 325.828C42.3513 325.862 42.3681 325.887 42.3766 325.921C41.9223 325.205 40.5762 323.235 40.4584 323.1C38.759 321.138 34.3254 318.342 31.6585 319.479C29.732 320.296 29.1683 322.603 30.1358 324.363C31.1201 326.165 33.4841 327.049 35.4023 327.327L35.3518 327.31Z" fill="#92E3A9"/>
<path opacity="0.3" d="M33.5914 312.532C35.6778 313.441 40.776 313.332 40.776 313.332C40.8264 313.332 39.6823 309.989 39.5813 309.787C38.4624 307.446 34.929 303.581 32.0434 303.968C29.9738 304.246 28.8128 306.326 29.284 308.28C29.7635 310.275 31.8078 311.757 33.583 312.532H33.5914Z" fill="#92E3A9"/>
<path opacity="0.3" d="M85.164 313.652C85.2061 313.677 86.0895 310.258 86.1231 310.039C86.4765 307.471 85.6604 302.293 83.044 301.021C81.1595 300.112 79.0563 301.206 78.3664 303.092C77.6682 305.021 78.5515 307.387 79.6031 309.012C80.8398 310.924 85.1556 313.644 85.1556 313.644L85.164 313.652Z" fill="#92E3A9"/>
<path opacity="0.3" d="M35.3518 327.31C37.5139 327.622 42.0653 326.308 42.427 326.199C43.1421 328.75 44.0928 331.302 45.1865 333.845C45.809 335.293 46.4905 336.733 47.1803 338.173C46.7681 337.567 46.3895 337.019 46.3306 336.952C44.6312 334.99 40.1976 332.194 37.5307 333.331C35.6042 334.148 35.0405 336.455 36.008 338.215C36.9923 340.017 39.3563 340.901 41.2745 341.179C43.2179 341.465 47.1214 340.413 48.1478 340.126C48.417 340.674 48.6862 341.23 48.9639 341.768C50.2847 344.396 51.6055 347.006 52.8338 349.616C53.2628 350.534 53.6582 351.452 54.0536 352.37C53.6835 351.831 53.3722 351.376 53.3133 351.317C51.6139 349.355 47.1803 346.56 44.5134 347.697C42.5869 348.513 42.0232 350.821 42.9907 352.581C43.975 354.383 46.339 355.267 48.2572 355.545C50.1164 355.814 53.7255 354.879 54.9454 354.543C55.324 355.494 55.7026 356.446 56.0223 357.389C56.2242 358.037 56.4681 358.643 56.6364 359.309C56.8215 359.957 56.9982 360.605 57.1748 361.245C57.4693 362.492 57.789 363.772 58.0498 364.984C58.2349 365.835 58.4031 366.643 58.563 367.46C58.1423 366.542 57.2842 364.757 57.2001 364.622C55.8204 362.424 51.8663 358.989 49.048 359.704C47.0205 360.218 46.1119 362.416 46.8017 364.302C47.5084 366.23 49.7126 367.468 51.5634 368.032C53.5994 368.656 58.1171 368.083 58.6807 368.007C58.9499 369.354 59.2023 370.676 59.4211 371.923C59.9847 375.131 60.3885 377.96 60.683 380.242H62.6096C62.2646 377.901 61.7851 374.963 61.1121 371.611C60.8428 370.239 60.5316 368.773 60.1866 367.283C60.5232 367.148 62.4497 366.365 64.1575 365.414C65.6466 367.022 69.4492 368.908 69.9456 369.152C69.424 370.432 68.9108 371.662 68.406 372.824C67.1525 375.72 65.9663 378.221 64.9736 380.251H67.0684C67.9433 378.339 68.9445 376.066 69.9961 373.497C70.5261 372.201 71.0729 370.811 71.6113 369.38C72.1582 369.498 76.6254 370.407 78.7118 369.935C80.6047 369.506 82.893 368.437 83.7343 366.567C84.5588 364.74 83.8184 362.483 81.8414 361.81C79.0904 360.883 74.884 364.016 73.3444 366.104C73.2519 366.23 72.419 367.67 71.9058 368.597C72.1245 368.007 72.3433 367.443 72.562 366.837C72.9995 365.641 73.4033 364.428 73.8408 363.132C74.0342 362.5 74.2193 361.852 74.4128 361.203C74.6147 360.563 74.7578 359.864 74.9344 359.191C75.3046 357.616 75.6075 356.008 75.8767 354.374C76.9283 354.753 80.672 356.058 82.6154 355.924C84.5504 355.789 86.9733 355.073 88.0922 353.355C89.1859 351.671 88.7989 349.33 86.9396 348.37C84.3569 347.04 79.7298 349.49 77.8958 351.326C77.778 351.444 76.6086 352.901 75.9776 353.717C76.1291 352.732 76.2889 351.755 76.4151 350.753C76.7769 347.873 77.0461 344.943 77.3321 342.021C77.4162 341.128 77.5172 340.236 77.6097 339.343C77.9799 339.486 82.4051 341.128 84.5756 340.977C86.5106 340.842 88.9335 340.126 90.0524 338.409C91.1461 336.724 90.7591 334.384 88.8998 333.424C86.3171 332.093 81.69 334.544 79.856 336.379C79.7214 336.514 78.0388 338.628 77.635 339.183C77.8453 337.221 78.064 335.268 78.3669 333.348C78.7791 330.704 79.326 328.127 80.041 325.668C80.2177 325.736 84.8196 327.47 87.049 327.319C88.9839 327.184 91.4069 326.468 92.5258 324.75C93.6194 323.066 93.2325 320.725 91.3732 319.765C88.7904 318.435 84.1634 320.885 82.3294 322.721C82.2116 322.839 80.9244 324.447 80.3355 325.222C80.2514 325.18 80.2682 325.188 80.1841 325.146C80.9833 322.527 82.0854 320.085 83.2295 317.854C83.8941 316.557 84.5924 315.361 85.3075 314.208C86.132 314.62 89.9178 316.464 91.9453 316.54C93.8802 316.616 96.3705 316.178 97.666 314.595C98.9364 313.046 98.8102 310.671 97.0687 309.509C94.6458 307.901 89.7832 309.837 87.7557 311.454C87.6463 311.538 86.6199 312.557 85.888 313.315C86.2161 312.801 86.5442 312.263 86.8723 311.774C88.0838 309.947 89.312 308.339 90.4057 306.932C91.0367 306.132 91.6172 305.425 92.1724 304.768C93.1904 304.751 97.3043 304.625 99.0962 303.783C100.846 302.958 102.857 301.425 103.277 299.413C103.69 297.442 102.487 295.404 100.4 295.177C97.5146 294.865 94.0822 298.823 93.0221 301.198C92.9296 301.4 91.8696 304.768 91.9285 304.768C91.9285 304.768 91.9789 304.768 91.9873 304.768C91.4405 305.391 90.86 306.065 90.2459 306.806C89.1185 308.195 87.8566 309.778 86.5947 311.589C85.3328 313.399 84.0119 315.395 82.8089 317.626C81.5974 319.858 80.4449 322.275 79.5699 324.919C79.5615 324.952 79.5531 324.978 79.5447 325.011C79.5615 324.161 79.5194 321.778 79.4942 321.593C79.1577 319.016 77.004 314.241 74.152 313.711C72.0909 313.332 70.3494 314.94 70.1896 316.944C70.0213 318.991 71.502 321.037 72.949 322.325C74.5811 323.782 79.0988 325.197 79.4606 325.306C78.6529 327.832 78.0304 330.485 77.5508 333.205C77.2732 334.762 77.0461 336.337 76.8273 337.92C76.8189 337.188 76.8021 336.522 76.7853 336.43C76.4487 333.853 74.295 329.079 71.4431 328.548C69.3819 328.169 67.6405 329.777 67.4806 331.782C67.3124 333.828 68.793 335.874 70.24 337.162C71.7039 338.476 75.5402 339.756 76.5581 340.076C76.4824 340.682 76.3983 341.288 76.331 341.895C75.986 344.808 75.6495 347.722 75.2289 350.576C75.0859 351.578 74.9008 352.564 74.7241 353.549C74.7157 352.892 74.6989 352.345 74.6905 352.261C74.3539 349.684 72.2002 344.909 69.3483 344.379C67.2871 344 65.5457 345.608 65.3858 347.612C65.2175 349.659 66.6982 351.705 68.1452 352.993C69.5418 354.248 73.0668 355.46 74.2782 355.848C74.0679 356.85 73.8576 357.852 73.6052 358.812C73.4201 359.469 73.2855 360.109 73.0668 360.749C72.8564 361.389 72.6545 362.028 72.4526 362.66C72.0152 363.864 71.5777 365.102 71.115 366.264C70.8037 367.072 70.4924 367.839 70.1811 368.613C70.341 367.62 70.6018 365.658 70.6102 365.489C70.6523 363.763 70.0381 360.959 68.8183 358.989C68.8183 358.736 68.8183 358.483 68.7678 358.231C68.4481 356.244 66.5888 354.77 64.5613 355.309C61.7514 356.058 59.9763 360.984 59.8417 363.578C59.8417 363.729 59.9343 365.397 60.0184 366.449C59.8754 365.835 59.7492 365.245 59.5977 364.614C59.3033 363.367 58.9752 362.138 58.6218 360.816C58.4283 360.184 58.2348 359.544 58.0414 358.896C57.8647 358.248 57.5871 357.591 57.3599 356.934C56.8047 355.418 56.1653 353.903 55.4922 352.395C56.5775 352.134 60.4222 351.157 61.9702 349.97C63.5097 348.791 65.1334 346.855 65.125 344.808C65.1082 342.796 63.4929 341.061 61.4149 341.288C58.5293 341.6 56.0223 346.206 55.5007 348.749C55.467 348.909 55.2988 350.779 55.223 351.806C54.8108 350.905 54.407 349.995 53.9527 349.094C52.6655 346.492 51.2774 343.899 49.9061 341.305C49.4854 340.514 49.0732 339.714 48.661 338.922C49.048 338.83 53.6414 337.769 55.3745 336.438C56.914 335.259 58.5377 333.323 58.5293 331.276C58.5125 329.264 56.8972 327.529 54.8192 327.757C51.9336 328.068 49.4266 332.674 48.905 335.217C48.8629 335.411 48.6273 338.097 48.5937 338.779C47.6851 337.028 46.7933 335.276 45.9857 333.508C44.8668 331.074 43.9077 328.624 43.1505 326.182C43.3272 326.14 48.131 325.045 49.9061 323.689C51.4457 322.51 53.0693 320.582 53.0609 318.527C53.0441 316.515 51.4288 314.78 49.3508 315.008C46.4652 315.319 43.9582 319.925 43.4366 322.468C43.4029 322.637 43.2179 324.683 43.1505 325.66C43.058 325.668 43.0748 325.66 42.9823 325.677C42.1999 323.049 41.7792 320.405 41.5016 317.913C41.3418 316.473 41.2661 315.083 41.224 313.728C42.141 313.618 46.3138 313.062 48.0468 312.01C49.7042 311.008 51.5382 309.265 51.7485 307.227C51.9504 305.231 50.5371 303.32 48.4423 303.32C45.5398 303.32 42.5448 307.614 41.7456 310.082C41.7035 310.216 41.4091 311.631 41.2156 312.667C41.2072 312.052 41.1819 311.429 41.1903 310.839C41.1903 308.642 41.3334 306.629 41.468 304.844C41.5521 303.833 41.6531 302.916 41.754 302.065C42.5953 301.484 45.952 299.11 46.9868 297.417C47.9964 295.758 48.8208 293.375 48.0637 291.464C47.3233 289.594 45.1949 288.558 43.3356 289.518C40.7529 290.857 40.0798 296.053 40.5005 298.613C40.5341 298.832 41.51 302.225 41.5521 302.2C41.5521 302.2 41.5942 302.175 41.6026 302.166C41.4932 302.983 41.3754 303.867 41.2745 304.827C41.0978 306.612 40.9127 308.625 40.8622 310.831C40.8034 313.037 40.8034 315.437 41.0305 317.963C41.2576 320.498 41.6194 323.15 42.3513 325.828C42.3513 325.862 42.3681 325.887 42.3766 325.921C41.9223 325.205 40.5762 323.235 40.4584 323.1C38.759 321.138 34.3254 318.342 31.6585 319.479C29.732 320.296 29.1683 322.603 30.1358 324.363C31.1201 326.165 33.4841 327.049 35.4023 327.327L35.3518 327.31Z" fill="#92E3A9"/>
<path d="M318.685 25.3967H62.0078V258.766H318.685V25.3967Z" fill="#92E3A9"/>
<path d="M318.685 25.3967H62.0078V258.766H318.685V25.3967Z" fill="#00A63F"/>
<path d="M318.685 25.3967H62.0078V258.766H318.685V25.3967Z" stroke="#263238" stroke-miterlimit="10"/>
<path d="M311.778 149.483V86.1684H269.966V25.3967H62.0078V258.766H269.966V252.838H292.874V229.547H311.054V180.783H291.419V149.483H311.778ZM303.777 94.168V110.176H269.966V94.168H303.777ZM303.054 188.782V221.53H284.874V244.822H269.966V118.192H303.777V141.484H283.418V188.791H303.054V188.782Z" fill="#92E3A9" stroke="#263238" stroke-miterlimit="10"/>
<path d="M74.3567 56.4436C74.3567 55.4836 73.5828 54.7089 72.6237 54.7089C71.6646 54.7089 70.8906 55.4836 70.8906 56.4436C70.8906 57.4035 71.6646 58.1782 72.6237 58.1782C73.5828 58.1782 74.3567 57.4035 74.3567 56.4436Z" fill="#263238"/>
<path d="M101.443 56.4436C101.443 55.4836 100.669 54.7089 99.7096 54.7089C98.7505 54.7089 97.9766 55.4836 97.9766 56.4436C97.9766 57.4035 98.7505 58.1782 99.7096 58.1782C100.669 58.1782 101.443 57.4035 101.443 56.4436Z" fill="#263238"/>
<path d="M128.536 56.4436C128.536 55.4836 127.762 54.7089 126.803 54.7089C125.844 54.7089 125.07 55.4836 125.07 56.4436C125.07 57.4035 125.844 58.1782 126.803 58.1782C127.762 58.1782 128.536 57.4035 128.536 56.4436Z" fill="#263238"/>
<path d="M155.622 56.4436C155.622 55.4836 154.848 54.7089 153.889 54.7089C152.93 54.7089 152.156 55.4836 152.156 56.4436C152.156 57.4035 152.93 58.1782 153.889 58.1782C154.848 58.1782 155.622 57.4035 155.622 56.4436Z" fill="#263238"/>
<path d="M182.716 56.4436C182.716 55.4836 181.942 54.7089 180.983 54.7089C180.024 54.7089 179.25 55.4836 179.25 56.4436C179.25 57.4035 180.024 58.1782 180.983 58.1782C181.942 58.1782 182.716 57.4035 182.716 56.4436Z" fill="#263238"/>
<path d="M209.81 56.4436C209.81 55.4836 209.036 54.7089 208.077 54.7089C207.118 54.7089 206.344 55.4836 206.344 56.4436C206.344 57.4035 207.118 58.1782 208.077 58.1782C209.036 58.1782 209.81 57.4035 209.81 56.4436Z" fill="#263238"/>
<path d="M236.904 56.4436C236.904 55.4836 236.13 54.7089 235.171 54.7089C234.211 54.7089 233.438 55.4836 233.438 56.4436C233.438 57.4035 234.211 58.1782 235.171 58.1782C236.13 58.1782 236.904 57.4035 236.904 56.4436Z" fill="#263238"/>
<path d="M263.99 56.4436C263.99 55.4836 263.216 54.7089 262.256 54.7089C261.297 54.7089 260.523 55.4836 260.523 56.4436C260.523 57.4035 261.297 58.1782 262.256 58.1782C263.216 58.1782 263.99 57.4035 263.99 56.4436Z" fill="#263238"/>
<path d="M74.3567 82.7833C74.3567 81.8233 73.5828 81.0486 72.6237 81.0486C71.6646 81.0486 70.8906 81.8233 70.8906 82.7833C70.8906 83.7432 71.6646 84.518 72.6237 84.518C73.5828 84.518 74.3567 83.7432 74.3567 82.7833Z" fill="#263238"/>
<path d="M99.7096 84.518C100.667 84.518 101.443 83.7413 101.443 82.7833C101.443 81.8253 100.667 81.0486 99.7096 81.0486C98.7525 81.0486 97.9766 81.8253 97.9766 82.7833C97.9766 83.7413 98.7525 84.518 99.7096 84.518Z" fill="#263238"/>
<path d="M126.803 84.518C127.761 84.518 128.536 83.7413 128.536 82.7833C128.536 81.8253 127.761 81.0486 126.803 81.0486C125.846 81.0486 125.07 81.8253 125.07 82.7833C125.07 83.7413 125.846 84.518 126.803 84.518Z" fill="#263238"/>
<path d="M155.622 82.7833C155.622 81.8233 154.848 81.0486 153.889 81.0486C152.93 81.0486 152.156 81.8233 152.156 82.7833C152.156 83.7432 152.93 84.518 153.889 84.518C154.848 84.518 155.622 83.7432 155.622 82.7833Z" fill="#263238"/>
<path d="M182.716 82.7833C182.716 81.8233 181.942 81.0486 180.983 81.0486C180.024 81.0486 179.25 81.8233 179.25 82.7833C179.25 83.7432 180.024 84.518 180.983 84.518C181.942 84.518 182.716 83.7432 182.716 82.7833Z" fill="#263238"/>
<path d="M208.069 84.518C209.026 84.518 209.802 83.7413 209.802 82.7833C209.802 81.8253 209.026 81.0486 208.069 81.0486C207.112 81.0486 206.336 81.8253 206.336 82.7833C206.336 83.7413 207.112 84.518 208.069 84.518Z" fill="#263238"/>
<path d="M235.163 84.518C236.12 84.518 236.896 83.7413 236.896 82.7833C236.896 81.8253 236.12 81.0486 235.163 81.0486C234.206 81.0486 233.43 81.8253 233.43 82.7833C233.43 83.7413 234.206 84.518 235.163 84.518Z" fill="#263238"/>
<path d="M263.99 82.7833C263.99 81.8233 263.216 81.0486 262.256 81.0486C261.297 81.0486 260.523 81.8233 260.523 82.7833C260.523 83.7432 261.297 84.518 262.256 84.518C263.216 84.518 263.99 83.7432 263.99 82.7833Z" fill="#263238"/>
<path d="M74.3567 109.115C74.3567 108.155 73.5828 107.38 72.6237 107.38C71.6646 107.38 70.8906 108.155 70.8906 109.115C70.8906 110.075 71.6646 110.849 72.6237 110.849C73.5828 110.849 74.3567 110.075 74.3567 109.115Z" fill="#263238"/>
<path d="M99.7096 110.849C100.667 110.849 101.443 110.073 101.443 109.115C101.443 108.157 100.667 107.38 99.7096 107.38C98.7525 107.38 97.9766 108.157 97.9766 109.115C97.9766 110.073 98.7525 110.849 99.7096 110.849Z" fill="#263238"/>
<path d="M126.803 110.849C127.761 110.849 128.536 110.073 128.536 109.115C128.536 108.157 127.761 107.38 126.803 107.38C125.846 107.38 125.07 108.157 125.07 109.115C125.07 110.073 125.846 110.849 126.803 110.849Z" fill="#263238"/>
<path d="M155.622 109.115C155.622 108.155 154.848 107.38 153.889 107.38C152.93 107.38 152.156 108.155 152.156 109.115C152.156 110.075 152.93 110.849 153.889 110.849C154.848 110.849 155.622 110.075 155.622 109.115Z" fill="#263238"/>
<path d="M182.716 109.115C182.716 108.155 181.942 107.38 180.983 107.38C180.024 107.38 179.25 108.155 179.25 109.115C179.25 110.075 180.024 110.849 180.983 110.849C181.942 110.849 182.716 110.075 182.716 109.115Z" fill="#263238"/>
<path d="M208.069 110.849C209.026 110.849 209.802 110.073 209.802 109.115C209.802 108.157 209.026 107.38 208.069 107.38C207.112 107.38 206.336 108.157 206.336 109.115C206.336 110.073 207.112 110.849 208.069 110.849Z" fill="#263238"/>
<path d="M235.163 110.849C236.12 110.849 236.896 110.073 236.896 109.115C236.896 108.157 236.12 107.38 235.163 107.38C234.206 107.38 233.43 108.157 233.43 109.115C233.43 110.073 234.206 110.849 235.163 110.849Z" fill="#263238"/>
<path d="M263.99 109.115C263.99 108.155 263.216 107.38 262.256 107.38C261.297 107.38 260.523 108.155 260.523 109.115C260.523 110.075 261.297 110.849 262.256 110.849C263.216 110.849 263.99 110.075 263.99 109.115Z" fill="#263238"/>
<path d="M74.3567 135.446C74.3567 134.486 73.5828 133.711 72.6237 133.711C71.6646 133.711 70.8906 134.486 70.8906 135.446C70.8906 136.406 71.6646 137.181 72.6237 137.181C73.5828 137.181 74.3567 136.406 74.3567 135.446Z" fill="#263238"/>
<path d="M101.443 135.446C101.443 134.486 100.669 133.711 99.7096 133.711C98.7505 133.711 97.9766 134.486 97.9766 135.446C97.9766 136.406 98.7505 137.181 99.7096 137.181C100.669 137.181 101.443 136.406 101.443 135.446Z" fill="#263238"/>
<path d="M128.536 135.446C128.536 134.486 127.762 133.711 126.803 133.711C125.844 133.711 125.07 134.486 125.07 135.446C125.07 136.406 125.844 137.181 126.803 137.181C127.762 137.181 128.536 136.406 128.536 135.446Z" fill="#263238"/>
<path d="M155.622 135.446C155.622 134.486 154.848 133.711 153.889 133.711C152.93 133.711 152.156 134.486 152.156 135.446C152.156 136.406 152.93 137.181 153.889 137.181C154.848 137.181 155.622 136.406 155.622 135.446Z" fill="#263238"/>
<path d="M182.716 135.446C182.716 134.486 181.942 133.711 180.983 133.711C180.024 133.711 179.25 134.486 179.25 135.446C179.25 136.406 180.024 137.181 180.983 137.181C181.942 137.181 182.716 136.406 182.716 135.446Z" fill="#263238"/>
<path d="M209.81 135.446C209.81 134.486 209.036 133.711 208.077 133.711C207.118 133.711 206.344 134.486 206.344 135.446C206.344 136.406 207.118 137.181 208.077 137.181C209.036 137.181 209.81 136.406 209.81 135.446Z" fill="#263238"/>
<path d="M236.904 135.446C236.904 134.486 236.13 133.711 235.171 133.711C234.211 133.711 233.438 134.486 233.438 135.446C233.438 136.406 234.211 137.181 235.171 137.181C236.13 137.181 236.904 136.406 236.904 135.446Z" fill="#263238"/>
<path d="M263.99 135.446C263.99 134.486 263.216 133.711 262.256 133.711C261.297 133.711 260.523 134.486 260.523 135.446C260.523 136.406 261.297 137.181 262.256 137.181C263.216 137.181 263.99 136.406 263.99 135.446Z" fill="#263238"/>
<path d="M74.3567 161.786C74.3567 160.826 73.5828 160.051 72.6237 160.051C71.6646 160.051 70.8906 160.826 70.8906 161.786C70.8906 162.746 71.6646 163.52 72.6237 163.52C73.5828 163.52 74.3567 162.746 74.3567 161.786Z" fill="#263238"/>
<path d="M99.7096 163.52C100.667 163.52 101.443 162.744 101.443 161.786C101.443 160.828 100.667 160.051 99.7096 160.051C98.7525 160.051 97.9766 160.828 97.9766 161.786C97.9766 162.744 98.7525 163.52 99.7096 163.52Z" fill="#263238"/>
<path d="M126.803 163.52C127.761 163.52 128.536 162.744 128.536 161.786C128.536 160.828 127.761 160.051 126.803 160.051C125.846 160.051 125.07 160.828 125.07 161.786C125.07 162.744 125.846 163.52 126.803 163.52Z" fill="#263238"/>
<path d="M155.622 161.786C155.622 160.826 154.848 160.051 153.889 160.051C152.93 160.051 152.156 160.826 152.156 161.786C152.156 162.746 152.93 163.52 153.889 163.52C154.848 163.52 155.622 162.746 155.622 161.786Z" fill="#263238"/>
<path d="M182.716 161.786C182.716 160.826 181.942 160.051 180.983 160.051C180.024 160.051 179.25 160.826 179.25 161.786C179.25 162.746 180.024 163.52 180.983 163.52C181.942 163.52 182.716 162.746 182.716 161.786Z" fill="#263238"/>
<path d="M208.069 163.52C209.026 163.52 209.802 162.744 209.802 161.786C209.802 160.828 209.026 160.051 208.069 160.051C207.112 160.051 206.336 160.828 206.336 161.786C206.336 162.744 207.112 163.52 208.069 163.52Z" fill="#263238"/>
<path d="M235.163 163.52C236.12 163.52 236.896 162.744 236.896 161.786C236.896 160.828 236.12 160.051 235.163 160.051C234.206 160.051 233.43 160.828 233.43 161.786C233.43 162.744 234.206 163.52 235.163 163.52Z" fill="#263238"/>
<path d="M263.99 161.786C263.99 160.826 263.216 160.051 262.256 160.051C261.297 160.051 260.523 160.826 260.523 161.786C260.523 162.746 261.297 163.52 262.256 163.52C263.216 163.52 263.99 162.746 263.99 161.786Z" fill="#263238"/>
<path d="M74.3567 188.117C74.3567 187.157 73.5828 186.382 72.6237 186.382C71.6646 186.382 70.8906 187.157 70.8906 188.117C70.8906 189.077 71.6646 189.852 72.6237 189.852C73.5828 189.852 74.3567 189.077 74.3567 188.117Z" fill="#263238"/>
<path d="M101.443 188.117C101.443 187.157 100.669 186.382 99.7096 186.382C98.7505 186.382 97.9766 187.157 97.9766 188.117C97.9766 189.077 98.7505 189.852 99.7096 189.852C100.669 189.852 101.443 189.077 101.443 188.117Z" fill="#263238"/>
<path d="M128.536 188.117C128.536 187.157 127.762 186.382 126.803 186.382C125.844 186.382 125.07 187.157 125.07 188.117C125.07 189.077 125.844 189.852 126.803 189.852C127.762 189.852 128.536 189.077 128.536 188.117Z" fill="#263238"/>
<path d="M155.622 188.117C155.622 187.157 154.848 186.382 153.889 186.382C152.93 186.382 152.156 187.157 152.156 188.117C152.156 189.077 152.93 189.852 153.889 189.852C154.848 189.852 155.622 189.077 155.622 188.117Z" fill="#263238"/>
<path d="M182.716 188.117C182.716 187.157 181.942 186.382 180.983 186.382C180.024 186.382 179.25 187.157 179.25 188.117C179.25 189.077 180.024 189.852 180.983 189.852C181.942 189.852 182.716 189.077 182.716 188.117Z" fill="#263238"/>
<path d="M209.81 188.117C209.81 187.157 209.036 186.382 208.077 186.382C207.118 186.382 206.344 187.157 206.344 188.117C206.344 189.077 207.118 189.852 208.077 189.852C209.036 189.852 209.81 189.077 209.81 188.117Z" fill="#263238"/>
<path d="M236.904 188.117C236.904 187.157 236.13 186.382 235.171 186.382C234.211 186.382 233.438 187.157 233.438 188.117C233.438 189.077 234.211 189.852 235.171 189.852C236.13 189.852 236.904 189.077 236.904 188.117Z" fill="#263238"/>
<path d="M263.99 188.117C263.99 187.157 263.216 186.382 262.256 186.382C261.297 186.382 260.523 187.157 260.523 188.117C260.523 189.077 261.297 189.852 262.256 189.852C263.216 189.852 263.99 189.077 263.99 188.117Z" fill="#263238"/>
<path d="M74.3567 214.448C74.3567 213.488 73.5828 212.714 72.6237 212.714C71.6646 212.714 70.8906 213.488 70.8906 214.448C70.8906 215.408 71.6646 216.183 72.6237 216.183C73.5828 216.183 74.3567 215.408 74.3567 214.448Z" fill="#263238"/>
<path d="M101.443 214.448C101.443 213.488 100.669 212.714 99.7096 212.714C98.7505 212.714 97.9766 213.488 97.9766 214.448C97.9766 215.408 98.7505 216.183 99.7096 216.183C100.669 216.183 101.443 215.408 101.443 214.448Z" fill="#263238"/>
<path d="M128.536 214.448C128.536 213.488 127.762 212.714 126.803 212.714C125.844 212.714 125.07 213.488 125.07 214.448C125.07 215.408 125.844 216.183 126.803 216.183C127.762 216.183 128.536 215.408 128.536 214.448Z" fill="#263238"/>
<path d="M155.622 214.448C155.622 213.488 154.848 212.714 153.889 212.714C152.93 212.714 152.156 213.488 152.156 214.448C152.156 215.408 152.93 216.183 153.889 216.183C154.848 216.183 155.622 215.408 155.622 214.448Z" fill="#263238"/>
<path d="M182.716 214.448C182.716 213.488 181.942 212.714 180.983 212.714C180.024 212.714 179.25 213.488 179.25 214.448C179.25 215.408 180.024 216.183 180.983 216.183C181.942 216.183 182.716 215.408 182.716 214.448Z" fill="#263238"/>
<path d="M209.81 214.448C209.81 213.488 209.036 212.714 208.077 212.714C207.118 212.714 206.344 213.488 206.344 214.448C206.344 215.408 207.118 216.183 208.077 216.183C209.036 216.183 209.81 215.408 209.81 214.448Z" fill="#263238"/>
<path d="M236.904 214.448C236.904 213.488 236.13 212.714 235.171 212.714C234.211 212.714 233.438 213.488 233.438 214.448C233.438 215.408 234.211 216.183 235.171 216.183C236.13 216.183 236.904 215.408 236.904 214.448Z" fill="#263238"/>
<path d="M263.99 214.448C263.99 213.488 263.216 212.714 262.256 212.714C261.297 212.714 260.523 213.488 260.523 214.448C260.523 215.408 261.297 216.183 262.256 216.183C263.216 216.183 263.99 215.408 263.99 214.448Z" fill="#263238"/>
<path d="M74.3567 240.78C74.3567 239.82 73.5828 239.045 72.6237 239.045C71.6646 239.045 70.8906 239.82 70.8906 240.78C70.8906 241.74 71.6646 242.514 72.6237 242.514C73.5828 242.514 74.3567 241.74 74.3567 240.78Z" fill="#263238"/>
<path d="M99.7096 242.514C100.667 242.514 101.443 241.738 101.443 240.78C101.443 239.822 100.667 239.045 99.7096 239.045C98.7525 239.045 97.9766 239.822 97.9766 240.78C97.9766 241.738 98.7525 242.514 99.7096 242.514Z" fill="#263238"/>
<path d="M126.803 242.514C127.761 242.514 128.536 241.738 128.536 240.78C128.536 239.822 127.761 239.045 126.803 239.045C125.846 239.045 125.07 239.822 125.07 240.78C125.07 241.738 125.846 242.514 126.803 242.514Z" fill="#263238"/>
<path d="M155.622 240.78C155.622 239.82 154.848 239.045 153.889 239.045C152.93 239.045 152.156 239.82 152.156 240.78C152.156 241.74 152.93 242.514 153.889 242.514C154.848 242.514 155.622 241.74 155.622 240.78Z" fill="#263238"/>
<path d="M182.716 240.78C182.716 239.82 181.942 239.045 180.983 239.045C180.024 239.045 179.25 239.82 179.25 240.78C179.25 241.74 180.024 242.514 180.983 242.514C181.942 242.514 182.716 241.74 182.716 240.78Z" fill="#263238"/>
<path d="M208.069 242.514C209.026 242.514 209.802 241.738 209.802 240.78C209.802 239.822 209.026 239.045 208.069 239.045C207.112 239.045 206.336 239.822 206.336 240.78C206.336 241.738 207.112 242.514 208.069 242.514Z" fill="#263238"/>
<path d="M235.163 242.514C236.12 242.514 236.896 241.738 236.896 240.78C236.896 239.822 236.12 239.045 235.163 239.045C234.206 239.045 233.43 239.822 233.43 240.78C233.43 241.738 234.206 242.514 235.163 242.514Z" fill="#263238"/>
<path d="M263.99 240.78C263.99 239.82 263.216 239.045 262.256 239.045C261.297 239.045 260.523 239.82 260.523 240.78C260.523 241.74 261.297 242.514 262.256 242.514C263.216 242.514 263.99 241.74 263.99 240.78Z" fill="#263238"/>
<path d="M92.4358 54.6584C88.8183 54.6584 85.8906 51.728 85.8906 48.1071V25.5482H98.9811V48.1071C98.9811 51.728 96.0534 54.6584 92.4358 54.6584Z" fill="white" stroke="#263238" stroke-miterlimit="10"/>
<path d="M96.4826 47.6355C96.4826 45.4041 94.6739 43.5936 92.4444 43.5936C90.215 43.5936 88.4062 45.4041 88.4062 47.6355C88.4062 49.867 90.215 51.6774 92.4444 51.6774C94.6739 51.6774 96.4826 49.867 96.4826 47.6355Z" fill="#263238" stroke="#263238" stroke-miterlimit="10"/>
<path d="M109.272 54.6584C105.654 54.6584 102.727 51.728 102.727 48.1071V25.5482H115.817V48.1071C115.817 51.728 112.889 54.6584 109.272 54.6584Z" fill="white" stroke="#263238" stroke-miterlimit="10"/>
<path d="M113.311 47.6355C113.311 45.4041 111.502 43.5936 109.273 43.5936C107.043 43.5936 105.234 45.4041 105.234 47.6355C105.234 49.867 107.043 51.6774 109.273 51.6774C111.502 51.6774 113.311 49.867 113.311 47.6355Z" fill="#263238" stroke="#263238" stroke-miterlimit="10"/>
<path d="M126.092 54.6584C122.475 54.6584 119.547 51.728 119.547 48.1071V25.5482H132.637V48.1071C132.637 51.728 129.71 54.6584 126.092 54.6584Z" fill="white" stroke="#263238" stroke-miterlimit="10"/>
<path d="M130.131 47.6355C130.131 45.4041 128.322 43.5936 126.093 43.5936C123.863 43.5936 122.055 45.4041 122.055 47.6355C122.055 49.867 123.863 51.6774 126.093 51.6774C128.322 51.6774 130.131 49.867 130.131 47.6355Z" fill="#263238" stroke="#263238" stroke-miterlimit="10"/>
<path d="M136.375 25.5482H149.465V48.1071C149.465 51.7196 146.529 54.6584 142.92 54.6584C139.311 54.6584 136.375 51.7196 136.375 48.1071V25.5482Z" fill="white" stroke="#263238" stroke-miterlimit="10"/>
<path d="M146.959 47.6355C146.959 45.4041 145.15 43.5936 142.921 43.5936C140.692 43.5936 138.883 45.4041 138.883 47.6355C138.883 49.867 140.692 51.6774 142.921 51.6774C145.15 51.6774 146.959 49.867 146.959 47.6355Z" fill="#263238" stroke="#263238" stroke-miterlimit="10"/>
<path d="M159.748 54.6584C156.131 54.6584 153.203 51.728 153.203 48.1071V25.5482H166.294V48.1071C166.294 51.728 163.366 54.6584 159.748 54.6584Z" fill="white" stroke="#263238" stroke-miterlimit="10"/>
<path d="M163.795 47.6355C163.795 45.4041 161.986 43.5936 159.757 43.5936C157.528 43.5936 155.719 45.4041 155.719 47.6355C155.719 49.867 157.528 51.6774 159.757 51.6774C161.986 51.6774 163.795 49.867 163.795 47.6355Z" fill="#263238" stroke="#263238" stroke-miterlimit="10"/>
<path d="M176.584 54.6584C172.967 54.6584 170.039 51.728 170.039 48.1071V25.5482H183.13V48.1071C183.13 51.728 180.202 54.6584 176.584 54.6584Z" fill="white" stroke="#263238" stroke-miterlimit="10"/>
<path d="M180.623 47.6355C180.623 45.4041 178.814 43.5936 176.585 43.5936C174.356 43.5936 172.547 45.4041 172.547 47.6355C172.547 49.867 174.356 51.6774 176.585 51.6774C178.814 51.6774 180.623 49.867 180.623 47.6355Z" fill="#263238" stroke="#263238" stroke-miterlimit="10"/>
<path d="M193.405 54.6584C189.787 54.6584 186.859 51.728 186.859 48.1071V25.5482H199.95V48.1071C199.95 51.728 197.022 54.6584 193.405 54.6584Z" fill="white" stroke="#263238" stroke-miterlimit="10"/>
<path d="M197.444 47.6355C197.444 45.4041 195.635 43.5936 193.405 43.5936C191.176 43.5936 189.367 45.4041 189.367 47.6355C189.367 49.867 191.176 51.6774 193.405 51.6774C195.635 51.6774 197.444 49.867 197.444 47.6355Z" fill="#263238" stroke="#263238" stroke-miterlimit="10"/>
<path d="M210.233 54.6584C206.615 54.6584 203.688 51.728 203.688 48.1071V25.5482H216.778V48.1071C216.778 51.728 213.85 54.6584 210.233 54.6584Z" fill="white" stroke="#263238" stroke-miterlimit="10"/>
<path d="M214.272 47.6355C214.272 45.4041 212.463 43.5936 210.233 43.5936C208.004 43.5936 206.195 45.4041 206.195 47.6355C206.195 49.867 208.004 51.6774 210.233 51.6774C212.463 51.6774 214.272 49.867 214.272 47.6355Z" fill="#263238" stroke="#263238" stroke-miterlimit="10"/>
<path d="M220.523 25.5482H233.614V48.1071C233.614 51.7196 230.678 54.6584 227.069 54.6584C223.46 54.6584 220.523 51.7196 220.523 48.1071V25.5482Z" fill="white" stroke="#263238" stroke-miterlimit="10"/>
<path d="M231.108 47.6355C231.108 45.4041 229.299 43.5936 227.069 43.5936C224.84 43.5936 223.031 45.4041 223.031 47.6355C223.031 49.867 224.84 51.6774 227.069 51.6774C229.299 51.6774 231.108 49.867 231.108 47.6355Z" fill="#263238" stroke="#263238" stroke-miterlimit="10"/>
<path d="M233.609 258.766H220.519V236.207C220.519 232.595 223.455 229.656 227.064 229.656C230.673 229.656 233.609 232.595 233.609 236.207V258.766Z" fill="white" stroke="#263238" stroke-miterlimit="10"/>
<path d="M223.023 236.679C223.023 238.91 224.832 240.721 227.062 240.721C229.291 240.721 231.1 238.91 231.1 236.679C231.1 234.447 229.291 232.637 227.062 232.637C224.832 232.637 223.023 234.447 223.023 236.679Z" fill="#263238" stroke="#263238" stroke-miterlimit="10"/>
<path d="M210.233 229.656C213.85 229.656 216.778 232.586 216.778 236.207V258.766H203.688V236.207C203.688 232.586 206.615 229.656 210.233 229.656Z" fill="white" stroke="#263238" stroke-miterlimit="10"/>
<path d="M206.195 236.679C206.195 238.91 208.004 240.721 210.233 240.721C212.463 240.721 214.272 238.91 214.272 236.679C214.272 234.447 212.463 232.637 210.233 232.637C208.004 232.637 206.195 234.447 206.195 236.679Z" fill="#263238" stroke="#263238" stroke-miterlimit="10"/>
<path d="M193.405 229.656C197.022 229.656 199.95 232.586 199.95 236.207V258.766H186.859V236.207C186.859 232.586 189.787 229.656 193.405 229.656Z" fill="white" stroke="#263238" stroke-miterlimit="10"/>
<path d="M189.367 236.679C189.367 238.91 191.176 240.721 193.405 240.721C195.635 240.721 197.444 238.91 197.444 236.679C197.444 234.447 195.635 232.637 193.405 232.637C191.176 232.637 189.367 234.447 189.367 236.679Z" fill="#263238" stroke="#263238" stroke-miterlimit="10"/>
<path d="M176.584 229.656C180.202 229.656 183.13 232.586 183.13 236.207V258.766H170.039V236.207C170.039 232.586 172.967 229.656 176.584 229.656Z" fill="white" stroke="#263238" stroke-miterlimit="10"/>
<path d="M172.547 236.679C172.547 238.91 174.356 240.721 176.585 240.721C178.814 240.721 180.623 238.91 180.623 236.679C180.623 234.447 178.814 232.637 176.585 232.637C174.356 232.637 172.547 234.447 172.547 236.679Z" fill="#263238" stroke="#263238" stroke-miterlimit="10"/>
<path d="M159.748 229.656C163.366 229.656 166.294 232.586 166.294 236.207V258.766H153.203V236.207C153.203 232.586 156.131 229.656 159.748 229.656Z" fill="white" stroke="#263238" stroke-miterlimit="10"/>
<path d="M155.711 236.679C155.711 238.91 157.52 240.721 159.749 240.721C161.979 240.721 163.787 238.91 163.787 236.679C163.787 234.447 161.979 232.637 159.749 232.637C157.52 232.637 155.711 234.447 155.711 236.679Z" fill="#263238" stroke="#263238" stroke-miterlimit="10"/>
<path d="M149.469 258.766H136.378V236.207C136.378 232.595 139.314 229.656 142.924 229.656C146.533 229.656 149.469 232.595 149.469 236.207V258.766Z" fill="white" stroke="#263238" stroke-miterlimit="10"/>
<path d="M138.883 236.679C138.883 238.91 140.692 240.721 142.921 240.721C145.15 240.721 146.959 238.91 146.959 236.679C146.959 234.447 145.15 232.637 142.921 232.637C140.692 232.637 138.883 234.447 138.883 236.679Z" fill="#263238" stroke="#263238" stroke-miterlimit="10"/>
<path d="M126.092 229.656C129.71 229.656 132.637 232.586 132.637 236.207V258.766H119.547V236.207C119.547 232.586 122.475 229.656 126.092 229.656Z" fill="white" stroke="#263238" stroke-miterlimit="10"/>
<path d="M122.055 236.679C122.055 238.91 123.863 240.721 126.093 240.721C128.322 240.721 130.131 238.91 130.131 236.679C130.131 234.447 128.322 232.637 126.093 232.637C123.863 232.637 122.055 234.447 122.055 236.679Z" fill="#263238" stroke="#263238" stroke-miterlimit="10"/>
<path d="M109.272 229.656C112.889 229.656 115.817 232.586 115.817 236.207V258.766H102.727V236.207C102.727 232.586 105.654 229.656 109.272 229.656Z" fill="white" stroke="#263238" stroke-miterlimit="10"/>
<path d="M105.234 236.679C105.234 238.91 107.043 240.721 109.273 240.721C111.502 240.721 113.311 238.91 113.311 236.679C113.311 234.447 111.502 232.637 109.273 232.637C107.043 232.637 105.234 234.447 105.234 236.679Z" fill="#263238" stroke="#263238" stroke-miterlimit="10"/>
<path d="M92.4358 229.656C96.0534 229.656 98.9811 232.586 98.9811 236.207V258.766H85.8906V236.207C85.8906 232.586 88.8183 229.656 92.4358 229.656Z" fill="white" stroke="#263238" stroke-miterlimit="10"/>
<path d="M88.3984 236.679C88.3984 238.91 90.2072 240.721 92.4366 240.721C94.666 240.721 96.4748 238.91 96.4748 236.679C96.4748 234.447 94.666 232.637 92.4366 232.637C90.2072 232.637 88.3984 234.447 88.3984 236.679Z" fill="#263238" stroke="#263238" stroke-miterlimit="10"/>
<path d="M156.122 102.445V94.7406L151.898 89.444V83.6085" stroke="#263238" stroke-width="2" stroke-miterlimit="10"/>
<path d="M193.438 101.646V70.3292" stroke="#263238" stroke-width="2" stroke-miterlimit="10"/>
<path d="M170.961 106.597V75.2805" stroke="#263238" stroke-width="2" stroke-miterlimit="10"/>
<path d="M163.414 101.646V70.3292" stroke="#263238" stroke-width="2" stroke-miterlimit="10"/>
<path d="M155.408 92.4165C154.129 92.4165 153.086 93.4607 153.086 94.7406C153.086 96.0205 154.129 97.0647 155.408 97.0647C156.687 97.0647 157.73 96.0205 157.73 94.7406C157.73 93.4607 156.687 92.4165 155.408 92.4165Z" fill="#263238" stroke="#263238" stroke-miterlimit="10"/>
<path d="M155.409 95.869C156.031 95.869 156.536 95.3638 156.536 94.7406C156.536 94.1174 156.031 93.6122 155.409 93.6122C154.786 93.6122 154.281 94.1174 154.281 94.7406C154.281 95.3638 154.786 95.869 155.409 95.869Z" fill="white" stroke="#263238" stroke-miterlimit="10"/>
<path d="M163.361 68.0304C162.082 68.0304 161.039 69.0746 161.039 70.3545C161.039 71.6344 162.082 72.6786 163.361 72.6786C164.64 72.6786 165.683 71.6344 165.683 70.3545C165.683 69.0746 164.64 68.0304 163.361 68.0304Z" fill="#263238" stroke="#263238" stroke-miterlimit="10"/>
<path d="M163.362 71.4829C163.984 71.4829 164.489 70.9777 164.489 70.3545C164.489 69.7313 163.984 69.2261 163.362 69.2261C162.739 69.2261 162.234 69.7313 162.234 70.3545C162.234 70.9777 162.739 71.4829 163.362 71.4829Z" fill="white" stroke="#263238" stroke-miterlimit="10"/>
<path d="M170.767 71.6091C169.489 71.6091 168.445 72.6533 168.445 73.9332C168.445 75.2132 169.489 76.2573 170.767 76.2573C172.046 76.2573 173.089 75.2132 173.089 73.9332C173.089 72.6533 172.046 71.6091 170.767 71.6091Z" fill="#263238" stroke="#263238" stroke-miterlimit="10"/>
<path d="M170.768 75.0616C171.391 75.0616 171.895 74.5564 171.895 73.9332C171.895 73.3101 171.391 72.8049 170.768 72.8049C170.145 72.8049 169.641 73.3101 169.641 73.9332C169.641 74.5564 170.145 75.0616 170.768 75.0616Z" fill="white" stroke="#263238" stroke-miterlimit="10"/>
<path d="M178.424 66.8767C177.145 66.8767 176.102 67.9209 176.102 69.2008C176.102 70.4807 177.145 71.5249 178.424 71.5249C179.702 71.5249 180.745 70.4807 180.745 69.2008C180.745 67.9209 179.702 66.8767 178.424 66.8767Z" fill="#263238" stroke="#263238" stroke-miterlimit="10"/>
<path d="M178.424 70.3292C179.047 70.3292 179.552 69.824 179.552 69.2008C179.552 68.5776 179.047 68.0724 178.424 68.0724C177.802 68.0724 177.297 68.5776 177.297 69.2008C177.297 69.824 177.802 70.3292 178.424 70.3292Z" fill="white" stroke="#263238" stroke-miterlimit="10"/>
<path d="M185.728 71.6091C184.449 71.6091 183.406 72.6533 183.406 73.9332C183.406 75.2132 184.449 76.2573 185.728 76.2573C187.007 76.2573 188.05 75.2132 188.05 73.9332C188.05 72.6533 187.007 71.6091 185.728 71.6091Z" fill="#263238" stroke="#263238" stroke-miterlimit="10"/>
<path d="M185.729 75.0616C186.352 75.0616 186.856 74.5564 186.856 73.9332C186.856 73.3101 186.352 72.8049 185.729 72.8049C185.106 72.8049 184.602 73.3101 184.602 73.9332C184.602 74.5564 185.106 75.0616 185.729 75.0616Z" fill="white" stroke="#263238" stroke-miterlimit="10"/>
<path d="M193.384 66.8767C192.106 66.8767 191.062 67.9209 191.062 69.2008C191.062 70.4807 192.106 71.5249 193.384 71.5249C194.663 71.5249 195.706 70.4807 195.706 69.2008C195.706 67.9209 194.663 66.8767 193.384 66.8767Z" fill="#263238" stroke="#263238" stroke-miterlimit="10"/>
<path d="M193.385 70.3292C194.008 70.3292 194.512 69.824 194.512 69.2008C194.512 68.5776 194.008 68.0724 193.385 68.0724C192.763 68.0724 192.258 68.5776 192.258 69.2008C192.258 69.824 192.763 70.3292 193.385 70.3292Z" fill="white" stroke="#263238" stroke-miterlimit="10"/>
<path d="M185.977 106.597V75.2805" stroke="#263238" stroke-width="2" stroke-miterlimit="10"/>
<path d="M178.43 101.646V70.3292" stroke="#263238" stroke-width="2" stroke-miterlimit="10"/>
<path d="M193.438 169.811V201.135" stroke="#263238" stroke-width="2" stroke-miterlimit="10"/>
<path d="M170.961 164.868V196.184" stroke="#263238" stroke-width="2" stroke-miterlimit="10"/>
<path d="M163.414 169.811V201.135" stroke="#263238" stroke-width="2" stroke-miterlimit="10"/>
<path d="M163.361 203.426C162.082 203.426 161.039 202.382 161.039 201.102C161.039 199.822 162.082 198.778 163.361 198.778C164.64 198.778 165.683 199.822 165.683 201.102C165.683 202.382 164.64 203.426 163.361 203.426Z" fill="#263238" stroke="#263238" stroke-miterlimit="10"/>
<path d="M163.362 202.23C163.984 202.23 164.489 201.725 164.489 201.102C164.489 200.479 163.984 199.973 163.362 199.973C162.739 199.973 162.234 200.479 162.234 201.102C162.234 201.725 162.739 202.23 163.362 202.23Z" fill="white" stroke="#263238" stroke-miterlimit="10"/>
<path d="M156.375 169.811V190.003" stroke="#263238" stroke-width="2" stroke-miterlimit="10"/>
<path d="M156.68 192.268C155.115 192.513 153.777 191.174 154.021 189.608C154.172 188.631 154.972 187.831 155.948 187.679C157.521 187.435 158.85 188.774 158.606 190.34C158.455 191.317 157.655 192.117 156.68 192.268Z" fill="#263238" stroke="#263238" stroke-miterlimit="10"/>
<path d="M156.592 188.883C155.76 188.681 155.019 189.414 155.221 190.256C155.314 190.652 155.642 190.972 156.029 191.064C156.862 191.266 157.602 190.534 157.4 189.692C157.307 189.296 156.979 188.976 156.592 188.883Z" fill="white" stroke="#263238" stroke-miterlimit="10"/>
<path d="M148.602 169.811V192.984" stroke="#263238" stroke-width="2" stroke-miterlimit="10"/>
<path d="M148.914 184.656C147.349 184.9 146.011 183.562 146.255 181.995C146.407 181.018 147.206 180.219 148.182 180.067C149.755 179.823 151.084 181.162 150.84 182.728C150.689 183.705 149.89 184.505 148.914 184.656Z" fill="#263238" stroke="#263238" stroke-miterlimit="10"/>
<path d="M148.819 181.263C147.986 181.061 147.246 181.793 147.448 182.635C147.54 183.031 147.868 183.351 148.255 183.444C149.088 183.646 149.828 182.913 149.627 182.071C149.534 181.675 149.206 181.355 148.819 181.263Z" fill="white" stroke="#263238" stroke-miterlimit="10"/>
<path d="M170.767 199.847C169.489 199.847 168.445 198.803 168.445 197.523C168.445 196.243 169.489 195.199 170.767 195.199C172.046 195.199 173.089 196.243 173.089 197.523C173.089 198.803 172.046 199.847 170.767 199.847Z" fill="#263238" stroke="#263238" stroke-miterlimit="10"/>
<path d="M170.768 198.651C171.391 198.651 171.895 198.146 171.895 197.523C171.895 196.9 171.391 196.395 170.768 196.395C170.145 196.395 169.641 196.9 169.641 197.523C169.641 198.146 170.145 198.651 170.768 198.651Z" fill="white" stroke="#263238" stroke-miterlimit="10"/>
<path d="M178.424 204.579C177.145 204.579 176.102 203.535 176.102 202.255C176.102 200.975 177.145 199.931 178.424 199.931C179.702 199.931 180.745 200.975 180.745 202.255C180.745 203.535 179.702 204.579 178.424 204.579Z" fill="#263238" stroke="#263238" stroke-miterlimit="10"/>
<path d="M178.424 203.384C179.047 203.384 179.552 202.879 179.552 202.255C179.552 201.632 179.047 201.127 178.424 201.127C177.802 201.127 177.297 201.632 177.297 202.255C177.297 202.879 177.802 203.384 178.424 203.384Z" fill="white" stroke="#263238" stroke-miterlimit="10"/>
<path d="M185.728 199.847C184.449 199.847 183.406 198.803 183.406 197.523C183.406 196.243 184.449 195.199 185.728 195.199C187.007 195.199 188.05 196.243 188.05 197.523C188.05 198.803 187.007 199.847 185.728 199.847Z" fill="#263238" stroke="#263238" stroke-miterlimit="10"/>
<path d="M185.729 198.651C186.352 198.651 186.856 198.146 186.856 197.523C186.856 196.9 186.352 196.395 185.729 196.395C185.106 196.395 184.602 196.9 184.602 197.523C184.602 198.146 185.106 198.651 185.729 198.651Z" fill="white" stroke="#263238" stroke-miterlimit="10"/>
<path d="M193.384 204.579C192.106 204.579 191.062 203.535 191.062 202.255C191.062 200.975 192.106 199.931 193.384 199.931C194.663 199.931 195.706 200.975 195.706 202.255C195.706 203.535 194.663 204.579 193.384 204.579Z" fill="#263238" stroke="#263238" stroke-miterlimit="10"/>
<path d="M193.385 203.384C194.008 203.384 194.512 202.879 194.512 202.255C194.512 201.632 194.008 201.127 193.385 201.127C192.763 201.127 192.258 201.632 192.258 202.255C192.258 202.879 192.763 203.384 193.385 203.384Z" fill="white" stroke="#263238" stroke-miterlimit="10"/>
<path d="M185.977 164.868V196.184" stroke="#263238" stroke-width="2" stroke-miterlimit="10"/>
<path d="M178.43 169.811V201.135" stroke="#263238" stroke-width="2" stroke-miterlimit="10"/>
<path d="M154.551 74.8595H149.781V84.139H154.551V74.8595Z" fill="white" stroke="#263238" stroke-miterlimit="10"/>
<path d="M154.551 76.8131H149.781V82.1939H154.551V76.8131Z" fill="white" stroke="#263238" stroke-miterlimit="10"/>
<path d="M151.286 190.466H146.516V199.746H151.286V190.466Z" fill="white" stroke="#263238" stroke-miterlimit="10"/>
<path d="M151.286 192.412H146.516V197.792H151.286V192.412Z" fill="white" stroke="#263238" stroke-miterlimit="10"/>
<path d="M203.536 180.219H198.766V189.498H203.536V180.219Z" fill="white" stroke="#263238" stroke-miterlimit="10"/>
<path d="M203.536 182.164H198.766V187.544H203.536V182.164Z" fill="white" stroke="#263238" stroke-miterlimit="10"/>
<path d="M200.992 102.445V94.7406L205.215 89.444V83.6085" stroke="#263238" stroke-width="2" stroke-miterlimit="10"/>
<path d="M201.713 92.4165C202.991 92.4165 204.035 93.4607 204.035 94.7406C204.035 96.0205 202.991 97.0647 201.713 97.0647C200.434 97.0647 199.391 96.0205 199.391 94.7406C199.391 93.4607 200.434 92.4165 201.713 92.4165Z" fill="#263238" stroke="#263238" stroke-miterlimit="10"/>
<path d="M201.713 95.869C202.336 95.869 202.841 95.3638 202.841 94.7406C202.841 94.1174 202.336 93.6122 201.713 93.6122C201.091 93.6122 200.586 94.1174 200.586 94.7406C200.586 95.3638 201.091 95.869 201.713 95.869Z" fill="white" stroke="#263238" stroke-miterlimit="10"/>
<path d="M236.814 104.012C238.093 104.012 239.136 105.056 239.136 106.336C239.136 107.616 238.093 108.66 236.814 108.66C235.535 108.66 234.492 107.616 234.492 106.336C234.492 105.056 235.535 104.012 236.814 104.012Z" fill="#263238" stroke="#263238" stroke-miterlimit="10"/>
<path d="M236.815 107.464C237.437 107.464 237.942 106.959 237.942 106.336C237.942 105.713 237.437 105.207 236.815 105.207C236.192 105.207 235.688 105.713 235.688 106.336C235.688 106.959 236.192 107.464 236.815 107.464Z" fill="white" stroke="#263238" stroke-miterlimit="10"/>
<path d="M202.566 84.1475H207.336V74.8679H202.566V84.1475Z" fill="white" stroke="#263238" stroke-miterlimit="10"/>
<path d="M202.566 82.1938H207.336V76.8131H202.566V82.1938Z" fill="white" stroke="#263238" stroke-miterlimit="10"/>
<path d="M148.662 102.446V97.2163L142.992 89.7977V81.9413" stroke="#263238" stroke-width="2" stroke-miterlimit="10"/>
<path d="M145.372 74.8595H140.602V84.139H145.372V74.8595Z" fill="white" stroke="#263238" stroke-miterlimit="10"/>
<path d="M145.372 76.8131H140.602V82.1939H145.372V76.8131Z" fill="white" stroke="#263238" stroke-miterlimit="10"/>
<path d="M208.922 109.94H215.98V82.1938" stroke="#263238" stroke-width="2" stroke-miterlimit="10"/>
<path d="M213.597 84.1475H218.367V74.8679H213.597V84.1475Z" fill="white" stroke="#263238" stroke-miterlimit="10"/>
<path d="M213.597 82.1938H218.367V76.8131H213.597V82.1938Z" fill="white" stroke="#263238" stroke-miterlimit="10"/>
<path d="M234.339 103.313H239.109V94.0333H234.339V103.313Z" fill="white" stroke="#263238" stroke-miterlimit="10"/>
<path d="M234.339 101.368H239.109V95.9869H234.339V101.368Z" fill="white" stroke="#263238" stroke-miterlimit="10"/>
<path d="M208.922 132.204H220.574L229.399 116.297V106.757" stroke="#263238" stroke-width="2" stroke-miterlimit="10"/>
<path d="M227.011 108.172H231.781V98.892H227.011V108.172Z" fill="white" stroke="#263238" stroke-miterlimit="10"/>
<path d="M227.011 106.226H231.781V100.846H227.011V106.226Z" fill="white" stroke="#263238" stroke-miterlimit="10"/>
<path d="M209.273 118.066H228.337" stroke="#263238" stroke-width="2" stroke-miterlimit="10"/>
<path d="M209.273 124.777H224.45" stroke="#263238" stroke-width="2" stroke-miterlimit="10"/>
<path d="M234.08 151.925L229.402 151.993L223.042 147.749H208.219" stroke="#263238" stroke-width="2" stroke-miterlimit="10"/>
<path d="M233.633 134.68H250.997C253.824 134.68 256.457 136.103 258.005 138.477L258.173 138.73C260.175 141.787 259.957 145.795 257.643 148.624C256.078 150.536 253.748 151.664 251.275 151.698L234.079 151.934" stroke="#263238" stroke-width="6" stroke-miterlimit="10"/>
<path d="M208.219 139.976H223.042L228.696 134.68H233.634" stroke="#263238" stroke-width="2" stroke-miterlimit="10"/>
<path d="M229.445 131.716V136.49H238.716V131.716H229.445Z" fill="white" stroke="#263238" stroke-miterlimit="10"/>
<path d="M231.391 131.716V136.49H236.766V131.716H231.391Z" fill="white" stroke="#263238" stroke-miterlimit="10"/>
<path d="M246.305 131.716V136.49H255.576V131.716H246.305Z" fill="white" stroke="#263238" stroke-miterlimit="10"/>
<path d="M248.25 131.716V136.49H253.626V131.716H248.25Z" fill="white" stroke="#263238" stroke-miterlimit="10"/>
<path d="M229.445 149.247V154.022H238.716V149.247H229.445Z" fill="white" stroke="#263238" stroke-miterlimit="10"/>
<path d="M231.391 149.247V154.022H236.766V149.247H231.391Z" fill="white" stroke="#263238" stroke-miterlimit="10"/>
<path d="M246.305 149.247V154.022H255.576V149.247H246.305Z" fill="white" stroke="#263238" stroke-miterlimit="10"/>
<path d="M248.25 149.247V154.022H253.626V149.247H248.25Z" fill="white" stroke="#263238" stroke-miterlimit="10"/>
<path d="M207.859 155.176H221.985L230.456 161.533H238.928" stroke="#263238" stroke-width="2" stroke-miterlimit="10"/>
<path d="M229.406 158.871L229.484 163.644L238.754 163.492L238.676 158.718L229.406 158.871Z" fill="white" stroke="#263238" stroke-miterlimit="10"/>
<path d="M231.351 158.839L231.43 163.613L236.805 163.524L236.727 158.75L231.351 158.839Z" fill="white" stroke="#263238" stroke-miterlimit="10"/>
<path d="M227.088 156.548C228.366 156.548 229.41 157.592 229.41 158.872C229.41 160.152 228.366 161.196 227.088 161.196C225.809 161.196 224.766 160.152 224.766 158.872C224.766 157.592 225.809 156.548 227.088 156.548Z" fill="#263238" stroke="#263238" stroke-miterlimit="10"/>
<path d="M227.088 160.001C227.711 160.001 228.216 159.495 228.216 158.872C228.216 158.249 227.711 157.744 227.088 157.744C226.466 157.744 225.961 158.249 225.961 158.872C225.961 159.495 226.466 160.001 227.088 160.001Z" fill="white" stroke="#263238" stroke-miterlimit="10"/>
<path d="M208.219 162.948H216.051C220.022 162.948 223.774 164.767 226.239 167.882C228.056 170.181 229.049 173.027 229.049 175.958V192.993H249.526L253.413 197.237" stroke="#263238" stroke-width="2" stroke-miterlimit="10"/>
<path d="M255.642 196.167H242.35C239.098 196.167 236.461 198.806 236.461 202.062V211.476C236.461 214.731 239.098 217.37 242.35 217.37H255.642C258.895 217.37 261.531 214.731 261.531 211.476V202.062C261.531 198.806 258.895 196.167 255.642 196.167Z" fill="white" stroke="#263238" stroke-miterlimit="10"/>
<path d="M253.555 197.936H244.444C241.191 197.936 238.555 200.575 238.555 203.83V209.708C238.555 212.963 241.191 215.602 244.444 215.602H253.555C256.807 215.602 259.444 212.963 259.444 209.708V203.83C259.444 200.575 256.807 197.936 253.555 197.936Z" fill="white" stroke="#263238" stroke-miterlimit="10"/>
<path d="M201.148 165.777V177.086" stroke="#263238" stroke-width="2" stroke-miterlimit="10"/>
<path d="M201.5 178.854C199.935 179.099 198.597 177.76 198.841 176.193C198.993 175.217 199.792 174.417 200.768 174.265C202.341 174.021 203.67 175.36 203.426 176.926C203.275 177.903 202.476 178.703 201.5 178.854Z" fill="#263238" stroke="#263238" stroke-miterlimit="10"/>
<path d="M201.413 175.461C200.58 175.259 199.839 175.991 200.041 176.833C200.134 177.229 200.462 177.549 200.849 177.642C201.682 177.844 202.422 177.111 202.22 176.269C202.128 175.873 201.8 175.553 201.413 175.461Z" fill="white" stroke="#263238" stroke-miterlimit="10"/>
<path d="M141.839 162.24H131.247L125.594 168.606V180.261" stroke="#263238" stroke-width="2" stroke-miterlimit="10"/>
<path d="M143.249 154.822H122.057L115.352 163.655V185.212" stroke="#263238" stroke-width="2" stroke-miterlimit="10"/>
<path d="M125.906 182.534C124.341 182.778 123.004 181.44 123.248 179.873C123.399 178.897 124.198 178.097 125.174 177.945C126.747 177.701 128.077 179.04 127.833 180.606C127.681 181.583 126.882 182.383 125.906 182.534Z" fill="#263238" stroke="#263238" stroke-miterlimit="10"/>
<path d="M125.811 179.149C124.978 178.947 124.238 179.68 124.44 180.522C124.532 180.917 124.86 181.237 125.247 181.33C126.08 181.532 126.821 180.8 126.619 179.958C126.526 179.562 126.198 179.242 125.811 179.149Z" fill="white" stroke="#263238" stroke-miterlimit="10"/>
<path d="M116 186.416C114.435 186.66 113.097 185.321 113.341 183.755C113.493 182.778 114.292 181.978 115.268 181.827C116.841 181.583 118.17 182.922 117.926 184.488C117.775 185.465 116.976 186.265 116 186.416Z" fill="#263238" stroke="#263238" stroke-miterlimit="10"/>
<path d="M115.913 183.031C115.08 182.829 114.339 183.562 114.541 184.404C114.634 184.799 114.962 185.119 115.349 185.212C116.182 185.414 116.922 184.681 116.72 183.839C116.628 183.444 116.3 183.124 115.913 183.031Z" fill="white" stroke="#263238" stroke-miterlimit="10"/>
<path d="M143.249 147.546H122.057L115.352 138.713V83.2296" stroke="#263238" stroke-width="2" stroke-miterlimit="10"/>
<path d="M116 82.0255C114.435 81.7813 113.097 83.1202 113.341 84.6864C113.493 85.6632 114.292 86.4632 115.268 86.6147C116.841 86.8589 118.17 85.52 117.926 83.9538C117.775 82.977 116.976 82.1771 116 82.0255Z" fill="#263238" stroke="#263238" stroke-miterlimit="10"/>
<path d="M115.913 85.4106C115.08 85.6127 114.339 84.8801 114.541 84.038C114.634 83.6423 114.962 83.3223 115.349 83.2296C116.182 83.0275 116.922 83.7601 116.72 84.6022C116.628 84.998 116.3 85.318 115.913 85.4106Z" fill="white" stroke="#263238" stroke-miterlimit="10"/>
<path d="M147.834 139.917H126.65L119.945 131.084V75.6005" stroke="#263238" stroke-width="2" stroke-miterlimit="10"/>
<path d="M120.586 74.3879C119.021 74.1437 117.683 75.4826 117.927 77.0488C118.079 78.0256 118.878 78.8256 119.854 78.9772C121.427 79.2214 122.756 77.8825 122.512 76.3162C122.361 75.3394 121.562 74.5395 120.586 74.3879Z" fill="#263238" stroke="#263238" stroke-miterlimit="10"/>
<path d="M120.499 77.7814C119.666 77.9835 118.925 77.2509 119.127 76.4089C119.22 76.0131 119.548 75.6931 119.935 75.6005C120.768 75.3984 121.508 76.131 121.306 76.9731C121.214 77.3688 120.886 77.6888 120.499 77.7814Z" fill="white" stroke="#263238" stroke-miterlimit="10"/>
<path d="M152.788 132.499H131.604L124.891 123.657V68.1735" stroke="#263238" stroke-width="2" stroke-miterlimit="10"/>
<path d="M125.531 66.9693C123.966 66.7251 122.629 68.064 122.873 69.6303C123.024 70.6071 123.823 71.407 124.799 71.5586C126.372 71.8028 127.702 70.4639 127.458 68.8977C127.306 67.9209 126.507 67.1209 125.531 66.9693Z" fill="#263238" stroke="#263238" stroke-miterlimit="10"/>
<path d="M125.444 70.3544C124.611 70.5565 123.871 69.8239 124.073 68.9819C124.165 68.5861 124.493 68.2661 124.88 68.1735C125.713 67.9714 126.453 68.704 126.252 69.546C126.159 69.9418 125.831 70.2618 125.444 70.3544Z" fill="white" stroke="#263238" stroke-miterlimit="10"/>
<path d="M88.6172 110.917V98.5552" stroke="#263238" stroke-width="2" stroke-miterlimit="10"/>
<path d="M89.0077 101.957C87.4429 101.713 86.1052 103.052 86.3492 104.618C86.5006 105.595 87.2998 106.395 88.2757 106.546C89.849 106.791 91.1782 105.452 90.9342 103.885C90.7828 102.909 89.9836 102.109 89.0077 101.957Z" fill="#263238" stroke="#263238" stroke-miterlimit="10"/>
<path d="M88.9205 105.342C88.0876 105.544 87.3473 104.812 87.5492 103.97C87.6417 103.574 87.9698 103.254 88.3568 103.161C89.1897 102.959 89.9301 103.692 89.7281 104.534C89.6356 104.93 89.3075 105.25 88.9205 105.342Z" fill="white" stroke="#263238" stroke-miterlimit="10"/>
<path d="M80.5077 95.539L80.5859 100.313L89.8557 100.161L89.7774 95.3868L80.5077 95.539Z" fill="white" stroke="#263238" stroke-miterlimit="10"/>
<path d="M82.453 95.5071L82.5312 100.281L87.9064 100.193L87.8281 95.4188L82.453 95.5071Z" fill="white" stroke="#263238" stroke-miterlimit="10"/>
<path d="M88.6172 149.357V161.718" stroke="#263238" stroke-width="2" stroke-miterlimit="10"/>
<path d="M89.0077 158.316C87.4429 158.561 86.1052 157.222 86.3492 155.656C86.5006 154.679 87.2998 153.879 88.2757 153.727C89.849 153.483 91.1782 154.822 90.9342 156.388C90.7828 157.365 89.9836 158.165 89.0077 158.316Z" fill="#263238" stroke="#263238" stroke-miterlimit="10"/>
<path d="M88.9205 154.931C88.0876 154.729 87.3473 155.462 87.5492 156.304C87.6417 156.7 87.9698 157.02 88.3568 157.112C89.1897 157.314 89.9301 156.582 89.7281 155.74C89.6356 155.344 89.3075 155.024 88.9205 154.931Z" fill="white" stroke="#263238" stroke-miterlimit="10"/>
<path d="M89.7733 164.895L89.8516 160.121L80.5818 159.968L80.5036 164.742L89.7733 164.895Z" fill="white" stroke="#263238" stroke-miterlimit="10"/>
<path d="M87.8202 164.863L87.8984 160.089L82.5233 160L82.4451 164.774L87.8202 164.863Z" fill="white" stroke="#263238" stroke-miterlimit="10"/>
<path d="M97.1411 110.066H77.5391V116.036H97.1411V110.066Z" fill="white" stroke="#263238" stroke-miterlimit="10"/>
<path d="M97.1411 144.608H77.5391V150.578H97.1411V144.608Z" fill="white" stroke="#263238" stroke-miterlimit="10"/>
<path d="M93.731 113.047H80.0938V146.738H93.731V113.047Z" fill="#263238" stroke="#263238" stroke-miterlimit="10"/>
<path d="M259.609 143.446V78.1436" stroke="#263238" stroke-width="6" stroke-miterlimit="10"/>
<path d="M254.111 58.8603H248.289V78.472H254.111V58.8603Z" fill="white" stroke="#263238" stroke-miterlimit="10"/>
<path d="M262.853 62.3043H257.031V81.916H262.853V62.3043Z" fill="white" stroke="#263238" stroke-miterlimit="10"/>
<path d="M271.587 58.8603H265.766V78.472H271.587V58.8603Z" fill="white" stroke="#263238" stroke-miterlimit="10"/>
<path d="M149.822 100.29H147.5V104.61H149.822V100.29Z" fill="white" stroke="#263238" stroke-miterlimit="10"/>
<path d="M157.283 100.29H154.961V104.61H157.283V100.29Z" fill="white" stroke="#263238" stroke-miterlimit="10"/>
<path d="M164.744 100.29H162.422V104.61H164.744V100.29Z" fill="white" stroke="#263238" stroke-miterlimit="10"/>
<path d="M172.205 100.29H169.883V104.61H172.205V100.29Z" fill="white" stroke="#263238" stroke-miterlimit="10"/>
<path d="M179.681 100.29H177.359V104.61H179.681V100.29Z" fill="white" stroke="#263238" stroke-miterlimit="10"/>
<path d="M187.142 100.29H184.82V104.61H187.142V100.29Z" fill="white" stroke="#263238" stroke-miterlimit="10"/>
<path d="M194.603 100.29H192.281V104.61H194.603V100.29Z" fill="white" stroke="#263238" stroke-miterlimit="10"/>
<path d="M202.064 100.29H199.742V104.61H202.064V100.29Z" fill="white" stroke="#263238" stroke-miterlimit="10"/>
<path d="M149.822 166.653H147.5V170.973H149.822V166.653Z" fill="white" stroke="#263238" stroke-miterlimit="10"/>
<path d="M157.283 166.653H154.961V170.973H157.283V166.653Z" fill="white" stroke="#263238" stroke-miterlimit="10"/>
<path d="M164.744 166.653H162.422V170.973H164.744V166.653Z" fill="white" stroke="#263238" stroke-miterlimit="10"/>
<path d="M172.205 166.653H169.883V170.973H172.205V166.653Z" fill="white" stroke="#263238" stroke-miterlimit="10"/>
<path d="M179.681 166.653H177.359V170.973H179.681V166.653Z" fill="white" stroke="#263238" stroke-miterlimit="10"/>
<path d="M187.142 166.653H184.82V170.973H187.142V166.653Z" fill="white" stroke="#263238" stroke-miterlimit="10"/>
<path d="M194.603 166.653H192.281V170.973H194.603V166.653Z" fill="white" stroke="#263238" stroke-miterlimit="10"/>
<path d="M202.064 166.653H199.742V170.973H202.064V166.653Z" fill="white" stroke="#263238" stroke-miterlimit="10"/>
<path d="M205.859 161.339V163.664H210.175V161.339H205.859Z" fill="white" stroke="#263238" stroke-miterlimit="10"/>
<path d="M205.852 153.87V156.194H210.167V153.87H205.852Z" fill="white" stroke="#263238" stroke-miterlimit="10"/>
<path d="M205.852 146.393V148.717H210.167V146.393H205.852Z" fill="white" stroke="#263238" stroke-miterlimit="10"/>
<path d="M205.852 138.924V141.248H210.167V138.924H205.852Z" fill="white" stroke="#263238" stroke-miterlimit="10"/>
<path d="M205.852 131.455V133.779H210.167V131.455H205.852Z" fill="white" stroke="#263238" stroke-miterlimit="10"/>
<path d="M205.859 123.986V126.31H210.175V123.986H205.859Z" fill="white" stroke="#263238" stroke-miterlimit="10"/>
<path d="M205.859 116.516V118.841H210.175V116.516H205.859Z" fill="white" stroke="#263238" stroke-miterlimit="10"/>
<path d="M205.859 109.047V111.371H210.175V109.047H205.859Z" fill="white" stroke="#263238" stroke-miterlimit="10"/>
<path d="M139.195 161.339V163.664H143.511V161.339H139.195Z" fill="white" stroke="#263238" stroke-miterlimit="10"/>
<path d="M139.188 153.87V156.194H143.503V153.87H139.188Z" fill="white" stroke="#263238" stroke-miterlimit="10"/>
<path d="M139.188 146.401V148.725H143.503V146.401H139.188Z" fill="white" stroke="#263238" stroke-miterlimit="10"/>
<path d="M139.188 138.932V141.256H143.503V138.932H139.188Z" fill="white" stroke="#263238" stroke-miterlimit="10"/>
<path d="M139.188 131.463V133.787H143.503V131.463H139.188Z" fill="white" stroke="#263238" stroke-miterlimit="10"/>
<path d="M139.188 123.994V126.318H143.503V123.994H139.188Z" fill="white" stroke="#263238" stroke-miterlimit="10"/>
<path d="M139.188 116.525V118.849H143.503V116.525H139.188Z" fill="white" stroke="#263238" stroke-miterlimit="10"/>
<path d="M139.188 109.056V111.38H143.503V109.056H139.188Z" fill="white" stroke="#263238" stroke-miterlimit="10"/>
<path d="M207.352 103.751H142.211V168.952H207.352V103.751Z" fill="#263238" stroke="#263238" stroke-miterlimit="10"/>
<path d="M294.61 62.6075C302.713 62.6075 309.282 56.0325 309.282 47.9219C309.282 39.8112 302.713 33.2363 294.61 33.2363C286.506 33.2363 279.938 39.8112 279.938 47.9219C279.938 56.0325 286.506 62.6075 294.61 62.6075Z" fill="#263238" stroke="#263238" stroke-miterlimit="10"/>
<path d="M301.234 55.1325C305.213 51.4729 305.474 45.2778 301.818 41.2952C298.162 37.3126 291.972 37.0508 287.993 40.7104C284.015 44.37 283.753 50.5652 287.409 54.5477C291.065 58.5303 297.255 58.7921 301.234 55.1325Z" fill="white" stroke="#263238" stroke-miterlimit="10"/>
<path d="M85.5819 212.335C90.5989 211.517 94.0036 206.783 93.1865 201.761C92.3695 196.74 87.64 193.332 82.6231 194.15C77.6061 194.968 74.2014 199.701 75.0185 204.723C75.8356 209.745 80.565 213.152 85.5819 212.335Z" fill="#263238" stroke="#263238" stroke-miterlimit="10"/>
<path d="M89.8106 205.458C91.0372 202.298 89.472 198.741 86.3147 197.514C83.1574 196.286 79.6036 197.853 78.3771 201.013C77.1506 204.173 78.7157 207.73 81.873 208.958C85.0303 210.185 88.5841 208.619 89.8106 205.458Z" fill="white" stroke="#263238" stroke-miterlimit="10"/>
<path d="M106.7 212.348C111.72 211.548 115.142 206.827 114.344 201.802C113.545 196.778 108.828 193.353 103.808 194.152C98.7882 194.952 95.3662 199.673 96.1649 204.697C96.9635 209.722 101.68 213.147 106.7 212.348Z" fill="#263238" stroke="#263238" stroke-miterlimit="10"/>
<path d="M110.889 205.708C112.239 202.598 110.814 198.983 107.708 197.632C104.601 196.281 100.988 197.707 99.6389 200.816C98.2893 203.926 99.7138 207.542 102.82 208.893C105.927 210.243 109.54 208.818 110.889 205.708Z" fill="white" stroke="#263238" stroke-miterlimit="10"/>
<path d="M208.077 348.918H137.249L130.805 296.019H201.633L208.077 348.918Z" fill="#263238" stroke="#263238" stroke-miterlimit="10"/>
<path d="M204.395 346.4H140.314L134.484 298.537H198.574L204.395 346.4Z" fill="#00A63F" stroke="#263238" stroke-miterlimit="10"/>
<path d="M257.559 381.91L256.987 324.085L241.171 335.242L225.708 340.278L208.453 336.32L209.892 332.725C209.892 332.725 215.646 319.774 218.877 316.17C222.116 312.574 233.978 305.737 233.978 305.737L244.048 297.459C244.048 297.459 247.64 279.464 248.726 276.231C249.811 272.997 269.934 261.116 269.934 261.116C269.934 261.116 284.674 252.838 292.229 251.398C299.775 249.958 304.453 250.682 304.453 250.682C304.453 250.682 335.017 262.556 337.17 265.435C339.324 268.315 339.686 338.484 339.686 352.522C339.686 366.559 344.002 384.907 344.002 384.907" fill="white"/>
<path d="M257.559 381.91L256.987 324.085L241.171 335.242L225.708 340.278L208.453 336.32L209.892 332.725C209.892 332.725 215.646 319.774 218.877 316.17C222.116 312.574 233.978 305.737 233.978 305.737L244.048 297.459C244.048 297.459 247.64 279.464 248.726 276.231C249.811 272.997 269.934 261.116 269.934 261.116C269.934 261.116 284.674 252.838 292.229 251.398C299.775 249.958 304.453 250.682 304.453 250.682C304.453 250.682 335.017 262.556 337.17 265.435C339.324 268.315 339.686 338.484 339.686 352.522C339.686 366.559 344.002 384.907 344.002 384.907" stroke="#263238" stroke-miterlimit="10"/>
<path d="M278.973 364.159C278.939 366.963 278.914 368.715 278.914 368.715" stroke="#263238" stroke-miterlimit="10"/>
<path d="M280.714 293.417C280.151 304.608 279.394 320.523 279.394 325.045C279.394 330.064 279.158 349.33 279.023 360.53" stroke="#263238" stroke-miterlimit="10"/>
<path d="M281.312 281.864C281.312 281.864 281.135 285.232 280.883 290.116" stroke="#263238" stroke-miterlimit="10"/>
<path d="M253.179 287.641L252.75 283.952" stroke="#263238" stroke-miterlimit="10"/>
<path d="M257.252 322.62L253.5 290.428" stroke="#263238" stroke-miterlimit="10"/>
<path d="M248.803 297.215C247.626 295.91 246.65 294.663 246.305 293.838" stroke="#263238" stroke-miterlimit="10"/>
<path d="M254.678 303.076C254.678 303.076 252.558 301.139 250.438 298.949" stroke="#263238" stroke-miterlimit="10"/>
<path d="M238.156 302.646C238.156 302.646 243.734 308.877 253.392 313.601" stroke="#263238" stroke-miterlimit="10"/>
<path d="M243.461 311.53C245.833 312.894 248.845 314.418 252.101 315.53" stroke="#263238" stroke-miterlimit="10"/>
<path d="M238.367 308.229C238.367 308.229 239.259 308.903 240.773 309.888" stroke="#263238" stroke-miterlimit="10"/>
<path d="M281.974 278.715L271.912 273.073L266.906 279.902L269.868 262.598L278.28 270.109L281.974 278.715Z" fill="white" stroke="#263238" stroke-miterlimit="10"/>
<path d="M299.527 247.314L281.498 266.547L280.968 279.085L276.274 274.715L264.58 263.844C264.58 263.844 258.254 268.307 256.016 268.551C253.77 268.795 246.08 257.495 246.08 257.495C246.08 257.495 241.647 258.884 240.401 257.882C239.156 256.88 238.778 245.453 238.778 245.453C238.778 245.453 237.255 241.841 235.228 240.544C233.2 239.247 231.072 226.616 231.072 226.616C231.072 226.616 230.171 221.8 233.335 219.568C236.498 217.328 245.643 211.046 253.155 210.609C260.668 210.171 274.676 213.952 278.529 218.078C282.382 222.195 284.754 233.673 284.754 233.673L299.536 247.314H299.527Z" fill="white" stroke="#263238" stroke-miterlimit="10"/>
<path d="M247.494 243.912C248.057 244.712 248.125 245.647 247.637 245.984C247.149 246.329 246.299 245.95 245.735 245.15C245.172 244.35 245.104 243.415 245.592 243.079C246.08 242.733 246.93 243.112 247.494 243.912Z" fill="#263238"/>
<path d="M247.796 237.378C241.713 238.262 241.705 240.325 241.705 240.325L241.352 241.277" stroke="#263238" stroke-width="2" stroke-miterlimit="10" stroke-linecap="round"/>
<path d="M250.695 259.97L255.02 257.672" stroke="#263238" stroke-miterlimit="10"/>
<path d="M246.078 257.495L250.007 255.693L249.258 253.023" stroke="#263238" stroke-miterlimit="10"/>
<path d="M277.425 251.12L276.264 274.715L264.57 263.844C264.57 263.844 275.154 253.427 275.659 251.769C276.163 250.11 274.304 243.449 274.304 243.449L277.417 251.129L277.425 251.12Z" fill="#263238" stroke="#263238" stroke-miterlimit="10"/>
<path d="M276.107 230.422C276.107 230.422 275.67 234.818 275.342 236.005C275.014 237.184 271.867 237.757 271.867 237.757" fill="white"/>
<path d="M276.107 230.422C276.107 230.422 275.67 234.818 275.342 236.005C275.014 237.184 271.867 237.757 271.867 237.757" stroke="#263238" stroke-miterlimit="10"/>
<path d="M239.646 204.512C239.646 204.512 236.719 198.399 230.56 204.36C224.402 210.322 222.711 222.608 224.486 225.067C226.261 227.526 231.536 227.332 233.025 227.164C234.523 227.004 248.934 220.52 248.934 220.52C248.934 220.52 249.615 230.279 252.35 231.121C255.084 231.963 259.98 231.803 259.98 231.803C259.98 231.803 260.838 236.249 263.076 236.005C265.314 235.761 267.064 234.439 266.862 232.57C266.66 230.7 262.268 228.528 266.054 225.092C269.84 221.656 273.66 222.002 275.224 225.993C276.789 229.984 275.039 231.307 276.663 232.266C278.278 233.226 286.447 235.365 286.447 235.365C286.447 235.365 285.959 216.882 284.108 210.272C282.257 203.662 271.245 196.159 263.867 194.306C256.489 192.462 245.771 198.163 244.063 199.855C242.355 201.548 239.655 204.495 239.655 204.495L239.646 204.512Z" fill="#263238" stroke="#263238" stroke-miterlimit="10"/>
<path d="M280.562 267.608L288.126 283.136L310.075 251.634L300.013 243.954L280.562 267.608Z" fill="white" stroke="#263238" stroke-miterlimit="10"/>
<path d="M256.445 310.705C256.445 310.705 260.433 306.907 263.84 308.616C267.256 310.326 268.392 315.26 268.392 317.728V380.2" stroke="#263238" stroke-miterlimit="10"/>
<path d="M247.843 320.953C247.843 320.953 243.923 320.203 242.055 319.647C240.188 319.083 238.698 318.527 238.513 320.767C238.328 323.007 242.804 325.247 243.553 325.247C244.301 325.247 251.949 323.563 252.512 323.378C253.076 323.193 247.843 320.953 247.843 320.953Z" fill="#92E3A9" stroke="#263238" stroke-miterlimit="10"/>
<path d="M237.207 333.672L236.68 333.227L224.556 347.613L225.083 348.058L237.207 333.672Z" fill="white" stroke="#263238" stroke-miterlimit="10"/>
<path d="M257.304 311.285L255.375 309.657L235.422 333.34L237.352 334.968L257.304 311.285Z" fill="#92E3A9" stroke="#263238" stroke-miterlimit="10"/>
<path d="M280.478 338.004L262.499 321.449H246.321C246.321 321.449 236.613 328.649 235.536 331.167C234.459 333.685 236.974 332.969 238.051 332.607C239.128 332.245 243.082 328.287 243.082 328.287C243.082 328.287 242.367 339.444 244.883 341.962C247.398 344.48 257.468 344.842 259.984 344.842C262.499 344.842 268.254 347.722 270.407 348.084C272.561 348.446 278.315 348.8 278.315 348.8L280.469 338.004H280.478Z" fill="#92E3A9" stroke="#263238" stroke-miterlimit="10"/>
<path d="M243.086 328.287L245.24 326.485L257.548 326.376" stroke="#263238" stroke-miterlimit="10"/>
<path d="M243.359 332.725L256.61 332.539" stroke="#263238" stroke-miterlimit="10"/>
<path d="M243.547 338.324L255.863 338.51" stroke="#263238" stroke-miterlimit="10"/>
<path d="M274.897 332.034L272.289 350.004L290.385 355.991L293.372 338.644L274.897 332.034Z" fill="white" stroke="#263238" stroke-miterlimit="10"/>
<path d="M317.98 275.86C312.949 280.66 305.756 300.81 306.236 303.21C306.715 305.61 319.419 331.276 319.419 331.276C319.419 331.276 318.224 333.676 317.98 334.392C317.736 335.108 319.898 336.312 319.898 336.312C319.898 336.312 297.124 335.352 295.93 336.076C294.735 336.792 293.372 338.004 293.372 338.004C293.372 338.004 288.981 350.231 289.696 354.787C290.411 359.342 296.409 362.702 299.043 363.182C301.676 363.662 322.052 367.258 333.796 367.258C345.541 367.258 353.449 368.698 357.285 366.542C361.121 364.386 364.234 353.111 361.601 347.351C358.968 341.592 348.182 295.051 346.744 288.575C345.305 282.1 337.633 267.583 337.397 266.505C337.161 265.427 333.561 262.909 327.091 266.025" fill="white"/>
<path d="M317.98 275.86C312.949 280.66 305.756 300.81 306.236 303.21C306.715 305.61 319.419 331.276 319.419 331.276C319.419 331.276 318.224 333.676 317.98 334.392C317.736 335.108 319.898 336.312 319.898 336.312C319.898 336.312 297.124 335.352 295.93 336.076C294.735 336.792 293.372 338.004 293.372 338.004C293.372 338.004 288.981 350.231 289.696 354.787C290.411 359.342 296.409 362.702 299.043 363.182C301.676 363.662 322.052 367.258 333.796 367.258C345.541 367.258 353.449 368.698 357.285 366.542C361.121 364.386 364.234 353.111 361.601 347.351C358.968 341.592 348.182 295.051 346.744 288.575C345.305 282.1 337.633 267.583 337.397 266.505C337.161 265.427 333.561 262.909 327.091 266.025" stroke="#263238" stroke-miterlimit="10"/>
<path d="M319.898 336.32C319.898 336.32 334.276 335.605 338.356 336.8" stroke="#263238" stroke-miterlimit="10"/>
<path d="M323.734 334.4C323.734 334.4 337.397 326.965 342.192 326.005C346.988 325.045 345.785 326.485 344.11 327.681C342.436 328.876 339.079 330.081 339.079 330.081" stroke="#263238" stroke-miterlimit="10"/>
<path d="M325.438 310.57C325.909 308.541 326.38 306.604 326.851 304.894" stroke="#263238" stroke-miterlimit="10"/>
<path d="M321.336 331.285C321.336 331.285 322.817 322.654 324.625 314.225" stroke="#263238" stroke-miterlimit="10"/>
<path d="M258.783 382.028V349.28H99.1484V382.028" fill="white"/>
<path d="M258.783 382.028V349.28H99.1484V382.028" stroke="#263238" stroke-miterlimit="10"/>
<path d="M258.783 351.671H99.1484V360.067H258.783V351.671Z" fill="#263238" stroke="#263238" stroke-miterlimit="10"/>
<path d="M263.576 349.28H94.3594V357.675H263.576V349.28Z" fill="white" stroke="#263238" stroke-miterlimit="10"/>
<path d="M226.176 338.585C226.176 338.585 224.502 334.99 220.422 332.59C216.35 330.19 212.27 330.19 212.27 330.19C212.27 330.19 210.596 342.905 210.116 343.865C209.637 344.825 208.921 344.825 212.034 345.785C215.147 346.745 219.942 345.785 219.942 345.785L226.176 338.585Z" fill="#92E3A9" stroke="#263238" stroke-miterlimit="10"/>
<path d="M200.772 337.625C200.772 337.625 197.415 339.781 197.415 340.505C197.415 341.23 196.936 347.461 198.13 347.705C199.325 347.941 200.284 346.029 200.284 346.029L200.999 343.874H202.194L200.755 337.634L200.772 337.625Z" fill="#92E3A9" stroke="#263238" stroke-miterlimit="10"/>
<path d="M204.85 334.266C204.85 334.266 198.616 334.746 199.34 337.145C200.055 339.545 201.493 345.541 202.452 346.265C203.412 346.989 207.004 345.785 207.004 345.785L206.045 334.03L204.85 334.266Z" fill="#92E3A9" stroke="#263238" stroke-miterlimit="10"/>
<path d="M208.21 330.182C208.21 330.182 204.853 330.417 203.179 332.102C201.505 333.777 204.138 335.941 204.373 336.901C204.609 337.861 205.332 345.061 206.292 345.777C207.251 346.492 209.169 346.492 209.648 344.817C210.128 343.141 208.21 330.182 208.21 330.182Z" fill="#92E3A9" stroke="#263238" stroke-miterlimit="10"/>
<path d="M214.432 330.182C214.432 330.182 216.106 344.093 214.668 345.052C213.229 346.012 208.678 347.208 208.678 345.768C208.678 344.328 207.719 328.733 207.719 328.018C207.719 327.302 209.393 326.342 211.311 326.342C213.229 326.342 214.424 330.182 214.424 330.182H214.432Z" fill="#92E3A9" stroke="#263238" stroke-miterlimit="10"/>
<path d="M221.87 336.421C221.87 336.421 216.595 343.857 217.318 345.297C218.042 346.737 218.277 346.972 219.236 346.972C220.195 346.972 227.691 340.025 227.54 339.057C227.388 338.089 223.073 334.973 223.073 334.973L221.878 336.413L221.87 336.421Z" fill="#92E3A9" stroke="#263238" stroke-miterlimit="10"/>
<path d="M238.649 346.88H190.469V349.035H238.649V346.88Z" fill="white" stroke="#263238" stroke-miterlimit="10"/>
<path d="M185.685 317.13H124.086V349.28H185.685V317.13Z" fill="#263238" stroke="#263238" stroke-miterlimit="10"/>
<path d="M185.688 317.13H137.508V349.28H185.688V317.13Z" fill="white" stroke="#263238" stroke-miterlimit="10"/>
<path d="M159.518 320.49H144.249C143.171 320.49 142.297 321.364 142.297 322.443V340.851C142.297 341.93 143.171 342.804 144.249 342.804H159.518C160.596 342.804 161.47 341.93 161.47 340.851V322.443C161.47 321.364 160.596 320.49 159.518 320.49Z" fill="white" stroke="#263238" stroke-miterlimit="10"/>
<path d="M158.579 321.584H145.194C144.116 321.584 143.242 322.459 143.242 323.538V339.747C143.242 340.826 144.116 341.701 145.194 341.701H158.579C159.657 341.701 160.531 340.826 160.531 339.747V323.538C160.531 322.459 159.657 321.584 158.579 321.584Z" fill="#92E3A9" stroke="#263238" stroke-miterlimit="10"/>
<path d="M143.148 326.148H144.949L145.723 324.515L146.581 326.662L147.7 325.634L148.129 327.184L149.677 324.346L150.367 326.493L151.486 325.205L151.746 326.325L152.605 325.466L152.865 326.754L154.413 324.691L154.842 326.409H156.13L156.727 324.346C156.727 324.346 157.072 325.98 157.072 326.232C157.072 326.485 158.788 325.028 158.788 325.028L159.217 327.605L159.814 325.971L160.159 325.887" stroke="#263238" stroke-miterlimit="10"/>
<path d="M159.978 331.908H158.211L157.454 330.274L156.613 332.422L155.519 331.394L155.098 332.944L153.584 330.106L152.911 332.253L151.817 330.965L151.565 332.085L150.724 331.226L150.471 332.514L148.957 330.451L148.536 332.169H147.274L146.685 330.106C146.685 330.106 146.349 331.739 146.349 331.992C146.349 332.245 144.666 330.788 144.666 330.788L144.246 333.365L143.657 331.731L143.32 331.647" stroke="#263238" stroke-miterlimit="10"/>
<path d="M159.978 336.977H158.211L157.454 335.344L156.613 337.491L155.519 336.463L155.098 338.013L153.584 335.175L152.911 337.322L151.817 336.034L151.565 337.154L150.724 336.295L150.471 337.583L148.957 335.52L148.536 337.238H147.274L146.685 335.175C146.685 335.175 146.349 336.809 146.349 337.061C146.349 337.314 144.666 335.857 144.666 335.857L144.246 338.434L143.657 336.8L143.32 336.716" stroke="#263238" stroke-miterlimit="10"/>
<path d="M167.134 322.578C167.134 323.125 166.688 323.571 166.141 323.571C165.594 323.571 165.148 323.125 165.148 322.578C165.148 322.03 165.594 321.584 166.141 321.584C166.688 321.584 167.134 322.03 167.134 322.578Z" fill="white" stroke="#263238" stroke-miterlimit="10"/>
<path d="M173.564 322.578C173.564 323.125 173.118 323.571 172.571 323.571C172.024 323.571 171.578 323.125 171.578 322.578C171.578 322.03 172.024 321.584 172.571 321.584C173.118 321.584 173.564 322.03 173.564 322.578Z" fill="white" stroke="#263238" stroke-miterlimit="10"/>
<path d="M179.978 322.578C179.978 323.125 179.532 323.571 178.985 323.571C178.438 323.571 177.992 323.125 177.992 322.578C177.992 322.03 178.438 321.584 178.985 321.584C179.532 321.584 179.978 322.03 179.978 322.578Z" fill="white" stroke="#263238" stroke-miterlimit="10"/>
<path d="M167.134 328.018C167.134 328.565 166.688 329.011 166.141 329.011C165.594 329.011 165.148 328.565 165.148 328.018C165.148 327.47 165.594 327.024 166.141 327.024C166.688 327.024 167.134 327.47 167.134 328.018Z" fill="white" stroke="#263238" stroke-miterlimit="10"/>
<path d="M173.564 328.018C173.564 328.565 173.118 329.011 172.571 329.011C172.024 329.011 171.578 328.565 171.578 328.018C171.578 327.47 172.024 327.024 172.571 327.024C173.118 327.024 173.564 327.47 173.564 328.018Z" fill="white" stroke="#263238" stroke-miterlimit="10"/>
<path d="M179.978 328.018C179.978 328.565 179.532 329.011 178.985 329.011C178.438 329.011 177.992 328.565 177.992 328.018C177.992 327.47 178.438 327.024 178.985 327.024C179.532 327.024 179.978 327.47 179.978 328.018Z" fill="white" stroke="#263238" stroke-miterlimit="10"/>
<path d="M167.134 333.449C167.134 333.996 166.688 334.442 166.141 334.442C165.594 334.442 165.148 333.996 165.148 333.449C165.148 332.901 165.594 332.455 166.141 332.455C166.688 332.455 167.134 332.901 167.134 333.449Z" fill="white" stroke="#263238" stroke-miterlimit="10"/>
<path d="M173.564 333.449C173.564 333.996 173.118 334.442 172.571 334.442C172.024 334.442 171.578 333.996 171.578 333.449C171.578 332.901 172.024 332.455 172.571 332.455C173.118 332.455 173.564 332.901 173.564 333.449Z" fill="white" stroke="#263238" stroke-miterlimit="10"/>
<path d="M179.978 333.449C179.978 333.996 179.532 334.442 178.985 334.442C178.438 334.442 177.992 333.996 177.992 333.449C177.992 332.901 178.438 332.455 178.985 332.455C179.532 332.455 179.978 332.901 179.978 333.449Z" fill="white" stroke="#263238" stroke-miterlimit="10"/>
<path d="M167.134 338.889C167.134 339.436 166.688 339.882 166.141 339.882C165.594 339.882 165.148 339.436 165.148 338.889C165.148 338.341 165.594 337.895 166.141 337.895C166.688 337.895 167.134 338.341 167.134 338.889Z" fill="white" stroke="#263238" stroke-miterlimit="10"/>
<path d="M173.564 338.889C173.564 339.436 173.118 339.882 172.571 339.882C172.024 339.882 171.578 339.436 171.578 338.889C171.578 338.341 172.024 337.895 172.571 337.895C173.118 337.895 173.564 338.341 173.564 338.889Z" fill="white" stroke="#263238" stroke-miterlimit="10"/>
<path d="M179.978 338.889C179.978 339.436 179.532 339.882 178.985 339.882C178.438 339.882 177.992 339.436 177.992 338.889C177.992 338.341 178.438 337.895 178.985 337.895C179.532 337.895 179.978 338.341 179.978 338.889Z" fill="white" stroke="#263238" stroke-miterlimit="10"/>
</g>
<defs>
<clipPath id="clip0_6341_5300">
<rect width="386" height="385" fill="white"/>
</clipPath>
</defs>
</svg>
