<svg xmlns="http://www.w3.org/2000/svg" width="53" height="53" viewBox="0 0 53 53" fill="none" class="svg replaced-svg">
<g clip-path="url(#clip0_6342_5755)">
<path d="M31.7292 46.2901H21.3609C19.4735 46.2901 19.4735 43.438 21.3609 43.438H31.7292C33.6166 43.438 33.6166 46.2901 31.7292 46.2901Z" fill="#00A63F"></path>
<path d="M39.2333 52H13.8687C11.9813 52 11.9813 49.1479 13.8687 49.1479H39.2333C41.1207 49.1479 41.1207 52 39.2333 52Z" fill="#00A63F"></path>
<path d="M25.1216 4C18.8356 4.34035 13.1751 6.88124 8.82031 10.8057L14.2551 16.2405C17.1509 13.7231 20.8606 12.0169 25.1216 11.7013V4Z" fill="#00A63F"></path>
<path d="M7.70697 29.1237C8.00993 24.9691 9.64703 21.288 12.2424 18.2597L6.79494 12.8123C2.84385 17.2007 0.331476 22.7375 0 29.1237H7.70697Z" fill="#00A63F"></path>
<path d="M7.6943 31.9758H0C0.297885 37.5837 2.30068 42.739 5.54066 46.8992C6.03565 47.5343 6.97747 47.6034 7.59162 47.0824L11.2727 43.9641C11.871 43.4571 11.93 42.5837 11.4565 41.9581C9.32506 39.1422 7.97254 35.7089 7.6943 31.9758Z" fill="#00A63F"></path>
<path d="M49.3247 16.7887C48.0381 18.3688 46.1285 20.7119 43.9939 23.3263C44.9249 25.5547 45.4706 27.9828 45.4706 30.5497C45.4706 34.8627 44.0275 38.8385 41.5975 42.0208C41.1386 42.6216 41.2685 43.4868 41.8466 43.9735L45.5112 47.0582C46.1329 47.5817 47.0849 47.5101 47.5837 46.8681C51.0861 42.3611 53.1713 36.6988 53.1713 30.5491C53.1719 25.4331 51.7395 20.7588 49.3247 16.7887Z" fill="#00A63F"></path>
<path d="M47.6222 14.353C42.9606 8.33764 35.8317 4.42584 27.9732 4.00183V11.7082C32.8605 12.0808 37.8808 14.3587 41.4452 18.917C41.4452 18.917 24.4658 31.5207 23.8618 32.1253C22.4732 33.514 22.4732 35.7659 23.8618 37.1545C25.2504 38.5432 27.5023 38.5432 28.891 37.1545C29.791 36.2539 47.6222 14.353 47.6222 14.353ZM47.5512 14.4405C47.5519 14.4405 47.5519 14.4398 47.5519 14.4398L47.5512 14.4405Z" fill="#00A63F"></path>
</g>
<defs>
<clipPath id="clip0_6342_5755">
<rect width="53" height="53" fill="white"></rect>
</clipPath>
</defs>
</svg>