<svg width="93" height="93" viewBox="0 0 93 93" fill="none" xmlns="http://www.w3.org/2000/svg">
<g filter="url(#filter0_d_189_582)">
<circle cx="46.5" cy="42.5" r="42.5" fill="white"/>
<path d="M68.7468 22.76H24.2534V30.9067H68.7468V22.76ZM43.0534 61.9267C28.2641 61.676 24.7754 41.56 24.8801 31.5333H24.2534V61.9267H43.0534Z" fill="white"/>
<path d="M61.2743 44.6326C61.2743 44.8786 61.372 45.1145 61.5459 45.2885C61.7199 45.4624 61.9558 45.5601 62.2018 45.5601C62.4477 45.5601 62.6836 45.4624 62.8576 45.2885C63.0315 45.1145 63.1292 44.8786 63.1292 44.6326C63.1292 44.3867 63.0315 44.1508 62.8576 43.9768C62.6836 43.8029 62.4477 43.7052 62.2018 43.7052C61.9558 43.7052 61.7199 43.8029 61.5459 43.9768C61.372 44.1508 61.2743 44.3867 61.2743 44.6326ZM67.4564 21.8752H32.8217C32.6391 21.8754 32.4641 21.948 32.3349 22.0771C32.2058 22.2063 32.1332 22.3813 32.133 22.564C32.1332 22.7466 32.2058 22.9216 32.3349 23.0508C32.4641 23.1799 32.6391 23.2525 32.8217 23.2527H67.457C68.0999 23.2527 68.6226 23.7759 68.6226 24.4183V30.777H63.8079C63.6253 30.7772 63.4502 30.8498 63.3211 30.9789C63.192 31.1081 63.1194 31.2831 63.1192 31.4658C63.1194 31.6484 63.192 31.8234 63.3211 31.9526C63.4502 32.0817 63.6253 32.1543 63.8079 32.1545H68.6226V60.5832C68.6226 61.2262 68.0993 61.7488 67.457 61.7488H35.5252C35.3426 61.749 35.1675 61.8216 35.0384 61.9507C34.9093 62.0798 34.8366 62.2549 34.8365 62.4375C34.8366 62.6201 34.9093 62.7952 35.0384 62.9243C35.1675 63.0534 35.3426 63.126 35.5252 63.1262H67.457C68.8588 63.1262 70 61.9857 70 60.5832V24.4183C70 23.0164 68.8588 21.8752 67.4564 21.8752ZM32.3129 61.7482H25.543C25.2339 61.7482 24.9374 61.6254 24.7188 61.4068C24.5002 61.1882 24.3774 60.8917 24.3774 60.5826V32.1538H60.5956C60.7782 32.1537 60.9533 32.0811 61.0824 31.9519C61.2115 31.8228 61.2842 31.6477 61.2843 31.4651C61.2842 31.2825 61.2115 31.1074 61.0824 30.9783C60.9533 30.8492 60.7782 30.7766 60.5956 30.7764H24.3768V24.4183C24.3768 23.7753 24.9001 23.2527 25.5424 23.2527H29.6088C29.7914 23.2525 29.9665 23.1799 30.0956 23.0508C30.2248 22.9216 30.2974 22.7466 30.2975 22.564C30.2974 22.3813 30.2248 22.2063 30.0956 22.0771C29.9665 21.948 29.7914 21.8754 29.6088 21.8752H25.543C24.1405 21.8752 23 23.0158 23 24.4183V60.5826C23 61.9844 24.1405 63.1256 25.543 63.1256H32.3129C32.4955 63.1254 32.6706 63.0528 32.7997 62.9237C32.9288 62.7946 33.0014 62.6195 33.0016 62.4369C33.0014 62.2543 32.9288 62.0792 32.7997 61.9501C32.6706 61.8209 32.4955 61.7483 32.3129 61.7482ZM67.0334 28.4979V25.5306C67.0332 25.348 66.9606 25.1729 66.8315 25.0438C66.7023 24.9147 66.5273 24.842 66.3447 24.8419H44.4602C44.2776 24.842 44.1025 24.9147 43.9734 25.0438C43.8443 25.1729 43.7717 25.348 43.7715 25.5306V28.4979C43.7717 28.6805 43.8443 28.8555 43.9734 28.9847C44.1025 29.1138 44.2776 29.1864 44.4602 29.1866H66.3447C66.5273 29.1864 66.7023 29.1138 66.8315 28.9847C66.9606 28.8555 67.0332 28.6805 67.0334 28.4979ZM65.6566 27.8092H45.1489V26.2193H65.6559V27.8098L65.6566 27.8092ZM28.1393 24.8419C27.5634 24.8425 27.0114 25.0716 26.6042 25.4788C26.197 25.886 25.9679 26.4381 25.9673 27.0139C25.9679 27.5898 26.197 28.1418 26.6042 28.549C27.0114 28.9562 27.5634 29.1853 28.1393 29.1859C28.7151 29.1853 29.2672 28.9562 29.6744 28.549C30.0816 28.1418 30.3107 27.5898 30.3113 27.0139C30.3107 26.4381 30.0816 25.886 29.6744 25.4788C29.2672 25.0716 28.7151 24.8425 28.1393 24.8419ZM28.1393 27.8092C27.9284 27.809 27.7263 27.7251 27.5772 27.576C27.4281 27.4269 27.3442 27.2248 27.3441 27.0139C27.3442 26.8031 27.4281 26.6009 27.5772 26.4518C27.7263 26.3027 27.9284 26.2188 28.1393 26.2187C28.3502 26.2188 28.5523 26.3027 28.7014 26.4518C28.8505 26.6009 28.9344 26.8031 28.9345 27.0139C28.9344 27.2248 28.8505 27.4269 28.7014 27.576C28.5523 27.7251 28.3502 27.809 28.1393 27.8092Z" fill="black"/>
<path d="M36.2464 27.0146C36.2457 26.4387 36.0167 25.8866 35.6095 25.4794C35.2023 25.0722 34.6502 24.8432 34.0744 24.8425C33.4985 24.8432 32.9464 25.0722 32.5392 25.4794C32.1321 25.8866 31.903 26.4387 31.9023 27.0146C31.903 27.5904 32.1321 28.1425 32.5392 28.5497C32.9464 28.9569 33.4985 29.1859 34.0744 29.1866C34.6502 29.1859 35.2023 28.9569 35.6095 28.5497C36.0167 28.1425 36.2457 27.5904 36.2464 27.0146V27.0146ZM33.2791 27.0146C33.2793 26.8037 33.3631 26.6015 33.5122 26.4524C33.6613 26.3033 33.8635 26.2195 34.0744 26.2193C34.2852 26.2195 34.4874 26.3033 34.6365 26.4524C34.7856 26.6015 34.8694 26.8037 34.8696 27.0146C34.8694 27.2254 34.7856 27.4276 34.6365 27.5767C34.4874 27.7258 34.2852 27.8096 34.0744 27.8098C33.8635 27.8096 33.6613 27.7258 33.5122 27.5767C33.3631 27.4276 33.2793 27.2254 33.2791 27.0146V27.0146Z" fill="black"/>
<path d="M42.181 27.0146C42.1803 26.4387 41.9513 25.8866 41.5441 25.4794C41.1369 25.0722 40.5848 24.8432 40.0089 24.8425C39.4331 24.8432 38.881 25.0722 38.4738 25.4794C38.0666 25.8866 37.8376 26.4387 37.8369 27.0146C37.8376 27.5904 38.0666 28.1425 38.4738 28.5497C38.881 28.9569 39.4331 29.1859 40.0089 29.1866C40.5848 29.1859 41.1369 28.9569 41.5441 28.5497C41.9513 28.1425 42.1803 27.5904 42.181 27.0146V27.0146ZM39.2137 27.0146C39.2139 26.8037 39.2977 26.6015 39.4468 26.4524C39.5959 26.3033 39.7981 26.2195 40.0089 26.2193C40.2198 26.2195 40.422 26.3033 40.5711 26.4524C40.7202 26.6015 40.804 26.8037 40.8042 27.0146C40.804 27.2254 40.7202 27.4276 40.5711 27.5767C40.422 27.7258 40.2198 27.8096 40.0089 27.8098C39.7981 27.8096 39.5959 27.7258 39.4468 27.5767C39.2977 27.4276 39.2139 27.2254 39.2137 27.0146V27.0146Z" fill="black"/>
<path d="M35.208 45.5995C35.5577 45.597 35.8679 45.3733 35.9807 45.0417L35.9863 45.0236L37.1344 41.315L38.2768 45.0242L38.2862 45.0524C38.4028 45.3802 38.7136 45.5995 39.0608 45.5995H39.0664C39.4161 45.597 39.7263 45.3733 39.8391 45.0417C39.8487 45.0132 39.8564 44.9841 39.8623 44.9546L41.0229 39.1216C41.0583 38.9426 41.0212 38.7568 40.9199 38.605C40.8185 38.4532 40.661 38.3478 40.4821 38.312C40.303 38.2766 40.1172 38.3136 39.9654 38.415C39.8136 38.5164 39.7083 38.6738 39.6724 38.8528L38.9436 42.515L37.7911 38.7732C37.7455 38.6277 37.6529 38.5015 37.5279 38.4142C37.4028 38.327 37.2524 38.2837 37.1001 38.2911C36.9478 38.2984 36.8022 38.3561 36.6862 38.455C36.5702 38.5539 36.4902 38.6885 36.4589 38.8377L35.3202 42.5157L34.5939 38.8428C34.5583 38.6637 34.4532 38.506 34.3015 38.4044C34.1498 38.3028 33.964 38.2655 33.7849 38.3007C33.6059 38.3364 33.4484 38.4416 33.3469 38.5933C33.2454 38.745 33.2082 38.9307 33.2434 39.1097L34.3996 44.9553C34.4059 44.9885 34.4153 45.0211 34.4266 45.0524C34.5431 45.3802 34.854 45.5995 35.2011 45.5995H35.2068H35.208ZM49.0398 38.8528L48.311 42.515L47.1586 38.7732C47.1129 38.6277 47.0203 38.5015 46.8953 38.4142C46.7702 38.327 46.6198 38.2837 46.4675 38.2911C46.3152 38.2984 46.1697 38.3561 46.0536 38.455C45.9376 38.5539 45.8576 38.6885 45.8263 38.8377L44.6876 42.5157L43.9613 38.8428C43.9257 38.6637 43.8206 38.506 43.6689 38.4044C43.5172 38.3028 43.3314 38.2655 43.1523 38.3007C42.9733 38.3364 42.8158 38.4416 42.7143 38.5933C42.6128 38.745 42.5756 38.9307 42.6108 39.1097L43.767 44.9553C43.7737 44.9883 43.7827 45.0207 43.794 45.0524C43.9105 45.3802 44.2214 45.5995 44.5685 45.5995H44.5742C44.9239 45.597 45.2341 45.3733 45.3469 45.0417L45.3525 45.0236L46.5006 41.315L47.643 45.0242L47.6524 45.0524C47.7689 45.3802 48.0798 45.5995 48.4269 45.5995H48.4326C48.7823 45.597 49.0925 45.3733 49.2053 45.0417C49.2149 45.0132 49.2226 44.9841 49.2284 44.9546L50.389 39.1216C50.4244 38.9426 50.3874 38.7568 50.286 38.605C50.1846 38.4532 50.0272 38.3478 49.8482 38.312C49.6692 38.2766 49.4834 38.3136 49.3316 38.415C49.1798 38.5164 49.0744 38.6738 49.0386 38.8528H49.0398ZM53.9335 45.5995H53.9391C54.2888 45.597 54.5996 45.3733 54.7124 45.0417L54.718 45.0236L55.8661 41.315L57.0085 45.0242L57.0179 45.0518C57.1345 45.3795 57.4453 45.5989 57.7925 45.5989H57.7981C58.1478 45.5963 58.4586 45.3726 58.5714 45.0411C58.581 45.0126 58.5887 44.9835 58.5946 44.954L59.7552 39.121C59.7906 38.9419 59.7536 38.7561 59.6522 38.6044C59.5508 38.4526 59.3933 38.3472 59.2144 38.3113C59.0353 38.2759 58.8495 38.313 58.6977 38.4144C58.546 38.5157 58.4406 38.6732 58.4047 38.8522L57.6759 42.5144L56.5235 38.7726C56.4778 38.6271 56.3852 38.5009 56.2602 38.4136C56.1351 38.3264 55.9847 38.2831 55.8324 38.2904C55.6801 38.2978 55.5346 38.3555 55.4185 38.4544C55.3025 38.5533 55.2225 38.6879 55.1912 38.8371L54.0532 42.5144L53.3268 38.8415C53.2911 38.6626 53.1859 38.5051 53.0342 38.4036C52.8826 38.3021 52.6969 38.2649 52.5178 38.3001C52.3389 38.3358 52.1814 38.441 52.0799 38.5927C51.9784 38.7443 51.9412 38.93 51.9764 39.1091L53.1326 44.9546C53.139 44.9874 53.1478 45.0197 53.1589 45.0511C53.2156 45.2113 53.3205 45.3499 53.4592 45.4478C53.5979 45.5458 53.7636 45.5984 53.9335 45.5982V45.5995ZM53.565 55.9696C53.6697 56.0299 53.7885 56.0617 53.9093 56.0617C54.0302 56.0617 54.149 56.0299 54.2537 55.9696L55.5847 55.2013L57.2799 58.1366C57.3403 58.2413 57.4273 58.3283 57.532 58.3888C57.6367 58.4493 57.7555 58.4812 57.8764 58.4812C57.997 58.4814 58.1155 58.4496 58.2199 58.3891L60.7898 56.9052C60.9478 56.8137 61.0631 56.6633 61.1103 56.487C61.1575 56.3106 61.1329 56.1227 61.0417 55.9645L59.3466 53.0286L60.6776 52.2603C60.7821 52.1997 60.8688 52.1128 60.9291 52.0081C60.9894 51.9035 61.0211 51.7848 61.0211 51.664C61.0211 51.5433 60.9894 51.4246 60.9291 51.32C60.8688 51.2153 60.7821 51.1284 60.6776 51.0678L54.2531 47.3585C54.1484 47.2984 54.0297 47.2668 53.909 47.2669C53.7883 47.267 53.6697 47.2988 53.5651 47.3592C53.4605 47.4195 53.3736 47.5063 53.3131 47.6108C53.2526 47.7152 53.2206 47.8338 53.2203 47.9545V55.373C53.2204 55.4937 53.2523 55.6124 53.3126 55.717C53.373 55.8215 53.4598 55.9084 53.5643 55.9689L53.565 55.9696ZM54.5977 49.1477L58.9568 51.6644L58.0626 52.1807C57.9046 52.2722 57.7893 52.4226 57.7421 52.599C57.6949 52.7753 57.7195 52.9632 57.8106 53.1214L59.5058 56.0567L58.1284 56.8519L56.4332 53.9166C56.3728 53.8119 56.2858 53.7249 56.1811 53.6644C56.0764 53.6039 55.9576 53.572 55.8366 53.5719C55.716 53.5718 55.5976 53.6036 55.4932 53.6641L54.5984 54.1804V49.147L54.5977 49.1477Z" fill="black"/>
</g>
<defs>
<filter id="filter0_d_189_582" x="0" y="0" width="93" height="93" filterUnits="userSpaceOnUse" color-interpolation-filters="sRGB">
<feFlood flood-opacity="0" result="BackgroundImageFix"/>
<feColorMatrix in="SourceAlpha" type="matrix" values="0 0 0 0 0 0 0 0 0 0 0 0 0 0 0 0 0 0 127 0" result="hardAlpha"/>
<feOffset dy="4"/>
<feGaussianBlur stdDeviation="2"/>
<feComposite in2="hardAlpha" operator="out"/>
<feColorMatrix type="matrix" values="0 0 0 0 0 0 0 0 0 0 0 0 0 0 0 0 0 0 0.06 0"/>
<feBlend mode="normal" in2="BackgroundImageFix" result="effect1_dropShadow_189_582"/>
<feBlend mode="normal" in="SourceGraphic" in2="effect1_dropShadow_189_582" result="shape"/>
</filter>
</defs>
</svg>
