<svg xmlns="http://www.w3.org/2000/svg" width="41" height="40" viewBox="0 0 41 40" fill="none" class="svg raid replaced-svg">
<g clip-path="url(#clip0_754_558)">
<path d="M5.2516 15.1529C5.10005 15.1529 4.95471 15.0927 4.84754 14.9856C4.74038 14.8784 4.68018 14.7331 4.68018 14.5815V10.0558C4.68018 9.90425 4.74038 9.75891 4.84754 9.65174C4.95471 9.54458 5.10005 9.48438 5.2516 9.48438C5.40316 9.48438 5.5485 9.54458 5.65567 9.65174C5.76283 9.75891 5.82303 9.90425 5.82303 10.0558V14.5815C5.82303 14.7331 5.76283 14.8784 5.65567 14.9856C5.5485 15.0927 5.40316 15.1529 5.2516 15.1529Z" fill="#00A63F"></path>
<path d="M5.2516 30.6764C5.10005 30.6764 4.95471 30.6162 4.84754 30.509C4.74038 30.4019 4.68018 30.2565 4.68018 30.105V25.5792C4.68018 25.4277 4.74038 25.2823 4.84754 25.1752C4.95471 25.068 5.10005 25.0078 5.2516 25.0078C5.40316 25.0078 5.5485 25.068 5.65567 25.1752C5.76283 25.2823 5.82303 25.4277 5.82303 25.5792V30.105C5.82303 30.2565 5.76283 30.4019 5.65567 30.509C5.5485 30.6162 5.40316 30.6764 5.2516 30.6764Z" fill="#00A63F"></path>
<path d="M5.2516 22.9186C5.10005 22.9186 4.95471 22.8584 4.84754 22.7512C4.74038 22.644 4.68018 22.4987 4.68018 22.3471V17.8214C4.68018 17.6699 4.74038 17.5245 4.84754 17.4174C4.95471 17.3102 5.10005 17.25 5.2516 17.25C5.40316 17.25 5.5485 17.3102 5.65567 17.4174C5.76283 17.5245 5.82303 17.6699 5.82303 17.8214V22.3471C5.82303 22.4987 5.76283 22.644 5.65567 22.7512C5.5485 22.8584 5.40316 22.9186 5.2516 22.9186Z" fill="#00A63F"></path>
<path d="M33.171 40.082H6.96589C6.35968 40.082 5.7783 39.8412 5.34965 39.4126C4.92099 38.9839 4.68018 38.4025 4.68018 37.7963V33.3449C4.68018 33.1933 4.74038 33.048 4.84754 32.9408C4.95471 32.8337 5.10005 32.7735 5.2516 32.7735C5.40316 32.7735 5.5485 32.8337 5.65567 32.9408C5.76283 33.048 5.82303 33.1933 5.82303 33.3449V37.7963C5.82303 38.0994 5.94344 38.3901 6.15777 38.6044C6.3721 38.8188 6.66279 38.9392 6.96589 38.9392H33.171C33.6257 38.9392 34.0617 38.7586 34.3832 38.4371C34.7047 38.1156 34.8853 37.6795 34.8853 37.2249V2.93917C34.8853 2.48452 34.7047 2.04848 34.3832 1.72699C34.0617 1.4055 33.6257 1.22489 33.171 1.22489H6.96589C6.66279 1.22489 6.3721 1.3453 6.15777 1.55962C5.94344 1.77395 5.82303 2.06464 5.82303 2.36775V6.81917C5.82303 6.97073 5.76283 7.11607 5.65567 7.22324C5.5485 7.3304 5.40316 7.3906 5.2516 7.3906C5.10005 7.3906 4.95471 7.3304 4.84754 7.22324C4.74038 7.11607 4.68018 6.97073 4.68018 6.81917V2.36775C4.68018 1.76154 4.92099 1.18016 5.34965 0.751502C5.7783 0.322847 6.35968 0.0820313 6.96589 0.0820312H33.171C33.9285 0.0829386 34.6547 0.38425 35.1903 0.919871C35.726 1.45549 36.0273 2.18169 36.0282 2.93917V37.2249C36.0273 37.9824 35.726 38.7086 35.1903 39.2442C34.6547 39.7798 33.9285 40.0811 33.171 40.082Z" fill="#00A63F"></path>
<path d="M12.1071 23.7658C11.9555 23.7658 11.8102 23.7056 11.703 23.5984C11.5958 23.4913 11.5356 23.3459 11.5356 23.1944V21.4972C11.5356 21.3457 11.5958 21.2003 11.703 21.0931C11.8102 20.986 11.9555 20.9258 12.1071 20.9258C12.2586 20.9258 12.404 20.986 12.5111 21.0931C12.6183 21.2003 12.6785 21.3457 12.6785 21.4972V23.1944C12.6785 23.3459 12.6183 23.4913 12.5111 23.5984C12.404 23.7056 12.2586 23.7658 12.1071 23.7658Z" fill="#00A63F"></path>
<path d="M12.1071 40.0833C11.9555 40.0833 11.8102 40.0231 11.703 39.916C11.5958 39.8088 11.5356 39.6635 11.5356 39.5119V32.8605C11.5356 32.7089 11.5958 32.5636 11.703 32.4564C11.8102 32.3493 11.9555 32.2891 12.1071 32.2891C12.2586 32.2891 12.404 32.3493 12.5111 32.4564C12.6183 32.5636 12.6785 32.7089 12.6785 32.8605V39.5119C12.6785 39.6635 12.6183 39.8088 12.5111 39.916C12.404 40.0231 12.2586 40.0833 12.1071 40.0833Z" fill="#00A63F"></path>
<path d="M12.1071 29.4268C11.9555 29.4268 11.8102 29.3666 11.703 29.2594C11.5958 29.1523 11.5356 29.0069 11.5356 28.8554V27.1925C11.5356 27.041 11.5958 26.8956 11.703 26.7885C11.8102 26.6813 11.9555 26.6211 12.1071 26.6211C12.2586 26.6211 12.404 26.6813 12.5111 26.7885C12.6183 26.8956 12.6785 27.041 12.6785 27.1925V28.8554C12.6785 29.0069 12.6183 29.1523 12.5111 29.2594C12.404 29.3666 12.2586 29.4268 12.1071 29.4268Z" fill="#00A63F"></path>
<path d="M12.1071 18.0706C11.9555 18.0706 11.8102 18.0104 11.703 17.9032C11.5958 17.7961 11.5356 17.6507 11.5356 17.4992V0.65346C11.5356 0.501908 11.5958 0.356562 11.703 0.249399C11.8102 0.142235 11.9555 0.0820313 12.1071 0.0820312C12.2586 0.0820313 12.404 0.142235 12.5111 0.249399C12.6183 0.356562 12.6785 0.501908 12.6785 0.65346V17.4992C12.6785 17.6507 12.6183 17.7961 12.5111 17.9032C12.404 18.0104 12.2586 18.0706 12.1071 18.0706Z" fill="#00A63F"></path>
<path d="M6.75126 10.6267H3.79868C3.21778 10.6267 2.66068 10.3959 2.24992 9.98515C1.83916 9.57439 1.6084 9.01728 1.6084 8.43638C1.6084 7.85548 1.83916 7.29837 2.24992 6.88761C2.66068 6.47686 3.21778 6.24609 3.79868 6.24609H6.75126C7.33216 6.24609 7.88926 6.47686 8.30002 6.88761C8.71078 7.29837 8.94154 7.85548 8.94154 8.43638C8.94154 9.01728 8.71078 9.57439 8.30002 9.98515C7.88926 10.3959 7.33216 10.6267 6.75126 10.6267ZM3.79868 7.38895C3.52089 7.38895 3.25447 7.49931 3.05804 7.69574C2.86161 7.89217 2.75126 8.15858 2.75126 8.43638C2.75126 8.71418 2.86161 8.98059 3.05804 9.17702C3.25447 9.37345 3.52089 9.48381 3.79868 9.48381H6.75126C7.02905 9.48381 7.29547 9.37345 7.4919 9.17702C7.68833 8.98059 7.79868 8.71418 7.79868 8.43638C7.79868 8.15858 7.68833 7.89217 7.4919 7.69574C7.29547 7.49931 7.02905 7.38895 6.75126 7.38895H3.79868Z" fill="#00A63F"></path>
<path d="M6.7516 18.3929H3.79903C3.22418 18.3836 2.67602 18.1487 2.27278 17.7389C1.86955 17.3291 1.64355 16.7772 1.64355 16.2023C1.64355 15.6274 1.86955 15.0755 2.27278 14.6657C2.67602 14.2559 3.22418 14.021 3.79903 14.0117H6.7516C7.32645 14.021 7.87461 14.2559 8.27785 14.6657C8.68109 15.0755 8.90708 15.6274 8.90708 16.2023C8.90708 16.7772 8.68109 17.3291 8.27785 17.7389C7.87461 18.1487 7.32645 18.3836 6.7516 18.3929ZM3.79903 15.1546C3.5254 15.161 3.26512 15.2742 3.07385 15.4699C2.88258 15.6657 2.7755 15.9286 2.7755 16.2023C2.7755 16.476 2.88258 16.7388 3.07385 16.9346C3.26512 17.1304 3.5254 17.2436 3.79903 17.25H6.7516C7.02524 17.2436 7.28551 17.1304 7.47678 16.9346C7.66805 16.7388 7.77513 16.476 7.77513 16.2023C7.77513 15.9286 7.66805 15.6657 7.47678 15.4699C7.28551 15.2742 7.02524 15.161 6.7516 15.1546H3.79903Z" fill="#00A63F"></path>
<path d="M6.7516 26.1507H3.79903C3.22418 26.1414 2.67602 25.9065 2.27278 25.4967C1.86955 25.0869 1.64355 24.535 1.64355 23.9601C1.64355 23.3852 1.86955 22.8333 2.27278 22.4235C2.67602 22.0137 3.22418 21.7788 3.79903 21.7695H6.7516C7.32645 21.7788 7.87461 22.0137 8.27785 22.4235C8.68109 22.8333 8.90708 23.3852 8.90708 23.9601C8.90708 24.535 8.68109 25.0869 8.27785 25.4967C7.87461 25.9065 7.32645 26.1414 6.7516 26.1507ZM3.79903 22.9124C3.5254 22.9188 3.26512 23.032 3.07385 23.2278C2.88258 23.4235 2.7755 23.6864 2.7755 23.9601C2.7755 24.2338 2.88258 24.4967 3.07385 24.6924C3.26512 24.8882 3.5254 25.0014 3.79903 25.0078H6.7516C7.02524 25.0014 7.28551 24.8882 7.47678 24.6924C7.66805 24.4967 7.77513 24.2338 7.77513 23.9601C7.77513 23.6864 7.66805 23.4235 7.47678 23.2278C7.28551 23.032 7.02524 22.9188 6.7516 22.9124H3.79903Z" fill="#00A63F"></path>
<path d="M6.75126 33.9157H3.79868C3.21778 33.9157 2.66068 33.685 2.24992 33.2742C1.83916 32.8634 1.6084 32.3063 1.6084 31.7254C1.6084 31.1445 1.83916 30.5874 2.24992 30.1767C2.66068 29.7659 3.21778 29.5352 3.79868 29.5352H6.75126C7.33216 29.5352 7.88926 29.7659 8.30002 30.1767C8.71078 30.5874 8.94154 31.1445 8.94154 31.7254C8.94154 32.3063 8.71078 32.8634 8.30002 33.2742C7.88926 33.685 7.33216 33.9157 6.75126 33.9157ZM3.79868 30.678C3.52089 30.678 3.25447 30.7884 3.05804 30.9848C2.86161 31.1812 2.75126 31.4476 2.75126 31.7254C2.75126 32.0032 2.86161 32.2697 3.05804 32.4661C3.25447 32.6625 3.52089 32.7729 3.79868 32.7729H6.75126C6.88881 32.7729 7.02501 32.7458 7.15209 32.6931C7.27917 32.6405 7.39464 32.5633 7.4919 32.4661C7.58916 32.3688 7.66632 32.2534 7.71895 32.1263C7.77159 31.9992 7.79868 31.863 7.79868 31.7254C7.79868 31.5879 7.77159 31.4517 7.71895 31.3246C7.66632 31.1975 7.58916 31.0821 7.4919 30.9848C7.39464 30.8875 7.27917 30.8104 7.15209 30.7577C7.02501 30.7051 6.88881 30.678 6.75126 30.678H3.79868Z" fill="#00A63F"></path>
<path d="M29.0316 20.0825H18.5333C18.3818 20.0825 18.2364 20.0223 18.1293 19.9151C18.0221 19.8079 17.9619 19.6626 17.9619 19.511V17.5842C17.9631 16.4993 18.3946 15.4592 19.1618 14.692C19.9289 13.9249 20.969 13.4934 22.0539 13.4922H25.5111C26.596 13.4934 27.6361 13.9249 28.4032 14.692C29.1703 15.4592 29.6018 16.4993 29.6031 17.5842V19.511C29.6031 19.6626 29.5429 19.8079 29.4357 19.9151C29.3285 20.0223 29.1832 20.0825 29.0316 20.0825ZM19.1048 18.9396H28.4602V17.5842C28.4593 16.8023 28.1483 16.0527 27.5954 15.4998C27.0425 14.947 26.2929 14.636 25.5111 14.635H22.0539C21.272 14.636 20.5224 14.947 19.9696 15.4998C19.4167 16.0527 19.1057 16.8023 19.1048 17.5842V18.9396Z" fill="#00A63F"></path>
<path d="M23.7822 14.6249C23.0787 14.6249 22.3911 14.4163 21.8062 14.0255C21.2214 13.6347 20.7655 13.0792 20.4963 12.4293C20.2271 11.7795 20.1567 11.0643 20.2939 10.3744C20.4312 9.68453 20.7699 9.05081 21.2673 8.55342C21.7647 8.05602 22.3984 7.71729 23.0883 7.58006C23.7782 7.44283 24.4933 7.51326 25.1432 7.78245C25.7931 8.05164 26.3485 8.50749 26.7393 9.09237C27.1301 9.67724 27.3387 10.3649 27.3387 11.0683C27.3377 12.0112 26.9626 12.9152 26.2959 13.582C25.6291 14.2488 24.7251 14.6238 23.7822 14.6249ZM23.7822 8.65515C23.3047 8.65515 22.8381 8.79673 22.4411 9.06197C22.0442 9.32722 21.7348 9.70423 21.5521 10.1453C21.3695 10.5864 21.3217 11.0717 21.4149 11.54C21.508 12.0082 21.738 12.4383 22.0756 12.7758C22.4132 13.1134 22.8434 13.3432 23.3116 13.4363C23.7799 13.5293 24.2652 13.4815 24.7062 13.2987C25.1473 13.1159 25.5242 12.8064 25.7894 12.4094C26.0545 12.0124 26.196 11.5457 26.1959 11.0683C26.1951 10.4284 25.9406 9.81498 25.488 9.36258C25.0355 8.91017 24.422 8.65575 23.7822 8.65515Z" fill="#00A63F"></path>
<path d="M38.2487 12.0852H35.4567C35.3051 12.0852 35.1598 12.025 35.0526 11.9178C34.9455 11.8107 34.8853 11.6653 34.8853 11.5138V6.23549C34.8853 6.08394 34.9455 5.93859 35.0526 5.83143C35.1598 5.72427 35.3051 5.66406 35.4567 5.66406H38.2487C38.5515 5.66512 38.8415 5.78586 39.0556 5.99996C39.2697 6.21406 39.3905 6.50414 39.3915 6.80692V10.9383C39.3914 11.2418 39.2711 11.5328 39.0569 11.7477C38.8427 11.9627 38.5521 12.084 38.2487 12.0852ZM36.0281 10.9423H38.2487V6.80921H36.0258L36.0281 10.9423Z" fill="#00A63F"></path>
<path d="M38.2487 17.3625H35.4567C35.3051 17.3625 35.1598 17.3023 35.0526 17.1952C34.9455 17.088 34.8853 16.9427 34.8853 16.7911V11.5128C34.8853 11.3613 34.9455 11.2159 35.0526 11.1088C35.1598 11.0016 35.3051 10.9414 35.4567 10.9414H38.2487C38.5515 10.9425 38.8415 11.0632 39.0556 11.2773C39.2697 11.4914 39.3905 11.7815 39.3915 12.0843V16.2174C39.3911 16.5206 39.2706 16.8112 39.0564 17.0258C38.8423 17.2404 38.5519 17.3615 38.2487 17.3625ZM36.0281 16.2197H38.2487V12.0865H36.0258L36.0281 16.2197Z" fill="#00A63F"></path>
<path d="M38.2487 22.6393H35.4567C35.3051 22.6393 35.1598 22.5791 35.0526 22.472C34.9455 22.3648 34.8853 22.2194 34.8853 22.0679V16.7902C34.8853 16.6386 34.9455 16.4933 35.0526 16.3861C35.1598 16.279 35.3051 16.2188 35.4567 16.2188H38.2487C38.5515 16.2198 38.8415 16.3406 39.0556 16.5547C39.2697 16.7687 39.3905 17.0588 39.3915 17.3616V21.4925C39.3917 21.796 39.2715 22.0872 39.0572 22.3022C38.843 22.5172 38.5522 22.6384 38.2487 22.6393ZM36.0281 21.4965H38.2487V17.3639H36.0258L36.0281 21.4965Z" fill="#00A63F"></path>
</g>
<defs>
<clipPath id="clip0_754_558">
<rect width="40" height="40" fill="white" transform="translate(0.5)"></rect>
</clipPath>
</defs>
</svg>