<svg xmlns="http://www.w3.org/2000/svg" width="41" height="40" viewBox="0 0 41 40" fill="none" class="svg replaced-svg">
<g clip-path="url(#clip0_753_191)">
<path fill-rule="evenodd" clip-rule="evenodd" d="M21 1.81818C10.9585 1.81818 2.81818 9.95845 2.81818 20C2.81818 20.2905 2.82498 20.5795 2.83845 20.8665C2.86196 21.368 2.47445 21.7936 1.97293 21.8173C1.4714 21.8407 1.04578 21.4533 1.02225 20.9516C1.00747 20.6362 1 20.3189 1 20C1 8.95431 9.95431 0 21 0C27.7655 0 33.7451 3.35927 37.3638 8.49838L37.3636 0.909091C37.3636 0.407018 37.7707 0 38.2727 0C38.7747 0 39.1818 0.407018 39.1818 0.909091V11.8182C39.1818 12.3203 38.7747 12.7273 38.2727 12.7273H27.3636C26.8616 12.7273 26.4545 12.3203 26.4545 11.8182C26.4545 11.3161 26.8616 10.9091 27.3636 10.9091L36.7496 10.9091C33.6051 5.47311 27.7285 1.81818 21 1.81818ZM40.0271 18.1829C40.5287 18.1593 40.9544 18.5469 40.9778 19.0484C40.9925 19.3638 41.0002 19.6811 41.0002 20C41.0002 31.0456 32.0458 40 21.0002 40C14.2347 40 8.25511 36.6407 4.63636 31.5016V39.0909C4.63636 39.5931 4.22935 40 3.72727 40C3.2252 40 2.81818 39.5931 2.81818 39.0909V28.1818C2.81818 27.6798 3.2252 27.2727 3.72727 27.2727H14.6364C15.1384 27.2727 15.5455 27.6798 15.5455 28.1818C15.5455 28.684 15.1384 29.0909 14.6364 29.0909H5.25047C8.39511 34.5269 14.2715 38.1818 21.0002 38.1818C31.0416 38.1818 39.182 30.0416 39.182 20C39.182 19.7095 39.1751 19.4205 39.1616 19.1335C39.1382 18.632 39.5256 18.2064 40.0271 18.1829Z" fill="#00A63F"></path>
</g>
<defs>
<clipPath id="clip0_753_191">
<rect width="40" height="40" fill="white" transform="translate(0.5)"></rect>
</clipPath>
</defs>
</svg>