<svg xmlns="http://www.w3.org/2000/svg" width="41" height="40" viewBox="0 0 41 40" fill="none" class="svg raid replaced-svg">
<g clip-path="url(#clip0_753_412)">
<path d="M36.9371 6.90712C31.4336 5.39915 25.8977 3.05111 20.928 0.116894C20.664 -0.0389648 20.3364 -0.0389648 20.0725 0.116894C14.9594 3.1354 9.72266 5.35642 4.06291 6.90712C3.69728 7.00719 3.44385 7.33954 3.44385 7.71868V16.316C3.44385 25.1693 7.52814 31.0296 10.9545 34.3868C14.6433 38.0012 18.9401 40 20.5002 40C22.0601 40 26.357 38.0012 30.0458 34.3868C33.4721 31.0297 37.5561 25.1694 37.5561 16.316V7.7186C37.5561 7.33954 37.3027 7.00719 36.9371 6.90712ZM35.8733 16.3159C35.8733 24.5849 32.0639 30.0532 28.8679 33.1846C25.2405 36.7389 21.3622 38.3171 20.5002 38.3171C19.6383 38.3171 15.7597 36.7389 12.1322 33.1846C8.93634 30.0532 5.12674 24.5849 5.12674 16.3159V8.35735C10.5391 6.82063 15.5795 4.67603 20.5004 1.81642C25.2983 4.60017 30.5903 6.85141 35.8733 8.35704V16.3159Z" fill="#00A63F"></path>
<path d="M13.0419 8.26374C12.8716 7.83132 12.383 7.61889 11.9505 7.78929C10.4474 8.38155 8.90461 8.9267 7.365 9.40967C7.01414 9.51983 6.77539 9.84483 6.77539 10.2125V13.4618C6.77539 13.9265 7.15219 14.3032 7.6168 14.3032C8.0814 14.3032 8.4582 13.9265 8.4582 13.4618V10.8274C9.83937 10.3805 11.2191 9.88623 12.5674 9.35491C12.9998 9.18467 13.2123 8.69616 13.0419 8.26374Z" fill="#00A63F"></path>
<path d="M14.6402 8.42243C14.7531 8.42243 14.8677 8.39969 14.9776 8.35173L14.9931 8.34501C15.4188 8.15845 15.6105 7.6629 15.424 7.23735C15.2372 6.81165 14.7389 6.61907 14.3136 6.80548L14.3 6.81134C13.8741 6.99735 13.6818 7.49251 13.8678 7.91829C14.0058 8.23438 14.3156 8.42243 14.6402 8.42243Z" fill="#00A63F"></path>
<path d="M30.5252 27.1332C30.1364 26.8791 29.615 26.9883 29.3605 27.3773C28.6671 28.4386 27.8537 29.4548 26.9425 30.3976C26.1931 31.1727 25.3811 31.8952 24.5289 32.5448C24.1595 32.8265 24.0884 33.3545 24.37 33.7241C24.5357 33.9412 24.7863 34.0554 25.0397 34.0554C25.2177 34.0554 25.397 33.9993 25.5493 33.883C26.4685 33.1822 27.3443 32.403 28.1522 31.5672C29.1375 30.5482 30.0179 29.4482 30.7693 28.2978C31.0236 27.9087 30.9142 27.3873 30.5252 27.1332Z" fill="#00A63F"></path>
<path d="M22.5748 33.8615L22.5265 33.8899C22.1244 34.1228 21.987 34.6375 22.2198 35.0396C22.3758 35.3091 22.6582 35.4596 22.9487 35.4596C23.0917 35.4596 23.2369 35.4231 23.3695 35.3462L23.4252 35.3134C23.8262 35.0786 23.9609 34.5632 23.726 34.1622C23.491 33.7613 22.9755 33.6269 22.5748 33.8615Z" fill="#00A63F"></path>
<path d="M14.7646 18.2828C14.2479 17.7661 13.5608 17.4817 12.83 17.4817C12.0993 17.4817 11.4121 17.7662 10.8952 18.2828C9.82856 19.3497 9.82856 21.0856 10.8952 22.1524L15.8636 27.1207C16.3803 27.6372 17.0674 27.9217 17.7983 27.9217C18.5292 27.9217 19.2163 27.6372 19.7331 27.1205L30.105 16.7485C31.1716 15.6814 31.1716 13.9457 30.1048 12.8792C29.5881 12.3625 28.901 12.0781 28.1701 12.0781C27.4392 12.0781 26.7521 12.3626 26.2353 12.8792L17.7982 21.3163L14.7646 18.2828ZM27.4253 14.0692C27.6241 13.8704 27.8888 13.7609 28.1702 13.7609C28.4517 13.7609 28.7161 13.8704 28.9151 14.0692C29.3256 14.4798 29.3256 15.148 28.9149 15.5587L18.5431 25.9306C18.3443 26.1294 18.0797 26.2389 17.7983 26.2389C17.5169 26.2389 17.2523 26.1294 17.0534 25.9306L12.0851 20.9625C11.6744 20.5518 11.6744 19.8835 12.085 19.473C12.2839 19.2741 12.5485 19.1645 12.83 19.1645C13.1114 19.1645 13.3759 19.274 13.5747 19.4728L17.2032 23.1014C17.3611 23.2591 17.575 23.3478 17.7982 23.3478C18.0214 23.3478 18.2353 23.2592 18.3931 23.1014L27.4253 14.0692Z" fill="#00A63F"></path>
</g>
<defs>
<clipPath id="clip0_753_412">
<rect width="40" height="40" fill="white" transform="translate(0.5)"></rect>
</clipPath>
</defs>
</svg>