<svg xmlns="http://www.w3.org/2000/svg" width="41" height="40" viewBox="0 0 41 40" fill="none" class="svg replaced-svg">
<g clip-path="url(#clip0_753_518)">
<path d="M11.3359 15.2606C11.2842 15.542 11.2949 15.8314 11.3672 16.1083C11.4395 16.3852 11.5717 16.6428 11.7544 16.8631C11.9371 17.0833 12.166 17.2608 12.4247 17.383C12.6835 17.5051 12.966 17.569 13.2521 17.5702H25.1894C25.4821 17.5745 25.7721 17.5134 26.0382 17.3914C26.3043 17.2694 26.5398 17.0895 26.7276 16.8649C26.9064 16.6417 27.0332 16.3815 27.0989 16.1031C27.1645 15.8248 27.1673 15.5353 27.107 15.2557C26.8569 14.0462 26.3325 12.9103 25.5742 11.9354C24.8159 10.9605 23.8439 10.1727 22.7332 9.63266C23.3667 8.83719 23.7129 7.85097 23.7155 6.83402C23.5341 0.891668 14.9037 0.896033 14.7219 6.83412C14.7198 7.84779 15.0631 8.83192 15.6951 9.62444C14.5838 10.1652 13.6123 10.9551 12.8563 11.9326C12.1002 12.9102 11.5799 14.0491 11.3359 15.2606ZM18.006 4.01869C18.6964 3.72934 19.4688 3.70207 20.1779 3.94199C20.887 4.1819 21.4842 4.6725 21.8571 5.32161C22.23 5.97073 22.3531 6.73368 22.2032 7.46714C22.0533 8.2006 21.6408 8.85409 21.0431 9.30484C17.2829 11.8222 13.9355 5.99952 18.006 4.01869ZM16.8882 10.677C17.5895 11.1046 18.3952 11.3305 19.2166 11.3297C20.038 11.3289 20.8433 11.1015 21.5438 10.6725C22.5924 11.0661 23.5243 11.719 24.2523 12.5702C24.9804 13.4214 25.4808 14.4433 25.707 15.5403C25.727 15.6158 25.7282 15.695 25.7107 15.7712C25.6932 15.8473 25.6574 15.918 25.6065 15.9772C25.5555 16.0364 25.4909 16.0823 25.4182 16.1109C25.3456 16.1396 25.2671 16.1501 25.1894 16.1416H13.2521C13.1728 16.1415 13.0946 16.1237 13.0231 16.0894C12.9517 16.0551 12.8888 16.0053 12.8391 15.9435C12.793 15.8888 12.7598 15.8244 12.7419 15.7551C12.724 15.6857 12.722 15.6133 12.7359 15.5431C12.9584 14.4463 13.4562 13.4242 14.1827 12.5729C14.9091 11.7217 15.8401 11.0692 16.8882 10.677Z" fill="#00A63F"></path>
<path d="M40.4585 35.3153C40.2088 34.1056 39.6845 32.9693 38.9262 31.9942C38.1679 31.0192 37.1957 30.2313 36.0846 29.6914C36.7185 28.8959 37.0647 27.9094 37.067 26.8923C36.885 20.9491 28.2562 20.956 28.0733 26.8924C28.0712 27.9062 28.4144 28.8904 29.0465 29.683C27.9354 30.2239 26.9641 31.0138 26.208 31.9913C25.452 32.9687 24.9316 34.1075 24.6874 35.3188C24.6311 35.5961 24.6375 35.8825 24.7062 36.1569C24.7748 36.4314 24.904 36.687 25.0843 36.9051C25.2678 37.1312 25.4995 37.3135 25.7624 37.4387C26.0254 37.5638 26.313 37.6287 26.6043 37.6285H38.5416C38.8305 37.6351 39.1172 37.5762 39.3802 37.4562C39.6431 37.3363 39.8755 37.1584 40.0599 36.9359C40.2443 36.7133 40.376 36.452 40.445 36.1713C40.514 35.8907 40.5187 35.598 40.4585 35.3153ZM31.3588 24.0776C32.0492 23.7886 32.8214 23.7616 33.5303 24.0016C34.2393 24.2416 34.8362 24.7322 35.209 25.3812C35.5818 26.0302 35.7048 26.793 35.555 27.5264C35.4051 28.2597 34.9927 28.913 34.3952 29.3638C30.6343 31.8795 27.2857 26.0581 31.3588 24.0776ZM38.9727 36.0199C38.9189 36.0802 38.8522 36.1277 38.7776 36.1588C38.703 36.19 38.6223 36.204 38.5416 36.1999H26.6043C26.5286 36.2022 26.4533 36.1876 26.384 36.1572C26.3147 36.1268 26.253 36.0813 26.2035 36.024C26.154 35.9668 26.1179 35.8992 26.0978 35.8262C26.0777 35.7532 26.0741 35.6766 26.0873 35.6021C26.3101 34.5054 26.8081 33.4833 27.5346 32.6321C28.2611 31.7808 29.1922 31.1283 30.2403 30.736C30.9409 31.1655 31.7468 31.3924 32.5686 31.3916C33.3903 31.3908 34.1958 31.1622 34.8955 30.7314C35.9443 31.1248 36.8762 31.7776 37.6043 32.6289C38.3323 33.4802 38.8326 34.5022 39.0585 35.5993C39.0772 35.6713 39.0791 35.7466 39.0643 35.8195C39.0494 35.8924 39.0181 35.9609 38.9727 36.0199Z" fill="#00A63F"></path>
<path d="M11.935 29.6894C14.2965 26.8775 12.0987 22.2998 8.42286 22.396C7.23184 22.4006 6.09083 22.8754 5.2482 23.7171C4.40557 24.5588 3.92955 25.6993 3.92376 26.8904C3.9216 27.9041 4.26485 28.8884 4.89695 29.681C3.78584 30.2219 2.81448 31.0118 2.05842 31.9893C1.30236 32.9667 0.781987 34.1055 0.537768 35.3169C0.481637 35.5941 0.488144 35.8804 0.556814 36.1549C0.625484 36.4293 0.754583 36.685 0.934684 36.9031C1.11819 37.1293 1.34988 37.3116 1.61285 37.4367C1.87582 37.5619 2.16342 37.6267 2.45465 37.6265H14.392C14.6809 37.6331 14.9676 37.5742 15.2306 37.4543C15.4935 37.3343 15.7259 37.1564 15.9103 36.9339C16.0948 36.7114 16.2264 36.45 16.2954 36.1693C16.3644 35.8887 16.369 35.596 16.3089 35.3134C16.0592 34.1036 15.5349 32.9674 14.7766 31.9923C14.0182 31.0172 13.0461 30.2293 11.935 29.6894ZM7.20921 24.0757C7.89961 23.7866 8.67179 23.7596 9.38072 23.9996C10.0897 24.2397 10.6866 24.7302 11.0594 25.3793C11.4322 26.0283 11.5552 26.7911 11.4054 27.5244C11.2555 28.2577 10.8431 28.9111 10.2456 29.3618C6.48467 31.8776 3.13606 26.0562 7.20921 24.0757ZM14.8231 36.0179C14.7693 36.0782 14.7026 36.1257 14.628 36.1569C14.5534 36.188 14.4728 36.2021 14.392 36.1979H2.45465C2.37899 36.2002 2.30377 36.1856 2.23446 36.1552C2.16515 36.1248 2.10349 36.0793 2.05398 36.022C2.00447 35.9647 1.96835 35.8972 1.94824 35.8242C1.92813 35.7512 1.92455 35.6747 1.93775 35.6001C2.16047 34.5034 2.65851 33.4813 3.38501 32.6301C4.11151 31.7788 5.0426 31.1264 6.0907 30.7341C6.7913 31.1635 7.59721 31.3905 8.41897 31.3896C9.24072 31.3888 10.0462 31.1603 10.7459 30.7294C11.7947 31.1228 12.7266 31.7756 13.4547 32.6269C14.1827 33.4782 14.683 34.5002 14.9089 35.5973C14.9276 35.6693 14.9295 35.7447 14.9147 35.8175C14.8998 35.8904 14.8685 35.959 14.8231 36.0179Z" fill="#00A63F"></path>
<path d="M6.51406 18.9924C6.58211 19.0723 6.66668 19.1364 6.76195 19.1804C6.85722 19.2244 6.96091 19.2472 7.06584 19.2472C7.17078 19.2472 7.27446 19.2244 7.36973 19.1804C7.46499 19.1364 7.54957 19.0722 7.6176 18.9923L9.74656 16.403C9.8061 16.3306 9.85079 16.2471 9.87807 16.1574C9.90535 16.0676 9.91469 15.9734 9.90556 15.8801C9.89643 15.7867 9.869 15.6961 9.82484 15.6133C9.78068 15.5306 9.72066 15.4574 9.6482 15.3978C9.57574 15.3383 9.49226 15.2936 9.40253 15.2663C9.3128 15.239 9.21858 15.2297 9.12524 15.2388C9.0319 15.248 8.94127 15.2754 8.85853 15.3196C8.77579 15.3637 8.70256 15.4237 8.64302 15.4962L7.78014 16.5457V6.58485H11.0929C11.2805 6.58207 11.4594 6.50559 11.5911 6.37194C11.7228 6.23828 11.7966 6.05818 11.7966 5.87055C11.7966 5.68292 11.7228 5.50282 11.5911 5.36917C11.4594 5.23551 11.2805 5.15903 11.0929 5.15625H7.06583C6.97201 5.1562 6.87911 5.17464 6.79242 5.21051C6.70573 5.24639 6.62697 5.29901 6.56063 5.36535C6.49429 5.43168 6.44167 5.51045 6.4058 5.59714C6.36992 5.68382 6.35148 5.77673 6.35153 5.87055V16.5461L5.48794 15.4962C5.36637 15.3541 5.19394 15.2654 5.00769 15.2491C4.82143 15.2327 4.63619 15.2901 4.49174 15.4088C4.34729 15.5275 4.25514 15.6981 4.23508 15.884C4.21502 16.0699 4.26865 16.2563 4.38444 16.403L6.51406 18.9924Z" fill="#00A63F"></path>
<path d="M24.9094 30.4596C24.985 30.391 25.0452 30.3069 25.0858 30.2132C25.1263 30.1194 25.1464 30.018 25.1445 29.9158C25.1427 29.8136 25.1191 29.713 25.0752 29.6207C25.0314 29.5284 24.9683 29.4466 24.8902 29.3807L22.3008 27.2517C22.1541 27.1356 21.9676 27.0818 21.7815 27.1017C21.5955 27.1217 21.4247 27.2139 21.3059 27.3585C21.1871 27.5031 21.1297 27.6885 21.1462 27.8749C21.1627 28.0613 21.2517 28.2338 21.394 28.3553L22.4435 29.2182H15.9189C15.7294 29.2182 15.5478 29.2934 15.4138 29.4274C15.2798 29.5613 15.2046 29.743 15.2046 29.9325C15.2046 30.1219 15.2798 30.3036 15.4138 30.4376C15.5478 30.5715 15.7294 30.6468 15.9189 30.6468H22.4439L21.394 31.5104C21.2829 31.6051 21.2032 31.7314 21.1656 31.8725C21.128 32.0136 21.1342 32.1629 21.1835 32.3004C21.2329 32.4378 21.3229 32.557 21.4416 32.6421C21.5603 32.7271 21.7022 32.774 21.8482 32.7764C22.0134 32.7768 22.1736 32.7193 22.3009 32.6139C22.3226 32.5736 24.8988 30.5039 24.9094 30.4596Z" fill="#00A63F"></path>
</g>
<defs>
<clipPath id="clip0_753_518">
<rect width="40" height="40" fill="white" transform="translate(0.5)"></rect>
</clipPath>
</defs>
</svg>