<svg xmlns="http://www.w3.org/2000/svg" width="41" height="40" viewBox="0 0 41 40" fill="none" class="svg replaced-svg">
<g clip-path="url(#clip0_753_190)">
<path d="M18.4993 28.6631H12.4992V23.3297H21.166C21.3428 23.3297 21.5124 23.2595 21.6374 23.1344C21.7624 23.0094 21.8326 22.8398 21.8326 22.663C21.8326 22.4862 21.7624 22.3167 21.6374 22.1916C21.5124 22.0666 21.3428 21.9964 21.166 21.9964H18.4993V16.663H33.8328V18.663C33.8328 18.8398 33.903 19.0094 34.0281 19.1344C34.1531 19.2594 34.3227 19.3297 34.4995 19.3297C34.6763 19.3297 34.8459 19.2594 34.9709 19.1344C35.0959 19.0094 35.1662 18.8398 35.1662 18.663V5.32947C35.1651 4.44572 34.8136 3.59847 34.1887 2.97356C33.5638 2.34866 32.7165 1.99713 31.8328 1.99609H3.8324C2.94865 1.99713 2.1014 2.34866 1.47649 2.97356C0.851588 3.59847 0.500061 4.44572 0.499023 5.32947V26.6631C0.500061 27.5468 0.851588 28.3941 1.47649 29.019C2.1014 29.6439 2.94865 29.9954 3.8324 29.9965H18.4993C18.6761 29.9965 18.8456 29.9262 18.9707 29.8012C19.0957 29.6762 19.1659 29.5066 19.1659 29.3298C19.1659 29.153 19.0957 28.9834 18.9707 28.8584C18.8456 28.7334 18.6761 28.6631 18.4993 28.6631ZM17.1659 21.9964H6.4991V16.663H17.1659V21.9964ZM18.4993 8.66285V3.32944H29.1661V8.66285H18.4993ZM23.166 9.9962V15.3296H12.4992V9.9962H23.166ZM17.1659 8.66285H6.4991V3.32944H17.1659V8.66285ZM11.1658 9.9962V15.3296H1.83237V9.9962H11.1658ZM5.16575 16.663V21.9964H1.83237V16.663H5.16575ZM24.4993 15.3296V9.9962H33.8328V15.3296H24.4993ZM33.8328 5.32947V8.66285H30.4994V3.32944H31.8328C32.363 3.33002 32.8714 3.54093 33.2464 3.91588C33.6213 4.29083 33.8322 4.79921 33.8328 5.32947ZM3.8324 3.32944H5.16575V8.66285H1.83237V5.32947C1.83295 4.79921 2.04386 4.29083 2.41881 3.91588C2.79376 3.54093 3.30214 3.33002 3.8324 3.32944ZM1.83237 26.6631V23.3297H11.1658V28.6631H3.8324C3.30214 28.6625 2.79376 28.4516 2.41881 28.0767C2.04386 27.7017 1.83295 27.1934 1.83237 26.6631ZM40.4996 31.3298C40.4996 34.8982 37.7544 37.6844 37.6375 37.8012C37.5122 37.9245 37.3433 37.9932 37.1676 37.9926C36.9918 37.9919 36.8234 37.9219 36.6991 37.7977C36.5747 37.6735 36.5044 37.5052 36.5035 37.3295C36.5026 37.1537 36.5711 36.9847 36.6942 36.8592C36.7189 36.8345 39.1662 34.3377 39.1662 31.3298C39.1587 29.5432 38.7426 27.782 37.9497 26.181C37.4422 27.2987 36.52 28.1753 35.3781 28.6257C35.2778 28.6592 35.171 28.6685 35.0665 28.6526C34.962 28.6368 34.8627 28.5963 34.7769 28.5346C34.6911 28.4728 34.6212 28.3916 34.5729 28.2975C34.5247 28.2034 34.4995 28.0992 34.4995 27.9935C34.4981 22.0569 30.5242 20.1666 28.4011 19.5803C30.6046 24.6979 26.321 28.4619 26.2738 28.5023C26.1863 28.577 26.081 28.6279 25.9681 28.6501C25.8552 28.6723 25.7385 28.6651 25.6292 28.6293C24.4831 28.1804 23.5574 27.302 23.0491 26.181C22.2562 27.782 21.8401 29.5432 21.8326 31.3298C21.8326 34.3377 24.2799 36.8345 24.3047 36.8592C24.4277 36.9847 24.4963 37.1537 24.4953 37.3295C24.4944 37.5052 24.4241 37.6735 24.2998 37.7977C24.1754 37.9219 24.007 37.9919 23.8313 37.9926C23.6555 37.9932 23.4866 37.9245 23.3613 37.8012C23.2444 37.6844 20.4993 34.8982 20.4993 31.3298C20.4862 28.8136 21.2295 26.3516 22.6328 24.263C22.7084 24.1623 22.811 24.085 22.9288 24.0402C23.0465 23.9954 23.1745 23.9848 23.298 24.0098C23.4215 24.0347 23.5353 24.0941 23.6265 24.1811C23.7176 24.2681 23.7822 24.3791 23.8128 24.5013C23.818 24.5215 24.333 26.4854 25.695 27.2113C26.7832 26.1685 27.4702 24.7763 27.6358 23.2782C27.8013 21.7801 27.4349 20.2715 26.6006 19.0162C26.5351 18.9113 26.5001 18.7902 26.4995 18.6666C26.4989 18.5429 26.5327 18.4215 26.5971 18.3159C26.6615 18.2103 26.754 18.1248 26.8642 18.0687C26.9745 18.0127 27.0981 17.9884 27.2214 17.9986C27.3037 18.0055 35.1258 18.7551 35.7882 26.8757C36.455 26.2205 36.9373 25.401 37.1864 24.5C37.2173 24.3781 37.2822 24.2674 37.3733 24.1808C37.4645 24.0941 37.5783 24.035 37.7016 24.0102C37.8249 23.9855 37.9527 23.996 38.0703 24.0408C38.1879 24.0855 38.2904 24.1625 38.3661 24.263C39.7694 26.3516 40.5127 28.8136 40.4996 31.3298ZM34.8091 31.2077C35.6649 33.0307 35.5408 35.1834 34.4396 37.6056C34.4035 37.6856 34.3521 37.7576 34.2881 37.8176C34.2242 37.8776 34.1491 37.9244 34.067 37.9554C33.9849 37.9863 33.8976 38.0007 33.81 37.9978C33.7223 37.9949 33.6361 37.9747 33.5563 37.9385C33.4764 37.9022 33.4045 37.8505 33.3447 37.7864C33.2849 37.7223 33.2383 37.647 33.2076 37.5649C33.1769 37.4827 33.1628 37.3953 33.1659 37.3077C33.1691 37.2201 33.1895 37.1339 33.226 37.0542C34.1577 35.004 34.2843 33.2276 33.602 31.7742C33.0002 30.6175 32.0364 29.6896 30.8578 29.1319C30.9932 29.9367 30.9602 30.761 30.7608 31.5524C30.5613 32.3438 30.1999 33.0853 29.6993 33.7299C29.6056 33.8548 29.4711 33.9429 29.3192 33.9788C29.1672 34.0146 29.0075 33.996 28.8679 33.9262C28.2656 33.6005 27.7254 33.1713 27.2719 32.6583C26.9975 33.5854 26.9229 35.1255 28.3533 36.9136C28.4629 37.0517 28.5134 37.2276 28.4936 37.4029C28.4737 37.5781 28.3853 37.7383 28.2476 37.8485C28.1099 37.9587 27.9341 38.0097 27.7588 37.9906C27.5835 37.9714 27.4229 37.8836 27.3123 37.7462C24.9476 34.7908 25.8337 31.9952 26.6329 30.9297C26.7011 30.8388 26.7914 30.7669 26.8952 30.7206C26.999 30.6744 27.1129 30.6555 27.2261 30.6658C27.3393 30.676 27.448 30.7149 27.5418 30.779C27.6357 30.843 27.7117 30.93 27.7625 31.0316C28.0546 31.58 28.469 32.0538 28.9734 32.4164C29.3372 31.7975 29.5504 31.1017 29.5959 30.3853C29.6414 29.6688 29.5178 28.9516 29.2352 28.2917C29.1787 28.1765 29.1567 28.0475 29.1716 27.9202C29.1866 27.7928 29.2379 27.6724 29.3194 27.5734C29.401 27.4745 29.5093 27.401 29.6315 27.362C29.7536 27.3229 29.8844 27.3199 30.0083 27.3532C30.1482 27.3916 33.4542 28.322 34.8091 31.2077Z" fill="#00A63F"></path>
</g>
<defs>
<clipPath id="clip0_753_190">
<rect width="40" height="40" fill="white" transform="translate(0.5)"></rect>
</clipPath>
</defs>
</svg>