<svg xmlns="http://www.w3.org/2000/svg" width="40" height="40" viewBox="0 0 40 40" fill="none" class="svg replaced-svg">
<g clip-path="url(#clip0_753_534)">
<g clip-path="url(#clip1_753_534)">
<path d="M34.6207 6.65859C34.4754 6.51328 34.2738 6.42969 34.0684 6.42969H31.7246V0.960938C31.7246 0.529688 31.3746 0.179688 30.9434 0.179688H9.06836C8.63711 0.179688 8.28711 0.529688 8.28711 0.960938V6.42969H5.94336C5.73789 6.42969 5.53633 6.51328 5.39102 6.65859C5.2457 6.80391 5.16211 7.00547 5.16211 7.21094V39.3984C5.16211 39.6039 5.2457 39.8055 5.39102 39.9508C5.53633 40.0961 5.73789 40.1797 5.94336 40.1797H34.0684C34.2738 40.1797 34.4754 40.0961 34.6207 39.9508C34.766 39.8055 34.8496 39.6039 34.8496 39.3984V35.2188C34.8496 34.7883 34.4988 34.4375 34.0684 34.4375C33.6379 34.4375 33.2871 34.7883 33.2871 35.2188V38.6172H6.72461V7.99219H8.28711V13.4609C8.28711 13.8922 8.63711 14.2422 9.06836 14.2422H30.9434C31.3746 14.2422 31.7246 13.8922 31.7246 13.4609V7.99219H33.2871V28.1875C33.2871 28.618 33.6379 28.9688 34.0684 28.9688C34.4988 28.9688 34.8496 28.618 34.8496 28.1875V7.21094C34.8496 7.00547 34.766 6.80391 34.6207 6.65859ZM30.1621 12.6797H9.84961V1.74219H30.1621V12.6797Z" fill="#00A63F"></path>
<path d="M34.0684 32.4844C34.4998 32.4844 34.8496 32.1346 34.8496 31.7031C34.8496 31.2717 34.4998 30.9219 34.0684 30.9219C33.6369 30.9219 33.2871 31.2717 33.2871 31.7031C33.2871 32.1346 33.6369 32.4844 34.0684 32.4844Z" fill="#00A63F"></path>
<path d="M20.7872 9.55367C20.7858 9.55367 20.7844 9.55367 20.783 9.55367C20.2443 9.55648 19.6666 9.55852 19.2246 9.55883V4.08648C19.2246 3.65477 18.8748 3.30469 18.4434 3.30469C18.0119 3.30469 17.6621 3.65477 17.6621 4.08648V10.3355C17.6621 10.7195 17.9409 11.0566 18.32 11.1173H20.7912C21.2226 11.115 21.5706 10.7632 21.5684 10.3314C21.5661 9.90094 21.2168 9.55367 20.7872 9.55367Z" fill="#00A63F"></path>
<path d="M26.8101 6.53087C26.0779 6.25017 25.3956 5.9447 25.1796 5.8465C25.0107 5.70251 25.0264 5.48962 25.036 5.42431C25.0522 5.31431 25.1298 5.04595 25.5007 4.92986C26.3196 4.67353 27.0866 5.3015 27.1098 5.32056C27.4348 5.60072 27.9254 5.56618 28.208 5.24251C28.4918 4.91751 28.4584 4.42392 28.1334 4.14017C28.0758 4.08993 26.7053 2.91532 25.0339 3.43876C24.2029 3.69884 23.6113 4.37251 23.4901 5.19697C23.3749 5.97986 23.7016 6.73579 24.3425 7.16993C24.3773 7.19353 25.3166 7.63181 26.251 7.98993C26.5142 8.09079 27.1168 8.37712 27.028 8.85634C26.9645 9.19978 26.5657 9.55486 26.0083 9.55486C25.4241 9.55486 24.8606 9.30861 24.5008 8.89611C24.2173 8.57103 23.7237 8.53728 23.3986 8.82087C23.0734 9.10447 23.0398 9.59798 23.3233 9.92314C23.9755 10.6709 24.9792 11.1174 26.0083 11.1174C27.2775 11.1174 28.3525 10.286 28.5644 9.14064C28.7263 8.26611 28.3505 7.12126 26.8101 6.53087Z" fill="#00A63F"></path>
<path d="M15.3184 3.30469H12.1934C11.7619 3.30469 11.4121 3.65453 11.4121 4.08594C11.4121 4.51734 11.7619 4.86719 12.1934 4.86719H12.9746V10.3359C12.9746 10.7673 13.3244 11.1172 13.7559 11.1172C14.1873 11.1172 14.5371 10.7673 14.5371 10.3359V4.86719H15.3184C15.7498 4.86719 16.0996 4.51734 16.0996 4.08594C16.0996 3.65453 15.7498 3.30469 15.3184 3.30469Z" fill="#00A63F"></path>
<path d="M31.7048 28.5396C31.608 28.1193 31.1885 27.8568 30.7682 27.9537L10.7146 32.5732L11.1788 31.8204C11.4053 31.4532 11.2911 30.9718 10.9239 30.7453C10.5566 30.5189 10.0753 30.633 9.84878 31.0003L8.40347 33.344C8.17823 33.7093 8.28979 34.188 8.65339 34.416L10.9581 35.8613C11.0871 35.9422 11.2306 35.9807 11.3725 35.9807C11.6325 35.9807 11.8867 35.851 12.035 35.6145C12.2643 35.2489 12.1538 34.7668 11.7882 34.5376L11.0789 34.0928L31.1189 29.4764C31.5392 29.3795 31.8016 28.9601 31.7048 28.5396Z" fill="#00A63F"></path>
<path d="M8.30723 18.9302C8.21035 19.3507 8.4727 19.7701 8.89316 19.867L28.9331 24.4833L28.2238 24.9281C27.8582 25.1574 27.7478 25.6395 27.977 26.005C28.1253 26.2416 28.3796 26.3713 28.6396 26.3713C28.7814 26.3713 28.9249 26.3327 29.0539 26.2518L31.3586 24.8065C31.7222 24.5785 31.8338 24.0999 31.6086 23.7345L30.1632 21.3908C29.9368 21.0235 29.4554 20.9095 29.0882 21.1359C28.7209 21.3623 28.6068 21.8437 28.8332 22.2109L29.2975 22.9637L9.24395 18.3442C8.82363 18.2477 8.4041 18.5099 8.30723 18.9302Z" fill="#00A63F"></path>
<path d="M19.2246 24.8086C18.7931 24.8086 18.4434 25.1584 18.4434 25.5898C18.4434 26.0212 18.7931 26.3711 19.2246 26.3711H20.7871C21.2186 26.3711 21.5684 26.0212 21.5684 25.5898C21.5684 25.1584 21.2186 24.8086 20.7871 24.8086H19.2246Z" fill="#00A63F"></path>
<path d="M14.1465 24.8086C13.715 24.8086 13.3652 25.1584 13.3652 25.5898C13.3652 26.0212 13.715 26.3711 14.1465 26.3711H15.709C16.1405 26.3711 16.4902 26.0212 16.4902 25.5898C16.4902 25.1584 16.1405 24.8086 15.709 24.8086H14.1465Z" fill="#00A63F"></path>
<path d="M9.06836 26.3711H10.6309C11.0623 26.3711 11.4121 26.0212 11.4121 25.5898C11.4121 25.1584 11.0623 24.8086 10.6309 24.8086H9.06836C8.63688 24.8086 8.28711 25.1584 8.28711 25.5898C8.28711 26.0212 8.63695 26.3711 9.06836 26.3711Z" fill="#00A63F"></path>
<path d="M29.3809 35.9805H30.9434C31.3748 35.9805 31.7246 35.6306 31.7246 35.1992C31.7246 34.7678 31.3748 34.418 30.9434 34.418H29.3809C28.9494 34.418 28.5996 34.7678 28.5996 35.1992C28.5996 35.6306 28.9495 35.9805 29.3809 35.9805Z" fill="#00A63F"></path>
<path d="M19.2246 34.418C18.7931 34.418 18.4434 34.7678 18.4434 35.1992C18.4434 35.6306 18.7931 35.9805 19.2246 35.9805H20.7871C21.2186 35.9805 21.5684 35.6306 21.5684 35.1992C21.5684 34.7678 21.2186 34.418 20.7871 34.418H19.2246Z" fill="#00A63F"></path>
<path d="M24.3027 34.418C23.8713 34.418 23.5215 34.7678 23.5215 35.1992C23.5215 35.6306 23.8713 35.9805 24.3027 35.9805H25.8652C26.2967 35.9805 26.6465 35.6306 26.6465 35.1992C26.6465 34.7678 26.2967 34.418 25.8652 34.418H24.3027Z" fill="#00A63F"></path>
<path d="M30.9434 16.8789H29.3809C28.9494 16.8789 28.5996 17.2288 28.5996 17.6602C28.5996 18.0916 28.9494 18.4414 29.3809 18.4414H30.9434C31.3748 18.4414 31.7246 18.0916 31.7246 17.6602C31.7246 17.2288 31.3748 16.8789 30.9434 16.8789Z" fill="#00A63F"></path>
<path d="M20.7871 18.4414C21.2186 18.4414 21.5684 18.0916 21.5684 17.6602C21.5684 17.2288 21.2186 16.8789 20.7871 16.8789H19.2246C18.7931 16.8789 18.4434 17.2288 18.4434 17.6602C18.4434 18.0916 18.7931 18.4414 19.2246 18.4414H20.7871Z" fill="#00A63F"></path>
<path d="M25.8652 18.4414C26.2967 18.4414 26.6465 18.0916 26.6465 17.6602C26.6465 17.2288 26.2967 16.8789 25.8652 16.8789H24.3027C23.8713 16.8789 23.5215 17.2288 23.5215 17.6602C23.5215 18.0916 23.8713 18.4414 24.3027 18.4414H25.8652Z" fill="#00A63F"></path>
</g>
</g>
<defs>
<clipPath id="clip0_753_534">
<rect width="40" height="40" fill="white"></rect>
</clipPath>
<clipPath id="clip1_753_534">
<rect width="40" height="40" fill="white" transform="translate(0.00585938 0.179688)"></rect>
</clipPath>
</defs>
</svg>