<svg xmlns="http://www.w3.org/2000/svg" width="40" height="40" viewBox="0 0 40 40" fill="none" class="svg replaced-svg">
<g clip-path="url(#clip0_754_604)">
<g clip-path="url(#clip1_754_604)">
<path d="M34.1406 0H5.85938C2.62852 0 0 2.62852 0 5.85938V34.1406C0 37.3715 2.62852 40 5.85938 40H34.1406C37.3715 40 40 37.3715 40 34.1406V5.85938C40 2.62852 37.3715 0 34.1406 0ZM37.6562 34.1406C37.6562 36.0791 36.0791 37.6562 34.1406 37.6562H5.85938C3.92086 37.6562 2.34375 36.0791 2.34375 34.1406V5.85938C2.34375 3.92086 3.92086 2.34375 5.85938 2.34375H34.1406C36.0791 2.34375 37.6562 3.92086 37.6562 5.85938V34.1406Z" fill="#00A63F"></path>
<path d="M20 28.2812C19.3538 28.2812 18.8281 27.7555 18.8281 27.1094C18.8281 26.4632 19.3538 25.9375 20 25.9375C20.313 25.9375 20.6073 26.0594 20.8286 26.2807L21.6573 27.1094L23.3145 25.4521L22.4859 24.6234C21.8219 23.9595 20.9391 23.5938 20 23.5938C18.0615 23.5938 16.4844 25.1709 16.4844 27.1094C16.4844 29.0479 18.0615 30.625 20 30.625C20.6462 30.625 21.1719 31.1507 21.1719 31.7969C21.1719 32.443 20.6462 32.9688 20 32.9688C19.687 32.9688 19.3927 32.8469 19.1714 32.6255L18.3427 31.7969L16.6855 33.4541L17.5141 34.2828C18.1781 34.9468 19.0609 35.3125 20 35.3125C21.9385 35.3125 23.5156 33.7354 23.5156 31.7969C23.5156 29.8584 21.9385 28.2812 20 28.2812Z" fill="#00A63F"></path>
<path d="M10.625 28.2812C9.97883 28.2812 9.45312 27.7555 9.45312 27.1094C9.45312 26.4632 9.97883 25.9375 10.625 25.9375C10.938 25.9375 11.2323 26.0594 11.4536 26.2807L12.2823 27.1094L13.9395 25.4521L13.1109 24.6234C12.4469 23.9595 11.5641 23.5938 10.625 23.5938C8.68648 23.5938 7.10938 25.1709 7.10938 27.1094C7.10938 29.0479 8.68648 30.625 10.625 30.625C11.2712 30.625 11.7969 31.1507 11.7969 31.7969C11.7969 32.443 11.2712 32.9688 10.625 32.9688C10.312 32.9688 10.0177 32.8469 9.79641 32.6255L8.96773 31.7969L7.31047 33.4541L8.13906 34.2828C8.80313 34.9468 9.68586 35.3125 10.625 35.3125C12.5635 35.3125 14.1406 33.7354 14.1406 31.7969C14.1406 29.8584 12.5635 28.2812 10.625 28.2812Z" fill="#00A63F"></path>
<path d="M30.5469 28.2812H28.2031V23.5938H25.8594V35.3125H28.2031V30.625H30.5469V35.3125H32.8906C32.8906 33.6112 32.8906 25.1191 32.8906 23.5938H30.5469V28.2812Z" fill="#00A63F"></path>
<path d="M18.8281 16.4062H30.5469V18.75H18.8281V16.4062Z" fill="#00A63F"></path>
<path d="M10.3001 16.8595L19.769 10.547L10.3001 4.23438L9 6.18445L15.5437 10.547L9 14.9095L10.3001 16.8595Z" fill="#00A63F"></path>
</g>
</g>
<defs>
<clipPath id="clip0_754_604">
<rect width="40" height="40" fill="white"></rect>
</clipPath>
<clipPath id="clip1_754_604">
<rect width="40" height="40" fill="white"></rect>
</clipPath>
</defs>
</svg>