<svg xmlns="http://www.w3.org/2000/svg" width="41" height="40" viewBox="0 0 41 40" fill="none" class="svg replaced-svg">
<g clip-path="url(#clip0_753_459)">
<path d="M40.4674 19.7849C40.3047 17.9344 39.5094 16.1103 38.2282 14.6487C37.0762 13.3345 35.5954 12.4061 33.9928 11.9795C34.4021 9.84388 34.0231 7.72565 32.897 5.93806C31.6959 4.03155 29.753 2.68506 27.6999 2.3363C25.642 1.98575 23.3523 2.33482 21.4172 3.29397C19.2735 4.35664 17.6476 6.09611 16.6833 8.34839C16.4352 8.31785 16.1852 8.30245 15.9354 8.30245C13.8282 8.30245 11.9054 9.3752 10.7978 11.1355C10.6867 11.1292 10.5764 11.1261 10.4675 11.1261C7.11944 11.1261 4.39558 13.8499 4.39558 17.198C4.39558 17.6235 4.43918 18.0433 4.52574 18.4536C2.23291 18.9119 0.5 20.9402 0.5 23.3657C0.5 26.1289 2.74697 28.3769 5.50895 28.3769H8.78508C9.87493 33.7437 14.6299 37.7956 20.3135 37.7956C25.9962 37.7956 30.7501 33.7437 31.8398 28.3769H33.1273C35.2161 28.3769 37.0427 27.5876 38.4097 26.0947C39.9031 24.4635 40.6723 22.1045 40.4674 19.7849ZM20.3135 36.233C14.6887 36.233 10.1126 31.6569 10.1126 26.0321C10.1126 20.4085 14.6887 15.8333 20.3135 15.8333C25.9371 15.8333 30.5122 20.4085 30.5122 26.0321C30.5123 31.6569 25.9372 36.233 20.3135 36.233ZM37.2572 25.0396C36.1942 26.2006 34.766 26.8144 33.1273 26.8144H32.0482C32.0652 26.5557 32.0748 26.2951 32.0748 26.0321C32.0748 19.5469 26.7988 14.2708 20.3136 14.2708C13.8272 14.2708 8.55016 19.5469 8.55016 26.0321C8.55016 26.295 8.55977 26.5557 8.5768 26.8144H5.50895C3.60862 26.8143 2.06252 25.2673 2.06252 23.3657C2.06252 21.4654 3.60862 19.9193 5.50895 19.9193H5.54442C5.8031 19.9193 6.0449 19.7912 6.19037 19.5775C6.33584 19.3637 6.36607 19.0916 6.27107 18.8511C6.06334 18.3251 5.95802 17.7689 5.95802 17.198C5.95802 14.7115 7.98093 12.6886 10.4674 12.6886C10.6761 12.6886 10.8938 12.7046 11.1142 12.7361C11.4444 12.7827 11.7678 12.6159 11.9199 12.3193C12.6964 10.8054 14.2351 9.86497 15.9352 9.86497C16.2912 9.86497 16.6474 9.90692 16.9939 9.98974C17.3806 10.082 17.7754 9.86903 17.9103 9.49481C19.7152 4.48945 24.5966 3.39272 27.4378 3.87671C29.0603 4.15226 30.6068 5.23422 31.5748 6.77088C32.6037 8.40433 32.86 10.3906 32.2962 12.3637C32.2346 12.5794 32.2686 12.811 32.3896 12.9998C32.5105 13.1886 32.7068 13.3163 32.9284 13.3505C36.0518 13.8324 38.6238 16.6574 38.9108 19.9221C39.0779 21.813 38.4597 23.726 37.2572 25.0396Z" fill="#00A63F"></path>
<path d="M26.1802 25.2578C25.975 25.2287 25.7665 25.2819 25.6007 25.4062L23.7316 26.808C23.3864 27.0668 23.3165 27.5566 23.5753 27.9017C23.8342 28.2468 24.3239 28.3167 24.6691 28.058L24.941 27.854C24.2124 29.6987 22.4136 31.0078 20.3137 31.0078C18.5923 31.0078 17.0165 30.1368 16.0984 28.6778C15.8685 28.3126 15.3861 28.2028 15.021 28.4326C14.6559 28.6624 14.5461 29.1447 14.7759 29.5099C15.9817 31.4262 18.052 32.5703 20.3136 32.5703C23.2395 32.5703 25.7223 30.6375 26.5536 27.9812L26.8436 28.3685C26.9971 28.5734 27.2318 28.6815 27.4696 28.6815C27.6325 28.6815 27.7968 28.6307 27.9372 28.5256C28.2826 28.2669 28.3529 27.7773 28.0943 27.4319L26.6947 25.5627C26.5705 25.397 26.3854 25.2873 26.1802 25.2578Z" fill="#00A63F"></path>
<path d="M16.8928 25.2589C17.2382 25.0002 17.3085 24.5106 17.0499 24.1652C16.7913 23.8198 16.3017 23.7495 15.9563 24.0081L15.6834 24.2124C16.412 22.3678 18.2121 21.0586 20.3134 21.0586C22.0334 21.0586 23.6084 21.9296 24.5265 23.3886C24.7563 23.7538 25.2387 23.8636 25.6038 23.6338C25.969 23.404 26.0788 22.9217 25.849 22.5564C24.6431 20.6402 22.5737 19.4961 20.3134 19.4961C17.3867 19.4961 14.9031 21.4281 14.0714 24.0832L13.7812 23.6957C13.5226 23.3503 13.0329 23.28 12.6875 23.5386C12.3422 23.7972 12.2718 24.2868 12.5304 24.6322L13.9301 26.5014C14.0835 26.7063 14.3183 26.8144 14.556 26.8144C14.7189 26.8144 14.8832 26.7637 15.0237 26.6585L16.8928 25.2589Z" fill="#00A63F"></path>
</g>
<defs>
<clipPath id="clip0_753_459">
<rect width="40" height="40" fill="white" transform="translate(0.5)"></rect>
</clipPath>
</defs>
</svg>