<svg xmlns="http://www.w3.org/2000/svg" width="41" height="40" viewBox="0 0 41 40" fill="none" class="svg replaced-svg">
<g clip-path="url(#clip0_753_273)">
<path d="M23.2342 36.2129H19.7492C19.4639 35.221 18.6749 34.4409 17.6777 34.1684V30.3906C17.6777 29.9592 17.3279 29.6094 16.8964 29.6094C16.4649 29.6094 16.1152 29.9592 16.1152 30.3906V34.1684C14.8562 34.5123 13.9277 35.6655 13.9277 37.032C13.9277 38.6688 15.2595 40.0005 16.8963 40.0005C18.2766 40.0005 19.4398 39.0536 19.7706 37.7752H23.2341C23.6655 37.7752 24.0153 37.4254 24.0153 36.994C24.0153 36.5626 23.6657 36.2129 23.2342 36.2129ZM16.8965 38.4382C16.1212 38.4382 15.4903 37.8073 15.4903 37.032C15.4903 36.2567 16.1212 35.6259 16.8965 35.6259C17.6718 35.6259 18.3027 36.2567 18.3027 37.032C18.3027 37.8073 17.6719 38.4382 16.8965 38.4382Z" fill="#00A63F"></path>
<path d="M11.1732 36.2109H1.89746C1.46598 36.2109 1.11621 36.5608 1.11621 36.9922C1.11621 37.4236 1.46598 37.7734 1.89746 37.7734H11.1732C11.6047 37.7734 11.9545 37.4236 11.9545 36.9922C11.9545 36.5608 11.6047 36.2109 11.1732 36.2109Z" fill="#00A63F"></path>
<path d="M26.8959 2.65625C25.6037 2.65625 24.5522 3.70758 24.5522 4.99992C24.5522 6.29227 25.6036 7.34359 26.8959 7.34359C28.1882 7.34359 29.2396 6.29227 29.2396 4.99992C29.2396 3.70758 28.1882 2.65625 26.8959 2.65625ZM26.8959 5.78109C26.4651 5.78109 26.1147 5.43062 26.1147 4.99984C26.1147 4.56906 26.4651 4.21859 26.8959 4.21859C27.3267 4.21859 27.6772 4.56906 27.6772 4.99984C27.6772 5.43062 27.3267 5.78109 26.8959 5.78109Z" fill="#00A63F"></path>
<path d="M15.3599 4.21875H5.51563C5.08414 4.21875 4.73438 4.56859 4.73438 5C4.73438 5.43141 5.08414 5.78125 5.51563 5.78125H15.3599C15.7914 5.78125 16.1412 5.43141 16.1412 5C16.1412 4.56859 15.7914 4.21875 15.3599 4.21875Z" fill="#00A63F"></path>
<path d="M22.4874 4.44766C22.3421 4.30227 22.1406 4.21875 21.9351 4.21875C21.7296 4.21875 21.5288 4.30227 21.3827 4.44766C21.2374 4.59297 21.1538 4.79445 21.1538 5C21.1538 5.20547 21.2374 5.40703 21.3827 5.55227C21.528 5.69758 21.7296 5.78125 21.9351 5.78125C22.1405 5.78125 22.3421 5.69766 22.4874 5.55227C22.6335 5.40703 22.7163 5.20547 22.7163 5C22.7163 4.79445 22.6335 4.59297 22.4874 4.44766Z" fill="#00A63F"></path>
<path d="M19.1939 4.44766C19.0478 4.30227 18.8471 4.21875 18.6416 4.21875C18.4354 4.21875 18.2346 4.30227 18.0893 4.44766C17.9432 4.59297 17.8604 4.79375 17.8604 5C17.8604 5.20547 17.9432 5.40703 18.0893 5.55227C18.2346 5.69758 18.4354 5.78125 18.6416 5.78125C18.8471 5.78125 19.0486 5.69766 19.1939 5.55227C19.3393 5.40703 19.4229 5.20547 19.4229 5C19.4229 4.79367 19.3393 4.59297 19.1939 4.44766Z" fill="#00A63F"></path>
<path d="M26.8959 11.4062C25.6037 11.4062 24.5522 12.4576 24.5522 13.7499C24.5522 15.0423 25.6036 16.0936 26.8959 16.0936C28.1882 16.0936 29.2396 15.0423 29.2396 13.7499C29.2396 12.4576 28.1882 11.4062 26.8959 11.4062ZM26.8959 14.5311C26.4651 14.5311 26.1147 14.1806 26.1147 13.7498C26.1147 13.3191 26.4651 12.9686 26.8959 12.9686C27.3267 12.9686 27.6772 13.3191 27.6772 13.7498C27.6772 14.1806 27.3267 14.5311 26.8959 14.5311Z" fill="#00A63F"></path>
<path d="M15.3599 12.9688H5.51563C5.08414 12.9688 4.73438 13.3186 4.73438 13.75C4.73438 14.1814 5.08414 14.5312 5.51563 14.5312H15.3599C15.7914 14.5312 16.1412 14.1814 16.1412 13.75C16.1412 13.3186 15.7914 12.9688 15.3599 12.9688Z" fill="#00A63F"></path>
<path d="M22.4874 13.1969C22.3421 13.0516 22.1413 12.9688 21.9351 12.9688C21.7296 12.9688 21.528 13.0516 21.3827 13.1969C21.2374 13.343 21.1538 13.5445 21.1538 13.75C21.1538 13.9555 21.2374 14.1562 21.3827 14.3023C21.528 14.4476 21.7296 14.5312 21.9351 14.5312C22.1405 14.5312 22.3421 14.4477 22.4874 14.3023C22.6335 14.1562 22.7163 13.9555 22.7163 13.75C22.7163 13.5445 22.6335 13.343 22.4874 13.1969Z" fill="#00A63F"></path>
<path d="M19.1939 13.1969C19.0486 13.0516 18.8471 12.9688 18.6416 12.9688C18.4354 12.9688 18.2346 13.0516 18.0885 13.1969C17.9432 13.343 17.8604 13.5445 17.8604 13.75C17.8604 13.9555 17.9432 14.1562 18.0885 14.3023C18.2346 14.4476 18.4354 14.5312 18.6416 14.5312C18.8471 14.5312 19.0479 14.4477 19.1939 14.3023C19.3393 14.157 19.4229 13.9555 19.4229 13.75C19.4229 13.5445 19.3393 13.343 19.1939 13.1969Z" fill="#00A63F"></path>
<path d="M30.88 9.53078C32.3388 8.61914 33.3118 6.99945 33.3118 5.15602C33.3118 2.31297 30.9989 0 28.1558 0H5.65691C2.81395 0 0.500977 2.31297 0.500977 5.15602C0.500977 6.99945 1.47402 8.61914 2.93285 9.53078C1.47402 10.4424 0.500977 12.0621 0.500977 13.9055C0.500977 15.749 1.47402 17.3687 2.93285 18.2803C1.47402 19.192 0.500977 20.8117 0.500977 22.6552C0.500977 25.4982 2.81395 27.8112 5.65699 27.8112H20.5C20.9314 27.8112 21.2812 27.4613 21.2812 27.0299C21.2812 26.5985 20.9314 26.2487 20.5 26.2487H5.65691C3.67543 26.2487 2.06332 24.6366 2.06332 22.6551C2.06332 20.6736 3.67535 19.0615 5.65691 19.0615H28.1558C30.9989 19.0615 33.3118 16.7485 33.3118 13.9055C33.3118 12.0621 32.3388 10.4424 30.88 9.53078ZM2.0634 5.15602C2.0634 3.17453 3.67543 1.56242 5.65699 1.56242H28.1559C30.1374 1.56242 31.7495 3.17453 31.7495 5.15602C31.7495 7.1375 30.1374 8.74961 28.1559 8.74961H5.65691C3.67543 8.74961 2.0634 7.1375 2.0634 5.15602ZM28.1558 17.4991H5.65691C3.67535 17.4991 2.06332 15.887 2.06332 13.9055C2.06332 11.9241 3.67535 10.312 5.65691 10.312H28.1558C30.1373 10.312 31.7494 11.9241 31.7494 13.9055C31.7494 15.887 30.1373 17.4991 28.1558 17.4991Z" fill="#00A63F"></path>
<path d="M15.3599 21.7188H5.51563C5.08414 21.7188 4.73438 22.0686 4.73438 22.5C4.73438 22.9314 5.08414 23.2812 5.51563 23.2812H15.3599C15.7914 23.2812 16.1412 22.9314 16.1412 22.5C16.1412 22.0686 15.7914 21.7188 15.3599 21.7188Z" fill="#00A63F"></path>
<path d="M22.4874 21.9477C22.3421 21.8023 22.1413 21.7188 21.9351 21.7188C21.7295 21.7188 21.528 21.8023 21.3827 21.9477C21.2374 22.093 21.1538 22.2945 21.1538 22.5C21.1538 22.7055 21.2374 22.907 21.3827 23.0523C21.528 23.1976 21.7296 23.2812 21.9351 23.2812C22.1405 23.2812 22.3421 23.1977 22.4874 23.0523C22.6335 22.907 22.7163 22.7055 22.7163 22.5C22.7163 22.2945 22.6335 22.093 22.4874 21.9477Z" fill="#00A63F"></path>
<path d="M19.1939 21.9477C19.0486 21.8023 18.8471 21.7188 18.6416 21.7188C18.4354 21.7188 18.2346 21.8023 18.0885 21.9477C17.9432 22.093 17.8604 22.2945 17.8604 22.5C17.8604 22.7055 17.9432 22.907 18.0885 23.0523C18.2346 23.1976 18.4354 23.2812 18.6416 23.2812C18.8471 23.2812 19.0486 23.1977 19.1939 23.0523C19.3393 22.907 19.4229 22.7055 19.4229 22.5C19.4229 22.2945 19.3393 22.093 19.1939 21.9477Z" fill="#00A63F"></path>
<path d="M39.9001 23.2866C39.8504 23.2748 34.9038 22.0659 32.3067 19.4496C32.198 19.3401 32.0573 19.266 31.907 19.2352C31.8557 19.2245 31.8026 19.2188 31.7482 19.2188C31.7474 19.2188 31.7466 19.2188 31.7458 19.2188C31.6309 19.2189 31.522 19.2439 31.4241 19.2887C31.3386 19.3274 31.2599 19.3817 31.1925 19.4497C28.6018 22.0595 23.6485 23.2748 23.5991 23.2867C23.2477 23.3709 23 23.6852 23 24.0465V31.3623C23 34.6175 25.0992 36.3021 27.3677 37.6377C29.3618 38.8116 31.3545 39.8938 31.3745 39.9046C31.4888 39.9666 31.6169 39.9991 31.747 39.9991H31.7522C31.8823 39.9991 32.0103 39.9666 32.1247 39.9046C32.1446 39.8938 34.1374 38.8118 36.1314 37.6377C38.3999 36.3021 40.4991 34.6175 40.4991 31.3623V24.0465C40.4992 23.6851 40.2514 23.3709 39.9001 23.2866ZM38.9367 31.3622C38.9367 33.7027 37.56 34.9834 35.3388 36.2913C33.8763 37.1523 32.4138 37.9636 31.7495 38.3288C31.0854 37.9638 29.6234 37.1527 28.1604 36.2913C25.9391 34.9835 24.5623 33.7027 24.5623 31.3622V24.6455C25.9405 24.2505 29.3724 23.118 31.7495 21.0641C34.1266 23.118 37.5584 24.2505 38.9366 24.6455V31.3622H38.9367Z" fill="#00A63F"></path>
<path d="M35.0393 27.0803C34.7341 26.7753 34.2395 26.7753 33.9345 27.0803L30.5358 30.479L29.5646 29.5077C29.2595 29.2027 28.7648 29.2027 28.4598 29.5077C28.1547 29.8128 28.1547 30.3074 28.4598 30.6125L29.9834 32.1362C30.136 32.2887 30.3359 32.365 30.5359 32.365C30.7358 32.365 30.9358 32.2887 31.0883 32.1362L35.0395 28.1852C35.3443 27.88 35.3444 27.3854 35.0393 27.0803Z" fill="#00A63F"></path>
</g>
<defs>
<clipPath id="clip0_753_273">
<rect width="40" height="40" fill="white" transform="translate(0.5)"></rect>
</clipPath>
</defs>
</svg>