<svg xmlns="http://www.w3.org/2000/svg" width="41" height="40" viewBox="0 0 41 40" fill="none" class="svg replaced-svg">
<g clip-path="url(#clip0_753_331)">
<path d="M38.5653 10.3242H29.5327C29.0194 10.3242 28.5271 10.5281 28.1641 10.8911C27.8011 11.2541 27.5972 11.7464 27.5972 12.2598V29.0346C27.5972 29.5479 27.8011 30.0402 28.1641 30.4032C28.5271 30.7662 29.0194 30.9701 29.5327 30.9701H38.5653C39.0786 30.9701 39.571 30.7662 39.9339 30.4032C40.2969 30.0402 40.5008 29.5479 40.5008 29.0346V12.2598C40.5008 11.7464 40.2969 11.2541 39.9339 10.8911C39.571 10.5281 39.0786 10.3242 38.5653 10.3242ZM39.2105 29.0346C39.2105 29.2057 39.1425 29.3698 39.0215 29.4908C38.9005 29.6118 38.7364 29.6797 38.5653 29.6797H29.5327C29.3616 29.6797 29.1975 29.6118 29.0765 29.4908C28.9555 29.3698 28.8875 29.2057 28.8875 29.0346V28.3894H39.2105V29.0346ZM39.2105 27.099H28.8875V14.1953H39.2105V27.099ZM39.2105 12.905H28.8875V12.2598C28.8875 12.0887 28.9555 11.9246 29.0765 11.8036C29.1975 11.6826 29.3616 11.6146 29.5327 11.6146H38.5653C38.7364 11.6146 38.9005 11.6826 39.0215 11.8036C39.1425 11.9246 39.2105 12.0887 39.2105 12.2598V12.905Z" fill="#00A63F"></path>
<path d="M19.855 25.037V12.903C19.855 12.7319 19.7871 12.5678 19.6661 12.4468C19.5451 12.3258 19.381 12.2578 19.2099 12.2578H2.43507C2.26396 12.2578 2.09985 12.3258 1.97886 12.4468C1.85786 12.5678 1.78989 12.7319 1.78989 12.903V25.037L0.545327 28.1474C0.506076 28.2453 0.491444 28.3514 0.502715 28.4563C0.513985 28.5612 0.550813 28.6618 0.609972 28.7492C0.669131 28.8365 0.748814 28.908 0.84204 28.9575C0.935266 29.0069 1.03919 29.0327 1.1447 29.0326H20.5002C20.6057 29.0327 20.7097 29.0069 20.8029 28.9575C20.8961 28.908 20.9758 28.8365 21.035 28.7492C21.0941 28.6618 21.1309 28.5612 21.1422 28.4563C21.1535 28.3514 21.1388 28.2453 21.0996 28.1474L19.855 25.037ZM3.08025 13.5482H18.5647V24.5163H3.08025V13.5482ZM2.09764 27.7422L2.87186 25.8067H18.7731L19.5473 27.7422H2.09764Z" fill="#00A63F"></path>
<path d="M31.4683 3.8711C31.3541 3.87113 31.242 3.90146 31.1433 3.959C31.0447 4.01654 30.9631 4.09923 30.9069 4.19863C30.8507 4.29802 30.8218 4.41056 30.8233 4.52474C30.8248 4.63893 30.8566 4.75067 30.9154 4.84856L32.851 8.07448C32.9083 8.16987 32.9894 8.2488 33.0863 8.30359C33.1832 8.35839 33.2926 8.38719 33.4039 8.38719C33.5152 8.38719 33.6246 8.35839 33.7215 8.30359C33.8184 8.2488 33.8994 8.16987 33.9568 8.07448L35.8924 4.84856C35.9512 4.75067 35.9829 4.63893 35.9844 4.52474C35.9859 4.41056 35.9571 4.29802 35.9009 4.19863C35.8446 4.09923 35.763 4.01654 35.6644 3.959C35.5658 3.90146 35.4536 3.87113 35.3394 3.8711H34.0491V2.58074C34.0491 1.89628 33.7772 1.23986 33.2932 0.75588C32.8092 0.271898 32.1528 0 31.4683 0H10.8224C10.138 0 9.48156 0.271898 8.99758 0.75588C8.5136 1.23986 8.2417 1.89628 8.2417 2.58074V10.3229H9.53207V2.58074C9.53207 2.23851 9.66802 1.9103 9.91001 1.66831C10.152 1.42632 10.4802 1.29037 10.8224 1.29037H31.4683C31.8106 1.29037 32.1388 1.42632 32.3808 1.66831C32.6227 1.9103 32.7587 2.23851 32.7587 2.58074V3.8711H31.4683ZM34.1994 5.16147L33.4039 6.48797L32.6084 5.16147H34.1994Z" fill="#00A63F"></path>
<path d="M32.7586 37.4186C32.7586 37.7608 32.6226 38.089 32.3806 38.331C32.1386 38.573 31.8104 38.7089 31.4682 38.7089H10.8223C10.4801 38.7089 10.1519 38.573 9.90989 38.331C9.6679 38.089 9.53195 37.7608 9.53195 37.4186V35.483H10.8223C10.9365 35.483 11.0487 35.4526 11.1473 35.3951C11.2459 35.3376 11.3275 35.2549 11.3838 35.1555C11.44 35.0561 11.4688 34.9435 11.4673 34.8294C11.4658 34.7152 11.4341 34.6034 11.3752 34.5055L9.43969 31.2796C9.37812 31.1898 9.2956 31.1163 9.19926 31.0656C9.10292 31.0148 8.99566 30.9883 8.88677 30.9883C8.77787 30.9883 8.67061 31.0148 8.57427 31.0656C8.47793 31.1163 8.39541 31.1898 8.33384 31.2796L6.39829 34.5055C6.33948 34.6034 6.3077 34.7152 6.30621 34.8294C6.30471 34.9435 6.33355 35.0561 6.38977 35.1555C6.446 35.2549 6.5276 35.3376 6.62624 35.3951C6.72487 35.4526 6.83702 35.483 6.95121 35.483H8.24158V37.4186C8.24158 38.103 8.51348 38.7594 8.99746 39.2434C9.48144 39.7274 10.1379 39.9993 10.8223 39.9993H31.4682C32.1527 39.9993 32.8091 39.7274 33.2931 39.2434C33.777 38.7594 34.0489 38.103 34.0489 37.4186V32.9023H32.7586V37.4186ZM8.09125 34.1926L8.88677 32.8661L9.68228 34.1926H8.09125Z" fill="#00A63F"></path>
<path d="M13.4033 18.0658H13.0807V17.098C13.0807 16.4991 12.8428 15.9247 12.4193 15.5012C11.9959 15.0778 11.4215 14.8398 10.8226 14.8398C10.2237 14.8398 9.64933 15.0778 9.22585 15.5012C8.80237 15.9247 8.56446 16.4991 8.56446 17.098V18.0658H8.24186C8.07075 18.0658 7.90665 18.1337 7.78565 18.2547C7.66465 18.3757 7.59668 18.5398 7.59668 18.7109V22.5821C7.59668 22.7532 7.66465 22.9173 7.78565 23.0383C7.90665 23.1593 8.07075 23.2272 8.24186 23.2272H13.4033C13.5744 23.2272 13.7386 23.1593 13.8595 23.0383C13.9805 22.9173 14.0485 22.7532 14.0485 22.5821V18.7109C14.0485 18.5398 13.9805 18.3757 13.8595 18.2547C13.7386 18.1337 13.5744 18.0658 13.4033 18.0658ZM9.85482 17.098C9.85482 16.8413 9.95679 16.5952 10.1383 16.4137C10.3198 16.2322 10.5659 16.1302 10.8226 16.1302C11.0793 16.1302 11.3254 16.2322 11.5069 16.4137C11.6884 16.5952 11.7904 16.8413 11.7904 17.098V18.0658H9.85482V17.098ZM12.7582 21.9369H8.88705V19.3561H12.7582V21.9369Z" fill="#00A63F"></path>
<path d="M32.1138 23.2259C32.1123 23.5811 32.2086 23.9299 32.3921 24.234C32.5756 24.5381 32.8393 24.7858 33.1542 24.9501C33.4691 25.1143 33.8232 25.1888 34.1776 25.1652C34.532 25.1417 34.8731 25.0211 35.1635 24.8166C35.454 24.6122 35.6825 24.3317 35.8242 24.006C35.9659 23.6803 36.0152 23.3219 35.9668 22.97C35.9184 22.6182 35.774 22.2864 35.5496 22.0111C35.3252 21.7358 35.0294 21.5275 34.6945 21.4091V16.1289H33.4042V16.7741H32.1138V18.0645H33.4042V21.4091C33.0281 21.5421 32.7023 21.788 32.4713 22.1132C32.2403 22.4384 32.1154 22.827 32.1138 23.2259ZM34.0493 22.5807C34.1769 22.5807 34.3017 22.6186 34.4078 22.6895C34.5139 22.7604 34.5966 22.8611 34.6454 22.979C34.6942 23.0969 34.707 23.2266 34.6821 23.3518C34.6572 23.477 34.5958 23.5919 34.5056 23.6821C34.4153 23.7724 34.3004 23.8338 34.1752 23.8587C34.0501 23.8836 33.9203 23.8708 33.8024 23.822C33.6845 23.7732 33.5838 23.6905 33.5129 23.5844C33.442 23.4783 33.4042 23.3535 33.4042 23.2259C33.4042 23.0548 33.4721 22.8907 33.5931 22.7697C33.7141 22.6487 33.8782 22.5807 34.0493 22.5807Z" fill="#00A63F"></path>
</g>
<defs>
<clipPath id="clip0_753_331">
<rect width="40" height="40" fill="white" transform="translate(0.5)"></rect>
</clipPath>
</defs>
</svg>