<svg xmlns="http://www.w3.org/2000/svg" width="40" height="40" viewBox="0 0 40 40" fill="none" class="svg replaced-svg">
<g clip-path="url(#clip0_753_473)">
<path d="M30.6099 25.0486C30.5053 24.8673 30.3119 24.7656 30.1025 24.7656H23.0782C22.8688 24.7656 22.6754 24.8673 22.5708 25.0486L19.059 31.1266C18.9543 31.3078 18.9543 31.5287 19.059 31.71L22.5708 37.7735C22.6754 37.9548 22.8688 38.0469 23.0782 38.0469H30.1025C30.3119 38.0469 30.5053 37.9536 30.6099 37.7723L34.122 31.6983C34.2267 31.517 34.2267 31.3031 34.122 31.1219L30.6099 25.0486ZM29.7642 36.875H23.4166L20.243 31.4061L23.4165 25.9375H29.7641L32.9379 31.4061L29.7642 36.875Z" fill="#00A63F"></path>
<path d="M39.4139 17.3438H35.9018C35.6925 17.3438 35.499 17.4545 35.3943 17.6357L31.8822 23.7185C31.7775 23.8998 31.7775 24.1229 31.8822 24.3042L33.6386 27.3456C33.7471 27.5335 33.944 27.6385 34.1464 27.6385C34.2458 27.6385 34.3467 27.6132 34.4389 27.5599C34.7192 27.398 34.8152 27.0396 34.6533 26.7594L33.0662 24.012L36.2401 18.5156H39.4139C39.7375 18.5156 39.9999 18.2533 39.9999 17.9297C39.9999 17.6061 39.7375 17.3438 39.4139 17.3438Z" fill="#00A63F"></path>
<path d="M17.7864 32.4616C17.6817 32.2802 17.4882 32.1875 17.2789 32.1875H10.2547C10.0454 32.1875 9.85198 32.2802 9.74729 32.4615L7.99119 35.4934C7.8294 35.7735 7.92541 36.1271 8.20565 36.289C8.48588 36.4507 8.84424 36.3715 9.00612 36.0912L10.593 33.3594H16.9406L18.5272 36.089C18.6357 36.277 18.8327 36.3727 19.0352 36.3727C19.1346 36.3727 19.2353 36.3425 19.3276 36.2893C19.6078 36.1276 19.7039 35.7764 19.5421 35.4962L17.7864 32.4616Z" fill="#00A63F"></path>
<path d="M8.29598 30.8125L4.78395 24.7379C4.67926 24.5566 4.48582 24.4531 4.27652 24.4531H0.764648C0.441055 24.4531 0.178711 24.7154 0.178711 25.0391C0.178711 25.3627 0.441055 25.625 0.764648 25.625H3.93824L7.11199 31.1137L5.52535 33.8585C5.36355 34.1388 5.45965 34.495 5.73996 34.6569C5.83223 34.7102 5.93293 34.7344 6.0323 34.7344C6.2348 34.7344 6.43184 34.6287 6.54027 34.4407L8.29598 31.3986C8.40059 31.2173 8.40059 30.9938 8.29598 30.8125Z" fill="#00A63F"></path>
<path d="M17.1003 17.0312H10.0761C9.8667 17.0312 9.67334 17.1437 9.56865 17.3249L6.05654 23.4086C5.95186 23.5898 5.95186 23.8135 6.05654 23.9948L9.56873 30.0877C9.67342 30.2689 9.86678 30.3906 10.0762 30.3906H17.1004C17.3097 30.3906 17.5031 30.269 17.6078 30.0879L21.12 23.9998C21.2246 23.8185 21.2246 23.5927 21.12 23.4114L17.6079 17.3262C17.5031 17.1449 17.3097 17.0312 17.1003 17.0312ZM16.7621 29.2188H10.4144L7.24053 23.7111L10.4144 18.2031H16.7621L19.9359 23.7111L16.7621 29.2188Z" fill="#00A63F"></path>
<path d="M22.9003 22.9686H29.9246C30.134 22.9686 30.3274 22.8562 30.4321 22.6748L33.9439 16.5912C34.0486 16.4098 34.0486 16.1863 33.9439 16.005L30.4321 9.92219C30.3274 9.74086 30.134 9.62914 29.9247 9.62914L26.4125 9.62891L22.9003 9.62914C22.691 9.62914 22.4976 9.74086 22.3929 9.92211L18.8808 16.005C18.7761 16.1862 18.7761 16.4096 18.8808 16.5909L22.3929 22.6751C22.4976 22.8562 22.691 22.9686 22.9003 22.9686ZM23.2386 10.8009L26.4124 10.8007L29.5862 10.8009L32.7598 16.2986L29.5862 21.7967H23.2386L20.0647 16.2987L23.2386 10.8009Z" fill="#00A63F"></path>
<path d="M31.7045 9.18816L35.2162 15.263C35.3209 15.4443 35.5143 15.5478 35.7237 15.5478H39.2359C39.5595 15.5478 39.8218 15.2854 39.8218 14.9618C39.8218 14.6382 39.5595 14.3759 39.2359 14.3759H36.0621L32.8885 8.88691L34.4754 6.14238C34.6372 5.86214 34.5412 5.50581 34.261 5.34402C33.9807 5.18214 33.6224 5.27917 33.4606 5.55949L31.7046 8.60159C31.5998 8.783 31.5998 9.00683 31.7045 9.18816Z" fill="#00A63F"></path>
<path d="M9.39043 14.9514C9.49512 15.1327 9.68848 15.2344 9.89785 15.2344H16.9221C17.1314 15.2344 17.3248 15.1327 17.4295 14.9514L20.9416 8.87344C21.0463 8.69211 21.0463 8.47125 20.9416 8.29L17.4296 2.22656C17.3249 2.04523 17.1314 1.95312 16.9221 1.95312H9.89785C9.68848 1.95312 9.49512 2.04641 9.39043 2.22773L5.87832 8.30172C5.77363 8.48297 5.77363 8.6968 5.87832 8.87805L9.39043 14.9514ZM10.2361 3.125H16.5838L19.7576 8.59383L16.5838 14.0625H10.2361L7.06231 8.59383L10.2361 3.125Z" fill="#00A63F"></path>
<path d="M22.2144 7.53868C22.3191 7.71993 22.5125 7.81251 22.7218 7.81251H29.746C29.9554 7.81251 30.1489 7.71985 30.2535 7.5386L32.0092 4.50657C32.171 4.22633 32.0749 3.87274 31.7947 3.71094C31.5144 3.54915 31.156 3.62844 30.9943 3.90876L29.4078 6.64063H23.0601L21.4729 3.91094C21.3111 3.63079 20.9527 3.5443 20.6724 3.70602C20.3922 3.86782 20.2962 4.22149 20.458 4.50172L22.2144 7.53868Z" fill="#00A63F"></path>
<path d="M4.09805 22.6579C4.30734 22.6579 4.50078 22.5474 4.60547 22.3661L8.11766 16.2832C8.22227 16.1019 8.22227 15.8789 8.11766 15.6976L6.36188 12.6564C6.20016 12.3761 5.84164 12.2801 5.56148 12.4418C5.28125 12.6036 5.18516 12.9621 5.34695 13.2423L6.93359 15.9897L3.75977 21.4861H0.585938C0.262344 21.4861 0 21.7483 0 22.072C0 22.3957 0.262344 22.6579 0.585938 22.6579H4.09805Z" fill="#00A63F"></path>
</g>
<defs>
<clipPath id="clip0_753_473">
<rect width="40" height="40" fill="white"></rect>
</clipPath>
</defs>
</svg>