<svg xmlns="http://www.w3.org/2000/svg" width="40" height="40" viewBox="0 0 40 40" fill="none" class="svg replaced-svg">
<g clip-path="url(#clip0_753_502)">
<path d="M20 0C8.97139 0 0 8.97124 0 20C0 31.0286 8.97139 40 20 40C31.0286 40 40 31.0286 40 20C40 8.97124 31.0286 0 20 0ZM2.50003 20C2.50003 15.6246 4.12571 11.6291 6.7899 8.5574L31.4426 33.2101C28.371 35.8743 24.3755 37.5 20 37.5C10.3508 37.5 2.49995 29.6492 2.50003 20ZM33.2102 31.4426L8.55754 6.7899C11.6291 4.12571 15.6246 2.50003 20.0001 2.50003C29.6493 2.50003 37.5001 10.3508 37.5001 20C37.5001 24.3754 35.8744 28.371 33.2102 31.4426Z" fill="#00A63F"></path>
</g>
<defs>
<clipPath id="clip0_753_502">
<rect width="40" height="40" fill="white"></rect>
</clipPath>
</defs>
</svg>