<svg xmlns="http://www.w3.org/2000/svg" width="40" height="40" viewBox="0 0 40 40" fill="none" class="svg replaced-svg">
<g clip-path="url(#clip0_815_16272)">
<g clip-path="url(#clip1_815_16272)">
<path d="M30.7752 17.0061C30.7939 16.8623 30.7939 16.7873 30.8064 16.6561L30.8127 16.5811C30.9689 13.4623 29.9814 10.7248 28.0314 8.86232C26.0814 6.99982 23.2627 6.13732 20.1002 6.43732C13.9127 7.03107 9.7627 11.1686 9.7627 16.7311C9.7627 19.5436 10.8127 22.6811 12.5627 25.1123C13.7689 26.7873 14.4064 28.8186 14.4064 30.9936V32.9373C14.4064 33.2623 14.6627 33.5248 14.9877 33.5373C14.9377 33.6998 14.9002 33.8623 14.9002 34.0436C14.9002 34.4686 15.0627 34.8498 15.3127 35.1498C15.0564 35.4498 14.9002 35.8311 14.9002 36.2561C14.9002 37.1061 15.5314 37.8123 16.3439 37.9373C16.6064 39.1123 17.6564 39.9998 18.9127 39.9998H22.0502C23.3064 39.9998 24.3564 39.1186 24.6189 37.9373C25.4377 37.8061 26.0627 37.1061 26.0627 36.2561C26.0627 35.8311 25.9002 35.4498 25.6502 35.1498C25.9064 34.8498 26.0627 34.4686 26.0627 34.0436C26.0627 33.8686 26.0314 33.7061 25.9814 33.5436H26.1127C26.4502 33.5436 26.7189 33.2748 26.7189 32.9373V28.6061C26.7189 28.4186 26.8689 28.2686 27.0564 28.2686H28.8752C30.1002 28.2686 31.0939 27.2748 31.0939 26.0498V23.3936L32.0314 23.2811C32.3877 23.2373 32.7002 23.0248 32.8627 22.7061C33.0314 22.3873 33.0252 22.0061 32.8752 21.7373L30.7752 17.0061ZM22.0502 38.7873H18.9127C18.3439 38.7873 17.8564 38.4498 17.6252 37.9686H23.3377C23.1064 38.4498 22.6189 38.7873 22.0502 38.7873ZM24.3564 36.7561H16.6064C16.3314 36.7561 16.1064 36.5311 16.1064 36.2561C16.1064 35.9811 16.3314 35.7561 16.6064 35.7561H24.3564C24.6314 35.7561 24.8564 35.9811 24.8564 36.2561C24.8502 36.5311 24.6314 36.7561 24.3564 36.7561ZM24.8502 34.0498C24.8502 34.3248 24.6252 34.5498 24.3502 34.5498H16.6002C16.3252 34.5498 16.1002 34.3248 16.1002 34.0498C16.1002 33.7748 16.3252 33.5498 16.6002 33.5498H24.3502C24.6314 33.5498 24.8502 33.7686 24.8502 34.0498ZM30.4189 22.2561C30.1127 22.2936 29.8814 22.5498 29.8814 22.8561V26.0498C29.8814 26.6061 29.4314 27.0561 28.8752 27.0561H27.0627C26.2064 27.0561 25.5127 27.7498 25.5127 28.6061V32.3311H24.3564H16.6064H15.6127V30.9998C15.6127 28.5686 14.8939 26.2873 13.5439 24.4061C11.9314 22.1686 10.9689 19.2998 10.9689 16.7311C10.9689 11.8248 14.6814 8.17482 20.2127 7.64357C23.0564 7.37482 25.4689 8.09357 27.1877 9.73732C28.8752 11.3498 29.7314 13.7623 29.5939 16.5186L29.5877 16.5936C29.5814 16.7311 29.5752 16.7873 29.5439 16.9998C29.5252 17.1123 29.5439 17.2311 29.5877 17.3373L31.7064 22.0998L30.4189 22.2561Z" fill="#00A63F"></path>
<path d="M20.0379 4.79375C20.3754 4.79375 20.6441 4.525 20.6441 4.1875V0.60625C20.6441 0.26875 20.3754 0 20.0379 0C19.7004 0 19.4316 0.26875 19.4316 0.60625V4.1875C19.4316 4.525 19.7004 4.79375 20.0379 4.79375Z" fill="#00A63F"></path>
<path d="M26.2879 6.48586C26.3817 6.54211 26.4879 6.56711 26.5879 6.56711C26.8004 6.56711 27.0004 6.46086 27.1129 6.26711L28.9067 3.16086C29.0754 2.87336 28.9754 2.49836 28.6817 2.33586C28.3942 2.16711 28.0192 2.26711 27.8567 2.56086L26.0629 5.66086C25.8942 5.94836 25.9942 6.31711 26.2879 6.48586Z" fill="#00A63F"></path>
<path d="M31.3753 11.3817C31.4753 11.3817 31.5815 11.3567 31.6753 11.3005L34.7753 9.50674C35.0628 9.33799 35.1628 8.96924 35.0003 8.68174C34.8315 8.39424 34.4628 8.29424 34.1753 8.45674L31.0753 10.2505C30.7878 10.4192 30.6878 10.788 30.8503 11.0755C30.9628 11.2755 31.169 11.3817 31.3753 11.3817Z" fill="#00A63F"></path>
<path d="M36.6938 16.7305H33.1126C32.7751 16.7305 32.5063 16.9992 32.5063 17.3367C32.5063 17.6742 32.7751 17.943 33.1126 17.943H36.6938C37.0313 17.943 37.3001 17.6742 37.3001 17.3367C37.3001 17.0055 37.0313 16.7305 36.6938 16.7305Z" fill="#00A63F"></path>
<path d="M8.32515 23.2982L5.2189 25.0919C4.9314 25.2607 4.8314 25.6294 5.00015 25.9169C5.11265 26.1107 5.3189 26.2169 5.52515 26.2169C5.62515 26.2169 5.7314 26.1919 5.82515 26.1357L8.92515 24.3419C9.21265 24.1732 9.31265 23.8044 9.15015 23.5169C8.9814 23.2294 8.61265 23.1357 8.32515 23.2982Z" fill="#00A63F"></path>
<path d="M7.49395 17.2703C7.49395 16.9328 7.2252 16.6641 6.8877 16.6641H3.30645C2.96895 16.6641 2.7002 16.9328 2.7002 17.2703C2.7002 17.6078 2.96895 17.8766 3.30645 17.8766H6.8877C7.21895 17.8703 7.49395 17.6016 7.49395 17.2703Z" fill="#00A63F"></path>
<path d="M8.96291 10.1882L5.85666 8.39446C5.56916 8.22571 5.19416 8.32571 5.03166 8.61946C4.86291 8.90696 4.96291 9.28196 5.25666 9.44446L8.35666 11.2382C8.45041 11.2945 8.55667 11.3195 8.65667 11.3195C8.86917 11.3195 9.06916 11.2132 9.18166 11.0195C9.35666 10.7257 9.25666 10.357 8.96291 10.1882Z" fill="#00A63F"></path>
<path d="M12.9501 6.23309C13.0626 6.42684 13.2688 6.53309 13.4751 6.53309C13.5751 6.53309 13.6813 6.50809 13.7751 6.45184C14.0626 6.28309 14.1626 5.91434 14.0001 5.62684L12.2063 2.52684C12.0376 2.23309 11.6688 2.13934 11.3813 2.30184C11.0876 2.47059 10.9938 2.83934 11.1563 3.12684L12.9501 6.23309Z" fill="#00A63F"></path>
<path d="M27.6816 14.906C27.5254 14.8185 27.3316 14.806 27.1691 14.8748L27.0629 14.9185C26.7379 15.0435 26.3691 14.881 26.2441 14.5623C26.1816 14.3998 26.1879 14.2373 26.2566 14.081C26.3254 13.9248 26.4441 13.806 26.6004 13.7498L26.7066 13.706C26.8754 13.6435 27.0066 13.506 27.0629 13.3373C27.1191 13.1685 27.1004 12.981 27.0066 12.8248C26.4504 11.9185 25.6879 11.1248 24.8004 10.531C24.6504 10.431 24.4629 10.3998 24.2941 10.4498C24.1191 10.4998 23.9816 10.6248 23.9066 10.7873L23.8629 10.8935C23.7254 11.206 23.3316 11.3498 23.0316 11.2185C22.7129 11.081 22.5691 10.706 22.7066 10.3873L22.7504 10.281C22.8254 10.1185 22.8191 9.93104 22.7379 9.76854C22.6566 9.60604 22.5129 9.48729 22.3379 9.44979C21.3066 9.19979 20.2066 9.18104 19.1566 9.38729C18.9816 9.42479 18.8254 9.53104 18.7441 9.69354C18.6566 9.84979 18.6441 10.0373 18.7129 10.206L18.7504 10.3123C18.8754 10.6373 18.7191 10.9998 18.3941 11.1248C18.0754 11.2498 17.7004 11.0873 17.5754 10.7685L17.5316 10.6623C17.4691 10.4935 17.3316 10.3623 17.1566 10.306C16.9879 10.2498 16.8004 10.2685 16.6441 10.3623C15.7379 10.9185 14.9504 11.681 14.3504 12.5685C14.2504 12.7185 14.2191 12.906 14.2691 13.0748C14.3191 13.2498 14.4441 13.3873 14.6066 13.4623L14.7129 13.506C14.8691 13.5748 14.9879 13.6935 15.0441 13.856C15.1066 14.0123 15.1004 14.1873 15.0379 14.3373C14.9004 14.6435 14.5316 14.806 14.2066 14.6623L14.1004 14.6185C13.9379 14.5498 13.7504 14.5498 13.5879 14.631C13.4254 14.7123 13.3129 14.856 13.2691 15.031C13.0191 16.0685 13.0004 17.1685 13.2066 18.2123C13.2441 18.3873 13.3504 18.5373 13.5129 18.6248C13.6691 18.7123 13.8566 18.7248 14.0254 18.656L14.1316 18.6123C14.4629 18.481 14.8254 18.6498 14.9504 18.9685C15.0754 19.2935 14.9191 19.656 14.5941 19.7873L14.4879 19.831C14.3191 19.8998 14.1941 20.031 14.1379 20.206C14.0816 20.3748 14.1004 20.5623 14.2004 20.7185C14.7566 21.6248 15.5191 22.4185 16.4066 23.0123C16.5566 23.1123 16.7379 23.1373 16.9129 23.0935C17.0879 23.0435 17.2254 22.9185 17.3004 22.756L17.3441 22.6498C17.4754 22.3373 17.8504 22.1873 18.1754 22.3248C18.3316 22.3935 18.4504 22.5123 18.5066 22.6685C18.5691 22.8248 18.5629 22.9935 18.4941 23.1498L18.4504 23.256C18.3816 23.4185 18.3816 23.606 18.4629 23.7685C18.5441 23.931 18.6879 24.0435 18.8629 24.0873C19.4316 24.2248 20.0129 24.2935 20.5941 24.2935C21.0754 24.2935 21.5629 24.2435 22.0441 24.1498C22.2191 24.1123 22.3754 24.006 22.4566 23.8435C22.5441 23.6873 22.5566 23.4998 22.4879 23.331L22.4441 23.2248C22.3816 23.0685 22.3879 22.8998 22.4566 22.7435C22.5254 22.5873 22.6441 22.4685 22.8004 22.406C23.1191 22.281 23.4941 22.4498 23.6191 22.7623L23.6629 22.8685C23.7316 23.0373 23.8629 23.1623 24.0379 23.2185C24.2066 23.2748 24.3941 23.256 24.5504 23.1623C25.4566 22.606 26.2504 21.8435 26.8441 20.956C26.9441 20.806 26.9754 20.6185 26.9191 20.4498C26.8691 20.2748 26.7441 20.1373 26.5816 20.0623L26.4754 20.0185C26.3254 19.9498 26.2066 19.831 26.1441 19.6748C26.0816 19.5185 26.0879 19.3498 26.1504 19.1935C26.2879 18.881 26.6691 18.731 26.9816 18.8685L27.0879 18.9123C27.2504 18.981 27.4441 18.981 27.6004 18.8998C27.7629 18.8185 27.8754 18.6748 27.9191 18.4998C28.1629 17.4623 28.1816 16.3623 27.9754 15.3185C27.9504 15.1435 27.8379 14.9935 27.6816 14.906ZM26.8566 17.6123C26.0941 17.556 25.3566 18.006 25.0441 18.7123C24.8441 19.1623 24.8379 19.6623 25.0191 20.1185C25.1191 20.3748 25.2754 20.5998 25.4691 20.7873C25.1629 21.156 24.8129 21.4935 24.4316 21.7873C23.9441 21.2248 23.1004 20.9998 22.3691 21.281C21.9129 21.4623 21.5504 21.806 21.3504 22.256C21.2379 22.5123 21.1879 22.781 21.1941 23.0498C20.7191 23.0935 20.2316 23.0873 19.7566 23.0185C19.7754 22.7498 19.7316 22.481 19.6316 22.2185C19.4504 21.7623 19.1066 21.3998 18.6504 21.206C17.9379 20.8998 17.0816 21.0873 16.5754 21.631C16.2066 21.3248 15.8691 20.9748 15.5754 20.5935C16.1441 20.0935 16.3691 19.2748 16.0816 18.531C15.7941 17.806 15.1129 17.331 14.3129 17.3623C14.2691 16.8873 14.2754 16.3998 14.3441 15.9248C15.1066 15.9748 15.8441 15.531 16.1566 14.8248C16.3504 14.3748 16.3629 13.8748 16.1816 13.4123C16.0816 13.156 15.9254 12.931 15.7316 12.7435C16.0379 12.3748 16.3879 12.0373 16.7691 11.7498C17.2566 12.306 18.1066 12.531 18.8316 12.2498C19.5754 11.956 20.0191 11.2373 20.0004 10.481C20.4816 10.4373 20.9691 10.4435 21.4379 10.506C21.3879 11.256 21.8066 11.9998 22.5379 12.3185C23.2504 12.6248 24.1004 12.4373 24.6129 11.8935C24.9816 12.1998 25.3191 12.5498 25.6129 12.931C25.4129 13.106 25.2504 13.331 25.1379 13.581C24.9441 14.031 24.9316 14.531 25.1129 14.9935C25.4004 15.7185 26.0941 16.1935 26.8816 16.1623C26.9316 16.6498 26.9254 17.131 26.8566 17.6123Z" fill="#00A63F"></path>
<path d="M20.6063 12.9492C18.5 12.9492 16.7812 14.6617 16.7812 16.7742C16.7812 18.8805 18.4938 20.5992 20.6063 20.5992C22.7125 20.5992 24.4312 18.8867 24.4312 16.7742C24.4312 14.6617 22.7125 12.9492 20.6063 12.9492ZM20.6063 19.3805C19.1688 19.3805 17.9938 18.2055 17.9938 16.768C17.9938 15.3305 19.1625 14.1555 20.6063 14.1555C22.0438 14.1555 23.2188 15.3242 23.2188 16.768C23.2188 18.2117 22.0438 19.3805 20.6063 19.3805Z" fill="#00A63F"></path>
</g>
</g>
<defs>
<clipPath id="clip0_815_16272">
<rect width="40" height="40" fill="white"></rect>
</clipPath>
<clipPath id="clip1_815_16272">
<rect width="40" height="40" fill="white"></rect>
</clipPath>
</defs>
</svg>