<svg xmlns="http://www.w3.org/2000/svg" width="40" height="40" viewBox="0 0 40 40" fill="none" class="svg raid replaced-svg">
<g clip-path="url(#clip0_857_13117)">
<path d="M36.0497 12.3397C35.0174 11.1602 33.625 10.354 32.088 10.0462C30.8447 5.52151 26.6954 2.1875 21.7813 2.1875C19.9929 2.18733 18.2332 2.63584 16.6631 3.49195C15.0931 4.34807 13.7629 5.58442 12.7944 7.08779C12.2587 6.93965 11.6987 6.9005 11.1475 6.97267C10.5964 7.04483 10.0653 7.22683 9.58581 7.50791C9.10628 7.78898 8.68801 8.1634 8.35577 8.60901C8.02353 9.05463 7.78407 9.56237 7.65157 10.1022C6.47587 10.3841 5.39125 10.9605 4.49976 11.7772C3.60828 12.5939 2.93926 13.624 2.55566 14.7705C2.17206 15.9171 2.08651 17.1424 2.30706 18.3311C2.5276 19.5198 3.04698 20.6329 3.81633 21.5656L4.73189 20.8094C4.01549 19.9408 3.56084 18.8863 3.42098 17.7691C3.28113 16.6518 3.46182 15.5178 3.94198 14.4994C4.42215 13.4809 5.182 12.62 6.13289 12.017C7.08379 11.414 8.18653 11.0938 9.3125 11.0938C9.49283 11.0938 9.67468 11.1019 9.85298 11.118L9.95953 9.93524C9.74593 9.91603 9.5282 9.90625 9.3125 9.90625C9.19529 9.90625 9.07875 9.90914 8.9629 9.91491C9.22663 9.30475 9.68761 8.80082 10.2719 8.48392C10.8562 8.16701 11.53 8.05549 12.1853 8.16722C12.0361 8.47156 11.8993 8.78308 11.7786 9.10289L12.8897 9.52211C13.6749 7.44121 15.1653 5.70171 17.1011 4.6066C19.037 3.51149 21.2956 3.13017 23.4837 3.52907C25.6717 3.92796 27.6505 5.0818 29.0754 6.78958C30.5002 8.49736 31.2809 10.6509 31.2813 12.875H32.4688C32.4687 12.3591 32.4314 11.844 32.3572 11.3335C33.5863 11.6986 34.6652 12.4499 35.4339 13.4762C36.2026 14.5024 36.6202 15.749 36.625 17.0312C36.6277 18.2537 36.2506 19.4467 35.5458 20.4455L36.5167 21.1292C37.4344 19.8235 37.8871 18.2475 37.8025 16.6538C37.7178 15.0601 37.1006 13.5409 36.0497 12.3397Z" fill="#00A63F"></path>
<path d="M7.53125 28.3125C7.85917 28.3125 8.125 28.0467 8.125 27.7188C8.125 27.3908 7.85917 27.125 7.53125 27.125C7.20333 27.125 6.9375 27.3908 6.9375 27.7188C6.9375 28.0467 7.20333 28.3125 7.53125 28.3125Z" fill="#00A63F"></path>
<path d="M9.3125 28.3125C9.64042 28.3125 9.90625 28.0467 9.90625 27.7188C9.90625 27.3908 9.64042 27.125 9.3125 27.125C8.98458 27.125 8.71875 27.3908 8.71875 27.7188C8.71875 28.0467 8.98458 28.3125 9.3125 28.3125Z" fill="#00A63F"></path>
<path d="M11.0938 28.3125C11.4217 28.3125 11.6875 28.0467 11.6875 27.7188C11.6875 27.3908 11.4217 27.125 11.0938 27.125C10.7658 27.125 10.5 27.3908 10.5 27.7188C10.5 28.0467 10.7658 28.3125 11.0938 28.3125Z" fill="#00A63F"></path>
<path d="M16.4375 27.125H12.875V28.3125H16.4375V27.125Z" fill="#00A63F"></path>
<path d="M7.53125 23.5625C7.85917 23.5625 8.125 23.2967 8.125 22.9688C8.125 22.6408 7.85917 22.375 7.53125 22.375C7.20333 22.375 6.9375 22.6408 6.9375 22.9688C6.9375 23.2967 7.20333 23.5625 7.53125 23.5625Z" fill="#00A63F"></path>
<path d="M9.3125 23.5625C9.64042 23.5625 9.90625 23.2967 9.90625 22.9688C9.90625 22.6408 9.64042 22.375 9.3125 22.375C8.98458 22.375 8.71875 22.6408 8.71875 22.9688C8.71875 23.2967 8.98458 23.5625 9.3125 23.5625Z" fill="#00A63F"></path>
<path d="M11.0938 23.5625C11.4217 23.5625 11.6875 23.2967 11.6875 22.9688C11.6875 22.6408 11.4217 22.375 11.0938 22.375C10.7658 22.375 10.5 22.6408 10.5 22.9688C10.5 23.2967 10.7658 23.5625 11.0938 23.5625Z" fill="#00A63F"></path>
<path d="M16.4375 22.375H12.875V23.5625H16.4375V22.375Z" fill="#00A63F"></path>
<path d="M16.4375 15.25H7.53125C6.90158 15.2507 6.29791 15.5012 5.85267 15.9464C5.40742 16.3917 5.15697 16.9953 5.15625 17.625V18.8125C5.15621 19.1497 5.22814 19.483 5.36725 19.7902C5.50635 20.0974 5.70941 20.3713 5.96287 20.5938C5.70941 20.8162 5.50635 21.0901 5.36725 21.3973C5.22814 21.7045 5.15621 22.0378 5.15625 22.375V23.5625C5.15621 23.8997 5.22814 24.233 5.36725 24.5402C5.50635 24.8474 5.70941 25.1213 5.96287 25.3438C5.70941 25.5662 5.50635 25.8401 5.36725 26.1473C5.22814 26.4545 5.15621 26.7878 5.15625 27.125V28.3125C5.15697 28.9422 5.40742 29.5458 5.85267 29.9911C6.29791 30.4363 6.90158 30.6868 7.53125 30.6875H16.4375C17.0672 30.6868 17.6708 30.4363 18.1161 29.9911C18.5613 29.5458 18.8118 28.9422 18.8125 28.3125V27.125C18.8125 26.7878 18.7406 26.4545 18.6015 26.1473C18.4624 25.8401 18.2593 25.5662 18.0059 25.3438C18.2593 25.1213 18.4624 24.8474 18.6015 24.5402C18.7406 24.233 18.8125 23.8997 18.8125 23.5625V22.375C18.8125 22.0378 18.7406 21.7045 18.6015 21.3973C18.4624 21.0901 18.2593 20.8162 18.0059 20.5938C18.2593 20.3713 18.4624 20.0974 18.6015 19.7902C18.7406 19.483 18.8125 19.1497 18.8125 18.8125V17.625C18.8118 16.9953 18.5613 16.3917 18.1161 15.9464C17.6708 15.5012 17.0672 15.2507 16.4375 15.25ZM17.625 27.125V28.3125C17.6246 28.6273 17.4994 28.9292 17.2768 29.1518C17.0542 29.3744 16.7523 29.4996 16.4375 29.5H7.53125C7.21642 29.4996 6.91458 29.3744 6.69196 29.1518C6.46934 28.9292 6.34411 28.6273 6.34375 28.3125V27.125C6.34411 26.8102 6.46934 26.5083 6.69196 26.2857C6.91458 26.0631 7.21642 25.9379 7.53125 25.9375H16.4375C16.7523 25.9379 17.0542 26.0631 17.2768 26.2857C17.4994 26.5083 17.6246 26.8102 17.625 27.125ZM17.625 22.375V23.5625C17.6246 23.8773 17.4994 24.1792 17.2768 24.4018C17.0542 24.6244 16.7523 24.7496 16.4375 24.75H7.53125C7.21642 24.7496 6.91458 24.6244 6.69196 24.4018C6.46934 24.1792 6.34411 23.8773 6.34375 23.5625V22.375C6.34411 22.0602 6.46934 21.7583 6.69196 21.5357C6.91458 21.3131 7.21642 21.1879 7.53125 21.1875H16.4375C16.7523 21.1879 17.0542 21.3131 17.2768 21.5357C17.4994 21.7583 17.6246 22.0602 17.625 22.375ZM7.53125 20C7.21642 19.9996 6.91458 19.8744 6.69196 19.6518C6.46934 19.4292 6.34411 19.1273 6.34375 18.8125V17.625C6.34411 17.3102 6.46934 17.0083 6.69196 16.7857C6.91458 16.5631 7.21642 16.4379 7.53125 16.4375H16.4375C16.7523 16.4379 17.0542 16.5631 17.2768 16.7857C17.4994 17.0083 17.6246 17.3102 17.625 17.625V18.8125C17.6246 19.1273 17.4994 19.4292 17.2768 19.6518C17.0542 19.8744 16.7523 19.9996 16.4375 20H7.53125Z" fill="#00A63F"></path>
<path d="M7.53125 18.8125C7.85917 18.8125 8.125 18.5467 8.125 18.2188C8.125 17.8908 7.85917 17.625 7.53125 17.625C7.20333 17.625 6.9375 17.8908 6.9375 18.2188C6.9375 18.5467 7.20333 18.8125 7.53125 18.8125Z" fill="#00A63F"></path>
<path d="M9.3125 18.8125C9.64042 18.8125 9.90625 18.5467 9.90625 18.2188C9.90625 17.8908 9.64042 17.625 9.3125 17.625C8.98458 17.625 8.71875 17.8908 8.71875 18.2188C8.71875 18.5467 8.98458 18.8125 9.3125 18.8125Z" fill="#00A63F"></path>
<path d="M11.0938 18.8125C11.4217 18.8125 11.6875 18.5467 11.6875 18.2188C11.6875 17.8908 11.4217 17.625 11.0938 17.625C10.7658 17.625 10.5 17.8908 10.5 18.2188C10.5 18.5467 10.7658 18.8125 11.0938 18.8125Z" fill="#00A63F"></path>
<path d="M16.4375 17.625H12.875V18.8125H16.4375V17.625Z" fill="#00A63F"></path>
<path d="M32.4688 18.2188H27.7188C27.0891 18.2195 26.4854 18.4699 26.0402 18.9152C25.5949 19.3604 25.3445 19.9641 25.3438 20.5938V24.1562C25.3445 24.7859 25.5949 25.3896 26.0402 25.8348C26.4854 26.2801 27.0891 26.5305 27.7188 26.5312H32.4688C33.0984 26.5305 33.7021 26.2801 34.1473 25.8348C34.5926 25.3896 34.843 24.7859 34.8438 24.1562V20.5938C34.843 19.9641 34.5926 19.3604 34.1473 18.9152C33.7021 18.4699 33.0984 18.2195 32.4688 18.2188ZM33.6562 20.5938V20.9133C33.2956 20.7037 32.8859 20.5934 32.4688 20.5938H31.1946C30.974 20.5945 30.7575 20.5334 30.5697 20.4174C30.382 20.3014 30.2305 20.1351 30.1325 19.9374L29.9297 19.5316C29.9083 19.4888 29.8851 19.4473 29.8615 19.4062H32.4688C32.7836 19.4066 33.0854 19.5318 33.308 19.7545C33.5307 19.9771 33.6559 20.2789 33.6562 20.5938ZM33.6562 24.1562C33.6559 24.4711 33.5307 24.7729 33.308 24.9955C33.0854 25.2182 32.7836 25.3434 32.4688 25.3438H27.7188C27.4039 25.3434 27.1021 25.2182 26.8795 24.9955C26.6568 24.7729 26.5316 24.4711 26.5312 24.1562V20.5938C26.5316 20.2789 26.6568 19.9771 26.8795 19.7545C27.1021 19.5318 27.4039 19.4066 27.7188 19.4062H27.8054C28.026 19.4055 28.2425 19.4666 28.4303 19.5826C28.618 19.6986 28.7695 19.8649 28.8675 20.0626L29.0703 20.4684C29.2664 20.8639 29.5694 21.1965 29.9448 21.4285C30.3203 21.6606 30.7533 21.7828 31.1946 21.7812H32.4688C32.7836 21.7816 33.0854 21.9068 33.308 22.1295C33.5307 22.3521 33.6559 22.6539 33.6562 22.9688V24.1562Z" fill="#00A63F"></path>
<path d="M32.4688 29.5H27.7188C27.0891 29.5007 26.4854 29.7512 26.0402 30.1964C25.5949 30.6417 25.3445 31.2453 25.3438 31.875V35.4375C25.3445 36.0672 25.5949 36.6708 26.0402 37.1161C26.4854 37.5613 27.0891 37.8118 27.7188 37.8125H32.4688C33.0984 37.8118 33.7021 37.5613 34.1473 37.1161C34.5926 36.6708 34.843 36.0672 34.8438 35.4375V31.875C34.843 31.2453 34.5926 30.6417 34.1473 30.1964C33.7021 29.7512 33.0984 29.5007 32.4688 29.5ZM33.6562 31.875V32.1945C33.2956 31.9849 32.8859 31.8747 32.4688 31.875H31.1946C30.974 31.8758 30.7575 31.8147 30.5697 31.6987C30.382 31.5826 30.2305 31.4163 30.1325 31.2186L29.9297 30.8128C29.9083 30.77 29.8851 30.7286 29.8615 30.6875H32.4688C32.7836 30.6879 33.0854 30.8131 33.308 31.0357C33.5307 31.2583 33.6559 31.5602 33.6562 31.875ZM33.6562 35.4375C33.6559 35.7523 33.5307 36.0542 33.308 36.2768C33.0854 36.4994 32.7836 36.6246 32.4688 36.625H27.7188C27.4039 36.6246 27.1021 36.4994 26.8795 36.2768C26.6568 36.0542 26.5316 35.7523 26.5312 35.4375V31.875C26.5316 31.5602 26.6568 31.2583 26.8795 31.0357C27.1021 30.8131 27.4039 30.6879 27.7188 30.6875H27.8054C28.026 30.6867 28.2425 30.7478 28.4303 30.8638C28.618 30.9799 28.7695 31.1462 28.8675 31.3439L29.0703 31.7497C29.2664 32.1451 29.5694 32.4777 29.9448 32.7098C30.3203 32.9418 30.7533 33.064 31.1946 33.0625H32.4688C32.7836 33.0629 33.0854 33.1881 33.308 33.4107C33.5307 33.6333 33.6559 33.9352 33.6562 34.25V35.4375Z" fill="#00A63F"></path>
<path d="M19.4062 21.7812V22.9688H21.1875V34.25C21.1875 34.4075 21.2501 34.5585 21.3614 34.6698C21.4728 34.7812 21.6238 34.8437 21.7812 34.8438H24.1562V33.6562H22.375V22.9688H24.1562V21.7812H19.4062Z" fill="#00A63F"></path>
</g>
<defs>
<clipPath id="clip0_857_13117">
<rect width="40" height="40" fill="white"></rect>
</clipPath>
</defs>
</svg>