<svg width="51" height="50" viewBox="0 0 51 50" fill="none" xmlns="http://www.w3.org/2000/svg">
<path d="M17.5151 22.4558C15.172 20.6342 13.6616 17.7899 13.6616 14.599C13.6616 9.11373 18.1241 4.65121 23.6093 4.65121C29.0945 4.65121 33.5569 9.11373 33.5569 14.599C33.5569 16.8288 32.8195 18.8896 31.5756 20.5503C31.5995 20.5696 31.6242 20.5879 31.6479 20.6076C31.7592 20.6016 31.871 20.5984 31.9832 20.5984C33.0125 20.5984 34.0169 20.8627 34.9061 21.3546C36.0897 19.3797 36.7707 17.069 36.7707 14.599C36.7707 7.33006 30.878 1.4375 23.6092 1.4375C16.3403 1.4375 10.4478 7.33006 10.4478 14.599C10.4478 19.5612 13.1944 23.8814 17.2498 26.1239C17.338 26.1138 17.4263 26.1048 17.5151 26.0988V22.4558Z" fill="#00A63F"/>
<path d="M23.5607 9.88562C26.8942 9.88562 29.6061 12.5977 29.6061 15.9312V18.6365C30.3855 17.4827 30.841 16.0931 30.841 14.599C30.841 10.6114 27.5968 7.36719 23.6092 7.36719C19.6216 7.36719 16.3774 10.6114 16.3774 14.599C16.3774 16.0288 16.7962 17.3618 17.5151 18.4851V15.9312C17.5152 12.5976 20.2272 9.88562 23.5607 9.88562Z" fill="#00A63F"/>
<path d="M36.1944 26.032C35.9085 26.032 35.6308 26.0678 35.3651 26.1343C35.1178 24.4896 33.6956 23.2245 31.9832 23.2245C31.5294 23.2245 31.0965 23.314 30.6999 23.4752C30.1001 22.4845 29.0121 21.8208 27.7719 21.8208C27.4996 21.8208 27.2349 21.8537 26.9808 21.9142V15.9318C26.9808 14.046 25.4466 12.5117 23.5608 12.5117C21.6749 12.5117 20.1406 14.046 20.1406 15.9318V29.6993L20.0136 29.5757C19.4503 29.0275 18.7073 28.7209 17.9214 28.7126C17.9106 28.7124 17.9 28.7124 17.8892 28.7124C16.9176 28.7124 15.9988 29.1794 15.4263 29.9658C14.8473 30.761 14.6881 31.7926 15.0001 32.7252L16.1974 36.3037C16.842 38.2303 17.873 39.9589 19.262 41.4417L21.9655 44.3278V48.5632H35.9791V44.4604L39.6147 38.0384V29.4521C39.6146 27.5662 38.0804 26.032 36.1944 26.032Z" fill="#00A63F"/>
</svg>
