<svg width="50" height="50" viewBox="0 0 50 50" fill="none" xmlns="http://www.w3.org/2000/svg">
<g clip-path="url(#clip0_810_12237)">
<g clip-path="url(#clip1_810_12237)">
<path d="M46.9045 31.2376C46.4647 30.5032 44.6613 28.3221 39.918 31.0845L31.6171 35.9193C31.2377 36.1402 30.8523 36.3015 30.4522 36.4045C30.5917 36.1618 30.7024 35.892 30.7815 35.5971C31.212 33.9903 30.2578 32.3131 28.6091 31.7786C28.5756 31.7678 28.5415 31.7592 28.5068 31.7529C26.1248 31.3233 23.7722 30.4728 21.8817 29.7894C21.2241 29.5516 20.6028 29.3271 20.0742 29.1556C17.9321 28.4606 16.0002 29.3185 14.3926 30.2492L8.25595 33.8022L7.69589 32.8127C7.15175 31.8515 5.92714 31.5119 4.96562 32.056L2.63651 33.3741C2.17196 33.637 1.8373 34.0663 1.69413 34.5829C1.55097 35.0995 1.61689 35.6398 1.87978 36.1044L8.72704 48.2031C9.09521 48.8536 9.77489 49.2194 10.474 49.2194C10.808 49.2194 11.1465 49.1358 11.4573 48.96L13.7864 47.6418C14.7478 47.0977 15.0873 45.8729 14.5432 44.9115L13.859 43.7026L15.2123 42.9213L25.8263 45.7652C26.4167 45.9235 27.0042 46.0021 27.582 46.0021C28.7506 46.0021 29.8794 45.6805 30.9114 45.0452L45.9756 35.7693C47.3685 34.9115 47.8113 32.7516 46.9045 31.2376ZM13.0169 46.2818L10.6878 47.6C10.4798 47.718 10.2046 47.6413 10.0869 47.4334L3.23964 35.3346C3.18232 35.2333 3.16825 35.1146 3.19999 35.0001C3.23163 34.8856 3.30487 34.791 3.40624 34.7337L5.73534 33.4155C5.80185 33.3778 5.87528 33.3601 5.94814 33.3601C6.10321 33.3601 6.25614 33.4406 6.33632 33.582L13.1836 45.6808C13.3012 45.8889 13.2249 46.1641 13.0169 46.2818ZM45.1563 34.4386L30.0923 43.7145C28.9085 44.4432 27.6093 44.6254 26.2308 44.2558L15.3042 41.328C15.1041 41.2744 14.8908 41.3024 14.7114 41.4061L13.0894 42.3425L9.02567 35.1621L15.1757 31.6014C16.5512 30.8049 18.0382 30.1376 19.5923 30.6417C20.0962 30.8051 20.6775 31.0152 21.3507 31.2586C23.2815 31.9566 25.6814 32.8242 28.1727 33.2802C29.0159 33.5765 29.4873 34.3904 29.2724 35.1926C28.9897 36.2476 28.1082 36.3795 27.4057 36.2994C26.1851 36.0483 25.0246 35.7172 23.7967 35.3665C23.2134 35.1999 22.6103 35.0277 21.9901 34.8615C21.5735 34.7501 21.1451 34.9973 21.0333 35.414C20.9216 35.8308 21.169 36.2591 21.5857 36.3708C22.1935 36.5336 22.7904 36.7041 23.3676 36.8689C24.6352 37.2311 25.8327 37.5729 27.1229 37.8367C27.128 37.8378 27.1486 37.8416 27.154 37.8425L28.1863 38.0104C29.7411 38.259 31.1202 38.0166 32.4034 37.2694L40.7044 32.4346C43.0701 31.0567 44.8868 30.9095 45.5642 32.0403C46.0294 32.8174 45.8236 34.0277 45.1563 34.4386ZM6.38905 35.7135C6.45546 36.1679 6.14091 36.5901 5.68651 36.6565C5.23212 36.7229 4.80985 36.4085 4.74345 35.954C4.67704 35.4996 4.9915 35.0773 5.44599 35.0109C5.90038 34.9445 6.32265 35.2591 6.38905 35.7135ZM15.938 18.5602L17.9355 19.329C18.2256 20.3955 18.6495 21.4181 19.1996 22.3786L18.3304 24.3358C18.1992 24.6312 18.2634 24.9769 18.4919 25.2054L21.2344 27.9479C21.463 28.1764 21.8084 28.2406 22.1039 28.1095L24.062 27.2398C25.0226 27.79 26.0448 28.2139 27.1106 28.5038L27.8797 30.5018C27.9957 30.8034 28.2855 31.0023 28.6088 31.0023H32.4872C32.8104 31.0023 33.1002 30.8033 33.2163 30.5018L33.9851 28.5043C35.0517 28.2143 36.0742 27.7904 37.0348 27.24L38.9921 28.1094C39.2876 28.2406 39.633 28.1764 39.8616 27.9479L42.6041 25.2053C42.8326 24.9768 42.8968 24.6312 42.7656 24.3357L41.896 22.3777C42.4463 21.4172 42.8701 20.3949 43.1599 19.3292L45.1579 18.5602C45.4595 18.4441 45.6585 18.1543 45.6585 17.8311V13.9525C45.6585 13.6293 45.4595 13.3396 45.1579 13.2234L43.1605 12.4546C42.8705 11.3882 42.4466 10.3656 41.8963 9.40498L42.7656 7.44775C42.8968 7.15234 42.8326 6.80674 42.604 6.57822L39.8614 3.83574C39.633 3.60723 39.2874 3.54287 38.992 3.67422L37.034 4.54385C36.0734 3.99365 35.0512 3.56982 33.9853 3.27988L33.2163 1.28193C33.1002 0.980273 32.8104 0.78125 32.4872 0.78125H28.6088C28.2855 0.78125 27.9958 0.980273 27.8797 1.28184L27.1105 3.27979C26.0447 3.56973 25.0225 3.99355 24.0619 4.54375L22.1039 3.67412C21.8084 3.54277 21.463 3.60713 21.2344 3.83564L18.4919 6.57813C18.2634 6.80664 18.1992 7.15225 18.3304 7.44766L19.1998 9.40547C18.6495 10.3659 18.2257 11.3884 17.9357 12.4544L15.938 13.2234C15.6364 13.3395 15.4374 13.6293 15.4374 13.9525V17.8311C15.4374 18.1543 15.6364 18.4441 15.938 18.5602ZM16.9999 14.489L18.8737 13.7677C19.1142 13.6752 19.2934 13.47 19.353 13.2194C19.635 12.0348 20.1026 10.9068 20.7429 9.86699C20.878 9.64756 20.8962 9.37568 20.7917 9.14023L19.9761 7.30371L21.9599 5.31982L23.7966 6.13555C24.0318 6.24014 24.3039 6.22197 24.5232 6.08682C25.5632 5.44648 26.691 4.97891 27.8755 4.69707C28.126 4.6374 28.3311 4.45811 28.4236 4.21768L29.1451 2.34375H31.9507L32.6721 4.21768C32.7645 4.45811 32.9697 4.6374 33.2202 4.69707C34.4047 4.97891 35.5325 5.44648 36.5725 6.08682C36.792 6.22197 37.0639 6.24014 37.2991 6.13555L39.1358 5.31982L41.1197 7.30371L40.3042 9.13965C40.1997 9.37519 40.2179 9.64707 40.353 9.8665C40.9934 10.9063 41.4611 12.0345 41.743 13.2195C41.8026 13.4701 41.9819 13.6753 42.2224 13.7678L44.0958 14.4889V17.2945L42.2219 18.0158C41.9814 18.1083 41.8021 18.3135 41.7426 18.5641C41.4607 19.7483 40.9931 20.8763 40.3527 21.9163C40.2177 22.1357 40.1995 22.4075 40.304 22.643L41.1198 24.4797L39.136 26.4636L37.3 25.6481C37.0647 25.5436 36.7928 25.5617 36.5732 25.697C35.5335 26.3373 34.4054 26.805 33.2202 27.0869C32.9696 27.1465 32.7644 27.3259 32.672 27.5663L31.9508 29.4397H29.1452L28.4238 27.5658C28.3313 27.3254 28.1262 27.1461 27.8757 27.0864C26.6912 26.8046 25.5633 26.3369 24.5234 25.6967C24.3039 25.5615 24.032 25.5435 23.7968 25.6479L21.96 26.4637L19.9762 24.4798L20.7916 22.6438C20.8961 22.4084 20.8779 22.1365 20.7428 21.9171C20.1025 20.8774 19.6349 19.7493 19.3528 18.564C19.2933 18.3134 19.1139 18.1082 18.8735 18.0157L17 17.2946V14.489H16.9999ZM30.548 23.4372C34.7086 23.4372 38.0935 20.0523 38.0935 15.8918C38.0935 11.7312 34.7087 8.34639 30.548 8.34639C26.3874 8.34639 23.0025 11.7312 23.0025 15.8918C23.0025 20.0523 26.3874 23.4372 30.548 23.4372ZM26.6889 20.4586C27.0637 18.6476 28.6594 17.3254 30.548 17.3254C32.4369 17.3254 34.0325 18.6476 34.4073 20.4586C33.3646 21.3411 32.0179 21.8747 30.548 21.8747C29.0782 21.8747 27.7314 21.341 26.6889 20.4586ZM30.5481 15.7629C29.662 15.7629 28.9411 15.042 28.9411 14.1559C28.9411 13.2697 29.662 12.5488 30.5481 12.5488C31.4342 12.5488 32.1551 13.2697 32.1551 14.1559C32.1551 15.042 31.4342 15.7629 30.5481 15.7629ZM30.548 9.90889C33.8471 9.90889 36.531 12.5928 36.531 15.8918C36.531 17.0653 36.1901 18.1601 35.604 19.0848C35.0713 17.8452 34.1013 16.8521 32.8938 16.2852C33.4055 15.7221 33.7176 14.9747 33.7176 14.1559C33.7176 12.4082 32.2957 10.9863 30.5481 10.9863C28.8005 10.9863 27.3786 12.4082 27.3786 14.1559C27.3786 14.9747 27.6908 15.7221 28.2023 16.2852C26.9949 16.8521 26.0248 17.8452 25.4921 19.0848C24.9059 18.1601 24.565 17.0653 24.565 15.8918C24.565 12.5928 27.2489 9.90889 30.548 9.90889Z" fill="#00A63F"/>
</g>
</g>
<defs>
<clipPath id="clip0_810_12237">
<rect width="50" height="50" fill="white"/>
</clipPath>
<clipPath id="clip1_810_12237">
<rect width="50" height="50" fill="white" transform="translate(-0.5)"/>
</clipPath>
</defs>
</svg>
