<svg width="80" height="80" viewBox="0 0 80 80" fill="none" xmlns="http://www.w3.org/2000/svg">
<path d="M60.8446 19.2001L53.8962 15.5381C53.6146 15.3503 53.239 15.4442 52.9573 15.5381C52.6756 15.7259 52.4878 16.0076 52.4878 16.3832V23.6132C52.4878 23.8949 52.6756 24.2705 52.9573 24.4583C53.239 24.6461 53.6146 24.6461 53.8962 24.4583L60.8446 20.7963C61.1263 20.6085 61.3141 20.3268 61.3141 19.9513C61.3141 19.6696 61.1263 19.3879 60.8446 19.2001ZM54.4596 22.1109V17.9794L58.4033 20.0452L54.4596 22.1109Z" fill="#03A84E"/>
<path d="M21.5962 34.3193H22.1596C22.723 34.3193 23.0985 33.9438 23.0985 33.3804C23.0985 32.817 22.723 32.4414 22.1596 32.4414H21.5962C21.0328 32.4414 20.6572 32.817 20.6572 33.3804C20.6572 33.9438 21.0328 34.3193 21.5962 34.3193Z" fill="#03A84E"/>
<path d="M67.606 48.4022H52.3008L45.4463 42.1111C45.1647 41.8294 44.7891 41.8294 44.4135 41.9233C44.0379 42.1111 43.8501 42.3928 43.8501 42.7684V67.4632C43.8501 68.8717 44.9769 69.9985 46.2914 69.9985H67.606C68.9205 69.9985 70.0473 68.8717 70.0473 67.4632V51.0313C70.0473 49.6229 68.9205 48.4022 67.606 48.4022ZM68.1693 67.5571C68.1693 67.9327 67.8877 68.2144 67.606 68.2144H46.2914C46.0097 68.2144 45.728 67.9327 45.728 67.5571V45.0219L51.2679 50.0924C51.4557 50.2802 51.6435 50.374 51.9252 50.374H67.606C67.8877 50.374 68.1693 50.6557 68.1693 51.0313V67.5571Z" fill="#03A84E"/>
<path d="M67.606 10H46.2914C44.9769 10 43.8501 11.1268 43.8501 12.5352V37.23C43.8501 37.6056 44.0379 37.9812 44.4135 38.0751C44.7891 38.2629 45.1647 38.169 45.4463 37.8873L52.3008 31.5962H67.606C68.9205 31.5962 70.0473 30.4695 70.0473 29.061V12.5352C70.0473 11.1268 68.9205 10 67.606 10ZM68.1693 29.061C68.1693 29.4366 67.8877 29.7183 67.606 29.7183H51.9252C51.6435 29.7183 51.4557 29.8122 51.2679 30L45.728 35.0704V12.5352C45.728 12.1596 46.0097 11.8779 46.2914 11.8779H67.606C67.8877 11.8779 68.1693 12.1596 68.1693 12.5352V29.061Z" fill="#03A84E"/>
<path d="M41.0329 33.3799L37.4649 32.2531V25.5864C37.4649 25.3047 37.2771 25.0231 37.0893 24.8353C36.8076 24.6475 36.5259 24.6475 36.2442 24.7414L24.7888 29.5301H14.7419C14.5541 29.5301 12.1127 30.1874 10.6104 30.563C10.2348 30.6569 9.95312 31.0324 9.95312 31.5019V42.1123C9.95312 42.5817 10.2348 42.9573 10.6104 43.0512L14.4602 44.0841H14.7419H16.6198L18.7794 54.8822C18.8733 55.3517 19.2489 55.6334 19.7184 55.6334H24.601C24.8827 55.6334 25.1644 55.5395 25.3522 55.2578C25.54 55.07 25.6339 54.7883 25.54 54.5066L23.4743 44.0841H24.6949L36.1503 48.8728C36.432 48.9667 36.8076 48.9667 36.9954 48.7789C37.2771 48.5911 37.371 48.3094 37.371 48.0277V41.3611L40.939 40.2343C41.3146 40.1404 41.5963 39.7648 41.5963 39.2954V34.4127C41.5963 33.8493 41.4085 33.4738 41.0329 33.3799ZM11.8311 32.1592L13.8029 31.5958V41.8306L11.8311 41.2672V32.1592ZM15.6808 37.8869H19.4367C20.0001 37.8869 20.3757 37.5113 20.3757 36.9479C20.3757 36.3846 20.0001 36.009 19.4367 36.009H15.6808V34.3188H18.4977C19.0611 34.3188 19.4367 33.9432 19.4367 33.3799C19.4367 32.8165 19.0611 32.4409 18.4977 32.4409H15.6808V31.3141H23.9437V42.1123C23.662 42.1123 15.2113 42.1123 15.6808 42.1123V37.8869ZM23.4743 53.6615H20.5635L18.5916 43.9902H21.5024L23.4743 53.6615ZM35.5869 46.5254L25.8217 42.3939V31.0324L35.5869 26.901V46.5254ZM39.7184 38.4503L37.371 39.2015V34.131L39.7184 34.8822V38.4503Z" fill="#03A84E"/>
<path d="M63.38 57.8853L62.6288 58.6364L57.6523 53.6599L58.4035 52.9087C58.7791 52.5332 58.7791 51.9698 58.4035 51.5942C58.0279 51.2186 57.4645 51.2186 57.0889 51.5942L49.2016 59.4815C48.826 59.8571 48.826 60.4205 49.2016 60.7961C49.5772 61.1717 50.1406 61.1717 50.5162 60.7961L51.2673 60.0449L56.2439 65.0214L55.4927 65.7726C55.1171 66.1482 55.1171 66.7116 55.4927 67.0871C55.8683 67.4627 56.4317 67.4627 56.8072 67.0871L64.6946 59.1998C65.0702 58.8242 65.0702 58.2609 64.6946 57.8853C64.319 57.5097 63.7556 57.5097 63.38 57.8853ZM52.5819 58.7303L56.2439 55.0684L61.2204 60.0449L57.5584 63.7069L52.5819 58.7303Z" fill="#03A84E"/>
</svg>
