<svg width="93" height="93" viewBox="0 0 93 93" fill="none" xmlns="http://www.w3.org/2000/svg">
<g filter="url(#filter0_d_189_582)">
<circle cx="46.5" cy="42.5" r="42.5" fill="white"/>
<path d="M51.3002 39.8L35.7002 41.6V53L51.3002 53.6V39.8Z" fill="white"/>
<path d="M58.688 64.9999C58.6316 64.9999 58.5758 64.9945 58.5212 64.9849L27.5834 59.3599C27.3671 59.321 27.1713 59.2073 27.0305 59.0385C26.8896 58.8698 26.8126 58.6569 26.813 58.4371V35.9371C26.8126 35.7173 26.8896 35.5044 27.0305 35.3357C27.1713 35.167 27.3671 35.0532 27.5834 35.0143L58.5212 29.3893C58.6628 29.3652 58.8079 29.3721 58.9466 29.4097L65.5088 31.2847C65.9102 31.4011 66.1874 31.7683 66.1874 32.1865V62.1865C66.1874 62.6047 65.9096 62.9719 65.507 63.0883L58.9448 64.9633C58.8613 64.9874 58.7748 64.9993 58.688 64.9987V64.9999ZM28.688 57.6553L58.6412 63.1021L64.313 61.4821V32.8945L58.6412 31.2745L28.688 36.7195V57.6553ZM52.1252 55.6249C52.0907 55.625 52.0563 55.6232 52.022 55.6195L35.147 53.7445C34.9174 53.7195 34.7052 53.6105 34.5512 53.4385C34.3971 53.2665 34.3121 53.0436 34.3124 52.8127V41.5627C34.3121 41.3318 34.3971 41.1089 34.5512 40.9369C34.7052 40.7649 34.9174 40.6559 35.147 40.6309L52.022 38.7559C52.2902 38.7259 52.5524 38.8105 52.7516 38.9905C52.9508 39.1705 53.0648 39.4219 53.0648 39.6901V54.6901C53.0645 54.8222 53.0365 54.9527 52.9826 55.0732C52.9286 55.1937 52.8499 55.3016 52.7516 55.3897C52.5782 55.5416 52.3557 55.6256 52.1252 55.6261V55.6249ZM36.188 51.9727L51.188 53.6395V40.7335L36.188 42.4003V51.9727Z" fill="black"/>
<path d="M42.7502 53.7499C42.2324 53.7499 41.813 53.3299 41.813 52.8127V41.5627C41.813 41.0455 42.233 40.6255 42.7508 40.6255C43.2686 40.6255 43.6886 41.0455 43.6886 41.5633V52.8133C43.6886 53.3305 43.2686 53.7511 42.7514 53.7511L42.7502 53.7499Z" fill="black"/>
<path d="M52.1252 48.125H35.2502C34.7324 48.125 34.313 47.705 34.313 47.1878C34.313 46.6706 34.733 46.2506 35.2508 46.2506H52.1258C52.643 46.2506 53.0636 46.6706 53.0636 47.1884C53.0636 47.7062 52.6436 48.1262 52.1264 48.1262L52.1252 48.125ZM37.1252 31.25C36.6074 31.25 36.188 30.83 36.188 30.3128V26.5628C36.188 23.4596 38.8838 20 42.7502 20C46.6166 20 49.313 21.9278 49.313 24.6878V28.4378C49.313 28.9556 48.893 29.3756 48.3758 29.3756C47.8586 29.3756 47.4386 28.9556 47.4386 28.4384V24.6884C47.4386 23.033 45.5114 21.8762 42.7514 21.8762C39.8468 21.8762 38.0642 24.6062 38.0642 26.564V30.314C38.0642 30.8318 37.6442 31.2518 37.127 31.2518L37.1252 31.25ZM42.7502 30.3128C42.2324 30.3128 41.813 29.8928 41.813 29.3756C41.813 28.691 41.9258 25.2152 44.1434 23.8838C44.2488 23.8202 44.3658 23.778 44.4876 23.7597C44.6094 23.7414 44.7336 23.7472 44.8531 23.777C44.9726 23.8068 45.085 23.8598 45.184 23.9331C45.283 24.0064 45.3665 24.0986 45.4298 24.2042C45.6962 24.6488 45.5516 25.2242 45.1094 25.4906C44.1326 26.0774 43.688 27.9152 43.688 29.3756C43.688 29.8934 43.268 30.3134 42.7508 30.3134L42.7502 30.3128ZM52.1252 28.4378C52.1024 28.4378 52.0802 28.4378 52.0556 28.436C51.9328 28.4272 51.8129 28.3942 51.7028 28.339C51.5928 28.2838 51.4947 28.2074 51.4142 28.1142C51.3337 28.021 51.2724 27.9128 51.2338 27.7959C51.1952 27.679 51.18 27.5556 51.1892 27.4328C51.2678 26.3156 51.1646 25.0664 50.9678 24.6614C50.5574 24.5642 50.2496 24.1928 50.2496 23.75C50.2496 23.2328 50.6696 22.8128 51.1874 22.8128C51.3966 22.814 51.6033 22.8587 51.7943 22.9439C51.9854 23.0291 52.1567 23.153 52.2974 23.3078C53.1956 24.275 53.1296 26.6096 53.0606 27.5678C53.0234 28.061 52.6124 28.4378 52.1252 28.4378Z" fill="black"/>
</g>
<defs>
<filter id="filter0_d_189_582" x="0" y="0" width="93" height="93" filterUnits="userSpaceOnUse" color-interpolation-filters="sRGB">
<feFlood flood-opacity="0" result="BackgroundImageFix"/>
<feColorMatrix in="SourceAlpha" type="matrix" values="0 0 0 0 0 0 0 0 0 0 0 0 0 0 0 0 0 0 127 0" result="hardAlpha"/>
<feOffset dy="4"/>
<feGaussianBlur stdDeviation="2"/>
<feComposite in2="hardAlpha" operator="out"/>
<feColorMatrix type="matrix" values="0 0 0 0 0 0 0 0 0 0 0 0 0 0 0 0 0 0 0.06 0"/>
<feBlend mode="normal" in2="BackgroundImageFix" result="effect1_dropShadow_189_582"/>
<feBlend mode="normal" in="SourceGraphic" in2="effect1_dropShadow_189_582" result="shape"/>
</filter>
</defs>
</svg>
