<svg width="50" height="50" viewBox="0 0 50 50" fill="none" xmlns="http://www.w3.org/2000/svg">
<g clip-path="url(#clip0_845_25)">
<g clip-path="url(#clip1_845_25)">
<path d="M47.8808 44.702L46.1733 37.209C46.0815 36.8137 45.7694 36.5262 45.4022 36.5262H44.1813C44.0345 36.5262 43.8968 36.4723 43.7958 36.3645L39.7017 32.1418L40.2065 35.9422C40.2524 36.2387 39.9954 36.5352 39.6741 36.5262H31.5501C31.1829 36.5262 30.8708 36.8047 30.779 37.209L29.0899 44.702C29.0165 45.0074 29.0899 45.3219 29.2735 45.5465C29.3561 45.6543 29.5489 45.834 29.8518 45.834H47.1188C47.6696 45.834 48.0093 45.2141 47.8808 44.702ZM38.9765 44.8457H36.6265C36.3327 44.8457 36.094 44.6121 36.094 44.3246V38.4938C36.094 38.2063 36.3327 37.9727 36.6265 37.9727H38.9765C40.1331 37.9637 40.9776 38.9699 40.8675 40.075C40.8675 40.6051 40.6472 41.0723 40.2891 41.4137C41.5009 42.5457 40.7757 44.8637 38.9765 44.8457ZM29.1817 39.4551C28.6493 39.6078 28.1169 39.7246 27.5753 39.8235C29.2001 38.1973 30.4852 35.1516 31.1462 31.3063C35.0751 30.6504 38.1962 29.3926 39.8485 27.8114C39.7017 28.611 39.4905 29.4016 39.2151 30.1742C38.8479 29.9856 38.3706 30.291 38.4349 30.7043L38.5634 31.6836C37.8749 33.0852 36.9569 34.3699 35.8462 35.502H31.5593C30.6964 35.502 29.9528 36.1219 29.7509 37.0024L29.1817 39.4551ZM30.0446 31.468C27.8415 42.8692 21.8563 42.8602 19.6532 31.468C22.8569 31.9082 26.8409 31.9082 30.0446 31.468ZM18.5425 31.3063C19.2126 35.1516 20.4977 38.2063 22.1225 39.8324C15.8895 38.7274 10.96 33.9028 9.83095 27.8024C11.4833 29.3926 14.6044 30.6504 18.5425 31.3063ZM18.3772 20.0489C18.1569 21.6391 18.0376 23.3461 18.0376 25.134C18.0376 26.9219 18.1569 28.6289 18.3772 30.2192C6.72821 28.0539 6.73739 22.2141 18.3772 20.0489ZM31.3206 30.2192C31.7704 27.0746 31.7704 23.1934 31.3206 20.0489C36.7274 21.0282 40.0505 23.0496 40.1056 25.134C40.0321 27.2723 36.7091 29.2309 31.3206 30.2192ZM31.1554 18.9617C30.4852 15.1164 29.2093 12.0707 27.5845 10.4446C33.8175 11.5496 38.7378 16.3653 39.8669 22.4657C38.1962 20.8664 35.0843 19.6176 31.1554 18.9617ZM30.219 19.8692C30.4577 21.4684 30.5954 23.2293 30.5954 25.125C30.5954 27.0207 30.4577 28.7817 30.219 30.3899C27.0153 30.875 22.6733 30.866 19.4696 30.3899C18.9739 27.2543 18.9739 23.0047 19.4696 19.8692C22.6733 19.393 27.0153 19.393 30.219 19.8692ZM19.6532 18.8C21.8839 7.40784 27.8048 7.3719 30.0446 18.8C26.8409 18.3598 22.8569 18.3598 19.6532 18.8ZM19.2401 14.8918L20.1489 10.9207C20.7915 10.7141 21.4433 10.5614 22.1134 10.4446C20.4886 12.0707 19.2126 15.1164 18.5425 18.9528C14.6044 19.6086 11.4833 20.8664 9.82177 22.4657C9.86767 22.2321 9.91356 21.9985 9.96864 21.7739C10.2991 21.7918 10.602 21.5223 10.547 21.1809C10.5011 20.8664 10.4643 20.543 10.4276 20.2196C10.905 18.8629 11.5843 17.5692 12.4655 16.3832H17.4317C18.3038 16.3922 19.0382 15.7723 19.2401 14.8918ZM3.58876 15.35H4.80966C4.95653 15.35 5.09423 15.4039 5.19521 15.5117L9.28017 19.7344C9.11493 18.4856 8.94052 17.2008 8.77528 15.934C8.72938 15.6285 8.98642 15.341 9.30771 15.341H17.4317C17.7897 15.341 18.1018 15.0625 18.1936 14.6582C18.1936 14.6492 19.9011 7.16526 19.9011 7.15628C19.9745 6.85979 19.9011 6.54534 19.7175 6.32073C19.6349 6.21292 19.4421 6.02425 19.1392 6.02425H1.88134C1.23876 6.07815 1.01845 6.63519 1.11024 7.15628L2.82685 14.6582C2.91864 15.0625 3.23075 15.35 3.58876 15.35ZM7.52685 13.4992L9.73915 7.66839C9.8952 7.22815 10.5837 7.21917 10.7397 7.66839L12.952 13.4992C13.053 13.7688 12.9153 14.0742 12.6399 14.1731C12.3645 14.2719 12.0616 14.1371 11.9515 13.8676L10.9784 11.2891H9.50966L8.52743 13.8676C8.2704 14.4965 7.27899 14.1461 7.52685 13.4992ZM39.8026 42.7344C39.8669 43.2645 39.564 43.7946 38.9765 43.7946H37.1589V41.9258H38.9765C39.4354 41.9258 39.8026 42.2852 39.8026 42.7344ZM39.8026 39.8235C39.8669 40.3535 39.564 40.8836 38.9765 40.8836H37.1589V39.0059H38.9765C39.4354 39.0059 39.8026 39.3742 39.8026 39.8235ZM10.5837 10.2469H9.90438L10.244 9.35745L10.5837 10.2469ZM28.9431 5.67386C28.6493 5.4762 28.6493 5.018 28.9431 4.82034L31.7612 2.85276C32.3304 2.45745 32.9454 3.30198 32.3854 3.70628L31.0452 4.64964H46.3018C46.5956 4.64964 46.8343 4.88323 46.8343 5.17073V29.0782C46.8343 29.3657 46.5956 29.5992 46.3018 29.5992C46.0081 29.5992 45.7694 29.3657 45.7694 29.0782V5.68284H30.8065L32.3854 6.78792C32.9546 7.19222 32.3304 8.02776 31.7612 7.64143L28.9431 5.67386ZM20.1765 44.3246C20.4702 44.5223 20.4702 44.9805 20.1765 45.1782L17.3583 47.1457C16.7891 47.541 16.1741 46.6965 16.7341 46.2922L18.0743 45.3489H2.82685C2.5331 45.3489 2.29442 45.1153 2.29442 44.8278V20.9293C2.29442 20.6418 2.5331 20.4082 2.82685 20.4082C3.1206 20.4082 3.35927 20.6418 3.35927 20.9293V44.3157H18.313L16.7341 43.2106C16.1649 42.8063 16.7891 41.9707 17.3583 42.3571L20.1765 44.3246Z" fill="#00A63F"/>
</g>
</g>
<defs>
<clipPath id="clip0_845_25">
<rect width="46" height="46" fill="white" transform="translate(2 2)"/>
</clipPath>
<clipPath id="clip1_845_25">
<rect width="47" height="46" fill="white" transform="translate(1 2)"/>
</clipPath>
</defs>
</svg>
