<svg width="45" height="46" viewBox="0 0 45 46" fill="none" xmlns="http://www.w3.org/2000/svg">
<g clip-path="url(#clip0_12_2664)">
<g clip-path="url(#clip1_12_2664)">
<mask id="mask0_12_2664" style="mask-type:luminance" maskUnits="userSpaceOnUse" x="1" y="2" width="43" height="42">
<path d="M43.2 2.17993H1.79999V43.5799H43.2V2.17993Z" fill="white"/>
</mask>
<g mask="url(#mask0_12_2664)">
<mask id="mask1_12_2664" style="mask-type:luminance" maskUnits="userSpaceOnUse" x="0" y="2" width="44" height="42">
<path d="M43.2 2.17993H0.899963V43.5799H43.2V2.17993Z" fill="white"/>
</mask>
<g mask="url(#mask1_12_2664)">
<path d="M43.0927 40.6118L41.5559 33.8681C41.4733 33.5123 41.1924 33.2536 40.8619 33.2536H39.7631C39.631 33.2536 39.5071 33.2051 39.4162 33.108L35.7315 29.3076L36.1858 32.728C36.2271 32.9948 35.9958 33.2617 35.7066 33.2536H28.3951C28.0646 33.2536 27.7837 33.5042 27.7011 33.8681L26.1809 40.6118C26.1148 40.8866 26.1809 41.1697 26.3461 41.3718C26.4205 41.4689 26.594 41.6306 26.8666 41.6306H42.4069C42.9026 41.6306 43.2083 41.0727 43.0927 40.6118ZM35.0788 40.7411H32.9638C32.6994 40.7411 32.4846 40.5309 32.4846 40.2721V35.0244C32.4846 34.7657 32.6994 34.5554 32.9638 34.5554H35.0788C36.1198 34.5473 36.8798 35.4529 36.7807 36.4475C36.7807 36.9246 36.5824 37.3451 36.2602 37.6523C37.3508 38.6711 36.6981 40.7573 35.0788 40.7411ZM26.2635 35.8896C25.7843 36.027 25.3052 36.1321 24.8177 36.2211C26.2801 34.7576 27.4366 32.0164 28.0315 28.5557C31.5676 27.9653 34.3765 26.8333 35.8636 25.4102C35.7315 26.1299 35.5414 26.8414 35.2936 27.5368C34.9631 27.367 34.5335 27.6419 34.5914 28.0139L34.707 28.8952C34.0874 30.1567 33.2612 31.3129 32.2615 32.3318H28.4033C27.6267 32.3318 26.9575 32.8897 26.7758 33.6821L26.2635 35.8896ZM27.0401 28.7012C25.0573 38.9623 19.6706 38.9542 17.6878 28.7012C20.5712 29.0974 24.1568 29.0974 27.0401 28.7012ZM16.6882 28.5557C17.2913 32.0164 18.4479 34.7657 19.9102 36.2291C14.3005 35.2346 9.86397 30.8925 8.84782 25.4021C10.3349 26.8333 13.1439 27.9653 16.6882 28.5557ZM16.5394 18.424C16.3412 19.8552 16.2338 21.3915 16.2338 23.0006C16.2338 24.6097 16.3412 26.146 16.5394 27.5773C6.05535 25.6285 6.06362 20.3727 16.5394 18.424ZM28.1885 27.5773C28.5933 24.7471 28.5933 21.254 28.1885 18.424C33.0546 19.3054 36.0454 21.1246 36.095 23.0006C36.0289 24.9251 33.0382 26.6878 28.1885 27.5773ZM28.0398 17.4455C27.4366 13.9847 26.2883 11.2436 24.826 9.78012C30.4357 10.7746 34.864 15.1088 35.8802 20.5991C34.3765 19.1597 31.5758 18.0358 28.0398 17.4455ZM27.1971 18.2623C27.4119 19.7015 27.5358 21.2864 27.5358 22.9925C27.5358 24.6986 27.4119 26.2835 27.1971 27.7309C24.3137 28.1675 20.4059 28.1594 17.5226 27.7309C17.0765 24.9089 17.0765 21.0842 17.5226 18.2623C20.4059 17.8337 24.3137 17.8337 27.1971 18.2623ZM17.6878 17.3C19.6955 7.04704 25.0243 7.01469 27.0401 17.3C24.1568 16.9038 20.5712 16.9038 17.6878 17.3ZM17.3161 13.7826L18.134 10.2086C18.7123 10.0227 19.2989 9.88524 19.902 9.78012C18.4397 11.2436 17.2913 13.9847 16.6882 17.4375C13.1439 18.0277 10.3349 19.1597 8.83956 20.5991C8.88087 20.3889 8.92217 20.1786 8.97174 19.9765C9.26916 19.9926 9.54177 19.7501 9.49226 19.4428C9.45095 19.1597 9.41784 18.8687 9.3848 18.5776C9.81446 17.3566 10.4258 16.1923 11.2189 15.1249H15.6885C16.4734 15.133 17.1343 14.5751 17.3161 13.7826ZM3.22985 14.195H4.32866C4.46084 14.195 4.58477 14.2435 4.67565 14.3405L8.35212 18.1409C8.2034 17.017 8.04643 15.8607 7.89772 14.7206C7.85641 14.4456 8.08774 14.1869 8.3769 14.1869H15.6885C16.0107 14.1869 16.2916 13.9362 16.3742 13.5724C16.3742 13.5643 17.911 6.82872 17.911 6.82063C17.977 6.55379 17.911 6.27079 17.7457 6.06864C17.6714 5.97161 17.4979 5.80181 17.2252 5.80181H1.69317C1.11485 5.85032 0.91657 6.35165 0.999181 6.82063L2.54413 13.5724C2.62674 13.9362 2.90764 14.195 3.22985 14.195ZM6.77413 12.5293L8.7652 7.28153C8.90564 6.88532 9.5253 6.87724 9.6657 7.28153L11.6568 12.5293C11.7477 12.7719 11.6237 13.0468 11.3759 13.1358C11.128 13.2247 10.8554 13.1034 10.7563 12.8608L9.88052 10.5402H8.55866L7.67465 12.8608C7.44332 13.4268 6.55106 13.1115 6.77413 12.5293ZM35.8223 38.8409C35.8802 39.318 35.6076 39.7951 35.0788 39.7951H33.443V38.1132H35.0788C35.4918 38.1132 35.8223 38.4367 35.8223 38.8409ZM35.8223 36.2211C35.8802 36.6981 35.6076 37.1752 35.0788 37.1752H33.443V35.4853H35.0788C35.4918 35.4853 35.8223 35.8168 35.8223 36.2211ZM9.5253 9.60219H8.91391L9.21957 8.80169L9.5253 9.60219ZM26.0488 5.48646C25.7843 5.30856 25.7843 4.89618 26.0488 4.71829L28.585 2.94747C29.0973 2.59169 29.6508 3.35176 29.1468 3.71563L27.9406 4.56466H41.6716C41.936 4.56466 42.1508 4.77489 42.1508 5.03364V26.5504C42.1508 26.8091 41.936 27.0193 41.6716 27.0193C41.4073 27.0193 41.1924 26.8091 41.1924 26.5504V5.49454H27.7258L29.1468 6.48911C29.6591 6.85298 29.0973 7.60497 28.585 7.25727L26.0488 5.48646ZM18.1588 40.2721C18.4231 40.4501 18.4231 40.8624 18.1588 41.0404L15.6224 42.8111C15.1102 43.1669 14.5567 42.4068 15.0607 42.043L16.2668 41.194H2.54413C2.27975 41.194 2.06494 40.9838 2.06494 40.725V19.2164C2.06494 18.9576 2.27975 18.7474 2.54413 18.7474C2.8085 18.7474 3.02331 18.9576 3.02331 19.2164V40.2641H16.4817L15.0607 39.2695C14.5484 38.9057 15.1102 38.1536 15.6224 38.5014L18.1588 40.2721Z" fill="#00A63F"/>
</g>
</g>
</g>
</g>
<defs>
<clipPath id="clip0_12_2664">
<rect width="45" height="45" fill="white" transform="translate(0 0.379883)"/>
</clipPath>
<clipPath id="clip1_12_2664">
<rect width="45" height="45" fill="white" transform="translate(0 0.379883)"/>
</clipPath>
</defs>
</svg>
