<svg width="50" height="50" viewBox="0 0 50 50" fill="none" xmlns="http://www.w3.org/2000/svg">
<g clip-path="url(#clip0_809_12208)">
<path d="M46.1601 28.34C46.1601 34.1256 43.907 39.5648 39.816 43.6559C35.725 47.7469 30.2857 49.9999 24.5002 49.9999C18.7146 49.9999 13.2754 47.7469 9.18437 43.6559C5.09336 39.5648 2.84033 34.1256 2.84033 28.34C2.84033 24.4708 3.87344 20.6729 5.82812 17.3568C7.72451 14.1396 10.4354 11.4506 13.6676 9.58047C14.4143 9.14814 15.3704 9.40332 15.8024 10.1504C16.2347 10.8973 15.9795 11.8532 15.2325 12.2853C9.97061 15.3297 6.5459 20.7849 6.03438 26.7774H7.76191C8.6249 26.7774 9.32441 27.477 9.32441 28.3399C9.32441 29.2029 8.6249 29.9024 7.76191 29.9024H6.03184C6.78477 38.8788 13.9614 46.0555 22.9377 46.8084V45.0782C22.9377 44.2152 23.6372 43.5157 24.5002 43.5157C25.3632 43.5157 26.0627 44.2152 26.0627 45.0782V46.8084C35.039 46.0555 42.2156 38.8788 42.9686 29.9025H41.2384C40.3754 29.9025 39.6759 29.203 39.6759 28.34C39.6759 27.4771 40.3754 26.7775 41.2384 26.7775H42.9659C42.4544 20.785 39.0297 15.3296 33.7677 12.2854C33.0208 11.8532 32.7655 10.8975 33.1978 10.1505C33.6299 9.40361 34.5858 9.14844 35.3326 9.58057C38.5648 11.4505 41.2757 14.1396 43.1722 17.3569C45.1269 20.6729 46.1601 24.4708 46.1601 28.34ZM21.4361 6.83613L22.9263 5.346L22.9011 12.3674C22.898 13.2304 23.595 13.9323 24.4579 13.9355H24.4637C25.324 13.9355 26.0229 13.2396 26.0261 12.3787L26.0514 5.32324L27.5643 6.83613C27.8693 7.14121 28.2692 7.29385 28.669 7.29385C29.0688 7.29385 29.4688 7.14121 29.7738 6.83613C30.384 6.22598 30.384 5.23662 29.7738 4.62646L25.605 0.457617C24.9948 -0.152539 24.0055 -0.152539 23.3953 0.457617L19.2265 4.62646C18.6163 5.23662 18.6163 6.22598 19.2265 6.83613C19.8366 7.44629 20.826 7.44629 21.4361 6.83613ZM26.0627 17.0271V23.3384C27.6975 23.8501 28.9901 25.1429 29.502 26.7775H34.4329C35.2959 26.7775 35.9954 27.4771 35.9954 28.34C35.9954 29.203 35.2959 29.9025 34.4329 29.9025H29.502C28.8356 32.031 26.8455 33.5798 24.5002 33.5798C21.611 33.5798 19.2605 31.2293 19.2605 28.34C19.2605 25.9948 20.8094 24.0047 22.9377 23.3384V17.0271C22.9377 16.1641 23.6372 15.4646 24.5002 15.4646C25.3632 15.4646 26.0627 16.1641 26.0627 17.0271ZM26.6149 28.34C26.6149 27.174 25.6662 26.2254 24.5002 26.2254C23.3342 26.2254 22.3855 27.174 22.3855 28.34C22.3855 29.5061 23.3342 30.4548 24.5002 30.4548C25.6662 30.4548 26.6149 29.5062 26.6149 28.34Z" fill="#00A63F"/>
</g>
<defs>
<clipPath id="clip0_809_12208">
<rect width="50" height="50" fill="white"/>
</clipPath>
</defs>
</svg>
