<svg xmlns="http://www.w3.org/2000/svg" width="40" height="40" viewBox="0 0 40 40" fill="none" class="svg replaced-svg">
<g clip-path="url(#clip0_815_16377)">
<path fill-rule="evenodd" clip-rule="evenodd" d="M15.296 31.4316C7.12365 31.2895 0.548828 24.6265 0.548828 16.4201C0.548828 8.1246 7.2671 1.40625 15.5626 1.40625C23.8582 1.40625 30.5764 8.1246 30.5764 16.4201C30.5764 17.9653 30.3432 19.4559 29.9101 20.8585H37.165C37.7712 20.8585 38.3526 21.0993 38.7813 21.528C39.2099 21.9566 39.4508 22.538 39.4508 23.1443V36.3104C39.4508 36.9166 39.2099 37.498 38.7813 37.9267C38.3526 38.3553 37.7712 38.5962 37.165 38.5962H17.5818C16.9757 38.5962 16.3942 38.3553 15.9655 37.9267C15.5369 37.498 15.296 36.9166 15.296 36.3104V31.4316ZM28.5909 20.8585C29.0647 19.4661 29.3215 17.9732 29.3215 16.4201C29.3215 8.81794 23.1648 2.66115 15.5626 2.66115C7.96051 2.66115 1.80373 8.81794 1.80373 16.4201C1.80373 23.9332 7.81706 30.0345 15.296 30.1764V27.2383C9.46271 27.0861 4.78169 22.3106 4.78169 16.4406C4.78169 10.4745 9.61706 5.63911 15.5831 5.63911C21.5492 5.63911 26.3845 10.4745 26.3845 16.4406C26.3845 18.0146 26.0479 19.5099 25.4427 20.8585H28.5909ZM15.296 25.9829V23.1443C15.296 22.538 15.5369 21.9566 15.9655 21.528C16.3942 21.0993 16.9757 20.8585 17.5818 20.8585H20.9194C19.7516 19.1623 17.7969 18.0502 15.5831 18.0502C12.3483 18.0502 9.66616 20.4247 9.18514 23.5263C10.8119 24.9961 12.9474 25.9135 15.296 25.9829ZM22.3884 20.8585H24.0485C24.7393 19.5375 25.1296 18.0347 25.1296 16.4406C25.1296 11.1676 20.856 6.89402 15.5831 6.89402C10.3102 6.89402 6.03659 11.1676 6.03659 16.4406C6.03659 18.7059 6.82538 20.7868 8.14326 22.4236C8.83189 19.984 10.6874 18.0335 13.0683 17.214C12.0348 16.443 11.3627 15.2113 11.3627 13.8297C11.3627 11.5077 13.2611 9.60931 15.5831 9.60931C17.9051 9.60931 19.8036 11.5077 19.8036 13.8297C19.8036 15.2113 19.1315 16.443 18.098 17.2139C19.9433 17.849 21.4731 19.1634 22.3884 20.8585ZM15.5831 16.7953C17.2147 16.7953 18.5487 15.4613 18.5487 13.8297C18.5487 12.1982 17.2147 10.8642 15.5831 10.8642C13.9516 10.8642 12.6176 12.1982 12.6176 13.8297C12.6176 15.4613 13.9516 16.7953 15.5831 16.7953ZM38.1959 23.1443C38.1959 22.8709 38.0873 22.6086 37.8939 22.4153C37.7006 22.2219 37.4384 22.1134 37.165 22.1134H17.5818C17.3084 22.1134 17.0462 22.2219 16.8529 22.4153C16.6596 22.6086 16.5509 22.8709 16.5509 23.1443V36.3104C16.5509 36.5838 16.6596 36.846 16.8529 37.0393C17.0462 37.2327 17.3084 37.3413 17.5818 37.3413H37.165C37.4384 37.3413 37.7006 37.2327 37.8939 37.0393C38.0873 36.846 38.1959 36.5838 38.1959 36.3104V23.1443ZM24.0273 34.6908H18.9986C18.6524 34.6908 18.3712 34.4096 18.3712 34.0633C18.3712 33.717 18.6524 33.4359 18.9986 33.4359H24.0273C24.292 32.6187 25.0599 32.0272 25.9648 32.0272C26.8696 32.0272 27.6374 32.6187 27.9022 33.4359H35.7482C36.0946 33.4359 36.3757 33.717 36.3757 34.0633C36.3757 34.4096 36.0946 34.6908 35.7482 34.6908H27.9022C27.6374 35.5079 26.8696 36.0994 25.9648 36.0994C25.0599 36.0994 24.292 35.5079 24.0273 34.6908ZM26.746 34.0633C26.746 33.6321 26.3959 33.2821 25.9648 33.2821C25.5335 33.2821 25.1835 33.6321 25.1835 34.0633C25.1835 34.4945 25.5335 34.8445 25.9648 34.8445C26.3959 34.8445 26.746 34.4945 26.746 34.0633ZM21.3589 26.0188H18.9986C18.6524 26.0188 18.3712 25.7376 18.3712 25.3913C18.3712 25.045 18.6524 24.7639 18.9986 24.7639H21.3589C21.6237 23.9467 22.3915 23.3552 23.2964 23.3552C24.2012 23.3552 24.9691 23.9467 25.2338 24.7639H35.7482C36.0946 24.7639 36.3757 25.045 36.3757 25.3913C36.3757 25.7376 36.0946 26.0188 35.7482 26.0188H25.2338C24.9691 26.8359 24.2012 27.4275 23.2964 27.4275C22.3915 27.4275 21.6237 26.8359 21.3589 26.0188ZM24.0776 25.3913C24.0776 24.9601 23.7275 24.6101 23.2964 24.6101C22.8651 24.6101 22.5151 24.9601 22.5151 25.3913C22.5151 25.8225 22.8651 26.1726 23.2964 26.1726C23.7275 26.1726 24.0776 25.8225 24.0776 25.3913ZM29.2531 30.3548H18.9986C18.6524 30.3548 18.3712 30.0736 18.3712 29.7273C18.3712 29.381 18.6524 29.0999 18.9986 29.0999H29.2531C29.5179 28.2827 30.2858 27.6912 31.1906 27.6912C32.0955 27.6912 32.8633 28.2827 33.128 29.0999H35.7482C36.0946 29.0999 36.3757 29.381 36.3757 29.7273C36.3757 30.0736 36.0946 30.3548 35.7482 30.3548H33.128C32.8633 31.1719 32.0955 31.7634 31.1906 31.7634C30.2858 31.7634 29.5179 31.1719 29.2531 30.3548ZM31.9718 29.7273C31.9718 29.2961 31.6218 28.9461 31.1906 28.9461C30.7594 28.9461 30.4094 29.2961 30.4094 29.7273C30.4094 30.1585 30.7594 30.5085 31.1906 30.5085C31.6218 30.5085 31.9718 30.1585 31.9718 29.7273Z" fill="#00A63F"></path>
</g>
<defs>
<clipPath id="clip0_815_16377">
<rect width="40" height="40" fill="white"></rect>
</clipPath>
</defs>
</svg>