<svg stroke="#00A51A" fill="none" stroke-width="2" viewBox="0 0 24 24" stroke-linecap="round" stroke-linejoin="round" color="#3c62e9" class="!text-[60px] md:!text-[70px] text-[#3c62e9] group-hover:text-[#0a0ea3] group-hover:mt-[10px] duration-500 group-hover:animate-bounce" height="70px" width="70px" xmlns="http://www.w3.org/2000/svg" style="color: rgb(60, 98, 233);"><path stroke="none" d="M0 0h24v24H0z" fill="none"></path><path d="M5 4h4l2 5l-2.5 1.5a11 11 0 0 0 5 5l1.5 -2.5l5 2v4a2 2 0 0 1 -2 2a16 16 0 0 1 -15 -15a2 2 0 0 1 2 -2"></path><path d="M15 7a2 2 0 0 1 2 2"></path><path d="M15 3a6 6 0 0 1 6 6"></path></svg>