<svg xmlns="http://www.w3.org/2000/svg" width="40" height="40" viewBox="0 0 40 40" fill="none" class="svg raid replaced-svg">
<path d="M35.3482 26.6096V5.88086C35.3482 5.39238 35.1542 4.92391 34.8088 4.57851C34.4634 4.23311 33.9949 4.03906 33.5064 4.03906H6.49348C6.005 4.03906 5.53654 4.23311 5.19113 4.57851C4.84573 4.92391 4.65169 5.39238 4.65169 5.88086V26.6096L1.64649 32.6194C1.60401 32.7046 1.58194 32.7986 1.58203 32.8938V34.7356C1.58203 35.0613 1.7114 35.3736 1.94166 35.6038C2.17193 35.8341 2.48424 35.9635 2.80989 35.9635H37.19C37.5157 35.9635 37.828 35.8341 38.0583 35.6038C38.2885 35.3736 38.4179 35.0613 38.4179 34.7356V32.8938C38.4189 32.7988 38.3979 32.7049 38.3565 32.6194L35.3482 26.6096ZM5.87955 5.88086C5.87955 5.71803 5.94423 5.56188 6.05936 5.44674C6.1745 5.33161 6.33065 5.26692 6.49348 5.26692H33.5064C33.6693 5.26692 33.8254 5.33161 33.9406 5.44674C34.0557 5.56188 34.1204 5.71803 34.1204 5.88086V26.1406H5.87955V5.88086ZM5.64503 27.3684H34.3549L36.8106 32.2799H27.1719L26.251 29.9819C26.1605 29.7534 26.0031 29.5575 25.7995 29.4199C25.5959 29.2822 25.3555 29.2091 25.1097 29.2102H14.8902C14.6446 29.2094 14.4044 29.2827 14.201 29.4205C13.9976 29.5582 13.8405 29.7541 13.7501 29.9826L12.8311 32.2799H3.1893L5.64503 27.3684ZM25.847 32.2799H14.1535L14.8902 30.4381H25.1097L25.847 32.2799ZM37.19 34.7356H2.80989V33.5077H37.19V34.7356Z" fill="#00A63F"></path>
<path d="M21.2277 16.9303C21.3905 16.9303 21.5467 16.8656 21.6618 16.7505C21.777 16.6354 21.8416 16.4792 21.8416 16.3164V14.4746H25.5252V16.3164C25.5252 16.4792 25.5899 16.6354 25.705 16.7505C25.8202 16.8656 25.9763 16.9303 26.1391 16.9303C26.302 16.9303 26.4581 16.8656 26.5733 16.7505C26.6884 16.6354 26.7531 16.4792 26.7531 16.3164V12.0189C26.7531 11.2048 26.4297 10.424 25.854 9.8483C25.2783 9.27263 24.4975 8.94922 23.6834 8.94922C22.8693 8.94922 22.0885 9.27263 21.5129 9.8483C20.9372 10.424 20.6138 11.2048 20.6138 12.0189V16.3164C20.6138 16.4792 20.6785 16.6354 20.7936 16.7505C20.9087 16.8656 21.0649 16.9303 21.2277 16.9303ZM21.8416 12.0189C21.8416 11.5304 22.0357 11.0619 22.3811 10.7165C22.7265 10.3711 23.195 10.1771 23.6834 10.1771C24.1719 10.1771 24.6404 10.3711 24.9858 10.7165C25.3312 11.0619 25.5252 11.5304 25.5252 12.0189V13.2467H21.8416V12.0189Z" fill="#00A63F"></path>
<path d="M16.3162 16.9303C16.9177 16.9302 17.5057 16.7523 18.0064 16.4189L18.3379 16.7504C18.4537 16.8623 18.6088 16.9242 18.7698 16.9228C18.9307 16.9214 19.0847 16.8568 19.1985 16.743C19.3124 16.6291 19.3769 16.4752 19.3783 16.3142C19.3797 16.1532 19.3178 15.9981 19.206 15.8823L18.8745 15.5508C19.2078 15.0502 19.3858 14.4621 19.3859 13.8607V12.0189C19.3859 11.2048 19.0625 10.424 18.4868 9.8483C17.9111 9.27263 17.1304 8.94922 16.3162 8.94922C15.5021 8.94922 14.7213 9.27263 14.1457 9.8483C13.57 10.424 13.2466 11.2048 13.2466 12.0189V13.8607C13.2476 14.6745 13.5713 15.4547 14.1467 16.0302C14.7222 16.6056 15.5024 16.9293 16.3162 16.9303ZM14.4744 12.0189C14.4744 11.5304 14.6685 11.0619 15.0139 10.7165C15.3593 10.3711 15.8278 10.1771 16.3162 10.1771C16.8047 10.1771 17.2732 10.3711 17.6186 10.7165C17.964 11.0619 18.158 11.5304 18.158 12.0189V13.8607C18.157 14.1342 18.094 14.4039 17.9739 14.6496L17.3648 14.0405C17.249 13.9287 17.094 13.8668 16.933 13.8682C16.772 13.8696 16.618 13.9342 16.5042 14.048C16.3904 14.1619 16.3258 14.3158 16.3244 14.4768C16.323 14.6378 16.3849 14.7929 16.4967 14.9086L17.1058 15.5177C16.8599 15.6381 16.59 15.7013 16.3162 15.7025C15.8278 15.7025 15.3593 15.5084 15.0139 15.163C14.6685 14.8176 14.4744 14.3491 14.4744 13.8607V12.0189Z" fill="#00A63F"></path>
<path d="M21.4077 18.3364L18.7721 20.972L18.5922 20.7921C18.4764 20.6803 18.3213 20.6184 18.1604 20.6198C17.9994 20.6212 17.8454 20.6858 17.7316 20.7996C17.6177 20.9134 17.5532 21.0674 17.5518 21.2284C17.5504 21.3894 17.6123 21.5444 17.7241 21.6602L18.338 22.2742C18.4532 22.3892 18.6093 22.4539 18.7721 22.4539C18.9349 22.4539 19.091 22.3892 19.2061 22.2742L22.2758 19.2045C22.3876 19.0887 22.4495 18.9336 22.4481 18.7727C22.4467 18.6117 22.3821 18.4577 22.2683 18.3439C22.1545 18.2301 22.0005 18.1655 21.8395 18.1641C21.6786 18.1627 21.5235 18.2246 21.4077 18.3364Z" fill="#00A63F"></path>
</svg>