<svg xmlns="http://www.w3.org/2000/svg" width="41" height="40" viewBox="0 0 41 40" fill="none" class="svg replaced-svg">
<g clip-path="url(#clip0_857_13068)">
<g clip-path="url(#clip1_857_13068)">
<path d="M11.3036 32.2214C11.3036 31.4359 10.6647 30.7969 9.8794 30.7969C9.09408 30.7969 8.45508 31.4359 8.45508 32.2214C8.45508 33.0069 9.09401 33.646 9.8794 33.646C10.6648 33.646 11.3036 33.0069 11.3036 32.2214ZM9.50977 32.2214C9.50977 32.0175 9.67556 31.8516 9.8794 31.8516C10.0832 31.8516 10.249 32.0174 10.249 32.2214C10.249 32.4254 10.0832 32.5913 9.8794 32.5913C9.67563 32.5913 9.50977 32.4253 9.50977 32.2214Z" fill="#00A63F"></path>
<path d="M30.1206 30.7969C29.3352 30.7969 28.6963 31.4359 28.6963 32.2214C28.6963 33.0069 29.3352 33.646 30.1206 33.646C30.906 33.646 31.5449 33.0069 31.5449 32.2214C31.5449 31.4359 30.9059 30.7969 30.1206 30.7969ZM30.1206 32.5913C29.9168 32.5913 29.751 32.4254 29.751 32.2214C29.751 32.0174 29.9168 31.8516 30.1206 31.8516C30.3244 31.8516 30.4902 32.0174 30.4902 32.2214C30.4902 32.4254 30.3244 32.5913 30.1206 32.5913Z" fill="#00A63F"></path>
<path d="M37.0799 35.0683H36.735V29.4109C36.735 28.7767 36.3112 28.2404 35.7321 28.0685V27.9026C35.7321 27.212 35.4505 26.5375 34.9598 26.0522C34.6212 25.7173 34.1974 25.4819 33.7345 25.3715L31.888 24.9313V24.0394C32.5371 24.1337 33.1785 24.2802 33.8005 24.4779C33.879 24.5021 33.9594 24.5144 34.0395 24.5144C34.388 24.5144 34.695 24.288 34.7862 23.964L35.2559 22.295C35.6811 20.783 35.5226 19.1674 34.8098 17.7459C34.4004 16.9282 33.7387 16.2397 32.8963 15.7548C32.0625 15.2751 31.0949 15.0218 30.1041 15.0234C29.1233 15.0277 28.1695 15.2803 27.3444 15.7549C26.5022 16.2398 25.8406 16.9282 25.4312 17.7457C24.7182 19.1675 24.5598 20.7831 24.9849 22.2951L25.4547 23.9639C25.5668 24.3624 26.0018 24.6132 26.4446 24.4765C27.0631 24.28 27.7041 24.1336 28.3531 24.0394V24.9313L26.5067 25.3715C26.0436 25.4819 25.6199 25.7173 25.2812 26.0522C24.7905 26.5375 24.5091 27.212 24.5091 27.9026V28.0685C23.93 28.2403 23.506 28.7766 23.506 29.4109V31.8264H21.5975C21.4116 31.3483 21.0176 30.9736 20.5273 30.8144V27.1642C20.5273 26.8729 20.2913 26.6369 20 26.6369C19.7088 26.6369 19.4727 26.8729 19.4727 27.1642V30.8145C18.9822 30.9737 18.5882 31.3483 18.4023 31.8264H16.494V29.3813C16.494 28.753 16.0686 28.2233 15.491 28.0619V27.9027C15.491 27.2121 15.2095 26.5377 14.7188 26.0523C14.3801 25.7173 13.9564 25.482 13.4935 25.3716L11.647 24.9313V24.0237C12.0012 23.7553 12.281 23.4095 12.4642 23.0206C13.7144 22.2102 14.4582 20.8792 14.4582 19.4413C14.4582 17.0503 12.4042 15.1051 9.87957 15.1051C7.35486 15.1051 5.30089 17.0503 5.30089 19.4413C5.30089 20.8808 6.04416 22.2104 7.29502 23.0209C7.47826 23.4096 7.75789 23.7553 8.11205 24.0237V24.9313L6.26565 25.3716C5.80264 25.4819 5.37887 25.7173 5.04031 26.0522C4.54953 26.5376 4.268 27.2121 4.268 27.9027V28.0619C3.69045 28.2234 3.26499 28.753 3.26499 29.3813V30.9903C3.26499 31.2816 3.5011 31.5176 3.79234 31.5176C4.08357 31.5176 4.31968 31.2816 4.31968 30.9903V29.3813C4.31968 29.2098 4.46459 29.0649 4.63609 29.0649H15.1228C15.2943 29.0649 15.4393 29.2098 15.4393 29.3813V35.0684H4.31968V33.4512C4.31968 33.1599 4.08357 32.9239 3.79234 32.9239C3.5011 32.9239 3.26499 33.1599 3.26499 33.4512V35.0684H2.92011C2.41273 35.0683 2 35.4811 2 35.9885V36.5834C2 37.3651 2.63598 38.0011 3.41771 38.0011H16.3413C17.123 38.0011 17.759 37.3651 17.759 36.5834V35.9885C17.759 35.4811 17.3463 35.0683 16.8389 35.0683H16.494V32.8811H18.3418C18.5345 33.6174 19.205 34.1622 20.0003 34.1622C20.7953 34.1622 21.4655 33.6174 21.6581 32.8811H23.5061V35.0683H23.1612C22.6538 35.0683 22.2411 35.4811 22.2411 35.9885V36.5834C22.2411 37.3651 22.877 38.0011 23.6588 38.0011H36.5824C37.3641 38.0011 38.0001 37.3651 38.0001 36.5834V35.9885C38 35.4811 37.5873 35.0683 37.0799 35.0683ZM16.7042 36.5834C16.7042 36.7802 16.538 36.9464 16.3412 36.9464H3.41771C3.22091 36.9464 3.05469 36.7802 3.05469 36.5834V36.123H16.7042V36.5834ZM11.6685 21.8615C11.6685 22.375 11.4363 22.8505 11.0315 23.1661L10.4675 23.6059C10.1212 23.8757 9.6377 23.8756 9.29162 23.6059L8.7275 23.1661C8.32271 22.8506 8.09054 22.375 8.09054 21.8615V19.7216C8.09054 19.5703 8.1856 19.4856 8.22645 19.4562C8.25662 19.4344 8.32489 19.3942 8.4163 19.3942C8.44829 19.3942 8.48316 19.3991 8.52022 19.4116L9.04419 19.587C9.58285 19.7672 10.1763 19.7674 10.715 19.587L11.2389 19.4116C11.3819 19.3638 11.492 19.4269 11.5328 19.4562C11.5736 19.4855 11.6687 19.5703 11.6687 19.7216V21.8615H11.6685ZM9.16674 25.0414V24.7307C9.39624 24.8179 9.63763 24.8632 9.8795 24.8632C10.1214 24.8632 10.3628 24.818 10.5923 24.7307V25.0414C10.5923 25.2828 10.6854 25.5049 10.8414 25.67C10.2734 26.0977 9.48575 26.0978 8.9177 25.67C9.07358 25.5049 9.16674 25.2827 9.16674 25.0414ZM6.35551 19.4412C6.35551 17.6318 7.93634 16.1597 9.8795 16.1597C11.8226 16.1597 13.4034 17.6318 13.4034 19.4412C13.4034 20.1489 13.1589 20.8233 12.7231 21.3777V19.7217C12.7231 19.2783 12.5084 18.8591 12.1488 18.6002C11.7893 18.3416 11.3241 18.271 10.904 18.4115L10.38 18.5869C10.0572 18.6951 9.70168 18.695 9.37895 18.5869L8.85491 18.4115C8.43486 18.271 7.9696 18.3414 7.61016 18.6002C7.25045 18.8592 7.03578 19.2784 7.03578 19.7217V21.3784C6.59977 20.8242 6.35551 20.1498 6.35551 19.4412ZM5.78197 26.8021C5.9832 26.603 6.23499 26.4631 6.5102 26.3975L7.79305 26.0916L8.12169 26.382C8.62273 26.8246 9.25105 27.0458 9.87943 27.0458C10.5078 27.0458 11.1362 26.8246 11.6372 26.382L11.966 26.0916L13.2488 26.3975C13.5239 26.4631 13.7757 26.6029 13.977 26.802C14.2689 27.0906 14.4362 27.4918 14.4362 27.9025V28.0101H5.32269V27.9025C5.32269 27.4918 5.4901 27.0907 5.78197 26.8021ZM20.0002 33.1075C19.6365 33.1075 19.3405 32.811 19.3405 32.4466C19.3405 32.0822 19.6365 31.7857 20.0002 31.7857C20.3635 31.7857 20.6592 32.0822 20.6592 32.4466C20.6592 32.811 20.3636 33.1075 20.0002 33.1075ZM30.1206 18.5063L31.1144 18.9856C31.5975 19.2185 31.9097 19.7158 31.9097 20.2523V21.8618C31.9097 22.3752 31.6775 22.8506 31.2727 23.1661L30.7085 23.6059C30.3624 23.8756 29.8788 23.8756 29.5328 23.6059L28.9686 23.1661C28.5639 22.8506 28.3317 22.3752 28.3317 21.8618V20.2523C28.3317 19.7158 28.6438 19.2186 29.127 18.9856L30.1206 18.5063ZM29.4078 25.0414V24.7308C29.6374 24.818 29.8788 24.8633 30.1206 24.8633C30.3624 24.8633 30.6038 24.818 30.8334 24.7308V25.0414C30.8334 25.2827 30.9265 25.5049 31.0825 25.67C30.5144 26.0977 29.7267 26.0978 29.1588 25.67C29.3146 25.5049 29.4078 25.2827 29.4078 25.0414ZM33.867 18.2184C34.4619 19.4046 34.5946 20.751 34.2407 22.0093L33.8519 23.3906C33.4626 23.2761 33.0658 23.18 32.6648 23.1019C32.8592 22.7245 32.9643 22.3018 32.9643 21.8618V20.2523C32.9643 19.3134 32.418 18.4433 31.5725 18.0356L30.6479 17.5897V16.109C31.2613 16.1792 31.8487 16.3689 32.3704 16.6689C33.0327 17.0502 33.5502 17.5858 33.867 18.2184ZM26.3891 23.3906L26.0003 22.0093C25.6465 20.751 25.7792 19.4047 26.3742 18.218C26.6909 17.5858 27.2083 17.0501 27.8704 16.6689C28.3923 16.3688 28.9798 16.1791 29.5932 16.1089V17.5897L28.6688 18.0355C27.8233 18.4433 27.2769 19.3134 27.2769 20.2522V21.8617C27.2769 22.3018 27.382 22.7244 27.5764 23.1018C27.1748 23.18 26.7776 23.2762 26.3891 23.3906ZM26.023 26.8021C26.2243 26.603 26.4761 26.4631 26.7513 26.3975L28.0341 26.0916L28.3628 26.382C28.8638 26.8246 29.4921 27.0458 30.1204 27.0458C30.7487 27.0458 31.3772 26.8246 31.8782 26.382L32.207 26.0916L33.4899 26.3975C33.7649 26.4631 34.0167 26.603 34.218 26.8021C34.5098 27.0907 34.6772 27.4919 34.6772 27.9026V28.0102H25.5638V27.9026C25.5638 27.4918 25.7312 27.0907 26.023 26.8021ZM36.9453 36.5834C36.9453 36.7802 36.7791 36.9464 36.5823 36.9464H23.6587C23.4619 36.9464 23.2957 36.7802 23.2957 36.5834V36.123H32.0523C32.3436 36.123 32.5796 35.887 32.5796 35.5957C32.5796 35.3044 32.3436 35.0683 32.0523 35.0683H24.5608V29.4109C24.5608 29.2233 24.7191 29.0649 24.9065 29.0649H35.3345C35.5219 29.0649 35.6803 29.2233 35.6803 29.4109V35.0683H34.5132C34.2219 35.0683 33.9859 35.3044 33.9859 35.5957C33.9859 35.887 34.2219 36.123 34.5132 36.123H36.9453V36.5834Z" fill="#00A63F"></path>
<path d="M12.877 15.0928H18.3717C18.5422 15.6114 18.9534 16.0213 19.4726 16.1898V24.7022C19.4726 24.9935 19.7087 25.2296 20 25.2296C20.2913 25.2296 20.5273 24.9935 20.5273 24.7022V16.1898C21.0464 16.0214 21.4575 15.6114 21.628 15.0928H26.3469C26.6382 15.0928 26.8742 14.8568 26.8742 14.5655V13.8653H27.8113C28.4796 13.8653 29.0232 13.3216 29.0232 12.6533V6.79067C29.0232 6.18704 28.6575 5.69984 28.1182 5.51049V4.58188C28.1182 4.07563 27.7065 3.66366 27.2005 3.66366H20.5258L19.7906 2.44388C19.6255 2.17009 19.3244 2 19.0048 2H14.5114C14.0053 2 13.5936 2.41189 13.5936 2.91828V4.56423H13.2674C12.7614 4.56423 12.3497 4.98012 12.3497 5.4913V8.84C12.3497 9.1313 12.5858 9.36734 12.877 9.36734C13.1683 9.36734 13.4044 9.1313 13.4044 8.84V5.61891H17.2304L18.2704 7.68709C18.4302 8.02009 18.7708 8.23482 19.1406 8.23482H25.8196V14.0381H21.6333C21.413 13.3453 20.7643 12.842 20.0002 12.842C19.2359 12.842 18.5869 13.3453 18.3664 14.0381H13.4043V11.3009C13.4043 11.0096 13.1682 10.7736 12.877 10.7736C12.5857 10.7736 12.3496 11.0096 12.3496 11.3009V14.5655C12.3496 14.8568 12.5857 15.0928 12.877 15.0928ZM14.6483 4.56423V3.05469H18.9273L19.6625 4.2744C19.8276 4.54827 20.1287 4.71835 20.4483 4.71835H27.0636V5.42436H18.3131L18.1237 5.04784C17.9663 4.75154 17.6512 4.56402 17.3184 4.56423H14.6483ZM19.1959 7.18013L18.8434 6.47905H27.6098C27.7883 6.47905 27.9685 6.57538 27.9685 6.79067V12.6533C27.9685 12.74 27.898 12.8106 27.8114 12.8106H26.8743V8.10713C26.8743 7.59596 26.4626 7.18006 25.9566 7.18006L19.1959 7.18013ZM20.0002 13.8967C20.3635 13.8967 20.6591 14.1932 20.6591 14.5576C20.6591 14.922 20.3635 15.2185 20.0002 15.2185C19.6364 15.2185 19.3405 14.922 19.3405 14.5576C19.3405 14.1932 19.6364 13.8967 20.0002 13.8967Z" fill="#00A63F"></path>
</g>
</g>
<defs>
<clipPath id="clip0_857_13068">
<rect width="40" height="40" fill="white" transform="translate(0.0307617)"></rect>
</clipPath>
<clipPath id="clip1_857_13068">
<rect width="36" height="36" fill="white" transform="translate(2 2)"></rect>
</clipPath>
</defs>
</svg>