<svg xmlns="http://www.w3.org/2000/svg" width="41" height="40" viewBox="0 0 41 40" fill="none" class="svg replaced-svg">
<path d="M3.17334 7.5C2.1454 7.5 1.29834 8.34702 1.29834 9.37496V26.8749C1.29834 27.9029 2.1454 28.75 3.17334 28.75H11.9343C11.9199 28.8688 11.8963 29.0044 11.855 29.1626C11.7087 29.722 11.3506 30.4714 10.4426 31.2488H9.4209C8.58736 31.2488 8.58736 32.4988 9.4209 32.4988H16.9233C17.7569 32.4988 17.7569 31.2488 16.9233 31.2488H12.1711C12.6585 30.6178 12.9283 30.0007 13.0647 29.4787C13.136 29.2057 13.1636 28.9667 13.1782 28.75H16.9233C17.7685 28.7618 17.7685 27.4881 16.9233 27.5H3.17334C2.81629 27.5 2.54834 27.232 2.54834 26.8749V23.75H16.9233C17.7685 23.7618 17.7685 22.4881 16.9233 22.5H2.54834V9.37496C2.54834 9.01789 2.81629 8.75002 3.17334 8.75002H26.9233C27.2804 8.75002 27.5483 9.01789 27.5483 9.37496C27.5368 10.2198 28.8099 10.2198 28.7983 9.37496C28.7983 8.34702 27.9513 7.5 26.9233 7.5H3.17334ZM20.6733 11.2475C19.6454 11.2475 18.7959 12.0983 18.7959 13.1262V30.6262C18.7959 31.6541 19.6454 32.4988 20.6733 32.4988H28.1709C29.0044 32.4988 29.0044 31.2488 28.1709 31.2488H20.6733C20.3163 31.2488 20.0459 30.9833 20.0459 30.6262V27.5024H28.1709C29.0044 27.5024 29.0044 26.2524 28.1709 26.2524H20.0459V14.9987H32.5496V16.8774C32.5496 17.7109 33.7996 17.7109 33.7996 16.8774V13.1262C33.7996 12.0983 32.9501 11.2475 31.9221 11.2475H20.6733ZM4.4148 12.489C4.06767 12.4937 3.79064 12.7791 3.79712 13.1262V14.3762C3.79712 15.2097 5.04712 15.2097 5.04712 14.3762V13.1262C5.05369 12.7737 4.76735 12.4849 4.4148 12.489ZM20.6733 12.4984H31.9221C32.2792 12.4984 32.5496 12.7688 32.5496 13.1259V13.7484H20.0459V13.1259C20.0459 12.7688 20.3163 12.4984 20.6733 12.4984ZM4.4148 16.2399C4.06767 16.2446 3.79064 16.53 3.79712 16.8771V20.6222C3.79712 21.4558 5.04712 21.4558 5.04712 20.6222V16.8771C5.05369 16.5246 4.76735 16.2359 4.4148 16.2399ZM21.9148 16.2399C21.5677 16.2446 21.2906 16.53 21.2971 16.8771V18.1271C21.2971 18.9606 22.5471 18.9606 22.5471 18.1271V16.8771C22.5537 16.5246 22.2673 16.2359 21.9148 16.2399ZM31.9221 18.7497C30.8942 18.7497 30.0483 19.5943 30.0483 20.6222V30.6259C30.0483 31.6538 30.8942 32.4984 31.9221 32.4984H36.9233C37.9513 32.4984 38.7959 31.6538 38.7959 30.6259V20.6222C38.7959 19.5943 37.9513 18.7497 36.9233 18.7497H31.9221ZM21.9148 19.9911C21.5695 19.9958 21.2932 20.277 21.2971 20.6222V24.3735C21.2971 25.207 22.5471 25.207 22.5471 24.3735V20.6222C22.5509 20.2715 22.2655 19.9871 21.9148 19.9911ZM31.9221 20.0006H36.9233C37.2804 20.0006 37.5459 20.266 37.5459 20.6231V21.2512H31.2996V20.6225C31.2996 20.2655 31.565 20.0006 31.9221 20.0006ZM31.2996 22.5018H37.5459V28.7482H31.2996V22.5018ZM14.4221 26.253H15.6733C16.5069 26.253 16.5069 25.0018 15.6733 25.0018H14.3922C13.5288 25.0417 13.5886 26.293 14.4221 26.253ZM25.6758 28.7482C24.8422 28.7482 24.8422 29.9981 25.6758 29.9981H26.9258C27.7593 29.9981 27.7593 28.7482 26.9258 28.7482H25.6758ZM31.2996 29.9981H37.5459V30.6268C37.5459 30.9839 37.2804 31.2494 36.9233 31.2494H31.9221C31.565 31.2494 31.2996 30.9839 31.2996 30.6268V29.9981Z" fill="#00A63F"></path>
</svg>