<svg xmlns="http://www.w3.org/2000/svg" width="41" height="40" viewBox="0 0 41 40" fill="none" class="svg replaced-svg">
<g clip-path="url(#clip0_857_12996)">
<g clip-path="url(#clip1_857_12996)">
<g clip-path="url(#clip2_857_12996)">
<path d="M34.8125 3H7.1875C5.42981 3 4 4.42981 4 6.1875V19.309C4 19.8962 4.47573 20.3715 5.0625 20.3715C5.64927 20.3715 6.125 19.8962 6.125 19.309V6.1875C6.125 5.60125 6.60178 5.125 7.1875 5.125H34.8125C35.3982 5.125 35.875 5.60125 35.875 6.1875V33.8125C35.875 34.3987 35.3982 34.875 34.8125 34.875H21.6905C21.1038 34.875 20.628 35.3502 20.628 35.9375C20.628 36.5248 21.1038 37 21.6905 37H34.8125C36.5702 37 38 35.5702 38 33.8125V6.1875C38 4.42981 36.5702 3 34.8125 3Z" fill="#00A63F"></path>
<path d="M15.6875 22.125H7.1875C5.42981 22.125 4 23.5548 4 25.3125V33.8125C4 35.5702 5.42981 37 7.1875 37H15.6875C17.4452 37 18.875 35.5702 18.875 33.8125V25.3125C18.875 23.5548 17.4452 22.125 15.6875 22.125ZM16.75 33.8125C16.75 34.3987 16.2732 34.875 15.6875 34.875H7.1875C6.60178 34.875 6.125 34.3987 6.125 33.8125V25.3125C6.125 24.7263 6.60178 24.25 7.1875 24.25H15.6875C16.2732 24.25 16.75 24.7263 16.75 25.3125V33.8125Z" fill="#00A63F"></path>
<path d="M21.7512 20.7512L28.4375 14.0649V15.75C28.4375 16.3373 28.9132 16.8125 29.5 16.8125C30.0868 16.8125 30.5625 16.3373 30.5625 15.75V11.5C30.5625 10.9308 30.0779 10.4375 29.5 10.4375H25.25C24.6632 10.4375 24.1875 10.9127 24.1875 11.5C24.1875 12.0873 24.6632 12.5625 25.25 12.5625H26.9351L20.2488 19.2488C19.8337 19.6638 19.8337 20.3362 20.2488 20.7512C20.6499 21.1524 21.3371 21.1653 21.7512 20.7512Z" fill="#00A63F"></path>
</g>
</g>
</g>
<defs>
<clipPath id="clip0_857_12996">
<rect width="40" height="40" fill="white" transform="translate(0.969238)"></rect>
</clipPath>
<clipPath id="clip1_857_12996">
<rect width="40" height="40" fill="white" transform="translate(0.937988)"></rect>
</clipPath>
<clipPath id="clip2_857_12996">
<rect width="34" height="34" fill="white" transform="translate(4 3)"></rect>
</clipPath>
</defs>
</svg>