<svg width="51" height="50" viewBox="0 0 51 50" fill="none" xmlns="http://www.w3.org/2000/svg">
<g clip-path="url(#clip0_809_12135)">
<g clip-path="url(#clip1_809_12135)">
<path d="M45.3125 0H4.6875C2.10266 0 0 2.10266 0 4.6875V23.9838C0 24.8474 0.699609 25.5463 1.5625 25.5463C2.42539 25.5463 3.125 24.8474 3.125 23.9838V4.6875C3.125 3.82537 3.82614 3.125 4.6875 3.125H45.3125C46.1739 3.125 46.875 3.82537 46.875 4.6875V45.3125C46.875 46.1746 46.1739 46.875 45.3125 46.875H26.0155C25.1526 46.875 24.453 47.5739 24.453 48.4375C24.453 49.3011 25.1526 50 26.0155 50H45.3125C47.8973 50 50 47.8973 50 45.3125V4.6875C50 2.10266 47.8973 0 45.3125 0Z" fill="#00A63F"/>
<path d="M17.1875 28.125H4.6875C2.10266 28.125 0 30.2277 0 32.8125V45.3125C0 47.8973 2.10266 50 4.6875 50H17.1875C19.7723 50 21.875 47.8973 21.875 45.3125V32.8125C21.875 30.2277 19.7723 28.125 17.1875 28.125ZM18.75 45.3125C18.75 46.1746 18.0489 46.875 17.1875 46.875H4.6875C3.82614 46.875 3.125 46.1746 3.125 45.3125V32.8125C3.125 31.9504 3.82614 31.25 4.6875 31.25H17.1875C18.0489 31.25 18.75 31.9504 18.75 32.8125V45.3125Z" fill="#00A63F"/>
<path d="M26.1047 26.1047L35.9375 16.272V18.75C35.9375 19.6136 36.6371 20.3125 37.5 20.3125C38.3629 20.3125 39.0625 19.6136 39.0625 18.75V12.5C39.0625 11.663 38.3499 10.9375 37.5 10.9375H31.25C30.3871 10.9375 29.6875 11.6364 29.6875 12.5C29.6875 13.3636 30.3871 14.0625 31.25 14.0625H33.728L23.8953 23.8953C23.2849 24.5056 23.2849 25.4944 23.8953 26.1047C24.4852 26.6947 25.4957 26.7137 26.1047 26.1047Z" fill="#00A63F"/>
</g>
</g>
<defs>
<clipPath id="clip0_809_12135">
<rect width="50" height="50" fill="white" transform="translate(0.5)"/>
</clipPath>
<clipPath id="clip1_809_12135">
<rect width="50" height="50" fill="white"/>
</clipPath>
</defs>
</svg>
