<svg xmlns="http://www.w3.org/2000/svg" width="40" height="40" viewBox="0 0 40 40" fill="none" class="svg replaced-svg">
<g clip-path="url(#clip0_842_5765)">
<path d="M4.17169 12.6648C3.86088 12.6648 3.60889 12.9168 3.60889 13.2276V35.3342C3.60889 36.8858 4.87134 38.1482 6.42289 38.1482C14.7727 38.1485 25.7413 38.1488 34.2848 38.1491C35.4461 38.1491 36.3909 37.2043 36.3909 36.043V28.1536C36.3909 27.047 35.5303 26.147 34.4447 26.0637V23.3679C34.4447 20.4118 32.0572 18.029 29.1113 18.029C28.0842 18.029 27.1272 18.3255 26.3121 18.8302V4.66166C26.3121 3.11011 25.0497 1.84766 23.4981 1.84766H6.42289C4.87134 1.84766 3.60889 3.11011 3.60889 4.66166C3.60889 4.7341 3.60889 10.094 3.60889 9.96896C3.60889 10.2798 3.86088 10.5318 4.17169 10.5318C4.48249 10.5318 4.73449 10.2798 4.73449 9.96896V8.46138H23.2739C23.5847 8.46138 23.8367 8.20939 23.8367 7.89858C23.8367 7.58778 23.5847 7.33578 23.2739 7.33578H4.73449V4.66166C4.73449 3.73062 5.49185 2.97326 6.42289 2.97326H23.4981C24.4292 2.97326 25.1865 3.73062 25.1865 4.66166V19.7609C24.3117 20.7121 23.7724 21.9766 23.7724 23.3679V26.0639C22.6878 26.1482 21.8279 27.0477 21.8279 28.1536V31.6493L6.51137 31.5353C6.22475 31.5252 5.94664 31.7832 5.94445 32.094C5.94225 32.4048 6.19232 32.6588 6.50313 32.6609L21.8279 32.775V36.043C21.8279 36.3985 21.9248 36.7286 22.081 37.0226H6.42289C5.49185 37.0226 4.73449 36.2653 4.73449 35.3342V13.2276C4.73449 12.9168 4.48249 12.6648 4.17169 12.6648ZM29.1113 19.1546C31.4391 19.1546 33.3191 21.0372 33.3191 23.3679V26.0475H31.9715V23.3679C31.9715 21.7878 30.6884 20.5022 29.1113 20.5022C27.5312 20.5022 26.2456 21.7878 26.2456 23.3679V26.0475H24.898V23.3679C24.898 21.0447 26.7881 19.1546 29.1113 19.1546ZM27.3712 26.0475V23.3679C27.3712 22.4085 28.152 21.6278 29.1113 21.6278C30.0676 21.6278 30.8459 22.4085 30.8459 23.3679V26.0475H27.3712ZM22.9535 28.1536C22.9535 27.6131 23.3934 27.1731 23.9343 27.1731C24.7729 27.1731 34.3647 27.1731 34.2848 27.1731C34.8253 27.1731 35.2653 27.6131 35.2653 28.1536V36.043C35.2653 36.5835 34.8253 37.0235 34.2848 37.0235H23.9343C23.3934 37.0235 22.9535 36.5835 22.9535 36.043L22.9535 28.1536Z" fill="#00A63F"></path>
<path d="M14.6844 4.58984C14.3736 4.58984 14.1216 4.84184 14.1216 5.15264C14.1216 5.46345 14.3736 5.71544 14.6844 5.71544H17.8427C18.1535 5.71544 18.4055 5.46345 18.4055 5.15264C18.4055 4.84184 18.1535 4.58984 17.8427 4.58984H14.6844Z" fill="#00A63F"></path>
<path d="M12.4866 4.58984C12.1758 4.58984 11.9238 4.84184 11.9238 5.15264C11.9238 5.46345 12.1758 5.71544 12.4866 5.71544H12.8136C13.1244 5.71544 13.3764 5.46345 13.3764 5.15264C13.3764 4.84184 13.1244 4.58984 12.8136 4.58984H12.4866Z" fill="#00A63F"></path>
<path d="M16.046 35.4068C16.3568 35.4068 16.6088 35.1549 16.6088 34.844C16.6088 34.5332 16.3568 34.2812 16.046 34.2812H13.8709C13.5601 34.2812 13.3081 34.5332 13.3081 34.844C13.3081 35.1549 13.5601 35.4068 13.8709 35.4068H16.046Z" fill="#00A63F"></path>
<path d="M8.9281 14.8318C7.75716 14.8318 6.80469 15.7843 6.80469 16.9553C6.80469 18.1262 7.75716 19.079 8.9281 19.079C9.43667 19.079 9.89782 18.8918 10.2639 18.5926L11.4015 19.3794C11.264 19.7424 11.1853 20.134 11.1853 20.5445C11.1853 21.2735 11.4248 21.946 11.8253 22.4937L10.9064 23.4126C10.5925 23.2293 10.2324 23.1167 9.84348 23.1167C8.67254 23.1167 7.72006 24.0691 7.72006 25.2401C7.72006 26.411 8.67254 27.3635 9.84348 27.3635C11.0144 27.3635 11.9672 26.411 11.9672 25.2401C11.9672 24.8675 11.8624 24.5223 11.6931 24.2176L12.6315 23.2792C13.1636 23.6435 13.8063 23.8575 14.4984 23.8575C15.7303 23.8575 16.8052 23.1786 17.3746 22.1759L18.942 22.8745C18.8969 23.0465 18.8653 23.2237 18.8653 23.4096C18.8653 24.5805 19.8178 25.533 20.9887 25.533C22.1597 25.533 23.1122 24.5805 23.1122 23.4096C23.1122 22.2387 22.1597 21.2859 20.9887 21.2859C20.4119 21.2859 19.8894 21.5188 19.5064 21.8934L17.7548 21.1128C17.7869 20.9277 17.807 20.7386 17.807 20.5445C17.807 18.9125 16.6182 17.5561 15.0617 17.2875V15.5602C15.9586 15.3118 16.6226 14.497 16.6226 13.5221C16.6226 12.3512 15.6699 11.3984 14.4989 11.3984C13.328 11.3984 12.3755 12.3512 12.3755 13.5221C12.3755 14.497 13.0394 15.3118 13.9361 15.5602V17.2872C13.1549 17.4214 12.4666 17.8275 11.9739 18.4069L10.9173 17.6761C10.9996 17.4501 11.0518 17.2095 11.0518 16.9553C11.0518 15.7843 10.099 14.8318 8.9281 14.8318ZM20.9887 22.4115C21.5389 22.4115 21.9865 22.8592 21.9865 23.4096C21.9865 23.9598 21.5389 24.4074 20.9887 24.4074C20.4386 24.4074 19.9909 23.9598 19.9909 23.4096C19.9909 22.9087 20.409 22.4115 20.9887 22.4115ZM9.84347 26.2379C9.29332 26.2379 8.84566 25.7902 8.84566 25.2401C8.84566 24.6899 9.29332 24.2423 9.84347 24.2423C10.3939 24.2423 10.8416 24.6899 10.8416 25.2401C10.8416 25.7902 10.3939 26.2379 9.84347 26.2379ZM13.5011 13.5221C13.5011 12.9717 13.9488 12.524 14.4989 12.524C15.0494 12.524 15.497 12.9717 15.497 13.5221C15.497 14.0723 15.0494 14.5199 14.4989 14.5199C13.9488 14.5199 13.5011 14.0723 13.5011 13.5221ZM14.4915 18.3621C14.4941 18.3622 14.4963 18.3636 14.4989 18.3636C14.5014 18.3636 14.5035 18.3622 14.506 18.3622C15.7061 18.3665 16.6814 19.3435 16.6814 20.5445C16.6814 21.7506 15.702 22.7319 14.4984 22.7319C13.2923 22.7319 12.3109 21.7506 12.3109 20.5445C12.3109 19.3432 13.2886 18.366 14.4915 18.3621ZM8.9281 17.9534C8.37794 17.9534 7.93029 17.5057 7.93029 16.9553C7.93029 16.4051 8.37794 15.9574 8.9281 15.9574C9.47854 15.9574 9.92619 16.4051 9.92619 16.9553C9.92619 17.5057 9.47854 17.9534 8.9281 17.9534Z" fill="#00A63F"></path>
<path d="M28.5464 32.9644V34.4613C28.5464 34.7721 28.7984 35.0241 29.1092 35.0241C29.42 35.0241 29.672 34.7721 29.672 34.4613V32.9644C30.4644 32.7215 31.046 31.9916 31.046 31.1208C31.046 30.046 30.1771 29.1719 29.1092 29.1719C28.0413 29.1719 27.1724 30.046 27.1724 31.1208C27.1724 31.9916 27.754 32.7215 28.5464 32.9644ZM29.1092 30.2975C29.5566 30.2975 29.9204 30.6668 29.9204 31.1208C29.9204 31.5605 29.5489 31.932 29.1092 31.932C28.6618 31.932 28.298 31.5682 28.298 31.1208C28.298 30.6591 28.6544 30.2975 29.1092 30.2975Z" fill="#00A63F"></path>
</g>
<defs>
<clipPath id="clip0_842_5765">
<rect width="40" height="40" fill="white"></rect>
</clipPath>
</defs>
</svg>