<svg xmlns="http://www.w3.org/2000/svg" width="41" height="40" viewBox="0 0 41 40" fill="none" class="svg replaced-svg">
<path d="M27.8703 17.7536C29.0176 17.7537 30.1391 17.4136 31.0931 16.7763C32.0471 16.139 32.7907 15.2331 33.2298 14.1732C33.669 13.1133 33.7839 11.947 33.5602 10.8217C33.3364 9.69646 32.784 8.66283 31.9728 7.85153C31.1616 7.04024 30.128 6.48772 29.0028 6.26385C27.8776 6.03998 26.7112 6.15482 25.6513 6.59383C24.5913 7.03285 23.6853 7.77633 23.0479 8.73025C22.4105 9.68417 22.0703 10.8057 22.0703 11.953C22.072 13.4908 22.6835 14.9651 23.7709 16.0526C24.8582 17.14 26.3325 17.7518 27.8703 17.7536ZM27.8703 7.40297C28.7704 7.40285 29.6503 7.66965 30.3987 8.16963C31.1472 8.66961 31.7305 9.38031 32.075 10.2119C32.4196 11.0434 32.5097 11.9584 32.3342 12.8412C32.1586 13.724 31.7252 14.5349 31.0887 15.1714C30.4523 15.8078 29.6414 16.2412 28.7586 16.4168C27.8758 16.5924 26.9607 16.5022 26.1292 16.1577C25.2977 15.8132 24.587 15.2298 24.087 14.4814C23.587 13.733 23.3202 12.8531 23.3203 11.953C23.3216 10.7466 23.8014 9.5901 24.6544 8.7371C25.5074 7.88409 26.664 7.40429 27.8703 7.40297Z" fill="#00A63F"></path>
<path d="M17.7061 5.63078L3.1817 12.1108C3.07023 12.1604 2.97573 12.2416 2.90987 12.3444C2.84401 12.4471 2.80967 12.5669 2.81108 12.6889C2.81108 12.8958 3.2217 33.4045 17.7486 38.7214C17.8874 38.7723 18.0398 38.7723 18.1786 38.7214C27.2223 35.4133 30.8473 26.4583 32.2955 19.3414C32.4339 19.3672 32.5614 19.4338 32.6617 19.5327C33.0363 19.8975 33.5402 20.099 34.063 20.0933C34.5859 20.0876 35.0852 19.875 35.4517 19.502C35.8172 19.1358 36.0224 18.6395 36.0224 18.122C36.0224 17.6046 35.8172 17.1083 35.4517 16.742C35.3471 16.6383 35.2782 16.5039 35.255 16.3584C35.2319 16.2129 35.2557 16.0638 35.323 15.9327C35.584 15.445 35.7961 14.9327 35.9561 14.4033C36.0013 14.2637 36.09 14.1422 36.2092 14.0566C36.3284 13.971 36.4718 13.9259 36.6186 13.9277C37.1348 13.9253 37.6291 13.7188 37.9936 13.3532C38.358 12.9876 38.5629 12.4926 38.5636 11.9764V11.9333C38.5629 11.416 38.3571 10.9201 37.9913 10.5543C37.6255 10.1885 37.1296 9.98269 36.6123 9.98203C36.4656 9.98383 36.3221 9.93864 36.2029 9.85306C36.0837 9.76748 35.995 9.64601 35.9498 9.50641C35.7892 8.97676 35.5772 8.4641 35.3167 7.97578C35.2494 7.84464 35.2257 7.69547 35.2489 7.54992C35.2722 7.40437 35.3413 7.27003 35.4461 7.16641C35.8054 6.79419 36.0042 6.29573 35.9996 5.77837C35.995 5.26102 35.7874 4.76617 35.4215 4.40041C35.0555 4.03465 34.5606 3.82725 34.0432 3.82288C33.5259 3.81851 33.0275 4.01751 32.6555 4.37703C32.5516 4.48254 32.4167 4.55203 32.2705 4.57531C32.1243 4.59859 31.9744 4.57444 31.843 4.50641C31.3553 4.24531 30.843 4.03303 30.3136 3.87266C30.174 3.82759 30.0524 3.73903 29.9667 3.61995C29.881 3.50086 29.8357 3.35748 29.8373 3.21078C29.8373 2.68764 29.6295 2.18593 29.2596 1.81601C28.8897 1.4461 28.388 1.23828 27.8648 1.23828C27.3417 1.23828 26.84 1.4461 26.4701 1.81601C26.1001 2.18593 25.8923 2.68764 25.8923 3.21078C25.894 3.35748 25.8486 3.50086 25.7629 3.61995C25.6772 3.73903 25.5557 3.82759 25.4161 3.87266C24.8886 4.03461 24.3782 4.24792 23.8923 4.50953C23.7608 4.57749 23.6109 4.60153 23.4647 4.57814C23.3185 4.55475 23.1836 4.48515 23.0798 4.37953C22.8953 4.19726 22.6764 4.05336 22.436 3.95616C22.1955 3.85896 21.9381 3.81038 21.6788 3.81323C21.4194 3.81608 21.1632 3.8703 20.9249 3.97275C20.6866 4.07521 20.4709 4.22388 20.2905 4.41016C20.0401 4.65634 19.863 4.96715 19.7788 5.30799C19.6946 5.64884 19.7067 6.00636 19.8136 6.34078L18.2148 5.63016C18.1347 5.59458 18.048 5.57625 17.9604 5.57636C17.8727 5.57647 17.7861 5.59501 17.7061 5.63078ZM17.9605 37.4677C5.55045 32.7377 4.21358 15.9189 4.07608 13.0808L17.9605 6.88453L20.4205 7.98016C20.16 8.46654 19.9486 8.97759 19.7892 9.50578C19.744 9.64538 19.6553 9.76686 19.5361 9.85244C19.4169 9.93802 19.2734 9.98321 19.1267 9.98141C18.6096 9.99061 18.1167 10.2025 17.7542 10.5715C17.3918 10.9405 17.1887 11.437 17.1887 11.9542C17.1887 12.4714 17.3918 12.968 17.7542 13.337C18.1167 13.7059 18.6096 13.9178 19.1267 13.927C19.2734 13.9252 19.4169 13.9704 19.5361 14.056C19.6553 14.1416 19.744 14.2631 19.7892 14.4027C19.9489 14.9322 20.161 15.4446 20.4223 15.932C20.4896 16.0632 20.5134 16.2123 20.4901 16.3579C20.4668 16.5034 20.3978 16.6378 20.293 16.7414C20.1111 16.9221 19.9668 17.1372 19.8687 17.3741C19.7705 17.611 19.7203 17.865 19.7211 18.1214C19.7218 18.3849 19.7755 18.6456 19.879 18.8879C19.9825 19.1303 20.1337 19.3493 20.3236 19.532C20.6895 19.8979 21.1858 20.1035 21.7033 20.1035C22.2207 20.1035 22.717 19.8979 23.083 19.532C23.1866 19.4272 23.3209 19.3582 23.4665 19.3349C23.612 19.3116 23.7612 19.3354 23.8923 19.4027C24.3802 19.6639 24.8927 19.8762 25.4223 20.0364C25.5619 20.0816 25.6834 20.1703 25.769 20.2895C25.8546 20.4087 25.8998 20.5522 25.898 20.6989C25.898 21.222 26.1058 21.7238 26.4757 22.0937C26.8456 22.4636 27.3473 22.6714 27.8705 22.6714C28.3936 22.6714 28.8953 22.4636 29.2652 22.0937C29.6351 21.7238 29.843 21.222 29.843 20.6989C29.8411 20.5522 29.8863 20.4087 29.9719 20.2895C30.0575 20.1703 30.179 20.0816 30.3186 20.0364C30.5211 19.9739 30.7186 19.8995 30.9155 19.8233C29.4486 26.4345 26.0067 34.4064 17.9605 37.4677ZM21.2073 5.25953C21.3391 5.12843 21.5174 5.05483 21.7033 5.05483C21.8891 5.05483 22.0674 5.12843 22.1992 5.25953C22.4931 5.55295 22.8729 5.74489 23.2835 5.80739C23.694 5.8699 24.1138 5.7997 24.4817 5.60703C24.8972 5.38682 25.3333 5.20764 25.7836 5.07203C26.1793 4.94806 26.525 4.70094 26.7705 4.3667C27.0159 4.03246 27.1481 3.62857 27.148 3.21391C27.1489 3.11828 27.1692 3.02384 27.2074 2.9362C27.2457 2.84856 27.3012 2.76952 27.3707 2.70379C27.4402 2.63806 27.5221 2.58699 27.6118 2.55361C27.7014 2.52024 27.7968 2.50525 27.8923 2.50953C28.0782 2.5097 28.2564 2.58365 28.3878 2.71514C28.5192 2.84664 28.593 3.02491 28.593 3.21078C28.5922 3.62586 28.7242 4.0303 28.9695 4.36512C29.2148 4.69994 29.5607 4.94762 29.9567 5.07203C30.4075 5.20864 30.8438 5.3893 31.2592 5.61141C31.6267 5.80736 32.0477 5.87898 32.4593 5.81554C32.8709 5.75211 33.2509 5.55703 33.5423 5.25953C33.6109 5.19318 33.692 5.14125 33.7809 5.10681C33.8699 5.07238 33.9648 5.05614 34.0602 5.05905C34.1555 5.06196 34.2493 5.08397 34.336 5.12378C34.4227 5.16358 34.5005 5.22037 34.5648 5.29078C34.6961 5.42246 34.7698 5.6008 34.7698 5.78672C34.7698 5.97264 34.6961 6.15098 34.5648 6.28266C34.2716 6.5765 34.0798 6.9563 34.0174 7.36674C33.955 7.77718 34.0253 8.19681 34.218 8.56453C34.4395 8.98034 34.62 9.41678 34.7567 9.86766C34.8808 10.2633 35.1281 10.609 35.4624 10.8544C35.7968 11.0997 36.2008 11.2318 36.6155 11.2314C36.801 11.2324 36.9785 11.3068 37.1093 11.4383C37.2401 11.5698 37.3136 11.7478 37.3136 11.9333V11.9764C37.3134 12.1624 37.2394 12.3408 37.1078 12.4723C36.9762 12.6038 36.7977 12.6777 36.6117 12.6777C36.1971 12.6774 35.7933 12.8096 35.4591 13.0549C35.1248 13.3002 34.8777 13.6458 34.7536 14.0414C34.6169 14.4919 34.4364 14.9279 34.2148 15.3433C34.022 15.7112 33.9517 16.1311 34.0142 16.5418C34.0767 16.9525 34.2688 17.3325 34.5623 17.6264C34.6288 17.6948 34.6809 17.776 34.7154 17.8649C34.75 17.9539 34.7663 18.0489 34.7634 18.1443C34.7604 18.2397 34.7384 18.3335 34.6985 18.4202C34.6586 18.5069 34.6016 18.5847 34.5311 18.6489C34.3995 18.7803 34.2211 18.8541 34.0351 18.8541C33.8492 18.8541 33.6708 18.7803 33.5392 18.6489C33.2471 18.3524 32.8669 18.1583 32.4554 18.0957C32.0439 18.033 31.6232 18.1052 31.2561 18.3014C30.8412 18.5242 30.4051 18.7048 29.9542 18.8408C29.5595 18.9655 29.2149 19.2126 28.9701 19.5464C28.7253 19.8801 28.5932 20.2831 28.593 20.697C28.5916 20.7924 28.5712 20.8865 28.5328 20.9737C28.4944 21.061 28.4389 21.1397 28.3695 21.2051C28.3001 21.2705 28.2183 21.3213 28.129 21.3545C28.0396 21.3877 27.9444 21.4026 27.8492 21.3983C27.6633 21.3981 27.485 21.3242 27.3535 21.1927C27.2221 21.0612 27.1481 20.883 27.148 20.697C27.1483 20.2823 27.0161 19.8782 26.7706 19.5439C26.5252 19.2095 26.1794 18.9623 25.7836 18.8383C25.333 18.7015 24.897 18.5209 24.4817 18.2989C24.2056 18.1515 23.8972 18.0749 23.5842 18.0758C23.0649 18.0753 22.5667 18.2807 22.1986 18.647C22.0616 18.7759 21.8799 18.8463 21.6919 18.8434C21.504 18.8405 21.3245 18.7645 21.1916 18.6315C21.0587 18.4985 20.9828 18.319 20.98 18.131C20.9772 17.9431 21.0478 17.7614 21.1767 17.6245C21.4701 17.3305 21.6621 16.9506 21.7247 16.54C21.7873 16.1294 21.7173 15.7095 21.5248 15.3414C21.302 14.9266 21.1213 14.4904 20.9855 14.0395C20.8608 13.6442 20.6133 13.2989 20.2789 13.054C19.9444 12.8091 19.5406 12.6772 19.1261 12.6777C19.0307 12.6762 18.9366 12.6557 18.8493 12.6173C18.7621 12.5788 18.6834 12.5232 18.618 12.4538C18.5526 12.3844 18.5018 12.3025 18.4686 12.2131C18.4354 12.1237 18.4206 12.0286 18.4248 11.9333C18.425 11.7473 18.4989 11.5691 18.6304 11.4376C18.7619 11.3061 18.9401 11.2322 19.1261 11.232C19.5407 11.2322 19.9446 11.1 20.2789 10.8547C20.6132 10.6095 20.8605 10.2639 20.9848 9.86828C21.121 9.41732 21.3017 8.981 21.5242 8.56578C21.6739 8.28299 21.7498 7.96697 21.7448 7.64703C21.745 7.61523 21.7428 7.58347 21.738 7.55203C21.712 7.07436 21.5118 6.62277 21.1755 6.28266C21.1101 6.21773 21.0583 6.1405 21.023 6.05543C20.9877 5.97036 20.9696 5.87913 20.9698 5.78703C20.9713 5.68754 20.9931 5.58941 21.0339 5.49868C21.0748 5.40796 21.1338 5.32656 21.2073 5.25953Z" fill="#00A63F"></path>
<path d="M26.6124 13.8887C26.7296 14.0059 26.8885 14.0717 27.0543 14.0717C27.22 14.0717 27.3789 14.0059 27.4961 13.8887L30.3993 10.985C30.5131 10.8671 30.5761 10.7092 30.5747 10.5454C30.5733 10.3815 30.5075 10.2247 30.3917 10.1088C30.2758 9.99296 30.119 9.92723 29.9551 9.9258C29.7913 9.92438 29.6334 9.98738 29.5155 10.1012L27.0543 12.5631L26.2174 11.7262C26.1593 11.6682 26.0904 11.6222 26.0145 11.5908C25.9387 11.5594 25.8574 11.5433 25.7753 11.5433C25.6932 11.5433 25.6119 11.5595 25.5361 11.591C25.4603 11.6224 25.3914 11.6685 25.3333 11.7265C25.2753 11.7846 25.2293 11.8535 25.1979 11.9294C25.1665 12.0052 25.1504 12.0865 25.1504 12.1686C25.1504 12.2507 25.1666 12.332 25.1981 12.4078C25.2295 12.4837 25.2756 12.5526 25.3336 12.6106L26.6124 13.8887Z" fill="#00A63F"></path>
<path d="M20.6947 30.8765C19.9025 31.4245 19.0482 31.8768 18.1497 32.224C9.51528 28.8821 8.44653 17.2609 8.31903 14.9352L15.8434 11.5777C15.9206 11.5459 15.9907 11.4988 16.0494 11.4394C16.1082 11.38 16.1544 11.3094 16.1854 11.2318C16.2164 11.1543 16.2315 11.0712 16.2299 10.9877C16.2282 10.9042 16.2099 10.8218 16.1758 10.7455C16.1418 10.6692 16.0929 10.6005 16.0318 10.5434C15.9708 10.4864 15.8989 10.4421 15.8205 10.4133C15.7421 10.3845 15.6587 10.3717 15.5752 10.3757C15.4918 10.3797 15.41 10.4004 15.3347 10.4365L7.42278 13.9665C7.31142 14.0162 7.21706 14.0975 7.15132 14.2002C7.08557 14.3029 7.05132 14.4227 7.05278 14.5446C7.05965 15.1577 7.3484 29.6027 17.9353 33.4784C18.0739 33.5291 18.226 33.5291 18.3647 33.4784C19.4413 33.0851 20.4633 32.5561 21.4059 31.904C21.4755 31.8582 21.5353 31.799 21.5816 31.7297C21.628 31.6605 21.6601 31.5827 21.6759 31.5009C21.6918 31.4191 21.6912 31.335 21.6741 31.2535C21.6569 31.1719 21.6237 31.0946 21.5763 31.0261C21.5289 30.9576 21.4682 30.8993 21.3979 30.8546C21.3276 30.8098 21.2491 30.7796 21.167 30.7657C21.0848 30.7517 21.0007 30.7544 20.9196 30.7734C20.8385 30.7924 20.762 30.8275 20.6947 30.8765Z" fill="#00A63F"></path>
</svg>