<svg xmlns="http://www.w3.org/2000/svg" width="31" height="30" viewBox="0 0 31 30" fill="none" class="svg replaced-svg">
<g clip-path="url(#clip0_816_16621)">
<g clip-path="url(#clip1_816_16621)">
<path d="M22.5411 0H8.42C6.63747 0 5.1875 1.44997 5.1875 3.23227V26.7675C5.1875 28.55 6.63747 30 8.42 30H22.5411C24.3234 30 25.7736 28.55 25.7736 26.7675V3.23227C25.7736 1.44997 24.3234 0 22.5411 0ZM16.102 25.9772C15.9383 26.1406 15.7117 26.2344 15.4808 26.2344C15.2494 26.2344 15.0226 26.1406 14.8591 25.9772C14.6957 25.8131 14.6019 25.5869 14.6019 25.3555C14.6019 25.1241 14.6957 24.8973 14.8591 24.7339C15.0226 24.5705 15.2494 24.4766 15.4808 24.4766C15.7117 24.4766 15.9383 24.5705 16.102 24.7339C16.2658 24.8973 16.3597 25.1241 16.3597 25.3555C16.3597 25.5869 16.2658 25.8131 16.102 25.9772ZM24.0158 20.7111H6.94531V3.23227C6.94531 2.41928 7.60678 1.75781 8.42 1.75781H22.5411C23.3543 1.75781 24.0158 2.41928 24.0158 3.23227V20.7111Z" fill="#00A63F"></path>
<path d="M11.2124 17.1436C11.2124 17.629 11.6059 18.0225 12.0913 18.0225C12.5768 18.0225 12.9702 17.629 12.9702 17.1436V15.2617H11.2124V17.1436Z" fill="#00A63F"></path>
<path d="M20.5014 4.44531C20.2464 4.44531 19.988 4.50551 19.7337 4.62407L15.23 6.72589V14.0048L19.7337 16.1066C19.988 16.2252 20.2464 16.2854 20.5014 16.2854C20.9417 16.2854 21.3388 16.1064 21.619 15.7811C21.8735 15.4859 22.0079 15.0975 22.0079 14.6582V6.07243C22.0079 5.12967 21.3743 4.44531 20.5014 4.44531Z" fill="#00A63F"></path>
<path d="M8.95312 9.23523V11.4945C8.95312 12.6021 9.854 13.5032 10.9616 13.5032H13.4719V7.22656H10.9616C9.854 7.22656 8.95312 8.12767 8.95312 9.23523Z" fill="#00A63F"></path>
</g>
</g>
<defs>
<clipPath id="clip0_816_16621">
<rect width="30" height="30" fill="white" transform="translate(0.5)"></rect>
</clipPath>
<clipPath id="clip1_816_16621">
<rect width="30" height="30" fill="white" transform="translate(0.5)"></rect>
</clipPath>
</defs>
</svg>