<svg xmlns="http://www.w3.org/2000/svg" width="31" height="30" viewBox="0 0 31 30" fill="none" class="svg replaced-svg">
<g clip-path="url(#clip0_815_16586)">
<path d="M29.1197 12.8772L26.9829 12.5365C26.6794 11.1182 26.1282 9.799 25.3602 8.61602L26.6299 6.87563C26.8962 6.50403 26.8529 5.99616 26.5308 5.67408L24.8276 3.96465C24.4993 3.64262 23.9915 3.59926 23.6198 3.87177L21.8794 5.13524C20.7027 4.37345 19.3773 3.81602 17.9589 3.51874L17.6183 1.38816C17.5502 0.936001 17.16 0.601562 16.7016 0.601562H14.2985C13.8402 0.601562 13.45 0.936001 13.3757 1.38816L13.0412 3.51874C11.6229 3.81602 10.2975 4.37345 9.12075 5.13524L7.37417 3.87177C7.00873 3.59926 6.49469 3.64262 6.17262 3.96465L4.46939 5.67408C4.14111 5.99616 4.10395 6.50403 4.37027 6.87563L5.63998 8.61602C4.87195 9.799 4.32075 11.1182 4.01727 12.5365L1.88049 12.8772C1.42834 12.9453 1.1001 13.3355 1.1001 13.7938V16.2093C1.1001 16.6614 1.42834 17.0516 1.88049 17.1259L4.01727 17.4666C4.32075 18.8849 4.87195 20.2042 5.63998 21.3747L4.37027 23.1275C4.10395 23.4991 4.14111 24.007 4.46939 24.329L6.17262 26.0323C6.50085 26.3543 7.00873 26.3915 7.37417 26.1252L9.12695 24.8555C10.3099 25.6235 11.6229 26.1747 13.0412 26.4782L13.3819 28.615C13.45 29.0671 13.8402 29.3954 14.2985 29.3954H16.7016C17.16 29.3954 17.5502 29.0671 17.6183 28.615L17.9589 26.4782C19.3773 26.1747 20.7027 25.6235 21.8794 24.8555L23.626 26.1252C23.9915 26.3915 24.4993 26.3543 24.8276 26.0323L26.5308 24.329C26.8529 24.007 26.8962 23.4991 26.6299 23.1275L25.3602 21.3747C26.1282 20.2042 26.6794 18.8849 26.9829 17.4666L29.1197 17.1259C29.5657 17.0516 29.9001 16.6614 29.9001 16.2093V13.7938C29.9001 13.3355 29.5657 12.9453 29.1197 12.8772ZM18.8136 22.6568C14.5896 24.4901 9.67195 22.5453 7.84488 18.3151C6.01158 14.0849 7.95636 9.17345 12.1866 7.34635C16.4105 5.51304 21.3282 7.45782 23.1553 11.6818C24.9886 15.912 23.0438 20.8235 18.8136 22.6568Z" fill="#00A63F"></path>
<path d="M16.6585 9.77211C16.4495 9.32846 15.8268 9.30612 15.5865 9.73359L13.8613 12.8034L15.8377 16.9995L19.3031 17.6245C19.7858 17.7115 20.1651 17.2171 19.9561 16.7735L16.6585 9.77211Z" fill="#00A63F"></path>
<path d="M14.8112 17.4864L14.9983 17.3984L13.0226 13.1992L11.3441 13.9858C10.8053 14.2397 10.5761 14.8838 10.8301 15.4227L11.8892 17.6709C12.1248 18.1709 12.6954 18.3989 13.2071 18.2271L14.535 20.0897C14.8044 20.4688 15.3244 20.5496 15.6932 20.325C16.1206 20.0587 16.2382 19.4889 15.9472 19.0801L14.8112 17.4864Z" fill="#00A63F"></path>
<path d="M18.3306 11.1367L19.9595 14.6051C20.4302 14.0229 20.5417 13.162 20.1762 12.3878C19.817 11.6074 19.08 11.1491 18.3306 11.1367Z" fill="#00A63F"></path>
</g>
<defs>
<clipPath id="clip0_815_16586">
<rect width="30" height="30" fill="white" transform="translate(0.5)"></rect>
</clipPath>
</defs>
</svg>