<svg width="50" height="50" viewBox="0 0 50 50" fill="none" xmlns="http://www.w3.org/2000/svg">
<g clip-path="url(#clip0_846_77)">
<path d="M41.4338 4.07031H8.56616C6.08661 4.07031 4.06934 6.08759 4.06934 8.56713V13.8816H45.9307V8.56713C45.9307 6.08759 43.9134 4.07031 41.4338 4.07031ZM29.9056 10.2023C29.2283 10.2023 28.6792 9.65324 28.6792 8.97594C28.6792 8.29863 29.2283 7.74953 29.9056 7.74953C30.5829 7.74953 31.132 8.29863 31.132 8.97594C31.132 9.65324 30.5829 10.2023 29.9056 10.2023ZM34.8112 10.2023C34.1339 10.2023 33.5848 9.65324 33.5848 8.97594C33.5848 8.29863 34.1339 7.74953 34.8112 7.74953C35.4886 7.74953 36.0377 8.29863 36.0377 8.97594C36.0377 9.65324 35.4886 10.2023 34.8112 10.2023ZM39.7169 10.2023C39.0396 10.2023 38.4905 9.65324 38.4905 8.97594C38.4905 8.29863 39.0396 7.74953 39.7169 7.74953C40.3942 7.74953 40.9433 8.29863 40.9433 8.97594C40.9433 9.65324 40.3942 10.2023 39.7169 10.2023Z" fill="#00A63F"/>
<path d="M4.06934 16.3359V41.4364C4.06934 43.9159 6.08661 45.9332 8.56616 45.9332H41.4338C43.9134 45.9332 45.9307 43.9159 45.9307 41.4364V16.3359H4.06934ZM34.1699 21.9365C37.5511 21.9365 40.302 24.6874 40.302 28.0686C40.302 31.4498 37.5511 34.2006 34.1699 34.2006C30.7887 34.2006 28.0379 31.4498 28.0379 28.0686C28.0379 24.6874 30.7887 21.9365 34.1699 21.9365ZM20.333 23.1629C20.333 22.4856 20.8821 21.9365 21.5594 21.9365H25.6934C26.3707 21.9365 26.9198 22.4856 26.9198 23.1629C26.9198 23.8402 26.3707 24.3893 25.6934 24.3893H22.7858V26.8421H25.3886C26.0659 26.8421 26.615 27.3913 26.615 28.0686C26.615 28.7459 26.0659 29.295 25.3886 29.295H22.7858V31.7478H25.6934C26.3707 31.7478 26.9198 32.2969 26.9198 32.9742C26.9198 33.6515 26.3707 34.2006 25.6934 34.2006H21.5594C20.8821 34.2006 20.333 33.6515 20.333 32.9742V23.1629ZM10.1009 30.6143C10.6028 30.1597 11.3784 30.1976 11.8332 30.6996C12.4279 31.3559 13.3635 31.7478 14.3357 31.7478C15.2802 31.7478 15.9454 31.1831 16.0429 30.6371C16.1724 29.9114 15.1897 29.4655 14.7612 29.3074C13.2429 28.7473 11.8947 28.1473 11.8381 28.1219C11.7791 28.0956 11.7223 28.0646 11.6681 28.0293C10.635 27.3558 10.1027 26.1746 10.279 24.9467C10.4668 23.638 11.4236 22.572 12.7761 22.1646C15.2776 21.4111 17.5651 22.7262 18.0393 23.6132C18.3587 24.2105 18.1334 24.9536 17.536 25.273C16.9961 25.5615 16.3372 25.4053 15.9796 24.9315C15.7327 24.7224 14.7247 24.1393 13.4836 24.5132C12.8568 24.7021 12.7316 25.1231 12.7068 25.2952C12.6891 25.4191 12.6801 25.7161 12.9452 25.9295C13.2891 26.0801 14.4082 26.5629 15.6101 27.0062C18.0815 27.9177 18.7014 29.7022 18.4575 31.0682C18.1334 32.8833 16.3999 34.2007 14.3356 34.2007C12.6825 34.2007 11.0675 33.5076 10.0155 32.3467C9.56086 31.8447 9.59904 31.0692 10.1009 30.6143ZM39.7169 40.3326H10.2831C9.60582 40.3326 9.05672 39.7835 9.05672 39.1062C9.05672 38.4289 9.60582 37.8798 10.2831 37.8798H39.7169C40.3942 37.8798 40.9433 38.4289 40.9433 39.1062C40.9433 39.7835 40.3942 40.3326 39.7169 40.3326Z" fill="#00A63F"/>
<path d="M34.1699 31.7452C36.2019 31.7452 37.8492 30.0979 37.8492 28.0659C37.8492 26.034 36.2019 24.3867 34.1699 24.3867C32.138 24.3867 30.4907 26.034 30.4907 28.0659C30.4907 30.0979 32.138 31.7452 34.1699 31.7452Z" fill="#00A63F"/>
</g>
<defs>
<clipPath id="clip0_846_77">
<rect width="50" height="50" fill="white"/>
</clipPath>
</defs>
</svg>
