<svg xmlns="http://www.w3.org/2000/svg" width="30" height="30" viewBox="0 0 30 30" fill="none" class="svg replaced-svg">
<g clip-path="url(#clip0_815_16478)">
<g clip-path="url(#clip1_815_16478)">
<path fill-rule="evenodd" clip-rule="evenodd" d="M6.33497 23.2553L8.51876 27.2326C8.84161 27.8209 8.65353 28.5633 8.07228 28.899C7.49103 29.2342 6.72872 29.0408 6.40587 28.4525L3.9174 23.9197C3.99884 23.9051 4.08029 23.8869 4.16173 23.8652C4.89474 23.6689 5.61017 23.4516 6.33497 23.2559V23.2553ZM23.2674 0.9375C26.4678 0.9375 29.0623 2.7832 29.0623 5.05957C29.0623 7.33594 26.4678 9.18164 23.2674 9.18164C22.1512 9.18164 21.1088 8.95723 20.2246 8.56816C20.1279 8.52598 20.0248 8.53594 19.9381 8.59629L18.1076 9.88184C17.9822 9.96973 17.8199 9.83672 17.8815 9.69668L18.6906 7.85625C18.741 7.74082 18.7152 7.6125 18.6244 7.52637C17.9014 6.83848 17.4731 5.98477 17.4731 5.06016C17.4731 2.78379 20.0676 0.938086 23.268 0.938086L23.2674 0.9375ZM19.9223 19.7309C19.7828 19.6506 19.7342 19.4725 19.8145 19.3324C19.8947 19.193 20.0729 19.1443 20.2129 19.2246L22.4652 20.5248C22.6047 20.6051 22.6533 20.7832 22.5731 20.9232C22.4928 21.0627 22.3147 21.1113 22.1746 21.0311L19.9223 19.7309ZM18.7832 13.8867C18.7024 14.0262 18.5236 14.0742 18.3836 13.9934C18.2442 13.9125 18.1961 13.7338 18.277 13.5938L19.5772 11.3414C19.658 11.202 19.8367 11.1539 19.9768 11.2348C20.1162 11.3156 20.1643 11.4943 20.0834 11.6344L18.7832 13.8867ZM20.5627 16.5732C20.4068 16.6148 20.2463 16.5223 20.2047 16.3658C20.1631 16.2094 20.2557 16.0494 20.4121 16.0078L22.924 15.3346C23.0799 15.293 23.2404 15.3855 23.282 15.542C23.3236 15.6979 23.2311 15.8584 23.0746 15.9L20.5627 16.5732ZM26.6811 3.91699H20.3582C20.1965 3.91699 20.0652 4.04824 20.0652 4.20996C20.0652 4.37168 20.1965 4.50293 20.3582 4.50293H26.6811C26.8428 4.50293 26.974 4.37168 26.974 4.20996C26.974 4.04824 26.8428 3.91699 26.6811 3.91699ZM20.3582 5.61738C20.1971 5.61738 20.0664 5.74805 20.0664 5.90918C20.0664 6.07031 20.1971 6.20098 20.3582 6.20098L24.5307 6.18691C24.6918 6.18691 24.8225 6.05625 24.8225 5.89512C24.8225 5.73398 24.6918 5.60332 24.5307 5.60332L20.3582 5.61738ZM2.0254 4.45137H9.11232C9.71173 4.45137 10.2004 4.94004 10.2004 5.53945V9.99785C10.2004 10.5973 9.71173 11.0859 9.11232 11.0859H2.0254C1.42599 11.0859 0.937317 10.5973 0.937317 9.99785V5.53945C0.937317 4.94004 1.42599 4.45137 2.0254 4.45137ZM6.98771 8.09883C7.24259 7.95176 7.24259 7.58613 6.98771 7.43906L5.2381 6.42891C4.98322 6.28184 4.66681 6.46465 4.66681 6.75879V8.7791C4.66681 9.07324 4.98322 9.25606 5.2381 9.10898L6.98771 8.09883ZM27.2629 24.7652C27.2629 23.6895 26.4613 22.8176 25.4723 22.8176C24.7574 22.8176 24.1404 23.2729 23.8533 23.9314C23.5662 23.2729 22.9492 22.8176 22.2344 22.8176C21.2453 22.8176 20.4438 23.6895 20.4438 24.7652C20.4438 25.9945 22.7617 28.0512 23.5826 28.94C23.732 29.1018 23.9746 29.1018 24.124 28.94C24.9449 28.0518 27.2629 25.9945 27.2629 24.7652ZM13.5274 10.1818C13.0276 10.316 12.7276 10.8346 12.8617 11.3344L16.3615 24.3949C16.4957 24.8947 17.0143 25.1947 17.5141 25.0605C18.0139 24.9264 18.3139 24.4078 18.1797 23.908L14.6799 10.8475C14.5457 10.3477 14.0272 10.0477 13.5274 10.1818ZM7.42247 22.384C7.25314 22.4203 7.09552 22.4561 6.94669 22.4912L5.66056 17.6912C5.80704 17.6467 5.96173 17.5986 6.12638 17.5459C9.61564 16.4232 11.6383 14.6209 12.6754 12.9018L15.4164 23.1322C13.6586 22.1619 11.0055 21.6123 7.42247 22.3846V22.384ZM6.37833 22.6318L5.09806 17.8535C4.32521 18.0662 3.70704 18.1939 2.71329 18.4605C1.43009 18.8045 0.661927 20.1352 1.02872 21.5051C1.39552 22.8744 2.72677 23.6432 4.00997 23.2992C5.00372 23.0332 5.60314 22.8346 6.37833 22.6324V22.6318ZM16.6053 15.7676L17.4268 15.7746C17.7408 15.7775 18.0051 15.982 18.0865 16.2855L18.4106 17.4943C18.492 17.7979 18.3654 18.1072 18.0947 18.2666L17.3869 18.6838L16.6053 15.767V15.7676Z" fill="#00A63F"></path>
</g>
</g>
<defs>
<clipPath id="clip0_815_16478">
<rect width="30" height="30" fill="white"></rect>
</clipPath>
<clipPath id="clip1_815_16478">
<rect width="30" height="30" fill="white"></rect>
</clipPath>
</defs>
</svg>