<svg xmlns="http://www.w3.org/2000/svg" width="30" height="30" viewBox="0 0 30 30" fill="none" class="svg replaced-svg">
<g clip-path="url(#clip0_815_16508)">
<g clip-path="url(#clip1_815_16508)">
<path d="M23.358 16.7137C22.2229 16.7132 21.1066 17.0038 20.1159 17.5577C19.1251 18.1117 18.293 18.9105 17.699 19.8778L12.8481 17.3735C13.4306 15.8451 13.4306 14.1558 12.8481 12.6274L17.699 10.1231C18.5697 11.5375 19.9396 12.5735 21.5376 13.0261C23.1357 13.4787 24.8454 13.3149 26.3284 12.5671C27.8114 11.8193 28.9597 10.542 29.546 8.98807C30.1322 7.43409 30.1138 5.71665 29.4942 4.17563C28.8747 2.63462 27.6992 1.38233 26.2005 0.666599C24.7017 -0.0491303 22.9889 -0.176141 21.4009 0.310702C19.813 0.797545 18.4657 1.86276 17.6256 3.29555C16.7856 4.72833 16.514 6.42427 16.8647 8.04772L11.7113 10.7085C10.832 9.67002 9.65507 8.92666 8.33957 8.57889C7.02407 8.23112 5.63349 8.29572 4.3559 8.76396C3.07831 9.2322 1.97532 10.0815 1.1961 11.197C0.416886 12.3125 -0.000976563 13.6403 -0.000976562 15.001C-0.000976563 16.3617 0.416886 17.6896 1.1961 18.8051C1.97532 19.9206 3.07831 20.7699 4.3559 21.2381C5.63349 21.7064 7.02407 21.771 8.33957 21.4232C9.65507 21.0754 10.832 20.3321 11.7113 19.2936L16.8647 21.9544C16.5741 23.2974 16.7072 24.6975 17.2457 25.9617C17.7841 27.2259 18.7013 28.2921 19.871 29.0133C21.0406 29.7344 22.4051 30.0751 23.7765 29.9884C25.1479 29.9017 26.4586 29.3918 27.5281 28.529C28.5976 27.6662 29.3732 26.493 29.7481 25.1711C30.1229 23.8491 30.0786 22.4434 29.6212 21.1476C29.1638 19.8519 28.3158 18.7299 27.1941 17.9362C26.0724 17.1425 24.7321 16.7162 23.358 16.7161V16.7137ZM23.317 2.2651C23.7036 2.26499 24.0815 2.37954 24.403 2.59426C24.7244 2.80899 24.975 3.11424 25.1229 3.4714C25.2709 3.82856 25.3096 4.22157 25.2341 4.60072C25.1586 4.97986 24.9724 5.3281 24.6989 5.60138C24.4255 5.87465 24.0771 6.06068 23.6979 6.13593C23.3188 6.21118 22.9258 6.17226 22.5687 6.02411C22.2116 5.87595 21.9065 5.62522 21.692 5.30363C21.4775 4.98203 21.3631 4.60403 21.3635 4.21744C21.3638 3.69954 21.5697 3.20296 21.9361 2.83686C22.3024 2.47076 22.7991 2.2651 23.317 2.2651ZM20.1313 7.98092V7.97213C20.1605 7.69816 20.2832 7.44262 20.4787 7.2485C20.6748 7.05175 20.9321 6.92774 21.2082 6.89694C21.6119 6.85416 22.8418 6.83073 23.4664 6.83131C24.091 6.8319 25.0947 6.85416 25.499 6.89694C25.7749 6.92787 26.032 7.05187 26.2279 7.2485C26.4234 7.44291 26.5461 7.6986 26.5754 7.97272V7.98092C26.5956 8.15264 26.6058 8.3254 26.6059 8.4983C26.6069 8.70728 26.5969 8.91616 26.576 9.12409V9.13229C26.5429 9.42 26.4222 9.69061 26.2303 9.90748C26.0413 10.1283 25.7864 10.2826 25.5031 10.3475C25.1 10.4389 24.0969 10.5286 23.4676 10.5233C22.84 10.5391 21.6078 10.4413 21.2047 10.3475C20.9215 10.2823 20.6667 10.1281 20.4775 9.90748C20.2857 9.69055 20.165 9.41997 20.1318 9.13229V9.1235C20.1106 8.91602 20.1042 8.70729 20.1125 8.49889C20.1039 8.32602 20.1102 8.15272 20.1313 7.98092ZM6.60196 10.6229C6.98833 10.6229 7.36602 10.7375 7.68728 10.9521C8.00853 11.1668 8.25892 11.4719 8.40677 11.8289C8.55463 12.1858 8.59332 12.5786 8.51794 12.9575C8.44256 13.3365 8.25651 13.6846 7.9833 13.9578C7.7101 14.231 7.36202 14.417 6.98307 14.4924C6.60413 14.5678 6.21134 14.5291 5.85438 14.3812C5.49742 14.2334 5.19233 13.983 4.97767 13.6617C4.76302 13.3405 4.64844 12.9628 4.64844 12.5764C4.64844 12.0583 4.85426 11.5614 5.22062 11.1951C5.58697 10.8287 6.08385 10.6229 6.60196 10.6229ZM9.86212 17.4813V17.4895C9.82915 17.7774 9.70846 18.0483 9.51641 18.2653C9.32729 18.4859 9.07245 18.6401 8.78926 18.7053C8.38614 18.7962 7.38301 18.8864 6.75372 18.8811C6.12618 18.8969 4.89395 18.7997 4.49083 18.7053C4.20745 18.6406 3.95247 18.4863 3.76368 18.2653C3.57174 18.0484 3.45106 17.7778 3.41798 17.4901V17.4819C3.39671 17.2738 3.39024 17.0645 3.39864 16.8555C3.39027 16.6828 3.39674 16.5097 3.41798 16.3381V16.3299C3.4473 16.0558 3.56998 15.8001 3.76544 15.6057C3.96151 15.4089 4.21884 15.2849 4.49493 15.2542C4.89864 15.2114 6.12852 15.188 6.75313 15.188C7.37774 15.188 8.38145 15.2114 8.78575 15.2542C9.06169 15.2848 9.31888 15.4089 9.51466 15.6057C9.71019 15.7998 9.83289 16.0554 9.86212 16.3294V16.3381C9.88236 16.5097 9.89254 16.6822 9.89258 16.8549C9.89345 17.0641 9.88328 17.2732 9.86212 17.4813ZM23.317 18.9831C23.7036 18.983 24.0816 19.0975 24.4031 19.3123C24.7246 19.5271 24.9751 19.8324 25.123 20.1896C25.271 20.5469 25.3096 20.9399 25.234 21.3191C25.1584 21.6983 24.9721 22.0465 24.6985 22.3198C24.425 22.593 24.0765 22.7789 23.6972 22.854C23.318 22.9292 22.9249 22.8901 22.5679 22.7417C22.2108 22.5934 21.9058 22.3425 21.6914 22.0207C21.477 21.699 21.3629 21.3209 21.3635 20.9342C21.3641 20.4165 21.5702 19.9203 21.9365 19.5544C22.3028 19.1886 22.7993 18.9831 23.317 18.9831ZM26.5772 25.8385V25.8467C26.5441 26.1345 26.4234 26.4051 26.2315 26.6219C26.0425 26.8428 25.7876 26.997 25.5043 27.062C25.1012 27.1534 24.0981 27.243 23.4688 27.2378C22.8412 27.2536 21.609 27.1557 21.2059 27.062C20.9227 26.9968 20.6678 26.8426 20.4787 26.6219C20.2869 26.405 20.1662 26.1344 20.133 25.8467V25.8385C20.1118 25.6311 20.1053 25.4223 20.1137 25.2139C20.1053 25.0412 20.1118 24.8681 20.133 24.6965V24.6878C20.1618 24.4137 20.2841 24.158 20.4793 23.9635C20.676 23.7663 20.9342 23.6423 21.2111 23.612C21.6149 23.5692 22.8447 23.5458 23.4693 23.5464C24.094 23.5469 25.0977 23.5692 25.502 23.612C25.7778 23.6429 26.0349 23.7669 26.2309 23.9635C26.4263 24.1579 26.549 24.4136 26.5783 24.6878V24.696C26.5986 24.8677 26.6088 25.0404 26.6088 25.2133C26.6092 25.4222 26.5987 25.6308 26.5772 25.8385Z" fill="#00A63F"></path>
</g>
</g>
<defs>
<clipPath id="clip0_815_16508">
<rect width="30" height="30" fill="white"></rect>
</clipPath>
<clipPath id="clip1_815_16508">
<rect width="30" height="30" fill="white"></rect>
</clipPath>
</defs>
</svg>