<svg xmlns="http://www.w3.org/2000/svg" width="30" height="30" viewBox="0 0 30 30" fill="none" class="svg replaced-svg">
<g clip-path="url(#clip0_815_16523)">
<g clip-path="url(#clip1_815_16523)">
<path d="M0 7.83594H8.11582V18.5981H0V7.83594Z" fill="#00A63F"></path>
<path d="M24.5801 14.0947C24.9488 15.1988 25.9923 15.9969 27.2188 15.9969C28.7523 15.9969 29.9999 14.7493 29.9999 13.2158C29.9999 11.6823 28.7523 10.4347 27.2188 10.4347C25.9923 10.4347 24.9488 11.2327 24.5801 12.3369H21.2134V9.25402L23.4815 6.89199H24.5802C24.9488 7.99607 25.9924 8.79412 27.2188 8.79412C28.7523 8.79412 29.9999 7.54654 29.9999 6.01309C29.9999 4.47957 28.7523 3.23199 27.2188 3.23199C25.9923 3.23199 24.9488 4.03004 24.5801 5.13418H22.7325L21.2134 6.71615V1.60156H19.4555V3.11252L9.87354 7.36238V19.0692L19.4555 23.3191V24.8301H21.2134V19.7155L22.7325 21.2974H24.5802C24.9488 22.4015 25.9924 23.1996 27.2189 23.1996C28.7524 23.1996 30 21.9521 30 20.4185C30 18.8851 28.7524 17.6375 27.2189 17.6375C25.9924 17.6375 24.9489 18.4355 24.5802 19.5396H23.4816L21.2134 17.1776V14.0947L24.5801 14.0947Z" fill="#00A63F"></path>
<path d="M2.84229 20.3555H8.11572V28.3974H2.84229V20.3555Z" fill="#00A63F"></path>
</g>
</g>
<defs>
<clipPath id="clip0_815_16523">
<rect width="30" height="30" fill="white"></rect>
</clipPath>
<clipPath id="clip1_815_16523">
<rect width="30" height="30" fill="white"></rect>
</clipPath>
</defs>
</svg>