<svg xmlns="http://www.w3.org/2000/svg" width="30" height="30" viewBox="0 0 30 30" fill="none" class="svg replaced-svg">
<g clip-path="url(#clip0_815_16558)">
<g clip-path="url(#clip1_815_16558)">
<path d="M20.4761 27.3802V29.2849C20.4761 29.6753 20.1523 29.9992 19.7618 29.9992H10.2382C9.84774 29.9992 9.52393 29.6753 9.52393 29.2849V27.3802C9.52393 25.2849 10.7048 23.4564 12.4477 22.5517C11.2573 21.7327 10.4763 20.3612 10.4763 18.8089C10.4763 16.3137 12.5049 14.2852 15 14.2852C17.4952 14.2852 19.5238 16.3137 19.5238 18.8089C19.5238 20.3612 18.7428 21.7327 17.5524 22.5517C19.2952 23.4564 20.4761 25.2849 20.4761 27.3802Z" fill="#00A63F"></path>
<path d="M26.1903 25.4778V27.3825C26.1903 27.773 25.8665 28.0968 25.476 28.0968H21.9046V27.3825C21.9046 25.4588 21.1141 23.6588 19.7618 22.3827C20.5237 21.3636 20.9522 20.1161 20.9522 18.8112C20.9522 16.5066 19.6379 14.5065 17.7236 13.5162C18.5332 12.8019 19.5903 12.3828 20.7141 12.3828C23.2092 12.3828 25.2378 14.4114 25.2378 16.9065C25.2378 18.4494 24.4569 19.8207 23.2759 20.6397C23.752 20.8873 24.1901 21.2112 24.5902 21.6016C25.6187 22.6493 26.1903 24.0207 26.1903 25.4778Z" fill="#00A63F"></path>
<path d="M3.80957 25.4778V27.3825C3.80957 27.773 4.13338 28.0968 4.52385 28.0968H8.09526V27.3825C8.09526 25.4588 8.88576 23.6588 10.2381 22.3827C9.4762 21.3636 9.04766 20.1161 9.04766 18.8112C9.04766 16.5066 10.3619 14.5065 12.2762 13.5162C11.4667 12.8019 10.4096 12.3828 9.28579 12.3828C6.79063 12.3828 4.76207 14.4114 4.76207 16.9065C4.76207 18.4494 5.54301 19.8207 6.72398 20.6397C6.24782 20.8873 5.80973 21.2112 5.4097 21.6016C4.38116 22.6493 3.80957 24.0207 3.80957 25.4778Z" fill="#00A63F"></path>
<path d="M14.7781 9.24406L12.3222 10.5352C11.9729 10.7188 11.5646 10.4222 11.6312 10.0332L12.1003 7.29846C12.1268 7.14396 12.0755 6.98637 11.9633 6.87696L9.97637 4.94018C9.69371 4.66465 9.84971 4.18474 10.2403 4.12793L12.9861 3.72893C13.1412 3.70643 13.2753 3.60902 13.3446 3.4684L14.5726 0.980273C14.7472 0.626367 15.2519 0.626367 15.4266 0.980273L16.6546 3.4684C16.7239 3.60893 16.858 3.70634 17.0131 3.72893L19.7589 4.12793C20.1495 4.18465 20.3055 4.66465 20.0228 4.94018L18.0359 6.87696C17.9236 6.98637 17.8725 7.14396 17.8989 7.29846L18.3679 10.0332C18.4347 10.4222 18.0264 10.7188 17.677 10.5352L15.221 9.24406C15.0823 9.17112 14.9169 9.17112 14.7781 9.24406Z" fill="#00A63F"></path>
<path d="M25.4759 5.60434H23.5712C23.1769 5.60434 22.8569 5.28437 22.8569 4.89006C22.8569 4.49575 23.1769 4.17578 23.5712 4.17578H25.4759C25.8702 4.17578 26.1902 4.49575 26.1902 4.89006C26.1902 5.28437 25.8702 5.60434 25.4759 5.60434Z" fill="#00A63F"></path>
<path d="M22.8011 2.26433C22.5361 2.26433 22.2821 2.11696 22.1585 1.86299C21.9855 1.50862 22.1324 1.08083 22.4868 0.907866L24.199 0.0726468C24.5544 -0.100791 24.9812 0.047053 25.1542 0.401897C25.3271 0.756272 25.1802 1.18405 24.8259 1.35702L23.1136 2.19224C23.0123 2.24108 22.9062 2.26433 22.8011 2.26433Z" fill="#00A63F"></path>
<path d="M24.5115 9.77857C24.4064 9.77857 24.3004 9.75532 24.199 9.70648L22.4868 8.87173C22.1324 8.69876 21.9855 8.27089 22.1585 7.91661C22.3315 7.56232 22.7584 7.41579 23.1136 7.58736L24.8259 8.42211C25.1802 8.59507 25.3271 9.02295 25.1542 9.37723C25.0305 9.63111 24.7765 9.77857 24.5115 9.77857Z" fill="#00A63F"></path>
<path d="M6.42857 5.60434H4.52385C4.12954 5.60434 3.80957 5.28437 3.80957 4.89006C3.80957 4.49575 4.12954 4.17578 4.52385 4.17578H6.42857C6.82288 4.17578 7.14285 4.49575 7.14285 4.89006C7.14285 5.28437 6.82288 5.60434 6.42857 5.60434Z" fill="#00A63F"></path>
<path d="M7.19901 2.26342C7.09392 2.26342 6.98789 2.24017 6.88655 2.19132L5.1743 1.35611C4.81992 1.18314 4.67301 0.755262 4.84598 0.40098C5.01895 0.0466992 5.44401 -0.0998321 5.80111 0.0717304L7.51336 0.906949C7.86773 1.07992 8.01464 1.50779 7.84167 1.86207C7.71801 2.11595 7.46405 2.26342 7.19901 2.26342Z" fill="#00A63F"></path>
<path d="M5.48864 9.77542C5.22361 9.77542 4.96964 9.62805 4.84598 9.37408C4.67301 9.0197 4.81992 8.59192 5.1743 8.41895L6.88655 7.5842C7.24551 7.41077 7.66964 7.55955 7.84167 7.91345C8.01464 8.26783 7.86773 8.69561 7.51336 8.86858L5.80111 9.70333C5.69976 9.75217 5.5928 9.77542 5.48864 9.77542Z" fill="#00A63F"></path>
</g>
</g>
<defs>
<clipPath id="clip0_815_16558">
<rect width="30" height="30" fill="white"></rect>
</clipPath>
<clipPath id="clip1_815_16558">
<rect width="30" height="30" fill="white"></rect>
</clipPath>
</defs>
</svg>