<svg xmlns="http://www.w3.org/2000/svg" width="31" height="30" viewBox="0 0 31 30" fill="none" class="svg replaced-svg">
<g clip-path="url(#clip0_815_16418)">
<path d="M27.6875 1.875H25.8125C25.2943 1.875 24.875 2.29477 24.875 2.8125C24.875 3.21573 25.1323 3.55242 25.4896 3.68477L25.2165 3.95782C22.2268 6.94754 18.5142 8.9435 14.4766 9.81188C15.123 10.2345 15.7051 10.7446 16.2126 11.3231C20.0803 10.25 23.6272 8.19906 26.5422 5.28351L26.8152 5.01051C26.9475 5.36762 27.284 5.625 27.6875 5.625C28.2057 5.625 28.625 5.20523 28.625 4.6875V2.8125C28.625 2.29477 28.2057 1.875 27.6875 1.875Z" fill="#00A63F"></path>
<path d="M20.5425 24.73L17.6496 21.8371C17.2834 21.4709 16.6899 21.4709 16.3237 21.8371L16.0492 22.1116L15.6247 21.6872C16.7161 20.3846 17.375 18.7074 17.375 16.875C17.375 12.7329 14.0171 9.375 9.875 9.375C5.73287 9.375 2.375 12.7329 2.375 16.875C2.375 21.0171 5.73287 24.375 9.875 24.375C11.7074 24.375 13.3846 23.7161 14.6872 22.6247L15.1117 23.0491L14.8371 23.3237C14.4709 23.6899 14.4709 24.2834 14.8371 24.6496L17.73 27.5425C18.5066 28.3191 19.7658 28.3191 20.5425 27.5425C21.3191 26.7658 21.3191 25.5066 20.5425 24.73ZM9.875 23.4375C6.25626 23.4375 3.3125 20.4938 3.3125 16.875C3.3125 13.2562 6.25626 10.3125 9.875 10.3125C13.4938 10.3125 16.4375 13.2562 16.4375 16.875C16.4375 20.4938 13.4938 23.4375 9.875 23.4375Z" fill="#00A63F"></path>
<path d="M9.875 11.25C6.77359 11.25 4.25 13.7735 4.25 16.875C4.25 17.5184 4.36398 18.1345 4.56385 18.7108L7.19983 16.0748C7.38293 15.8917 7.67957 15.8917 7.86267 16.0748L9.40625 17.6184L12.0247 15H11.2812C11.0222 15 10.8125 14.7903 10.8125 14.5312C10.8125 14.2722 11.0222 14.0625 11.2812 14.0625H13.1562C13.4153 14.0625 13.625 14.2722 13.625 14.5312V16.4062C13.625 16.6653 13.4153 16.875 13.1562 16.875C12.8972 16.875 12.6875 16.6653 12.6875 16.4062V15.6628L9.73767 18.6127C9.55457 18.7958 9.25793 18.7958 9.07483 18.6127L7.53125 17.0691L4.97401 19.6263C5.93943 21.3389 7.77306 22.5 9.875 22.5C12.9765 22.5 15.5 19.9765 15.5 16.875C15.5 13.7735 12.9765 11.25 9.875 11.25Z" fill="#00A63F"></path>
<path d="M28.625 19.6875H25.8125V9.84375C25.8125 9.58487 26.0224 9.375 26.2812 9.375H28.1562C28.4151 9.375 28.625 9.58487 28.625 9.84375V19.6875Z" fill="#00A63F"></path>
<path d="M24.875 19.6875H22.0625V12.6562C22.0625 12.3974 22.2724 12.1875 22.5312 12.1875H24.4062C24.6651 12.1875 24.875 12.3974 24.875 12.6562V19.6875Z" fill="#00A63F"></path>
<path d="M21.125 19.6875H18.3125V15.4688C18.3125 15.2099 18.5224 15 18.7812 15H20.6562C20.9151 15 21.125 15.2099 21.125 15.4688V19.6875Z" fill="#00A63F"></path>
</g>
<defs>
<clipPath id="clip0_815_16418">
<rect width="30" height="30" fill="white" transform="translate(0.5)"></rect>
</clipPath>
</defs>
</svg>