<svg xmlns="http://www.w3.org/2000/svg" width="30" height="30" viewBox="0 0 30 30" fill="none" class="svg replaced-svg">
<g clip-path="url(#clip0_815_16489)">
<g clip-path="url(#clip1_815_16489)">
<path d="M15.1173 1.46484C6.40329 1.46484 -0.0527536 9.58054 1.93789 18.1042C2.07535 18.0817 1.77723 18.1097 5.73474 17.7801C3.87768 11.5279 8.58495 5.21481 15.1173 5.21481C20.5126 5.21481 24.9024 9.60462 24.9024 14.9999C24.9024 21.4083 18.7985 26.1199 12.5849 24.4528C12.2674 28.2666 12.2725 28.2087 12.2697 28.2367C16.6789 29.1744 21.3472 27.9112 24.6879 24.5705C29.9776 19.2808 29.9781 10.7194 24.6879 5.42927C22.1315 2.87284 18.7325 1.46484 15.1173 1.46484Z" fill="#00A63F"></path>
<path d="M27.0473 3.84413L27.9848 2.90663C28.328 2.56339 28.328 2.00692 27.9848 1.66368C27.6416 1.32044 27.085 1.32044 26.7418 1.66368L25.8043 2.60118C25.4611 2.94442 25.4611 3.50089 25.8043 3.84413C26.1475 4.18737 26.7041 4.18737 27.0473 3.84413Z" fill="#00A63F"></path>
<path d="M23.2784 2.68796C23.7287 2.87346 24.2416 2.65719 24.4257 2.20989L24.8359 1.2138C25.0207 0.764968 24.8066 0.251277 24.3578 0.066472C23.9089 -0.11845 23.3952 0.0957103 23.2105 0.544538L22.8003 1.54063C22.6155 1.9894 22.8296 2.50309 23.2784 2.68796Z" fill="#00A63F"></path>
<path d="M29.5553 5.17353C29.3382 4.73941 28.8104 4.56339 28.3762 4.78048L27.4387 5.24923C27.0045 5.46632 26.8285 5.99425 27.0456 6.42843C27.2623 6.86185 27.7899 7.03892 28.2248 6.82148L29.1623 6.35273C29.5964 6.13564 29.7724 5.60771 29.5553 5.17353Z" fill="#00A63F"></path>
<path d="M10.2333 19.171L2.2784 19.834C1.53432 19.896 1.20163 20.803 1.72997 21.3313L3.10052 22.7019L0.605678 25.2234C0.265543 25.5672 0.267067 26.1211 0.609017 26.463L3.89024 29.7443C4.23184 30.0859 4.78584 30.0879 5.12984 29.7475L7.65135 27.2527L9.02196 28.6233C9.54989 29.1512 10.4572 28.8194 10.5193 28.0748L11.1822 20.1198C11.2271 19.5796 10.7761 19.1261 10.2333 19.171Z" fill="#00A63F"></path>
<path d="M15.1171 6.97266C10.691 6.97266 7.08984 10.5738 7.08984 14.9999C7.08984 15.921 7.2457 16.8058 7.53281 17.6302C10.2734 17.402 10.1547 17.4081 10.3066 17.4081C11.863 17.4081 13.0606 18.7415 12.9339 20.264L12.7341 22.6657C17.8735 24.2695 23.1444 20.4137 23.1444 14.9999C23.1444 10.5738 19.5433 6.97266 15.1171 6.97266ZM17.64 16.7492C17.4801 17.7003 16.8213 18.4562 15.9569 18.7688V18.9887C15.9569 19.4882 15.5403 19.8904 15.0356 19.8666C14.5628 19.8443 14.1991 19.4371 14.1991 18.9638V18.8683C13.8029 18.7988 13.4402 18.6523 12.9869 18.3596C12.583 18.0988 12.4364 17.5637 12.6844 17.1518C12.9428 16.7225 13.5033 16.5971 13.919 16.8689C14.3473 17.1491 14.4855 17.1709 15.0719 17.167C15.6373 17.1632 15.8626 16.7194 15.9066 16.4578C15.946 16.2229 15.9017 15.9106 15.4661 15.7566C14.7364 15.4987 13.988 15.2027 13.458 14.7868C12.2509 13.8401 12.6153 11.6776 14.1991 11.1023V11.0112C14.1991 10.5117 14.6158 10.1095 15.1205 10.1333C15.5689 10.1544 15.9569 10.5317 15.9569 11.0519C16.3578 11.1497 16.667 11.296 16.9795 11.4876C17.4053 11.7488 17.5302 12.3143 17.2461 12.732C16.9966 13.0987 16.4779 13.242 16.0125 12.9566C15.7728 12.8095 15.3468 12.6573 14.9474 12.734C14.7358 12.7746 14.5501 12.9134 14.5089 13.1326C14.4803 13.2843 14.5284 13.38 14.5428 13.4037C14.6734 13.6198 15.4917 13.9013 16.0519 14.0994C17.2001 14.5052 17.8383 15.5701 17.64 16.7492Z" fill="#00A63F"></path>
</g>
</g>
<defs>
<clipPath id="clip0_815_16489">
<rect width="30" height="30" fill="white"></rect>
</clipPath>
<clipPath id="clip1_815_16489">
<rect width="30" height="30" fill="white"></rect>
</clipPath>
</defs>
</svg>