<svg xmlns="http://www.w3.org/2000/svg" width="31" height="30" viewBox="0 0 31 30" fill="none" class="svg replaced-svg">
<g clip-path="url(#clip0_816_16610)">
<path fill-rule="evenodd" clip-rule="evenodd" d="M13.4262 13.1161L14.4558 15.5924C14.5628 15.8497 14.453 16.144 14.2053 16.2714L13.4323 16.6692C13.2942 16.7402 13.1486 16.7492 13.0028 16.6957C12.8571 16.6422 12.7524 16.5408 12.6925 16.3975L11.5329 13.6235L13.4262 13.1161ZM19.9058 20.5638L28.9121 28.3692C28.9533 28.2498 28.9768 28.1221 28.9768 27.9888V13.1777C28.9768 13.0451 28.9539 12.9185 28.9135 12.8002L19.9058 20.5638ZM15.5352 22.7835L28.0169 12.0258C27.9478 12.0134 27.8776 12.0056 27.8049 12.0056H24.6916C24.7266 13.1081 23.9978 14.1417 22.8908 14.4383C21.8836 14.7082 20.8347 14.2985 20.2618 13.4733C18.536 12.8093 16.4562 12.6352 14.549 12.7643L15.5379 15.1426C15.878 15.9608 15.5288 16.9084 14.7414 17.3135L13.9684 17.7113C13.5395 17.9319 13.0516 17.962 12.5988 17.7957C12.147 17.6298 11.7969 17.2935 11.6114 16.8496L10.3744 13.8907C8.84984 14.0651 7.35881 13.3044 6.58859 12.0056H3.19543C3.1932 12.0056 3.19127 12.0056 3.18904 12.0056L15.5352 22.7835ZM15.9155 24.0035L19.0087 21.3374L28.0135 29.1408C27.9461 29.1533 27.8762 29.1608 27.8049 29.1608H3.19537C3.19426 29.1608 3.19373 29.1608 3.19262 29.1608L12.101 21.3408L15.148 24.0005C15.2582 24.0973 15.3954 24.1451 15.533 24.1451C15.6696 24.145 15.8053 24.0978 15.9155 24.0035ZM11.2105 20.5638L2.15006 28.5162C2.0699 28.3575 2.02344 28.1787 2.02344 27.9888V13.1777C2.02344 12.989 2.06932 12.8115 2.14895 12.6532L11.2105 20.5638ZM25.224 9.27422L27.0656 9.76764C27.3601 9.84657 27.663 9.66985 27.7412 9.37553C27.8195 9.08081 27.6431 8.7784 27.3489 8.6996L25.5073 8.20618C25.2127 8.12725 24.9099 8.30397 24.8317 8.59829C24.7533 8.89301 24.9297 9.19542 25.224 9.27422ZM24.3373 3.83965L25.6854 2.49153C25.9008 2.27614 25.9024 1.9261 25.6872 1.71001C25.4722 1.49421 25.1217 1.49256 24.906 1.70825L23.5579 3.05637C23.3425 3.27176 23.3409 3.6218 23.5561 3.8379C23.771 4.0537 24.1216 4.05534 24.3373 3.83965ZM25.9561 6.32098L27.7019 5.85317C27.9982 5.77378 28.1741 5.46921 28.0947 5.17284C28.0153 4.87647 27.7107 4.70063 27.4143 4.78003L25.6685 5.24784C25.3721 5.32723 25.1963 5.6318 25.2757 5.92817C25.3551 6.22454 25.6597 6.40038 25.9561 6.32098ZM22.5231 8.19592C22.589 8.18749 22.6551 8.1746 22.721 8.1569C23.5167 7.94368 23.9889 7.12583 23.7757 6.33012C23.5624 5.53442 22.7446 5.06227 21.9489 5.27544C21.8829 5.29313 21.8192 5.31499 21.758 5.34059L20.8023 1.77393C20.6229 1.10432 19.9282 0.703249 19.2586 0.882663C18.6349 1.04977 18.2357 1.66964 18.3414 2.30649L18.3414 2.30655C17.1724 3.89491 15.1886 5.45532 12.7494 6.58536L14.0991 11.6227C16.7777 11.3844 19.2799 11.7543 21.0865 12.5454H21.0866C21.316 13.1355 21.9627 13.4736 22.5875 13.3062C23.2544 13.1275 23.6575 12.4293 23.4788 11.7625L22.5231 8.19592ZM12.9921 12.0192L10.6277 12.6527C9.19103 13.0377 7.70064 12.1772 7.31568 10.7406C6.93072 9.30399 7.79123 7.81348 9.22789 7.42852L11.5923 6.79501C12.0588 8.53641 12.5253 10.2778 12.9921 12.0192Z" fill="#00A63F"></path>
</g>
<defs>
<clipPath id="clip0_816_16610">
<rect width="30" height="30" fill="white" transform="translate(0.5)"></rect>
</clipPath>
</defs>
</svg>