<svg xmlns="http://www.w3.org/2000/svg" width="31" height="30" viewBox="0 0 31 30" fill="none" class="svg replaced-svg">
<g clip-path="url(#clip0_815_16457)">
<path d="M16.4375 24.3734L15.5 28.1234L19.25 27.1859L23.7406 22.6953L20.9281 19.8828L16.4375 24.3734Z" fill="#00A63F"></path>
<path d="M24.7624 16.875C24.5013 16.8748 24.2427 16.926 24.0014 17.0257C23.7602 17.1255 23.5409 17.2717 23.3562 17.4563L22.2593 18.5531L25.0718 21.3656L26.1687 20.2688C26.447 19.9908 26.6365 19.6365 26.7134 19.2507C26.7902 18.865 26.7508 18.4651 26.6003 18.1017C26.4497 17.7383 26.1947 17.4278 25.8675 17.2094C25.5404 16.991 25.1557 16.8747 24.7624 16.875Z" fill="#00A63F"></path>
<path d="M18.3125 7.5H23L17.375 1.875V6.5625C17.375 6.81114 17.4738 7.0496 17.6496 7.22541C17.8254 7.40123 18.0639 7.5 18.3125 7.5Z" fill="#00A63F"></path>
<path d="M22.0625 16.1344C22.3405 15.8598 22.6562 15.6262 23 15.4406V9.375H18.3125C17.5666 9.375 16.8512 9.07868 16.3238 8.55124C15.7963 8.02379 15.5 7.30842 15.5 6.5625V1.875H6.125C5.62772 1.875 5.15081 2.07254 4.79917 2.42417C4.44754 2.77581 4.25 3.25272 4.25 3.75V26.25C4.25 26.7473 4.44754 27.2242 4.79917 27.5758C5.15081 27.9275 5.62772 28.125 6.125 28.125H13.5687L14.7406 23.4375L22.0625 16.1344ZM8.9375 8.4375H12.6875C12.9361 8.4375 13.1746 8.53627 13.3504 8.71209C13.5262 8.8879 13.625 9.12636 13.625 9.375C13.625 9.62364 13.5262 9.8621 13.3504 10.0379C13.1746 10.2137 12.9361 10.3125 12.6875 10.3125H8.9375C8.68886 10.3125 8.4504 10.2137 8.27459 10.0379C8.09877 9.8621 8 9.62364 8 9.375C8 9.12636 8.09877 8.8879 8.27459 8.71209C8.4504 8.53627 8.68886 8.4375 8.9375 8.4375ZM13.625 21.5625H8.9375C8.68886 21.5625 8.4504 21.4637 8.27459 21.2879C8.09877 21.1121 8 20.8736 8 20.625C8 20.3764 8.09877 20.1379 8.27459 19.9621C8.4504 19.7863 8.68886 19.6875 8.9375 19.6875H13.625C13.8736 19.6875 14.1121 19.7863 14.2879 19.9621C14.4637 20.1379 14.5625 20.3764 14.5625 20.625C14.5625 20.8736 14.4637 21.1121 14.2879 21.2879C14.1121 21.4637 13.8736 21.5625 13.625 21.5625ZM17.375 17.8125H8.9375C8.68886 17.8125 8.4504 17.7137 8.27459 17.5379C8.09877 17.3621 8 17.1236 8 16.875C8 16.6264 8.09877 16.3879 8.27459 16.2121C8.4504 16.0363 8.68886 15.9375 8.9375 15.9375H17.375C17.6236 15.9375 17.8621 16.0363 18.0379 16.2121C18.2137 16.3879 18.3125 16.6264 18.3125 16.875C18.3125 17.1236 18.2137 17.3621 18.0379 17.5379C17.8621 17.7137 17.6236 17.8125 17.375 17.8125ZM18.3125 14.0625H8.9375C8.68886 14.0625 8.4504 13.9637 8.27459 13.7879C8.09877 13.6121 8 13.3736 8 13.125C8 12.8764 8.09877 12.6379 8.27459 12.4621C8.4504 12.2863 8.68886 12.1875 8.9375 12.1875H18.3125C18.5611 12.1875 18.7996 12.2863 18.9754 12.4621C19.1512 12.6379 19.25 12.8764 19.25 13.125C19.25 13.3736 19.1512 13.6121 18.9754 13.7879C18.7996 13.9637 18.5611 14.0625 18.3125 14.0625Z" fill="#00A63F"></path>
</g>
<defs>
<clipPath id="clip0_815_16457">
<rect width="30" height="30" fill="white" transform="translate(0.5)"></rect>
</clipPath>
</defs>
</svg>