<svg width="51" height="50" viewBox="0 0 51 50" fill="none" xmlns="http://www.w3.org/2000/svg">
<g clip-path="url(#clip0_810_12218)">
<g clip-path="url(#clip1_810_12218)">
<g clip-path="url(#clip2_810_12218)">
<path d="M36.3495 36.8616C36.9667 37.1329 37.687 36.8525 37.9583 36.2354L43.1098 24.5166C43.4644 23.7099 42.8735 22.8047 41.9923 22.8047H35.5454C34.8712 22.8047 34.3247 23.3512 34.3247 24.0254C34.3247 24.6996 34.8712 25.2461 35.5454 25.2461H40.1222L35.7232 35.2529C35.452 35.8701 35.7323 36.5903 36.3495 36.8616Z" fill="#00A63F"/>
<path d="M24.349 27.1839C24.4115 27.1957 24.4305 27.1957 24.4533 27.1957C25.1224 27.1957 25.6679 26.6561 25.6738 25.9855C25.6773 25.57 25.6841 24.7507 25.6918 23.737H25.9777C26.6595 23.737 27.2108 23.178 27.1982 22.4934C27.1859 21.8214 26.6093 21.2956 25.9372 21.2956H25.7081C25.7248 18.4587 25.7339 15.387 25.6989 14.9671C25.6244 14.0734 25.0903 13.3456 24.3381 13.1126C23.5934 12.8818 22.7984 13.1739 22.2118 13.8937C21.7279 14.4874 19.0527 19.245 17.5596 21.9224C17.1058 22.736 17.6945 23.737 18.626 23.737H23.2501C23.2447 24.4723 23.2391 25.1801 23.2337 25.8242C23.2279 26.4873 23.6973 27.0606 24.349 27.1839ZM20.6925 21.2956C21.6673 19.5505 22.6219 17.8728 23.2818 16.7544C23.2828 17.9173 23.2761 19.5755 23.2661 21.2956H20.6925Z" fill="#00A63F"/>
<path d="M13.3136 19.4406C11.4917 22.0437 10.4046 23.467 9.82059 24.2317C9.09725 25.1789 8.79784 25.5709 9.00751 26.2527C9.13006 26.6513 9.43212 26.9571 9.83641 27.092C9.99901 27.1462 10.1649 27.2018 12.3944 27.2018C13.2689 27.2018 14.4613 27.1932 16.0949 27.1727C16.769 27.1642 17.3087 26.6108 17.3002 25.9367C17.2918 25.2626 16.7369 24.7255 16.0642 24.7314C14.8387 24.7469 13.5357 24.7566 12.4856 24.7577C13.1298 23.8992 14.0477 22.6495 15.3138 20.8406C16.0423 19.7997 16.517 18.8175 16.7248 17.9211C16.7572 17.7424 16.8072 17.3819 16.8131 17.2009C16.8131 14.9061 14.9461 13.0391 12.6513 13.0391C10.6671 13.0391 8.9496 14.4507 8.56756 16.3954C8.43758 17.0569 8.86854 17.6985 9.53006 17.8285C10.1916 17.9583 10.8332 17.5275 10.9632 16.866C11.1209 16.0632 11.8308 15.4805 12.6513 15.4805C13.5773 15.4805 14.3348 16.2159 14.3704 17.1334L14.3332 17.4246C14.1879 18.0032 13.8451 18.6811 13.3136 19.4406Z" fill="#00A63F"/>
<path d="M48.1042 15.4292C47.7953 14.6816 46.9388 14.3259 46.191 14.6348C45.4433 14.9438 45.0876 15.8003 45.3965 16.548C48.8159 24.824 46.9348 34.2621 40.6041 40.5927C36.4355 44.7613 30.8932 47.057 24.998 47.057C20.4165 47.057 16.0495 45.6683 12.3737 43.0934H15.2637C16.0727 43.0934 16.7285 42.4375 16.7285 41.6286C16.7285 40.8196 16.0727 40.1637 15.2637 40.1637H8.3584C7.54941 40.1637 6.89355 40.8196 6.89355 41.6286V48.5339C6.89355 49.3429 7.54941 49.9988 8.3584 49.9988C9.16738 49.9988 9.82324 49.3429 9.82324 48.5339V44.8566C14.1604 48.1833 19.4402 49.9867 24.9981 49.9867C31.6759 49.9867 37.954 47.3863 42.6758 42.6643C46.2383 39.1018 48.6172 34.6122 49.5551 29.6811C50.4701 24.8697 49.9686 19.9414 48.1042 15.4292Z" fill="#00A63F"/>
<path d="M4.60768 33.4482C1.18249 25.1698 3.06208 15.7279 9.39606 9.39395C13.5646 5.22539 19.107 2.92969 25.0022 2.92969C29.5915 2.92969 33.9662 4.32217 37.646 6.90537H34.7365C33.9275 6.90537 33.2716 7.56123 33.2716 8.37021C33.2716 9.1792 33.9275 9.83506 34.7365 9.83506H41.6419C42.4508 9.83506 43.1067 9.1792 43.1067 8.37021V1.46484C43.1067 0.655859 42.4508 0 41.6419 0C40.8329 0 40.177 0.655859 40.177 1.46484V5.12969C35.8398 1.80303 30.56 0 25.0022 0C18.3245 0 12.0464 2.60039 7.32448 7.32236C3.76042 10.8864 1.38122 15.3779 0.444107 20.3112C-0.470346 25.1251 0.0332674 30.0551 1.90065 34.5684C2.20993 35.3159 3.06667 35.6712 3.81422 35.3619C4.56159 35.0526 4.91696 34.1959 4.60768 33.4482Z" fill="#00A63F"/>
<path d="M26.0135 34.9217C26.64 35.1708 27.3497 34.865 27.5989 34.2386L33.8135 18.6135C34.0626 17.987 33.7569 17.2773 33.1304 17.0281C32.5039 16.779 31.7942 17.0849 31.545 17.7112L25.3305 33.3363C25.0812 33.9627 25.387 34.6726 26.0135 34.9217Z" fill="#00A63F"/>
</g>
</g>
</g>
<defs>
<clipPath id="clip0_810_12218">
<rect width="50" height="50" fill="white" transform="translate(0.5)"/>
</clipPath>
<clipPath id="clip1_810_12218">
<rect width="50" height="50" fill="white"/>
</clipPath>
<clipPath id="clip2_810_12218">
<rect width="50" height="50" fill="white"/>
</clipPath>
</defs>
</svg>
