<svg width="50" height="50" viewBox="0 0 50 50" fill="none" xmlns="http://www.w3.org/2000/svg">
<path d="M40.9089 50C41.8131 50 42.6802 49.6408 43.3195 49.0015C43.9588 48.3622 44.318 47.4951 44.318 46.5909V3.40909C44.318 2.50494 43.9588 1.63783 43.3195 0.9985C42.6802 0.359171 41.8131 0 40.9089 0H9.09073C8.18658 0 7.31947 0.359171 6.68014 0.9985C6.04081 1.63783 5.68164 2.50494 5.68164 3.40909V46.5909C5.68164 47.4951 6.04081 48.3622 6.68014 49.0015C7.31947 49.6408 8.18658 50 9.09073 50H40.9089ZM37.4998 45.4545V47.7273H31.818V45.4545H37.4998ZM29.5453 47.7273H12.4998V45.4545H29.5453V47.7273ZM7.95437 46.5909V3.40909C7.95437 3.10771 8.07409 2.81867 8.2872 2.60556C8.50031 2.39245 8.78935 2.27273 9.09073 2.27273H40.9089C41.2103 2.27273 41.4993 2.39245 41.7124 2.60556C41.9256 2.81867 42.0453 3.10771 42.0453 3.40909V46.5909C42.0453 46.8923 41.9256 47.1813 41.7124 47.3944C41.4993 47.6075 41.2103 47.7273 40.9089 47.7273H39.7725V44.3182C39.7725 44.0168 39.6528 43.7278 39.4397 43.5147C39.2266 43.3015 38.9376 43.1818 38.6362 43.1818H11.3635C11.0621 43.1818 10.773 43.3015 10.5599 43.5147C10.3468 43.7278 10.2271 44.0168 10.2271 44.3182V47.7273H9.09073C8.78935 47.7273 8.50031 47.6075 8.2872 47.3944C8.07409 47.1813 7.95437 46.8923 7.95437 46.5909Z" fill="#00A63F"/>
<path d="M22.7272 25.0018C22.4258 25.0018 22.1368 25.1215 21.9237 25.3346C21.7105 25.5477 21.5908 25.8368 21.5908 26.1381C21.5908 26.4395 21.7105 26.7286 21.9237 26.9417C22.1368 27.1548 22.4258 27.2745 22.7272 27.2745H26.1363C26.739 27.2745 27.3171 27.0351 27.7433 26.6088C28.1696 26.1826 28.409 25.6045 28.409 25.0018V23.8654C28.409 23.2626 28.1696 22.6846 27.7433 22.2584C27.3171 21.8321 26.739 21.5927 26.1363 21.5927H23.8635V20.4563H27.2726C27.574 20.4563 27.8631 20.3366 28.0762 20.1235C28.2893 19.9104 28.409 19.6213 28.409 19.32C28.409 19.0186 28.2893 18.7295 28.0762 18.5164C27.8631 18.3033 27.574 18.1836 27.2726 18.1836H23.8635C23.2608 18.1836 22.6827 18.423 22.2565 18.8493C21.8303 19.2755 21.5908 19.8536 21.5908 20.4563V21.5927C21.5908 22.1954 21.8303 22.7735 22.2565 23.1997C22.6827 23.626 23.2608 23.8654 23.8635 23.8654H26.1363V25.0018H22.7272Z" fill="#00A63F"/>
<path d="M14.7726 25.0018C14.4712 25.0018 14.1822 25.1215 13.9691 25.3346C13.756 25.5477 13.6362 25.8368 13.6362 26.1381C13.6362 26.4395 13.756 26.7286 13.9691 26.9417C14.1822 27.1548 14.4712 27.2745 14.7726 27.2745H18.1817C18.7844 27.2745 19.3625 27.0351 19.7887 26.6088C20.215 26.1826 20.4544 25.6045 20.4544 25.0018V23.8654C20.4544 23.2626 20.215 22.6846 19.7887 22.2584C19.3625 21.8321 18.7844 21.5927 18.1817 21.5927H15.909V20.4563H19.318C19.6194 20.4563 19.9085 20.3366 20.1216 20.1235C20.3347 19.9104 20.4544 19.6213 20.4544 19.32C20.4544 19.0186 20.3347 18.7295 20.1216 18.5164C19.9085 18.3033 19.6194 18.1836 19.318 18.1836H15.909C15.3062 18.1836 14.7281 18.423 14.3019 18.8493C13.8757 19.2755 13.6362 19.8536 13.6362 20.4563V21.5927C13.6362 22.1954 13.8757 22.7735 14.3019 23.1997C14.7281 23.626 15.3062 23.8654 15.909 23.8654H18.1817V25.0018H14.7726Z" fill="#00A63F"/>
<path d="M30.6818 27.2745H32.9545C33.8586 27.2745 34.7258 26.9153 35.3651 26.276C36.0044 25.6367 36.3636 24.7696 36.3636 23.8654V21.5927C36.3636 20.6885 36.0044 19.8214 35.3651 19.1821C34.7258 18.5428 33.8586 18.1836 32.9545 18.1836H30.6818C30.3804 18.1836 30.0914 18.3033 29.8782 18.5164C29.6651 18.7295 29.5454 19.0186 29.5454 19.32V26.1381C29.5454 26.4395 29.6651 26.7286 29.8782 26.9417C30.0914 27.1548 30.3804 27.2745 30.6818 27.2745ZM31.8181 20.4563H32.9545C33.2559 20.4563 33.5449 20.576 33.758 20.7892C33.9711 21.0023 34.0909 21.2913 34.0909 21.5927V23.8654C34.0909 24.1668 33.9711 24.4558 33.758 24.6689C33.5449 24.8821 33.2559 25.0018 32.9545 25.0018H31.8181V20.4563Z" fill="#00A63F"/>
</svg>
