<svg xmlns="http://www.w3.org/2000/svg" width="41" height="40" viewBox="0 0 41 40" fill="none" class="svg replaced-svg">
<g clip-path="url(#clip0_842_5723)">
<path d="M29.1292 8.9683C30.0896 8.9683 30.8711 8.18673 30.8711 7.22634C30.8711 6.26595 30.0896 5.48438 29.1292 5.48438C28.1688 5.48438 27.3872 6.26595 27.3872 7.22634C27.3872 8.18673 28.1688 8.9683 29.1292 8.9683ZM29.1292 6.64566C29.4491 6.64566 29.7098 6.90637 29.7098 7.22634C29.7098 7.5463 29.4491 7.80701 29.1292 7.80701C28.8092 7.80701 28.5485 7.5463 28.5485 7.22634C28.5485 6.90637 28.8092 6.64566 29.1292 6.64566Z" fill="#00A63F"></path>
<path d="M25.0645 6.64453H26.2257V7.80581H25.0645V6.64453Z" fill="#00A63F"></path>
<path d="M32.0322 6.64453H33.1935V7.80581H32.0322V6.64453Z" fill="#00A63F"></path>
<path d="M5.90332 11.2891H8.22589V12.4503H5.90332V11.2891Z" fill="#00A63F"></path>
<path d="M9.38721 11.2891H12.8711V12.4503H9.38721V11.2891Z" fill="#00A63F"></path>
<path d="M5.90332 13.6133H11.7098V14.7746H5.90332V13.6133Z" fill="#00A63F"></path>
<path d="M5.90332 15.9336H10.5485V17.0949H5.90332V15.9336Z" fill="#00A63F"></path>
<path d="M37.8387 20.5807H29.6801C29.6928 20.3879 29.7097 20.1963 29.7097 20C29.7097 15.1975 25.8025 11.2903 21 11.2903C19.5321 11.2903 18.1502 11.659 16.9355 12.303V7.80649H23.9032V6.64513H16.9355V3.16128C16.9355 2.52086 16.4147 2 15.7742 2H4.16128C3.52086 2 3 2.52086 3 3.16128V18.258C3 18.8985 3.52086 19.4193 4.16128 19.4193H12.3199C12.3072 19.6121 12.2903 19.8037 12.2903 20C12.2903 24.8025 16.1975 28.7097 21 28.7097C22.4679 28.7097 23.8498 28.341 25.0645 27.697V32.1936H18.0968V33.3549H25.0645V36.8387C25.0645 37.4791 25.5854 38 26.2258 38H37.8387C38.4791 38 39 37.4791 39 36.8387V21.742C39 21.1015 38.4792 20.5807 37.8387 20.5807ZM18.0968 20C18.0968 19.0146 18.2541 18.0351 18.5432 17.0968H23.4561C23.7458 18.0351 23.9032 19.0146 23.9032 20C23.9032 20.9854 23.7458 21.9649 23.4567 22.9032H18.5439C18.2541 21.9649 18.0968 20.9854 18.0968 20ZM20.0709 14.0774L21 12.8384L21.9291 14.0774C22.3616 14.654 22.7222 15.2799 23.0178 15.9355H18.9828C19.2778 15.2805 19.6384 14.654 20.0709 14.0774ZM17.7234 15.9355H14.6495C15.7789 14.1773 17.6149 12.9207 19.7552 12.5631L19.142 13.3807C18.5543 14.1639 18.0828 15.0279 17.7234 15.9355ZM23.0178 24.0645C22.7223 24.7195 22.3616 25.346 21.9291 25.9226L21 27.1611L20.0709 25.9226C19.6384 25.346 19.2778 24.7201 18.9822 24.0645H23.0178ZM22.858 26.6194C23.4457 25.8361 23.9172 24.9727 24.2766 24.0645H27.3505C26.2211 25.8227 24.3851 27.0793 22.2448 27.4369L22.858 26.6194ZM27.966 22.9032H24.6639C24.9223 21.9591 25.0646 20.9825 25.0646 20C25.0646 19.0175 24.9229 18.0409 24.6639 17.0968H27.966C28.34 17.9909 28.5484 18.9716 28.5484 20C28.5484 21.0284 28.34 22.009 27.966 22.9032ZM27.3505 15.9355H24.2766C23.9172 15.0279 23.4457 14.1639 22.8581 13.3806L22.2449 12.563C24.3852 12.9207 26.2211 14.1773 27.3505 15.9355ZM4.16128 18.258V3.16128H15.7742V6.64513H9.88122L11.4919 5.3567L10.7667 4.44972L7.29613 7.22581L10.7661 10.0019L11.4913 9.09492L9.88122 7.80649H15.7742V13.0492C14.1066 14.3062 12.8977 16.1399 12.4657 18.2581L4.16128 18.258ZM14.034 17.0968H17.3361C17.0772 18.0409 16.9355 19.0175 16.9355 20C16.9355 20.9825 17.0772 21.9591 17.3361 22.9032H14.034C13.6601 22.0091 13.4516 21.0284 13.4516 20C13.4516 18.9716 13.66 17.991 14.034 17.0968ZM14.6495 24.0645H17.7234C18.0828 24.9721 18.5543 25.8361 19.1419 26.6194L19.755 27.437C17.6148 27.0793 15.7789 25.8227 14.6495 24.0645ZM37.8387 36.8387H26.2258V33.3549H32.1188L30.5081 34.6433L31.2333 35.5503L34.7039 32.7742L31.2339 29.9981L30.5087 30.9051L32.1189 32.1935H26.2259V26.9509C27.8935 25.6938 29.1024 23.8601 29.5344 21.7419H37.8388V36.8387H37.8387Z" fill="#00A63F"></path>
<path d="M12.8709 31.0312C11.9105 31.0312 11.1289 31.8128 11.1289 32.7732C11.1289 33.7336 11.9105 34.5152 12.8709 34.5152C13.8313 34.5152 14.6128 33.7336 14.6128 32.7732C14.6128 31.8128 13.8313 31.0312 12.8709 31.0312ZM12.8709 33.3538C12.5509 33.3538 12.2902 33.0931 12.2902 32.7731C12.2902 32.4532 12.5509 32.1925 12.8709 32.1925C13.1908 32.1925 13.4515 32.4532 13.4515 32.7731C13.4515 33.0931 13.1908 33.3538 12.8709 33.3538Z" fill="#00A63F"></path>
<path d="M15.7744 32.1953H16.9357V33.3566H15.7744V32.1953Z" fill="#00A63F"></path>
<path d="M8.80664 32.1953H9.96792V33.3566H8.80664V32.1953Z" fill="#00A63F"></path>
<path d="M33.7744 22.9023H36.097V24.0636H33.7744V22.9023Z" fill="#00A63F"></path>
<path d="M30.2905 22.9023H32.6131V24.0636H30.2905V22.9023Z" fill="#00A63F"></path>
<path d="M30.2905 25.2266H36.097V26.3878H30.2905V25.2266Z" fill="#00A63F"></path>
<path d="M31.4517 27.5469H36.0968V28.7082H31.4517V27.5469Z" fill="#00A63F"></path>
</g>
<defs>
<clipPath id="clip0_842_5723">
<rect width="36" height="36" fill="white" transform="translate(3 2)"></rect>
</clipPath>
</defs>
</svg>