<svg width="80" height="80" viewBox="0 0 80 80" fill="none" xmlns="http://www.w3.org/2000/svg">
<path fill-rule="evenodd" clip-rule="evenodd" d="M35.8518 37.351H27.8143C27.1028 37.351 26.6653 37.6526 26.4891 38.0386C26.425 38.1863 26.3919 38.3456 26.3919 38.5066C26.3919 38.6676 26.425 38.8269 26.4891 38.9746C26.6654 39.3605 27.1028 39.6622 27.8143 39.6622H35.8518C36.5633 39.6622 37.0009 39.3605 37.1772 38.9746C37.2414 38.8269 37.2745 38.6676 37.2745 38.5066C37.2745 38.3456 37.2414 38.1863 37.1772 38.0386C37.0009 37.6526 36.5633 37.351 35.8518 37.351ZM28.4592 35.4752H35.2066C35.918 35.4752 36.3556 35.1735 36.5318 34.7876C36.5959 34.6399 36.629 34.4807 36.629 34.3197C36.629 34.1587 36.5959 33.9994 36.5318 33.8517C36.3555 33.4656 35.918 33.1641 35.2066 33.1641H28.4594C27.7478 33.1641 27.3104 33.4656 27.134 33.8517C27.0699 33.9994 27.0369 34.1587 27.0369 34.3197C27.0369 34.4807 27.0699 34.6399 27.134 34.7876C27.3104 35.1735 27.7478 35.4752 28.4594 35.4752H28.4592ZM28.7983 41.5376C28.0867 41.5376 27.6492 41.8391 27.4729 42.2252C27.4088 42.3729 27.3757 42.5322 27.3757 42.6932C27.3757 42.8542 27.4088 43.0134 27.4729 43.1611C27.6492 43.547 28.0867 43.8487 28.7983 43.8487H34.8669C35.5784 43.8487 36.0159 43.547 36.1921 43.1611C36.2562 43.0134 36.2893 42.8542 36.2893 42.6932C36.2893 42.5322 36.2562 42.3729 36.1921 42.2252C36.0158 41.8391 35.5784 41.5376 34.8669 41.5376H28.7988H28.7983ZM30.0987 45.7243C29.3872 45.7243 28.9497 46.0258 28.7735 46.4119C28.7093 46.5595 28.6763 46.7188 28.6763 46.8798C28.6763 47.0408 28.7093 47.2001 28.7735 47.3478C28.9498 47.7337 29.3872 48.0354 30.0987 48.0354H33.5663C34.2778 48.0354 34.7154 47.7337 34.8917 47.3478C34.9558 47.2001 34.9888 47.0408 34.9888 46.8798C34.9888 46.7188 34.9558 46.5596 34.8917 46.4119C34.7154 46.0258 34.2779 45.7243 33.5665 45.7243H30.0992H30.0987ZM16.2386 32.3164H11.2933C11.196 32.3174 11.1029 32.3565 11.0341 32.4253C10.9653 32.4941 10.9262 32.5871 10.9252 32.6845V47.8397C10.9261 47.937 10.9652 48.0301 11.034 48.0989C11.1029 48.1677 11.196 48.2067 11.2933 48.2077H16.2386C16.336 48.2067 16.429 48.1677 16.4979 48.0989C16.5667 48.0301 16.6058 47.937 16.6068 47.8397V32.6845C16.6058 32.5871 16.5666 32.4941 16.4978 32.4253C16.429 32.3565 16.3359 32.3174 16.2386 32.3164ZM14.4753 46.4035C14.4158 46.5137 14.3347 46.6109 14.237 46.6893C14.1393 46.7676 14.0268 46.8256 13.9062 46.8597C13.7857 46.8937 13.6595 46.9033 13.5352 46.8877C13.4109 46.8721 13.291 46.8318 13.1825 46.769C13.0741 46.7062 12.9794 46.6223 12.904 46.5222C12.8286 46.4222 12.7741 46.308 12.7437 46.1865C12.7132 46.065 12.7075 45.9386 12.7268 45.8148C12.7461 45.691 12.79 45.5723 12.8561 45.4659L12.9216 45.3526C13.0492 45.1445 13.2531 44.9945 13.4898 44.9346C13.7265 44.8747 13.9772 44.9096 14.1885 45.032C14.3998 45.1544 14.5549 45.3544 14.6207 45.5895C14.6865 45.8246 14.6579 46.0762 14.5409 46.2905L14.4754 46.4037L14.4753 46.4035ZM27.3933 22.7411C27.4612 22.8112 27.5251 22.8852 27.5844 22.9628C28.2729 23.858 28.6355 25.419 28.1582 27.1211L26.9001 31.6074C26.2498 31.9031 25.7289 32.4246 25.434 33.0752C25.2128 33.5603 25.1248 34.0956 25.1792 34.626C25.2336 35.1564 25.4283 35.6627 25.7434 36.0928C25.3292 36.3932 25.0003 36.7962 24.789 37.2622C24.6091 37.6525 24.516 38.0771 24.516 38.5068C24.516 38.9365 24.6091 39.3612 24.789 39.7514C25.0394 40.3043 25.4546 40.7663 25.9777 41.0742C25.7053 41.4958 25.5437 41.9793 25.508 42.4799C25.4723 42.9806 25.5636 43.4821 25.7734 43.9381C26.0622 44.5755 26.5683 45.0894 27.2012 45.3879C27.1549 45.4687 27.1125 45.5513 27.074 45.6357C26.9006 46.0116 26.8077 46.4196 26.8012 46.8336C26.7948 47.2475 26.8749 47.6582 27.0365 48.0393H21.1337V48.0357C20.5384 48.0234 19.9544 47.8706 19.4294 47.5898C19.0595 47.4064 18.7358 47.1418 18.4825 46.8158V34.1835C18.6143 34.125 18.8026 34.0452 18.9785 33.9706C19.2503 33.8665 19.5122 33.7381 19.7609 33.5869C22.6157 31.6696 23.5468 28.9282 24.5744 25.9023C24.805 25.223 25.0408 24.5291 25.2726 23.9112C25.6445 22.9203 26.0713 22.4431 26.4729 22.3449C26.6351 22.3111 26.8039 22.3346 26.9507 22.4115C27.0904 22.4807 27.2186 22.5713 27.3305 22.68C27.3502 22.7012 27.3709 22.7216 27.3927 22.7411H27.3933ZM37.9209 40.9218C38.336 40.6213 38.6655 40.2178 38.8771 39.7511C39.057 39.3609 39.1501 38.9363 39.1501 38.5065C39.1501 38.0768 39.057 37.6522 38.8771 37.2619C38.6658 36.7959 38.3369 36.3929 37.9227 36.0925C38.2394 35.6633 38.4352 35.1569 38.4896 34.6262C38.544 34.0956 38.4551 33.56 38.2321 33.0754C37.8104 32.152 36.9187 31.4145 35.567 31.3033C36.0667 28.578 37.4863 26.1067 39.5886 24.302C41.6909 22.4972 44.3488 21.4683 47.1183 21.3871C49.8878 21.3058 52.6014 22.1772 54.8059 23.8556C57.0104 25.534 58.5724 27.9178 59.2311 30.6091C59.8897 33.3004 59.6052 36.1362 58.4249 38.643C57.2447 41.1498 55.2402 43.1758 52.7462 44.3827C50.2521 45.5896 47.4195 45.9045 44.7214 45.2746C42.0232 44.6447 39.6228 43.1082 37.9209 40.9218ZM33.8334 51.8547L29.433 62.6617L35.008 59.4971C35.1308 59.4275 35.2677 59.3866 35.4086 59.3775C35.5494 59.3684 35.6905 59.3912 35.8213 59.4444C35.952 59.4976 36.069 59.5797 36.1635 59.6846C36.258 59.7894 36.3275 59.9143 36.3669 60.0499L38.1465 66.2107L42.7355 54.9403C42.401 54.7433 42.0444 54.5865 41.6732 54.4732C41.021 54.2938 40.1946 54.324 39.3713 54.3543C38.0555 54.4024 36.7469 54.4503 35.5965 53.7764C34.8038 53.3121 34.2762 52.6188 33.8323 51.8546L33.8334 51.8547ZM62.2258 49.7072L68.2307 64.4549H68.2292C68.3021 64.6349 68.3172 64.8331 68.2723 65.0221C68.2275 65.211 68.1249 65.3813 67.9789 65.5093C67.8329 65.6373 67.6506 65.7167 67.4574 65.7364C67.2642 65.7561 67.0697 65.7152 66.9008 65.6193L60.0092 61.7077L57.8285 69.258C57.7866 69.4541 57.683 69.6315 57.5327 69.7643C57.3825 69.8971 57.1937 69.9782 56.9939 69.9956C56.7942 70.0131 56.5941 69.966 56.4232 69.8613C56.2522 69.7566 56.1193 69.5998 56.0441 69.414L50.5544 55.9317C49.602 56.504 48.6096 56.9897 47.4556 56.9897C46.3015 56.9897 45.309 56.5043 44.3563 55.9317L38.8667 69.4148C38.7914 69.6006 38.6585 69.7574 38.4876 69.8621C38.3166 69.9668 38.1165 70.0139 37.9168 69.9964C37.7171 69.979 37.5282 69.8979 37.378 69.7651C37.2278 69.6324 37.1241 69.4549 37.0822 69.2588L34.9016 61.7099L28.01 65.6203C27.8412 65.7161 27.6466 65.7571 27.4534 65.7373C27.2603 65.7176 27.078 65.6383 26.932 65.5103C26.7859 65.3823 26.6834 65.212 26.6385 65.023C26.5937 64.8341 26.6088 64.6359 26.6817 64.4559H26.6802L32.6022 49.911H30.0992C30.039 49.911 29.9796 49.9096 29.921 49.9073H21.1337V49.911C20.2344 49.8953 19.3517 49.6672 18.5575 49.2452C18.4189 49.172 18.2838 49.0931 18.1525 49.0085C17.9516 49.336 17.6703 49.6067 17.3354 49.7949C17.0004 49.983 16.6228 50.0822 16.2386 50.0832H11.2933C10.6986 50.0822 10.1285 49.8454 9.70789 49.4249C9.28731 49.0044 9.0505 48.4344 9.04932 47.8397V32.6845C9.05039 32.0897 9.28716 31.5196 9.70777 31.099C10.1284 30.6785 10.6985 30.4418 11.2933 30.4407H16.2386C16.745 30.4418 17.2363 30.6137 17.6329 30.9286C18.0295 31.2435 18.3083 31.683 18.4241 32.1759C18.5261 32.1354 18.6252 32.0878 18.7205 32.0335C21.0451 30.4724 21.8798 28.0145 22.8011 25.3014C23.019 24.6601 23.2416 24.0047 23.5214 23.259C24.14 21.6111 25.0583 20.7663 26.0333 20.5278C26.61 20.3887 27.2173 20.4564 27.7493 20.7189C27.7857 20.7362 27.8219 20.7542 27.8578 20.7732C28.5131 20.1433 29.3449 19.72 30.1751 19.2976C30.894 18.9322 31.6105 18.5673 32.0694 18.1084C32.5282 17.6496 32.8933 16.9324 33.2588 16.2139C33.8493 15.0533 34.4415 13.8892 35.5975 13.2122C36.748 12.5382 38.0566 12.5862 39.3723 12.6344C40.1956 12.6645 41.0222 12.6949 41.6744 12.5154C42.3038 12.3422 42.9919 11.9096 43.6872 11.4724C44.8497 10.7416 46.0293 10 47.4557 10C48.8821 10 50.0614 10.7416 51.2238 11.4723C51.9192 11.9095 52.6074 12.342 53.2369 12.5153C53.8892 12.6946 54.7154 12.6645 55.5388 12.6342C56.8545 12.5859 58.1632 12.5381 59.3136 13.2119C60.4697 13.8892 61.062 15.0532 61.6524 16.2139C62.018 16.9328 62.3829 17.6493 62.8418 18.1082C63.3007 18.5671 64.0178 18.9321 64.7362 19.2976C65.8969 19.8881 67.0609 20.4805 67.738 21.6363C68.4119 22.7867 68.364 24.0954 68.3159 25.411C68.2857 26.2343 68.2555 27.0609 68.435 27.7132C68.608 28.3427 69.0406 29.0309 69.4778 29.7262C70.2085 30.8886 70.9502 32.0682 70.9502 33.4945C70.9502 34.9208 70.2086 36.1003 69.4779 37.2627C69.0407 37.9581 68.608 38.6463 68.435 39.2758C68.2556 39.928 68.2857 40.7544 68.316 41.5777C68.3643 42.8935 68.4122 44.2021 67.7383 45.3526C67.061 46.5087 65.8969 47.1009 64.7363 47.6914C64.0174 48.057 63.3009 48.4217 62.842 48.8806C62.6042 49.1306 62.3973 49.4085 62.2259 49.708L62.2258 49.7072ZM52.1745 54.9405L56.7635 66.2109L58.5424 60.0504C58.5817 59.9149 58.6513 59.79 58.7458 59.6851C58.8403 59.5802 58.9573 59.4981 59.088 59.445C59.2188 59.3918 59.3599 59.3689 59.5008 59.378C59.6416 59.3872 59.7786 59.4281 59.9014 59.4977L65.4764 62.6623L61.0764 51.8561C60.6327 52.6201 60.1051 53.3132 59.313 53.7774C58.1626 54.4513 56.8539 54.4032 55.5382 54.3552C54.715 54.325 53.8884 54.2949 53.2359 54.4743C52.8646 54.5877 52.5079 54.7445 52.1733 54.9415L52.1745 54.9405ZM50.4597 53.7876L50.2279 53.933C49.2969 54.5183 48.3522 55.1123 47.456 55.1123C46.5598 55.1123 45.6153 54.5184 44.6843 53.9331C44.607 53.8845 44.5298 53.8361 44.4527 53.7877C44.4209 53.7651 44.3878 53.7445 44.3535 53.726C43.6538 53.2919 42.9489 52.8856 42.1655 52.6702C41.2364 52.4147 40.2696 52.4501 39.3068 52.4854C38.2617 52.5236 37.222 52.5617 36.5432 52.164C35.8682 51.7686 35.3982 50.845 34.9297 49.9241C34.8935 49.8536 34.8574 49.7831 34.8212 49.7128C35.2099 49.5845 35.568 49.3772 35.8727 49.1038C36.1775 48.8305 36.4224 48.4971 36.592 48.1245C36.7719 47.7343 36.8651 47.3097 36.8651 46.88C36.8651 46.4503 36.7719 46.0257 36.592 45.6354C36.5537 45.5511 36.5113 45.4684 36.4648 45.3876C37.0977 45.0891 37.6038 44.5752 37.8926 43.9378C37.9228 43.8716 37.9505 43.8048 37.9757 43.7372C40.2584 45.8485 43.181 47.1368 46.2794 47.3974C49.3778 47.658 52.4745 46.8761 55.0778 45.1758C57.6811 43.4755 59.6418 40.9543 60.6485 38.0124C61.6553 35.0706 61.6504 31.8767 60.6347 28.9379C59.619 25.9991 57.6506 23.4839 55.0422 21.7915C52.4337 20.0992 49.3346 19.3267 46.237 19.5968C43.1394 19.8669 40.2208 21.164 37.9446 23.2822C35.6684 25.4005 34.165 28.2184 33.6732 31.2887H28.9339L29.9609 27.6263C30.5724 25.4455 30.1237 23.3745 29.2341 22.055C29.7009 21.6413 30.3635 21.3042 31.0246 20.9677C31.8774 20.5336 32.7286 20.1007 33.3953 19.4341C34.062 18.7675 34.495 17.9162 34.9289 17.0633C35.3975 16.1424 35.8674 15.2185 36.5422 14.8235C37.2205 14.426 38.2609 14.4639 39.306 14.5023C40.2691 14.5375 41.2357 14.573 42.1649 14.3174C43.0715 14.068 43.8732 13.5639 44.6833 13.0546C45.6143 12.4693 46.5591 11.8752 47.4553 11.8752C48.3515 11.8752 49.296 12.4691 50.2269 13.0543C51.0371 13.5637 51.8389 14.0679 52.7456 14.3172C53.6747 14.5727 54.6416 14.5373 55.6044 14.5021C56.6489 14.4638 57.6893 14.4257 58.3681 14.8234C59.043 15.2188 59.5129 16.1423 59.9822 17.0633C60.4163 17.9161 60.8491 18.7673 61.5158 19.434C62.1825 20.1007 63.0333 20.5343 63.8868 20.9684C64.8077 21.437 65.7316 21.9069 66.1265 22.5818C66.5243 23.2607 66.4861 24.3002 66.4479 25.3454C66.4128 26.3085 66.3774 27.2752 66.6329 28.2044C66.8824 29.111 67.3863 29.9127 67.8958 30.723C68.4809 31.654 69.0749 32.5987 69.0749 33.4948C69.0749 34.3909 68.4811 35.3355 67.8958 36.2664C67.3864 37.0768 66.8824 37.8786 66.6329 38.7852C66.3774 39.7144 66.4129 40.6811 66.448 41.6439C66.4864 42.6891 66.5244 43.7288 66.1268 44.4077C65.7314 45.0827 64.8078 45.5525 63.8869 46.0211C63.034 46.4551 62.1829 46.8881 61.5162 47.5547C60.8496 48.2212 60.4166 49.0725 59.9825 49.9255C59.514 50.8464 59.044 51.7702 58.3693 52.1652C57.6911 52.563 56.6508 52.5248 55.6057 52.4866C54.6426 52.4513 53.6758 52.416 52.7465 52.6716C51.9632 52.8871 51.258 53.2929 50.5579 53.7279C50.524 53.7462 50.4913 53.7666 50.46 53.7889L50.4597 53.7876ZM41.494 35.2789L45.133 38.4104C45.3216 38.5716 45.5664 38.6513 45.8137 38.6321C46.061 38.6129 46.2905 38.4962 46.4519 38.3079C46.4669 38.2898 46.4812 38.2717 46.4947 38.2536L53.5235 29.8898C53.604 29.7962 53.6651 29.6875 53.7032 29.5701C53.7414 29.4528 53.756 29.329 53.746 29.206C53.7361 29.0829 53.7018 28.9631 53.6452 28.8534C53.5887 28.7437 53.5109 28.6463 53.4164 28.5669C53.322 28.4874 53.2127 28.4275 53.0949 28.3905C52.9771 28.3536 52.8532 28.3404 52.7303 28.3517C52.6074 28.3629 52.4879 28.3985 52.3788 28.4562C52.2697 28.514 52.1732 28.5928 52.0948 28.6881L45.6359 36.3748L42.7108 33.8578C42.6183 33.7729 42.5095 33.7075 42.3911 33.6655C42.2728 33.6235 42.1471 33.6058 42.0218 33.6134C41.8964 33.621 41.7738 33.6537 41.6613 33.7097C41.5489 33.7657 41.4488 33.8437 41.3672 33.9391C41.2855 34.0346 41.2239 34.1455 41.186 34.2652C41.1481 34.385 41.1347 34.5111 41.1466 34.6362C41.1584 34.7612 41.1954 34.8826 41.2551 34.9931C41.3149 35.1035 41.3963 35.2009 41.4945 35.2792L41.494 35.2789Z" fill="#03A84E"/>
</svg>
