<svg width="374" height="401" viewBox="0 0 374 401" fill="none" xmlns="http://www.w3.org/2000/svg">
<path d="M23.7769 216.414L7.17276 206.775C6.6978 206.501 6.53978 205.896 6.81434 205.422C7.08448 204.945 7.69451 204.789 8.16064 205.063L24.2704 214.414L43.1319 203.433C43.4444 203.254 43.8267 203.257 44.1313 203.437L57.6023 211.41C58.0728 211.688 58.2273 212.294 57.9492 212.765C57.6711 213.238 57.0576 213.386 56.5985 213.113L43.6254 205.436L24.7674 216.413C24.4584 216.591 24.0771 216.591 23.776 216.413L23.7769 216.414Z" fill="#DFEACE"/>
<path d="M88.3764 194.707L68.4696 182.076L58.2209 188.261C57.9119 188.45 57.5182 188.452 57.2021 188.262L32.6182 173.445C32.1511 173.163 32.0011 172.555 32.2827 172.088C32.5643 171.617 33.1699 171.467 33.6369 171.75L57.7115 186.26L67.9717 180.068C68.2842 179.871 68.6894 179.879 69.0099 180.079L89.434 193.038C90.5463 193.745 89.4605 195.404 88.3764 194.707V194.707Z" fill="#DFEACE"/>
<path d="M7.19986 203.141C5.54898 202.197 2.88815 202.197 1.23816 203.141C-0.41272 204.085 -0.41272 205.67 1.23816 206.614C2.92259 207.558 5.58341 207.558 7.23429 206.614C8.85074 205.67 8.85074 204.085 7.20074 203.141H7.19986Z" fill="#8AE5AD"/>
<path d="M35.0203 169.2C33.0092 168.039 29.7675 168.039 27.7564 169.2C25.7639 170.36 25.7824 172.246 27.7926 173.407C29.8037 174.567 33.0463 174.567 35.0388 173.407C37.0314 172.247 37.0314 170.361 35.0203 169.2Z" fill="#8AE5AD"/>
<path d="M329.638 216.414L310.78 205.437L297.807 213.113C296.671 213.776 295.686 212.071 296.804 211.41L310.275 203.437C310.58 203.257 310.962 203.253 311.275 203.433L330.136 214.414L346.247 205.063C346.706 204.789 347.32 204.945 347.593 205.422C347.867 205.895 347.709 206.5 347.235 206.774L330.631 216.414C330.33 216.592 329.948 216.592 329.639 216.414H329.638Z" fill="#DFEACE"/>
<path d="M264.646 194.402C264.353 193.941 264.492 193.33 264.951 193.039L285.375 180.08C285.695 179.881 286.1 179.873 286.413 180.068L296.673 186.261L320.748 171.751C321.207 171.469 321.82 171.617 322.102 172.088C322.384 172.556 322.234 173.164 321.766 173.446L297.183 188.263C296.866 188.452 296.473 188.451 296.164 188.261L285.915 182.077L266.008 194.708C265.567 194.992 264.95 194.881 264.646 194.403V194.402Z" fill="#DFEACE"/>
<path d="M347.305 203.141C348.956 202.197 351.617 202.197 353.267 203.141C354.918 204.084 354.918 205.67 353.267 206.614C351.582 207.557 348.922 207.557 347.271 206.614C345.654 205.67 345.654 204.084 347.304 203.141H347.305Z" fill="#8AE5AD"/>
<path d="M319.386 169.2C321.397 168.039 324.638 168.039 326.649 169.2C328.642 170.36 328.624 172.246 326.613 173.407C324.602 174.567 321.36 174.567 319.367 173.407C317.375 172.247 317.375 170.361 319.386 169.2Z" fill="#8AE5AD"/>
<path d="M169.049 371.518L13.1637 281.428C7.92412 278.388 8.00269 273.219 13.056 270.268L167.923 180.177C172.777 177.357 180.398 177.357 185.267 180.177L341.137 270.265C346.323 273.266 346.328 278.412 341.137 281.427L186.286 371.515C181.491 374.292 173.921 374.321 169.049 371.517V371.518ZM176.589 180.049C173.807 180.049 171.029 180.662 168.918 181.89L14.0518 271.978C10.2353 274.204 10.3148 277.489 14.1524 279.717L170.038 369.805C174.259 372.234 181.097 372.234 185.296 369.805L340.146 279.717C344.036 277.462 343.992 274.202 340.15 271.978L184.28 181.89C182.158 180.663 179.372 180.049 176.59 180.049H176.589Z" fill="#DFEACE"/>
<path opacity="0.4" d="M343.785 237.625V258.382C343.785 260.069 342.662 261.837 340.334 263.122L185.517 353.182C181.022 355.833 173.799 355.833 169.224 353.182L13.3628 263.121C11.116 261.836 9.99219 260.068 9.99219 258.301V237.544C9.99219 239.311 11.116 241.079 13.4431 242.365L169.304 332.425C173.798 335.076 181.021 335.076 185.516 332.425L340.413 242.365C342.661 241.079 343.784 239.311 343.784 237.624L343.785 237.625Z" fill="#00A63F"/>
<path d="M343.785 247.269V249.741C343.785 251.428 342.662 253.195 340.334 254.481L185.517 344.541C181.022 347.192 173.799 347.192 169.224 344.541L13.3628 254.481C11.116 253.195 9.99219 251.428 9.99219 249.66V247.189C9.99219 248.956 11.116 250.724 13.4431 252.009L169.304 342.069C173.798 344.721 181.021 344.721 185.516 342.069L340.413 252.009C342.661 250.724 343.784 248.956 343.784 247.269H343.785Z" fill="white"/>
<path d="M340.4 242.362L185.547 332.45C181.061 335.047 173.811 335.047 169.3 332.45L13.4166 242.362C8.91778 239.751 8.8401 235.523 13.3125 232.912L168.179 142.824C172.717 140.187 180.019 140.214 184.53 142.824L340.4 232.912C344.911 235.523 344.938 239.726 340.4 242.362Z" fill="#00A63F"/>
<path d="M324.892 241.91L184.784 323.42C180.726 325.77 174.166 325.77 170.084 323.42L29.0444 241.91C24.9746 239.548 24.9031 235.723 28.95 233.36L169.07 151.851C173.175 149.466 179.782 149.489 183.864 151.851L324.892 233.36C328.975 235.723 328.998 239.525 324.892 241.91H324.892Z" fill="#00A63F"/>
<path d="M330.16 240.385C326.099 242.734 319.466 242.734 315.36 240.385C311.254 237.991 311.209 234.152 315.315 231.803C319.376 229.409 326.009 229.409 330.115 231.803C334.221 234.152 334.221 237.992 330.16 240.385Z" fill="#04D553"/>
<path d="M184.989 324.634C180.928 326.983 174.294 326.983 170.188 324.634C166.082 322.24 166.037 318.401 170.143 316.052C174.204 313.658 180.837 313.658 184.944 316.052C189.05 318.401 189.05 322.241 184.989 324.634Z" fill="#04D553"/>
<path d="M49.4495 240.385C45.3885 242.734 38.7559 242.734 34.649 240.385C30.543 237.991 30.498 234.152 34.604 231.803C38.6649 229.409 45.2985 229.409 49.4045 231.803C53.5105 234.152 53.5105 237.992 49.4495 240.385Z" fill="#04D553"/>
<path d="M314.855 234.799H45.75V237.214H314.855V234.799Z" fill="#04D553"/>
<path d="M178.78 155.848H176.367V316.338H178.78V155.848Z" fill="#04D553"/>
<path d="M74.8735 217.135L67.9239 213.119C67.3466 212.785 67.1488 212.047 67.4825 211.469C67.8162 210.888 68.5525 210.693 69.1307 211.027L76.0803 215.044C76.5367 215.307 77.0965 214.977 77.0982 214.458C77.1062 212.075 79.6831 210.6 81.7339 211.787L87.3045 215.007C87.8819 215.341 88.0797 216.078 87.7459 216.656C87.4122 217.233 86.6716 217.429 86.0977 217.098L80.528 213.879C80.076 213.617 79.5119 213.945 79.5101 214.465C79.5048 216.835 76.9402 218.329 74.8735 217.135Z" fill="#2A3134"/>
<path d="M88.7338 209.043L81.7833 205.027C81.2059 204.693 81.0082 203.955 81.3419 203.377C81.6756 202.798 82.4136 202.602 82.9901 202.935L89.9406 206.951C90.3855 207.213 90.9558 206.889 90.9576 206.365C90.9655 203.987 93.5346 202.506 95.5942 203.695L101.164 206.914C101.741 207.248 101.939 207.986 101.605 208.564C101.27 209.142 100.531 209.337 99.9571 209.006L94.3874 205.787C93.9283 205.523 93.3712 205.855 93.3695 206.372C93.3642 208.749 90.789 210.233 88.7338 209.043Z" fill="#2A3134"/>
<path d="M271.562 212.97C271.56 212.446 270.992 212.124 270.543 212.384L264.974 215.604C264.398 215.935 263.66 215.741 263.326 215.162C262.992 214.584 263.191 213.846 263.767 213.512L269.337 210.293C271.4 209.105 273.967 210.588 273.974 212.963C273.976 213.483 274.534 213.812 274.991 213.549L281.94 209.533C282.514 209.197 283.253 209.395 283.589 209.974C283.922 210.552 283.724 211.29 283.147 211.624L276.198 215.641C274.134 216.831 271.567 215.345 271.562 212.97Z" fill="#2A3134"/>
<path d="M257.703 204.876C257.701 204.353 257.132 204.028 256.685 204.291L251.115 207.511C250.535 207.839 249.8 207.645 249.467 207.069C249.133 206.491 249.332 205.753 249.908 205.419L255.478 202.2C256.446 201.643 257.598 201.64 258.564 202.197C259.532 202.754 260.111 203.752 260.114 204.87C260.116 205.387 260.672 205.719 261.131 205.455L268.081 201.44C268.656 201.105 269.395 201.304 269.729 201.881C270.063 202.459 269.864 203.197 269.288 203.531L262.338 207.547C260.275 208.737 257.708 207.251 257.703 204.876Z" fill="#2A3134"/>
<path d="M284.109 226.347V242.922C284.109 244.004 283.389 245.138 281.896 245.962L182.618 303.714C179.736 305.415 175.104 305.415 172.171 303.714L72.2237 245.962C70.7829 245.138 70.0625 244.005 70.0625 242.871V226.296C70.0625 227.43 70.7829 228.563 72.2757 229.387L172.223 287.139C175.105 288.84 179.736 288.84 182.619 287.139L281.948 229.387C283.389 228.563 284.109 227.43 284.109 226.347Z" fill="#8AE5AD"/>
<path d="M284.107 234.064V236.688C284.107 237.771 283.39 238.907 281.904 239.728L182.624 297.485C179.743 299.182 175.101 299.182 172.179 297.485L72.2218 239.728C70.7872 238.906 70.0703 237.771 70.0703 236.635V234.012C70.0703 235.147 70.7872 236.283 72.2738 237.105L172.219 294.849C175.101 296.559 179.743 296.559 182.624 294.849L281.956 237.105C283.39 236.282 284.107 235.147 284.107 234.064Z" fill="#FF6161"/>
<path d="M281.941 229.385L182.641 287.154C179.764 288.82 175.115 288.82 172.222 287.154L72.2613 229.385C69.3762 227.711 69.3268 224.999 72.1942 223.325L171.503 165.555C174.413 163.865 179.095 163.881 181.988 165.555L281.941 223.325C284.834 224.999 284.851 227.694 281.941 229.385Z" fill="white"/>
<path d="M178.471 110.944L263.484 61.4901L263.013 227.494L178 276.948L178.471 110.944Z" fill="#E1FDEC"/>
<path d="M257.966 71.0493L257.52 224.325L183.469 267.379L183.915 114.103L257.966 71.0493Z" fill="#E0FFEC"/>
<path d="M92.2188 49.4547L177.231 0L253.438 44.0428L168.426 93.4976L92.2188 49.4547Z" fill="#E2FFED"/>
<path d="M168.375 93.4976L253.388 44.0428C258.961 47.264 263.469 55.0876 263.451 61.4901L178.437 110.945C178.456 104.542 173.947 96.7188 168.375 93.4976Z" fill="#8AE5AD"/>
<path d="M178.46 110.953L177.986 276.946L91.6797 227.064L92.1908 49.453L168.389 93.4906C173.973 96.7232 178.48 104.541 178.461 110.952L178.46 110.953Z" fill="#C5FEDA"/>
<path d="M214.046 306.89C213.842 306.89 213.634 306.838 213.444 306.729L205.72 302.265C204.086 301.32 203.075 299.561 203.081 297.673L203.085 295.883C203.088 294.857 202.539 293.902 201.652 293.39L195.307 289.722C194.729 289.388 194.532 288.651 194.865 288.073C195.199 287.494 195.936 287.296 196.514 287.631L202.858 291.298C204.492 292.242 205.503 294.001 205.498 295.889L205.494 297.68C205.49 298.705 206.039 299.66 206.926 300.173L214.651 304.637C215.229 304.971 215.426 305.709 215.093 306.287C214.868 306.674 214.463 306.89 214.046 306.89Z" fill="#2A3134"/>
<path d="M227.905 298.798C227.7 298.798 227.493 298.746 227.303 298.636L219.578 294.172C217.944 293.227 216.933 291.468 216.939 289.581L216.944 287.79C216.946 286.765 216.397 285.81 215.51 285.297L209.166 281.63C208.589 281.296 208.391 280.558 208.725 279.98C209.058 279.402 209.795 279.204 210.373 279.538L216.717 283.205C218.349 284.15 219.362 285.909 219.357 287.796L219.352 289.588C219.349 290.613 219.898 291.567 220.785 292.08L228.51 296.545C229.087 296.879 229.285 297.617 228.951 298.195C228.727 298.582 228.322 298.798 227.905 298.798Z" fill="#2A3134"/>
<path d="M241.928 290.705C241.724 290.705 241.516 290.653 241.326 290.543L233.602 286.08C231.967 285.135 230.957 283.375 230.963 281.488L230.967 279.697C230.97 278.671 230.421 277.716 229.534 277.204L223.19 273.537C222.612 273.203 222.414 272.465 222.748 271.887C223.082 271.308 223.82 271.11 224.396 271.445L230.74 275.113C232.373 276.057 233.385 277.815 233.38 279.704L233.376 281.495C233.372 282.52 233.921 283.474 234.808 283.988L242.533 288.452C243.11 288.786 243.308 289.524 242.975 290.101C242.75 290.489 242.345 290.705 241.928 290.705Z" fill="#2A3134"/>
<path d="M255.788 282.613C255.583 282.613 255.375 282.561 255.186 282.451L247.461 277.987C245.827 277.042 244.816 275.282 244.822 273.396L244.827 271.604C244.83 270.579 244.28 269.625 243.393 269.111L237.049 265.445C236.472 265.111 236.274 264.373 236.608 263.795C236.939 263.217 237.678 263.019 238.256 263.353L244.6 267.02C246.235 267.965 247.246 269.725 247.239 271.611L247.235 273.403C247.231 274.428 247.781 275.381 248.668 275.895L256.392 280.359C256.97 280.693 257.168 281.431 256.834 282.009C256.61 282.397 256.204 282.613 255.788 282.613Z" fill="#2A3134"/>
<path d="M269.647 274.52C269.442 274.52 269.235 274.467 269.045 274.358L261.32 269.894C259.686 268.95 258.675 267.19 258.682 265.302L258.686 263.512C258.689 262.486 258.14 261.532 257.252 261.019L250.908 257.352C250.331 257.018 250.133 256.28 250.467 255.702C250.801 255.123 251.537 254.925 252.115 255.26L258.459 258.927C260.093 259.872 261.105 261.631 261.099 263.519L261.094 265.309C261.091 266.335 261.64 267.289 262.527 267.802L270.252 272.266C270.829 272.6 271.027 273.338 270.693 273.916C270.469 274.303 270.064 274.52 269.647 274.52Z" fill="#2A3134"/>
<path d="M283.671 266.428C283.466 266.428 283.258 266.375 283.068 266.266L275.344 261.802C273.71 260.857 272.699 259.097 272.705 257.21L272.709 255.419C272.713 254.394 272.164 253.44 271.276 252.927L264.932 249.259C264.354 248.925 264.157 248.188 264.49 247.61C264.824 247.029 265.562 246.834 266.139 247.168L272.483 250.835C274.117 251.78 275.128 253.538 275.122 255.426L275.118 257.217C275.114 258.243 275.663 259.197 276.551 259.711L284.274 264.173C284.852 264.507 285.05 265.245 284.716 265.823C284.492 266.21 284.086 266.427 283.67 266.427L283.671 266.428Z" fill="#2A3134"/>
<path d="M145.178 309.223C144.844 308.645 145.043 307.907 145.619 307.573L153.342 303.109C154.229 302.596 154.778 301.641 154.776 300.615L154.77 298.825C154.765 296.935 155.777 295.178 157.409 294.234L163.754 290.566C164.329 290.232 165.067 290.429 165.402 291.008C165.736 291.586 165.537 292.324 164.961 292.658L158.616 296.326C157.729 296.837 157.18 297.793 157.182 298.819L157.188 300.609C157.193 302.497 156.181 304.256 154.549 305.201L146.826 309.664C146.25 309.997 145.511 309.801 145.178 309.223Z" fill="#2A3134"/>
<path d="M131.154 301.13C130.82 300.552 131.019 299.814 131.596 299.48L139.32 295.016C140.208 294.504 140.757 293.549 140.754 292.522L140.748 290.733C140.743 288.844 141.755 287.084 143.387 286.142L149.732 282.475C150.307 282.139 151.046 282.338 151.381 282.917C151.714 283.495 151.516 284.233 150.939 284.567L144.594 288.233C143.707 288.745 143.158 289.7 143.161 290.727L143.167 292.516C143.171 294.405 142.159 296.165 140.527 297.108L132.802 301.572C132.227 301.904 131.488 301.708 131.154 301.13Z" fill="#2A3134"/>
<path d="M117.295 293.037C116.961 292.459 117.16 291.721 117.736 291.387L125.461 286.924C126.348 286.411 126.897 285.456 126.895 284.43L126.888 282.639C126.884 280.75 127.896 278.992 129.528 278.048L135.873 274.381C136.446 274.047 137.187 274.243 137.521 274.823C137.855 275.401 137.656 276.139 137.08 276.473L130.735 280.14C129.848 280.652 129.299 281.607 129.301 282.633L129.307 284.424C129.312 286.311 128.3 288.071 126.668 289.015L118.943 293.479C118.372 293.81 117.632 293.62 117.295 293.037Z" fill="#2A3134"/>
<path d="M104.481 285.55C103.249 285.55 102.81 283.912 103.876 283.296L111.601 278.832C112.488 278.32 113.037 277.365 113.034 276.338L113.028 274.549C113.024 272.66 114.035 270.9 115.668 269.957L122.013 266.291C122.586 265.955 123.325 266.154 123.661 266.733C123.995 267.311 123.796 268.048 123.219 268.382L116.875 272.049C115.987 272.561 115.438 273.516 115.441 274.543L115.447 276.332C115.452 278.221 114.44 279.98 112.807 280.923L105.083 285.388C104.893 285.497 104.685 285.55 104.481 285.55Z" fill="#2A3134"/>
<path d="M89.412 276.852C89.0783 276.274 89.2769 275.536 89.8534 275.202L97.5781 270.738C98.4654 270.226 99.0145 269.271 99.0118 268.245L99.0056 266.454C99.0012 264.565 100.013 262.807 101.645 261.863L107.99 258.196C108.565 257.862 109.304 258.058 109.638 258.638C109.972 259.216 109.773 259.954 109.197 260.288L102.852 263.955C101.965 264.467 101.416 265.422 101.418 266.448L101.425 268.238C101.429 270.126 100.417 271.886 98.7849 272.83L91.0602 277.294C90.4846 277.626 89.7457 277.43 89.412 276.852Z" fill="#2A3134"/>
<path d="M75.5526 268.761C75.2189 268.183 75.4176 267.445 75.994 267.111L83.7187 262.646C84.606 262.134 85.1551 261.179 85.1525 260.152L85.1463 258.364C85.1419 256.474 86.1536 254.715 87.7859 253.772L94.1308 250.105C94.7037 249.769 95.4444 249.968 95.779 250.547C96.1127 251.125 95.9141 251.863 95.3376 252.197L88.9927 255.864C88.1055 256.375 87.5564 257.331 87.559 258.357L87.5652 260.146C87.5696 262.035 86.5579 263.795 84.9256 264.738L77.2009 269.202C76.6253 269.535 75.8863 269.339 75.5526 268.761Z" fill="#2A3134"/>
<path d="M252.24 107.879C252.245 109.914 250.818 112.388 249.047 113.409L192.794 145.921C191.023 146.946 189.581 146.127 189.576 144.093V143.589L189.531 125.123C189.526 123.088 190.959 120.604 192.724 119.584L248.563 87.3141L248.981 87.072C250.752 86.0469 252.19 86.8749 252.195 88.9101L252.24 107.88V107.879Z" fill="#2A3134"/>
<path d="M248.613 105.779C248.619 107.814 247.191 110.293 245.42 111.312L189.576 143.588L189.531 125.122C189.526 123.087 190.959 120.603 192.724 119.583L248.563 87.3133L248.613 105.779Z" fill="#49E4A3"/>
<path d="M199.707 128.189C200.29 127.852 200.762 128.121 200.763 128.785L200.777 133.791C200.779 134.461 200.311 135.273 199.729 135.609L195.377 138.125C194.8 138.459 194.328 138.19 194.327 137.519L194.313 132.514C194.311 131.849 194.779 131.038 195.357 130.704L199.708 128.189H199.707Z" fill="#39C988"/>
<path d="M199.676 118.189C200.259 117.852 200.73 118.121 200.732 118.788L200.746 123.796C200.748 124.46 200.28 125.275 199.697 125.612L195.346 128.127C194.769 128.461 194.297 128.19 194.295 127.524L194.281 122.516C194.279 121.849 194.747 121.037 195.326 120.704L199.677 118.189H199.676Z" fill="#39C988"/>
<path d="M208.252 113.221C208.829 112.887 209.301 113.156 209.302 113.823L209.316 118.831C209.318 119.496 208.85 120.31 208.273 120.644L203.919 123.16C203.339 123.495 202.867 123.224 202.866 122.56L202.852 117.551C202.85 116.884 203.318 116.072 203.898 115.737L208.252 113.22V113.221Z" fill="#189453"/>
<path d="M208.283 123.221C208.86 122.887 209.332 123.156 209.334 123.821L209.348 128.826C209.349 129.496 208.882 130.308 208.304 130.642L203.95 133.159C203.37 133.494 202.899 133.225 202.897 132.555L202.883 127.55C202.881 126.885 203.349 126.074 203.929 125.738L208.283 123.221Z" fill="#39C988"/>
<path d="M216.861 118.257C217.441 117.922 217.913 118.19 217.914 118.855L217.929 123.86C217.93 124.53 217.462 125.342 216.882 125.677L212.531 128.192C211.951 128.527 211.477 128.26 211.475 127.59L211.461 122.584C211.459 121.92 211.93 121.107 212.51 120.772L216.861 118.257Z" fill="#39C988"/>
<path d="M216.83 108.257C217.41 107.922 217.881 108.19 217.883 108.857L217.897 113.866C217.899 114.53 217.431 115.345 216.851 115.68L212.5 118.195C211.92 118.53 211.446 118.26 211.444 117.596L211.43 112.588C211.428 111.92 211.898 111.107 212.478 110.772L216.83 108.257Z" fill="#39C988"/>
<path d="M225.431 113.29C226.009 112.956 226.483 113.224 226.485 113.888L226.499 118.894C226.501 119.564 226.03 120.377 225.453 120.711L221.101 123.226C220.519 123.563 220.047 123.294 220.045 122.623L220.031 117.618C220.029 116.953 220.497 116.142 221.08 115.805L225.431 113.29Z" fill="#189453"/>
<path d="M225.4 103.29C225.978 102.956 226.452 103.224 226.453 103.891L226.468 108.899C226.469 109.564 225.999 110.379 225.421 110.713L221.07 113.228C220.487 113.565 220.016 113.294 220.014 112.629L220 107.621C219.998 106.954 220.466 106.142 221.049 105.805L225.4 103.29Z" fill="#39C988"/>
<path d="M234.002 108.325C234.584 107.989 235.056 108.257 235.058 108.922L235.072 113.927C235.074 114.597 234.606 115.409 234.023 115.746L229.672 118.261C229.094 118.595 228.617 118.329 228.616 117.659L228.602 112.654C228.6 111.989 229.073 111.175 229.65 110.841L234.002 108.326V108.325Z" fill="#39C988"/>
<path d="M242.718 93.3596C243.298 93.0247 243.769 93.2934 243.771 93.9606L243.785 98.9686C243.787 99.6332 243.319 100.448 242.739 100.783L238.388 103.298C237.808 103.633 237.336 103.362 237.334 102.697L237.32 97.689C237.319 97.0218 237.786 96.2096 238.366 95.8747L242.718 93.3596Z" fill="#39C988"/>
<path d="M242.726 103.36C243.306 103.025 243.777 103.294 243.779 103.958L243.793 108.963C243.795 109.633 243.327 110.445 242.747 110.78L238.395 113.295C237.815 113.63 237.344 113.362 237.342 112.692L237.328 107.687C237.326 107.022 237.794 106.211 238.374 105.875L242.726 103.36Z" fill="#189453"/>
<path d="M233.978 98.3262C234.561 97.9895 235.032 98.2581 235.034 98.9253L235.048 103.933C235.05 104.598 234.582 105.413 234 105.749L229.648 108.264C229.071 108.599 228.594 108.33 228.592 107.665L228.578 102.657C228.576 101.99 229.05 101.175 229.627 100.841L233.978 98.3262Z" fill="#189453"/>
<path d="M252.24 143.255C252.245 145.291 250.818 147.764 249.047 148.785L192.794 181.297C191.023 182.322 189.581 181.504 189.576 179.469V178.965L189.531 160.499C189.526 158.464 190.959 155.98 192.724 154.96L248.563 122.69L248.981 122.448C250.752 121.423 252.19 122.251 252.195 124.286L252.24 143.256V143.255Z" fill="#2A3134"/>
<path d="M248.613 141.155C248.619 143.19 247.191 145.669 245.42 146.689L189.576 178.964L189.531 160.499C189.526 158.463 190.959 155.979 192.724 154.959L248.563 122.69L248.613 141.155Z" fill="#49E4A3"/>
<path d="M199.707 163.565C200.29 163.228 200.762 163.497 200.763 164.162L200.777 169.167C200.779 169.837 200.311 170.649 199.729 170.986L195.377 173.501C194.8 173.835 194.328 173.566 194.327 172.895L194.313 167.89C194.311 167.225 194.779 166.414 195.357 166.08L199.708 163.565H199.707Z" fill="#39C988"/>
<path d="M199.676 153.566C200.259 153.229 200.73 153.498 200.732 154.165L200.746 159.173C200.748 159.838 200.28 160.652 199.697 160.989L195.346 163.504C194.769 163.838 194.297 163.567 194.295 162.901L194.281 157.893C194.279 157.226 194.747 156.414 195.326 156.081L199.677 153.566H199.676Z" fill="#39C988"/>
<path d="M208.252 148.597C208.829 148.263 209.301 148.532 209.302 149.199L209.316 154.207C209.318 154.872 208.85 155.687 208.273 156.02L203.919 158.537C203.339 158.872 202.867 158.6 202.866 157.936L202.852 152.928C202.85 152.261 203.318 151.448 203.898 151.113L208.252 148.597V148.597Z" fill="#189453"/>
<path d="M208.283 158.598C208.86 158.264 209.332 158.532 209.334 159.197L209.348 164.202C209.349 164.872 208.882 165.684 208.304 166.018L203.95 168.535C203.37 168.87 202.899 168.601 202.897 167.932L202.883 162.926C202.881 162.262 203.349 161.45 203.929 161.115L208.283 158.598Z" fill="#39C988"/>
<path d="M216.861 153.633C217.441 153.298 217.913 153.567 217.914 154.231L217.929 159.237C217.93 159.907 217.462 160.719 216.882 161.054L212.531 163.569C211.951 163.904 211.477 163.637 211.475 162.966L211.461 157.961C211.459 157.296 211.93 156.483 212.51 156.148L216.861 153.633Z" fill="#39C988"/>
<path d="M216.83 143.633C217.41 143.298 217.881 143.567 217.883 144.234L217.897 149.242C217.899 149.906 217.431 150.721 216.851 151.056L212.5 153.571C211.92 153.906 211.446 153.637 211.444 152.972L211.43 147.964C211.428 147.297 211.898 146.484 212.478 146.148L216.83 143.633Z" fill="#39C988"/>
<path d="M225.431 148.666C226.009 148.332 226.483 148.6 226.485 149.265L226.499 154.27C226.501 154.94 226.03 155.753 225.453 156.087L221.101 158.602C220.519 158.939 220.047 158.67 220.045 157.999L220.031 152.994C220.029 152.329 220.497 151.518 221.08 151.181L225.431 148.666Z" fill="#189453"/>
<path d="M225.4 138.667C225.978 138.333 226.452 138.601 226.453 139.268L226.468 144.276C226.469 144.941 225.999 145.756 225.421 146.09L221.07 148.605C220.487 148.942 220.016 148.671 220.014 148.006L220 142.998C219.998 142.331 220.466 141.519 221.049 141.182L225.4 138.667Z" fill="#39C988"/>
<path d="M234.002 143.702C234.584 143.365 235.056 143.634 235.058 144.298L235.072 149.304C235.074 149.973 234.606 150.786 234.023 151.122L229.672 153.637C229.094 153.971 228.617 153.705 228.616 153.035L228.602 148.03C228.6 147.366 229.073 146.551 229.65 146.218L234.002 143.703V143.702Z" fill="#39C988"/>
<path d="M242.718 128.736C243.298 128.401 243.769 128.67 243.771 129.337L243.785 134.345C243.787 135.009 243.319 135.824 242.739 136.159L238.388 138.674C237.808 139.009 237.336 138.738 237.334 138.073L237.32 133.065C237.319 132.398 237.786 131.586 238.366 131.251L242.718 128.736Z" fill="#39C988"/>
<path d="M242.726 138.736C243.306 138.401 243.777 138.67 243.779 139.334L243.793 144.34C243.795 145.01 243.327 145.822 242.747 146.157L238.395 148.672C237.815 149.007 237.344 148.738 237.342 148.068L237.328 143.063C237.326 142.398 237.794 141.587 238.374 141.251L242.726 138.736Z" fill="#189453"/>
<path d="M233.978 133.702C234.561 133.366 235.032 133.634 235.034 134.302L235.048 139.31C235.05 139.974 234.582 140.789 234 141.126L229.648 143.641C229.071 143.975 228.594 143.706 228.592 143.042L228.578 138.033C228.576 137.366 229.05 136.551 229.627 136.217L233.978 133.702Z" fill="#189453"/>
<path d="M252.24 178.632C252.245 180.667 250.818 183.14 249.047 184.161L192.794 216.673C191.023 217.698 189.581 216.88 189.576 214.846V214.341L189.531 195.876C189.526 193.84 190.959 191.356 192.724 190.337L248.563 158.067L248.981 157.824C250.752 156.799 252.19 157.627 252.195 159.663L252.24 178.633V178.632Z" fill="#2A3134"/>
<path d="M248.613 176.531C248.619 178.566 247.191 181.045 245.42 182.065L189.576 214.34L189.531 195.875C189.526 193.84 190.959 191.355 192.724 190.336L248.563 158.066L248.613 176.531Z" fill="#49E4A3"/>
<path d="M199.707 198.942C200.29 198.605 200.762 198.874 200.763 199.539L200.777 204.544C200.779 205.214 200.311 206.026 199.729 206.363L195.377 208.878C194.8 209.212 194.328 208.943 194.327 208.273L194.313 203.267C194.311 202.603 194.779 201.791 195.357 201.457L199.708 198.942H199.707Z" fill="#39C988"/>
<path d="M199.676 188.942C200.259 188.605 200.73 188.874 200.732 189.541L200.746 194.549C200.748 195.214 200.28 196.029 199.697 196.365L195.346 198.88C194.769 199.214 194.297 198.943 194.295 198.279L194.281 193.271C194.279 192.603 194.747 191.791 195.326 191.458L199.677 188.943L199.676 188.942Z" fill="#39C988"/>
<path d="M208.252 183.975C208.829 183.641 209.301 183.909 209.302 184.576L209.316 189.584C209.318 190.249 208.85 191.064 208.273 191.397L203.919 193.914C203.339 194.249 202.867 193.977 202.866 193.313L202.852 188.305C202.85 187.638 203.318 186.826 203.898 186.491L208.252 183.974V183.975Z" fill="#189453"/>
<path d="M208.283 193.974C208.86 193.64 209.332 193.909 209.334 194.573L209.348 199.579C209.349 200.248 208.882 201.061 208.304 201.395L203.95 203.911C203.37 204.246 202.899 203.978 202.897 203.308L202.883 198.302C202.881 197.638 203.349 196.827 203.929 196.491L208.283 193.974Z" fill="#39C988"/>
<path d="M216.861 189.009C217.441 188.674 217.913 188.943 217.914 189.607L217.929 194.613C217.93 195.283 217.462 196.095 216.882 196.43L212.531 198.945C211.951 199.28 211.477 199.013 211.475 198.343L211.461 193.338C211.459 192.673 211.93 191.86 212.51 191.525L216.861 189.01V189.009Z" fill="#39C988"/>
<path d="M216.83 179.01C217.41 178.675 217.881 178.944 217.883 179.611L217.897 184.619C217.899 185.283 217.431 186.098 216.851 186.433L212.5 188.948C211.92 189.283 211.446 189.014 211.444 188.349L211.43 183.341C211.428 182.674 211.898 181.861 212.478 181.525L216.83 179.01Z" fill="#39C988"/>
<path d="M225.431 184.044C226.009 183.709 226.483 183.977 226.485 184.642L226.499 189.647C226.501 190.317 226.03 191.13 225.453 191.464L221.101 193.979C220.519 194.316 220.047 194.047 220.045 193.376L220.031 188.371C220.029 187.707 220.497 186.895 221.08 186.559L225.431 184.044Z" fill="#189453"/>
<path d="M225.4 174.043C225.978 173.709 226.452 173.977 226.453 174.644L226.468 179.652C226.469 180.317 225.999 181.133 225.421 181.467L221.07 183.982C220.487 184.318 220.016 184.047 220.014 183.383L220 178.375C219.998 177.707 220.466 176.895 221.049 176.558L225.4 174.043Z" fill="#39C988"/>
<path d="M234.002 179.079C234.584 178.742 235.056 179.011 235.058 179.675L235.072 184.681C235.074 185.351 234.606 186.163 234.023 186.499L229.672 189.014C229.094 189.348 228.617 189.082 228.616 188.413L228.602 183.407C228.6 182.743 229.073 181.928 229.65 181.595L234.002 179.08V179.079Z" fill="#39C988"/>
<path d="M242.718 164.113C243.298 163.778 243.769 164.047 243.771 164.714L243.785 169.722C243.787 170.387 243.319 171.201 242.739 171.536L238.388 174.051C237.808 174.386 237.336 174.115 237.334 173.45L237.32 168.442C237.319 167.775 237.786 166.963 238.366 166.628L242.718 164.113Z" fill="#39C988"/>
<path d="M242.726 174.112C243.306 173.777 243.777 174.046 243.779 174.711L243.793 179.716C243.795 180.386 243.327 181.198 242.747 181.533L238.395 184.048C237.815 184.383 237.344 184.114 237.342 183.444L237.328 178.439C237.326 177.774 237.794 176.963 238.374 176.627L242.726 174.112Z" fill="#189453"/>
<path d="M233.978 169.079C234.561 168.742 235.032 169.011 235.034 169.678L235.048 174.686C235.05 175.35 234.582 176.165 234 176.502L229.648 179.017C229.071 179.351 228.594 179.082 228.592 178.418L228.578 173.41C228.576 172.743 229.05 171.928 229.627 171.594L233.978 169.079Z" fill="#189453"/>
<path d="M252.24 214.009C252.245 216.044 250.818 218.517 249.047 219.538L192.794 252.05C191.023 253.075 189.581 252.257 189.576 250.223V249.718L189.531 231.253C189.526 229.217 190.959 226.733 192.724 225.713L248.563 193.444L248.981 193.201C250.752 192.176 252.19 193.004 252.195 195.04L252.24 214.01V214.009Z" fill="#2A3134"/>
<path d="M248.613 211.908C248.619 213.943 247.191 216.422 245.42 217.442L189.576 249.717L189.531 231.252C189.526 229.217 190.959 226.732 192.724 225.713L248.563 193.443L248.613 211.908Z" fill="#49E4A3"/>
<path d="M199.707 234.318C200.29 233.982 200.762 234.25 200.763 234.915L200.777 239.92C200.779 240.59 200.311 241.402 199.729 241.739L195.377 244.254C194.8 244.588 194.328 244.32 194.327 243.649L194.313 238.643C194.311 237.979 194.779 237.168 195.357 236.834L199.708 234.318H199.707Z" fill="#39C988"/>
<path d="M199.676 224.318C200.259 223.982 200.73 224.25 200.732 224.917L200.746 229.925C200.748 230.59 200.28 231.405 199.697 231.742L195.346 234.257C194.769 234.591 194.297 234.319 194.295 233.655L194.281 228.647C194.279 227.98 194.747 227.167 195.326 226.834L199.677 224.319L199.676 224.318Z" fill="#39C988"/>
<path d="M208.252 219.351C208.829 219.017 209.301 219.285 209.302 219.953L209.316 224.961C209.318 225.625 208.85 226.44 208.273 226.773L203.919 229.29C203.339 229.625 202.867 229.354 202.866 228.689L202.852 223.681C202.85 223.014 203.318 222.202 203.898 221.867L208.252 219.35V219.351Z" fill="#189453"/>
<path d="M208.283 229.351C208.86 229.017 209.332 229.286 209.334 229.95L209.348 234.956C209.349 235.626 208.882 236.438 208.304 236.772L203.95 239.289C203.37 239.623 202.899 239.355 202.897 238.685L202.883 233.68C202.881 233.015 203.349 232.204 203.929 231.868L208.283 229.351Z" fill="#39C988"/>
<path d="M216.861 224.386C217.441 224.051 217.913 224.32 217.914 224.985L217.929 229.99C217.93 230.66 217.462 231.472 216.882 231.807L212.531 234.322C211.951 234.657 211.477 234.39 211.475 233.72L211.461 228.715C211.459 228.05 211.93 227.237 212.51 226.902L216.861 224.387V224.386Z" fill="#39C988"/>
<path d="M216.83 214.386C217.41 214.051 217.881 214.32 217.883 214.987L217.897 219.995C217.899 220.66 217.431 221.475 216.851 221.809L212.5 224.325C211.92 224.659 211.446 224.39 211.444 223.725L211.43 218.717C211.428 218.05 211.898 217.237 212.478 216.901L216.83 214.386Z" fill="#39C988"/>
<path d="M225.431 219.42C226.009 219.086 226.483 219.354 226.485 220.018L226.499 225.024C226.501 225.693 226.03 226.506 225.453 226.84L221.101 229.356C220.519 229.692 220.047 229.424 220.045 228.753L220.031 223.747C220.029 223.083 220.497 222.272 221.08 221.935L225.431 219.42Z" fill="#189453"/>
<path d="M225.4 209.42C225.978 209.086 226.452 209.354 226.453 210.021L226.468 215.029C226.469 215.694 225.999 216.51 225.421 216.844L221.07 219.359C220.487 219.695 220.016 219.424 220.014 218.76L220 213.752C219.998 213.084 220.466 212.272 221.049 211.936L225.4 209.42Z" fill="#39C988"/>
<path d="M234.002 214.455C234.584 214.118 235.056 214.387 235.058 215.052L235.072 220.057C235.074 220.727 234.606 221.539 234.023 221.876L229.672 224.391C229.094 224.725 228.617 224.459 228.616 223.789L228.602 218.784C228.6 218.119 229.073 217.304 229.65 216.971L234.002 214.456V214.455Z" fill="#39C988"/>
<path d="M242.718 199.489C243.298 199.154 243.769 199.423 243.771 200.09L243.785 205.098C243.787 205.763 243.319 206.578 242.739 206.913L238.388 209.428C237.808 209.763 237.336 209.491 237.334 208.827L237.32 203.819C237.319 203.151 237.786 202.339 238.366 202.004L242.718 199.489Z" fill="#39C988"/>
<path d="M242.726 209.489C243.306 209.154 243.777 209.423 243.779 210.088L243.793 215.093C243.795 215.763 243.327 216.575 242.747 216.91L238.395 219.425C237.815 219.76 237.344 219.491 237.342 218.821L237.328 213.816C237.326 213.151 237.794 212.34 238.374 212.004L242.726 209.489Z" fill="#189453"/>
<path d="M233.978 204.456C234.561 204.119 235.032 204.388 235.034 205.055L235.048 210.063C235.05 210.728 234.582 211.542 234 211.879L229.648 214.394C229.071 214.728 228.594 214.46 228.592 213.795L228.578 208.787C228.576 208.12 229.05 207.305 229.627 206.971L233.978 204.456Z" fill="#189453"/>
<path d="M107.189 202.174L104.414 204.164L165.251 239.325L165.267 235.741L107.189 202.174Z" fill="white"/>
<path d="M107.43 142.133L104.67 140.538L104.414 204.164L107.189 202.174L107.43 142.133Z" fill="#8AE5AD"/>
<path d="M107.421 142.133L107.18 202.174L165.258 235.741L165.498 175.699L107.421 142.133Z" fill="#3D4449"/>
<path d="M160.908 223.594C160.739 223.594 160.568 223.552 160.415 223.461L155.892 220.848C155.421 220.576 155.259 219.971 155.529 219.498C155.803 219.02 156.416 218.862 156.88 219.136L161.402 221.749C161.873 222.021 162.035 222.626 161.765 223.1C161.58 223.416 161.248 223.594 160.909 223.594L160.908 223.594Z" fill="white"/>
<path d="M151.375 218.085C151.205 218.085 151.035 218.042 150.881 217.951L111.337 195.095C110.867 194.823 110.704 194.219 110.974 193.745C111.248 193.27 111.862 193.108 112.325 193.384L151.869 216.239C152.34 216.512 152.502 217.116 152.232 217.59C152.047 217.906 151.715 218.084 151.376 218.084L151.375 218.085Z" fill="#04D553"/>
<path d="M160.908 213.852C160.739 213.852 160.568 213.809 160.415 213.718L155.892 211.105C155.421 210.833 155.259 210.228 155.529 209.755C155.803 209.279 156.416 209.117 156.88 209.393L161.402 212.006C161.873 212.279 162.035 212.883 161.765 213.357C161.58 213.673 161.248 213.851 160.909 213.851L160.908 213.852Z" fill="white"/>
<path d="M151.428 208.341C151.259 208.341 151.088 208.298 150.935 208.207L133.126 197.914C132.656 197.641 132.493 197.037 132.763 196.563C133.041 196.086 133.647 195.93 134.114 196.202L151.922 206.495C152.393 206.768 152.555 207.372 152.285 207.846C152.1 208.162 151.768 208.34 151.429 208.34L151.428 208.341Z" fill="#00A63F"/>
<path d="M130.333 196.18C130.163 196.18 129.993 196.137 129.839 196.046L111.337 185.352C110.867 185.08 110.704 184.476 110.974 184.002C111.248 183.525 111.862 183.368 112.325 183.641L130.827 194.335C131.298 194.607 131.46 195.211 131.19 195.685C131.005 196.001 130.673 196.179 130.334 196.179L130.333 196.18Z" fill="white"/>
<path d="M160.908 204.109C160.739 204.109 160.568 204.067 160.415 203.976L155.892 201.361C155.421 201.089 155.259 200.484 155.529 200.011C155.803 199.533 156.416 199.377 156.88 199.649L161.402 202.264C161.873 202.536 162.035 203.141 161.765 203.614C161.58 203.931 161.248 204.108 160.909 204.108L160.908 204.109Z" fill="white"/>
<path d="M151.375 198.599C151.205 198.599 151.035 198.557 150.881 198.466L111.337 175.61C110.867 175.338 110.704 174.734 110.974 174.26C111.248 173.785 111.862 173.623 112.325 173.899L151.869 196.754C152.34 197.026 152.502 197.631 152.232 198.105C152.047 198.421 151.715 198.599 151.376 198.599L151.375 198.599Z" fill="white"/>
<path d="M160.908 194.366C160.739 194.366 160.568 194.324 160.415 194.233L155.892 191.62C155.421 191.347 155.259 190.743 155.529 190.269C155.803 189.794 156.416 189.632 156.88 189.908L161.402 192.521C161.873 192.793 162.035 193.398 161.765 193.871C161.58 194.188 161.248 194.365 160.909 194.365L160.908 194.366Z" fill="white"/>
<path d="M151.447 188.855C151.277 188.855 151.107 188.813 150.953 188.722L142.345 183.747C141.874 183.475 141.712 182.87 141.982 182.396C142.256 181.919 142.866 181.763 143.333 182.035L151.941 187.01C152.412 187.282 152.574 187.887 152.304 188.361C152.119 188.677 151.787 188.855 151.448 188.855L151.447 188.855Z" fill="white"/>
<path d="M138.842 181.613C138.672 181.613 138.502 181.571 138.348 181.48L111.337 165.867C110.867 165.595 110.704 164.991 110.974 164.517C111.248 164.04 111.862 163.883 112.325 164.155L139.336 179.768C139.806 180.04 139.969 180.645 139.699 181.118C139.513 181.435 139.181 181.612 138.842 181.612L138.842 181.613Z" fill="#FFDE9B"/>
<path d="M160.908 184.624C160.739 184.624 160.568 184.582 160.415 184.491L155.892 181.876C155.421 181.604 155.259 180.999 155.529 180.526C155.803 180.048 156.416 179.892 156.88 180.164L161.402 182.779C161.873 183.051 162.035 183.656 161.765 184.129C161.58 184.446 161.248 184.623 160.909 184.623L160.908 184.624Z" fill="white"/>
<path d="M151.308 179.113C151.139 179.113 150.969 179.07 150.815 178.979L133.775 169.131C133.304 168.859 133.142 168.254 133.412 167.781C133.686 167.303 134.299 167.145 134.763 167.419L151.803 177.267C152.273 177.539 152.436 178.144 152.166 178.618C151.98 178.934 151.648 179.112 151.309 179.112L151.308 179.113Z" fill="#FF6161"/>
<path d="M130.557 167.081C130.388 167.081 130.217 167.038 130.064 166.947L111.337 156.124C110.867 155.852 110.704 155.248 110.974 154.774C111.248 154.297 111.862 154.139 112.325 154.412L131.051 165.235C131.522 165.508 131.684 166.112 131.414 166.586C131.229 166.902 130.897 167.08 130.558 167.08L130.557 167.081Z" fill="white"/>
<path d="M309.88 314.999L296.513 307.028C296.046 306.748 295.892 306.142 296.17 305.673C296.448 305.2 297.057 305.049 297.524 305.329L310.389 313L329.104 302.026C329.413 301.845 329.791 301.845 330.1 302.026L346.577 311.668C347.048 311.944 347.206 312.549 346.932 313.02C346.654 313.491 346.04 313.654 345.581 313.375L329.602 304.025L310.884 315.003C310.562 315.192 310.175 315.176 309.881 314.999L309.88 314.999Z" fill="#DFEACE"/>
<path d="M320.286 346.685L296.4 332.179L286.225 338.368C285.901 338.562 285.496 338.558 285.179 338.357L264.909 325.395C264.45 325.102 264.315 324.491 264.608 324.03C264.906 323.571 265.515 323.437 265.974 323.729L285.723 336.358L295.886 330.176C296.203 329.986 296.596 329.986 296.913 330.176L321.312 344.993C322.421 345.667 321.418 347.359 320.285 346.684L320.286 346.685Z" fill="#DFEACE"/>
<path d="M267.062 377.628L242.146 363.29C241.478 362.904 241.501 361.957 242.139 361.581L259.036 351.625L240.248 339.738C239.788 339.446 239.65 338.834 239.943 338.372C240.233 337.913 240.842 337.781 241.305 338.066L261.459 350.82C262.078 351.217 262.073 352.134 261.432 352.508L244.604 362.424L268.05 375.914C269.172 376.563 268.214 378.275 267.062 377.629V377.628Z" fill="#DFEACE"/>
<path d="M345.727 315.297C347.378 316.241 350.039 316.241 351.689 315.297C353.34 314.353 353.34 312.768 351.689 311.824C350.004 310.88 347.343 310.88 345.693 311.824C344.076 312.768 344.076 314.353 345.726 315.297H345.727Z" fill="#8AE5AD"/>
<path d="M264.946 379.235C266.715 380.255 269.568 380.255 271.337 379.235C273.09 378.214 273.074 376.554 271.305 375.533C269.536 374.513 266.683 374.513 264.93 375.533C263.177 376.554 263.177 378.214 264.946 379.235Z" fill="#8AE5AD"/>
<path d="M319.378 349.238C321.389 350.399 324.631 350.399 326.642 349.238C328.634 348.078 328.616 346.192 326.605 345.031C324.594 343.871 321.352 343.871 319.359 345.031C317.367 346.191 317.367 348.077 319.378 349.238Z" fill="#8AE5AD"/>
<path d="M43.1313 315.004L24.2698 304.023L8.16005 313.376C7.69304 313.646 7.08389 313.49 6.81375 313.017C6.54007 312.544 6.6981 311.94 7.17218 311.665L23.7763 302.024C24.0774 301.846 24.4596 301.846 24.7677 302.024L43.6257 313.001L56.5988 305.326C57.0578 305.054 57.6714 305.202 57.9495 305.673C58.2276 306.144 58.0731 306.751 57.6025 307.029L44.1316 314.999C43.8155 315.185 43.435 315.178 43.1322 315.003L43.1313 315.004Z" fill="#DFEACE"/>
<path d="M32.6173 344.992L57.2012 330.175C57.5173 329.985 57.911 329.987 58.22 330.176L68.4687 336.361L88.3755 323.73C88.831 323.438 89.4481 323.575 89.7377 324.035C90.0308 324.496 89.8922 325.106 89.4331 325.398L69.009 338.357C68.6929 338.559 68.2877 338.567 67.9708 338.368L57.7106 332.176L33.636 346.686C32.5113 347.359 31.5023 345.664 32.6173 344.99V344.992Z" fill="#DFEACE"/>
<path d="M86.2426 375.911L109.866 362.422L92.9105 352.509C92.259 352.128 92.2652 351.204 92.8832 350.817L113.192 338.063C113.651 337.781 114.264 337.912 114.554 338.375C114.843 338.837 114.704 339.447 114.241 339.739L95.3145 351.624L112.339 361.578C112.981 361.952 113.004 362.903 112.331 363.291L87.2225 377.629C86.0669 378.28 85.1258 376.547 86.2426 375.911Z" fill="#DFEACE"/>
<path d="M7.19986 315.297C5.54898 316.241 2.88815 316.241 1.23816 315.297C-0.41272 314.353 -0.41272 312.768 1.23816 311.824C2.92259 310.88 5.58341 310.88 7.23429 311.824C8.85074 312.768 8.85074 314.353 7.20074 315.297H7.19986Z" fill="#8AE5AD"/>
<path d="M89.3912 379.234C87.622 380.255 84.7696 380.255 83.0004 379.234C81.2471 378.213 81.263 376.554 83.0322 375.533C84.8014 374.512 87.6538 374.512 89.4071 375.533C91.1603 376.554 91.1603 378.213 89.3912 379.234Z" fill="#8AE5AD"/>
<path d="M35.0203 349.238C33.0092 350.398 29.7675 350.398 27.7564 349.238C25.7639 348.078 25.7824 346.192 27.7926 345.031C29.8037 343.87 33.0463 343.87 35.0388 345.031C37.0314 346.191 37.0314 348.077 35.0203 349.238Z" fill="#8AE5AD"/>
<path d="M227.426 40.3436L227.372 46.4139L171.938 78.6608L171.992 72.5914L227.426 40.3436Z" fill="#8AE5AD"/>
<path d="M171.99 72.5914L171.936 78.6608L118.438 47.7421L118.491 41.6719L171.99 72.5914Z" fill="#C5FEDA"/>
<path d="M227.425 40.3436L171.991 72.5914L118.492 41.6718L173.926 9.42487L227.425 40.3436Z" fill="white"/>
</svg>
