<svg xmlns="http://www.w3.org/2000/svg" width="40" height="40" viewBox="0 0 40 40" fill="none" class="svg replaced-svg">
<g clip-path="url(#clip0_842_5672)">
<path d="M33.5557 10.1272L34.09 9.59288C34.4419 9.24099 34.4419 8.66866 34.09 8.31678L33.2696 7.49636C32.1254 6.35219 30.8427 5.36088 29.4572 4.54986C29.2044 4.40188 28.8797 4.48686 28.7317 4.73962C28.5837 4.99238 28.6687 5.31719 28.9215 5.46516C30.2289 6.23044 31.4395 7.16618 32.5198 8.24636L33.2283 8.95486L25.4754 16.7076L24.767 15.9992C23.4936 14.7259 21.8007 14.0247 20 14.0247H18.9981V3.06053H20C22.4201 3.06053 24.7616 3.53692 26.9597 4.4764C27.2289 4.59157 27.5406 4.46643 27.6557 4.19727C27.7708 3.9279 27.6458 3.61631 27.3766 3.50121C25.0459 2.50509 22.5642 2 20 2H18.8399C18.3424 2 17.9376 2.40477 17.9376 2.90223V3.65647C13.8594 4.14325 10.098 6.06945 7.30142 9.11536C4.37677 12.3009 2.76611 16.4385 2.76611 20.7661C2.76611 22.5175 3.02813 24.2458 3.54496 25.903C3.61581 26.1301 3.82516 26.2756 4.05105 26.2756C4.1033 26.2756 4.15646 26.2678 4.209 26.2514C4.48862 26.1642 4.64459 25.8669 4.55741 25.5873C4.12472 24.1998 3.88292 22.7587 3.83576 21.2963H11.744C11.8637 23.179 12.6157 24.8925 13.7899 26.2262L8.19453 31.8216C7.04039 30.5898 6.08125 29.1804 5.35613 27.6381C5.23148 27.3731 4.91559 27.259 4.65067 27.3838C4.38561 27.5084 4.27178 27.8242 4.39636 28.0893C5.76903 31.0093 7.92904 33.4819 10.6428 35.2402C13.4294 37.0457 16.6651 37.9999 20 37.9999C24.6033 37.9999 28.9312 36.2074 32.1863 32.9522C35.4413 29.6971 37.2339 25.3694 37.2339 20.7661C37.2339 16.9088 35.9302 13.1508 33.5557 10.1272ZM36.1638 20.2359H33.6207C33.3278 20.2359 33.0905 20.4732 33.0905 20.7662C33.0905 21.0591 33.3278 21.2964 33.6207 21.2964H36.1639C36.0377 25.2413 34.5048 28.942 31.8047 31.8207L26.2103 26.2263C27.3844 24.8925 28.1365 23.1791 28.2562 21.2964H31.361C31.6539 21.2964 31.8912 21.059 31.8912 20.7661C31.8912 20.4732 31.6539 20.2358 31.361 20.2358H28.2557C28.1732 18.9341 27.7868 17.6795 27.1237 16.5593L32.8005 10.8824C34.8712 13.5628 36.0519 16.8454 36.1638 20.2359ZM20.5303 29.0221C22.413 28.9024 24.1265 28.1504 25.4603 26.9762L31.0546 32.5706C28.1759 35.2708 24.4752 36.8037 20.5303 36.9299V29.0221ZM17.9376 12.7526C16.651 13.0827 15.495 13.7117 14.5392 14.5553L8.94573 8.96179C11.4269 6.6362 14.5637 5.15535 17.9377 4.72562L17.9376 12.7526ZM8.08267 9.83262C8.12008 9.7919 8.15826 9.75224 8.19601 9.71201L13.7904 15.3064C12.6101 16.6509 11.8635 18.3724 11.7438 20.2358H3.83633C3.96196 16.3679 5.45787 12.6916 8.08267 9.83262ZM17.9376 13.8559V14.183C17.9376 14.6805 18.3424 15.0853 18.8399 15.0853H20C21.5174 15.0853 22.944 15.6761 24.017 16.7492L24.8374 17.5695C25.0133 17.7454 25.2443 17.8333 25.4754 17.8333C25.7064 17.8333 25.9374 17.7454 26.1133 17.5695L26.3453 17.3375C26.9138 18.3865 27.213 19.5591 27.213 20.7661C27.213 24.7433 23.9772 27.9792 20 27.9792C16.0227 27.9792 12.787 24.7433 12.787 20.7661C12.7871 17.562 14.9181 14.7554 17.9376 13.8559ZM8.94488 32.5712L14.5398 26.9762C15.8736 28.1504 17.587 28.9024 19.4698 29.0221V36.9304C16.528 36.8351 13.686 35.9482 11.2195 34.3502C10.4058 33.823 9.6454 33.2271 8.94488 32.5712Z" fill="#00A63F"></path>
</g>
<defs>
<clipPath id="clip0_842_5672">
<rect width="36" height="36" fill="white" transform="translate(2 2)"></rect>
</clipPath>
</defs>
</svg>