<svg width="50" height="50" viewBox="0 0 50 50" fill="none" xmlns="http://www.w3.org/2000/svg">
<g clip-path="url(#clip0_828_1321)">
<path d="M25.3042 26.5156L20.1021 41.6325C21.656 42.088 23.2988 42.3394 25.0011 42.3394C27.0196 42.3394 28.9569 41.99 30.7581 41.3562C30.7119 41.2818 30.6697 41.2029 30.6352 41.1171L25.3042 26.5156Z" fill="#00A63F"/>
<path d="M7.66016 24.9978C7.66016 31.8619 11.6491 37.7931 17.4333 40.6034L9.16236 17.9414C8.20052 20.0979 7.66016 22.4843 7.66016 24.9978Z" fill="#00A63F"/>
<path d="M36.705 24.1241C36.705 21.9813 35.9359 20.4976 35.2763 19.3416C34.397 17.9134 33.5731 16.7042 33.5731 15.2755C33.5731 13.6817 34.7817 12.1981 36.4849 12.1981C36.5621 12.1981 36.6346 12.2076 36.71 12.2112C33.6257 9.38604 29.5161 7.66016 25.0013 7.66016C18.9425 7.66016 13.6129 10.768 10.5137 15.4761C10.9202 15.4883 11.3027 15.4969 11.6293 15.4969C13.4432 15.4969 16.2512 15.2769 16.2512 15.2769C17.1867 15.2206 17.2956 16.594 16.3623 16.7042C16.3623 16.7042 15.4227 16.8145 14.3778 16.8698L20.6911 35.6517L24.4854 24.2706L21.7832 16.8694C20.8495 16.814 19.9652 16.7038 19.9652 16.7038C19.0315 16.6493 19.1404 15.2211 20.0745 15.2764C20.0745 15.2764 22.9387 15.4965 24.6415 15.4965C26.4549 15.4965 29.2638 15.2764 29.2638 15.2764C30.1993 15.2211 30.3087 16.5935 29.3741 16.7038C29.3741 16.7038 28.4335 16.814 27.3896 16.8694L33.6565 35.5088L35.3861 29.7296C36.1351 27.3313 36.705 25.6081 36.705 24.1241Z" fill="#00A63F"/>
<path d="M40.2147 16.6797C40.2891 17.2314 40.3318 17.8253 40.3318 18.4627C40.3318 20.2222 40.0037 22.2003 39.0138 24.6735L33.7168 39.9863C38.8713 36.9801 42.3399 31.3951 42.3399 24.9992C42.3403 21.9839 41.5695 19.1492 40.2147 16.6797Z" fill="#00A63F"/>
<path d="M25 3C12.8499 3 3.00049 12.8499 3.00049 25C3.00049 37.1501 12.8499 47 25 47C37.1502 47 46.9996 37.1501 46.9996 25C46.9996 12.8499 37.1502 3 25 3ZM25.0009 44.2855C14.3662 44.2855 5.71544 35.6348 5.71544 24.9991C5.71544 14.3652 14.3657 5.7145 25.0009 5.7145C35.6344 5.7145 44.2846 14.3657 44.2846 24.9991C44.2851 35.6339 35.6339 44.2855 25.0009 44.2855Z" fill="#00A63F"/>
</g>
<defs>
<clipPath id="clip0_828_1321">
<rect width="44" height="44" fill="white" transform="translate(3 3)"/>
</clipPath>
</defs>
</svg>
