<svg width="93" height="93" viewBox="0 0 93 93" fill="none" xmlns="http://www.w3.org/2000/svg">
<g filter="url(#filter0_d_189_582)">
<circle cx="46.5" cy="42.5" r="42.5" fill="white"/>
<path d="M24.9199 56.76H53.3999V52.28H24.9199V56.76Z" fill="white"/>
<path d="M69.3999 58.0401L53.3999 44.2801L53.0799 57.4001H49.8799V62.5201H69.0799L69.3999 58.0401ZM65.8799 27.3201L53.0799 27.6401V27.9601V29.8801L65.8799 29.5601V27.3201ZM65.8799 33.0801L53.0799 33.4001V33.7201V35.6401L65.8799 35.3201V33.0801ZM66.5199 38.8401L53.7199 39.1601V39.4801V41.4001L66.5199 41.0801V38.8401Z" fill="white"/>
<path d="M53.6631 57.7213H24.6801C24.3319 57.7213 24.0503 57.439 24.0503 57.0915V36.9789C24.0503 36.6307 24.3325 36.3491 24.6801 36.3491H53.6631C54.0113 36.3491 54.2929 36.6314 54.2929 36.9789V57.0941C54.2929 57.439 54.0106 57.7213 53.6631 57.7213ZM25.3098 56.4611H53.0327V37.6093H25.3098V56.4611Z" fill="black"/>
<path d="M53.6631 53.281H24.6801C24.3319 53.281 24.0503 52.9988 24.0503 52.6512C24.0503 52.3037 24.3325 52.0215 24.6801 52.0215H53.6631C54.0113 52.0215 54.2929 52.3037 54.2929 52.6512C54.2929 52.9988 54.0106 53.281 53.6631 53.281ZM39.1703 55.594C39.3621 55.594 39.546 55.5178 39.6817 55.3821C39.8173 55.2465 39.8935 55.0626 39.8935 54.8708C39.8935 54.679 39.8173 54.495 39.6817 54.3594C39.546 54.2238 39.3621 54.1476 39.1703 54.1476C38.9785 54.1476 38.7945 54.2238 38.6589 54.3594C38.5233 54.495 38.4471 54.679 38.4471 54.8708C38.4471 55.0626 38.5233 55.2465 38.6589 55.3821C38.7945 55.5178 38.9785 55.594 39.1703 55.594Z" fill="black"/>
<path d="M37.0341 60.7357C36.6859 60.7357 36.4043 60.4535 36.4043 60.106V57.0909C36.4043 56.7428 36.6865 56.4612 37.0341 56.4612C37.3816 56.4612 37.6638 56.7434 37.6638 57.0909V60.106C37.6638 60.4541 37.3816 60.7357 37.0341 60.7357V60.7357Z" fill="black"/>
<path d="M41.3065 60.7357C40.9584 60.7357 40.6768 60.4535 40.6768 60.106V57.0909C40.6768 56.7428 40.959 56.4612 41.3065 56.4612C41.654 56.4612 41.9363 56.7434 41.9363 57.0909V60.106C41.9363 60.4541 41.654 60.7357 41.3065 60.7357V60.7357Z" fill="black"/>
<path d="M46.6766 63.3854H31.6674C31.3192 63.3854 31.0376 63.1032 31.0376 62.7556V60.0945C31.0376 59.7464 31.3198 59.4648 31.6674 59.4648H46.6734C47.0216 59.4648 47.3032 59.747 47.3032 60.0945V62.7556C47.3064 63.1038 47.0248 63.3854 46.6766 63.3854ZM32.2978 62.1252H46.0437V60.7243H32.2971L32.2978 62.1252ZM69.3192 63.3854H49.7026C49.3544 63.3854 49.0728 63.1032 49.0728 62.7556V57.0948C49.0728 56.7467 49.355 56.4651 49.7026 56.4651C50.0501 56.4651 50.3323 56.7473 50.3323 57.0948V62.1259H68.6894V23.875H50.3323V36.9758C50.3323 37.324 50.0501 37.6056 49.7026 37.6056C49.355 37.6056 49.0728 37.3233 49.0728 36.9758V23.2452C49.0728 22.8971 49.355 22.6155 49.7026 22.6155H69.3198C69.668 22.6155 69.9496 22.8977 69.9496 23.2452V62.7524C69.9496 63.1032 69.6667 63.3854 69.3192 63.3854ZM65.8882 30.3281H53.1349C52.7867 30.3281 52.5051 30.0459 52.5051 29.6984V27.4302C52.5051 27.082 52.7874 26.8004 53.1349 26.8004H65.8882C66.2363 26.8004 66.5179 27.0827 66.5179 27.4302V29.6984C66.5179 30.0465 66.2357 30.3281 65.8882 30.3281ZM53.7646 29.068H65.2578V28.06H53.7646V29.068ZM65.8882 35.9499H53.1349C52.7867 35.9499 52.5051 35.6676 52.5051 35.3201V33.052C52.5051 32.7038 52.7874 32.4222 53.1349 32.4222H65.8882C66.2363 32.4222 66.5179 32.7044 66.5179 33.052V35.3201C66.5179 35.6683 66.2357 35.9499 65.8882 35.9499ZM53.7646 34.6897H65.2578V33.6817H53.7646V34.6897ZM65.8875 41.5748H53.6622C53.3141 41.5748 53.0325 41.2926 53.0325 40.9451C53.0325 40.5976 53.3147 40.3153 53.6622 40.3153H65.2571V39.3073H53.6622C53.3141 39.3073 53.0325 39.0251 53.0325 38.6776C53.0325 38.33 53.3147 38.0478 53.6622 38.0478H65.8875C66.2357 38.0478 66.5173 38.33 66.5173 38.6776V40.9457C66.5173 41.2939 66.235 41.5748 65.8875 41.5748ZM59.5086 58.6872C58.9777 58.6856 58.4689 58.474 58.0934 58.0986C57.7179 57.7231 57.5063 57.2143 57.5048 56.6833C57.5063 56.1523 57.7179 55.6435 58.0934 55.2681C58.4689 54.8926 58.9777 54.681 59.5086 54.6795C60.0396 54.681 60.5484 54.8926 60.9239 55.2681C61.2993 55.6435 61.511 56.1523 61.5125 56.6833C61.5125 57.7873 60.6152 58.6872 59.5086 58.6872ZM59.5086 55.9422C59.3113 55.9422 59.1221 56.0206 58.9825 56.1601C58.843 56.2996 58.7646 56.4889 58.7646 56.6862C58.7646 56.8835 58.843 57.0728 58.9825 57.2123C59.1221 57.3518 59.3113 57.4302 59.5086 57.4302C59.9195 57.4302 60.253 57.0974 60.253 56.6865C60.253 56.2756 59.9202 55.9422 59.5086 55.9422Z" fill="black"/>
</g>
<defs>
<filter id="filter0_d_189_582" x="0" y="0" width="93" height="93" filterUnits="userSpaceOnUse" color-interpolation-filters="sRGB">
<feFlood flood-opacity="0" result="BackgroundImageFix"/>
<feColorMatrix in="SourceAlpha" type="matrix" values="0 0 0 0 0 0 0 0 0 0 0 0 0 0 0 0 0 0 127 0" result="hardAlpha"/>
<feOffset dy="4"/>
<feGaussianBlur stdDeviation="2"/>
<feComposite in2="hardAlpha" operator="out"/>
<feColorMatrix type="matrix" values="0 0 0 0 0 0 0 0 0 0 0 0 0 0 0 0 0 0 0.06 0"/>
<feBlend mode="normal" in2="BackgroundImageFix" result="effect1_dropShadow_189_582"/>
<feBlend mode="normal" in="SourceGraphic" in2="effect1_dropShadow_189_582" result="shape"/>
</filter>
</defs>
</svg>
